M48
;GenerationSoftware,Autodesk,EAGLE,9.6.2*%
;CreationDate,2020-09-03T07:48:18Z*%
FMAT,2
ICI,OFF
METRIC,TZ,000.000
T6C0.350
T5C0.500
T4C0.550
T3C0.600
T2C1.016
T1C1.100
%
G90
M71
T1
X80640Y45676
X5720Y45676
X9520Y45676
X76840Y45676
T2
X63500Y45720
X60960Y3810
X58420Y3810
X44450Y19685
X44450Y17145
X44450Y14605
X41910Y19685
X41910Y17145
X41910Y14605
X29210Y45720
X26670Y45720
X24130Y45720
X21590Y45720
X19050Y45720
X68580Y45720
X66040Y45720
X60960Y45720
X58420Y45720
X29210Y3810
X26670Y3810
X24130Y3810
X21590Y3810
X19050Y3810
X68580Y3810
X66040Y3810
X63500Y3810
T3
X51945Y42439
X43305Y42439
X51945Y47799
X43305Y47799
T4
X39965Y44766
X34965Y44766
T5
X40965Y47466
X33965Y47466
T6
X51356Y16113
X73104Y29309
X65131Y17701
X66040Y17701
X58976Y27491
X58976Y26583
X58976Y24765
X63314Y31829
X70584Y31829
X61496Y31829
X73104Y21130
X63306Y17701
X44450Y9922
X56516Y31769
X45006Y29092
X59134Y14367
X62397Y17701
X70584Y17701
X59055Y20221
X59032Y21130
X59033Y22039
X58976Y22947
X73104Y28400
X73104Y22947
X74454Y41275
X76914Y38814
X61488Y17701
X73104Y26583
X73104Y25674
X35560Y40164
X71834Y38576
X74287Y36108
X73104Y24765
X35560Y41434
X72700Y39442
X75168Y36989
X67628Y23177
X73104Y23856
X35560Y42704
X73581Y40323
X76041Y37862
X73104Y27491
X73104Y22039
X75327Y42148
X77788Y39688
X66949Y17701
X55404Y11906
X67858Y17701
X55404Y10680
X69675Y17701
X68766Y17701
X64222Y31829
X35560Y36441
X65131Y31829
X35560Y37667
X66040Y31829
X35560Y38894
X66949Y31829
X76438Y42783
X67858Y31829
X77708Y42783
X68766Y31829
X81756Y42783
X45879Y28091
X55404Y9287
X54689Y19447
X47135Y41130
X48113Y44239
X51435Y34052
X48101Y41116
X47125Y44289
X50721Y35084
X58976Y28400
X58976Y23856
X40272Y42335
X49052Y39844
X66834Y24765
X67628Y24765
X65246Y24765
X64452Y24765
X66040Y25559
X66834Y25559
X67628Y25559
X65246Y25559
X64452Y25559
X64452Y23971
X65246Y23971
X66040Y23971
X66834Y23971
X67628Y23971
X66834Y23177
X58976Y29309
X66040Y23177
X65246Y23177
X64452Y23177
X64452Y26352
X65246Y26352
X66040Y26352
X66834Y26352
X67628Y26352
X58976Y25674
X69675Y31829
X62405Y31829
X73104Y20221
X64214Y17701
X49768Y16113
X62230Y20955
X61674Y20399
X66040Y24765
X50562Y16113
M30