%
M48
M72
T01C0.01378
T02C0.01772
T03C0.02165
T04C0.03346
T05C0.04000
T06C0.04528
%
T01
X157550Y93136
X162550Y93136
X168800Y93136
X176925Y93136
X172550Y96886
X175675Y107511
X204425Y113761
X200675Y116886
X206925Y120011
X200675Y123136
X165050Y126261
X163300Y116611
X156925Y134386
X189425Y136886
X189425Y142511
T02
X161300Y142511
X172550Y126886
X251925Y184386
T03
X196925Y110011
X157550Y81886
T04
X231457Y193131
X251143Y193131
T05
X148800Y19263
X158800Y19263
X168800Y19263
X178800Y19263
X188800Y19263
X198800Y19263
X183800Y63136
X173800Y63136
X163800Y63136
X163800Y73136
X173800Y73136
X183800Y73136
X178800Y196261
X168800Y196261
X158800Y196261
X148800Y196261
X188800Y196261
X198800Y196261
T06
X226241Y203761
X256359Y203761
M30
