G75*
%MOIN*%
%OFA0B0*%
%FSLAX25Y25*%
%IPPOS*%
%LPD*%
%AMOC8*
5,1,8,0,0,1.08239X$1,22.5*
%
%ADD10C,0.01400*%
%ADD11C,0.06800*%
%ADD12OC8,0.06800*%
%ADD13C,0.06146*%
%ADD14R,0.07591X0.07591*%
%ADD15C,0.06800*%
%ADD16C,0.05800*%
%ADD17C,0.04172*%
%ADD18C,0.04565*%
%ADD19C,0.03778*%
D10*
X0138742Y0039868D02*
X0139676Y0038934D01*
X0141545Y0038934D01*
X0142479Y0039868D01*
X0140610Y0041736D02*
X0139676Y0041736D01*
X0138742Y0040802D01*
X0138742Y0039868D01*
X0139676Y0041736D02*
X0138742Y0042671D01*
X0138742Y0043605D01*
X0139676Y0044539D01*
X0141545Y0044539D01*
X0142479Y0043605D01*
X0145188Y0043605D02*
X0146122Y0044539D01*
X0147990Y0044539D01*
X0148924Y0043605D01*
X0151633Y0044539D02*
X0151633Y0038934D01*
X0153501Y0040802D01*
X0155370Y0038934D01*
X0155370Y0044539D01*
X0158079Y0043605D02*
X0159013Y0044539D01*
X0160881Y0044539D01*
X0161815Y0043605D01*
X0161815Y0039868D01*
X0160881Y0038934D01*
X0159013Y0038934D01*
X0158079Y0039868D01*
X0158079Y0043605D01*
X0164524Y0044539D02*
X0164524Y0038934D01*
X0168261Y0044539D01*
X0168261Y0038934D01*
X0170970Y0038934D02*
X0173772Y0041736D01*
X0174706Y0040802D02*
X0170970Y0044539D01*
X0174706Y0044539D02*
X0174706Y0038934D01*
X0177415Y0038934D02*
X0177415Y0044539D01*
X0181152Y0044539D02*
X0177415Y0038934D01*
X0181152Y0038934D02*
X0181152Y0044539D01*
X0183861Y0044539D02*
X0183861Y0039868D01*
X0184795Y0038934D01*
X0186663Y0038934D01*
X0187597Y0039868D01*
X0187597Y0044539D01*
X0196752Y0038000D02*
X0200488Y0038000D01*
X0203197Y0041736D02*
X0206934Y0038934D01*
X0203197Y0041736D02*
X0206934Y0044539D01*
X0148924Y0038934D02*
X0145188Y0042671D01*
X0145188Y0043605D01*
X0145188Y0038934D02*
X0148924Y0038934D01*
D11*
X0183800Y0063136D03*
D12*
X0173800Y0063136D03*
X0163800Y0063136D03*
X0163800Y0073136D03*
X0173800Y0073136D03*
X0183800Y0073136D03*
D13*
X0226111Y0193131D02*
X0231457Y0193131D01*
X0251143Y0193131D02*
X0256489Y0193131D01*
D14*
X0256359Y0203761D03*
X0226241Y0203761D03*
D15*
X0198800Y0199261D02*
X0198800Y0193261D01*
X0188800Y0193261D02*
X0188800Y0199261D01*
X0178800Y0199261D02*
X0178800Y0193261D01*
X0168800Y0193261D02*
X0168800Y0199261D01*
X0158800Y0199261D02*
X0158800Y0193261D01*
X0148800Y0193261D02*
X0148800Y0199261D01*
X0148800Y0022263D02*
X0148800Y0016263D01*
X0158800Y0016263D02*
X0158800Y0022263D01*
X0168800Y0022263D02*
X0168800Y0016263D01*
X0178800Y0016263D02*
X0178800Y0022263D01*
X0188800Y0022263D02*
X0188800Y0016263D01*
X0198800Y0016263D02*
X0198800Y0022263D01*
D16*
X0193175Y0087511D03*
X0178800Y0088136D03*
X0171925Y0088136D03*
X0165675Y0088136D03*
X0158800Y0088136D03*
X0221300Y0108761D03*
X0221300Y0121261D03*
X0221300Y0127511D03*
X0221300Y0133761D03*
X0154425Y0142511D03*
X0148175Y0142511D03*
D17*
X0161300Y0142511D03*
X0172550Y0126886D03*
X0251925Y0184386D03*
D18*
X0196925Y0110011D03*
X0157550Y0081886D03*
D19*
X0157550Y0093136D03*
X0162550Y0093136D03*
X0168800Y0093136D03*
X0176925Y0093136D03*
X0172550Y0096886D03*
X0175675Y0107511D03*
X0204425Y0113761D03*
X0200675Y0116886D03*
X0206925Y0120011D03*
X0200675Y0123136D03*
X0165050Y0126261D03*
X0163300Y0116611D03*
X0156925Y0134386D03*
X0189425Y0136886D03*
X0189425Y0142511D03*
M02*
