G75*
%MOIN*%
%OFA0B0*%
%FSLAX25Y25*%
%IPPOS*%
%LPD*%
%AMOC8*
5,1,8,0,0,1.08239X$1,22.5*
%
%ADD10R,0.04737X0.05131*%
%ADD11R,0.06312X0.07887*%
%ADD12R,0.03950X0.03950*%
%ADD13R,0.08989X0.22454*%
%ADD14R,0.05131X0.04737*%
%ADD15C,0.06800*%
%ADD16OC8,0.06800*%
%ADD17R,0.06600X0.02800*%
%ADD18R,0.02800X0.06600*%
%ADD19R,0.01969X0.05709*%
%ADD20R,0.06706X0.06706*%
%ADD21C,0.06146*%
%ADD22R,0.07591X0.07591*%
%ADD23C,0.06800*%
%ADD24C,0.04172*%
%ADD25C,0.04565*%
%ADD26C,0.03778*%
D10*
X0149425Y0095414D03*
X0149425Y0102107D03*
X0149425Y0107289D03*
X0149425Y0113982D03*
X0149425Y0119789D03*
X0149425Y0126482D03*
X0198175Y0103982D03*
X0198175Y0097289D03*
X0232954Y0163136D03*
X0239646Y0163136D03*
X0239646Y0171261D03*
X0245454Y0171261D03*
X0252146Y0171261D03*
X0232954Y0171261D03*
D11*
X0239243Y0179386D03*
X0245857Y0179386D03*
X0259243Y0179386D03*
X0225857Y0179386D03*
D12*
X0265847Y0203761D03*
X0271753Y0203761D03*
X0277722Y0203761D03*
X0283628Y0203761D03*
X0289597Y0203761D03*
X0295503Y0203761D03*
D13*
X0135675Y0123086D03*
X0135675Y0085685D03*
D14*
X0154425Y0072107D03*
X0154425Y0065414D03*
X0271925Y0191039D03*
X0283800Y0191039D03*
X0295675Y0191039D03*
X0295675Y0197732D03*
X0283800Y0197732D03*
X0271925Y0197732D03*
D15*
X0183800Y0063136D03*
D16*
X0173800Y0063136D03*
X0163800Y0063136D03*
X0163800Y0073136D03*
X0173800Y0073136D03*
X0183800Y0073136D03*
D17*
X0190000Y0107136D03*
X0190000Y0110236D03*
X0190000Y0113436D03*
X0190000Y0116536D03*
X0190000Y0119736D03*
X0190000Y0122836D03*
X0190000Y0126036D03*
X0190000Y0129136D03*
X0157600Y0129136D03*
X0157600Y0126036D03*
X0157600Y0122836D03*
X0157600Y0119736D03*
X0157600Y0116536D03*
X0157600Y0113436D03*
X0157600Y0110236D03*
X0157600Y0107136D03*
D18*
X0162800Y0101936D03*
X0165900Y0101936D03*
X0169100Y0101936D03*
X0172200Y0101936D03*
X0175400Y0101936D03*
X0178500Y0101936D03*
X0181700Y0101936D03*
X0184800Y0101936D03*
X0184800Y0134336D03*
X0181700Y0134336D03*
X0178500Y0134336D03*
X0175400Y0134336D03*
X0172200Y0134336D03*
X0169100Y0134336D03*
X0165900Y0134336D03*
X0162800Y0134336D03*
D19*
X0236182Y0193131D03*
X0238741Y0193131D03*
X0241300Y0193131D03*
X0243859Y0193131D03*
X0246418Y0193131D03*
D20*
X0245237Y0203761D03*
X0237363Y0203761D03*
D21*
X0231457Y0193131D02*
X0226111Y0193131D01*
X0251143Y0193131D02*
X0256489Y0193131D01*
D22*
X0256359Y0203761D03*
X0226241Y0203761D03*
D23*
X0148800Y0022263D02*
X0148800Y0016263D01*
X0158800Y0016263D02*
X0158800Y0022263D01*
X0168800Y0022263D02*
X0168800Y0016263D01*
X0178800Y0016263D02*
X0178800Y0022263D01*
X0188800Y0022263D02*
X0188800Y0016263D01*
X0198800Y0016263D02*
X0198800Y0022263D01*
X0198800Y0193261D02*
X0198800Y0199261D01*
X0188800Y0199261D02*
X0188800Y0193261D01*
X0178800Y0193261D02*
X0178800Y0199261D01*
X0168800Y0199261D02*
X0168800Y0193261D01*
X0158800Y0193261D02*
X0158800Y0199261D01*
X0148800Y0199261D02*
X0148800Y0193261D01*
D24*
X0251925Y0184386D03*
X0161300Y0142511D03*
X0172550Y0126886D03*
D25*
X0196925Y0110011D03*
X0157550Y0081886D03*
D26*
X0157550Y0093136D03*
X0162550Y0093136D03*
X0168800Y0093136D03*
X0176925Y0093136D03*
X0172550Y0096886D03*
X0175675Y0107511D03*
X0204425Y0113761D03*
X0200675Y0116886D03*
X0206925Y0120011D03*
X0200675Y0123136D03*
X0165050Y0126261D03*
X0163300Y0116611D03*
X0156925Y0134386D03*
X0189425Y0136886D03*
X0189425Y0142511D03*
M02*
