G75*
%MOIN*%
%OFA0B0*%
%FSLAX25Y25*%
%IPPOS*%
%LPD*%
%AMOC8*
5,1,8,0,0,1.08239X$1,22.5*
%
%ADD10C,0.01400*%
%ADD11C,0.06000*%
%ADD12OC8,0.06000*%
%ADD13C,0.05346*%
%ADD14R,0.06791X0.06791*%
%ADD15C,0.06000*%
%ADD16C,0.05000*%
%ADD17C,0.03372*%
%ADD18C,0.03765*%
%ADD19C,0.02400*%
%ADD20C,0.01600*%
%ADD21C,0.00600*%
%ADD22C,0.02978*%
D10*
X0138742Y0039868D02*
X0139676Y0038934D01*
X0141545Y0038934D01*
X0142479Y0039868D01*
X0140610Y0041736D02*
X0139676Y0041736D01*
X0138742Y0040802D01*
X0138742Y0039868D01*
X0139676Y0041736D02*
X0138742Y0042671D01*
X0138742Y0043605D01*
X0139676Y0044539D01*
X0141545Y0044539D01*
X0142479Y0043605D01*
X0145188Y0043605D02*
X0146122Y0044539D01*
X0147990Y0044539D01*
X0148924Y0043605D01*
X0151633Y0044539D02*
X0151633Y0038934D01*
X0153501Y0040802D01*
X0155370Y0038934D01*
X0155370Y0044539D01*
X0158079Y0043605D02*
X0159013Y0044539D01*
X0160881Y0044539D01*
X0161815Y0043605D01*
X0161815Y0039868D01*
X0160881Y0038934D01*
X0159013Y0038934D01*
X0158079Y0039868D01*
X0158079Y0043605D01*
X0164524Y0044539D02*
X0164524Y0038934D01*
X0168261Y0044539D01*
X0168261Y0038934D01*
X0170970Y0038934D02*
X0173772Y0041736D01*
X0174706Y0040802D02*
X0170970Y0044539D01*
X0174706Y0044539D02*
X0174706Y0038934D01*
X0177415Y0038934D02*
X0177415Y0044539D01*
X0181152Y0044539D02*
X0177415Y0038934D01*
X0181152Y0038934D02*
X0181152Y0044539D01*
X0183861Y0044539D02*
X0183861Y0039868D01*
X0184795Y0038934D01*
X0186663Y0038934D01*
X0187597Y0039868D01*
X0187597Y0044539D01*
X0196752Y0038000D02*
X0200488Y0038000D01*
X0203197Y0041736D02*
X0206934Y0038934D01*
X0203197Y0041736D02*
X0206934Y0044539D01*
X0148924Y0038934D02*
X0145188Y0042671D01*
X0145188Y0043605D01*
X0145188Y0038934D02*
X0148924Y0038934D01*
D11*
X0183800Y0063136D03*
D12*
X0173800Y0063136D03*
X0163800Y0063136D03*
X0163800Y0073136D03*
X0173800Y0073136D03*
X0183800Y0073136D03*
D13*
X0226111Y0193131D02*
X0231457Y0193131D01*
X0251143Y0193131D02*
X0256489Y0193131D01*
D14*
X0256359Y0203761D03*
X0226241Y0203761D03*
D15*
X0198800Y0199261D02*
X0198800Y0193261D01*
X0188800Y0193261D02*
X0188800Y0199261D01*
X0178800Y0199261D02*
X0178800Y0193261D01*
X0168800Y0193261D02*
X0168800Y0199261D01*
X0158800Y0199261D02*
X0158800Y0193261D01*
X0148800Y0193261D02*
X0148800Y0199261D01*
X0148800Y0022263D02*
X0148800Y0016263D01*
X0158800Y0016263D02*
X0158800Y0022263D01*
X0168800Y0022263D02*
X0168800Y0016263D01*
X0178800Y0016263D02*
X0178800Y0022263D01*
X0188800Y0022263D02*
X0188800Y0016263D01*
X0198800Y0016263D02*
X0198800Y0022263D01*
D16*
X0193175Y0087511D03*
X0178800Y0088136D03*
X0171925Y0088136D03*
X0165675Y0088136D03*
X0158800Y0088136D03*
X0221300Y0108761D03*
X0221300Y0121261D03*
X0221300Y0127511D03*
X0221300Y0133761D03*
X0154425Y0142511D03*
X0148175Y0142511D03*
D17*
X0161300Y0142511D03*
X0172550Y0126886D03*
X0251925Y0184386D03*
D18*
X0196925Y0110011D03*
X0157550Y0081886D03*
D19*
X0177550Y0081886D01*
X0183800Y0075636D01*
X0183800Y0073136D01*
X0183800Y0087538D01*
X0183800Y0096886D01*
X0196925Y0110011D01*
X0196925Y0172511D01*
X0208800Y0184386D01*
X0251925Y0184386D01*
D20*
X0189425Y0142511D02*
X0183509Y0142511D01*
X0179425Y0138426D01*
X0179425Y0110636D01*
X0176300Y0107511D01*
X0175675Y0107511D01*
X0172550Y0096886D02*
X0189425Y0113761D01*
X0189425Y0136886D01*
X0183509Y0142511D02*
X0161300Y0142511D01*
X0156925Y0140011D02*
X0156925Y0134386D01*
X0159425Y0126261D02*
X0148175Y0137511D01*
X0148175Y0142511D01*
X0154425Y0142511D02*
X0156925Y0140011D01*
X0172550Y0126886D02*
X0172550Y0114386D01*
X0154267Y0096103D01*
X0154267Y0072668D01*
X0163800Y0063136D01*
X0165675Y0088136D02*
X0165675Y0090011D01*
X0162550Y0093136D01*
X0158800Y0091886D02*
X0157550Y0093136D01*
X0158800Y0091886D02*
X0158800Y0088136D01*
X0168800Y0093136D02*
X0171925Y0090011D01*
X0171925Y0088136D01*
X0178800Y0088136D02*
X0178800Y0091261D01*
X0176925Y0093136D01*
X0183800Y0087538D02*
X0183827Y0087511D01*
X0193175Y0087511D01*
X0204425Y0113761D02*
X0213800Y0113761D01*
X0221300Y0121261D01*
X0210675Y0123136D02*
X0200675Y0123136D01*
X0210675Y0123136D02*
X0221300Y0133761D01*
X0221300Y0127511D02*
X0210675Y0116886D01*
X0200675Y0116886D01*
X0165050Y0126261D02*
X0159425Y0126261D01*
D21*
X0012674Y0010635D02*
X0010104Y0012089D01*
X0007998Y0014158D01*
X0006499Y0016702D01*
X0005710Y0019548D01*
X0005600Y0021021D01*
X0005600Y0194213D01*
X0005698Y0195708D01*
X0006471Y0198594D01*
X0007966Y0201183D01*
X0010079Y0203296D01*
X0012667Y0204790D01*
X0015554Y0205563D01*
X0017048Y0205661D01*
X0221545Y0205661D01*
X0221545Y0204061D01*
X0225941Y0204061D01*
X0225941Y0203461D01*
X0221545Y0203461D01*
X0221545Y0200194D01*
X0221634Y0199863D01*
X0221805Y0199567D01*
X0222047Y0199325D01*
X0222343Y0199154D01*
X0222674Y0199065D01*
X0225941Y0199065D01*
X0225941Y0203461D01*
X0226541Y0203461D01*
X0226541Y0204061D01*
X0230937Y0204061D01*
X0230937Y0205661D01*
X0251663Y0205661D01*
X0251663Y0204061D01*
X0256059Y0204061D01*
X0256059Y0203461D01*
X0251663Y0203461D01*
X0251663Y0200194D01*
X0251752Y0199863D01*
X0251923Y0199567D01*
X0252165Y0199325D01*
X0252462Y0199154D01*
X0252792Y0199065D01*
X0256059Y0199065D01*
X0256059Y0203461D01*
X0256659Y0203461D01*
X0256659Y0204061D01*
X0261055Y0204061D01*
X0261055Y0205661D01*
X0330473Y0205661D01*
X0331967Y0205563D01*
X0334854Y0204790D01*
X0337442Y0203296D01*
X0339556Y0201183D01*
X0341050Y0198594D01*
X0341823Y0195708D01*
X0341921Y0194213D01*
X0341921Y0021021D01*
X0341812Y0019548D01*
X0341812Y0019548D01*
X0341022Y0016702D01*
X0339523Y0014158D01*
X0337417Y0012089D01*
X0334847Y0010635D01*
X0331988Y0009896D01*
X0330514Y0009813D01*
X0330492Y0009813D01*
X0329656Y0009820D01*
X0329638Y0009813D01*
X0017884Y0009813D01*
X0017865Y0009820D01*
X0017029Y0009813D01*
X0017007Y0009813D01*
X0015533Y0009896D01*
X0012674Y0010635D01*
X0012248Y0010876D02*
X0335273Y0010876D01*
X0336331Y0011475D02*
X0011190Y0011475D01*
X0010132Y0012073D02*
X0147779Y0012073D01*
X0147793Y0012068D02*
X0148462Y0011963D01*
X0148500Y0011963D01*
X0148500Y0018963D01*
X0144500Y0018963D01*
X0144500Y0015924D01*
X0144606Y0015256D01*
X0144815Y0014612D01*
X0145122Y0014009D01*
X0145520Y0013461D01*
X0145999Y0012983D01*
X0146546Y0012585D01*
X0147149Y0012278D01*
X0147793Y0012068D01*
X0148500Y0012073D02*
X0149100Y0012073D01*
X0149100Y0011963D02*
X0149138Y0011963D01*
X0149807Y0012068D01*
X0150451Y0012278D01*
X0151054Y0012585D01*
X0151601Y0012983D01*
X0152080Y0013461D01*
X0152478Y0014009D01*
X0152785Y0014612D01*
X0152994Y0015256D01*
X0153100Y0015924D01*
X0153100Y0018963D01*
X0149100Y0018963D01*
X0149100Y0019563D01*
X0148500Y0019563D01*
X0148500Y0026563D01*
X0148462Y0026563D01*
X0147793Y0026457D01*
X0147149Y0026248D01*
X0146546Y0025940D01*
X0145999Y0025542D01*
X0145520Y0025064D01*
X0145122Y0024516D01*
X0144815Y0023913D01*
X0144606Y0023270D01*
X0144500Y0022601D01*
X0144500Y0019563D01*
X0148500Y0019563D01*
X0148500Y0018963D01*
X0149100Y0018963D01*
X0149100Y0011963D01*
X0149100Y0012672D02*
X0148500Y0012672D01*
X0148500Y0013270D02*
X0149100Y0013270D01*
X0149100Y0013869D02*
X0148500Y0013869D01*
X0148500Y0014467D02*
X0149100Y0014467D01*
X0149100Y0015066D02*
X0148500Y0015066D01*
X0148500Y0015664D02*
X0149100Y0015664D01*
X0149100Y0016263D02*
X0148500Y0016263D01*
X0148500Y0016861D02*
X0149100Y0016861D01*
X0149100Y0017460D02*
X0148500Y0017460D01*
X0148500Y0018058D02*
X0149100Y0018058D01*
X0149100Y0018657D02*
X0148500Y0018657D01*
X0148500Y0019255D02*
X0005791Y0019255D01*
X0005687Y0019854D02*
X0144500Y0019854D01*
X0144500Y0020452D02*
X0005642Y0020452D01*
X0005600Y0021051D02*
X0144500Y0021051D01*
X0144500Y0021649D02*
X0005600Y0021649D01*
X0005600Y0022248D02*
X0144500Y0022248D01*
X0144539Y0022846D02*
X0005600Y0022846D01*
X0005600Y0023445D02*
X0144663Y0023445D01*
X0144881Y0024043D02*
X0005600Y0024043D01*
X0005600Y0024642D02*
X0145214Y0024642D01*
X0145697Y0025240D02*
X0005600Y0025240D01*
X0005600Y0025839D02*
X0146407Y0025839D01*
X0147734Y0026437D02*
X0005600Y0026437D01*
X0005600Y0027036D02*
X0341921Y0027036D01*
X0341921Y0027634D02*
X0005600Y0027634D01*
X0005600Y0028233D02*
X0341921Y0028233D01*
X0341921Y0028832D02*
X0005600Y0028832D01*
X0005600Y0029430D02*
X0341921Y0029430D01*
X0341921Y0030029D02*
X0005600Y0030029D01*
X0005600Y0030627D02*
X0341921Y0030627D01*
X0341921Y0031226D02*
X0005600Y0031226D01*
X0005600Y0031824D02*
X0341921Y0031824D01*
X0341921Y0032423D02*
X0005600Y0032423D01*
X0005600Y0033021D02*
X0341921Y0033021D01*
X0341921Y0033620D02*
X0005600Y0033620D01*
X0005600Y0034218D02*
X0341921Y0034218D01*
X0341921Y0034817D02*
X0005600Y0034817D01*
X0005600Y0035415D02*
X0341921Y0035415D01*
X0341921Y0036014D02*
X0005600Y0036014D01*
X0005600Y0036612D02*
X0195877Y0036612D01*
X0196089Y0036400D02*
X0195152Y0037337D01*
X0195152Y0038663D01*
X0196089Y0039600D01*
X0201151Y0039600D01*
X0202088Y0038663D01*
X0202088Y0037337D01*
X0201151Y0036400D01*
X0196089Y0036400D01*
X0195278Y0037211D02*
X0005600Y0037211D01*
X0005600Y0037809D02*
X0138538Y0037809D01*
X0138076Y0038271D02*
X0139014Y0037334D01*
X0142207Y0037334D01*
X0143588Y0038714D01*
X0143588Y0038271D01*
X0144525Y0037334D01*
X0149587Y0037334D01*
X0150279Y0038026D01*
X0150970Y0037334D01*
X0152296Y0037334D01*
X0153233Y0038271D01*
X0153501Y0038540D01*
X0154707Y0037334D01*
X0156032Y0037334D01*
X0156970Y0038271D01*
X0156970Y0038714D01*
X0157416Y0038268D01*
X0158350Y0037334D01*
X0161544Y0037334D01*
X0162481Y0038271D01*
X0162924Y0038714D01*
X0162924Y0038271D01*
X0163050Y0038145D01*
X0163085Y0037970D01*
X0163505Y0037691D01*
X0163861Y0037334D01*
X0164040Y0037334D01*
X0164188Y0037235D01*
X0164683Y0037334D01*
X0165187Y0037334D01*
X0165313Y0037460D01*
X0165488Y0037495D01*
X0165768Y0037915D01*
X0166124Y0038271D01*
X0166124Y0038450D01*
X0166661Y0039254D01*
X0166661Y0038271D01*
X0167598Y0037334D01*
X0168923Y0037334D01*
X0169615Y0038026D01*
X0170307Y0037334D01*
X0171632Y0037334D01*
X0173106Y0038808D01*
X0173106Y0038271D01*
X0174043Y0037334D01*
X0175369Y0037334D01*
X0175994Y0037959D01*
X0176396Y0037691D01*
X0176752Y0037334D01*
X0176931Y0037334D01*
X0177079Y0037235D01*
X0177574Y0037334D01*
X0178078Y0037334D01*
X0178204Y0037460D01*
X0178379Y0037495D01*
X0178659Y0037915D01*
X0179015Y0038271D01*
X0179015Y0038450D01*
X0179552Y0039254D01*
X0179552Y0038271D01*
X0180489Y0037334D01*
X0181814Y0037334D01*
X0182752Y0038271D01*
X0182752Y0038714D01*
X0183198Y0038268D01*
X0184132Y0037334D01*
X0187326Y0037334D01*
X0188263Y0038271D01*
X0189197Y0039205D01*
X0189197Y0045202D01*
X0188260Y0046139D01*
X0186934Y0046139D01*
X0185997Y0045202D01*
X0185997Y0040534D01*
X0185461Y0040534D01*
X0185461Y0045202D01*
X0184523Y0046139D01*
X0183198Y0046139D01*
X0182573Y0045514D01*
X0182171Y0045782D01*
X0181814Y0046139D01*
X0181636Y0046139D01*
X0181488Y0046238D01*
X0180993Y0046139D01*
X0180489Y0046139D01*
X0180363Y0046013D01*
X0180188Y0045978D01*
X0179908Y0045558D01*
X0179552Y0045202D01*
X0179552Y0045023D01*
X0179015Y0044218D01*
X0179015Y0045202D01*
X0178078Y0046139D01*
X0176752Y0046139D01*
X0176061Y0045447D01*
X0175369Y0046139D01*
X0174043Y0046139D01*
X0173106Y0045202D01*
X0173106Y0044665D01*
X0171632Y0046139D01*
X0170307Y0046139D01*
X0169682Y0045514D01*
X0169280Y0045782D01*
X0168923Y0046139D01*
X0168745Y0046139D01*
X0168597Y0046238D01*
X0168102Y0046139D01*
X0167598Y0046139D01*
X0167472Y0046013D01*
X0167297Y0045978D01*
X0167017Y0045558D01*
X0166661Y0045202D01*
X0166661Y0045023D01*
X0166124Y0044218D01*
X0166124Y0045202D01*
X0165187Y0046139D01*
X0163861Y0046139D01*
X0162924Y0045202D01*
X0162924Y0044758D01*
X0162478Y0045205D01*
X0161544Y0046139D01*
X0158350Y0046139D01*
X0156970Y0044758D01*
X0156970Y0045202D01*
X0156032Y0046139D01*
X0154707Y0046139D01*
X0153770Y0045202D01*
X0153770Y0042402D01*
X0153233Y0042402D01*
X0153233Y0045202D01*
X0152296Y0046139D01*
X0150970Y0046139D01*
X0150033Y0045202D01*
X0150033Y0044758D01*
X0149590Y0045202D01*
X0148653Y0046139D01*
X0145459Y0046139D01*
X0144522Y0045202D01*
X0143833Y0044513D01*
X0143145Y0045202D01*
X0142207Y0046139D01*
X0139014Y0046139D01*
X0138079Y0045205D01*
X0137142Y0044267D01*
X0137142Y0042008D01*
X0137414Y0041736D01*
X0137142Y0041465D01*
X0137142Y0039205D01*
X0138076Y0038271D01*
X0137940Y0038408D02*
X0005600Y0038408D01*
X0005600Y0039006D02*
X0137341Y0039006D01*
X0137142Y0039605D02*
X0005600Y0039605D01*
X0005600Y0040203D02*
X0137142Y0040203D01*
X0137142Y0040802D02*
X0005600Y0040802D01*
X0005600Y0041400D02*
X0137142Y0041400D01*
X0137151Y0041999D02*
X0005600Y0041999D01*
X0005600Y0042597D02*
X0137142Y0042597D01*
X0137142Y0043196D02*
X0005600Y0043196D01*
X0005600Y0043794D02*
X0137142Y0043794D01*
X0137268Y0044393D02*
X0005600Y0044393D01*
X0005600Y0044991D02*
X0137866Y0044991D01*
X0138465Y0045590D02*
X0005600Y0045590D01*
X0005600Y0046188D02*
X0168350Y0046188D01*
X0168671Y0046188D02*
X0181241Y0046188D01*
X0181562Y0046188D02*
X0206466Y0046188D01*
X0206504Y0046216D02*
X0202565Y0043262D01*
X0202315Y0043227D01*
X0202054Y0042879D01*
X0201707Y0042619D01*
X0201671Y0042368D01*
X0201520Y0042166D01*
X0201581Y0041736D01*
X0201520Y0041307D01*
X0201671Y0041104D01*
X0201707Y0040854D01*
X0202054Y0040594D01*
X0202315Y0040246D01*
X0202565Y0040210D01*
X0206504Y0037256D01*
X0207816Y0037444D01*
X0208611Y0038504D01*
X0208424Y0039816D01*
X0205864Y0041736D01*
X0208424Y0043656D01*
X0208611Y0044969D01*
X0207816Y0046029D01*
X0206504Y0046216D01*
X0206701Y0046188D02*
X0341921Y0046188D01*
X0341921Y0045590D02*
X0208145Y0045590D01*
X0208594Y0044991D02*
X0341921Y0044991D01*
X0341921Y0044393D02*
X0208529Y0044393D01*
X0208444Y0043794D02*
X0341921Y0043794D01*
X0341921Y0043196D02*
X0207810Y0043196D01*
X0207012Y0042597D02*
X0341921Y0042597D01*
X0341921Y0041999D02*
X0206214Y0041999D01*
X0206312Y0041400D02*
X0341921Y0041400D01*
X0341921Y0040802D02*
X0207110Y0040802D01*
X0207908Y0040203D02*
X0341921Y0040203D01*
X0341921Y0039605D02*
X0208454Y0039605D01*
X0208540Y0039006D02*
X0341921Y0039006D01*
X0341921Y0038408D02*
X0208539Y0038408D01*
X0208090Y0037809D02*
X0341921Y0037809D01*
X0341921Y0037211D02*
X0201962Y0037211D01*
X0202088Y0037809D02*
X0205767Y0037809D01*
X0204969Y0038408D02*
X0202088Y0038408D01*
X0201745Y0039006D02*
X0204171Y0039006D01*
X0203373Y0039605D02*
X0189197Y0039605D01*
X0189197Y0040203D02*
X0202575Y0040203D01*
X0201777Y0040802D02*
X0189197Y0040802D01*
X0189197Y0041400D02*
X0201533Y0041400D01*
X0201543Y0041999D02*
X0189197Y0041999D01*
X0189197Y0042597D02*
X0201704Y0042597D01*
X0202292Y0043196D02*
X0189197Y0043196D01*
X0189197Y0043794D02*
X0203274Y0043794D01*
X0204072Y0044393D02*
X0189197Y0044393D01*
X0189197Y0044991D02*
X0204870Y0044991D01*
X0205668Y0045590D02*
X0188809Y0045590D01*
X0186385Y0045590D02*
X0185072Y0045590D01*
X0185461Y0044991D02*
X0185997Y0044991D01*
X0185997Y0044393D02*
X0185461Y0044393D01*
X0185461Y0043794D02*
X0185997Y0043794D01*
X0185997Y0043196D02*
X0185461Y0043196D01*
X0185461Y0042597D02*
X0185997Y0042597D01*
X0185997Y0041999D02*
X0185461Y0041999D01*
X0185461Y0041400D02*
X0185997Y0041400D01*
X0185997Y0040802D02*
X0185461Y0040802D01*
X0183058Y0038408D02*
X0182752Y0038408D01*
X0182290Y0037809D02*
X0183657Y0037809D01*
X0180014Y0037809D02*
X0178588Y0037809D01*
X0179015Y0038408D02*
X0179552Y0038408D01*
X0179552Y0039006D02*
X0179386Y0039006D01*
X0176218Y0037809D02*
X0175844Y0037809D01*
X0173568Y0037809D02*
X0172108Y0037809D01*
X0172706Y0038408D02*
X0173106Y0038408D01*
X0169832Y0037809D02*
X0169399Y0037809D01*
X0167123Y0037809D02*
X0165697Y0037809D01*
X0166124Y0038408D02*
X0166661Y0038408D01*
X0166661Y0039006D02*
X0166495Y0039006D01*
X0163327Y0037809D02*
X0162019Y0037809D01*
X0162617Y0038408D02*
X0162924Y0038408D01*
X0157875Y0037809D02*
X0156508Y0037809D01*
X0156970Y0038408D02*
X0157276Y0038408D01*
X0154232Y0037809D02*
X0152771Y0037809D01*
X0153370Y0038408D02*
X0153633Y0038408D01*
X0150495Y0037809D02*
X0150062Y0037809D01*
X0144050Y0037809D02*
X0142682Y0037809D01*
X0143281Y0038408D02*
X0143588Y0038408D01*
X0153233Y0042597D02*
X0153770Y0042597D01*
X0153770Y0043196D02*
X0153233Y0043196D01*
X0153233Y0043794D02*
X0153770Y0043794D01*
X0153770Y0044393D02*
X0153233Y0044393D01*
X0153233Y0044991D02*
X0153770Y0044991D01*
X0154158Y0045590D02*
X0152845Y0045590D01*
X0150421Y0045590D02*
X0149202Y0045590D01*
X0149590Y0045202D02*
X0149590Y0045202D01*
X0149800Y0044991D02*
X0150033Y0044991D01*
X0144910Y0045590D02*
X0142756Y0045590D01*
X0143145Y0045202D02*
X0143145Y0045202D01*
X0143355Y0044991D02*
X0144312Y0044991D01*
X0156581Y0045590D02*
X0157801Y0045590D01*
X0157203Y0044991D02*
X0156970Y0044991D01*
X0162093Y0045590D02*
X0163312Y0045590D01*
X0162924Y0044991D02*
X0162691Y0044991D01*
X0165736Y0045590D02*
X0167038Y0045590D01*
X0166639Y0044991D02*
X0166124Y0044991D01*
X0166124Y0044393D02*
X0166240Y0044393D01*
X0169569Y0045590D02*
X0169758Y0045590D01*
X0172181Y0045590D02*
X0173494Y0045590D01*
X0173106Y0044991D02*
X0172780Y0044991D01*
X0175918Y0045590D02*
X0176203Y0045590D01*
X0178627Y0045590D02*
X0179929Y0045590D01*
X0179530Y0044991D02*
X0179015Y0044991D01*
X0179015Y0044393D02*
X0179131Y0044393D01*
X0182460Y0045590D02*
X0182649Y0045590D01*
X0188998Y0039006D02*
X0195495Y0039006D01*
X0195152Y0038408D02*
X0188399Y0038408D01*
X0187801Y0037809D02*
X0195152Y0037809D01*
X0201363Y0036612D02*
X0341921Y0036612D01*
X0341921Y0046787D02*
X0005600Y0046787D01*
X0005600Y0047385D02*
X0341921Y0047385D01*
X0341921Y0047984D02*
X0005600Y0047984D01*
X0005600Y0048582D02*
X0341921Y0048582D01*
X0341921Y0049181D02*
X0005600Y0049181D01*
X0005600Y0049779D02*
X0341921Y0049779D01*
X0341921Y0050378D02*
X0005600Y0050378D01*
X0005600Y0050976D02*
X0341921Y0050976D01*
X0341921Y0051575D02*
X0005600Y0051575D01*
X0005600Y0052173D02*
X0341921Y0052173D01*
X0341921Y0052772D02*
X0005600Y0052772D01*
X0005600Y0053370D02*
X0341921Y0053370D01*
X0341921Y0053969D02*
X0005600Y0053969D01*
X0005600Y0054568D02*
X0341921Y0054568D01*
X0341921Y0055166D02*
X0005600Y0055166D01*
X0005600Y0055765D02*
X0341921Y0055765D01*
X0341921Y0056363D02*
X0005600Y0056363D01*
X0005600Y0056962D02*
X0341921Y0056962D01*
X0341921Y0057560D02*
X0005600Y0057560D01*
X0005600Y0058159D02*
X0341921Y0058159D01*
X0341921Y0058757D02*
X0005600Y0058757D01*
X0005600Y0059356D02*
X0162065Y0059356D01*
X0162185Y0059236D02*
X0165415Y0059236D01*
X0167700Y0061520D01*
X0167700Y0064751D01*
X0165415Y0067036D01*
X0162304Y0067036D01*
X0155967Y0073372D01*
X0155967Y0079533D01*
X0155974Y0079527D01*
X0156996Y0079103D01*
X0158104Y0079103D01*
X0159126Y0079527D01*
X0159385Y0079786D01*
X0176680Y0079786D01*
X0180807Y0075658D01*
X0179900Y0074751D01*
X0179900Y0071520D01*
X0182185Y0069236D01*
X0185415Y0069236D01*
X0187700Y0071520D01*
X0187700Y0074751D01*
X0185900Y0076551D01*
X0185900Y0085811D01*
X0190199Y0085811D01*
X0190293Y0085585D01*
X0191249Y0084628D01*
X0192499Y0084111D01*
X0193851Y0084111D01*
X0195101Y0084628D01*
X0196057Y0085585D01*
X0196575Y0086834D01*
X0196575Y0088187D01*
X0196057Y0089437D01*
X0195101Y0090393D01*
X0193851Y0090911D01*
X0192499Y0090911D01*
X0191249Y0090393D01*
X0190293Y0089437D01*
X0190199Y0089211D01*
X0185900Y0089211D01*
X0185900Y0096016D01*
X0197112Y0107228D01*
X0197479Y0107228D01*
X0198501Y0107652D01*
X0199284Y0108434D01*
X0199708Y0109457D01*
X0199708Y0110564D01*
X0199284Y0111587D01*
X0199025Y0111846D01*
X0199025Y0115157D01*
X0199685Y0114497D01*
X0201665Y0114497D01*
X0202354Y0115186D01*
X0202471Y0115186D01*
X0202036Y0114750D01*
X0202036Y0112771D01*
X0203435Y0111372D01*
X0205415Y0111372D01*
X0206104Y0112061D01*
X0214504Y0112061D01*
X0215500Y0113056D01*
X0220398Y0117954D01*
X0220624Y0117861D01*
X0221976Y0117861D01*
X0223226Y0118378D01*
X0224182Y0119335D01*
X0224700Y0120584D01*
X0224700Y0121937D01*
X0224182Y0123187D01*
X0223226Y0124143D01*
X0222640Y0124386D01*
X0223226Y0124628D01*
X0224182Y0125585D01*
X0224700Y0126834D01*
X0224700Y0128187D01*
X0224182Y0129437D01*
X0223226Y0130393D01*
X0222640Y0130636D01*
X0223226Y0130878D01*
X0224182Y0131835D01*
X0224700Y0133084D01*
X0224700Y0134437D01*
X0224182Y0135687D01*
X0223226Y0136643D01*
X0221976Y0137161D01*
X0220624Y0137161D01*
X0219374Y0136643D01*
X0218418Y0135687D01*
X0217900Y0134437D01*
X0217900Y0133084D01*
X0217994Y0132858D01*
X0209971Y0124836D01*
X0202354Y0124836D01*
X0201665Y0125525D01*
X0199685Y0125525D01*
X0199025Y0124864D01*
X0199025Y0171641D01*
X0209670Y0182286D01*
X0250368Y0182286D01*
X0250460Y0182193D01*
X0251411Y0181800D01*
X0252439Y0181800D01*
X0253390Y0182193D01*
X0254117Y0182921D01*
X0254511Y0183871D01*
X0254511Y0184900D01*
X0254117Y0185850D01*
X0253390Y0186578D01*
X0252439Y0186971D01*
X0251411Y0186971D01*
X0250460Y0186578D01*
X0250368Y0186486D01*
X0207930Y0186486D01*
X0194825Y0173380D01*
X0194825Y0111846D01*
X0194566Y0111587D01*
X0194142Y0110564D01*
X0194142Y0110198D01*
X0181700Y0097755D01*
X0181700Y0090019D01*
X0181682Y0090062D01*
X0180726Y0091018D01*
X0180500Y0091112D01*
X0180500Y0091965D01*
X0179314Y0093151D01*
X0179314Y0094125D01*
X0177915Y0095525D01*
X0175935Y0095525D01*
X0174536Y0094125D01*
X0174536Y0092146D01*
X0175935Y0090747D01*
X0176603Y0090747D01*
X0175918Y0090062D01*
X0175400Y0088812D01*
X0175400Y0087459D01*
X0175918Y0086210D01*
X0176874Y0085253D01*
X0178124Y0084736D01*
X0179476Y0084736D01*
X0180726Y0085253D01*
X0181682Y0086210D01*
X0181700Y0086252D01*
X0181700Y0080705D01*
X0179650Y0082755D01*
X0178420Y0083986D01*
X0159385Y0083986D01*
X0159126Y0084245D01*
X0158104Y0084668D01*
X0156996Y0084668D01*
X0155974Y0084245D01*
X0155967Y0084238D01*
X0155967Y0086160D01*
X0156874Y0085253D01*
X0158124Y0084736D01*
X0159476Y0084736D01*
X0160726Y0085253D01*
X0161682Y0086210D01*
X0162200Y0087459D01*
X0162200Y0088812D01*
X0161682Y0090062D01*
X0160726Y0091018D01*
X0160500Y0091112D01*
X0160500Y0091807D01*
X0161560Y0090747D01*
X0162535Y0090747D01*
X0163006Y0090275D01*
X0162793Y0090062D01*
X0162275Y0088812D01*
X0162275Y0087459D01*
X0162793Y0086210D01*
X0163749Y0085253D01*
X0164999Y0084736D01*
X0166351Y0084736D01*
X0167601Y0085253D01*
X0168557Y0086210D01*
X0168800Y0086795D01*
X0169043Y0086210D01*
X0169999Y0085253D01*
X0171249Y0084736D01*
X0172601Y0084736D01*
X0173851Y0085253D01*
X0174807Y0086210D01*
X0175325Y0087459D01*
X0175325Y0088812D01*
X0174807Y0090062D01*
X0173851Y0091018D01*
X0172948Y0091392D01*
X0171189Y0093151D01*
X0171189Y0094125D01*
X0169790Y0095525D01*
X0167810Y0095525D01*
X0166411Y0094125D01*
X0166411Y0092146D01*
X0167495Y0091062D01*
X0166698Y0091392D01*
X0164939Y0093151D01*
X0164939Y0094125D01*
X0163540Y0095525D01*
X0161560Y0095525D01*
X0160161Y0094125D01*
X0160161Y0092929D01*
X0159939Y0093151D01*
X0159939Y0094125D01*
X0158540Y0095525D01*
X0156560Y0095525D01*
X0155967Y0094931D01*
X0155967Y0095399D01*
X0174250Y0113681D01*
X0174250Y0124929D01*
X0174742Y0125421D01*
X0175136Y0126371D01*
X0175136Y0127400D01*
X0174742Y0128350D01*
X0174015Y0129078D01*
X0173064Y0129471D01*
X0172036Y0129471D01*
X0171085Y0129078D01*
X0170358Y0128350D01*
X0169964Y0127400D01*
X0169964Y0126371D01*
X0170358Y0125421D01*
X0170850Y0124929D01*
X0170850Y0115090D01*
X0152567Y0096807D01*
X0152567Y0071964D01*
X0153563Y0070968D01*
X0159900Y0064631D01*
X0159900Y0061520D01*
X0162185Y0059236D01*
X0161466Y0059954D02*
X0005600Y0059954D01*
X0005600Y0060553D02*
X0160868Y0060553D01*
X0160269Y0061151D02*
X0005600Y0061151D01*
X0005600Y0061750D02*
X0159900Y0061750D01*
X0159900Y0062348D02*
X0005600Y0062348D01*
X0005600Y0062947D02*
X0159900Y0062947D01*
X0159900Y0063545D02*
X0005600Y0063545D01*
X0005600Y0064144D02*
X0159900Y0064144D01*
X0159789Y0064742D02*
X0005600Y0064742D01*
X0005600Y0065341D02*
X0159191Y0065341D01*
X0158592Y0065939D02*
X0005600Y0065939D01*
X0005600Y0066538D02*
X0157994Y0066538D01*
X0157395Y0067136D02*
X0005600Y0067136D01*
X0005600Y0067735D02*
X0156797Y0067735D01*
X0156198Y0068333D02*
X0005600Y0068333D01*
X0005600Y0068932D02*
X0155600Y0068932D01*
X0155001Y0069530D02*
X0005600Y0069530D01*
X0005600Y0070129D02*
X0154403Y0070129D01*
X0153804Y0070727D02*
X0005600Y0070727D01*
X0005600Y0071326D02*
X0153206Y0071326D01*
X0152607Y0071924D02*
X0005600Y0071924D01*
X0005600Y0072523D02*
X0152567Y0072523D01*
X0152567Y0073121D02*
X0005600Y0073121D01*
X0005600Y0073720D02*
X0152567Y0073720D01*
X0152567Y0074318D02*
X0005600Y0074318D01*
X0005600Y0074917D02*
X0152567Y0074917D01*
X0152567Y0075515D02*
X0005600Y0075515D01*
X0005600Y0076114D02*
X0152567Y0076114D01*
X0152567Y0076712D02*
X0005600Y0076712D01*
X0005600Y0077311D02*
X0152567Y0077311D01*
X0152567Y0077909D02*
X0005600Y0077909D01*
X0005600Y0078508D02*
X0152567Y0078508D01*
X0152567Y0079106D02*
X0005600Y0079106D01*
X0005600Y0079705D02*
X0152567Y0079705D01*
X0152567Y0080303D02*
X0005600Y0080303D01*
X0005600Y0080902D02*
X0152567Y0080902D01*
X0152567Y0081501D02*
X0005600Y0081501D01*
X0005600Y0082099D02*
X0152567Y0082099D01*
X0152567Y0082698D02*
X0005600Y0082698D01*
X0005600Y0083296D02*
X0152567Y0083296D01*
X0152567Y0083895D02*
X0005600Y0083895D01*
X0005600Y0084493D02*
X0152567Y0084493D01*
X0152567Y0085092D02*
X0005600Y0085092D01*
X0005600Y0085690D02*
X0152567Y0085690D01*
X0152567Y0086289D02*
X0005600Y0086289D01*
X0005600Y0086887D02*
X0152567Y0086887D01*
X0152567Y0087486D02*
X0005600Y0087486D01*
X0005600Y0088084D02*
X0152567Y0088084D01*
X0152567Y0088683D02*
X0005600Y0088683D01*
X0005600Y0089281D02*
X0152567Y0089281D01*
X0152567Y0089880D02*
X0005600Y0089880D01*
X0005600Y0090478D02*
X0152567Y0090478D01*
X0152567Y0091077D02*
X0005600Y0091077D01*
X0005600Y0091675D02*
X0152567Y0091675D01*
X0152567Y0092274D02*
X0005600Y0092274D01*
X0005600Y0092872D02*
X0152567Y0092872D01*
X0152567Y0093471D02*
X0005600Y0093471D01*
X0005600Y0094069D02*
X0152567Y0094069D01*
X0152567Y0094668D02*
X0005600Y0094668D01*
X0005600Y0095266D02*
X0152567Y0095266D01*
X0152567Y0095865D02*
X0005600Y0095865D01*
X0005600Y0096463D02*
X0152567Y0096463D01*
X0152822Y0097062D02*
X0005600Y0097062D01*
X0005600Y0097660D02*
X0153421Y0097660D01*
X0154019Y0098259D02*
X0005600Y0098259D01*
X0005600Y0098857D02*
X0154618Y0098857D01*
X0155216Y0099456D02*
X0005600Y0099456D01*
X0005600Y0100054D02*
X0155815Y0100054D01*
X0156413Y0100653D02*
X0005600Y0100653D01*
X0005600Y0101251D02*
X0157012Y0101251D01*
X0157610Y0101850D02*
X0005600Y0101850D01*
X0005600Y0102448D02*
X0158209Y0102448D01*
X0158807Y0103047D02*
X0005600Y0103047D01*
X0005600Y0103645D02*
X0159406Y0103645D01*
X0160004Y0104244D02*
X0005600Y0104244D01*
X0005600Y0104842D02*
X0160603Y0104842D01*
X0161201Y0105441D02*
X0005600Y0105441D01*
X0005600Y0106039D02*
X0161800Y0106039D01*
X0162398Y0106638D02*
X0005600Y0106638D01*
X0005600Y0107237D02*
X0162997Y0107237D01*
X0163595Y0107835D02*
X0005600Y0107835D01*
X0005600Y0108434D02*
X0164194Y0108434D01*
X0164792Y0109032D02*
X0005600Y0109032D01*
X0005600Y0109631D02*
X0165391Y0109631D01*
X0165989Y0110229D02*
X0005600Y0110229D01*
X0005600Y0110828D02*
X0166588Y0110828D01*
X0167186Y0111426D02*
X0005600Y0111426D01*
X0005600Y0112025D02*
X0167785Y0112025D01*
X0168383Y0112623D02*
X0005600Y0112623D01*
X0005600Y0113222D02*
X0168982Y0113222D01*
X0169580Y0113820D02*
X0005600Y0113820D01*
X0005600Y0114419D02*
X0170179Y0114419D01*
X0170777Y0115017D02*
X0005600Y0115017D01*
X0005600Y0115616D02*
X0170850Y0115616D01*
X0170850Y0116214D02*
X0005600Y0116214D01*
X0005600Y0116813D02*
X0170850Y0116813D01*
X0170850Y0117411D02*
X0005600Y0117411D01*
X0005600Y0118010D02*
X0170850Y0118010D01*
X0170850Y0118608D02*
X0005600Y0118608D01*
X0005600Y0119207D02*
X0170850Y0119207D01*
X0170850Y0119805D02*
X0005600Y0119805D01*
X0005600Y0120404D02*
X0170850Y0120404D01*
X0170850Y0121002D02*
X0005600Y0121002D01*
X0005600Y0121601D02*
X0170850Y0121601D01*
X0170850Y0122199D02*
X0005600Y0122199D01*
X0005600Y0122798D02*
X0170850Y0122798D01*
X0170850Y0123396D02*
X0005600Y0123396D01*
X0005600Y0123995D02*
X0163937Y0123995D01*
X0164060Y0123872D02*
X0166040Y0123872D01*
X0167439Y0125271D01*
X0167439Y0127250D01*
X0166040Y0128650D01*
X0164060Y0128650D01*
X0163371Y0127961D01*
X0160129Y0127961D01*
X0156093Y0131997D01*
X0157915Y0131997D01*
X0159314Y0133396D01*
X0159314Y0135375D01*
X0158625Y0136064D01*
X0158625Y0140715D01*
X0157731Y0141608D01*
X0157825Y0141834D01*
X0157825Y0143187D01*
X0157307Y0144437D01*
X0156351Y0145393D01*
X0155101Y0145911D01*
X0153749Y0145911D01*
X0152499Y0145393D01*
X0151543Y0144437D01*
X0151300Y0143851D01*
X0151057Y0144437D01*
X0150101Y0145393D01*
X0148851Y0145911D01*
X0147499Y0145911D01*
X0146249Y0145393D01*
X0145293Y0144437D01*
X0144775Y0143187D01*
X0144775Y0141834D01*
X0145293Y0140585D01*
X0146249Y0139628D01*
X0146475Y0139535D01*
X0146475Y0136806D01*
X0147471Y0135811D01*
X0158721Y0124561D01*
X0163371Y0124561D01*
X0164060Y0123872D01*
X0166163Y0123995D02*
X0170850Y0123995D01*
X0170850Y0124593D02*
X0166761Y0124593D01*
X0167360Y0125192D02*
X0170587Y0125192D01*
X0170205Y0125790D02*
X0167439Y0125790D01*
X0167439Y0126389D02*
X0169964Y0126389D01*
X0169964Y0126987D02*
X0167439Y0126987D01*
X0167103Y0127586D02*
X0170041Y0127586D01*
X0170289Y0128184D02*
X0166505Y0128184D01*
X0163595Y0128184D02*
X0159905Y0128184D01*
X0159307Y0128783D02*
X0170790Y0128783D01*
X0171818Y0129381D02*
X0158708Y0129381D01*
X0158110Y0129980D02*
X0177725Y0129980D01*
X0177725Y0130578D02*
X0157511Y0130578D01*
X0156913Y0131177D02*
X0177725Y0131177D01*
X0177725Y0131775D02*
X0156314Y0131775D01*
X0158292Y0132374D02*
X0177725Y0132374D01*
X0177725Y0132972D02*
X0158890Y0132972D01*
X0159314Y0133571D02*
X0177725Y0133571D01*
X0177725Y0134170D02*
X0159314Y0134170D01*
X0159314Y0134768D02*
X0177725Y0134768D01*
X0177725Y0135367D02*
X0159314Y0135367D01*
X0158724Y0135965D02*
X0177725Y0135965D01*
X0177725Y0136564D02*
X0158625Y0136564D01*
X0158625Y0137162D02*
X0177725Y0137162D01*
X0177725Y0137761D02*
X0158625Y0137761D01*
X0158625Y0138359D02*
X0177725Y0138359D01*
X0177725Y0138958D02*
X0158625Y0138958D01*
X0158625Y0139556D02*
X0178151Y0139556D01*
X0177725Y0139130D02*
X0177725Y0111340D01*
X0176285Y0109900D01*
X0174685Y0109900D01*
X0173286Y0108500D01*
X0173286Y0106521D01*
X0174685Y0105122D01*
X0176665Y0105122D01*
X0178064Y0106521D01*
X0178064Y0106870D01*
X0181125Y0109931D01*
X0181125Y0111340D01*
X0181125Y0137722D01*
X0184213Y0140811D01*
X0187746Y0140811D01*
X0188435Y0140122D01*
X0190415Y0140122D01*
X0191814Y0141521D01*
X0191814Y0143500D01*
X0190415Y0144900D01*
X0188435Y0144900D01*
X0187746Y0144211D01*
X0163257Y0144211D01*
X0162765Y0144703D01*
X0161814Y0145096D01*
X0160786Y0145096D01*
X0159835Y0144703D01*
X0159108Y0143975D01*
X0158714Y0143025D01*
X0158714Y0141996D01*
X0159108Y0141046D01*
X0159835Y0140318D01*
X0160786Y0139925D01*
X0161814Y0139925D01*
X0162765Y0140318D01*
X0163257Y0140811D01*
X0179405Y0140811D01*
X0177725Y0139130D01*
X0178749Y0140155D02*
X0162369Y0140155D01*
X0163199Y0140753D02*
X0179348Y0140753D01*
X0181762Y0138359D02*
X0187520Y0138359D01*
X0187036Y0137875D02*
X0187036Y0135896D01*
X0187725Y0135207D01*
X0187725Y0114465D01*
X0172535Y0099275D01*
X0171560Y0099275D01*
X0170161Y0097875D01*
X0170161Y0095896D01*
X0171560Y0094497D01*
X0173540Y0094497D01*
X0174939Y0095896D01*
X0174939Y0096870D01*
X0191125Y0113056D01*
X0191125Y0135207D01*
X0191814Y0135896D01*
X0191814Y0137875D01*
X0190415Y0139275D01*
X0188435Y0139275D01*
X0187036Y0137875D01*
X0187036Y0137761D02*
X0181163Y0137761D01*
X0181125Y0137162D02*
X0187036Y0137162D01*
X0187036Y0136564D02*
X0181125Y0136564D01*
X0181125Y0135965D02*
X0187036Y0135965D01*
X0187566Y0135367D02*
X0181125Y0135367D01*
X0181125Y0134768D02*
X0187725Y0134768D01*
X0187725Y0134170D02*
X0181125Y0134170D01*
X0181125Y0133571D02*
X0187725Y0133571D01*
X0187725Y0132972D02*
X0181125Y0132972D01*
X0181125Y0132374D02*
X0187725Y0132374D01*
X0187725Y0131775D02*
X0181125Y0131775D01*
X0181125Y0131177D02*
X0187725Y0131177D01*
X0187725Y0130578D02*
X0181125Y0130578D01*
X0181125Y0129980D02*
X0187725Y0129980D01*
X0187725Y0129381D02*
X0181125Y0129381D01*
X0181125Y0128783D02*
X0187725Y0128783D01*
X0187725Y0128184D02*
X0181125Y0128184D01*
X0181125Y0127586D02*
X0187725Y0127586D01*
X0187725Y0126987D02*
X0181125Y0126987D01*
X0181125Y0126389D02*
X0187725Y0126389D01*
X0187725Y0125790D02*
X0181125Y0125790D01*
X0181125Y0125192D02*
X0187725Y0125192D01*
X0187725Y0124593D02*
X0181125Y0124593D01*
X0181125Y0123995D02*
X0187725Y0123995D01*
X0187725Y0123396D02*
X0181125Y0123396D01*
X0181125Y0122798D02*
X0187725Y0122798D01*
X0187725Y0122199D02*
X0181125Y0122199D01*
X0181125Y0121601D02*
X0187725Y0121601D01*
X0187725Y0121002D02*
X0181125Y0121002D01*
X0181125Y0120404D02*
X0187725Y0120404D01*
X0187725Y0119805D02*
X0181125Y0119805D01*
X0181125Y0119207D02*
X0187725Y0119207D01*
X0187725Y0118608D02*
X0181125Y0118608D01*
X0181125Y0118010D02*
X0187725Y0118010D01*
X0187725Y0117411D02*
X0181125Y0117411D01*
X0181125Y0116813D02*
X0187725Y0116813D01*
X0187725Y0116214D02*
X0181125Y0116214D01*
X0181125Y0115616D02*
X0187725Y0115616D01*
X0187725Y0115017D02*
X0181125Y0115017D01*
X0181125Y0114419D02*
X0187679Y0114419D01*
X0187080Y0113820D02*
X0181125Y0113820D01*
X0181125Y0113222D02*
X0186482Y0113222D01*
X0185883Y0112623D02*
X0181125Y0112623D01*
X0181125Y0112025D02*
X0185285Y0112025D01*
X0184686Y0111426D02*
X0181125Y0111426D01*
X0181125Y0110828D02*
X0184088Y0110828D01*
X0183489Y0110229D02*
X0181125Y0110229D01*
X0180824Y0109631D02*
X0182891Y0109631D01*
X0182292Y0109032D02*
X0180226Y0109032D01*
X0179627Y0108434D02*
X0181694Y0108434D01*
X0181095Y0107835D02*
X0179029Y0107835D01*
X0178430Y0107237D02*
X0180497Y0107237D01*
X0179898Y0106638D02*
X0178064Y0106638D01*
X0177582Y0106039D02*
X0179300Y0106039D01*
X0178701Y0105441D02*
X0176984Y0105441D01*
X0178103Y0104842D02*
X0165411Y0104842D01*
X0164812Y0104244D02*
X0177504Y0104244D01*
X0176906Y0103645D02*
X0164214Y0103645D01*
X0163615Y0103047D02*
X0176307Y0103047D01*
X0175709Y0102448D02*
X0163017Y0102448D01*
X0162418Y0101850D02*
X0175110Y0101850D01*
X0174512Y0101251D02*
X0161820Y0101251D01*
X0161221Y0100653D02*
X0173913Y0100653D01*
X0173315Y0100054D02*
X0160623Y0100054D01*
X0160024Y0099456D02*
X0172716Y0099456D01*
X0171143Y0098857D02*
X0159426Y0098857D01*
X0158827Y0098259D02*
X0170545Y0098259D01*
X0170161Y0097660D02*
X0158229Y0097660D01*
X0157630Y0097062D02*
X0170161Y0097062D01*
X0170161Y0096463D02*
X0157032Y0096463D01*
X0156433Y0095865D02*
X0170192Y0095865D01*
X0170048Y0095266D02*
X0170791Y0095266D01*
X0170646Y0094668D02*
X0171389Y0094668D01*
X0171189Y0094069D02*
X0174536Y0094069D01*
X0174536Y0093471D02*
X0171189Y0093471D01*
X0171468Y0092872D02*
X0174536Y0092872D01*
X0174536Y0092274D02*
X0172066Y0092274D01*
X0172665Y0091675D02*
X0175007Y0091675D01*
X0175605Y0091077D02*
X0173709Y0091077D01*
X0174391Y0090478D02*
X0176334Y0090478D01*
X0175842Y0089880D02*
X0174883Y0089880D01*
X0175131Y0089281D02*
X0175594Y0089281D01*
X0175400Y0088683D02*
X0175325Y0088683D01*
X0175325Y0088084D02*
X0175400Y0088084D01*
X0175400Y0087486D02*
X0175325Y0087486D01*
X0175088Y0086887D02*
X0175637Y0086887D01*
X0175885Y0086289D02*
X0174840Y0086289D01*
X0174288Y0085690D02*
X0176437Y0085690D01*
X0177264Y0085092D02*
X0173461Y0085092D01*
X0170389Y0085092D02*
X0167211Y0085092D01*
X0168038Y0085690D02*
X0169562Y0085690D01*
X0169010Y0086289D02*
X0168590Y0086289D01*
X0164139Y0085092D02*
X0160336Y0085092D01*
X0161163Y0085690D02*
X0163312Y0085690D01*
X0162760Y0086289D02*
X0161715Y0086289D01*
X0161963Y0086887D02*
X0162512Y0086887D01*
X0162275Y0087486D02*
X0162200Y0087486D01*
X0162200Y0088084D02*
X0162275Y0088084D01*
X0162275Y0088683D02*
X0162200Y0088683D01*
X0162006Y0089281D02*
X0162469Y0089281D01*
X0162717Y0089880D02*
X0161758Y0089880D01*
X0161266Y0090478D02*
X0162803Y0090478D01*
X0161230Y0091077D02*
X0160584Y0091077D01*
X0160632Y0091675D02*
X0160500Y0091675D01*
X0160161Y0093471D02*
X0159939Y0093471D01*
X0159939Y0094069D02*
X0160161Y0094069D01*
X0160704Y0094668D02*
X0159396Y0094668D01*
X0158798Y0095266D02*
X0161302Y0095266D01*
X0163798Y0095266D02*
X0167552Y0095266D01*
X0166954Y0094668D02*
X0164396Y0094668D01*
X0164939Y0094069D02*
X0166411Y0094069D01*
X0166411Y0093471D02*
X0164939Y0093471D01*
X0165218Y0092872D02*
X0166411Y0092872D01*
X0166411Y0092274D02*
X0165816Y0092274D01*
X0166415Y0091675D02*
X0166882Y0091675D01*
X0167459Y0091077D02*
X0167480Y0091077D01*
X0173711Y0094668D02*
X0175079Y0094668D01*
X0175677Y0095266D02*
X0174309Y0095266D01*
X0174908Y0095865D02*
X0181700Y0095865D01*
X0181700Y0096463D02*
X0174939Y0096463D01*
X0175130Y0097062D02*
X0181700Y0097062D01*
X0181700Y0097660D02*
X0175729Y0097660D01*
X0176327Y0098259D02*
X0182203Y0098259D01*
X0182802Y0098857D02*
X0176926Y0098857D01*
X0177524Y0099456D02*
X0183400Y0099456D01*
X0183999Y0100054D02*
X0178123Y0100054D01*
X0178721Y0100653D02*
X0184597Y0100653D01*
X0185196Y0101251D02*
X0179320Y0101251D01*
X0179918Y0101850D02*
X0185794Y0101850D01*
X0186393Y0102448D02*
X0180517Y0102448D01*
X0181115Y0103047D02*
X0186991Y0103047D01*
X0187590Y0103645D02*
X0181714Y0103645D01*
X0182312Y0104244D02*
X0188188Y0104244D01*
X0188787Y0104842D02*
X0182911Y0104842D01*
X0183509Y0105441D02*
X0189385Y0105441D01*
X0189984Y0106039D02*
X0184108Y0106039D01*
X0184707Y0106638D02*
X0190583Y0106638D01*
X0191181Y0107237D02*
X0185305Y0107237D01*
X0185904Y0107835D02*
X0191780Y0107835D01*
X0192378Y0108434D02*
X0186502Y0108434D01*
X0187101Y0109032D02*
X0192977Y0109032D01*
X0193575Y0109631D02*
X0187699Y0109631D01*
X0188298Y0110229D02*
X0194142Y0110229D01*
X0194251Y0110828D02*
X0188896Y0110828D01*
X0189495Y0111426D02*
X0194499Y0111426D01*
X0194825Y0112025D02*
X0190093Y0112025D01*
X0190692Y0112623D02*
X0194825Y0112623D01*
X0194825Y0113222D02*
X0191125Y0113222D01*
X0191125Y0113820D02*
X0194825Y0113820D01*
X0194825Y0114419D02*
X0191125Y0114419D01*
X0191125Y0115017D02*
X0194825Y0115017D01*
X0194825Y0115616D02*
X0191125Y0115616D01*
X0191125Y0116214D02*
X0194825Y0116214D01*
X0194825Y0116813D02*
X0191125Y0116813D01*
X0191125Y0117411D02*
X0194825Y0117411D01*
X0194825Y0118010D02*
X0191125Y0118010D01*
X0191125Y0118608D02*
X0194825Y0118608D01*
X0194825Y0119207D02*
X0191125Y0119207D01*
X0191125Y0119805D02*
X0194825Y0119805D01*
X0194825Y0120404D02*
X0191125Y0120404D01*
X0191125Y0121002D02*
X0194825Y0121002D01*
X0194825Y0121601D02*
X0191125Y0121601D01*
X0191125Y0122199D02*
X0194825Y0122199D01*
X0194825Y0122798D02*
X0191125Y0122798D01*
X0191125Y0123396D02*
X0194825Y0123396D01*
X0194825Y0123995D02*
X0191125Y0123995D01*
X0191125Y0124593D02*
X0194825Y0124593D01*
X0194825Y0125192D02*
X0191125Y0125192D01*
X0191125Y0125790D02*
X0194825Y0125790D01*
X0194825Y0126389D02*
X0191125Y0126389D01*
X0191125Y0126987D02*
X0194825Y0126987D01*
X0194825Y0127586D02*
X0191125Y0127586D01*
X0191125Y0128184D02*
X0194825Y0128184D01*
X0194825Y0128783D02*
X0191125Y0128783D01*
X0191125Y0129381D02*
X0194825Y0129381D01*
X0194825Y0129980D02*
X0191125Y0129980D01*
X0191125Y0130578D02*
X0194825Y0130578D01*
X0194825Y0131177D02*
X0191125Y0131177D01*
X0191125Y0131775D02*
X0194825Y0131775D01*
X0194825Y0132374D02*
X0191125Y0132374D01*
X0191125Y0132972D02*
X0194825Y0132972D01*
X0194825Y0133571D02*
X0191125Y0133571D01*
X0191125Y0134170D02*
X0194825Y0134170D01*
X0194825Y0134768D02*
X0191125Y0134768D01*
X0191284Y0135367D02*
X0194825Y0135367D01*
X0194825Y0135965D02*
X0191814Y0135965D01*
X0191814Y0136564D02*
X0194825Y0136564D01*
X0194825Y0137162D02*
X0191814Y0137162D01*
X0191814Y0137761D02*
X0194825Y0137761D01*
X0194825Y0138359D02*
X0191330Y0138359D01*
X0190732Y0138958D02*
X0194825Y0138958D01*
X0194825Y0139556D02*
X0182959Y0139556D01*
X0182360Y0138958D02*
X0188118Y0138958D01*
X0188402Y0140155D02*
X0183557Y0140155D01*
X0184156Y0140753D02*
X0187804Y0140753D01*
X0190448Y0140155D02*
X0194825Y0140155D01*
X0194825Y0140753D02*
X0191046Y0140753D01*
X0191645Y0141352D02*
X0194825Y0141352D01*
X0194825Y0141950D02*
X0191814Y0141950D01*
X0191814Y0142549D02*
X0194825Y0142549D01*
X0194825Y0143147D02*
X0191814Y0143147D01*
X0191568Y0143746D02*
X0194825Y0143746D01*
X0194825Y0144344D02*
X0190970Y0144344D01*
X0187880Y0144344D02*
X0163123Y0144344D01*
X0162185Y0144943D02*
X0194825Y0144943D01*
X0194825Y0145541D02*
X0155993Y0145541D01*
X0156801Y0144943D02*
X0160415Y0144943D01*
X0159477Y0144344D02*
X0157346Y0144344D01*
X0157594Y0143746D02*
X0159013Y0143746D01*
X0158765Y0143147D02*
X0157825Y0143147D01*
X0157825Y0142549D02*
X0158714Y0142549D01*
X0158733Y0141950D02*
X0157825Y0141950D01*
X0157988Y0141352D02*
X0158981Y0141352D01*
X0158587Y0140753D02*
X0159401Y0140753D01*
X0158625Y0140155D02*
X0160231Y0140155D01*
X0152857Y0145541D02*
X0149743Y0145541D01*
X0150551Y0144943D02*
X0152049Y0144943D01*
X0151504Y0144344D02*
X0151096Y0144344D01*
X0146607Y0145541D02*
X0005600Y0145541D01*
X0005600Y0144943D02*
X0145799Y0144943D01*
X0145254Y0144344D02*
X0005600Y0144344D01*
X0005600Y0143746D02*
X0145006Y0143746D01*
X0144775Y0143147D02*
X0005600Y0143147D01*
X0005600Y0142549D02*
X0144775Y0142549D01*
X0144775Y0141950D02*
X0005600Y0141950D01*
X0005600Y0141352D02*
X0144975Y0141352D01*
X0145223Y0140753D02*
X0005600Y0140753D01*
X0005600Y0140155D02*
X0145723Y0140155D01*
X0146423Y0139556D02*
X0005600Y0139556D01*
X0005600Y0138958D02*
X0146475Y0138958D01*
X0146475Y0138359D02*
X0005600Y0138359D01*
X0005600Y0137761D02*
X0146475Y0137761D01*
X0146475Y0137162D02*
X0005600Y0137162D01*
X0005600Y0136564D02*
X0146718Y0136564D01*
X0147316Y0135965D02*
X0005600Y0135965D01*
X0005600Y0135367D02*
X0147915Y0135367D01*
X0148513Y0134768D02*
X0005600Y0134768D01*
X0005600Y0134170D02*
X0149112Y0134170D01*
X0149710Y0133571D02*
X0005600Y0133571D01*
X0005600Y0132972D02*
X0150309Y0132972D01*
X0150907Y0132374D02*
X0005600Y0132374D01*
X0005600Y0131775D02*
X0151506Y0131775D01*
X0152105Y0131177D02*
X0005600Y0131177D01*
X0005600Y0130578D02*
X0152703Y0130578D01*
X0153302Y0129980D02*
X0005600Y0129980D01*
X0005600Y0129381D02*
X0153900Y0129381D01*
X0154499Y0128783D02*
X0005600Y0128783D01*
X0005600Y0128184D02*
X0155097Y0128184D01*
X0155696Y0127586D02*
X0005600Y0127586D01*
X0005600Y0126987D02*
X0156294Y0126987D01*
X0156893Y0126389D02*
X0005600Y0126389D01*
X0005600Y0125790D02*
X0157491Y0125790D01*
X0158090Y0125192D02*
X0005600Y0125192D01*
X0005600Y0124593D02*
X0158688Y0124593D01*
X0174250Y0124593D02*
X0177725Y0124593D01*
X0177725Y0123995D02*
X0174250Y0123995D01*
X0174250Y0123396D02*
X0177725Y0123396D01*
X0177725Y0122798D02*
X0174250Y0122798D01*
X0174250Y0122199D02*
X0177725Y0122199D01*
X0177725Y0121601D02*
X0174250Y0121601D01*
X0174250Y0121002D02*
X0177725Y0121002D01*
X0177725Y0120404D02*
X0174250Y0120404D01*
X0174250Y0119805D02*
X0177725Y0119805D01*
X0177725Y0119207D02*
X0174250Y0119207D01*
X0174250Y0118608D02*
X0177725Y0118608D01*
X0177725Y0118010D02*
X0174250Y0118010D01*
X0174250Y0117411D02*
X0177725Y0117411D01*
X0177725Y0116813D02*
X0174250Y0116813D01*
X0174250Y0116214D02*
X0177725Y0116214D01*
X0177725Y0115616D02*
X0174250Y0115616D01*
X0174250Y0115017D02*
X0177725Y0115017D01*
X0177725Y0114419D02*
X0174250Y0114419D01*
X0174250Y0113820D02*
X0177725Y0113820D01*
X0177725Y0113222D02*
X0173790Y0113222D01*
X0173192Y0112623D02*
X0177725Y0112623D01*
X0177725Y0112025D02*
X0172593Y0112025D01*
X0171995Y0111426D02*
X0177725Y0111426D01*
X0177213Y0110828D02*
X0171396Y0110828D01*
X0170798Y0110229D02*
X0176614Y0110229D01*
X0174416Y0109631D02*
X0170199Y0109631D01*
X0169601Y0109032D02*
X0173818Y0109032D01*
X0173286Y0108434D02*
X0169002Y0108434D01*
X0168404Y0107835D02*
X0173286Y0107835D01*
X0173286Y0107237D02*
X0167805Y0107237D01*
X0167207Y0106638D02*
X0173286Y0106638D01*
X0173768Y0106039D02*
X0166608Y0106039D01*
X0166009Y0105441D02*
X0174366Y0105441D01*
X0189340Y0099456D02*
X0341921Y0099456D01*
X0341921Y0100054D02*
X0189939Y0100054D01*
X0190537Y0100653D02*
X0341921Y0100653D01*
X0341921Y0101251D02*
X0191136Y0101251D01*
X0191734Y0101850D02*
X0341921Y0101850D01*
X0341921Y0102448D02*
X0192333Y0102448D01*
X0192931Y0103047D02*
X0341921Y0103047D01*
X0341921Y0103645D02*
X0193530Y0103645D01*
X0194128Y0104244D02*
X0341921Y0104244D01*
X0341921Y0104842D02*
X0194727Y0104842D01*
X0195325Y0105441D02*
X0219428Y0105441D01*
X0219500Y0105393D02*
X0220192Y0105107D01*
X0220926Y0104961D01*
X0221000Y0104961D01*
X0221000Y0108461D01*
X0217500Y0108461D01*
X0217500Y0108386D01*
X0217646Y0107652D01*
X0217932Y0106961D01*
X0218348Y0106338D01*
X0218878Y0105809D01*
X0219500Y0105393D01*
X0218647Y0106039D02*
X0195924Y0106039D01*
X0196522Y0106638D02*
X0218148Y0106638D01*
X0217818Y0107237D02*
X0197499Y0107237D01*
X0198685Y0107835D02*
X0217610Y0107835D01*
X0217500Y0108434D02*
X0199283Y0108434D01*
X0199532Y0109032D02*
X0221000Y0109032D01*
X0221000Y0109061D02*
X0221000Y0108461D01*
X0221600Y0108461D01*
X0221600Y0109061D01*
X0221000Y0109061D01*
X0221000Y0112561D01*
X0220926Y0112561D01*
X0220192Y0112415D01*
X0219500Y0112128D01*
X0218878Y0111712D01*
X0218348Y0111183D01*
X0217932Y0110561D01*
X0217646Y0109869D01*
X0217500Y0109135D01*
X0217500Y0109061D01*
X0221000Y0109061D01*
X0221000Y0109631D02*
X0221600Y0109631D01*
X0221600Y0109061D02*
X0221600Y0112561D01*
X0221674Y0112561D01*
X0222408Y0112415D01*
X0223100Y0112128D01*
X0223722Y0111712D01*
X0224252Y0111183D01*
X0224668Y0110561D01*
X0224954Y0109869D01*
X0225100Y0109135D01*
X0225100Y0109061D01*
X0221600Y0109061D01*
X0221600Y0109032D02*
X0341921Y0109032D01*
X0341921Y0108434D02*
X0225100Y0108434D01*
X0225100Y0108461D02*
X0221600Y0108461D01*
X0221600Y0104961D01*
X0221674Y0104961D01*
X0222408Y0105107D01*
X0223100Y0105393D01*
X0223722Y0105809D01*
X0224252Y0106338D01*
X0224668Y0106961D01*
X0224954Y0107652D01*
X0225100Y0108386D01*
X0225100Y0108461D01*
X0224990Y0107835D02*
X0341921Y0107835D01*
X0341921Y0107237D02*
X0224782Y0107237D01*
X0224452Y0106638D02*
X0341921Y0106638D01*
X0341921Y0106039D02*
X0223953Y0106039D01*
X0223172Y0105441D02*
X0341921Y0105441D01*
X0341921Y0109631D02*
X0225001Y0109631D01*
X0224805Y0110229D02*
X0341921Y0110229D01*
X0341921Y0110828D02*
X0224489Y0110828D01*
X0224009Y0111426D02*
X0341921Y0111426D01*
X0341921Y0112025D02*
X0223255Y0112025D01*
X0221600Y0112025D02*
X0221000Y0112025D01*
X0221000Y0111426D02*
X0221600Y0111426D01*
X0221600Y0110828D02*
X0221000Y0110828D01*
X0221000Y0110229D02*
X0221600Y0110229D01*
X0221600Y0108434D02*
X0221000Y0108434D01*
X0221000Y0107835D02*
X0221600Y0107835D01*
X0221600Y0107237D02*
X0221000Y0107237D01*
X0221000Y0106638D02*
X0221600Y0106638D01*
X0221600Y0106039D02*
X0221000Y0106039D01*
X0221000Y0105441D02*
X0221600Y0105441D01*
X0217599Y0109631D02*
X0199708Y0109631D01*
X0199708Y0110229D02*
X0217795Y0110229D01*
X0218111Y0110828D02*
X0199599Y0110828D01*
X0199351Y0111426D02*
X0203381Y0111426D01*
X0202783Y0112025D02*
X0199025Y0112025D01*
X0199025Y0112623D02*
X0202184Y0112623D01*
X0202036Y0113222D02*
X0199025Y0113222D01*
X0199025Y0113820D02*
X0202036Y0113820D01*
X0202036Y0114419D02*
X0199025Y0114419D01*
X0199025Y0115017D02*
X0199165Y0115017D01*
X0202185Y0115017D02*
X0202303Y0115017D01*
X0206067Y0112025D02*
X0219345Y0112025D01*
X0218591Y0111426D02*
X0205469Y0111426D01*
X0215067Y0112623D02*
X0341921Y0112623D01*
X0341921Y0113222D02*
X0215665Y0113222D01*
X0216264Y0113820D02*
X0341921Y0113820D01*
X0341921Y0114419D02*
X0216862Y0114419D01*
X0217461Y0115017D02*
X0341921Y0115017D01*
X0341921Y0115616D02*
X0218059Y0115616D01*
X0218658Y0116214D02*
X0341921Y0116214D01*
X0341921Y0116813D02*
X0219256Y0116813D01*
X0219855Y0117411D02*
X0341921Y0117411D01*
X0341921Y0118010D02*
X0222336Y0118010D01*
X0223456Y0118608D02*
X0341921Y0118608D01*
X0341921Y0119207D02*
X0224054Y0119207D01*
X0224377Y0119805D02*
X0341921Y0119805D01*
X0341921Y0120404D02*
X0224625Y0120404D01*
X0224700Y0121002D02*
X0341921Y0121002D01*
X0341921Y0121601D02*
X0224700Y0121601D01*
X0224591Y0122199D02*
X0341921Y0122199D01*
X0341921Y0122798D02*
X0224343Y0122798D01*
X0223973Y0123396D02*
X0341921Y0123396D01*
X0341921Y0123995D02*
X0223374Y0123995D01*
X0223142Y0124593D02*
X0341921Y0124593D01*
X0341921Y0125192D02*
X0223790Y0125192D01*
X0224268Y0125790D02*
X0341921Y0125790D01*
X0341921Y0126389D02*
X0224515Y0126389D01*
X0224700Y0126987D02*
X0341921Y0126987D01*
X0341921Y0127586D02*
X0224700Y0127586D01*
X0224700Y0128184D02*
X0341921Y0128184D01*
X0341921Y0128783D02*
X0224453Y0128783D01*
X0224205Y0129381D02*
X0341921Y0129381D01*
X0341921Y0129980D02*
X0223639Y0129980D01*
X0222778Y0130578D02*
X0341921Y0130578D01*
X0341921Y0131177D02*
X0223525Y0131177D01*
X0224123Y0131775D02*
X0341921Y0131775D01*
X0341921Y0132374D02*
X0224406Y0132374D01*
X0224654Y0132972D02*
X0341921Y0132972D01*
X0341921Y0133571D02*
X0224700Y0133571D01*
X0224700Y0134170D02*
X0341921Y0134170D01*
X0341921Y0134768D02*
X0224563Y0134768D01*
X0224315Y0135367D02*
X0341921Y0135367D01*
X0341921Y0135965D02*
X0223904Y0135965D01*
X0223305Y0136564D02*
X0341921Y0136564D01*
X0341921Y0137162D02*
X0199025Y0137162D01*
X0199025Y0136564D02*
X0219295Y0136564D01*
X0218696Y0135965D02*
X0199025Y0135965D01*
X0199025Y0135367D02*
X0218285Y0135367D01*
X0218037Y0134768D02*
X0199025Y0134768D01*
X0199025Y0134170D02*
X0217900Y0134170D01*
X0217900Y0133571D02*
X0199025Y0133571D01*
X0199025Y0132972D02*
X0217946Y0132972D01*
X0217509Y0132374D02*
X0199025Y0132374D01*
X0199025Y0131775D02*
X0216911Y0131775D01*
X0216312Y0131177D02*
X0199025Y0131177D01*
X0199025Y0130578D02*
X0215714Y0130578D01*
X0215115Y0129980D02*
X0199025Y0129980D01*
X0199025Y0129381D02*
X0214517Y0129381D01*
X0213918Y0128783D02*
X0199025Y0128783D01*
X0199025Y0128184D02*
X0213320Y0128184D01*
X0212721Y0127586D02*
X0199025Y0127586D01*
X0199025Y0126987D02*
X0212123Y0126987D01*
X0211524Y0126389D02*
X0199025Y0126389D01*
X0199025Y0125790D02*
X0210926Y0125790D01*
X0210327Y0125192D02*
X0201997Y0125192D01*
X0199353Y0125192D02*
X0199025Y0125192D01*
X0199025Y0121407D02*
X0199685Y0120747D01*
X0201665Y0120747D01*
X0202354Y0121436D01*
X0211379Y0121436D01*
X0212375Y0122431D01*
X0217900Y0127956D01*
X0217900Y0126834D01*
X0217994Y0126608D01*
X0209971Y0118586D01*
X0202354Y0118586D01*
X0201665Y0119275D01*
X0199685Y0119275D01*
X0199025Y0118614D01*
X0199025Y0121407D01*
X0199025Y0121002D02*
X0199430Y0121002D01*
X0199025Y0120404D02*
X0211789Y0120404D01*
X0212387Y0121002D02*
X0201920Y0121002D01*
X0201732Y0119207D02*
X0210592Y0119207D01*
X0211190Y0119805D02*
X0199025Y0119805D01*
X0199025Y0119207D02*
X0199618Y0119207D01*
X0202331Y0118608D02*
X0209993Y0118608D01*
X0211544Y0121601D02*
X0212986Y0121601D01*
X0213584Y0122199D02*
X0212143Y0122199D01*
X0212741Y0122798D02*
X0214183Y0122798D01*
X0214782Y0123396D02*
X0213340Y0123396D01*
X0213938Y0123995D02*
X0215380Y0123995D01*
X0215979Y0124593D02*
X0214537Y0124593D01*
X0215135Y0125192D02*
X0216577Y0125192D01*
X0217176Y0125790D02*
X0215734Y0125790D01*
X0216332Y0126389D02*
X0217774Y0126389D01*
X0217900Y0126987D02*
X0216931Y0126987D01*
X0217529Y0127586D02*
X0217900Y0127586D01*
X0199025Y0137761D02*
X0341921Y0137761D01*
X0341921Y0138359D02*
X0199025Y0138359D01*
X0199025Y0138958D02*
X0341921Y0138958D01*
X0341921Y0139556D02*
X0199025Y0139556D01*
X0199025Y0140155D02*
X0341921Y0140155D01*
X0341921Y0140753D02*
X0199025Y0140753D01*
X0199025Y0141352D02*
X0341921Y0141352D01*
X0341921Y0141950D02*
X0199025Y0141950D01*
X0199025Y0142549D02*
X0341921Y0142549D01*
X0341921Y0143147D02*
X0199025Y0143147D01*
X0199025Y0143746D02*
X0341921Y0143746D01*
X0341921Y0144344D02*
X0199025Y0144344D01*
X0199025Y0144943D02*
X0341921Y0144943D01*
X0341921Y0145541D02*
X0199025Y0145541D01*
X0199025Y0146140D02*
X0341921Y0146140D01*
X0341921Y0146738D02*
X0199025Y0146738D01*
X0199025Y0147337D02*
X0341921Y0147337D01*
X0341921Y0147935D02*
X0199025Y0147935D01*
X0199025Y0148534D02*
X0341921Y0148534D01*
X0341921Y0149132D02*
X0199025Y0149132D01*
X0199025Y0149731D02*
X0341921Y0149731D01*
X0341921Y0150329D02*
X0199025Y0150329D01*
X0199025Y0150928D02*
X0341921Y0150928D01*
X0341921Y0151526D02*
X0199025Y0151526D01*
X0199025Y0152125D02*
X0341921Y0152125D01*
X0341921Y0152723D02*
X0199025Y0152723D01*
X0199025Y0153322D02*
X0341921Y0153322D01*
X0341921Y0153920D02*
X0199025Y0153920D01*
X0199025Y0154519D02*
X0341921Y0154519D01*
X0341921Y0155117D02*
X0199025Y0155117D01*
X0199025Y0155716D02*
X0341921Y0155716D01*
X0341921Y0156314D02*
X0199025Y0156314D01*
X0199025Y0156913D02*
X0341921Y0156913D01*
X0341921Y0157511D02*
X0199025Y0157511D01*
X0199025Y0158110D02*
X0341921Y0158110D01*
X0341921Y0158708D02*
X0199025Y0158708D01*
X0199025Y0159307D02*
X0341921Y0159307D01*
X0341921Y0159905D02*
X0199025Y0159905D01*
X0199025Y0160504D02*
X0341921Y0160504D01*
X0341921Y0161103D02*
X0199025Y0161103D01*
X0199025Y0161701D02*
X0341921Y0161701D01*
X0341921Y0162300D02*
X0199025Y0162300D01*
X0199025Y0162898D02*
X0341921Y0162898D01*
X0341921Y0163497D02*
X0199025Y0163497D01*
X0199025Y0164095D02*
X0341921Y0164095D01*
X0341921Y0164694D02*
X0199025Y0164694D01*
X0199025Y0165292D02*
X0341921Y0165292D01*
X0341921Y0165891D02*
X0199025Y0165891D01*
X0199025Y0166489D02*
X0341921Y0166489D01*
X0341921Y0167088D02*
X0199025Y0167088D01*
X0199025Y0167686D02*
X0341921Y0167686D01*
X0341921Y0168285D02*
X0199025Y0168285D01*
X0199025Y0168883D02*
X0341921Y0168883D01*
X0341921Y0169482D02*
X0199025Y0169482D01*
X0199025Y0170080D02*
X0341921Y0170080D01*
X0341921Y0170679D02*
X0199025Y0170679D01*
X0199025Y0171277D02*
X0341921Y0171277D01*
X0341921Y0171876D02*
X0199260Y0171876D01*
X0199858Y0172474D02*
X0341921Y0172474D01*
X0341921Y0173073D02*
X0200457Y0173073D01*
X0201055Y0173671D02*
X0341921Y0173671D01*
X0341921Y0174270D02*
X0201654Y0174270D01*
X0202252Y0174868D02*
X0341921Y0174868D01*
X0341921Y0175467D02*
X0202851Y0175467D01*
X0203450Y0176065D02*
X0341921Y0176065D01*
X0341921Y0176664D02*
X0204048Y0176664D01*
X0204647Y0177262D02*
X0341921Y0177262D01*
X0341921Y0177861D02*
X0205245Y0177861D01*
X0205844Y0178459D02*
X0341921Y0178459D01*
X0341921Y0179058D02*
X0206442Y0179058D01*
X0207041Y0179656D02*
X0341921Y0179656D01*
X0341921Y0180255D02*
X0207639Y0180255D01*
X0208238Y0180853D02*
X0341921Y0180853D01*
X0341921Y0181452D02*
X0208836Y0181452D01*
X0209435Y0182050D02*
X0250806Y0182050D01*
X0253044Y0182050D02*
X0341921Y0182050D01*
X0341921Y0182649D02*
X0253845Y0182649D01*
X0254252Y0183247D02*
X0341921Y0183247D01*
X0341921Y0183846D02*
X0254500Y0183846D01*
X0254511Y0184444D02*
X0341921Y0184444D01*
X0341921Y0185043D02*
X0254452Y0185043D01*
X0254204Y0185641D02*
X0341921Y0185641D01*
X0341921Y0186240D02*
X0253728Y0186240D01*
X0252760Y0186839D02*
X0341921Y0186839D01*
X0341921Y0187437D02*
X0005600Y0187437D01*
X0005600Y0186839D02*
X0251090Y0186839D01*
X0250843Y0189157D02*
X0250843Y0192831D01*
X0251442Y0192831D01*
X0251442Y0189157D01*
X0256880Y0189157D01*
X0257648Y0189310D01*
X0258371Y0189610D01*
X0259022Y0190045D01*
X0259575Y0190598D01*
X0260010Y0191249D01*
X0260309Y0191972D01*
X0260462Y0192739D01*
X0260462Y0192831D01*
X0251443Y0192831D01*
X0251443Y0193431D01*
X0260462Y0193431D01*
X0260462Y0193522D01*
X0260309Y0194290D01*
X0260010Y0195013D01*
X0259575Y0195663D01*
X0259022Y0196217D01*
X0258371Y0196652D01*
X0257648Y0196951D01*
X0256880Y0197104D01*
X0251442Y0197104D01*
X0251442Y0193431D01*
X0250843Y0193431D01*
X0250843Y0197104D01*
X0250751Y0197104D01*
X0249984Y0196951D01*
X0249260Y0196652D01*
X0248610Y0196217D01*
X0248056Y0195663D01*
X0247621Y0195013D01*
X0247322Y0194290D01*
X0247169Y0193522D01*
X0247169Y0193431D01*
X0250842Y0193431D01*
X0250842Y0192831D01*
X0247169Y0192831D01*
X0247169Y0192739D01*
X0247322Y0191972D01*
X0247621Y0191249D01*
X0248056Y0190598D01*
X0248610Y0190045D01*
X0249260Y0189610D01*
X0249984Y0189310D01*
X0250751Y0189157D01*
X0250843Y0189157D01*
X0250843Y0189233D02*
X0251442Y0189233D01*
X0251442Y0189831D02*
X0250843Y0189831D01*
X0250843Y0190430D02*
X0251442Y0190430D01*
X0251442Y0191028D02*
X0250843Y0191028D01*
X0250843Y0191627D02*
X0251442Y0191627D01*
X0251442Y0192225D02*
X0250843Y0192225D01*
X0250843Y0192824D02*
X0251442Y0192824D01*
X0251443Y0193422D02*
X0341921Y0193422D01*
X0341921Y0192824D02*
X0260462Y0192824D01*
X0260360Y0192225D02*
X0341921Y0192225D01*
X0341921Y0191627D02*
X0260167Y0191627D01*
X0259863Y0191028D02*
X0341921Y0191028D01*
X0341921Y0190430D02*
X0259407Y0190430D01*
X0258702Y0189831D02*
X0341921Y0189831D01*
X0341921Y0189233D02*
X0257258Y0189233D01*
X0250374Y0189233D02*
X0232226Y0189233D01*
X0231849Y0189157D02*
X0232616Y0189310D01*
X0233340Y0189610D01*
X0233990Y0190045D01*
X0234544Y0190598D01*
X0234978Y0191249D01*
X0235278Y0191972D01*
X0235431Y0192739D01*
X0235431Y0192831D01*
X0231758Y0192831D01*
X0231758Y0193431D01*
X0235431Y0193431D01*
X0235431Y0193522D01*
X0235278Y0194290D01*
X0234978Y0195013D01*
X0234544Y0195663D01*
X0233990Y0196217D01*
X0233340Y0196652D01*
X0232616Y0196951D01*
X0231849Y0197104D01*
X0231757Y0197104D01*
X0231757Y0193431D01*
X0231157Y0193431D01*
X0231157Y0192831D01*
X0222138Y0192831D01*
X0222138Y0192739D01*
X0222290Y0191972D01*
X0222590Y0191249D01*
X0223025Y0190598D01*
X0223578Y0190045D01*
X0224229Y0189610D01*
X0224952Y0189310D01*
X0225720Y0189157D01*
X0231157Y0189157D01*
X0231157Y0192831D01*
X0231757Y0192831D01*
X0231757Y0189157D01*
X0231849Y0189157D01*
X0231757Y0189233D02*
X0231157Y0189233D01*
X0231157Y0189831D02*
X0231757Y0189831D01*
X0231757Y0190430D02*
X0231157Y0190430D01*
X0231157Y0191028D02*
X0231757Y0191028D01*
X0231757Y0191627D02*
X0231157Y0191627D01*
X0231157Y0192225D02*
X0231757Y0192225D01*
X0231757Y0192824D02*
X0231157Y0192824D01*
X0231157Y0193422D02*
X0202700Y0193422D01*
X0202700Y0192824D02*
X0222138Y0192824D01*
X0222138Y0193431D02*
X0231157Y0193431D01*
X0231157Y0197104D01*
X0225720Y0197104D01*
X0224952Y0196951D01*
X0224229Y0196652D01*
X0223578Y0196217D01*
X0223025Y0195663D01*
X0222590Y0195013D01*
X0222290Y0194290D01*
X0222138Y0193522D01*
X0222138Y0193431D01*
X0222237Y0194021D02*
X0202700Y0194021D01*
X0202700Y0194619D02*
X0222427Y0194619D01*
X0222727Y0195218D02*
X0202700Y0195218D01*
X0202700Y0195816D02*
X0223178Y0195816D01*
X0223874Y0196415D02*
X0202700Y0196415D01*
X0202700Y0197013D02*
X0225264Y0197013D01*
X0226541Y0199065D02*
X0229808Y0199065D01*
X0230138Y0199154D01*
X0230435Y0199325D01*
X0230677Y0199567D01*
X0230848Y0199863D01*
X0230937Y0200194D01*
X0230937Y0203461D01*
X0226541Y0203461D01*
X0226541Y0199065D01*
X0226541Y0199407D02*
X0225941Y0199407D01*
X0225941Y0200006D02*
X0226541Y0200006D01*
X0226541Y0200604D02*
X0225941Y0200604D01*
X0225941Y0201203D02*
X0226541Y0201203D01*
X0226541Y0201801D02*
X0225941Y0201801D01*
X0225941Y0202400D02*
X0226541Y0202400D01*
X0226541Y0202998D02*
X0225941Y0202998D01*
X0225941Y0203597D02*
X0010600Y0203597D01*
X0009781Y0202998D02*
X0147632Y0202998D01*
X0148024Y0203161D02*
X0146591Y0202567D01*
X0145494Y0201470D01*
X0144900Y0200036D01*
X0144900Y0192485D01*
X0145494Y0191051D01*
X0146591Y0189954D01*
X0148024Y0189361D01*
X0149576Y0189361D01*
X0151009Y0189954D01*
X0152106Y0191051D01*
X0152700Y0192485D01*
X0152700Y0200036D01*
X0152106Y0201470D01*
X0151009Y0202567D01*
X0149576Y0203161D01*
X0148024Y0203161D01*
X0146424Y0202400D02*
X0009183Y0202400D01*
X0008584Y0201801D02*
X0145825Y0201801D01*
X0145383Y0201203D02*
X0007986Y0201203D01*
X0007632Y0200604D02*
X0145135Y0200604D01*
X0144900Y0200006D02*
X0007286Y0200006D01*
X0006941Y0199407D02*
X0144900Y0199407D01*
X0144900Y0198809D02*
X0006595Y0198809D01*
X0006368Y0198210D02*
X0144900Y0198210D01*
X0144900Y0197612D02*
X0006208Y0197612D01*
X0006048Y0197013D02*
X0144900Y0197013D01*
X0144900Y0196415D02*
X0005887Y0196415D01*
X0005727Y0195816D02*
X0144900Y0195816D01*
X0144900Y0195218D02*
X0005666Y0195218D01*
X0005627Y0194619D02*
X0144900Y0194619D01*
X0144900Y0194021D02*
X0005600Y0194021D01*
X0005600Y0193422D02*
X0144900Y0193422D01*
X0144900Y0192824D02*
X0005600Y0192824D01*
X0005600Y0192225D02*
X0145008Y0192225D01*
X0145255Y0191627D02*
X0005600Y0191627D01*
X0005600Y0191028D02*
X0145517Y0191028D01*
X0146116Y0190430D02*
X0005600Y0190430D01*
X0005600Y0189831D02*
X0146888Y0189831D01*
X0150711Y0189831D02*
X0156888Y0189831D01*
X0156591Y0189954D02*
X0158024Y0189361D01*
X0159576Y0189361D01*
X0161009Y0189954D01*
X0162106Y0191051D01*
X0162700Y0192485D01*
X0162700Y0200036D01*
X0162106Y0201470D01*
X0161009Y0202567D01*
X0159576Y0203161D01*
X0158024Y0203161D01*
X0156591Y0202567D01*
X0155494Y0201470D01*
X0154900Y0200036D01*
X0154900Y0192485D01*
X0155494Y0191051D01*
X0156591Y0189954D01*
X0156116Y0190430D02*
X0151484Y0190430D01*
X0152083Y0191028D02*
X0155517Y0191028D01*
X0155255Y0191627D02*
X0152344Y0191627D01*
X0152592Y0192225D02*
X0155008Y0192225D01*
X0154900Y0192824D02*
X0152700Y0192824D01*
X0152700Y0193422D02*
X0154900Y0193422D01*
X0154900Y0194021D02*
X0152700Y0194021D01*
X0152700Y0194619D02*
X0154900Y0194619D01*
X0154900Y0195218D02*
X0152700Y0195218D01*
X0152700Y0195816D02*
X0154900Y0195816D01*
X0154900Y0196415D02*
X0152700Y0196415D01*
X0152700Y0197013D02*
X0154900Y0197013D01*
X0154900Y0197612D02*
X0152700Y0197612D01*
X0152700Y0198210D02*
X0154900Y0198210D01*
X0154900Y0198809D02*
X0152700Y0198809D01*
X0152700Y0199407D02*
X0154900Y0199407D01*
X0154900Y0200006D02*
X0152700Y0200006D01*
X0152465Y0200604D02*
X0155135Y0200604D01*
X0155383Y0201203D02*
X0152217Y0201203D01*
X0151775Y0201801D02*
X0155825Y0201801D01*
X0156424Y0202400D02*
X0151176Y0202400D01*
X0149968Y0202998D02*
X0157632Y0202998D01*
X0159968Y0202998D02*
X0167632Y0202998D01*
X0168024Y0203161D02*
X0166591Y0202567D01*
X0165494Y0201470D01*
X0164900Y0200036D01*
X0164900Y0192485D01*
X0165494Y0191051D01*
X0166591Y0189954D01*
X0168024Y0189361D01*
X0169576Y0189361D01*
X0171009Y0189954D01*
X0172106Y0191051D01*
X0172700Y0192485D01*
X0172700Y0200036D01*
X0172106Y0201470D01*
X0171009Y0202567D01*
X0169576Y0203161D01*
X0168024Y0203161D01*
X0166424Y0202400D02*
X0161176Y0202400D01*
X0161775Y0201801D02*
X0165825Y0201801D01*
X0165383Y0201203D02*
X0162217Y0201203D01*
X0162465Y0200604D02*
X0165135Y0200604D01*
X0164900Y0200006D02*
X0162700Y0200006D01*
X0162700Y0199407D02*
X0164900Y0199407D01*
X0164900Y0198809D02*
X0162700Y0198809D01*
X0162700Y0198210D02*
X0164900Y0198210D01*
X0164900Y0197612D02*
X0162700Y0197612D01*
X0162700Y0197013D02*
X0164900Y0197013D01*
X0164900Y0196415D02*
X0162700Y0196415D01*
X0162700Y0195816D02*
X0164900Y0195816D01*
X0164900Y0195218D02*
X0162700Y0195218D01*
X0162700Y0194619D02*
X0164900Y0194619D01*
X0164900Y0194021D02*
X0162700Y0194021D01*
X0162700Y0193422D02*
X0164900Y0193422D01*
X0164900Y0192824D02*
X0162700Y0192824D01*
X0162592Y0192225D02*
X0165008Y0192225D01*
X0165255Y0191627D02*
X0162344Y0191627D01*
X0162083Y0191028D02*
X0165517Y0191028D01*
X0166116Y0190430D02*
X0161484Y0190430D01*
X0160711Y0189831D02*
X0166888Y0189831D01*
X0170711Y0189831D02*
X0176888Y0189831D01*
X0176591Y0189954D02*
X0178024Y0189361D01*
X0179576Y0189361D01*
X0181009Y0189954D01*
X0182106Y0191051D01*
X0182700Y0192485D01*
X0182700Y0200036D01*
X0182106Y0201470D01*
X0181009Y0202567D01*
X0179576Y0203161D01*
X0178024Y0203161D01*
X0176591Y0202567D01*
X0175494Y0201470D01*
X0174900Y0200036D01*
X0174900Y0192485D01*
X0175494Y0191051D01*
X0176591Y0189954D01*
X0176116Y0190430D02*
X0171484Y0190430D01*
X0172083Y0191028D02*
X0175517Y0191028D01*
X0175255Y0191627D02*
X0172344Y0191627D01*
X0172592Y0192225D02*
X0175008Y0192225D01*
X0174900Y0192824D02*
X0172700Y0192824D01*
X0172700Y0193422D02*
X0174900Y0193422D01*
X0174900Y0194021D02*
X0172700Y0194021D01*
X0172700Y0194619D02*
X0174900Y0194619D01*
X0174900Y0195218D02*
X0172700Y0195218D01*
X0172700Y0195816D02*
X0174900Y0195816D01*
X0174900Y0196415D02*
X0172700Y0196415D01*
X0172700Y0197013D02*
X0174900Y0197013D01*
X0174900Y0197612D02*
X0172700Y0197612D01*
X0172700Y0198210D02*
X0174900Y0198210D01*
X0174900Y0198809D02*
X0172700Y0198809D01*
X0172700Y0199407D02*
X0174900Y0199407D01*
X0174900Y0200006D02*
X0172700Y0200006D01*
X0172465Y0200604D02*
X0175135Y0200604D01*
X0175383Y0201203D02*
X0172217Y0201203D01*
X0171775Y0201801D02*
X0175825Y0201801D01*
X0176424Y0202400D02*
X0171176Y0202400D01*
X0169968Y0202998D02*
X0177632Y0202998D01*
X0179968Y0202998D02*
X0187632Y0202998D01*
X0188024Y0203161D02*
X0186591Y0202567D01*
X0185494Y0201470D01*
X0184900Y0200036D01*
X0184900Y0192485D01*
X0185494Y0191051D01*
X0186591Y0189954D01*
X0188024Y0189361D01*
X0189576Y0189361D01*
X0191009Y0189954D01*
X0192106Y0191051D01*
X0192700Y0192485D01*
X0192700Y0200036D01*
X0192106Y0201470D01*
X0191009Y0202567D01*
X0189576Y0203161D01*
X0188024Y0203161D01*
X0186424Y0202400D02*
X0181176Y0202400D01*
X0181775Y0201801D02*
X0185825Y0201801D01*
X0185383Y0201203D02*
X0182217Y0201203D01*
X0182465Y0200604D02*
X0185135Y0200604D01*
X0184900Y0200006D02*
X0182700Y0200006D01*
X0182700Y0199407D02*
X0184900Y0199407D01*
X0184900Y0198809D02*
X0182700Y0198809D01*
X0182700Y0198210D02*
X0184900Y0198210D01*
X0184900Y0197612D02*
X0182700Y0197612D01*
X0182700Y0197013D02*
X0184900Y0197013D01*
X0184900Y0196415D02*
X0182700Y0196415D01*
X0182700Y0195816D02*
X0184900Y0195816D01*
X0184900Y0195218D02*
X0182700Y0195218D01*
X0182700Y0194619D02*
X0184900Y0194619D01*
X0184900Y0194021D02*
X0182700Y0194021D01*
X0182700Y0193422D02*
X0184900Y0193422D01*
X0184900Y0192824D02*
X0182700Y0192824D01*
X0182592Y0192225D02*
X0185008Y0192225D01*
X0185255Y0191627D02*
X0182344Y0191627D01*
X0182083Y0191028D02*
X0185517Y0191028D01*
X0186116Y0190430D02*
X0181484Y0190430D01*
X0180711Y0189831D02*
X0186888Y0189831D01*
X0190711Y0189831D02*
X0196888Y0189831D01*
X0196591Y0189954D02*
X0198024Y0189361D01*
X0199576Y0189361D01*
X0201009Y0189954D01*
X0202106Y0191051D01*
X0202700Y0192485D01*
X0202700Y0200036D01*
X0202106Y0201470D01*
X0201009Y0202567D01*
X0199576Y0203161D01*
X0198024Y0203161D01*
X0196591Y0202567D01*
X0195494Y0201470D01*
X0194900Y0200036D01*
X0194900Y0192485D01*
X0195494Y0191051D01*
X0196591Y0189954D01*
X0196116Y0190430D02*
X0191484Y0190430D01*
X0192083Y0191028D02*
X0195517Y0191028D01*
X0195255Y0191627D02*
X0192344Y0191627D01*
X0192592Y0192225D02*
X0195008Y0192225D01*
X0194900Y0192824D02*
X0192700Y0192824D01*
X0192700Y0193422D02*
X0194900Y0193422D01*
X0194900Y0194021D02*
X0192700Y0194021D01*
X0192700Y0194619D02*
X0194900Y0194619D01*
X0194900Y0195218D02*
X0192700Y0195218D01*
X0192700Y0195816D02*
X0194900Y0195816D01*
X0194900Y0196415D02*
X0192700Y0196415D01*
X0192700Y0197013D02*
X0194900Y0197013D01*
X0194900Y0197612D02*
X0192700Y0197612D01*
X0192700Y0198210D02*
X0194900Y0198210D01*
X0194900Y0198809D02*
X0192700Y0198809D01*
X0192700Y0199407D02*
X0194900Y0199407D01*
X0194900Y0200006D02*
X0192700Y0200006D01*
X0192465Y0200604D02*
X0195135Y0200604D01*
X0195383Y0201203D02*
X0192217Y0201203D01*
X0191775Y0201801D02*
X0195825Y0201801D01*
X0196424Y0202400D02*
X0191176Y0202400D01*
X0189968Y0202998D02*
X0197632Y0202998D01*
X0199968Y0202998D02*
X0221545Y0202998D01*
X0221545Y0202400D02*
X0201176Y0202400D01*
X0201775Y0201801D02*
X0221545Y0201801D01*
X0221545Y0201203D02*
X0202217Y0201203D01*
X0202465Y0200604D02*
X0221545Y0200604D01*
X0221596Y0200006D02*
X0202700Y0200006D01*
X0202700Y0199407D02*
X0221965Y0199407D01*
X0221545Y0204195D02*
X0011637Y0204195D01*
X0012681Y0204794D02*
X0221545Y0204794D01*
X0221545Y0205392D02*
X0014915Y0205392D01*
X0005600Y0189233D02*
X0225342Y0189233D01*
X0223898Y0189831D02*
X0200711Y0189831D01*
X0201484Y0190430D02*
X0223193Y0190430D01*
X0222737Y0191028D02*
X0202083Y0191028D01*
X0202344Y0191627D02*
X0222433Y0191627D01*
X0222240Y0192225D02*
X0202592Y0192225D01*
X0202700Y0197612D02*
X0341313Y0197612D01*
X0341153Y0198210D02*
X0202700Y0198210D01*
X0202700Y0198809D02*
X0340926Y0198809D01*
X0340580Y0199407D02*
X0260635Y0199407D01*
X0260553Y0199325D02*
X0260795Y0199567D01*
X0260966Y0199863D01*
X0261055Y0200194D01*
X0261055Y0203461D01*
X0256659Y0203461D01*
X0256659Y0199065D01*
X0259926Y0199065D01*
X0260256Y0199154D01*
X0260553Y0199325D01*
X0261004Y0200006D02*
X0340235Y0200006D01*
X0339889Y0200604D02*
X0261055Y0200604D01*
X0261055Y0201203D02*
X0339535Y0201203D01*
X0338937Y0201801D02*
X0261055Y0201801D01*
X0261055Y0202400D02*
X0338338Y0202400D01*
X0337740Y0202998D02*
X0261055Y0202998D01*
X0261055Y0204195D02*
X0335884Y0204195D01*
X0336921Y0203597D02*
X0256659Y0203597D01*
X0256659Y0202998D02*
X0256059Y0202998D01*
X0256059Y0202400D02*
X0256659Y0202400D01*
X0256659Y0201801D02*
X0256059Y0201801D01*
X0256059Y0201203D02*
X0256659Y0201203D01*
X0256659Y0200604D02*
X0256059Y0200604D01*
X0256059Y0200006D02*
X0256659Y0200006D01*
X0256659Y0199407D02*
X0256059Y0199407D01*
X0257336Y0197013D02*
X0341473Y0197013D01*
X0341634Y0196415D02*
X0258726Y0196415D01*
X0259422Y0195816D02*
X0341794Y0195816D01*
X0341855Y0195218D02*
X0259873Y0195218D01*
X0260173Y0194619D02*
X0341895Y0194619D01*
X0341921Y0194021D02*
X0260363Y0194021D01*
X0251442Y0194021D02*
X0250843Y0194021D01*
X0250843Y0194619D02*
X0251442Y0194619D01*
X0251442Y0195218D02*
X0250843Y0195218D01*
X0250843Y0195816D02*
X0251442Y0195816D01*
X0251442Y0196415D02*
X0250843Y0196415D01*
X0250843Y0197013D02*
X0251442Y0197013D01*
X0250295Y0197013D02*
X0232305Y0197013D01*
X0231757Y0197013D02*
X0231157Y0197013D01*
X0231157Y0196415D02*
X0231757Y0196415D01*
X0231757Y0195816D02*
X0231157Y0195816D01*
X0231157Y0195218D02*
X0231757Y0195218D01*
X0231757Y0194619D02*
X0231157Y0194619D01*
X0231157Y0194021D02*
X0231757Y0194021D01*
X0231758Y0193422D02*
X0250842Y0193422D01*
X0247758Y0195218D02*
X0234842Y0195218D01*
X0235142Y0194619D02*
X0247458Y0194619D01*
X0247268Y0194021D02*
X0235332Y0194021D01*
X0235431Y0192824D02*
X0247169Y0192824D01*
X0247272Y0192225D02*
X0235328Y0192225D01*
X0235135Y0191627D02*
X0247465Y0191627D01*
X0247769Y0191028D02*
X0234831Y0191028D01*
X0234375Y0190430D02*
X0248225Y0190430D01*
X0248929Y0189831D02*
X0233671Y0189831D01*
X0234391Y0195816D02*
X0248209Y0195816D01*
X0248906Y0196415D02*
X0233694Y0196415D01*
X0230517Y0199407D02*
X0252083Y0199407D01*
X0251714Y0200006D02*
X0230886Y0200006D01*
X0230937Y0200604D02*
X0251663Y0200604D01*
X0251663Y0201203D02*
X0230937Y0201203D01*
X0230937Y0201801D02*
X0251663Y0201801D01*
X0251663Y0202400D02*
X0230937Y0202400D01*
X0230937Y0202998D02*
X0251663Y0202998D01*
X0251663Y0204195D02*
X0230937Y0204195D01*
X0230937Y0204794D02*
X0251663Y0204794D01*
X0251663Y0205392D02*
X0230937Y0205392D01*
X0226541Y0203597D02*
X0256059Y0203597D01*
X0261055Y0204794D02*
X0334840Y0204794D01*
X0332606Y0205392D02*
X0261055Y0205392D01*
X0207685Y0186240D02*
X0005600Y0186240D01*
X0005600Y0185641D02*
X0207086Y0185641D01*
X0206487Y0185043D02*
X0005600Y0185043D01*
X0005600Y0184444D02*
X0205889Y0184444D01*
X0205290Y0183846D02*
X0005600Y0183846D01*
X0005600Y0183247D02*
X0204692Y0183247D01*
X0204093Y0182649D02*
X0005600Y0182649D01*
X0005600Y0182050D02*
X0203495Y0182050D01*
X0202896Y0181452D02*
X0005600Y0181452D01*
X0005600Y0180853D02*
X0202298Y0180853D01*
X0201699Y0180255D02*
X0005600Y0180255D01*
X0005600Y0179656D02*
X0201101Y0179656D01*
X0200502Y0179058D02*
X0005600Y0179058D01*
X0005600Y0178459D02*
X0199904Y0178459D01*
X0199305Y0177861D02*
X0005600Y0177861D01*
X0005600Y0177262D02*
X0198707Y0177262D01*
X0198108Y0176664D02*
X0005600Y0176664D01*
X0005600Y0176065D02*
X0197510Y0176065D01*
X0196911Y0175467D02*
X0005600Y0175467D01*
X0005600Y0174868D02*
X0196313Y0174868D01*
X0195714Y0174270D02*
X0005600Y0174270D01*
X0005600Y0173671D02*
X0195116Y0173671D01*
X0194825Y0173073D02*
X0005600Y0173073D01*
X0005600Y0172474D02*
X0194825Y0172474D01*
X0194825Y0171876D02*
X0005600Y0171876D01*
X0005600Y0171277D02*
X0194825Y0171277D01*
X0194825Y0170679D02*
X0005600Y0170679D01*
X0005600Y0170080D02*
X0194825Y0170080D01*
X0194825Y0169482D02*
X0005600Y0169482D01*
X0005600Y0168883D02*
X0194825Y0168883D01*
X0194825Y0168285D02*
X0005600Y0168285D01*
X0005600Y0167686D02*
X0194825Y0167686D01*
X0194825Y0167088D02*
X0005600Y0167088D01*
X0005600Y0166489D02*
X0194825Y0166489D01*
X0194825Y0165891D02*
X0005600Y0165891D01*
X0005600Y0165292D02*
X0194825Y0165292D01*
X0194825Y0164694D02*
X0005600Y0164694D01*
X0005600Y0164095D02*
X0194825Y0164095D01*
X0194825Y0163497D02*
X0005600Y0163497D01*
X0005600Y0162898D02*
X0194825Y0162898D01*
X0194825Y0162300D02*
X0005600Y0162300D01*
X0005600Y0161701D02*
X0194825Y0161701D01*
X0194825Y0161103D02*
X0005600Y0161103D01*
X0005600Y0160504D02*
X0194825Y0160504D01*
X0194825Y0159905D02*
X0005600Y0159905D01*
X0005600Y0159307D02*
X0194825Y0159307D01*
X0194825Y0158708D02*
X0005600Y0158708D01*
X0005600Y0158110D02*
X0194825Y0158110D01*
X0194825Y0157511D02*
X0005600Y0157511D01*
X0005600Y0156913D02*
X0194825Y0156913D01*
X0194825Y0156314D02*
X0005600Y0156314D01*
X0005600Y0155716D02*
X0194825Y0155716D01*
X0194825Y0155117D02*
X0005600Y0155117D01*
X0005600Y0154519D02*
X0194825Y0154519D01*
X0194825Y0153920D02*
X0005600Y0153920D01*
X0005600Y0153322D02*
X0194825Y0153322D01*
X0194825Y0152723D02*
X0005600Y0152723D01*
X0005600Y0152125D02*
X0194825Y0152125D01*
X0194825Y0151526D02*
X0005600Y0151526D01*
X0005600Y0150928D02*
X0194825Y0150928D01*
X0194825Y0150329D02*
X0005600Y0150329D01*
X0005600Y0149731D02*
X0194825Y0149731D01*
X0194825Y0149132D02*
X0005600Y0149132D01*
X0005600Y0148534D02*
X0194825Y0148534D01*
X0194825Y0147935D02*
X0005600Y0147935D01*
X0005600Y0147337D02*
X0194825Y0147337D01*
X0194825Y0146738D02*
X0005600Y0146738D01*
X0005600Y0146140D02*
X0194825Y0146140D01*
X0177725Y0129381D02*
X0173282Y0129381D01*
X0174310Y0128783D02*
X0177725Y0128783D01*
X0177725Y0128184D02*
X0174811Y0128184D01*
X0175059Y0127586D02*
X0177725Y0127586D01*
X0177725Y0126987D02*
X0175136Y0126987D01*
X0175136Y0126389D02*
X0177725Y0126389D01*
X0177725Y0125790D02*
X0174895Y0125790D01*
X0174513Y0125192D02*
X0177725Y0125192D01*
X0188742Y0098857D02*
X0341921Y0098857D01*
X0341921Y0098259D02*
X0188143Y0098259D01*
X0187545Y0097660D02*
X0341921Y0097660D01*
X0341921Y0097062D02*
X0186946Y0097062D01*
X0186348Y0096463D02*
X0341921Y0096463D01*
X0341921Y0095865D02*
X0185900Y0095865D01*
X0185900Y0095266D02*
X0341921Y0095266D01*
X0341921Y0094668D02*
X0185900Y0094668D01*
X0185900Y0094069D02*
X0341921Y0094069D01*
X0341921Y0093471D02*
X0185900Y0093471D01*
X0185900Y0092872D02*
X0341921Y0092872D01*
X0341921Y0092274D02*
X0185900Y0092274D01*
X0185900Y0091675D02*
X0341921Y0091675D01*
X0341921Y0091077D02*
X0185900Y0091077D01*
X0185900Y0090478D02*
X0191455Y0090478D01*
X0190736Y0089880D02*
X0185900Y0089880D01*
X0185900Y0089281D02*
X0190228Y0089281D01*
X0194895Y0090478D02*
X0341921Y0090478D01*
X0341921Y0089880D02*
X0195614Y0089880D01*
X0196122Y0089281D02*
X0341921Y0089281D01*
X0341921Y0088683D02*
X0196370Y0088683D01*
X0196575Y0088084D02*
X0341921Y0088084D01*
X0341921Y0087486D02*
X0196575Y0087486D01*
X0196575Y0086887D02*
X0341921Y0086887D01*
X0341921Y0086289D02*
X0196349Y0086289D01*
X0196101Y0085690D02*
X0341921Y0085690D01*
X0341921Y0085092D02*
X0195564Y0085092D01*
X0194775Y0084493D02*
X0341921Y0084493D01*
X0341921Y0083895D02*
X0185900Y0083895D01*
X0185900Y0084493D02*
X0191575Y0084493D01*
X0190786Y0085092D02*
X0185900Y0085092D01*
X0185900Y0085690D02*
X0190249Y0085690D01*
X0185900Y0083296D02*
X0341921Y0083296D01*
X0341921Y0082698D02*
X0185900Y0082698D01*
X0185900Y0082099D02*
X0341921Y0082099D01*
X0341921Y0081501D02*
X0185900Y0081501D01*
X0185900Y0080902D02*
X0341921Y0080902D01*
X0341921Y0080303D02*
X0185900Y0080303D01*
X0185900Y0079705D02*
X0341921Y0079705D01*
X0341921Y0079106D02*
X0185900Y0079106D01*
X0185900Y0078508D02*
X0341921Y0078508D01*
X0341921Y0077909D02*
X0185900Y0077909D01*
X0185900Y0077311D02*
X0341921Y0077311D01*
X0341921Y0076712D02*
X0185900Y0076712D01*
X0186337Y0076114D02*
X0341921Y0076114D01*
X0341921Y0075515D02*
X0186936Y0075515D01*
X0187534Y0074917D02*
X0341921Y0074917D01*
X0341921Y0074318D02*
X0187700Y0074318D01*
X0187700Y0073720D02*
X0341921Y0073720D01*
X0341921Y0073121D02*
X0187700Y0073121D01*
X0187700Y0072523D02*
X0341921Y0072523D01*
X0341921Y0071924D02*
X0187700Y0071924D01*
X0187506Y0071326D02*
X0341921Y0071326D01*
X0341921Y0070727D02*
X0186907Y0070727D01*
X0186309Y0070129D02*
X0341921Y0070129D01*
X0341921Y0069530D02*
X0185710Y0069530D01*
X0184576Y0067036D02*
X0183024Y0067036D01*
X0181591Y0066442D01*
X0180494Y0065345D01*
X0179900Y0063911D01*
X0179900Y0062360D01*
X0180494Y0060926D01*
X0181591Y0059829D01*
X0183024Y0059236D01*
X0184576Y0059236D01*
X0186009Y0059829D01*
X0187106Y0060926D01*
X0187700Y0062360D01*
X0187700Y0063911D01*
X0187106Y0065345D01*
X0186009Y0066442D01*
X0184576Y0067036D01*
X0185778Y0066538D02*
X0341921Y0066538D01*
X0341921Y0067136D02*
X0162204Y0067136D01*
X0161605Y0067735D02*
X0341921Y0067735D01*
X0341921Y0068333D02*
X0161007Y0068333D01*
X0160408Y0068932D02*
X0161923Y0068932D01*
X0162019Y0068836D02*
X0163500Y0068836D01*
X0163500Y0072836D01*
X0159500Y0072836D01*
X0159500Y0071355D01*
X0162019Y0068836D01*
X0161324Y0069530D02*
X0159809Y0069530D01*
X0159211Y0070129D02*
X0160726Y0070129D01*
X0160127Y0070727D02*
X0158612Y0070727D01*
X0158014Y0071326D02*
X0159529Y0071326D01*
X0159500Y0071924D02*
X0157415Y0071924D01*
X0156817Y0072523D02*
X0159500Y0072523D01*
X0159500Y0073436D02*
X0163500Y0073436D01*
X0163500Y0077436D01*
X0162019Y0077436D01*
X0159500Y0074917D01*
X0155967Y0074917D01*
X0155967Y0075515D02*
X0160099Y0075515D01*
X0160697Y0076114D02*
X0155967Y0076114D01*
X0155967Y0076712D02*
X0161296Y0076712D01*
X0161894Y0077311D02*
X0155967Y0077311D01*
X0155967Y0077909D02*
X0178556Y0077909D01*
X0179155Y0077311D02*
X0165706Y0077311D01*
X0165581Y0077436D02*
X0164100Y0077436D01*
X0164100Y0073436D01*
X0163500Y0073436D01*
X0163500Y0072836D01*
X0164100Y0072836D01*
X0164100Y0073436D01*
X0168100Y0073436D01*
X0168100Y0074917D01*
X0170066Y0074917D01*
X0169900Y0074751D02*
X0169900Y0071520D01*
X0172185Y0069236D01*
X0175415Y0069236D01*
X0177700Y0071520D01*
X0177700Y0074751D01*
X0175415Y0077036D01*
X0172185Y0077036D01*
X0169900Y0074751D01*
X0169900Y0074318D02*
X0168100Y0074318D01*
X0168100Y0073720D02*
X0169900Y0073720D01*
X0169900Y0073121D02*
X0164100Y0073121D01*
X0164100Y0072836D02*
X0168100Y0072836D01*
X0168100Y0071355D01*
X0165581Y0068836D01*
X0164100Y0068836D01*
X0164100Y0072836D01*
X0164100Y0072523D02*
X0163500Y0072523D01*
X0163500Y0073121D02*
X0156218Y0073121D01*
X0155967Y0073720D02*
X0159500Y0073720D01*
X0159500Y0073436D02*
X0159500Y0074917D01*
X0159500Y0074318D02*
X0155967Y0074318D01*
X0163500Y0074318D02*
X0164100Y0074318D01*
X0164100Y0073720D02*
X0163500Y0073720D01*
X0163500Y0074917D02*
X0164100Y0074917D01*
X0164100Y0075515D02*
X0163500Y0075515D01*
X0163500Y0076114D02*
X0164100Y0076114D01*
X0164100Y0076712D02*
X0163500Y0076712D01*
X0163500Y0077311D02*
X0164100Y0077311D01*
X0165581Y0077436D02*
X0168100Y0074917D01*
X0167501Y0075515D02*
X0170664Y0075515D01*
X0171263Y0076114D02*
X0166903Y0076114D01*
X0166304Y0076712D02*
X0171861Y0076712D01*
X0175739Y0076712D02*
X0179753Y0076712D01*
X0180352Y0076114D02*
X0176337Y0076114D01*
X0176936Y0075515D02*
X0180664Y0075515D01*
X0180066Y0074917D02*
X0177534Y0074917D01*
X0177700Y0074318D02*
X0179900Y0074318D01*
X0179900Y0073720D02*
X0177700Y0073720D01*
X0177700Y0073121D02*
X0179900Y0073121D01*
X0179900Y0072523D02*
X0177700Y0072523D01*
X0177700Y0071924D02*
X0179900Y0071924D01*
X0180094Y0071326D02*
X0177506Y0071326D01*
X0176907Y0070727D02*
X0180693Y0070727D01*
X0181291Y0070129D02*
X0176309Y0070129D01*
X0175710Y0069530D02*
X0181890Y0069530D01*
X0177700Y0064751D02*
X0175415Y0067036D01*
X0172185Y0067036D01*
X0169900Y0064751D01*
X0169900Y0061520D01*
X0172185Y0059236D01*
X0175415Y0059236D01*
X0177700Y0061520D01*
X0177700Y0064751D01*
X0177700Y0064742D02*
X0180244Y0064742D01*
X0179996Y0064144D02*
X0177700Y0064144D01*
X0177700Y0063545D02*
X0179900Y0063545D01*
X0179900Y0062947D02*
X0177700Y0062947D01*
X0177700Y0062348D02*
X0179905Y0062348D01*
X0180153Y0061750D02*
X0177700Y0061750D01*
X0177331Y0061151D02*
X0180401Y0061151D01*
X0180868Y0060553D02*
X0176732Y0060553D01*
X0176134Y0059954D02*
X0181466Y0059954D01*
X0182735Y0059356D02*
X0175535Y0059356D01*
X0172065Y0059356D02*
X0165535Y0059356D01*
X0166134Y0059954D02*
X0171466Y0059954D01*
X0170868Y0060553D02*
X0166732Y0060553D01*
X0167331Y0061151D02*
X0170269Y0061151D01*
X0169900Y0061750D02*
X0167700Y0061750D01*
X0167700Y0062348D02*
X0169900Y0062348D01*
X0169900Y0062947D02*
X0167700Y0062947D01*
X0167700Y0063545D02*
X0169900Y0063545D01*
X0169900Y0064144D02*
X0167700Y0064144D01*
X0167700Y0064742D02*
X0169900Y0064742D01*
X0170490Y0065341D02*
X0167110Y0065341D01*
X0166512Y0065939D02*
X0171088Y0065939D01*
X0171687Y0066538D02*
X0165913Y0066538D01*
X0165677Y0068932D02*
X0341921Y0068932D01*
X0341921Y0065939D02*
X0186512Y0065939D01*
X0187108Y0065341D02*
X0341921Y0065341D01*
X0341921Y0064742D02*
X0187356Y0064742D01*
X0187604Y0064144D02*
X0341921Y0064144D01*
X0341921Y0063545D02*
X0187700Y0063545D01*
X0187700Y0062947D02*
X0341921Y0062947D01*
X0341921Y0062348D02*
X0187695Y0062348D01*
X0187447Y0061750D02*
X0341921Y0061750D01*
X0341921Y0061151D02*
X0187199Y0061151D01*
X0186732Y0060553D02*
X0341921Y0060553D01*
X0341921Y0059954D02*
X0186134Y0059954D01*
X0184865Y0059356D02*
X0341921Y0059356D01*
X0341921Y0026437D02*
X0199866Y0026437D01*
X0199807Y0026457D02*
X0199138Y0026563D01*
X0199100Y0026563D01*
X0199100Y0019563D01*
X0198500Y0019563D01*
X0198500Y0026563D01*
X0198462Y0026563D01*
X0197793Y0026457D01*
X0197149Y0026248D01*
X0196546Y0025940D01*
X0195999Y0025542D01*
X0195520Y0025064D01*
X0195122Y0024516D01*
X0194815Y0023913D01*
X0194606Y0023270D01*
X0194500Y0022601D01*
X0194500Y0019563D01*
X0198500Y0019563D01*
X0198500Y0018963D01*
X0194500Y0018963D01*
X0194500Y0015924D01*
X0194606Y0015256D01*
X0194815Y0014612D01*
X0195122Y0014009D01*
X0195520Y0013461D01*
X0195999Y0012983D01*
X0196546Y0012585D01*
X0197149Y0012278D01*
X0197793Y0012068D01*
X0198462Y0011963D01*
X0198500Y0011963D01*
X0198500Y0018963D01*
X0199100Y0018963D01*
X0199100Y0019563D01*
X0203100Y0019563D01*
X0203100Y0022601D01*
X0202994Y0023270D01*
X0202785Y0023913D01*
X0202478Y0024516D01*
X0202080Y0025064D01*
X0201601Y0025542D01*
X0201054Y0025940D01*
X0200451Y0026248D01*
X0199807Y0026457D01*
X0199100Y0026437D02*
X0198500Y0026437D01*
X0198500Y0025839D02*
X0199100Y0025839D01*
X0199100Y0025240D02*
X0198500Y0025240D01*
X0198500Y0024642D02*
X0199100Y0024642D01*
X0199100Y0024043D02*
X0198500Y0024043D01*
X0198500Y0023445D02*
X0199100Y0023445D01*
X0199100Y0022846D02*
X0198500Y0022846D01*
X0198500Y0022248D02*
X0199100Y0022248D01*
X0199100Y0021649D02*
X0198500Y0021649D01*
X0198500Y0021051D02*
X0199100Y0021051D01*
X0199100Y0020452D02*
X0198500Y0020452D01*
X0198500Y0019854D02*
X0199100Y0019854D01*
X0199100Y0019255D02*
X0341731Y0019255D01*
X0341834Y0019854D02*
X0203100Y0019854D01*
X0203100Y0020452D02*
X0341879Y0020452D01*
X0341921Y0021051D02*
X0203100Y0021051D01*
X0203100Y0021649D02*
X0341921Y0021649D01*
X0341921Y0022248D02*
X0203100Y0022248D01*
X0203061Y0022846D02*
X0341921Y0022846D01*
X0341921Y0023445D02*
X0202937Y0023445D01*
X0202719Y0024043D02*
X0341921Y0024043D01*
X0341921Y0024642D02*
X0202386Y0024642D01*
X0201903Y0025240D02*
X0341921Y0025240D01*
X0341921Y0025839D02*
X0201193Y0025839D01*
X0197734Y0026437D02*
X0189866Y0026437D01*
X0189807Y0026457D02*
X0189138Y0026563D01*
X0189100Y0026563D01*
X0189100Y0019563D01*
X0188500Y0019563D01*
X0188500Y0026563D01*
X0188462Y0026563D01*
X0187793Y0026457D01*
X0187149Y0026248D01*
X0186546Y0025940D01*
X0185999Y0025542D01*
X0185520Y0025064D01*
X0185122Y0024516D01*
X0184815Y0023913D01*
X0184606Y0023270D01*
X0184500Y0022601D01*
X0184500Y0019563D01*
X0188500Y0019563D01*
X0188500Y0018963D01*
X0184500Y0018963D01*
X0184500Y0015924D01*
X0184606Y0015256D01*
X0184815Y0014612D01*
X0185122Y0014009D01*
X0185520Y0013461D01*
X0185999Y0012983D01*
X0186546Y0012585D01*
X0187149Y0012278D01*
X0187793Y0012068D01*
X0188462Y0011963D01*
X0188500Y0011963D01*
X0188500Y0018963D01*
X0189100Y0018963D01*
X0189100Y0019563D01*
X0193100Y0019563D01*
X0193100Y0022601D01*
X0192994Y0023270D01*
X0192785Y0023913D01*
X0192478Y0024516D01*
X0192080Y0025064D01*
X0191601Y0025542D01*
X0191054Y0025940D01*
X0190451Y0026248D01*
X0189807Y0026457D01*
X0189100Y0026437D02*
X0188500Y0026437D01*
X0188500Y0025839D02*
X0189100Y0025839D01*
X0189100Y0025240D02*
X0188500Y0025240D01*
X0188500Y0024642D02*
X0189100Y0024642D01*
X0189100Y0024043D02*
X0188500Y0024043D01*
X0188500Y0023445D02*
X0189100Y0023445D01*
X0189100Y0022846D02*
X0188500Y0022846D01*
X0188500Y0022248D02*
X0189100Y0022248D01*
X0189100Y0021649D02*
X0188500Y0021649D01*
X0188500Y0021051D02*
X0189100Y0021051D01*
X0189100Y0020452D02*
X0188500Y0020452D01*
X0188500Y0019854D02*
X0189100Y0019854D01*
X0189100Y0019255D02*
X0198500Y0019255D01*
X0198500Y0018657D02*
X0199100Y0018657D01*
X0199100Y0018963D02*
X0199100Y0011963D01*
X0199138Y0011963D01*
X0199807Y0012068D01*
X0200451Y0012278D01*
X0201054Y0012585D01*
X0201601Y0012983D01*
X0202080Y0013461D01*
X0202478Y0014009D01*
X0202785Y0014612D01*
X0202994Y0015256D01*
X0203100Y0015924D01*
X0203100Y0018963D01*
X0199100Y0018963D01*
X0199100Y0018058D02*
X0198500Y0018058D01*
X0198500Y0017460D02*
X0199100Y0017460D01*
X0199100Y0016861D02*
X0198500Y0016861D01*
X0198500Y0016263D02*
X0199100Y0016263D01*
X0199100Y0015664D02*
X0198500Y0015664D01*
X0198500Y0015066D02*
X0199100Y0015066D01*
X0199100Y0014467D02*
X0198500Y0014467D01*
X0198500Y0013869D02*
X0199100Y0013869D01*
X0199100Y0013270D02*
X0198500Y0013270D01*
X0198500Y0012672D02*
X0199100Y0012672D01*
X0199100Y0012073D02*
X0198500Y0012073D01*
X0197779Y0012073D02*
X0189821Y0012073D01*
X0189807Y0012068D02*
X0190451Y0012278D01*
X0191054Y0012585D01*
X0191601Y0012983D01*
X0192080Y0013461D01*
X0192478Y0014009D01*
X0192785Y0014612D01*
X0192994Y0015256D01*
X0193100Y0015924D01*
X0193100Y0018963D01*
X0189100Y0018963D01*
X0189100Y0011963D01*
X0189138Y0011963D01*
X0189807Y0012068D01*
X0189100Y0012073D02*
X0188500Y0012073D01*
X0188500Y0012672D02*
X0189100Y0012672D01*
X0189100Y0013270D02*
X0188500Y0013270D01*
X0188500Y0013869D02*
X0189100Y0013869D01*
X0189100Y0014467D02*
X0188500Y0014467D01*
X0188500Y0015066D02*
X0189100Y0015066D01*
X0189100Y0015664D02*
X0188500Y0015664D01*
X0188500Y0016263D02*
X0189100Y0016263D01*
X0189100Y0016861D02*
X0188500Y0016861D01*
X0188500Y0017460D02*
X0189100Y0017460D01*
X0189100Y0018058D02*
X0188500Y0018058D01*
X0188500Y0018657D02*
X0189100Y0018657D01*
X0188500Y0019255D02*
X0179100Y0019255D01*
X0179100Y0018963D02*
X0179100Y0019563D01*
X0178500Y0019563D01*
X0178500Y0026563D01*
X0178462Y0026563D01*
X0177793Y0026457D01*
X0177149Y0026248D01*
X0176546Y0025940D01*
X0175999Y0025542D01*
X0175520Y0025064D01*
X0175122Y0024516D01*
X0174815Y0023913D01*
X0174606Y0023270D01*
X0174500Y0022601D01*
X0174500Y0019563D01*
X0178500Y0019563D01*
X0178500Y0018963D01*
X0174500Y0018963D01*
X0174500Y0015924D01*
X0174606Y0015256D01*
X0174815Y0014612D01*
X0175122Y0014009D01*
X0175520Y0013461D01*
X0175999Y0012983D01*
X0176546Y0012585D01*
X0177149Y0012278D01*
X0177793Y0012068D01*
X0178462Y0011963D01*
X0178500Y0011963D01*
X0178500Y0018963D01*
X0179100Y0018963D01*
X0183100Y0018963D01*
X0183100Y0015924D01*
X0182994Y0015256D01*
X0182785Y0014612D01*
X0182478Y0014009D01*
X0182080Y0013461D01*
X0181601Y0012983D01*
X0181054Y0012585D01*
X0180451Y0012278D01*
X0179807Y0012068D01*
X0179138Y0011963D01*
X0179100Y0011963D01*
X0179100Y0018963D01*
X0179100Y0018657D02*
X0178500Y0018657D01*
X0178500Y0019255D02*
X0169100Y0019255D01*
X0169100Y0018963D02*
X0169100Y0019563D01*
X0168500Y0019563D01*
X0168500Y0026563D01*
X0168462Y0026563D01*
X0167793Y0026457D01*
X0167149Y0026248D01*
X0166546Y0025940D01*
X0165999Y0025542D01*
X0165520Y0025064D01*
X0165122Y0024516D01*
X0164815Y0023913D01*
X0164606Y0023270D01*
X0164500Y0022601D01*
X0164500Y0019563D01*
X0168500Y0019563D01*
X0168500Y0018963D01*
X0164500Y0018963D01*
X0164500Y0015924D01*
X0164606Y0015256D01*
X0164815Y0014612D01*
X0165122Y0014009D01*
X0165520Y0013461D01*
X0165999Y0012983D01*
X0166546Y0012585D01*
X0167149Y0012278D01*
X0167793Y0012068D01*
X0168462Y0011963D01*
X0168500Y0011963D01*
X0168500Y0018963D01*
X0169100Y0018963D01*
X0173100Y0018963D01*
X0173100Y0015924D01*
X0172994Y0015256D01*
X0172785Y0014612D01*
X0172478Y0014009D01*
X0172080Y0013461D01*
X0171601Y0012983D01*
X0171054Y0012585D01*
X0170451Y0012278D01*
X0169807Y0012068D01*
X0169138Y0011963D01*
X0169100Y0011963D01*
X0169100Y0018963D01*
X0169100Y0018657D02*
X0168500Y0018657D01*
X0168500Y0019255D02*
X0159100Y0019255D01*
X0159100Y0018963D02*
X0159100Y0019563D01*
X0158500Y0019563D01*
X0158500Y0026563D01*
X0158462Y0026563D01*
X0157793Y0026457D01*
X0157149Y0026248D01*
X0156546Y0025940D01*
X0155999Y0025542D01*
X0155520Y0025064D01*
X0155122Y0024516D01*
X0154815Y0023913D01*
X0154606Y0023270D01*
X0154500Y0022601D01*
X0154500Y0019563D01*
X0158500Y0019563D01*
X0158500Y0018963D01*
X0154500Y0018963D01*
X0154500Y0015924D01*
X0154606Y0015256D01*
X0154815Y0014612D01*
X0155122Y0014009D01*
X0155520Y0013461D01*
X0155999Y0012983D01*
X0156546Y0012585D01*
X0157149Y0012278D01*
X0157793Y0012068D01*
X0158462Y0011963D01*
X0158500Y0011963D01*
X0158500Y0018963D01*
X0159100Y0018963D01*
X0163100Y0018963D01*
X0163100Y0015924D01*
X0162994Y0015256D01*
X0162785Y0014612D01*
X0162478Y0014009D01*
X0162080Y0013461D01*
X0161601Y0012983D01*
X0161054Y0012585D01*
X0160451Y0012278D01*
X0159807Y0012068D01*
X0159138Y0011963D01*
X0159100Y0011963D01*
X0159100Y0018963D01*
X0159100Y0018657D02*
X0158500Y0018657D01*
X0158500Y0019255D02*
X0149100Y0019255D01*
X0149100Y0019563D02*
X0153100Y0019563D01*
X0153100Y0022601D01*
X0152994Y0023270D01*
X0152785Y0023913D01*
X0152478Y0024516D01*
X0152080Y0025064D01*
X0151601Y0025542D01*
X0151054Y0025940D01*
X0150451Y0026248D01*
X0149807Y0026457D01*
X0149138Y0026563D01*
X0149100Y0026563D01*
X0149100Y0019563D01*
X0149100Y0019854D02*
X0148500Y0019854D01*
X0148500Y0020452D02*
X0149100Y0020452D01*
X0149100Y0021051D02*
X0148500Y0021051D01*
X0148500Y0021649D02*
X0149100Y0021649D01*
X0149100Y0022248D02*
X0148500Y0022248D01*
X0148500Y0022846D02*
X0149100Y0022846D01*
X0149100Y0023445D02*
X0148500Y0023445D01*
X0148500Y0024043D02*
X0149100Y0024043D01*
X0149100Y0024642D02*
X0148500Y0024642D01*
X0148500Y0025240D02*
X0149100Y0025240D01*
X0149100Y0025839D02*
X0148500Y0025839D01*
X0148500Y0026437D02*
X0149100Y0026437D01*
X0149866Y0026437D02*
X0157734Y0026437D01*
X0158500Y0026437D02*
X0159100Y0026437D01*
X0159100Y0026563D02*
X0159100Y0019563D01*
X0163100Y0019563D01*
X0163100Y0022601D01*
X0162994Y0023270D01*
X0162785Y0023913D01*
X0162478Y0024516D01*
X0162080Y0025064D01*
X0161601Y0025542D01*
X0161054Y0025940D01*
X0160451Y0026248D01*
X0159807Y0026457D01*
X0159138Y0026563D01*
X0159100Y0026563D01*
X0159100Y0025839D02*
X0158500Y0025839D01*
X0158500Y0025240D02*
X0159100Y0025240D01*
X0159100Y0024642D02*
X0158500Y0024642D01*
X0158500Y0024043D02*
X0159100Y0024043D01*
X0159100Y0023445D02*
X0158500Y0023445D01*
X0158500Y0022846D02*
X0159100Y0022846D01*
X0159100Y0022248D02*
X0158500Y0022248D01*
X0158500Y0021649D02*
X0159100Y0021649D01*
X0159100Y0021051D02*
X0158500Y0021051D01*
X0158500Y0020452D02*
X0159100Y0020452D01*
X0159100Y0019854D02*
X0158500Y0019854D01*
X0158500Y0018058D02*
X0159100Y0018058D01*
X0159100Y0017460D02*
X0158500Y0017460D01*
X0158500Y0016861D02*
X0159100Y0016861D01*
X0159100Y0016263D02*
X0158500Y0016263D01*
X0158500Y0015664D02*
X0159100Y0015664D01*
X0159100Y0015066D02*
X0158500Y0015066D01*
X0158500Y0014467D02*
X0159100Y0014467D01*
X0159100Y0013869D02*
X0158500Y0013869D01*
X0158500Y0013270D02*
X0159100Y0013270D01*
X0159100Y0012672D02*
X0158500Y0012672D01*
X0158500Y0012073D02*
X0159100Y0012073D01*
X0159821Y0012073D02*
X0167779Y0012073D01*
X0168500Y0012073D02*
X0169100Y0012073D01*
X0169100Y0012672D02*
X0168500Y0012672D01*
X0168500Y0013270D02*
X0169100Y0013270D01*
X0169100Y0013869D02*
X0168500Y0013869D01*
X0168500Y0014467D02*
X0169100Y0014467D01*
X0169100Y0015066D02*
X0168500Y0015066D01*
X0168500Y0015664D02*
X0169100Y0015664D01*
X0169100Y0016263D02*
X0168500Y0016263D01*
X0168500Y0016861D02*
X0169100Y0016861D01*
X0169100Y0017460D02*
X0168500Y0017460D01*
X0168500Y0018058D02*
X0169100Y0018058D01*
X0169100Y0019563D02*
X0173100Y0019563D01*
X0173100Y0022601D01*
X0172994Y0023270D01*
X0172785Y0023913D01*
X0172478Y0024516D01*
X0172080Y0025064D01*
X0171601Y0025542D01*
X0171054Y0025940D01*
X0170451Y0026248D01*
X0169807Y0026457D01*
X0169138Y0026563D01*
X0169100Y0026563D01*
X0169100Y0019563D01*
X0169100Y0019854D02*
X0168500Y0019854D01*
X0168500Y0020452D02*
X0169100Y0020452D01*
X0169100Y0021051D02*
X0168500Y0021051D01*
X0168500Y0021649D02*
X0169100Y0021649D01*
X0169100Y0022248D02*
X0168500Y0022248D01*
X0168500Y0022846D02*
X0169100Y0022846D01*
X0169100Y0023445D02*
X0168500Y0023445D01*
X0168500Y0024043D02*
X0169100Y0024043D01*
X0169100Y0024642D02*
X0168500Y0024642D01*
X0168500Y0025240D02*
X0169100Y0025240D01*
X0169100Y0025839D02*
X0168500Y0025839D01*
X0168500Y0026437D02*
X0169100Y0026437D01*
X0169866Y0026437D02*
X0177734Y0026437D01*
X0178500Y0026437D02*
X0179100Y0026437D01*
X0179100Y0026563D02*
X0179100Y0019563D01*
X0183100Y0019563D01*
X0183100Y0022601D01*
X0182994Y0023270D01*
X0182785Y0023913D01*
X0182478Y0024516D01*
X0182080Y0025064D01*
X0181601Y0025542D01*
X0181054Y0025940D01*
X0180451Y0026248D01*
X0179807Y0026457D01*
X0179138Y0026563D01*
X0179100Y0026563D01*
X0179100Y0025839D02*
X0178500Y0025839D01*
X0178500Y0025240D02*
X0179100Y0025240D01*
X0179100Y0024642D02*
X0178500Y0024642D01*
X0178500Y0024043D02*
X0179100Y0024043D01*
X0179100Y0023445D02*
X0178500Y0023445D01*
X0178500Y0022846D02*
X0179100Y0022846D01*
X0179100Y0022248D02*
X0178500Y0022248D01*
X0178500Y0021649D02*
X0179100Y0021649D01*
X0179100Y0021051D02*
X0178500Y0021051D01*
X0178500Y0020452D02*
X0179100Y0020452D01*
X0179100Y0019854D02*
X0178500Y0019854D01*
X0178500Y0018058D02*
X0179100Y0018058D01*
X0179100Y0017460D02*
X0178500Y0017460D01*
X0178500Y0016861D02*
X0179100Y0016861D01*
X0179100Y0016263D02*
X0178500Y0016263D01*
X0178500Y0015664D02*
X0179100Y0015664D01*
X0179100Y0015066D02*
X0178500Y0015066D01*
X0178500Y0014467D02*
X0179100Y0014467D01*
X0179100Y0013869D02*
X0178500Y0013869D01*
X0178500Y0013270D02*
X0179100Y0013270D01*
X0179100Y0012672D02*
X0178500Y0012672D01*
X0178500Y0012073D02*
X0179100Y0012073D01*
X0179821Y0012073D02*
X0187779Y0012073D01*
X0186427Y0012672D02*
X0181173Y0012672D01*
X0181889Y0013270D02*
X0185711Y0013270D01*
X0185224Y0013869D02*
X0182376Y0013869D01*
X0182711Y0014467D02*
X0184889Y0014467D01*
X0184668Y0015066D02*
X0182932Y0015066D01*
X0183059Y0015664D02*
X0184541Y0015664D01*
X0184500Y0016263D02*
X0183100Y0016263D01*
X0183100Y0016861D02*
X0184500Y0016861D01*
X0184500Y0017460D02*
X0183100Y0017460D01*
X0183100Y0018058D02*
X0184500Y0018058D01*
X0184500Y0018657D02*
X0183100Y0018657D01*
X0183100Y0019854D02*
X0184500Y0019854D01*
X0184500Y0020452D02*
X0183100Y0020452D01*
X0183100Y0021051D02*
X0184500Y0021051D01*
X0184500Y0021649D02*
X0183100Y0021649D01*
X0183100Y0022248D02*
X0184500Y0022248D01*
X0184539Y0022846D02*
X0183061Y0022846D01*
X0182937Y0023445D02*
X0184663Y0023445D01*
X0184881Y0024043D02*
X0182719Y0024043D01*
X0182386Y0024642D02*
X0185214Y0024642D01*
X0185697Y0025240D02*
X0181903Y0025240D01*
X0181193Y0025839D02*
X0186407Y0025839D01*
X0187734Y0026437D02*
X0179866Y0026437D01*
X0176407Y0025839D02*
X0171193Y0025839D01*
X0171903Y0025240D02*
X0175697Y0025240D01*
X0175214Y0024642D02*
X0172386Y0024642D01*
X0172719Y0024043D02*
X0174881Y0024043D01*
X0174663Y0023445D02*
X0172937Y0023445D01*
X0173061Y0022846D02*
X0174539Y0022846D01*
X0174500Y0022248D02*
X0173100Y0022248D01*
X0173100Y0021649D02*
X0174500Y0021649D01*
X0174500Y0021051D02*
X0173100Y0021051D01*
X0173100Y0020452D02*
X0174500Y0020452D01*
X0174500Y0019854D02*
X0173100Y0019854D01*
X0173100Y0018657D02*
X0174500Y0018657D01*
X0174500Y0018058D02*
X0173100Y0018058D01*
X0173100Y0017460D02*
X0174500Y0017460D01*
X0174500Y0016861D02*
X0173100Y0016861D01*
X0173100Y0016263D02*
X0174500Y0016263D01*
X0174541Y0015664D02*
X0173059Y0015664D01*
X0172932Y0015066D02*
X0174668Y0015066D01*
X0174889Y0014467D02*
X0172711Y0014467D01*
X0172376Y0013869D02*
X0175224Y0013869D01*
X0175711Y0013270D02*
X0171889Y0013270D01*
X0171173Y0012672D02*
X0176427Y0012672D01*
X0177779Y0012073D02*
X0169821Y0012073D01*
X0166427Y0012672D02*
X0161173Y0012672D01*
X0161889Y0013270D02*
X0165711Y0013270D01*
X0165224Y0013869D02*
X0162376Y0013869D01*
X0162711Y0014467D02*
X0164889Y0014467D01*
X0164668Y0015066D02*
X0162932Y0015066D01*
X0163059Y0015664D02*
X0164541Y0015664D01*
X0164500Y0016263D02*
X0163100Y0016263D01*
X0163100Y0016861D02*
X0164500Y0016861D01*
X0164500Y0017460D02*
X0163100Y0017460D01*
X0163100Y0018058D02*
X0164500Y0018058D01*
X0164500Y0018657D02*
X0163100Y0018657D01*
X0163100Y0019854D02*
X0164500Y0019854D01*
X0164500Y0020452D02*
X0163100Y0020452D01*
X0163100Y0021051D02*
X0164500Y0021051D01*
X0164500Y0021649D02*
X0163100Y0021649D01*
X0163100Y0022248D02*
X0164500Y0022248D01*
X0164539Y0022846D02*
X0163061Y0022846D01*
X0162937Y0023445D02*
X0164663Y0023445D01*
X0164881Y0024043D02*
X0162719Y0024043D01*
X0162386Y0024642D02*
X0165214Y0024642D01*
X0165697Y0025240D02*
X0161903Y0025240D01*
X0161193Y0025839D02*
X0166407Y0025839D01*
X0167734Y0026437D02*
X0159866Y0026437D01*
X0156407Y0025839D02*
X0151193Y0025839D01*
X0151903Y0025240D02*
X0155697Y0025240D01*
X0155214Y0024642D02*
X0152386Y0024642D01*
X0152719Y0024043D02*
X0154881Y0024043D01*
X0154663Y0023445D02*
X0152937Y0023445D01*
X0153061Y0022846D02*
X0154539Y0022846D01*
X0154500Y0022248D02*
X0153100Y0022248D01*
X0153100Y0021649D02*
X0154500Y0021649D01*
X0154500Y0021051D02*
X0153100Y0021051D01*
X0153100Y0020452D02*
X0154500Y0020452D01*
X0154500Y0019854D02*
X0153100Y0019854D01*
X0153100Y0018657D02*
X0154500Y0018657D01*
X0154500Y0018058D02*
X0153100Y0018058D01*
X0153100Y0017460D02*
X0154500Y0017460D01*
X0154500Y0016861D02*
X0153100Y0016861D01*
X0153100Y0016263D02*
X0154500Y0016263D01*
X0154541Y0015664D02*
X0153059Y0015664D01*
X0152932Y0015066D02*
X0154668Y0015066D01*
X0154889Y0014467D02*
X0152711Y0014467D01*
X0152376Y0013869D02*
X0155224Y0013869D01*
X0155711Y0013270D02*
X0151889Y0013270D01*
X0151173Y0012672D02*
X0156427Y0012672D01*
X0157779Y0012073D02*
X0149821Y0012073D01*
X0146427Y0012672D02*
X0009511Y0012672D01*
X0008902Y0013270D02*
X0145711Y0013270D01*
X0145224Y0013869D02*
X0008293Y0013869D01*
X0007816Y0014467D02*
X0144889Y0014467D01*
X0144668Y0015066D02*
X0007463Y0015066D01*
X0007111Y0015664D02*
X0144541Y0015664D01*
X0144500Y0016263D02*
X0006758Y0016263D01*
X0006455Y0016861D02*
X0144500Y0016861D01*
X0144500Y0017460D02*
X0006289Y0017460D01*
X0006123Y0018058D02*
X0144500Y0018058D01*
X0144500Y0018657D02*
X0005957Y0018657D01*
X0014057Y0010278D02*
X0333464Y0010278D01*
X0337389Y0012073D02*
X0199821Y0012073D01*
X0201173Y0012672D02*
X0338010Y0012672D01*
X0338620Y0013270D02*
X0201889Y0013270D01*
X0202376Y0013869D02*
X0339229Y0013869D01*
X0339705Y0014467D02*
X0202711Y0014467D01*
X0202932Y0015066D02*
X0340058Y0015066D01*
X0340411Y0015664D02*
X0203059Y0015664D01*
X0203100Y0016263D02*
X0340763Y0016263D01*
X0341066Y0016861D02*
X0203100Y0016861D01*
X0203100Y0017460D02*
X0341232Y0017460D01*
X0341398Y0018058D02*
X0203100Y0018058D01*
X0203100Y0018657D02*
X0341565Y0018657D01*
X0196427Y0012672D02*
X0191173Y0012672D01*
X0191889Y0013270D02*
X0195711Y0013270D01*
X0195224Y0013869D02*
X0192376Y0013869D01*
X0192711Y0014467D02*
X0194889Y0014467D01*
X0194668Y0015066D02*
X0192932Y0015066D01*
X0193059Y0015664D02*
X0194541Y0015664D01*
X0194500Y0016263D02*
X0193100Y0016263D01*
X0193100Y0016861D02*
X0194500Y0016861D01*
X0194500Y0017460D02*
X0193100Y0017460D01*
X0193100Y0018058D02*
X0194500Y0018058D01*
X0194500Y0018657D02*
X0193100Y0018657D01*
X0193100Y0019854D02*
X0194500Y0019854D01*
X0194500Y0020452D02*
X0193100Y0020452D01*
X0193100Y0021051D02*
X0194500Y0021051D01*
X0194500Y0021649D02*
X0193100Y0021649D01*
X0193100Y0022248D02*
X0194500Y0022248D01*
X0194539Y0022846D02*
X0193061Y0022846D01*
X0192937Y0023445D02*
X0194663Y0023445D01*
X0194881Y0024043D02*
X0192719Y0024043D01*
X0192386Y0024642D02*
X0195214Y0024642D01*
X0195697Y0025240D02*
X0191903Y0025240D01*
X0191193Y0025839D02*
X0196407Y0025839D01*
X0180492Y0065341D02*
X0177110Y0065341D01*
X0176512Y0065939D02*
X0181088Y0065939D01*
X0181822Y0066538D02*
X0175913Y0066538D01*
X0171890Y0069530D02*
X0166276Y0069530D01*
X0166874Y0070129D02*
X0171291Y0070129D01*
X0170693Y0070727D02*
X0167473Y0070727D01*
X0168071Y0071326D02*
X0170094Y0071326D01*
X0169900Y0071924D02*
X0168100Y0071924D01*
X0168100Y0072523D02*
X0169900Y0072523D01*
X0164100Y0071924D02*
X0163500Y0071924D01*
X0163500Y0071326D02*
X0164100Y0071326D01*
X0164100Y0070727D02*
X0163500Y0070727D01*
X0163500Y0070129D02*
X0164100Y0070129D01*
X0164100Y0069530D02*
X0163500Y0069530D01*
X0163500Y0068932D02*
X0164100Y0068932D01*
X0158112Y0079106D02*
X0177359Y0079106D01*
X0177958Y0078508D02*
X0155967Y0078508D01*
X0155967Y0079106D02*
X0156988Y0079106D01*
X0159305Y0079705D02*
X0176761Y0079705D01*
X0179708Y0082698D02*
X0181700Y0082698D01*
X0181700Y0083296D02*
X0179109Y0083296D01*
X0178511Y0083895D02*
X0181700Y0083895D01*
X0181700Y0084493D02*
X0158527Y0084493D01*
X0157264Y0085092D02*
X0155967Y0085092D01*
X0155967Y0085690D02*
X0156437Y0085690D01*
X0156573Y0084493D02*
X0155967Y0084493D01*
X0180336Y0085092D02*
X0181700Y0085092D01*
X0181700Y0085690D02*
X0181163Y0085690D01*
X0181700Y0082099D02*
X0180306Y0082099D01*
X0180905Y0081501D02*
X0181700Y0081501D01*
X0181700Y0080902D02*
X0181503Y0080902D01*
X0181266Y0090478D02*
X0181700Y0090478D01*
X0181700Y0091077D02*
X0180584Y0091077D01*
X0180500Y0091675D02*
X0181700Y0091675D01*
X0181700Y0092274D02*
X0180191Y0092274D01*
X0179593Y0092872D02*
X0181700Y0092872D01*
X0181700Y0093471D02*
X0179314Y0093471D01*
X0179314Y0094069D02*
X0181700Y0094069D01*
X0181700Y0094668D02*
X0178771Y0094668D01*
X0178173Y0095266D02*
X0181700Y0095266D01*
X0156302Y0095266D02*
X0155967Y0095266D01*
X0005600Y0188036D02*
X0341921Y0188036D01*
X0341921Y0188634D02*
X0005600Y0188634D01*
D22*
X0156925Y0134386D03*
X0165050Y0126261D03*
X0163300Y0116611D03*
X0175675Y0107511D03*
X0172550Y0096886D03*
X0168800Y0093136D03*
X0162550Y0093136D03*
X0157550Y0093136D03*
X0176925Y0093136D03*
X0204425Y0113761D03*
X0200675Y0116886D03*
X0206925Y0120011D03*
X0200675Y0123136D03*
X0189425Y0136886D03*
X0189425Y0142511D03*
M02*
