G75*
%MOIN*%
%OFA0B0*%
%FSLAX25Y25*%
%IPPOS*%
%LPD*%
%AMOC8*
5,1,8,0,0,1.08239X$1,22.5*
%
%ADD10C,0.00000*%
%ADD11C,0.00300*%
%ADD12C,0.00800*%
%ADD13R,0.02400X0.06200*%
%ADD14R,0.01181X0.00591*%
%ADD15R,0.01181X0.01181*%
%ADD16C,0.00200*%
%ADD17C,0.00600*%
%ADD18C,0.00500*%
D10*
X0017048Y0005513D02*
X0330473Y0005513D01*
X0330850Y0005514D01*
X0331228Y0005524D01*
X0331604Y0005544D01*
X0331980Y0005572D01*
X0332356Y0005610D01*
X0332730Y0005657D01*
X0333103Y0005712D01*
X0333475Y0005777D01*
X0333845Y0005851D01*
X0334213Y0005933D01*
X0334579Y0006025D01*
X0334943Y0006125D01*
X0335304Y0006234D01*
X0335662Y0006352D01*
X0336018Y0006478D01*
X0336370Y0006613D01*
X0336719Y0006756D01*
X0337064Y0006908D01*
X0337406Y0007068D01*
X0337743Y0007237D01*
X0338077Y0007413D01*
X0338406Y0007597D01*
X0338731Y0007790D01*
X0339050Y0007990D01*
X0339365Y0008198D01*
X0339675Y0008413D01*
X0339980Y0008636D01*
X0340279Y0008866D01*
X0340572Y0009103D01*
X0340859Y0009347D01*
X0341141Y0009598D01*
X0341416Y0009856D01*
X0341686Y0010120D01*
X0341948Y0010391D01*
X0342204Y0010668D01*
X0342453Y0010951D01*
X0342696Y0011241D01*
X0342931Y0011535D01*
X0343159Y0011836D01*
X0343380Y0012142D01*
X0343593Y0012453D01*
X0343799Y0012769D01*
X0343997Y0013090D01*
X0344187Y0013416D01*
X0344369Y0013746D01*
X0344544Y0014081D01*
X0344710Y0014420D01*
X0344867Y0014762D01*
X0345017Y0015109D01*
X0345158Y0015459D01*
X0345291Y0015812D01*
X0345415Y0016168D01*
X0345530Y0016527D01*
X0345637Y0016889D01*
X0345735Y0017253D01*
X0345824Y0017620D01*
X0345904Y0017989D01*
X0345975Y0018359D01*
X0346038Y0018731D01*
X0346091Y0019105D01*
X0346135Y0019479D01*
X0346170Y0019855D01*
X0346197Y0020231D01*
X0346214Y0020608D01*
X0346221Y0020985D01*
X0346221Y0194213D01*
X0346216Y0194594D01*
X0346203Y0194974D01*
X0346180Y0195354D01*
X0346147Y0195733D01*
X0346106Y0196111D01*
X0346056Y0196488D01*
X0345996Y0196864D01*
X0345928Y0197239D01*
X0345850Y0197611D01*
X0345763Y0197982D01*
X0345668Y0198350D01*
X0345563Y0198716D01*
X0345450Y0199079D01*
X0345328Y0199440D01*
X0345198Y0199797D01*
X0345058Y0200151D01*
X0344911Y0200502D01*
X0344754Y0200849D01*
X0344590Y0201192D01*
X0344417Y0201531D01*
X0344236Y0201866D01*
X0344047Y0202197D01*
X0343850Y0202522D01*
X0343646Y0202843D01*
X0343433Y0203159D01*
X0343213Y0203469D01*
X0342986Y0203775D01*
X0342751Y0204074D01*
X0342509Y0204368D01*
X0342261Y0204656D01*
X0342005Y0204938D01*
X0341742Y0205213D01*
X0341473Y0205482D01*
X0341198Y0205745D01*
X0340916Y0206001D01*
X0340628Y0206249D01*
X0340334Y0206491D01*
X0340035Y0206726D01*
X0339729Y0206953D01*
X0339419Y0207173D01*
X0339103Y0207386D01*
X0338782Y0207590D01*
X0338457Y0207787D01*
X0338126Y0207976D01*
X0337791Y0208157D01*
X0337452Y0208330D01*
X0337109Y0208494D01*
X0336762Y0208651D01*
X0336411Y0208798D01*
X0336057Y0208938D01*
X0335700Y0209068D01*
X0335339Y0209190D01*
X0334976Y0209303D01*
X0334610Y0209408D01*
X0334242Y0209503D01*
X0333871Y0209590D01*
X0333499Y0209668D01*
X0333124Y0209736D01*
X0332748Y0209796D01*
X0332371Y0209846D01*
X0331993Y0209887D01*
X0331614Y0209920D01*
X0331234Y0209943D01*
X0330854Y0209956D01*
X0330473Y0209961D01*
X0017048Y0209961D01*
X0016667Y0209956D01*
X0016287Y0209943D01*
X0015907Y0209920D01*
X0015528Y0209887D01*
X0015150Y0209846D01*
X0014773Y0209796D01*
X0014397Y0209736D01*
X0014022Y0209668D01*
X0013650Y0209590D01*
X0013279Y0209503D01*
X0012911Y0209408D01*
X0012545Y0209303D01*
X0012182Y0209190D01*
X0011821Y0209068D01*
X0011464Y0208938D01*
X0011110Y0208798D01*
X0010759Y0208651D01*
X0010412Y0208494D01*
X0010069Y0208330D01*
X0009730Y0208157D01*
X0009395Y0207976D01*
X0009064Y0207787D01*
X0008739Y0207590D01*
X0008418Y0207386D01*
X0008102Y0207173D01*
X0007792Y0206953D01*
X0007486Y0206726D01*
X0007187Y0206491D01*
X0006893Y0206249D01*
X0006605Y0206001D01*
X0006323Y0205745D01*
X0006048Y0205482D01*
X0005779Y0205213D01*
X0005516Y0204938D01*
X0005260Y0204656D01*
X0005012Y0204368D01*
X0004770Y0204074D01*
X0004535Y0203775D01*
X0004308Y0203469D01*
X0004088Y0203159D01*
X0003875Y0202843D01*
X0003671Y0202522D01*
X0003474Y0202197D01*
X0003285Y0201866D01*
X0003104Y0201531D01*
X0002931Y0201192D01*
X0002767Y0200849D01*
X0002610Y0200502D01*
X0002463Y0200151D01*
X0002323Y0199797D01*
X0002193Y0199440D01*
X0002071Y0199079D01*
X0001958Y0198716D01*
X0001853Y0198350D01*
X0001758Y0197982D01*
X0001671Y0197611D01*
X0001593Y0197239D01*
X0001525Y0196864D01*
X0001465Y0196488D01*
X0001415Y0196111D01*
X0001374Y0195733D01*
X0001341Y0195354D01*
X0001318Y0194974D01*
X0001305Y0194594D01*
X0001300Y0194213D01*
X0001300Y0020985D01*
X0001307Y0020608D01*
X0001324Y0020231D01*
X0001351Y0019855D01*
X0001386Y0019479D01*
X0001430Y0019105D01*
X0001483Y0018731D01*
X0001546Y0018359D01*
X0001617Y0017989D01*
X0001697Y0017620D01*
X0001786Y0017253D01*
X0001884Y0016889D01*
X0001991Y0016527D01*
X0002106Y0016168D01*
X0002230Y0015812D01*
X0002363Y0015459D01*
X0002504Y0015109D01*
X0002654Y0014762D01*
X0002811Y0014420D01*
X0002977Y0014081D01*
X0003152Y0013746D01*
X0003334Y0013416D01*
X0003524Y0013090D01*
X0003722Y0012769D01*
X0003928Y0012453D01*
X0004141Y0012142D01*
X0004362Y0011836D01*
X0004590Y0011535D01*
X0004825Y0011241D01*
X0005068Y0010951D01*
X0005317Y0010668D01*
X0005573Y0010391D01*
X0005835Y0010120D01*
X0006105Y0009856D01*
X0006380Y0009598D01*
X0006662Y0009347D01*
X0006949Y0009103D01*
X0007242Y0008866D01*
X0007541Y0008636D01*
X0007846Y0008413D01*
X0008156Y0008198D01*
X0008471Y0007990D01*
X0008790Y0007790D01*
X0009115Y0007597D01*
X0009444Y0007413D01*
X0009778Y0007237D01*
X0010115Y0007068D01*
X0010457Y0006908D01*
X0010802Y0006756D01*
X0011151Y0006613D01*
X0011503Y0006478D01*
X0011859Y0006352D01*
X0012217Y0006234D01*
X0012578Y0006125D01*
X0012942Y0006025D01*
X0013308Y0005933D01*
X0013676Y0005851D01*
X0014046Y0005777D01*
X0014418Y0005712D01*
X0014791Y0005657D01*
X0015165Y0005610D01*
X0015541Y0005572D01*
X0015917Y0005544D01*
X0016293Y0005524D01*
X0016671Y0005514D01*
X0017048Y0005513D01*
D11*
X0135200Y0018271D02*
X0135684Y0017788D01*
X0136651Y0017788D01*
X0137135Y0018271D01*
X0137135Y0018755D01*
X0136651Y0019239D01*
X0135684Y0019239D01*
X0135200Y0019723D01*
X0135200Y0020206D01*
X0135684Y0020690D01*
X0136651Y0020690D01*
X0137135Y0020206D01*
X0138147Y0020690D02*
X0138147Y0018755D01*
X0139114Y0017788D01*
X0140081Y0018755D01*
X0140081Y0020690D01*
X0141093Y0019239D02*
X0142544Y0020690D01*
X0142544Y0017788D01*
X0143028Y0019239D02*
X0141093Y0019239D01*
X0146998Y0066411D02*
X0146998Y0067862D01*
X0147481Y0068346D01*
X0148449Y0068346D01*
X0148933Y0067862D01*
X0148933Y0066411D01*
X0149900Y0066411D02*
X0146998Y0066411D01*
X0148933Y0067378D02*
X0149900Y0068346D01*
X0149900Y0069357D02*
X0149900Y0071292D01*
X0149900Y0070325D02*
X0146998Y0070325D01*
X0147965Y0069357D01*
X0148181Y0086143D02*
X0150116Y0086143D01*
X0150600Y0086626D01*
X0150600Y0087594D01*
X0150116Y0088078D01*
X0150600Y0089089D02*
X0150600Y0091024D01*
X0150600Y0090057D02*
X0147698Y0090057D01*
X0148665Y0089089D01*
X0148181Y0088078D02*
X0147698Y0087594D01*
X0147698Y0086626D01*
X0148181Y0086143D01*
X0125419Y0105019D02*
X0124935Y0104536D01*
X0123000Y0104536D01*
X0122516Y0105019D01*
X0122516Y0105987D01*
X0123000Y0106471D01*
X0124935Y0106471D01*
X0125419Y0105987D01*
X0125419Y0105019D01*
X0124451Y0105503D02*
X0125419Y0106471D01*
X0125419Y0107482D02*
X0125419Y0109417D01*
X0125419Y0108450D02*
X0122516Y0108450D01*
X0123484Y0107482D01*
X0176725Y0121744D02*
X0176725Y0124163D01*
X0178660Y0124163D02*
X0178660Y0121744D01*
X0178176Y0121261D01*
X0177209Y0121261D01*
X0176725Y0121744D01*
X0179672Y0121261D02*
X0181606Y0121261D01*
X0180639Y0121261D02*
X0180639Y0124163D01*
X0179672Y0123196D01*
X0153186Y0130670D02*
X0150050Y0133806D01*
X0153186Y0130670D01*
X0153186Y0132238D02*
X0150050Y0132238D01*
X0153186Y0132238D01*
X0153186Y0133806D02*
X0150050Y0130670D01*
X0153186Y0133806D01*
X0151618Y0133806D02*
X0151618Y0130670D01*
X0151618Y0133806D01*
X0149275Y0133732D02*
X0147340Y0135667D01*
X0146856Y0135667D01*
X0146373Y0135183D01*
X0146373Y0134216D01*
X0146856Y0133732D01*
X0146856Y0132721D02*
X0146373Y0132237D01*
X0146373Y0131269D01*
X0146856Y0130786D01*
X0148791Y0130786D01*
X0149275Y0131269D01*
X0149275Y0132237D01*
X0148791Y0132721D01*
X0149275Y0133732D02*
X0149275Y0135667D01*
X0148791Y0136411D02*
X0149275Y0136894D01*
X0149275Y0137862D01*
X0148791Y0138346D01*
X0147824Y0139357D02*
X0147824Y0141292D01*
X0149275Y0140808D02*
X0146373Y0140808D01*
X0147824Y0139357D01*
X0146856Y0138346D02*
X0146373Y0137862D01*
X0146373Y0136894D01*
X0146856Y0136411D01*
X0148791Y0136411D01*
X0224575Y0158286D02*
X0224575Y0161188D01*
X0226026Y0161188D01*
X0226510Y0160704D01*
X0226510Y0159737D01*
X0226026Y0159253D01*
X0224575Y0159253D01*
X0225542Y0159253D02*
X0226510Y0158286D01*
X0227522Y0158769D02*
X0227522Y0159253D01*
X0228005Y0159737D01*
X0228973Y0159737D01*
X0229456Y0159253D01*
X0229456Y0158769D01*
X0228973Y0158286D01*
X0228005Y0158286D01*
X0227522Y0158769D01*
X0228005Y0159737D02*
X0227522Y0160221D01*
X0227522Y0160704D01*
X0228005Y0161188D01*
X0228973Y0161188D01*
X0229456Y0160704D01*
X0229456Y0160221D01*
X0228973Y0159737D01*
X0228630Y0166411D02*
X0229598Y0166411D01*
X0230081Y0166894D01*
X0230081Y0168829D01*
X0229598Y0169313D01*
X0228630Y0169313D01*
X0228147Y0168829D01*
X0228147Y0168346D01*
X0228630Y0167862D01*
X0230081Y0167862D01*
X0228630Y0166411D02*
X0228147Y0166894D01*
X0227135Y0166411D02*
X0226167Y0167378D01*
X0226651Y0167378D02*
X0225200Y0167378D01*
X0225200Y0166411D02*
X0225200Y0169313D01*
X0226651Y0169313D01*
X0227135Y0168829D01*
X0227135Y0167862D01*
X0226651Y0167378D01*
X0245735Y0166738D02*
X0245735Y0163836D01*
X0245735Y0164803D02*
X0247187Y0164803D01*
X0247670Y0165287D01*
X0247670Y0166254D01*
X0247187Y0166738D01*
X0245735Y0166738D01*
X0246703Y0164803D02*
X0247670Y0163836D01*
X0248682Y0163836D02*
X0250617Y0163836D01*
X0249649Y0163836D02*
X0249649Y0166738D01*
X0248682Y0165771D01*
X0251628Y0166254D02*
X0251628Y0164319D01*
X0253563Y0166254D01*
X0253563Y0164319D01*
X0253080Y0163836D01*
X0252112Y0163836D01*
X0251628Y0164319D01*
X0251628Y0166254D02*
X0252112Y0166738D01*
X0253080Y0166738D01*
X0253563Y0166254D01*
X0262950Y0178411D02*
X0264401Y0178411D01*
X0264885Y0178894D01*
X0264885Y0180829D01*
X0264401Y0181313D01*
X0262950Y0181313D01*
X0262950Y0178411D01*
X0265897Y0178411D02*
X0267831Y0180346D01*
X0267831Y0180829D01*
X0267348Y0181313D01*
X0266380Y0181313D01*
X0265897Y0180829D01*
X0265897Y0178411D02*
X0267831Y0178411D01*
X0234563Y0184961D02*
X0232628Y0184961D01*
X0233596Y0184961D02*
X0233596Y0187863D01*
X0232628Y0186896D01*
X0231617Y0187379D02*
X0231617Y0185444D01*
X0231133Y0184961D01*
X0229682Y0184961D01*
X0229682Y0187863D01*
X0231133Y0187863D01*
X0231617Y0187379D01*
X0264498Y0193286D02*
X0264498Y0194737D01*
X0264981Y0195221D01*
X0265949Y0195221D01*
X0266433Y0194737D01*
X0266433Y0193286D01*
X0267400Y0193286D02*
X0264498Y0193286D01*
X0266433Y0194253D02*
X0267400Y0195221D01*
X0265949Y0196232D02*
X0264498Y0197683D01*
X0267400Y0197683D01*
X0265949Y0198167D02*
X0265949Y0196232D01*
X0276373Y0196433D02*
X0276373Y0195466D01*
X0276856Y0194982D01*
X0276856Y0193971D02*
X0277824Y0193971D01*
X0278308Y0193487D01*
X0278308Y0192036D01*
X0279275Y0192036D02*
X0276373Y0192036D01*
X0276373Y0193487D01*
X0276856Y0193971D01*
X0278308Y0193003D02*
X0279275Y0193971D01*
X0278791Y0194982D02*
X0279275Y0195466D01*
X0279275Y0196433D01*
X0278791Y0196917D01*
X0278308Y0196917D01*
X0277824Y0196433D01*
X0277824Y0195950D01*
X0277824Y0196433D02*
X0277340Y0196917D01*
X0276856Y0196917D01*
X0276373Y0196433D01*
X0288248Y0196433D02*
X0288248Y0195466D01*
X0288731Y0194982D01*
X0288731Y0193971D02*
X0289699Y0193971D01*
X0290183Y0193487D01*
X0290183Y0192036D01*
X0291150Y0192036D02*
X0288248Y0192036D01*
X0288248Y0193487D01*
X0288731Y0193971D01*
X0290183Y0193003D02*
X0291150Y0193971D01*
X0291150Y0194982D02*
X0289215Y0196917D01*
X0288731Y0196917D01*
X0288248Y0196433D01*
X0291150Y0196917D02*
X0291150Y0194982D01*
X0290795Y0206336D02*
X0288860Y0206336D01*
X0288860Y0209238D01*
X0290795Y0209238D01*
X0291807Y0209238D02*
X0293258Y0209238D01*
X0293742Y0208754D01*
X0293742Y0206819D01*
X0293258Y0206336D01*
X0291807Y0206336D01*
X0291807Y0209238D01*
X0289828Y0207787D02*
X0288860Y0207787D01*
X0287849Y0206336D02*
X0285914Y0206336D01*
X0285914Y0209238D01*
X0284813Y0208754D02*
X0284330Y0209238D01*
X0283362Y0209238D01*
X0282878Y0208754D01*
X0281867Y0208754D02*
X0281383Y0209238D01*
X0279932Y0209238D01*
X0279932Y0206336D01*
X0281383Y0206336D01*
X0281867Y0206819D01*
X0281867Y0208754D01*
X0282878Y0206336D02*
X0284813Y0208271D01*
X0284813Y0208754D01*
X0278920Y0209238D02*
X0276985Y0209238D01*
X0276985Y0206336D01*
X0278920Y0206336D01*
X0277953Y0207787D02*
X0276985Y0207787D01*
X0275974Y0206336D02*
X0274039Y0206336D01*
X0274039Y0209238D01*
X0272938Y0208754D02*
X0272938Y0208271D01*
X0272455Y0207787D01*
X0272938Y0207303D01*
X0272938Y0206819D01*
X0272455Y0206336D01*
X0271487Y0206336D01*
X0271003Y0206819D01*
X0269992Y0206819D02*
X0269992Y0208754D01*
X0269508Y0209238D01*
X0268057Y0209238D01*
X0268057Y0206336D01*
X0269508Y0206336D01*
X0269992Y0206819D01*
X0271003Y0208754D02*
X0271487Y0209238D01*
X0272455Y0209238D01*
X0272938Y0208754D01*
X0272455Y0207787D02*
X0271971Y0207787D01*
X0267045Y0209238D02*
X0265110Y0209238D01*
X0265110Y0206336D01*
X0267045Y0206336D01*
X0266078Y0207787D02*
X0265110Y0207787D01*
X0264099Y0206336D02*
X0262164Y0206336D01*
X0262164Y0209238D01*
X0282878Y0206336D02*
X0284813Y0206336D01*
X0294753Y0206336D02*
X0296688Y0206336D01*
X0295721Y0206336D02*
X0295721Y0209238D01*
X0294753Y0208271D01*
X0142313Y0197254D02*
X0141830Y0197738D01*
X0140862Y0197738D01*
X0140378Y0197254D01*
X0139367Y0197738D02*
X0139367Y0195803D01*
X0138399Y0194836D01*
X0137432Y0195803D01*
X0137432Y0197738D01*
X0136420Y0197254D02*
X0135937Y0197738D01*
X0134969Y0197738D01*
X0134485Y0197254D01*
X0134485Y0196771D01*
X0134969Y0196287D01*
X0135937Y0196287D01*
X0136420Y0195803D01*
X0136420Y0195319D01*
X0135937Y0194836D01*
X0134969Y0194836D01*
X0134485Y0195319D01*
X0140378Y0194836D02*
X0142313Y0196771D01*
X0142313Y0197254D01*
X0142313Y0194836D02*
X0140378Y0194836D01*
X0203181Y0102274D02*
X0203665Y0102274D01*
X0204149Y0101790D01*
X0204633Y0102274D01*
X0205116Y0102274D01*
X0205600Y0101790D01*
X0205600Y0100823D01*
X0205116Y0100339D01*
X0205116Y0099328D02*
X0205600Y0098844D01*
X0205600Y0097876D01*
X0205116Y0097393D01*
X0203181Y0097393D01*
X0202698Y0097876D01*
X0202698Y0098844D01*
X0203181Y0099328D01*
X0203181Y0100339D02*
X0202698Y0100823D01*
X0202698Y0101790D01*
X0203181Y0102274D01*
X0204149Y0101790D02*
X0204149Y0101307D01*
D12*
X0230081Y0177023D02*
X0230081Y0181748D01*
X0234019Y0179386D01*
X0230081Y0177023D01*
X0251081Y0179386D02*
X0255019Y0177023D01*
X0255019Y0181748D01*
X0251081Y0179386D01*
D13*
X0250350Y0179386D03*
X0234750Y0179386D03*
D14*
X0268209Y0202284D03*
X0268209Y0205237D03*
X0280084Y0205237D03*
X0280084Y0202284D03*
X0291959Y0202284D03*
X0291959Y0205237D03*
D15*
X0291959Y0203761D03*
X0280084Y0203761D03*
X0268209Y0203761D03*
D16*
X0143675Y0117886D02*
X0143675Y0090886D01*
X0140675Y0090886D02*
X0140675Y0117886D01*
X0140673Y0118019D01*
X0140668Y0118151D01*
X0140659Y0118283D01*
X0140647Y0118416D01*
X0140631Y0118547D01*
X0140612Y0118679D01*
X0140589Y0118809D01*
X0140563Y0118939D01*
X0140533Y0119069D01*
X0140500Y0119197D01*
X0140464Y0119325D01*
X0140424Y0119451D01*
X0140381Y0119577D01*
X0140334Y0119701D01*
X0140284Y0119824D01*
X0140231Y0119945D01*
X0140175Y0120065D01*
X0131175Y0124500D02*
X0131015Y0124389D01*
X0130859Y0124274D01*
X0130705Y0124155D01*
X0130553Y0124032D01*
X0130405Y0123905D01*
X0130261Y0123775D01*
X0130119Y0123642D01*
X0129980Y0123505D01*
X0129845Y0123365D01*
X0129714Y0123221D01*
X0129586Y0123075D01*
X0129461Y0122925D01*
X0129341Y0122772D01*
X0129224Y0122617D01*
X0129110Y0122458D01*
X0129001Y0122297D01*
X0128896Y0122133D01*
X0128794Y0121967D01*
X0128697Y0121799D01*
X0128604Y0121628D01*
X0128515Y0121454D01*
X0128430Y0121279D01*
X0128350Y0121102D01*
X0128274Y0120923D01*
X0128202Y0120742D01*
X0128135Y0120559D01*
X0128072Y0120375D01*
X0128014Y0120189D01*
X0127960Y0120002D01*
X0127911Y0119813D01*
X0127866Y0119624D01*
X0127826Y0119433D01*
X0127791Y0119242D01*
X0127760Y0119050D01*
X0127734Y0118857D01*
X0127713Y0118663D01*
X0127696Y0118469D01*
X0127684Y0118275D01*
X0127677Y0118080D01*
X0127675Y0117886D01*
X0127675Y0090886D01*
X0130675Y0090886D02*
X0130675Y0117886D01*
X0130677Y0118019D01*
X0130682Y0118151D01*
X0130691Y0118283D01*
X0130703Y0118416D01*
X0130719Y0118547D01*
X0130738Y0118679D01*
X0130761Y0118809D01*
X0130787Y0118939D01*
X0130817Y0119069D01*
X0130850Y0119197D01*
X0130886Y0119325D01*
X0130926Y0119451D01*
X0130969Y0119577D01*
X0131016Y0119701D01*
X0131066Y0119824D01*
X0131119Y0119945D01*
X0131175Y0120065D01*
X0140175Y0124500D02*
X0140334Y0124388D01*
X0140491Y0124273D01*
X0140645Y0124154D01*
X0140796Y0124031D01*
X0140944Y0123905D01*
X0141089Y0123775D01*
X0141231Y0123641D01*
X0141369Y0123504D01*
X0141504Y0123364D01*
X0141636Y0123221D01*
X0141764Y0123074D01*
X0141888Y0122924D01*
X0142009Y0122772D01*
X0142126Y0122616D01*
X0142239Y0122458D01*
X0142349Y0122297D01*
X0142454Y0122133D01*
X0142555Y0121967D01*
X0142653Y0121798D01*
X0142746Y0121627D01*
X0142835Y0121454D01*
X0142920Y0121279D01*
X0143000Y0121101D01*
X0143076Y0120922D01*
X0143148Y0120741D01*
X0143215Y0120559D01*
X0143278Y0120374D01*
X0143336Y0120189D01*
X0143390Y0120001D01*
X0143439Y0119813D01*
X0143484Y0119624D01*
X0143524Y0119433D01*
X0143559Y0119242D01*
X0143590Y0119049D01*
X0143616Y0118856D01*
X0143637Y0118663D01*
X0143654Y0118469D01*
X0143666Y0118275D01*
X0143673Y0118080D01*
X0143675Y0117885D01*
X0135675Y0108886D02*
X0135675Y0106886D01*
X0135675Y0101886D02*
X0135675Y0099886D01*
X0127675Y0090886D02*
X0127677Y0090691D01*
X0127684Y0090497D01*
X0127696Y0090302D01*
X0127713Y0090108D01*
X0127734Y0089915D01*
X0127760Y0089722D01*
X0127791Y0089530D01*
X0127826Y0089338D01*
X0127866Y0089148D01*
X0127911Y0088958D01*
X0127960Y0088770D01*
X0128014Y0088583D01*
X0128072Y0088397D01*
X0128135Y0088213D01*
X0128202Y0088030D01*
X0128274Y0087849D01*
X0128350Y0087670D01*
X0128430Y0087493D01*
X0128515Y0087317D01*
X0128604Y0087144D01*
X0128697Y0086973D01*
X0128794Y0086805D01*
X0128896Y0086638D01*
X0129001Y0086475D01*
X0129111Y0086314D01*
X0129224Y0086155D01*
X0129341Y0086000D01*
X0129462Y0085847D01*
X0129586Y0085697D01*
X0129714Y0085551D01*
X0129846Y0085407D01*
X0129981Y0085267D01*
X0130119Y0085130D01*
X0130261Y0084997D01*
X0130406Y0084867D01*
X0130554Y0084740D01*
X0130705Y0084617D01*
X0130859Y0084498D01*
X0131016Y0084383D01*
X0131175Y0084271D01*
X0140175Y0084271D02*
X0140335Y0084382D01*
X0140491Y0084497D01*
X0140645Y0084616D01*
X0140797Y0084739D01*
X0140945Y0084866D01*
X0141089Y0084996D01*
X0141231Y0085129D01*
X0141370Y0085266D01*
X0141505Y0085406D01*
X0141636Y0085550D01*
X0141764Y0085696D01*
X0141889Y0085846D01*
X0142009Y0085999D01*
X0142126Y0086154D01*
X0142240Y0086313D01*
X0142349Y0086474D01*
X0142454Y0086638D01*
X0142556Y0086804D01*
X0142653Y0086972D01*
X0142746Y0087143D01*
X0142835Y0087317D01*
X0142920Y0087492D01*
X0143000Y0087669D01*
X0143076Y0087848D01*
X0143148Y0088029D01*
X0143215Y0088212D01*
X0143278Y0088396D01*
X0143336Y0088582D01*
X0143390Y0088769D01*
X0143439Y0088958D01*
X0143484Y0089147D01*
X0143524Y0089338D01*
X0143559Y0089529D01*
X0143590Y0089721D01*
X0143616Y0089914D01*
X0143637Y0090108D01*
X0143654Y0090302D01*
X0143666Y0090496D01*
X0143673Y0090691D01*
X0143675Y0090885D01*
X0140675Y0090886D02*
X0140673Y0090753D01*
X0140668Y0090621D01*
X0140659Y0090489D01*
X0140647Y0090356D01*
X0140631Y0090225D01*
X0140612Y0090093D01*
X0140589Y0089963D01*
X0140563Y0089833D01*
X0140533Y0089703D01*
X0140500Y0089575D01*
X0140464Y0089447D01*
X0140424Y0089321D01*
X0140381Y0089195D01*
X0140334Y0089071D01*
X0140284Y0088948D01*
X0140231Y0088827D01*
X0140175Y0088707D01*
X0131175Y0088707D02*
X0131119Y0088827D01*
X0131066Y0088948D01*
X0131016Y0089071D01*
X0130969Y0089195D01*
X0130926Y0089321D01*
X0130886Y0089447D01*
X0130850Y0089575D01*
X0130817Y0089703D01*
X0130787Y0089833D01*
X0130761Y0089963D01*
X0130738Y0090093D01*
X0130719Y0090225D01*
X0130703Y0090356D01*
X0130691Y0090489D01*
X0130682Y0090621D01*
X0130677Y0090753D01*
X0130675Y0090886D01*
D17*
X0133175Y0101886D02*
X0135675Y0101886D01*
X0138175Y0101886D01*
X0138175Y0103386D02*
X0138175Y0105386D01*
X0133175Y0105386D01*
X0133175Y0103386D01*
X0138175Y0103386D01*
X0138175Y0106886D02*
X0135675Y0106886D01*
X0133175Y0106886D01*
X0165900Y0097736D02*
X0165900Y0093736D01*
X0194200Y0116636D02*
X0198200Y0116636D01*
X0163300Y0130236D02*
X0161700Y0128636D01*
X0169100Y0138536D02*
X0169100Y0142636D01*
X0171300Y0191261D02*
X0166300Y0191261D01*
X0163800Y0193761D01*
X0161300Y0191261D01*
X0156300Y0191261D01*
X0153800Y0193761D01*
X0151300Y0191261D01*
X0146300Y0191261D01*
X0143800Y0193761D01*
X0143800Y0198761D01*
X0146300Y0201261D01*
X0151300Y0201261D01*
X0153800Y0198761D01*
X0156300Y0201261D01*
X0161300Y0201261D01*
X0163800Y0198761D01*
X0166300Y0201261D01*
X0171300Y0201261D01*
X0173800Y0198761D01*
X0176300Y0201261D01*
X0181300Y0201261D01*
X0183800Y0198761D01*
X0186300Y0201261D01*
X0191300Y0201261D01*
X0193800Y0198761D01*
X0196300Y0201261D01*
X0201300Y0201261D01*
X0203800Y0198761D01*
X0203800Y0193761D01*
X0201300Y0191261D01*
X0196300Y0191261D01*
X0193800Y0193761D01*
X0191300Y0191261D01*
X0186300Y0191261D01*
X0183800Y0193761D01*
X0181300Y0191261D01*
X0176300Y0191261D01*
X0173800Y0193761D01*
X0171300Y0191261D01*
X0215222Y0194727D02*
X0216957Y0197329D01*
X0218168Y0196462D02*
X0219036Y0197329D01*
X0219036Y0194727D01*
X0219903Y0194727D02*
X0218168Y0194727D01*
X0216957Y0194727D02*
X0215222Y0197329D01*
X0201300Y0024263D02*
X0203800Y0021763D01*
X0203800Y0016763D01*
X0201300Y0014263D01*
X0196300Y0014263D01*
X0193800Y0016763D01*
X0191300Y0014263D01*
X0186300Y0014263D01*
X0183800Y0016763D01*
X0181300Y0014263D01*
X0176300Y0014263D01*
X0173800Y0016763D01*
X0171300Y0014263D01*
X0166300Y0014263D01*
X0163800Y0016763D01*
X0161300Y0014263D01*
X0156300Y0014263D01*
X0153800Y0016763D01*
X0151300Y0014263D01*
X0146300Y0014263D01*
X0143800Y0016763D01*
X0143800Y0021763D01*
X0146300Y0024263D01*
X0151300Y0024263D01*
X0153800Y0021763D01*
X0156300Y0024263D01*
X0161300Y0024263D01*
X0163800Y0021763D01*
X0166300Y0024263D01*
X0171300Y0024263D01*
X0173800Y0021763D01*
X0176300Y0024263D01*
X0181300Y0024263D01*
X0183800Y0021763D01*
X0186300Y0024263D01*
X0191300Y0024263D01*
X0193800Y0021763D01*
X0196300Y0024263D01*
X0201300Y0024263D01*
D18*
X0199553Y0026763D02*
X0198802Y0026013D01*
X0197301Y0026013D01*
X0196550Y0026763D01*
X0196550Y0028265D01*
X0198802Y0028265D01*
X0199553Y0027514D01*
X0199553Y0026763D01*
X0198051Y0029766D02*
X0196550Y0028265D01*
X0198051Y0029766D02*
X0199553Y0030516D01*
X0148051Y0012516D02*
X0146550Y0011015D01*
X0148051Y0012516D02*
X0148051Y0008013D01*
X0146550Y0008013D02*
X0149553Y0008013D01*
X0149198Y0185011D02*
X0149949Y0185761D01*
X0149949Y0186512D01*
X0149198Y0187263D01*
X0146946Y0187263D01*
X0146946Y0185761D01*
X0147697Y0185011D01*
X0149198Y0185011D01*
X0146946Y0187263D02*
X0148447Y0188764D01*
X0149949Y0189514D01*
X0196946Y0203011D02*
X0199949Y0203011D01*
X0198447Y0203011D02*
X0198447Y0207514D01*
X0196946Y0206013D01*
X0227127Y0206517D02*
X0227127Y0209469D01*
X0255473Y0209469D01*
X0255473Y0206517D01*
M02*
