M48
;GenerationSoftware,Autodesk,EAGLE,9.6.2*%
;CreationDate,2020-09-03T09:26:16Z*%
FMAT,2
ICI,OFF
METRIC,TZ,000.000
T1C1.016
%
G90
M71
T1
X29210Y45720
X26670Y45720
X24130Y45720
X21590Y45720
X19050Y45720
X68580Y45720
X66040Y45720
X63500Y45720
X60960Y45720
X58420Y45720
X29210Y3810
X26670Y3810
X24130Y3810
X21590Y3810
X19050Y3810
X68580Y3810
X66040Y3810
X63500Y3810
X60960Y3810
X58420Y3810
M30