G75*
%MOIN*%
%OFA0B0*%
%FSLAX25Y25*%
%IPPOS*%
%LPD*%
%AMOC8*
5,1,8,0,0,1.08239X$1,22.5*
%
%ADD10C,0.05000*%
%ADD11C,0.03000*%
%ADD12C,0.04000*%
%ADD13C,0.10800*%
%ADD14C,0.10924*%
%ADD15C,0.16550*%
%ADD16C,0.07400*%
%ADD17C,0.06800*%
%ADD18R,0.05400X0.07100*%
%ADD19R,0.00600X0.07200*%
%ADD20C,0.03975*%
D10*
X0020058Y0067037D02*
X0012184Y0074911D01*
X0020058Y0082785D01*
X0123483Y0019478D02*
X0131357Y0011604D01*
X0139231Y0019478D01*
X0184664Y0132903D02*
X0192538Y0140777D01*
X0184664Y0148651D01*
X0083739Y0194084D02*
X0075865Y0201958D01*
X0067991Y0194084D01*
D11*
X0212660Y0196215D02*
X0216664Y0196215D01*
X0220667Y0202220D02*
X0212660Y0202220D01*
X0212660Y0190210D01*
X0226472Y0190210D02*
X0226472Y0198217D01*
X0230476Y0202220D01*
X0234479Y0198217D01*
X0234479Y0190210D01*
X0240284Y0194213D02*
X0244287Y0190210D01*
X0248291Y0194213D01*
X0248291Y0202220D01*
X0240284Y0202220D02*
X0240284Y0194213D01*
X0234479Y0196215D02*
X0226472Y0196215D01*
X0303901Y0196215D02*
X0307904Y0196215D01*
X0303901Y0190210D02*
X0303901Y0202220D01*
X0311907Y0202220D01*
X0317712Y0202220D02*
X0317712Y0196215D01*
X0321716Y0198217D01*
X0323718Y0198217D01*
X0325719Y0196215D01*
X0325719Y0192212D01*
X0323718Y0190210D01*
X0319714Y0190210D01*
X0317712Y0192212D01*
X0317712Y0202220D02*
X0325719Y0202220D01*
D12*
X0230683Y0023011D02*
X0230683Y0012336D01*
X0225345Y0017673D02*
X0236021Y0017673D01*
X0303712Y0017673D02*
X0314387Y0017673D01*
D13*
X0085783Y0050350D03*
X0096390Y0075099D03*
X0137781Y0102348D03*
X0148387Y0127096D03*
X0085783Y0154345D03*
X0096390Y0179094D03*
X0044392Y0127096D03*
X0033786Y0102348D03*
X0219999Y0071919D03*
X0244999Y0081919D03*
X0294999Y0071919D03*
X0319999Y0081919D03*
X0294999Y0161919D03*
X0319999Y0171919D03*
X0244999Y0171919D03*
X0219999Y0161919D03*
D14*
X0214999Y0151919D03*
X0254999Y0151919D03*
X0289999Y0151919D03*
X0329999Y0151919D03*
X0329999Y0061919D03*
X0289999Y0061919D03*
X0254999Y0061919D03*
X0214999Y0061919D03*
X0141316Y0091741D03*
X0117603Y0068028D03*
X0089319Y0039743D03*
X0037321Y0091741D03*
X0065606Y0120025D03*
X0089319Y0143738D03*
X0117603Y0172023D03*
X0169601Y0120025D03*
D15*
X0155458Y0105883D03*
X0234999Y0061919D03*
X0309999Y0061919D03*
X0309999Y0151919D03*
X0234999Y0151919D03*
X0103461Y0157881D03*
X0051463Y0105883D03*
X0103461Y0053886D03*
D16*
X0117603Y0046815D03*
X0110532Y0039743D03*
X0058535Y0091741D03*
X0065606Y0098812D03*
X0110532Y0143738D03*
X0117603Y0150809D03*
X0169601Y0098812D03*
X0162529Y0091741D03*
X0229999Y0046919D03*
X0239999Y0046919D03*
X0304999Y0046919D03*
X0314999Y0046919D03*
X0314999Y0136919D03*
X0304999Y0136919D03*
X0239999Y0136919D03*
X0229999Y0136919D03*
D17*
X0199999Y0192669D02*
X0199999Y0198669D01*
X0189999Y0198669D02*
X0189999Y0192669D01*
X0179999Y0192669D02*
X0179999Y0198669D01*
X0169999Y0198669D02*
X0169999Y0192669D01*
X0159999Y0192669D02*
X0159999Y0198669D01*
X0149999Y0198669D02*
X0149999Y0192669D01*
X0149999Y0021169D02*
X0149999Y0015169D01*
X0159999Y0015169D02*
X0159999Y0021169D01*
X0169999Y0021169D02*
X0169999Y0015169D01*
X0179999Y0015169D02*
X0179999Y0021169D01*
X0189999Y0021169D02*
X0189999Y0015169D01*
X0199999Y0015169D02*
X0199999Y0021169D01*
D18*
G36*
X0138975Y0059343D02*
X0135157Y0063161D01*
X0140177Y0068181D01*
X0143995Y0064363D01*
X0138975Y0059343D01*
G37*
G36*
X0134732Y0063585D02*
X0130914Y0067403D01*
X0135934Y0072423D01*
X0139752Y0068605D01*
X0134732Y0063585D01*
G37*
G36*
X0144720Y0065088D02*
X0140902Y0068906D01*
X0145922Y0073926D01*
X0149740Y0070108D01*
X0144720Y0065088D01*
G37*
G36*
X0140478Y0069331D02*
X0136660Y0073149D01*
X0141680Y0078169D01*
X0145498Y0074351D01*
X0140478Y0069331D01*
G37*
X0251999Y0103169D03*
X0257999Y0103169D03*
X0257999Y0111294D03*
X0251999Y0111294D03*
X0286999Y0111294D03*
X0292999Y0111294D03*
X0292999Y0103169D03*
X0286999Y0103169D03*
G36*
X0149709Y0142403D02*
X0145891Y0138585D01*
X0140871Y0143605D01*
X0144689Y0147423D01*
X0149709Y0142403D01*
G37*
G36*
X0145466Y0138161D02*
X0141648Y0134343D01*
X0136628Y0139363D01*
X0140446Y0143181D01*
X0145466Y0138161D01*
G37*
G36*
X0139721Y0143906D02*
X0135903Y0140088D01*
X0130883Y0145108D01*
X0134701Y0148926D01*
X0139721Y0143906D01*
G37*
G36*
X0143963Y0148149D02*
X0140145Y0144331D01*
X0135125Y0149351D01*
X0138943Y0153169D01*
X0143963Y0148149D01*
G37*
D19*
G36*
X0140180Y0144295D02*
X0139756Y0143871D01*
X0134666Y0148961D01*
X0135090Y0149385D01*
X0140180Y0144295D01*
G37*
G36*
X0145925Y0138550D02*
X0145501Y0138126D01*
X0140411Y0143216D01*
X0140835Y0143640D01*
X0145925Y0138550D01*
G37*
X0254999Y0111294D03*
X0254999Y0103169D03*
X0289999Y0103169D03*
X0289999Y0111294D03*
G36*
X0140867Y0068871D02*
X0140443Y0069295D01*
X0145533Y0074385D01*
X0145957Y0073961D01*
X0140867Y0068871D01*
G37*
G36*
X0135122Y0063126D02*
X0134698Y0063550D01*
X0139788Y0068640D01*
X0140212Y0068216D01*
X0135122Y0063126D01*
G37*
D20*
X0145851Y0057486D03*
X0151597Y0063231D03*
X0129058Y0074280D03*
X0134803Y0080025D03*
X0118749Y0096919D03*
X0123124Y0101294D03*
X0134772Y0132486D03*
X0129026Y0138231D03*
X0151565Y0149280D03*
X0145820Y0155025D03*
X0163749Y0161919D03*
X0243124Y0111294D03*
X0243124Y0103169D03*
X0266874Y0103169D03*
X0278124Y0103169D03*
X0278124Y0111294D03*
X0266874Y0111294D03*
X0301874Y0111294D03*
X0301874Y0103169D03*
M02*
