%
M48
M72
T01C0.01575
T02C0.04000
T03C0.05906
T04C0.06750
T05C0.15750
%
T01
X129058Y74280
X134803Y80025
X118749Y96919
X123124Y101294
X134772Y132486
X129026Y138231
X151565Y149280
X145820Y155025
X163749Y161919
X243124Y111294
X243124Y103169
X266874Y103169
X278124Y103169
X278124Y111294
X266874Y111294
X301874Y111294
X301874Y103169
X151597Y63231
X145851Y57486
T02
X117603Y46815
X110532Y39743
X149999Y18169
X159999Y18169
X169999Y18169
X179999Y18169
X189999Y18169
X199999Y18169
X229999Y46919
X239999Y46919
X304999Y46919
X314999Y46919
X169601Y98812
X162529Y91741
X229999Y136919
X239999Y136919
X304999Y136919
X314999Y136919
X199999Y195669
X189999Y195669
X179999Y195669
X169999Y195669
X159999Y195669
X149999Y195669
X117603Y150809
X110532Y143738
X65606Y98812
X58535Y91741
T03
X85783Y50350
X96390Y75099
X137781Y102348
X148387Y127096
X85783Y154345
X96390Y179094
X44392Y127096
X33786Y102348
X219999Y71919
X244999Y81919
X294999Y71919
X319999Y81919
X294999Y161919
X319999Y171919
X244999Y171919
X219999Y161919
T04
X214999Y151919
X254999Y151919
X289999Y151919
X329999Y151919
X329999Y61919
X289999Y61919
X254999Y61919
X214999Y61919
X141316Y91741
X117603Y68028
X89319Y39743
X37321Y91741
X65606Y120025
X89319Y143738
X117603Y172023
X169601Y120025
T05
X155458Y105883
X234999Y61919
X309999Y61919
X309999Y151919
X234999Y151919
X103461Y157881
X51463Y105883
X103461Y53886
M30
