G75*
%MOIN*%
%OFA0B0*%
%FSLAX25Y25*%
%IPPOS*%
%LPD*%
%AMOC8*
5,1,8,0,0,1.08239X$1,22.5*
%
%ADD10R,0.06312X0.07887*%
%ADD11C,0.10800*%
%ADD12C,0.10924*%
%ADD13C,0.16550*%
%ADD14C,0.07400*%
%ADD15C,0.06800*%
%ADD16C,0.03975*%
D10*
G36*
X0132166Y0065597D02*
X0127703Y0070060D01*
X0133278Y0075635D01*
X0137741Y0071172D01*
X0132166Y0065597D01*
G37*
G36*
X0141631Y0056131D02*
X0137168Y0060594D01*
X0142743Y0066169D01*
X0147206Y0061706D01*
X0141631Y0056131D01*
G37*
G36*
X0147376Y0061877D02*
X0142913Y0066340D01*
X0148488Y0071915D01*
X0152951Y0067452D01*
X0147376Y0061877D01*
G37*
G36*
X0137911Y0071342D02*
X0133448Y0075805D01*
X0139023Y0081380D01*
X0143486Y0076917D01*
X0137911Y0071342D01*
G37*
G36*
X0143455Y0135594D02*
X0138992Y0131131D01*
X0133417Y0136706D01*
X0137880Y0141169D01*
X0143455Y0135594D01*
G37*
G36*
X0137710Y0141340D02*
X0133247Y0136877D01*
X0127672Y0142452D01*
X0132135Y0146915D01*
X0137710Y0141340D01*
G37*
G36*
X0152920Y0145060D02*
X0148457Y0140597D01*
X0142882Y0146172D01*
X0147345Y0150635D01*
X0152920Y0145060D01*
G37*
G36*
X0147175Y0150805D02*
X0142712Y0146342D01*
X0137137Y0151917D01*
X0141600Y0156380D01*
X0147175Y0150805D01*
G37*
X0248306Y0111294D03*
X0248306Y0103169D03*
X0261692Y0103169D03*
X0261692Y0111294D03*
X0283306Y0111294D03*
X0283306Y0103169D03*
X0296692Y0103169D03*
X0296692Y0111294D03*
D11*
X0085783Y0050350D03*
X0096390Y0075099D03*
X0137781Y0102348D03*
X0148387Y0127096D03*
X0085783Y0154345D03*
X0096390Y0179094D03*
X0044392Y0127096D03*
X0033786Y0102348D03*
X0219999Y0071919D03*
X0244999Y0081919D03*
X0294999Y0071919D03*
X0319999Y0081919D03*
X0294999Y0161919D03*
X0319999Y0171919D03*
X0244999Y0171919D03*
X0219999Y0161919D03*
D12*
X0214999Y0151919D03*
X0254999Y0151919D03*
X0289999Y0151919D03*
X0329999Y0151919D03*
X0329999Y0061919D03*
X0289999Y0061919D03*
X0254999Y0061919D03*
X0214999Y0061919D03*
X0141316Y0091741D03*
X0117603Y0068028D03*
X0089319Y0039743D03*
X0037321Y0091741D03*
X0065606Y0120025D03*
X0089319Y0143738D03*
X0117603Y0172023D03*
X0169601Y0120025D03*
D13*
X0155458Y0105883D03*
X0234999Y0061919D03*
X0309999Y0061919D03*
X0309999Y0151919D03*
X0234999Y0151919D03*
X0103461Y0157881D03*
X0051463Y0105883D03*
X0103461Y0053886D03*
D14*
X0117603Y0046815D03*
X0110532Y0039743D03*
X0058535Y0091741D03*
X0065606Y0098812D03*
X0110532Y0143738D03*
X0117603Y0150809D03*
X0169601Y0098812D03*
X0162529Y0091741D03*
X0229999Y0046919D03*
X0239999Y0046919D03*
X0304999Y0046919D03*
X0314999Y0046919D03*
X0314999Y0136919D03*
X0304999Y0136919D03*
X0239999Y0136919D03*
X0229999Y0136919D03*
D15*
X0199999Y0192669D02*
X0199999Y0198669D01*
X0189999Y0198669D02*
X0189999Y0192669D01*
X0179999Y0192669D02*
X0179999Y0198669D01*
X0169999Y0198669D02*
X0169999Y0192669D01*
X0159999Y0192669D02*
X0159999Y0198669D01*
X0149999Y0198669D02*
X0149999Y0192669D01*
X0149999Y0021169D02*
X0149999Y0015169D01*
X0159999Y0015169D02*
X0159999Y0021169D01*
X0169999Y0021169D02*
X0169999Y0015169D01*
X0179999Y0015169D02*
X0179999Y0021169D01*
X0189999Y0021169D02*
X0189999Y0015169D01*
X0199999Y0015169D02*
X0199999Y0021169D01*
D16*
X0145851Y0057486D03*
X0151597Y0063231D03*
X0129058Y0074280D03*
X0134803Y0080025D03*
X0118749Y0096919D03*
X0123124Y0101294D03*
X0134772Y0132486D03*
X0129026Y0138231D03*
X0151565Y0149280D03*
X0145820Y0155025D03*
X0163749Y0161919D03*
X0243124Y0111294D03*
X0243124Y0103169D03*
X0266874Y0103169D03*
X0278124Y0103169D03*
X0278124Y0111294D03*
X0266874Y0111294D03*
X0301874Y0111294D03*
X0301874Y0103169D03*
M02*
