G75*
%MOIN*%
%OFA0B0*%
%FSLAX25Y25*%
%IPPOS*%
%LPD*%
%AMOC8*
5,1,8,0,0,1.08239X$1,22.5*
%
%ADD10R,0.05512X0.07087*%
%ADD11C,0.10000*%
%ADD12C,0.10124*%
%ADD13C,0.06600*%
%ADD14C,0.06000*%
%ADD15C,0.00600*%
%ADD16C,0.01600*%
%ADD17C,0.03175*%
D10*
G36*
X0132166Y0066162D02*
X0128268Y0070060D01*
X0133278Y0075070D01*
X0137176Y0071172D01*
X0132166Y0066162D01*
G37*
G36*
X0141631Y0056696D02*
X0137733Y0060594D01*
X0142743Y0065604D01*
X0146641Y0061706D01*
X0141631Y0056696D01*
G37*
G36*
X0147376Y0062442D02*
X0143478Y0066340D01*
X0148488Y0071350D01*
X0152386Y0067452D01*
X0147376Y0062442D01*
G37*
G36*
X0137911Y0071907D02*
X0134013Y0075805D01*
X0139023Y0080815D01*
X0142921Y0076917D01*
X0137911Y0071907D01*
G37*
G36*
X0142890Y0135594D02*
X0138992Y0131696D01*
X0133982Y0136706D01*
X0137880Y0140604D01*
X0142890Y0135594D01*
G37*
G36*
X0137145Y0141340D02*
X0133247Y0137442D01*
X0128237Y0142452D01*
X0132135Y0146350D01*
X0137145Y0141340D01*
G37*
G36*
X0152355Y0145060D02*
X0148457Y0141162D01*
X0143447Y0146172D01*
X0147345Y0150070D01*
X0152355Y0145060D01*
G37*
G36*
X0146610Y0150805D02*
X0142712Y0146907D01*
X0137702Y0151917D01*
X0141600Y0155815D01*
X0146610Y0150805D01*
G37*
X0248306Y0111294D03*
X0248306Y0103169D03*
X0261692Y0103169D03*
X0261692Y0111294D03*
X0283306Y0111294D03*
X0283306Y0103169D03*
X0296692Y0103169D03*
X0296692Y0111294D03*
D11*
X0319999Y0081919D03*
X0294999Y0071919D03*
X0244999Y0081919D03*
X0219999Y0071919D03*
X0137781Y0102348D03*
X0148387Y0127096D03*
X0085783Y0154345D03*
X0096390Y0179094D03*
X0044392Y0127096D03*
X0033786Y0102348D03*
X0096390Y0075099D03*
X0085783Y0050350D03*
X0219999Y0161919D03*
X0244999Y0171919D03*
X0294999Y0161919D03*
X0319999Y0171919D03*
D12*
X0329999Y0151919D03*
X0289999Y0151919D03*
X0254999Y0151919D03*
X0214999Y0151919D03*
X0169601Y0120025D03*
X0141316Y0091741D03*
X0117603Y0068028D03*
X0089319Y0039743D03*
X0037321Y0091741D03*
X0065606Y0120025D03*
X0089319Y0143738D03*
X0117603Y0172023D03*
X0214999Y0061919D03*
X0254999Y0061919D03*
X0289999Y0061919D03*
X0329999Y0061919D03*
D13*
X0314999Y0046919D03*
X0304999Y0046919D03*
X0239999Y0046919D03*
X0229999Y0046919D03*
X0162529Y0091741D03*
X0169601Y0098812D03*
X0229999Y0136919D03*
X0239999Y0136919D03*
X0304999Y0136919D03*
X0314999Y0136919D03*
X0117603Y0150809D03*
X0110532Y0143738D03*
X0065606Y0098812D03*
X0058535Y0091741D03*
X0117603Y0046815D03*
X0110532Y0039743D03*
D14*
X0149999Y0021169D02*
X0149999Y0015169D01*
X0159999Y0015169D02*
X0159999Y0021169D01*
X0169999Y0021169D02*
X0169999Y0015169D01*
X0179999Y0015169D02*
X0179999Y0021169D01*
X0189999Y0021169D02*
X0189999Y0015169D01*
X0199999Y0015169D02*
X0199999Y0021169D01*
X0199999Y0192669D02*
X0199999Y0198669D01*
X0189999Y0198669D02*
X0189999Y0192669D01*
X0179999Y0192669D02*
X0179999Y0198669D01*
X0169999Y0198669D02*
X0169999Y0192669D01*
X0159999Y0192669D02*
X0159999Y0198669D01*
X0149999Y0198669D02*
X0149999Y0192669D01*
D15*
X0013866Y0009590D02*
X0011278Y0011084D01*
X0009165Y0013198D01*
X0007670Y0015786D01*
X0006897Y0018672D01*
X0006799Y0020167D01*
X0006799Y0193395D01*
X0006897Y0194889D01*
X0007670Y0197776D01*
X0009165Y0200364D01*
X0011278Y0202477D01*
X0013866Y0203972D01*
X0016753Y0204745D01*
X0018247Y0204843D01*
X0106144Y0204843D01*
X0105799Y0204498D01*
X0084083Y0182782D01*
X0084083Y0160027D01*
X0082441Y0159347D01*
X0080781Y0157687D01*
X0079883Y0155519D01*
X0079883Y0153171D01*
X0080653Y0151312D01*
X0053013Y0121499D01*
X0046550Y0121499D01*
X0045554Y0120503D01*
X0033299Y0108248D01*
X0032612Y0108248D01*
X0030444Y0107349D01*
X0028784Y0105690D01*
X0027886Y0103521D01*
X0027886Y0101174D01*
X0028784Y0099005D01*
X0030444Y0097346D01*
X0032612Y0096448D01*
X0033596Y0096448D01*
X0032267Y0095118D01*
X0031359Y0092927D01*
X0031359Y0090555D01*
X0032267Y0088364D01*
X0033944Y0086686D01*
X0036135Y0085779D01*
X0038507Y0085779D01*
X0040699Y0086686D01*
X0042376Y0088364D01*
X0043284Y0090555D01*
X0043284Y0092927D01*
X0042376Y0095118D01*
X0040699Y0096795D01*
X0038507Y0097703D01*
X0037485Y0097703D01*
X0038788Y0099005D01*
X0039686Y0101174D01*
X0039686Y0102798D01*
X0040118Y0101184D01*
X0041721Y0098408D01*
X0043988Y0096141D01*
X0046764Y0094538D01*
X0049861Y0093708D01*
X0053066Y0093708D01*
X0055110Y0094256D01*
X0054974Y0094120D01*
X0054335Y0092576D01*
X0054335Y0090905D01*
X0054974Y0089362D01*
X0056155Y0088180D01*
X0057699Y0087541D01*
X0059370Y0087541D01*
X0060914Y0088180D01*
X0062095Y0089362D01*
X0062735Y0090905D01*
X0062735Y0092576D01*
X0062095Y0094120D01*
X0060914Y0095302D01*
X0059370Y0095941D01*
X0058593Y0095941D01*
X0058939Y0096141D01*
X0061206Y0098408D01*
X0061406Y0098754D01*
X0061406Y0097977D01*
X0062045Y0096433D01*
X0063226Y0095251D01*
X0064770Y0094612D01*
X0066441Y0094612D01*
X0067985Y0095251D01*
X0069166Y0096433D01*
X0069806Y0097977D01*
X0069806Y0099647D01*
X0069166Y0101191D01*
X0067985Y0102373D01*
X0066441Y0103012D01*
X0064770Y0103012D01*
X0063226Y0102373D01*
X0063091Y0102237D01*
X0063638Y0104280D01*
X0063638Y0107486D01*
X0062809Y0110582D01*
X0061206Y0113359D01*
X0058939Y0115625D01*
X0056163Y0117228D01*
X0053066Y0118058D01*
X0049861Y0118058D01*
X0047206Y0117347D01*
X0047958Y0118099D01*
X0054441Y0118099D01*
X0054712Y0118370D01*
X0054750Y0118371D01*
X0055207Y0118864D01*
X0055437Y0119095D01*
X0055682Y0119339D01*
X0055682Y0119377D01*
X0083180Y0149037D01*
X0084610Y0148445D01*
X0085594Y0148445D01*
X0084264Y0147116D01*
X0083357Y0144924D01*
X0083357Y0142552D01*
X0084264Y0140361D01*
X0085941Y0138684D01*
X0088133Y0137776D01*
X0090505Y0137776D01*
X0092696Y0138684D01*
X0094373Y0140361D01*
X0095281Y0142552D01*
X0095281Y0144924D01*
X0094373Y0147116D01*
X0092696Y0148793D01*
X0090505Y0149701D01*
X0089483Y0149701D01*
X0090785Y0151003D01*
X0091683Y0153171D01*
X0091683Y0154796D01*
X0092116Y0153181D01*
X0093719Y0150405D01*
X0095985Y0148138D01*
X0098762Y0146535D01*
X0101858Y0145706D01*
X0105064Y0145706D01*
X0107107Y0146253D01*
X0106971Y0146118D01*
X0106332Y0144574D01*
X0106332Y0142903D01*
X0106971Y0141359D01*
X0108153Y0140178D01*
X0109697Y0139538D01*
X0111367Y0139538D01*
X0112911Y0140178D01*
X0114093Y0141359D01*
X0114732Y0142903D01*
X0114732Y0144574D01*
X0114093Y0146118D01*
X0112911Y0147299D01*
X0111367Y0147938D01*
X0110590Y0147938D01*
X0110936Y0148138D01*
X0113203Y0150405D01*
X0113403Y0150751D01*
X0113403Y0149974D01*
X0114042Y0148430D01*
X0115224Y0147249D01*
X0116768Y0146609D01*
X0118439Y0146609D01*
X0119982Y0147249D01*
X0121164Y0148430D01*
X0121803Y0149974D01*
X0121803Y0151645D01*
X0121164Y0153189D01*
X0119982Y0154370D01*
X0118439Y0155009D01*
X0116768Y0155009D01*
X0115224Y0154370D01*
X0115088Y0154234D01*
X0115636Y0156278D01*
X0115636Y0159483D01*
X0114806Y0162580D01*
X0113203Y0165356D01*
X0110936Y0167623D01*
X0108160Y0169226D01*
X0105064Y0170055D01*
X0101858Y0170055D01*
X0098762Y0169226D01*
X0095985Y0167623D01*
X0093719Y0165356D01*
X0092116Y0162580D01*
X0091286Y0159483D01*
X0091286Y0156477D01*
X0090785Y0157687D01*
X0089125Y0159347D01*
X0087483Y0160027D01*
X0087483Y0181374D01*
X0108203Y0202094D01*
X0148077Y0202094D01*
X0147790Y0201975D01*
X0146693Y0200878D01*
X0146099Y0199444D01*
X0146099Y0191893D01*
X0146693Y0190459D01*
X0147790Y0189362D01*
X0149223Y0188769D01*
X0150775Y0188769D01*
X0152208Y0189362D01*
X0153305Y0190459D01*
X0153899Y0191893D01*
X0153899Y0199444D01*
X0153305Y0200878D01*
X0152208Y0201975D01*
X0151921Y0202094D01*
X0153045Y0202094D01*
X0156099Y0199039D01*
X0156099Y0191893D01*
X0156693Y0190459D01*
X0157790Y0189362D01*
X0159223Y0188769D01*
X0160775Y0188769D01*
X0162208Y0189362D01*
X0163305Y0190459D01*
X0163899Y0191893D01*
X0163899Y0199444D01*
X0163305Y0200878D01*
X0162208Y0201975D01*
X0160775Y0202569D01*
X0159223Y0202569D01*
X0157919Y0202028D01*
X0155449Y0204498D01*
X0155104Y0204843D01*
X0257867Y0204843D01*
X0258001Y0204225D01*
X0257964Y0204144D01*
X0258096Y0203791D01*
X0258176Y0203422D01*
X0258251Y0203374D01*
X0258494Y0202723D01*
X0258469Y0202637D01*
X0258650Y0202306D01*
X0258781Y0201953D01*
X0258863Y0201916D01*
X0259196Y0201306D01*
X0259183Y0201218D01*
X0259409Y0200916D01*
X0259589Y0200585D01*
X0259675Y0200560D01*
X0260092Y0200004D01*
X0260092Y0199914D01*
X0260358Y0199648D01*
X0260584Y0199346D01*
X0260673Y0199333D01*
X0261164Y0198842D01*
X0261176Y0198754D01*
X0261478Y0198528D01*
X0261745Y0198261D01*
X0261834Y0198261D01*
X0262390Y0197845D01*
X0262416Y0197759D01*
X0262746Y0197578D01*
X0263048Y0197352D01*
X0263137Y0197365D01*
X0263746Y0197032D01*
X0263784Y0196951D01*
X0264137Y0196819D01*
X0264468Y0196638D01*
X0264553Y0196664D01*
X0265204Y0196421D01*
X0265253Y0196346D01*
X0265621Y0196266D01*
X0265974Y0196134D01*
X0266056Y0196171D01*
X0266734Y0196023D01*
X0266793Y0195956D01*
X0267169Y0195929D01*
X0267537Y0195849D01*
X0267613Y0195897D01*
X0268261Y0195851D01*
X0268293Y0195819D01*
X0268710Y0195819D01*
X0269125Y0195789D01*
X0269159Y0195819D01*
X0291464Y0195819D01*
X0291498Y0195789D01*
X0291913Y0195819D01*
X0292330Y0195819D01*
X0292362Y0195851D01*
X0293010Y0195897D01*
X0293086Y0195849D01*
X0293454Y0195929D01*
X0293830Y0195956D01*
X0293889Y0196023D01*
X0294567Y0196171D01*
X0294649Y0196134D01*
X0295002Y0196266D01*
X0295370Y0196346D01*
X0295419Y0196421D01*
X0296070Y0196664D01*
X0296155Y0196638D01*
X0296486Y0196819D01*
X0296839Y0196951D01*
X0296877Y0197032D01*
X0297486Y0197365D01*
X0297575Y0197352D01*
X0297877Y0197578D01*
X0298207Y0197759D01*
X0298233Y0197845D01*
X0298789Y0198261D01*
X0298878Y0198261D01*
X0299145Y0198528D01*
X0299447Y0198754D01*
X0299459Y0198842D01*
X0299950Y0199333D01*
X0300039Y0199346D01*
X0300265Y0199648D01*
X0300531Y0199914D01*
X0300531Y0200004D01*
X0300948Y0200560D01*
X0301034Y0200585D01*
X0301214Y0200916D01*
X0301440Y0201218D01*
X0301427Y0201306D01*
X0301760Y0201916D01*
X0301842Y0201953D01*
X0301973Y0202306D01*
X0302154Y0202637D01*
X0302129Y0202723D01*
X0302372Y0203374D01*
X0302447Y0203422D01*
X0302527Y0203791D01*
X0302659Y0204144D01*
X0302622Y0204225D01*
X0302756Y0204843D01*
X0331672Y0204843D01*
X0333166Y0204745D01*
X0336053Y0203972D01*
X0338641Y0202477D01*
X0340755Y0200364D01*
X0342249Y0197776D01*
X0343022Y0194889D01*
X0343120Y0193395D01*
X0343120Y0020167D01*
X0343022Y0018672D01*
X0342249Y0015786D01*
X0340755Y0013198D01*
X0338641Y0011084D01*
X0336053Y0009590D01*
X0333166Y0008817D01*
X0331672Y0008719D01*
X0018247Y0008719D01*
X0016753Y0008817D01*
X0013866Y0009590D01*
X0013493Y0009805D02*
X0336426Y0009805D01*
X0337463Y0010404D02*
X0012457Y0010404D01*
X0011420Y0011002D02*
X0148907Y0011002D01*
X0148992Y0010975D02*
X0149661Y0010869D01*
X0149699Y0010869D01*
X0149699Y0017869D01*
X0145699Y0017869D01*
X0145699Y0014830D01*
X0145805Y0014162D01*
X0146014Y0013518D01*
X0146321Y0012915D01*
X0146719Y0012367D01*
X0147198Y0011889D01*
X0147745Y0011491D01*
X0148348Y0011184D01*
X0148992Y0010975D01*
X0149699Y0011002D02*
X0150299Y0011002D01*
X0150299Y0010869D02*
X0150337Y0010869D01*
X0151006Y0010975D01*
X0151650Y0011184D01*
X0152253Y0011491D01*
X0152800Y0011889D01*
X0153279Y0012367D01*
X0153677Y0012915D01*
X0153984Y0013518D01*
X0154193Y0014162D01*
X0154299Y0014830D01*
X0154299Y0017869D01*
X0150299Y0017869D01*
X0150299Y0018469D01*
X0149699Y0018469D01*
X0149699Y0025469D01*
X0149661Y0025469D01*
X0148992Y0025363D01*
X0148348Y0025154D01*
X0147745Y0024846D01*
X0147198Y0024448D01*
X0146719Y0023970D01*
X0146321Y0023422D01*
X0146014Y0022819D01*
X0145805Y0022176D01*
X0145699Y0021507D01*
X0145699Y0018469D01*
X0149699Y0018469D01*
X0149699Y0017869D01*
X0150299Y0017869D01*
X0150299Y0010869D01*
X0150299Y0011601D02*
X0149699Y0011601D01*
X0149699Y0012199D02*
X0150299Y0012199D01*
X0150299Y0012798D02*
X0149699Y0012798D01*
X0149699Y0013396D02*
X0150299Y0013396D01*
X0150299Y0013995D02*
X0149699Y0013995D01*
X0149699Y0014593D02*
X0150299Y0014593D01*
X0150299Y0015192D02*
X0149699Y0015192D01*
X0149699Y0015790D02*
X0150299Y0015790D01*
X0150299Y0016389D02*
X0149699Y0016389D01*
X0149699Y0016987D02*
X0150299Y0016987D01*
X0150299Y0017586D02*
X0149699Y0017586D01*
X0149699Y0018184D02*
X0007028Y0018184D01*
X0006890Y0018783D02*
X0145699Y0018783D01*
X0145699Y0019381D02*
X0006850Y0019381D01*
X0006811Y0019980D02*
X0145699Y0019980D01*
X0145699Y0020578D02*
X0006799Y0020578D01*
X0006799Y0021177D02*
X0145699Y0021177D01*
X0145742Y0021775D02*
X0006799Y0021775D01*
X0006799Y0022374D02*
X0145869Y0022374D01*
X0146092Y0022972D02*
X0006799Y0022972D01*
X0006799Y0023571D02*
X0146429Y0023571D01*
X0146919Y0024170D02*
X0006799Y0024170D01*
X0006799Y0024768D02*
X0147638Y0024768D01*
X0149016Y0025367D02*
X0006799Y0025367D01*
X0006799Y0025965D02*
X0343120Y0025965D01*
X0343120Y0025367D02*
X0200982Y0025367D01*
X0201006Y0025363D02*
X0200337Y0025469D01*
X0200299Y0025469D01*
X0200299Y0018469D01*
X0199699Y0018469D01*
X0199699Y0025469D01*
X0199661Y0025469D01*
X0198992Y0025363D01*
X0198348Y0025154D01*
X0197745Y0024846D01*
X0197198Y0024448D01*
X0196719Y0023970D01*
X0196321Y0023422D01*
X0196014Y0022819D01*
X0195805Y0022176D01*
X0195699Y0021507D01*
X0195699Y0018469D01*
X0199699Y0018469D01*
X0199699Y0017869D01*
X0195699Y0017869D01*
X0195699Y0014830D01*
X0195805Y0014162D01*
X0196014Y0013518D01*
X0196321Y0012915D01*
X0196719Y0012367D01*
X0197198Y0011889D01*
X0197745Y0011491D01*
X0198348Y0011184D01*
X0198992Y0010975D01*
X0199661Y0010869D01*
X0199699Y0010869D01*
X0199699Y0017869D01*
X0200299Y0017869D01*
X0200299Y0018469D01*
X0204299Y0018469D01*
X0204299Y0021507D01*
X0204193Y0022176D01*
X0203984Y0022819D01*
X0203677Y0023422D01*
X0203279Y0023970D01*
X0202800Y0024448D01*
X0202253Y0024846D01*
X0201650Y0025154D01*
X0201006Y0025363D01*
X0200299Y0025367D02*
X0199699Y0025367D01*
X0199699Y0024768D02*
X0200299Y0024768D01*
X0200299Y0024170D02*
X0199699Y0024170D01*
X0199699Y0023571D02*
X0200299Y0023571D01*
X0200299Y0022972D02*
X0199699Y0022972D01*
X0199699Y0022374D02*
X0200299Y0022374D01*
X0200299Y0021775D02*
X0199699Y0021775D01*
X0199699Y0021177D02*
X0200299Y0021177D01*
X0200299Y0020578D02*
X0199699Y0020578D01*
X0199699Y0019980D02*
X0200299Y0019980D01*
X0200299Y0019381D02*
X0199699Y0019381D01*
X0199699Y0018783D02*
X0200299Y0018783D01*
X0200299Y0018184D02*
X0342892Y0018184D01*
X0343030Y0018783D02*
X0204299Y0018783D01*
X0204299Y0019381D02*
X0343069Y0019381D01*
X0343108Y0019980D02*
X0204299Y0019980D01*
X0204299Y0020578D02*
X0343120Y0020578D01*
X0343120Y0021177D02*
X0204299Y0021177D01*
X0204256Y0021775D02*
X0343120Y0021775D01*
X0343120Y0022374D02*
X0204129Y0022374D01*
X0203906Y0022972D02*
X0343120Y0022972D01*
X0343120Y0023571D02*
X0203569Y0023571D01*
X0203079Y0024170D02*
X0343120Y0024170D01*
X0343120Y0024768D02*
X0202360Y0024768D01*
X0199016Y0025367D02*
X0190982Y0025367D01*
X0191006Y0025363D02*
X0190337Y0025469D01*
X0190299Y0025469D01*
X0190299Y0018469D01*
X0189699Y0018469D01*
X0189699Y0025469D01*
X0189661Y0025469D01*
X0188992Y0025363D01*
X0188348Y0025154D01*
X0187745Y0024846D01*
X0187198Y0024448D01*
X0186719Y0023970D01*
X0186321Y0023422D01*
X0186014Y0022819D01*
X0185805Y0022176D01*
X0185699Y0021507D01*
X0185699Y0018469D01*
X0189699Y0018469D01*
X0189699Y0017869D01*
X0185699Y0017869D01*
X0185699Y0014830D01*
X0185805Y0014162D01*
X0186014Y0013518D01*
X0186321Y0012915D01*
X0186719Y0012367D01*
X0187198Y0011889D01*
X0187745Y0011491D01*
X0188348Y0011184D01*
X0188992Y0010975D01*
X0189661Y0010869D01*
X0189699Y0010869D01*
X0189699Y0017869D01*
X0190299Y0017869D01*
X0190299Y0018469D01*
X0194299Y0018469D01*
X0194299Y0021507D01*
X0194193Y0022176D01*
X0193984Y0022819D01*
X0193677Y0023422D01*
X0193279Y0023970D01*
X0192800Y0024448D01*
X0192253Y0024846D01*
X0191650Y0025154D01*
X0191006Y0025363D01*
X0190299Y0025367D02*
X0189699Y0025367D01*
X0189699Y0024768D02*
X0190299Y0024768D01*
X0190299Y0024170D02*
X0189699Y0024170D01*
X0189699Y0023571D02*
X0190299Y0023571D01*
X0190299Y0022972D02*
X0189699Y0022972D01*
X0189699Y0022374D02*
X0190299Y0022374D01*
X0190299Y0021775D02*
X0189699Y0021775D01*
X0189699Y0021177D02*
X0190299Y0021177D01*
X0190299Y0020578D02*
X0189699Y0020578D01*
X0189699Y0019980D02*
X0190299Y0019980D01*
X0190299Y0019381D02*
X0189699Y0019381D01*
X0189699Y0018783D02*
X0190299Y0018783D01*
X0190299Y0018184D02*
X0199699Y0018184D01*
X0199699Y0017586D02*
X0200299Y0017586D01*
X0200299Y0017869D02*
X0200299Y0010869D01*
X0200337Y0010869D01*
X0201006Y0010975D01*
X0201650Y0011184D01*
X0202253Y0011491D01*
X0202800Y0011889D01*
X0203279Y0012367D01*
X0203677Y0012915D01*
X0203984Y0013518D01*
X0204193Y0014162D01*
X0204299Y0014830D01*
X0204299Y0017869D01*
X0200299Y0017869D01*
X0200299Y0016987D02*
X0199699Y0016987D01*
X0199699Y0016389D02*
X0200299Y0016389D01*
X0200299Y0015790D02*
X0199699Y0015790D01*
X0199699Y0015192D02*
X0200299Y0015192D01*
X0200299Y0014593D02*
X0199699Y0014593D01*
X0199699Y0013995D02*
X0200299Y0013995D01*
X0200299Y0013396D02*
X0199699Y0013396D01*
X0199699Y0012798D02*
X0200299Y0012798D01*
X0200299Y0012199D02*
X0199699Y0012199D01*
X0199699Y0011601D02*
X0200299Y0011601D01*
X0200299Y0011002D02*
X0199699Y0011002D01*
X0198907Y0011002D02*
X0191091Y0011002D01*
X0191006Y0010975D02*
X0191650Y0011184D01*
X0192253Y0011491D01*
X0192800Y0011889D01*
X0193279Y0012367D01*
X0193677Y0012915D01*
X0193984Y0013518D01*
X0194193Y0014162D01*
X0194299Y0014830D01*
X0194299Y0017869D01*
X0190299Y0017869D01*
X0190299Y0010869D01*
X0190337Y0010869D01*
X0191006Y0010975D01*
X0190299Y0011002D02*
X0189699Y0011002D01*
X0189699Y0011601D02*
X0190299Y0011601D01*
X0190299Y0012199D02*
X0189699Y0012199D01*
X0189699Y0012798D02*
X0190299Y0012798D01*
X0190299Y0013396D02*
X0189699Y0013396D01*
X0189699Y0013995D02*
X0190299Y0013995D01*
X0190299Y0014593D02*
X0189699Y0014593D01*
X0189699Y0015192D02*
X0190299Y0015192D01*
X0190299Y0015790D02*
X0189699Y0015790D01*
X0189699Y0016389D02*
X0190299Y0016389D01*
X0190299Y0016987D02*
X0189699Y0016987D01*
X0189699Y0017586D02*
X0190299Y0017586D01*
X0189699Y0018184D02*
X0180299Y0018184D01*
X0180299Y0018469D02*
X0184299Y0018469D01*
X0184299Y0021507D01*
X0184193Y0022176D01*
X0183984Y0022819D01*
X0183677Y0023422D01*
X0183279Y0023970D01*
X0182800Y0024448D01*
X0182253Y0024846D01*
X0181650Y0025154D01*
X0181006Y0025363D01*
X0180337Y0025469D01*
X0180299Y0025469D01*
X0180299Y0018469D01*
X0179699Y0018469D01*
X0179699Y0025469D01*
X0179661Y0025469D01*
X0178992Y0025363D01*
X0178348Y0025154D01*
X0177745Y0024846D01*
X0177198Y0024448D01*
X0176719Y0023970D01*
X0176321Y0023422D01*
X0176014Y0022819D01*
X0175805Y0022176D01*
X0175699Y0021507D01*
X0175699Y0018469D01*
X0179699Y0018469D01*
X0179699Y0017869D01*
X0175699Y0017869D01*
X0175699Y0014830D01*
X0175805Y0014162D01*
X0176014Y0013518D01*
X0176321Y0012915D01*
X0176719Y0012367D01*
X0177198Y0011889D01*
X0177745Y0011491D01*
X0178348Y0011184D01*
X0178992Y0010975D01*
X0179661Y0010869D01*
X0179699Y0010869D01*
X0179699Y0017869D01*
X0180299Y0017869D01*
X0180299Y0018469D01*
X0180299Y0018783D02*
X0179699Y0018783D01*
X0179699Y0019381D02*
X0180299Y0019381D01*
X0180299Y0019980D02*
X0179699Y0019980D01*
X0179699Y0020578D02*
X0180299Y0020578D01*
X0180299Y0021177D02*
X0179699Y0021177D01*
X0179699Y0021775D02*
X0180299Y0021775D01*
X0180299Y0022374D02*
X0179699Y0022374D01*
X0179699Y0022972D02*
X0180299Y0022972D01*
X0180299Y0023571D02*
X0179699Y0023571D01*
X0179699Y0024170D02*
X0180299Y0024170D01*
X0180299Y0024768D02*
X0179699Y0024768D01*
X0179699Y0025367D02*
X0180299Y0025367D01*
X0180982Y0025367D02*
X0189016Y0025367D01*
X0187638Y0024768D02*
X0182360Y0024768D01*
X0183079Y0024170D02*
X0186919Y0024170D01*
X0186429Y0023571D02*
X0183569Y0023571D01*
X0183906Y0022972D02*
X0186092Y0022972D01*
X0185869Y0022374D02*
X0184129Y0022374D01*
X0184256Y0021775D02*
X0185742Y0021775D01*
X0185699Y0021177D02*
X0184299Y0021177D01*
X0184299Y0020578D02*
X0185699Y0020578D01*
X0185699Y0019980D02*
X0184299Y0019980D01*
X0184299Y0019381D02*
X0185699Y0019381D01*
X0185699Y0018783D02*
X0184299Y0018783D01*
X0184299Y0017869D02*
X0180299Y0017869D01*
X0180299Y0010869D01*
X0180337Y0010869D01*
X0181006Y0010975D01*
X0181650Y0011184D01*
X0182253Y0011491D01*
X0182800Y0011889D01*
X0183279Y0012367D01*
X0183677Y0012915D01*
X0183984Y0013518D01*
X0184193Y0014162D01*
X0184299Y0014830D01*
X0184299Y0017869D01*
X0184299Y0017586D02*
X0185699Y0017586D01*
X0185699Y0016987D02*
X0184299Y0016987D01*
X0184299Y0016389D02*
X0185699Y0016389D01*
X0185699Y0015790D02*
X0184299Y0015790D01*
X0184299Y0015192D02*
X0185699Y0015192D01*
X0185737Y0014593D02*
X0184261Y0014593D01*
X0184139Y0013995D02*
X0185859Y0013995D01*
X0186076Y0013396D02*
X0183922Y0013396D01*
X0183592Y0012798D02*
X0186406Y0012798D01*
X0186887Y0012199D02*
X0183111Y0012199D01*
X0182404Y0011601D02*
X0187594Y0011601D01*
X0188907Y0011002D02*
X0181091Y0011002D01*
X0180299Y0011002D02*
X0179699Y0011002D01*
X0179699Y0011601D02*
X0180299Y0011601D01*
X0180299Y0012199D02*
X0179699Y0012199D01*
X0179699Y0012798D02*
X0180299Y0012798D01*
X0180299Y0013396D02*
X0179699Y0013396D01*
X0179699Y0013995D02*
X0180299Y0013995D01*
X0180299Y0014593D02*
X0179699Y0014593D01*
X0179699Y0015192D02*
X0180299Y0015192D01*
X0180299Y0015790D02*
X0179699Y0015790D01*
X0179699Y0016389D02*
X0180299Y0016389D01*
X0180299Y0016987D02*
X0179699Y0016987D01*
X0179699Y0017586D02*
X0180299Y0017586D01*
X0179699Y0018184D02*
X0170299Y0018184D01*
X0170299Y0018469D02*
X0174299Y0018469D01*
X0174299Y0021507D01*
X0174193Y0022176D01*
X0173984Y0022819D01*
X0173677Y0023422D01*
X0173279Y0023970D01*
X0172800Y0024448D01*
X0172253Y0024846D01*
X0171650Y0025154D01*
X0171006Y0025363D01*
X0170337Y0025469D01*
X0170299Y0025469D01*
X0170299Y0018469D01*
X0169699Y0018469D01*
X0169699Y0025469D01*
X0169661Y0025469D01*
X0168992Y0025363D01*
X0168348Y0025154D01*
X0167745Y0024846D01*
X0167198Y0024448D01*
X0166719Y0023970D01*
X0166321Y0023422D01*
X0166014Y0022819D01*
X0165805Y0022176D01*
X0165699Y0021507D01*
X0165699Y0018469D01*
X0169699Y0018469D01*
X0169699Y0017869D01*
X0165699Y0017869D01*
X0165699Y0014830D01*
X0165805Y0014162D01*
X0166014Y0013518D01*
X0166321Y0012915D01*
X0166719Y0012367D01*
X0167198Y0011889D01*
X0167745Y0011491D01*
X0168348Y0011184D01*
X0168992Y0010975D01*
X0169661Y0010869D01*
X0169699Y0010869D01*
X0169699Y0017869D01*
X0170299Y0017869D01*
X0170299Y0018469D01*
X0170299Y0018783D02*
X0169699Y0018783D01*
X0169699Y0019381D02*
X0170299Y0019381D01*
X0170299Y0019980D02*
X0169699Y0019980D01*
X0169699Y0020578D02*
X0170299Y0020578D01*
X0170299Y0021177D02*
X0169699Y0021177D01*
X0169699Y0021775D02*
X0170299Y0021775D01*
X0170299Y0022374D02*
X0169699Y0022374D01*
X0169699Y0022972D02*
X0170299Y0022972D01*
X0170299Y0023571D02*
X0169699Y0023571D01*
X0169699Y0024170D02*
X0170299Y0024170D01*
X0170299Y0024768D02*
X0169699Y0024768D01*
X0169699Y0025367D02*
X0170299Y0025367D01*
X0170982Y0025367D02*
X0179016Y0025367D01*
X0177638Y0024768D02*
X0172360Y0024768D01*
X0173079Y0024170D02*
X0176919Y0024170D01*
X0176429Y0023571D02*
X0173569Y0023571D01*
X0173906Y0022972D02*
X0176092Y0022972D01*
X0175869Y0022374D02*
X0174129Y0022374D01*
X0174256Y0021775D02*
X0175742Y0021775D01*
X0175699Y0021177D02*
X0174299Y0021177D01*
X0174299Y0020578D02*
X0175699Y0020578D01*
X0175699Y0019980D02*
X0174299Y0019980D01*
X0174299Y0019381D02*
X0175699Y0019381D01*
X0175699Y0018783D02*
X0174299Y0018783D01*
X0174299Y0017869D02*
X0170299Y0017869D01*
X0170299Y0010869D01*
X0170337Y0010869D01*
X0171006Y0010975D01*
X0171650Y0011184D01*
X0172253Y0011491D01*
X0172800Y0011889D01*
X0173279Y0012367D01*
X0173677Y0012915D01*
X0173984Y0013518D01*
X0174193Y0014162D01*
X0174299Y0014830D01*
X0174299Y0017869D01*
X0174299Y0017586D02*
X0175699Y0017586D01*
X0175699Y0016987D02*
X0174299Y0016987D01*
X0174299Y0016389D02*
X0175699Y0016389D01*
X0175699Y0015790D02*
X0174299Y0015790D01*
X0174299Y0015192D02*
X0175699Y0015192D01*
X0175737Y0014593D02*
X0174261Y0014593D01*
X0174139Y0013995D02*
X0175859Y0013995D01*
X0176076Y0013396D02*
X0173922Y0013396D01*
X0173592Y0012798D02*
X0176406Y0012798D01*
X0176887Y0012199D02*
X0173111Y0012199D01*
X0172404Y0011601D02*
X0177594Y0011601D01*
X0178907Y0011002D02*
X0171091Y0011002D01*
X0170299Y0011002D02*
X0169699Y0011002D01*
X0169699Y0011601D02*
X0170299Y0011601D01*
X0170299Y0012199D02*
X0169699Y0012199D01*
X0169699Y0012798D02*
X0170299Y0012798D01*
X0170299Y0013396D02*
X0169699Y0013396D01*
X0169699Y0013995D02*
X0170299Y0013995D01*
X0170299Y0014593D02*
X0169699Y0014593D01*
X0169699Y0015192D02*
X0170299Y0015192D01*
X0170299Y0015790D02*
X0169699Y0015790D01*
X0169699Y0016389D02*
X0170299Y0016389D01*
X0170299Y0016987D02*
X0169699Y0016987D01*
X0169699Y0017586D02*
X0170299Y0017586D01*
X0169699Y0018184D02*
X0160299Y0018184D01*
X0160299Y0018469D02*
X0164299Y0018469D01*
X0164299Y0021507D01*
X0164193Y0022176D01*
X0163984Y0022819D01*
X0163677Y0023422D01*
X0163279Y0023970D01*
X0162800Y0024448D01*
X0162253Y0024846D01*
X0161650Y0025154D01*
X0161006Y0025363D01*
X0160337Y0025469D01*
X0160299Y0025469D01*
X0160299Y0018469D01*
X0159699Y0018469D01*
X0159699Y0025469D01*
X0159661Y0025469D01*
X0158992Y0025363D01*
X0158348Y0025154D01*
X0157745Y0024846D01*
X0157198Y0024448D01*
X0156719Y0023970D01*
X0156321Y0023422D01*
X0156014Y0022819D01*
X0155805Y0022176D01*
X0155699Y0021507D01*
X0155699Y0018469D01*
X0159699Y0018469D01*
X0159699Y0017869D01*
X0155699Y0017869D01*
X0155699Y0014830D01*
X0155805Y0014162D01*
X0156014Y0013518D01*
X0156321Y0012915D01*
X0156719Y0012367D01*
X0157198Y0011889D01*
X0157745Y0011491D01*
X0158348Y0011184D01*
X0158992Y0010975D01*
X0159661Y0010869D01*
X0159699Y0010869D01*
X0159699Y0017869D01*
X0160299Y0017869D01*
X0160299Y0018469D01*
X0160299Y0018783D02*
X0159699Y0018783D01*
X0159699Y0019381D02*
X0160299Y0019381D01*
X0160299Y0019980D02*
X0159699Y0019980D01*
X0159699Y0020578D02*
X0160299Y0020578D01*
X0160299Y0021177D02*
X0159699Y0021177D01*
X0159699Y0021775D02*
X0160299Y0021775D01*
X0160299Y0022374D02*
X0159699Y0022374D01*
X0159699Y0022972D02*
X0160299Y0022972D01*
X0160299Y0023571D02*
X0159699Y0023571D01*
X0159699Y0024170D02*
X0160299Y0024170D01*
X0160299Y0024768D02*
X0159699Y0024768D01*
X0159699Y0025367D02*
X0160299Y0025367D01*
X0160982Y0025367D02*
X0169016Y0025367D01*
X0167638Y0024768D02*
X0162360Y0024768D01*
X0163079Y0024170D02*
X0166919Y0024170D01*
X0166429Y0023571D02*
X0163569Y0023571D01*
X0163906Y0022972D02*
X0166092Y0022972D01*
X0165869Y0022374D02*
X0164129Y0022374D01*
X0164256Y0021775D02*
X0165742Y0021775D01*
X0165699Y0021177D02*
X0164299Y0021177D01*
X0164299Y0020578D02*
X0165699Y0020578D01*
X0165699Y0019980D02*
X0164299Y0019980D01*
X0164299Y0019381D02*
X0165699Y0019381D01*
X0165699Y0018783D02*
X0164299Y0018783D01*
X0164299Y0017869D02*
X0160299Y0017869D01*
X0160299Y0010869D01*
X0160337Y0010869D01*
X0161006Y0010975D01*
X0161650Y0011184D01*
X0162253Y0011491D01*
X0162800Y0011889D01*
X0163279Y0012367D01*
X0163677Y0012915D01*
X0163984Y0013518D01*
X0164193Y0014162D01*
X0164299Y0014830D01*
X0164299Y0017869D01*
X0164299Y0017586D02*
X0165699Y0017586D01*
X0165699Y0016987D02*
X0164299Y0016987D01*
X0164299Y0016389D02*
X0165699Y0016389D01*
X0165699Y0015790D02*
X0164299Y0015790D01*
X0164299Y0015192D02*
X0165699Y0015192D01*
X0165737Y0014593D02*
X0164261Y0014593D01*
X0164139Y0013995D02*
X0165859Y0013995D01*
X0166076Y0013396D02*
X0163922Y0013396D01*
X0163592Y0012798D02*
X0166406Y0012798D01*
X0166887Y0012199D02*
X0163111Y0012199D01*
X0162404Y0011601D02*
X0167594Y0011601D01*
X0168907Y0011002D02*
X0161091Y0011002D01*
X0160299Y0011002D02*
X0159699Y0011002D01*
X0159699Y0011601D02*
X0160299Y0011601D01*
X0160299Y0012199D02*
X0159699Y0012199D01*
X0159699Y0012798D02*
X0160299Y0012798D01*
X0160299Y0013396D02*
X0159699Y0013396D01*
X0159699Y0013995D02*
X0160299Y0013995D01*
X0160299Y0014593D02*
X0159699Y0014593D01*
X0159699Y0015192D02*
X0160299Y0015192D01*
X0160299Y0015790D02*
X0159699Y0015790D01*
X0159699Y0016389D02*
X0160299Y0016389D01*
X0160299Y0016987D02*
X0159699Y0016987D01*
X0159699Y0017586D02*
X0160299Y0017586D01*
X0159699Y0018184D02*
X0150299Y0018184D01*
X0150299Y0018469D02*
X0154299Y0018469D01*
X0154299Y0021507D01*
X0154193Y0022176D01*
X0153984Y0022819D01*
X0153677Y0023422D01*
X0153279Y0023970D01*
X0152800Y0024448D01*
X0152253Y0024846D01*
X0151650Y0025154D01*
X0151006Y0025363D01*
X0150337Y0025469D01*
X0150299Y0025469D01*
X0150299Y0018469D01*
X0150299Y0018783D02*
X0149699Y0018783D01*
X0149699Y0019381D02*
X0150299Y0019381D01*
X0150299Y0019980D02*
X0149699Y0019980D01*
X0149699Y0020578D02*
X0150299Y0020578D01*
X0150299Y0021177D02*
X0149699Y0021177D01*
X0149699Y0021775D02*
X0150299Y0021775D01*
X0150299Y0022374D02*
X0149699Y0022374D01*
X0149699Y0022972D02*
X0150299Y0022972D01*
X0150299Y0023571D02*
X0149699Y0023571D01*
X0149699Y0024170D02*
X0150299Y0024170D01*
X0150299Y0024768D02*
X0149699Y0024768D01*
X0149699Y0025367D02*
X0150299Y0025367D01*
X0150982Y0025367D02*
X0159016Y0025367D01*
X0157638Y0024768D02*
X0152360Y0024768D01*
X0153079Y0024170D02*
X0156919Y0024170D01*
X0156429Y0023571D02*
X0153569Y0023571D01*
X0153906Y0022972D02*
X0156092Y0022972D01*
X0155869Y0022374D02*
X0154129Y0022374D01*
X0154256Y0021775D02*
X0155742Y0021775D01*
X0155699Y0021177D02*
X0154299Y0021177D01*
X0154299Y0020578D02*
X0155699Y0020578D01*
X0155699Y0019980D02*
X0154299Y0019980D01*
X0154299Y0019381D02*
X0155699Y0019381D01*
X0155699Y0018783D02*
X0154299Y0018783D01*
X0154299Y0017586D02*
X0155699Y0017586D01*
X0155699Y0016987D02*
X0154299Y0016987D01*
X0154299Y0016389D02*
X0155699Y0016389D01*
X0155699Y0015790D02*
X0154299Y0015790D01*
X0154299Y0015192D02*
X0155699Y0015192D01*
X0155737Y0014593D02*
X0154261Y0014593D01*
X0154139Y0013995D02*
X0155859Y0013995D01*
X0156076Y0013396D02*
X0153922Y0013396D01*
X0153592Y0012798D02*
X0156406Y0012798D01*
X0156887Y0012199D02*
X0153111Y0012199D01*
X0152404Y0011601D02*
X0157594Y0011601D01*
X0158907Y0011002D02*
X0151091Y0011002D01*
X0147594Y0011601D02*
X0010761Y0011601D01*
X0010163Y0012199D02*
X0146887Y0012199D01*
X0146406Y0012798D02*
X0009564Y0012798D01*
X0009050Y0013396D02*
X0146076Y0013396D01*
X0145859Y0013995D02*
X0008704Y0013995D01*
X0008359Y0014593D02*
X0145737Y0014593D01*
X0145699Y0015192D02*
X0008013Y0015192D01*
X0007669Y0015790D02*
X0145699Y0015790D01*
X0145699Y0016389D02*
X0007509Y0016389D01*
X0007348Y0016987D02*
X0145699Y0016987D01*
X0145699Y0017586D02*
X0007188Y0017586D01*
X0006799Y0026564D02*
X0343120Y0026564D01*
X0343120Y0027162D02*
X0006799Y0027162D01*
X0006799Y0027761D02*
X0343120Y0027761D01*
X0343120Y0028359D02*
X0006799Y0028359D01*
X0006799Y0028958D02*
X0343120Y0028958D01*
X0343120Y0029556D02*
X0006799Y0029556D01*
X0006799Y0030155D02*
X0343120Y0030155D01*
X0343120Y0030753D02*
X0006799Y0030753D01*
X0006799Y0031352D02*
X0343120Y0031352D01*
X0343120Y0031950D02*
X0006799Y0031950D01*
X0006799Y0032549D02*
X0343120Y0032549D01*
X0343120Y0033147D02*
X0006799Y0033147D01*
X0006799Y0033746D02*
X0343120Y0033746D01*
X0343120Y0034344D02*
X0091864Y0034344D01*
X0092696Y0034689D02*
X0094373Y0036366D01*
X0095281Y0038558D01*
X0095281Y0040929D01*
X0094373Y0043121D01*
X0092696Y0044798D01*
X0090505Y0045706D01*
X0089483Y0045706D01*
X0090785Y0047008D01*
X0091683Y0049176D01*
X0091683Y0050801D01*
X0092116Y0049186D01*
X0093719Y0046410D01*
X0095985Y0044143D01*
X0098762Y0042541D01*
X0101858Y0041711D01*
X0105064Y0041711D01*
X0107107Y0042258D01*
X0106971Y0042123D01*
X0106332Y0040579D01*
X0106332Y0038908D01*
X0106971Y0037364D01*
X0108153Y0036183D01*
X0109697Y0035543D01*
X0111367Y0035543D01*
X0112911Y0036183D01*
X0114093Y0037364D01*
X0114732Y0038908D01*
X0114732Y0040579D01*
X0114093Y0042123D01*
X0112911Y0043304D01*
X0111367Y0043943D01*
X0110590Y0043943D01*
X0110936Y0044143D01*
X0113203Y0046410D01*
X0113403Y0046756D01*
X0113403Y0045979D01*
X0114042Y0044435D01*
X0115224Y0043254D01*
X0116768Y0042615D01*
X0118439Y0042615D01*
X0119982Y0043254D01*
X0121164Y0044435D01*
X0121803Y0045979D01*
X0121803Y0047650D01*
X0121164Y0049194D01*
X0119982Y0050375D01*
X0118439Y0051015D01*
X0116768Y0051015D01*
X0115224Y0050375D01*
X0115088Y0050239D01*
X0115636Y0052283D01*
X0115636Y0055488D01*
X0114806Y0058585D01*
X0113203Y0061361D01*
X0110936Y0063628D01*
X0108160Y0065231D01*
X0105064Y0066060D01*
X0101858Y0066060D01*
X0101229Y0065892D01*
X0126488Y0091151D01*
X0134549Y0083089D01*
X0135126Y0082513D01*
X0134308Y0082513D01*
X0133394Y0082134D01*
X0132694Y0081434D01*
X0132316Y0080520D01*
X0132316Y0079530D01*
X0132694Y0078616D01*
X0133394Y0077916D01*
X0134308Y0077538D01*
X0134474Y0077538D01*
X0133113Y0076177D01*
X0133113Y0075970D01*
X0132906Y0075970D01*
X0131545Y0074609D01*
X0131545Y0074775D01*
X0131166Y0075689D01*
X0130467Y0076389D01*
X0129552Y0076767D01*
X0128563Y0076767D01*
X0127649Y0076389D01*
X0126949Y0075689D01*
X0126570Y0074775D01*
X0126570Y0073785D01*
X0126949Y0072871D01*
X0127649Y0072171D01*
X0128563Y0071793D01*
X0128729Y0071793D01*
X0127368Y0070432D01*
X0127368Y0069686D01*
X0131792Y0065261D01*
X0132538Y0065261D01*
X0138076Y0070800D01*
X0138076Y0071007D01*
X0138283Y0071007D01*
X0143821Y0076545D01*
X0143821Y0077290D01*
X0139397Y0081715D01*
X0138651Y0081715D01*
X0137290Y0080354D01*
X0137290Y0080520D01*
X0136912Y0081434D01*
X0136252Y0082094D01*
X0207420Y0082094D01*
X0214779Y0074734D01*
X0214099Y0073092D01*
X0214099Y0070745D01*
X0214997Y0068577D01*
X0215693Y0067881D01*
X0213813Y0067881D01*
X0211622Y0066973D01*
X0209945Y0065296D01*
X0209037Y0063105D01*
X0209037Y0060733D01*
X0209945Y0058541D01*
X0211622Y0056864D01*
X0213813Y0055956D01*
X0216185Y0055956D01*
X0218376Y0056864D01*
X0220054Y0058541D01*
X0220961Y0060733D01*
X0220961Y0063105D01*
X0220054Y0065296D01*
X0219331Y0066019D01*
X0221173Y0066019D01*
X0223341Y0066917D01*
X0224490Y0068065D01*
X0223654Y0066618D01*
X0222824Y0063521D01*
X0222824Y0060316D01*
X0223654Y0057219D01*
X0225257Y0054443D01*
X0227524Y0052176D01*
X0229356Y0051119D01*
X0229164Y0051119D01*
X0227620Y0050479D01*
X0226438Y0049298D01*
X0225799Y0047754D01*
X0225799Y0046083D01*
X0226438Y0044540D01*
X0227620Y0043358D01*
X0229164Y0042719D01*
X0230834Y0042719D01*
X0232378Y0043358D01*
X0233560Y0044540D01*
X0234199Y0046083D01*
X0234199Y0047754D01*
X0233560Y0049298D01*
X0233010Y0049847D01*
X0233396Y0049744D01*
X0236602Y0049744D01*
X0236988Y0049847D01*
X0236438Y0049298D01*
X0235799Y0047754D01*
X0235799Y0046083D01*
X0236438Y0044540D01*
X0237620Y0043358D01*
X0239164Y0042719D01*
X0240834Y0042719D01*
X0242378Y0043358D01*
X0243560Y0044540D01*
X0244199Y0046083D01*
X0244199Y0047754D01*
X0243560Y0049298D01*
X0242378Y0050479D01*
X0240834Y0051119D01*
X0240642Y0051119D01*
X0242475Y0052176D01*
X0244741Y0054443D01*
X0246344Y0057219D01*
X0247174Y0060316D01*
X0247174Y0063521D01*
X0246344Y0066618D01*
X0244741Y0069394D01*
X0243917Y0070219D01*
X0289317Y0070219D01*
X0289997Y0068577D01*
X0290693Y0067881D01*
X0288813Y0067881D01*
X0286622Y0066973D01*
X0284945Y0065296D01*
X0284037Y0063105D01*
X0284037Y0060733D01*
X0284945Y0058541D01*
X0286622Y0056864D01*
X0288813Y0055956D01*
X0291185Y0055956D01*
X0293376Y0056864D01*
X0295054Y0058541D01*
X0295961Y0060733D01*
X0295961Y0063105D01*
X0295054Y0065296D01*
X0294331Y0066019D01*
X0296173Y0066019D01*
X0298341Y0066917D01*
X0299490Y0068065D01*
X0298654Y0066618D01*
X0297824Y0063521D01*
X0297824Y0060316D01*
X0298654Y0057219D01*
X0300257Y0054443D01*
X0302524Y0052176D01*
X0304356Y0051119D01*
X0304164Y0051119D01*
X0302620Y0050479D01*
X0301438Y0049298D01*
X0300799Y0047754D01*
X0300799Y0046083D01*
X0301438Y0044540D01*
X0302620Y0043358D01*
X0304164Y0042719D01*
X0305834Y0042719D01*
X0307378Y0043358D01*
X0308560Y0044540D01*
X0309199Y0046083D01*
X0309199Y0047754D01*
X0308560Y0049298D01*
X0308010Y0049847D01*
X0308396Y0049744D01*
X0311602Y0049744D01*
X0311988Y0049847D01*
X0311438Y0049298D01*
X0310799Y0047754D01*
X0310799Y0046083D01*
X0311438Y0044540D01*
X0312620Y0043358D01*
X0314164Y0042719D01*
X0315834Y0042719D01*
X0317378Y0043358D01*
X0318560Y0044540D01*
X0319199Y0046083D01*
X0319199Y0047754D01*
X0318560Y0049298D01*
X0317378Y0050479D01*
X0315834Y0051119D01*
X0315642Y0051119D01*
X0317475Y0052176D01*
X0319741Y0054443D01*
X0321344Y0057219D01*
X0322174Y0060316D01*
X0322174Y0063521D01*
X0321344Y0066618D01*
X0319741Y0069394D01*
X0317475Y0071661D01*
X0314698Y0073264D01*
X0311602Y0074093D01*
X0308396Y0074093D01*
X0305300Y0073264D01*
X0302524Y0071661D01*
X0300398Y0069535D01*
X0300899Y0070745D01*
X0300899Y0073092D01*
X0300001Y0075261D01*
X0298341Y0076920D01*
X0296173Y0077819D01*
X0293825Y0077819D01*
X0291657Y0076920D01*
X0289997Y0075261D01*
X0289317Y0073619D01*
X0245078Y0073619D01*
X0241867Y0076830D01*
X0243825Y0076019D01*
X0246173Y0076019D01*
X0248341Y0076917D01*
X0250001Y0078577D01*
X0250899Y0080745D01*
X0250899Y0083092D01*
X0250006Y0085248D01*
X0250006Y0098725D01*
X0251435Y0098725D01*
X0251962Y0099253D01*
X0251962Y0107085D01*
X0251816Y0107231D01*
X0251962Y0107378D01*
X0251962Y0115210D01*
X0251435Y0115737D01*
X0245177Y0115737D01*
X0244650Y0115210D01*
X0244650Y0113285D01*
X0244533Y0113402D01*
X0243619Y0113781D01*
X0242629Y0113781D01*
X0241715Y0113402D01*
X0241015Y0112703D01*
X0240637Y0111788D01*
X0240637Y0110799D01*
X0241015Y0109885D01*
X0241715Y0109185D01*
X0242629Y0108806D01*
X0243619Y0108806D01*
X0244533Y0109185D01*
X0244650Y0109302D01*
X0244650Y0107378D01*
X0244797Y0107231D01*
X0244650Y0107085D01*
X0244650Y0105160D01*
X0244533Y0105277D01*
X0243619Y0105656D01*
X0242629Y0105656D01*
X0241715Y0105277D01*
X0241015Y0104578D01*
X0240637Y0103663D01*
X0240637Y0102674D01*
X0241015Y0101760D01*
X0241715Y0101060D01*
X0242629Y0100681D01*
X0243619Y0100681D01*
X0244533Y0101060D01*
X0244650Y0101177D01*
X0244650Y0099253D01*
X0245177Y0098725D01*
X0246606Y0098725D01*
X0246606Y0087639D01*
X0246173Y0087819D01*
X0243825Y0087819D01*
X0241657Y0086920D01*
X0239997Y0085261D01*
X0239099Y0083092D01*
X0239099Y0080745D01*
X0239910Y0078787D01*
X0239824Y0078873D01*
X0238828Y0079869D01*
X0225050Y0079869D01*
X0222465Y0077283D01*
X0221173Y0077819D01*
X0218825Y0077819D01*
X0217183Y0077138D01*
X0208828Y0085494D01*
X0136953Y0085494D01*
X0128892Y0093555D01*
X0133561Y0098224D01*
X0134439Y0097346D01*
X0136607Y0096448D01*
X0137591Y0096448D01*
X0136262Y0095118D01*
X0135354Y0092927D01*
X0135354Y0090555D01*
X0136262Y0088364D01*
X0137939Y0086686D01*
X0140130Y0085779D01*
X0142502Y0085779D01*
X0144694Y0086686D01*
X0146371Y0088364D01*
X0147278Y0090555D01*
X0147278Y0092927D01*
X0146371Y0095118D01*
X0144694Y0096795D01*
X0142502Y0097703D01*
X0141480Y0097703D01*
X0142783Y0099005D01*
X0143681Y0101174D01*
X0143681Y0102798D01*
X0144113Y0101184D01*
X0145716Y0098408D01*
X0147983Y0096141D01*
X0150759Y0094538D01*
X0153856Y0093708D01*
X0157061Y0093708D01*
X0159105Y0094256D01*
X0158969Y0094120D01*
X0158329Y0092576D01*
X0158329Y0090905D01*
X0158969Y0089362D01*
X0160150Y0088180D01*
X0161694Y0087541D01*
X0163365Y0087541D01*
X0164909Y0088180D01*
X0166090Y0089362D01*
X0166729Y0090905D01*
X0166729Y0092576D01*
X0166090Y0094120D01*
X0164909Y0095302D01*
X0163365Y0095941D01*
X0162588Y0095941D01*
X0162934Y0096141D01*
X0165201Y0098408D01*
X0165401Y0098754D01*
X0165401Y0097977D01*
X0166040Y0096433D01*
X0167221Y0095251D01*
X0168765Y0094612D01*
X0170436Y0094612D01*
X0171980Y0095251D01*
X0173161Y0096433D01*
X0173801Y0097977D01*
X0173801Y0099647D01*
X0173161Y0101191D01*
X0171980Y0102373D01*
X0170436Y0103012D01*
X0168765Y0103012D01*
X0167221Y0102373D01*
X0167086Y0102237D01*
X0167633Y0104280D01*
X0167633Y0107486D01*
X0166804Y0110582D01*
X0165201Y0113359D01*
X0162934Y0115625D01*
X0160158Y0117228D01*
X0157061Y0118058D01*
X0153856Y0118058D01*
X0150759Y0117228D01*
X0147983Y0115625D01*
X0145716Y0113359D01*
X0144113Y0110582D01*
X0143284Y0107486D01*
X0143284Y0104480D01*
X0142783Y0105690D01*
X0141123Y0107349D01*
X0138954Y0108248D01*
X0136607Y0108248D01*
X0134439Y0107349D01*
X0132779Y0105690D01*
X0131881Y0103521D01*
X0131881Y0101352D01*
X0126121Y0095592D01*
X0099148Y0068619D01*
X0092420Y0068619D01*
X0085079Y0061278D01*
X0084083Y0060282D01*
X0084083Y0056032D01*
X0082441Y0055352D01*
X0080781Y0053692D01*
X0079883Y0051524D01*
X0079883Y0049176D01*
X0080781Y0047008D01*
X0082441Y0045348D01*
X0084610Y0044450D01*
X0085594Y0044450D01*
X0084264Y0043121D01*
X0083357Y0040929D01*
X0083357Y0038558D01*
X0084264Y0036366D01*
X0085941Y0034689D01*
X0088133Y0033781D01*
X0090505Y0033781D01*
X0092696Y0034689D01*
X0092950Y0034943D02*
X0343120Y0034943D01*
X0343120Y0035541D02*
X0093548Y0035541D01*
X0094147Y0036140D02*
X0108257Y0036140D01*
X0107598Y0036738D02*
X0094527Y0036738D01*
X0094775Y0037337D02*
X0106999Y0037337D01*
X0106735Y0037935D02*
X0095023Y0037935D01*
X0095271Y0038534D02*
X0106487Y0038534D01*
X0106332Y0039132D02*
X0095281Y0039132D01*
X0095281Y0039731D02*
X0106332Y0039731D01*
X0106332Y0040329D02*
X0095281Y0040329D01*
X0095281Y0040928D02*
X0106477Y0040928D01*
X0106724Y0041526D02*
X0095034Y0041526D01*
X0094786Y0042125D02*
X0100313Y0042125D01*
X0098445Y0042723D02*
X0094538Y0042723D01*
X0094172Y0043322D02*
X0097408Y0043322D01*
X0096372Y0043920D02*
X0093574Y0043920D01*
X0092975Y0044519D02*
X0095610Y0044519D01*
X0095011Y0045117D02*
X0091925Y0045117D01*
X0090690Y0046913D02*
X0093428Y0046913D01*
X0093083Y0047511D02*
X0090994Y0047511D01*
X0091241Y0048110D02*
X0092737Y0048110D01*
X0092392Y0048708D02*
X0091489Y0048708D01*
X0091683Y0049307D02*
X0092084Y0049307D01*
X0091923Y0049905D02*
X0091683Y0049905D01*
X0091683Y0050504D02*
X0091763Y0050504D01*
X0090091Y0046314D02*
X0093814Y0046314D01*
X0094413Y0045716D02*
X0089493Y0045716D01*
X0085064Y0043920D02*
X0006799Y0043920D01*
X0006799Y0043322D02*
X0084465Y0043322D01*
X0084100Y0042723D02*
X0006799Y0042723D01*
X0006799Y0042125D02*
X0083852Y0042125D01*
X0083604Y0041526D02*
X0006799Y0041526D01*
X0006799Y0040928D02*
X0083357Y0040928D01*
X0083357Y0040329D02*
X0006799Y0040329D01*
X0006799Y0039731D02*
X0083357Y0039731D01*
X0083357Y0039132D02*
X0006799Y0039132D01*
X0006799Y0038534D02*
X0083366Y0038534D01*
X0083614Y0037935D02*
X0006799Y0037935D01*
X0006799Y0037337D02*
X0083862Y0037337D01*
X0084110Y0036738D02*
X0006799Y0036738D01*
X0006799Y0036140D02*
X0084491Y0036140D01*
X0085089Y0035541D02*
X0006799Y0035541D01*
X0006799Y0034943D02*
X0085688Y0034943D01*
X0086774Y0034344D02*
X0006799Y0034344D01*
X0006799Y0044519D02*
X0084444Y0044519D01*
X0082999Y0045117D02*
X0006799Y0045117D01*
X0006799Y0045716D02*
X0082074Y0045716D01*
X0081475Y0046314D02*
X0006799Y0046314D01*
X0006799Y0046913D02*
X0080877Y0046913D01*
X0080573Y0047511D02*
X0006799Y0047511D01*
X0006799Y0048110D02*
X0080325Y0048110D01*
X0080077Y0048708D02*
X0006799Y0048708D01*
X0006799Y0049307D02*
X0079883Y0049307D01*
X0079883Y0049905D02*
X0006799Y0049905D01*
X0006799Y0050504D02*
X0079883Y0050504D01*
X0079883Y0051103D02*
X0006799Y0051103D01*
X0006799Y0051701D02*
X0079957Y0051701D01*
X0080205Y0052300D02*
X0006799Y0052300D01*
X0006799Y0052898D02*
X0080453Y0052898D01*
X0080700Y0053497D02*
X0006799Y0053497D01*
X0006799Y0054095D02*
X0081184Y0054095D01*
X0081783Y0054694D02*
X0006799Y0054694D01*
X0006799Y0055292D02*
X0082381Y0055292D01*
X0083742Y0055891D02*
X0006799Y0055891D01*
X0006799Y0056489D02*
X0084083Y0056489D01*
X0084083Y0057088D02*
X0006799Y0057088D01*
X0006799Y0057686D02*
X0084083Y0057686D01*
X0084083Y0058285D02*
X0006799Y0058285D01*
X0006799Y0058883D02*
X0084083Y0058883D01*
X0084083Y0059482D02*
X0006799Y0059482D01*
X0006799Y0060080D02*
X0084083Y0060080D01*
X0084480Y0060679D02*
X0006799Y0060679D01*
X0006799Y0061277D02*
X0085078Y0061277D01*
X0085677Y0061876D02*
X0006799Y0061876D01*
X0006799Y0062474D02*
X0086275Y0062474D01*
X0086874Y0063073D02*
X0006799Y0063073D01*
X0006799Y0063671D02*
X0087472Y0063671D01*
X0088071Y0064270D02*
X0006799Y0064270D01*
X0006799Y0064868D02*
X0088670Y0064868D01*
X0089268Y0065467D02*
X0006799Y0065467D01*
X0006799Y0066065D02*
X0089867Y0066065D01*
X0090465Y0066664D02*
X0006799Y0066664D01*
X0006799Y0067262D02*
X0091064Y0067262D01*
X0091662Y0067861D02*
X0006799Y0067861D01*
X0006799Y0068459D02*
X0092261Y0068459D01*
X0093048Y0070097D02*
X0095216Y0069199D01*
X0097563Y0069199D01*
X0099732Y0070097D01*
X0101392Y0071757D01*
X0102290Y0073925D01*
X0102290Y0076272D01*
X0101392Y0078441D01*
X0099732Y0080101D01*
X0097563Y0080999D01*
X0095216Y0080999D01*
X0093048Y0080101D01*
X0091388Y0078441D01*
X0090490Y0076272D01*
X0090490Y0073925D01*
X0091388Y0071757D01*
X0093048Y0070097D01*
X0092890Y0070255D02*
X0006799Y0070255D01*
X0006799Y0070853D02*
X0092291Y0070853D01*
X0091693Y0071452D02*
X0006799Y0071452D01*
X0006799Y0072050D02*
X0091266Y0072050D01*
X0091019Y0072649D02*
X0006799Y0072649D01*
X0006799Y0073247D02*
X0090771Y0073247D01*
X0090523Y0073846D02*
X0006799Y0073846D01*
X0006799Y0074444D02*
X0090490Y0074444D01*
X0090490Y0075043D02*
X0006799Y0075043D01*
X0006799Y0075641D02*
X0090490Y0075641D01*
X0090490Y0076240D02*
X0006799Y0076240D01*
X0006799Y0076838D02*
X0090724Y0076838D01*
X0090972Y0077437D02*
X0006799Y0077437D01*
X0006799Y0078036D02*
X0091220Y0078036D01*
X0091581Y0078634D02*
X0006799Y0078634D01*
X0006799Y0079233D02*
X0092180Y0079233D01*
X0092778Y0079831D02*
X0006799Y0079831D01*
X0006799Y0080430D02*
X0093842Y0080430D01*
X0098938Y0080430D02*
X0110959Y0080430D01*
X0111557Y0081028D02*
X0006799Y0081028D01*
X0006799Y0081627D02*
X0112156Y0081627D01*
X0112754Y0082225D02*
X0006799Y0082225D01*
X0006799Y0082824D02*
X0113353Y0082824D01*
X0113951Y0083422D02*
X0006799Y0083422D01*
X0006799Y0084021D02*
X0114550Y0084021D01*
X0115148Y0084619D02*
X0006799Y0084619D01*
X0006799Y0085218D02*
X0115747Y0085218D01*
X0116345Y0085816D02*
X0038598Y0085816D01*
X0040043Y0086415D02*
X0116944Y0086415D01*
X0117542Y0087013D02*
X0041025Y0087013D01*
X0041624Y0087612D02*
X0057528Y0087612D01*
X0056126Y0088210D02*
X0042222Y0088210D01*
X0042560Y0088809D02*
X0055527Y0088809D01*
X0054955Y0089407D02*
X0042808Y0089407D01*
X0043056Y0090006D02*
X0054707Y0090006D01*
X0054459Y0090604D02*
X0043284Y0090604D01*
X0043284Y0091203D02*
X0054335Y0091203D01*
X0054335Y0091801D02*
X0043284Y0091801D01*
X0043284Y0092400D02*
X0054335Y0092400D01*
X0054509Y0092998D02*
X0043254Y0092998D01*
X0043006Y0093597D02*
X0054757Y0093597D01*
X0054884Y0094195D02*
X0055049Y0094195D01*
X0058679Y0095991D02*
X0062487Y0095991D01*
X0061980Y0096589D02*
X0059388Y0096589D01*
X0059986Y0097188D02*
X0061732Y0097188D01*
X0061484Y0097786D02*
X0060585Y0097786D01*
X0061183Y0098385D02*
X0061406Y0098385D01*
X0060694Y0095392D02*
X0063086Y0095392D01*
X0064331Y0094794D02*
X0061421Y0094794D01*
X0062020Y0094195D02*
X0124724Y0094195D01*
X0124126Y0093597D02*
X0062312Y0093597D01*
X0062560Y0092998D02*
X0123527Y0092998D01*
X0122929Y0092400D02*
X0062735Y0092400D01*
X0062735Y0091801D02*
X0122330Y0091801D01*
X0121732Y0091203D02*
X0062735Y0091203D01*
X0062610Y0090604D02*
X0121133Y0090604D01*
X0120535Y0090006D02*
X0062362Y0090006D01*
X0062114Y0089407D02*
X0119936Y0089407D01*
X0119338Y0088809D02*
X0061542Y0088809D01*
X0060943Y0088210D02*
X0118739Y0088210D01*
X0118141Y0087612D02*
X0059541Y0087612D01*
X0066880Y0094794D02*
X0117379Y0094794D01*
X0117340Y0094810D02*
X0118254Y0094431D01*
X0119244Y0094431D01*
X0120158Y0094810D01*
X0120858Y0095510D01*
X0121236Y0096424D01*
X0121236Y0097002D01*
X0123041Y0098806D01*
X0123619Y0098806D01*
X0124533Y0099185D01*
X0125233Y0099885D01*
X0125611Y0100799D01*
X0125611Y0101788D01*
X0125233Y0102703D01*
X0124533Y0103402D01*
X0123619Y0103781D01*
X0122629Y0103781D01*
X0121715Y0103402D01*
X0121015Y0102703D01*
X0120637Y0101788D01*
X0120637Y0101210D01*
X0118832Y0099406D01*
X0118254Y0099406D01*
X0117340Y0099027D01*
X0116640Y0098328D01*
X0116262Y0097413D01*
X0116262Y0096424D01*
X0116640Y0095510D01*
X0117340Y0094810D01*
X0116758Y0095392D02*
X0068126Y0095392D01*
X0068724Y0095991D02*
X0116441Y0095991D01*
X0116262Y0096589D02*
X0069231Y0096589D01*
X0069479Y0097188D02*
X0116262Y0097188D01*
X0116416Y0097786D02*
X0069727Y0097786D01*
X0069806Y0098385D02*
X0116698Y0098385D01*
X0117296Y0098983D02*
X0069806Y0098983D01*
X0069806Y0099582D02*
X0119008Y0099582D01*
X0119607Y0100180D02*
X0069585Y0100180D01*
X0069337Y0100779D02*
X0120205Y0100779D01*
X0120637Y0101377D02*
X0068980Y0101377D01*
X0068381Y0101976D02*
X0120714Y0101976D01*
X0120962Y0102574D02*
X0067497Y0102574D01*
X0063714Y0102574D02*
X0063181Y0102574D01*
X0063342Y0103173D02*
X0121486Y0103173D01*
X0122606Y0103772D02*
X0063502Y0103772D01*
X0063638Y0104370D02*
X0132232Y0104370D01*
X0131984Y0103772D02*
X0123642Y0103772D01*
X0124762Y0103173D02*
X0131881Y0103173D01*
X0131881Y0102574D02*
X0125286Y0102574D01*
X0125534Y0101976D02*
X0131881Y0101976D01*
X0131881Y0101377D02*
X0125611Y0101377D01*
X0125603Y0100779D02*
X0131308Y0100779D01*
X0130710Y0100180D02*
X0125355Y0100180D01*
X0124930Y0099582D02*
X0130111Y0099582D01*
X0129512Y0098983D02*
X0124047Y0098983D01*
X0122619Y0098385D02*
X0128914Y0098385D01*
X0128315Y0097786D02*
X0122021Y0097786D01*
X0121422Y0097188D02*
X0127717Y0097188D01*
X0127118Y0096589D02*
X0121236Y0096589D01*
X0121057Y0095991D02*
X0126520Y0095991D01*
X0125921Y0095392D02*
X0120740Y0095392D01*
X0120119Y0094794D02*
X0125323Y0094794D01*
X0128934Y0093597D02*
X0135632Y0093597D01*
X0135879Y0094195D02*
X0129533Y0094195D01*
X0130131Y0094794D02*
X0136127Y0094794D01*
X0136536Y0095392D02*
X0130730Y0095392D01*
X0131328Y0095991D02*
X0137134Y0095991D01*
X0136265Y0096589D02*
X0131927Y0096589D01*
X0132525Y0097188D02*
X0134820Y0097188D01*
X0133998Y0097786D02*
X0133124Y0097786D01*
X0135384Y0092998D02*
X0129448Y0092998D01*
X0130047Y0092400D02*
X0135354Y0092400D01*
X0135354Y0091801D02*
X0130646Y0091801D01*
X0131244Y0091203D02*
X0135354Y0091203D01*
X0135354Y0090604D02*
X0131843Y0090604D01*
X0132441Y0090006D02*
X0135582Y0090006D01*
X0135829Y0089407D02*
X0133040Y0089407D01*
X0133638Y0088809D02*
X0136077Y0088809D01*
X0136415Y0088210D02*
X0134237Y0088210D01*
X0134835Y0087612D02*
X0137014Y0087612D01*
X0137612Y0087013D02*
X0135434Y0087013D01*
X0136032Y0086415D02*
X0138595Y0086415D01*
X0140040Y0085816D02*
X0136631Y0085816D01*
X0134216Y0083422D02*
X0118759Y0083422D01*
X0118161Y0082824D02*
X0134815Y0082824D01*
X0133614Y0082225D02*
X0117562Y0082225D01*
X0116964Y0081627D02*
X0132887Y0081627D01*
X0132526Y0081028D02*
X0116365Y0081028D01*
X0115767Y0080430D02*
X0132316Y0080430D01*
X0132316Y0079831D02*
X0115168Y0079831D01*
X0114570Y0079233D02*
X0132439Y0079233D01*
X0132687Y0078634D02*
X0113971Y0078634D01*
X0113373Y0078036D02*
X0133275Y0078036D01*
X0134373Y0077437D02*
X0112774Y0077437D01*
X0112176Y0076838D02*
X0133775Y0076838D01*
X0133176Y0076240D02*
X0130615Y0076240D01*
X0131186Y0075641D02*
X0132578Y0075641D01*
X0131979Y0075043D02*
X0131434Y0075043D01*
X0127500Y0076240D02*
X0111577Y0076240D01*
X0110979Y0075641D02*
X0126929Y0075641D01*
X0126681Y0075043D02*
X0110380Y0075043D01*
X0109782Y0074444D02*
X0126570Y0074444D01*
X0126570Y0073846D02*
X0119137Y0073846D01*
X0118789Y0073990D02*
X0120980Y0073082D01*
X0122658Y0071405D01*
X0123565Y0069214D01*
X0123565Y0066842D01*
X0122658Y0064650D01*
X0120980Y0062973D01*
X0118789Y0062066D01*
X0116417Y0062066D01*
X0114226Y0062973D01*
X0112549Y0064650D01*
X0111641Y0066842D01*
X0111641Y0069214D01*
X0112549Y0071405D01*
X0114226Y0073082D01*
X0116417Y0073990D01*
X0118789Y0073990D01*
X0120582Y0073247D02*
X0126793Y0073247D01*
X0127171Y0072649D02*
X0121414Y0072649D01*
X0122012Y0072050D02*
X0127940Y0072050D01*
X0128388Y0071452D02*
X0122611Y0071452D01*
X0122886Y0070853D02*
X0127789Y0070853D01*
X0127368Y0070255D02*
X0123134Y0070255D01*
X0123382Y0069656D02*
X0127398Y0069656D01*
X0127996Y0069058D02*
X0123565Y0069058D01*
X0123565Y0068459D02*
X0128595Y0068459D01*
X0129193Y0067861D02*
X0123565Y0067861D01*
X0123565Y0067262D02*
X0129792Y0067262D01*
X0130390Y0066664D02*
X0123492Y0066664D01*
X0123244Y0066065D02*
X0130989Y0066065D01*
X0131587Y0065467D02*
X0122996Y0065467D01*
X0122748Y0064868D02*
X0140735Y0064868D01*
X0140136Y0064270D02*
X0122277Y0064270D01*
X0121678Y0063671D02*
X0139538Y0063671D01*
X0138939Y0063073D02*
X0121080Y0063073D01*
X0119776Y0062474D02*
X0138341Y0062474D01*
X0137742Y0061876D02*
X0112689Y0061876D01*
X0113252Y0061277D02*
X0137144Y0061277D01*
X0136833Y0060966D02*
X0136833Y0060221D01*
X0141258Y0055796D01*
X0142003Y0055796D01*
X0143364Y0057157D01*
X0143364Y0056991D01*
X0143743Y0056077D01*
X0144442Y0055377D01*
X0145357Y0054999D01*
X0146346Y0054999D01*
X0147260Y0055377D01*
X0147960Y0056077D01*
X0148339Y0056991D01*
X0148339Y0057981D01*
X0147960Y0058895D01*
X0147260Y0059595D01*
X0146346Y0059974D01*
X0146181Y0059974D01*
X0147541Y0061334D01*
X0147541Y0061542D01*
X0147748Y0061542D01*
X0149109Y0062902D01*
X0149109Y0062737D01*
X0149488Y0061822D01*
X0150188Y0061123D01*
X0151102Y0060744D01*
X0152091Y0060744D01*
X0153006Y0061123D01*
X0153705Y0061822D01*
X0154084Y0062737D01*
X0154084Y0063726D01*
X0153705Y0064640D01*
X0153006Y0065340D01*
X0152091Y0065719D01*
X0151926Y0065719D01*
X0153287Y0067080D01*
X0153287Y0067825D01*
X0148862Y0072250D01*
X0148116Y0072250D01*
X0142578Y0066712D01*
X0142578Y0066505D01*
X0142371Y0066505D01*
X0136833Y0060966D01*
X0136833Y0060679D02*
X0113597Y0060679D01*
X0113943Y0060080D02*
X0136974Y0060080D01*
X0137572Y0059482D02*
X0114288Y0059482D01*
X0114634Y0058883D02*
X0138171Y0058883D01*
X0138769Y0058285D02*
X0114887Y0058285D01*
X0115047Y0057686D02*
X0139368Y0057686D01*
X0139966Y0057088D02*
X0115207Y0057088D01*
X0115368Y0056489D02*
X0140565Y0056489D01*
X0141163Y0055891D02*
X0115528Y0055891D01*
X0115636Y0055292D02*
X0144649Y0055292D01*
X0143929Y0055891D02*
X0142098Y0055891D01*
X0142696Y0056489D02*
X0143572Y0056489D01*
X0143364Y0057088D02*
X0143295Y0057088D01*
X0147054Y0055292D02*
X0224767Y0055292D01*
X0225112Y0054694D02*
X0115636Y0054694D01*
X0115636Y0054095D02*
X0225605Y0054095D01*
X0226203Y0053497D02*
X0115636Y0053497D01*
X0115636Y0052898D02*
X0226802Y0052898D01*
X0227400Y0052300D02*
X0115636Y0052300D01*
X0115480Y0051701D02*
X0228347Y0051701D01*
X0229125Y0051103D02*
X0115319Y0051103D01*
X0115159Y0050504D02*
X0115535Y0050504D01*
X0119671Y0050504D02*
X0227680Y0050504D01*
X0227046Y0049905D02*
X0120452Y0049905D01*
X0121050Y0049307D02*
X0226448Y0049307D01*
X0226194Y0048708D02*
X0121365Y0048708D01*
X0121613Y0048110D02*
X0225946Y0048110D01*
X0225799Y0047511D02*
X0121803Y0047511D01*
X0121803Y0046913D02*
X0225799Y0046913D01*
X0225799Y0046314D02*
X0121803Y0046314D01*
X0121694Y0045716D02*
X0225951Y0045716D01*
X0226199Y0045117D02*
X0121446Y0045117D01*
X0121198Y0044519D02*
X0226459Y0044519D01*
X0227058Y0043920D02*
X0120649Y0043920D01*
X0120050Y0043322D02*
X0227707Y0043322D01*
X0229152Y0042723D02*
X0118701Y0042723D01*
X0116505Y0042723D02*
X0113492Y0042723D01*
X0114090Y0042125D02*
X0343120Y0042125D01*
X0343120Y0042723D02*
X0315846Y0042723D01*
X0317291Y0043322D02*
X0343120Y0043322D01*
X0343120Y0043920D02*
X0317940Y0043920D01*
X0318539Y0044519D02*
X0343120Y0044519D01*
X0343120Y0045117D02*
X0318799Y0045117D01*
X0319047Y0045716D02*
X0343120Y0045716D01*
X0343120Y0046314D02*
X0319199Y0046314D01*
X0319199Y0046913D02*
X0343120Y0046913D01*
X0343120Y0047511D02*
X0319199Y0047511D01*
X0319052Y0048110D02*
X0343120Y0048110D01*
X0343120Y0048708D02*
X0318804Y0048708D01*
X0318550Y0049307D02*
X0343120Y0049307D01*
X0343120Y0049905D02*
X0317952Y0049905D01*
X0317318Y0050504D02*
X0343120Y0050504D01*
X0343120Y0051103D02*
X0315873Y0051103D01*
X0316651Y0051701D02*
X0343120Y0051701D01*
X0343120Y0052300D02*
X0317598Y0052300D01*
X0318196Y0052898D02*
X0343120Y0052898D01*
X0343120Y0053497D02*
X0318795Y0053497D01*
X0319393Y0054095D02*
X0343120Y0054095D01*
X0343120Y0054694D02*
X0319886Y0054694D01*
X0320231Y0055292D02*
X0343120Y0055292D01*
X0343120Y0055891D02*
X0320577Y0055891D01*
X0320923Y0056489D02*
X0327527Y0056489D01*
X0326622Y0056864D02*
X0328813Y0055956D01*
X0331185Y0055956D01*
X0333376Y0056864D01*
X0335054Y0058541D01*
X0335961Y0060733D01*
X0335961Y0063105D01*
X0335054Y0065296D01*
X0333376Y0066973D01*
X0331185Y0067881D01*
X0328813Y0067881D01*
X0326622Y0066973D01*
X0324945Y0065296D01*
X0324037Y0063105D01*
X0324037Y0060733D01*
X0324945Y0058541D01*
X0326622Y0056864D01*
X0326398Y0057088D02*
X0321268Y0057088D01*
X0321469Y0057686D02*
X0325800Y0057686D01*
X0325201Y0058285D02*
X0321630Y0058285D01*
X0321790Y0058883D02*
X0324803Y0058883D01*
X0324555Y0059482D02*
X0321950Y0059482D01*
X0322111Y0060080D02*
X0324307Y0060080D01*
X0324059Y0060679D02*
X0322174Y0060679D01*
X0322174Y0061277D02*
X0324037Y0061277D01*
X0324037Y0061876D02*
X0322174Y0061876D01*
X0322174Y0062474D02*
X0324037Y0062474D01*
X0324037Y0063073D02*
X0322174Y0063073D01*
X0322134Y0063671D02*
X0324272Y0063671D01*
X0324519Y0064270D02*
X0321973Y0064270D01*
X0321813Y0064868D02*
X0324767Y0064868D01*
X0325115Y0065467D02*
X0321653Y0065467D01*
X0321492Y0066065D02*
X0325714Y0066065D01*
X0326312Y0066664D02*
X0321318Y0066664D01*
X0320972Y0067262D02*
X0327320Y0067262D01*
X0328765Y0067861D02*
X0320627Y0067861D01*
X0320281Y0068459D02*
X0343120Y0068459D01*
X0343120Y0067861D02*
X0331233Y0067861D01*
X0332678Y0067262D02*
X0343120Y0067262D01*
X0343120Y0066664D02*
X0333686Y0066664D01*
X0334284Y0066065D02*
X0343120Y0066065D01*
X0343120Y0065467D02*
X0334883Y0065467D01*
X0335231Y0064868D02*
X0343120Y0064868D01*
X0343120Y0064270D02*
X0335479Y0064270D01*
X0335726Y0063671D02*
X0343120Y0063671D01*
X0343120Y0063073D02*
X0335961Y0063073D01*
X0335961Y0062474D02*
X0343120Y0062474D01*
X0343120Y0061876D02*
X0335961Y0061876D01*
X0335961Y0061277D02*
X0343120Y0061277D01*
X0343120Y0060679D02*
X0335939Y0060679D01*
X0335691Y0060080D02*
X0343120Y0060080D01*
X0343120Y0059482D02*
X0335443Y0059482D01*
X0335195Y0058883D02*
X0343120Y0058883D01*
X0343120Y0058285D02*
X0334797Y0058285D01*
X0334198Y0057686D02*
X0343120Y0057686D01*
X0343120Y0057088D02*
X0333600Y0057088D01*
X0332471Y0056489D02*
X0343120Y0056489D01*
X0343120Y0069058D02*
X0319935Y0069058D01*
X0319479Y0069656D02*
X0343120Y0069656D01*
X0343120Y0070255D02*
X0318881Y0070255D01*
X0318282Y0070853D02*
X0343120Y0070853D01*
X0343120Y0071452D02*
X0317684Y0071452D01*
X0316800Y0072050D02*
X0343120Y0072050D01*
X0343120Y0072649D02*
X0315763Y0072649D01*
X0314727Y0073247D02*
X0343120Y0073247D01*
X0343120Y0073846D02*
X0312525Y0073846D01*
X0316137Y0077437D02*
X0297094Y0077437D01*
X0298423Y0076838D02*
X0316846Y0076838D01*
X0316657Y0076917D02*
X0318825Y0076019D01*
X0321173Y0076019D01*
X0323341Y0076917D01*
X0325001Y0078577D01*
X0325899Y0080745D01*
X0325899Y0083092D01*
X0325001Y0085261D01*
X0323341Y0086920D01*
X0321173Y0087819D01*
X0319628Y0087819D01*
X0304361Y0103085D01*
X0304361Y0103663D01*
X0303983Y0104578D01*
X0303283Y0105277D01*
X0302369Y0105656D01*
X0301379Y0105656D01*
X0300465Y0105277D01*
X0300348Y0105160D01*
X0300348Y0107085D01*
X0300201Y0107231D01*
X0300348Y0107378D01*
X0300348Y0109302D01*
X0300465Y0109185D01*
X0301379Y0108806D01*
X0302369Y0108806D01*
X0303283Y0109185D01*
X0303692Y0109594D01*
X0305703Y0109594D01*
X0324824Y0128714D01*
X0324824Y0148832D01*
X0324945Y0148541D01*
X0326622Y0146864D01*
X0328813Y0145956D01*
X0331185Y0145956D01*
X0333376Y0146864D01*
X0335054Y0148541D01*
X0335961Y0150733D01*
X0335961Y0153105D01*
X0335054Y0155296D01*
X0333376Y0156973D01*
X0331185Y0157881D01*
X0328813Y0157881D01*
X0326622Y0156973D01*
X0324945Y0155296D01*
X0324824Y0155005D01*
X0324824Y0160748D01*
X0323828Y0161744D01*
X0321699Y0163873D01*
X0321699Y0166237D01*
X0323341Y0166917D01*
X0325001Y0168577D01*
X0325899Y0170745D01*
X0325899Y0173092D01*
X0325001Y0175261D01*
X0323341Y0176920D01*
X0321173Y0177819D01*
X0318825Y0177819D01*
X0316657Y0176920D01*
X0314997Y0175261D01*
X0314099Y0173092D01*
X0314099Y0170745D01*
X0314997Y0168577D01*
X0316657Y0166917D01*
X0318299Y0166237D01*
X0318299Y0162464D01*
X0321424Y0159339D01*
X0321424Y0156320D01*
X0321344Y0156618D01*
X0319741Y0159394D01*
X0317475Y0161661D01*
X0314698Y0163264D01*
X0311602Y0164093D01*
X0308396Y0164093D01*
X0305300Y0163264D01*
X0302524Y0161661D01*
X0300398Y0159535D01*
X0300899Y0160745D01*
X0300899Y0163092D01*
X0300001Y0165261D01*
X0298341Y0166920D01*
X0296173Y0167819D01*
X0293825Y0167819D01*
X0291657Y0166920D01*
X0289997Y0165261D01*
X0289317Y0163619D01*
X0246328Y0163619D01*
X0243928Y0166019D01*
X0246173Y0166019D01*
X0248341Y0166917D01*
X0250001Y0168577D01*
X0250899Y0170745D01*
X0250899Y0173092D01*
X0250001Y0175261D01*
X0248341Y0176920D01*
X0246173Y0177819D01*
X0243825Y0177819D01*
X0241657Y0176920D01*
X0239997Y0175261D01*
X0239099Y0173092D01*
X0239099Y0170745D01*
X0239997Y0168577D01*
X0240580Y0167994D01*
X0228045Y0167994D01*
X0227049Y0166998D01*
X0225092Y0165041D01*
X0225001Y0165261D01*
X0223341Y0166920D01*
X0221173Y0167819D01*
X0218825Y0167819D01*
X0216657Y0166920D01*
X0214997Y0165261D01*
X0214317Y0163619D01*
X0165567Y0163619D01*
X0165158Y0164027D01*
X0164244Y0164406D01*
X0163254Y0164406D01*
X0162340Y0164027D01*
X0161640Y0163328D01*
X0161262Y0162413D01*
X0161262Y0161424D01*
X0161640Y0160510D01*
X0162340Y0159810D01*
X0163254Y0159431D01*
X0164244Y0159431D01*
X0165158Y0159810D01*
X0165567Y0160219D01*
X0214317Y0160219D01*
X0214997Y0158577D01*
X0215693Y0157881D01*
X0213813Y0157881D01*
X0211622Y0156973D01*
X0209945Y0155296D01*
X0209037Y0153105D01*
X0209037Y0150733D01*
X0209945Y0148541D01*
X0211622Y0146864D01*
X0213813Y0145956D01*
X0216185Y0145956D01*
X0218376Y0146864D01*
X0220054Y0148541D01*
X0220961Y0150733D01*
X0220961Y0153105D01*
X0220054Y0155296D01*
X0219331Y0156019D01*
X0221173Y0156019D01*
X0223341Y0156917D01*
X0224490Y0158065D01*
X0223654Y0156618D01*
X0222824Y0153521D01*
X0222824Y0150316D01*
X0223654Y0147219D01*
X0225257Y0144443D01*
X0227524Y0142176D01*
X0229356Y0141119D01*
X0229164Y0141119D01*
X0227620Y0140479D01*
X0226438Y0139298D01*
X0225799Y0137754D01*
X0225799Y0136083D01*
X0226438Y0134540D01*
X0227620Y0133358D01*
X0229164Y0132719D01*
X0230834Y0132719D01*
X0232378Y0133358D01*
X0233560Y0134540D01*
X0234199Y0136083D01*
X0234199Y0137754D01*
X0233560Y0139298D01*
X0233010Y0139847D01*
X0233396Y0139744D01*
X0236602Y0139744D01*
X0236988Y0139847D01*
X0236438Y0139298D01*
X0235799Y0137754D01*
X0235799Y0136083D01*
X0236438Y0134540D01*
X0237620Y0133358D01*
X0239164Y0132719D01*
X0240834Y0132719D01*
X0242378Y0133358D01*
X0243560Y0134540D01*
X0244199Y0136083D01*
X0244199Y0137754D01*
X0243560Y0139298D01*
X0242378Y0140479D01*
X0240834Y0141119D01*
X0240642Y0141119D01*
X0242475Y0142176D01*
X0244741Y0144443D01*
X0246344Y0147219D01*
X0247174Y0150316D01*
X0247174Y0153521D01*
X0246344Y0156618D01*
X0244741Y0159394D01*
X0242475Y0161661D01*
X0239698Y0163264D01*
X0236602Y0164093D01*
X0233396Y0164093D01*
X0230300Y0163264D01*
X0227524Y0161661D01*
X0225398Y0159535D01*
X0225899Y0160745D01*
X0225899Y0161039D01*
X0229453Y0164594D01*
X0240545Y0164594D01*
X0244920Y0160219D01*
X0289317Y0160219D01*
X0289997Y0158577D01*
X0290693Y0157881D01*
X0288813Y0157881D01*
X0286622Y0156973D01*
X0284945Y0155296D01*
X0284037Y0153105D01*
X0284037Y0150733D01*
X0284945Y0148541D01*
X0286622Y0146864D01*
X0288813Y0145956D01*
X0291185Y0145956D01*
X0293376Y0146864D01*
X0295054Y0148541D01*
X0295961Y0150733D01*
X0295961Y0153105D01*
X0295054Y0155296D01*
X0294331Y0156019D01*
X0296173Y0156019D01*
X0298341Y0156917D01*
X0299490Y0158065D01*
X0298654Y0156618D01*
X0297824Y0153521D01*
X0297824Y0150316D01*
X0298654Y0147219D01*
X0300257Y0144443D01*
X0302524Y0142176D01*
X0304356Y0141119D01*
X0304164Y0141119D01*
X0302620Y0140479D01*
X0301438Y0139298D01*
X0300799Y0137754D01*
X0300799Y0136083D01*
X0301438Y0134540D01*
X0302620Y0133358D01*
X0304164Y0132719D01*
X0305834Y0132719D01*
X0307378Y0133358D01*
X0308560Y0134540D01*
X0309199Y0136083D01*
X0309199Y0137754D01*
X0308560Y0139298D01*
X0308010Y0139847D01*
X0308396Y0139744D01*
X0311602Y0139744D01*
X0311988Y0139847D01*
X0311438Y0139298D01*
X0310799Y0137754D01*
X0310799Y0136083D01*
X0311438Y0134540D01*
X0312620Y0133358D01*
X0314164Y0132719D01*
X0315834Y0132719D01*
X0317378Y0133358D01*
X0318560Y0134540D01*
X0319199Y0136083D01*
X0319199Y0137754D01*
X0318560Y0139298D01*
X0317378Y0140479D01*
X0315834Y0141119D01*
X0315642Y0141119D01*
X0317475Y0142176D01*
X0319741Y0144443D01*
X0321344Y0147219D01*
X0321424Y0147518D01*
X0321424Y0130123D01*
X0304295Y0112994D01*
X0303692Y0112994D01*
X0303283Y0113402D01*
X0302369Y0113781D01*
X0301379Y0113781D01*
X0300465Y0113402D01*
X0300348Y0113285D01*
X0300348Y0115210D01*
X0299821Y0115737D01*
X0293563Y0115737D01*
X0293036Y0115210D01*
X0293036Y0107378D01*
X0293182Y0107231D01*
X0293036Y0107085D01*
X0293036Y0099253D01*
X0293563Y0098725D01*
X0299821Y0098725D01*
X0300348Y0099253D01*
X0300348Y0101177D01*
X0300465Y0101060D01*
X0301379Y0100681D01*
X0301957Y0100681D01*
X0316188Y0086451D01*
X0314997Y0085261D01*
X0314099Y0083092D01*
X0314099Y0080745D01*
X0314997Y0078577D01*
X0316657Y0076917D01*
X0315538Y0078036D02*
X0249460Y0078036D01*
X0250025Y0078634D02*
X0314973Y0078634D01*
X0314726Y0079233D02*
X0250273Y0079233D01*
X0250520Y0079831D02*
X0314478Y0079831D01*
X0314230Y0080430D02*
X0250768Y0080430D01*
X0250899Y0081028D02*
X0314099Y0081028D01*
X0314099Y0081627D02*
X0250899Y0081627D01*
X0250899Y0082225D02*
X0314099Y0082225D01*
X0314099Y0082824D02*
X0250899Y0082824D01*
X0250762Y0083422D02*
X0314236Y0083422D01*
X0314484Y0084021D02*
X0250514Y0084021D01*
X0250267Y0084619D02*
X0314731Y0084619D01*
X0314979Y0085218D02*
X0250019Y0085218D01*
X0250006Y0085816D02*
X0315553Y0085816D01*
X0316151Y0086415D02*
X0250006Y0086415D01*
X0250006Y0087013D02*
X0315625Y0087013D01*
X0315027Y0087612D02*
X0250006Y0087612D01*
X0250006Y0088210D02*
X0314428Y0088210D01*
X0313830Y0088809D02*
X0250006Y0088809D01*
X0250006Y0089407D02*
X0313231Y0089407D01*
X0312633Y0090006D02*
X0250006Y0090006D01*
X0250006Y0090604D02*
X0312034Y0090604D01*
X0311436Y0091203D02*
X0250006Y0091203D01*
X0250006Y0091801D02*
X0310837Y0091801D01*
X0310239Y0092400D02*
X0250006Y0092400D01*
X0250006Y0092998D02*
X0309640Y0092998D01*
X0309042Y0093597D02*
X0250006Y0093597D01*
X0250006Y0094195D02*
X0308443Y0094195D01*
X0307845Y0094794D02*
X0250006Y0094794D01*
X0250006Y0095392D02*
X0307246Y0095392D01*
X0306648Y0095991D02*
X0250006Y0095991D01*
X0250006Y0096589D02*
X0306049Y0096589D01*
X0305451Y0097188D02*
X0250006Y0097188D01*
X0250006Y0097786D02*
X0304852Y0097786D01*
X0304254Y0098385D02*
X0250006Y0098385D01*
X0251693Y0098983D02*
X0258305Y0098983D01*
X0258563Y0098725D02*
X0264821Y0098725D01*
X0265348Y0099253D01*
X0265348Y0101177D01*
X0265465Y0101060D01*
X0266379Y0100681D01*
X0267369Y0100681D01*
X0268283Y0101060D01*
X0268983Y0101760D01*
X0269361Y0102674D01*
X0269361Y0103663D01*
X0268983Y0104578D01*
X0268283Y0105277D01*
X0267369Y0105656D01*
X0266379Y0105656D01*
X0265465Y0105277D01*
X0265348Y0105160D01*
X0265348Y0107085D01*
X0265201Y0107231D01*
X0265348Y0107378D01*
X0265348Y0109302D01*
X0265465Y0109185D01*
X0266379Y0108806D01*
X0267369Y0108806D01*
X0268283Y0109185D01*
X0268983Y0109885D01*
X0269361Y0110799D01*
X0269361Y0111788D01*
X0268983Y0112703D01*
X0268283Y0113402D01*
X0267369Y0113781D01*
X0266379Y0113781D01*
X0265465Y0113402D01*
X0265348Y0113285D01*
X0265348Y0115210D01*
X0264821Y0115737D01*
X0258563Y0115737D01*
X0258036Y0115210D01*
X0258036Y0107378D01*
X0258182Y0107231D01*
X0258036Y0107085D01*
X0258036Y0099253D01*
X0258563Y0098725D01*
X0258036Y0099582D02*
X0251962Y0099582D01*
X0251962Y0100180D02*
X0258036Y0100180D01*
X0258036Y0100779D02*
X0251962Y0100779D01*
X0251962Y0101377D02*
X0258036Y0101377D01*
X0258036Y0101976D02*
X0251962Y0101976D01*
X0251962Y0102574D02*
X0258036Y0102574D01*
X0258036Y0103173D02*
X0251962Y0103173D01*
X0251962Y0103772D02*
X0258036Y0103772D01*
X0258036Y0104370D02*
X0251962Y0104370D01*
X0251962Y0104969D02*
X0258036Y0104969D01*
X0258036Y0105567D02*
X0251962Y0105567D01*
X0251962Y0106166D02*
X0258036Y0106166D01*
X0258036Y0106764D02*
X0251962Y0106764D01*
X0251947Y0107363D02*
X0258051Y0107363D01*
X0258036Y0107961D02*
X0251962Y0107961D01*
X0251962Y0108560D02*
X0258036Y0108560D01*
X0258036Y0109158D02*
X0251962Y0109158D01*
X0251962Y0109757D02*
X0258036Y0109757D01*
X0258036Y0110355D02*
X0251962Y0110355D01*
X0251962Y0110954D02*
X0258036Y0110954D01*
X0258036Y0111552D02*
X0251962Y0111552D01*
X0251962Y0112151D02*
X0258036Y0112151D01*
X0258036Y0112749D02*
X0251962Y0112749D01*
X0251962Y0113348D02*
X0258036Y0113348D01*
X0258036Y0113946D02*
X0251962Y0113946D01*
X0251962Y0114545D02*
X0258036Y0114545D01*
X0258036Y0115143D02*
X0251962Y0115143D01*
X0244650Y0115143D02*
X0173150Y0115143D01*
X0172978Y0114971D02*
X0174655Y0116648D01*
X0175563Y0118839D01*
X0175563Y0121211D01*
X0174655Y0123403D01*
X0172978Y0125080D01*
X0170787Y0125987D01*
X0168415Y0125987D01*
X0166223Y0125080D01*
X0164546Y0123403D01*
X0163638Y0121211D01*
X0163638Y0118839D01*
X0164546Y0116648D01*
X0166223Y0114971D01*
X0168415Y0114063D01*
X0170787Y0114063D01*
X0172978Y0114971D01*
X0173749Y0115742D02*
X0307043Y0115742D01*
X0307641Y0116340D02*
X0174347Y0116340D01*
X0174776Y0116939D02*
X0308240Y0116939D01*
X0308838Y0117537D02*
X0175023Y0117537D01*
X0175271Y0118136D02*
X0309437Y0118136D01*
X0310036Y0118734D02*
X0175519Y0118734D01*
X0175563Y0119333D02*
X0310634Y0119333D01*
X0311233Y0119931D02*
X0175563Y0119931D01*
X0175563Y0120530D02*
X0311831Y0120530D01*
X0312430Y0121128D02*
X0175563Y0121128D01*
X0175349Y0121727D02*
X0313028Y0121727D01*
X0313627Y0122325D02*
X0175101Y0122325D01*
X0174853Y0122924D02*
X0314225Y0122924D01*
X0314824Y0123522D02*
X0174535Y0123522D01*
X0173937Y0124121D02*
X0315422Y0124121D01*
X0316021Y0124719D02*
X0173338Y0124719D01*
X0172403Y0125318D02*
X0316619Y0125318D01*
X0317218Y0125916D02*
X0170958Y0125916D01*
X0168243Y0125916D02*
X0159824Y0125916D01*
X0159824Y0125589D02*
X0159824Y0163089D01*
X0186943Y0190209D01*
X0187790Y0189362D01*
X0189223Y0188769D01*
X0190775Y0188769D01*
X0192208Y0189362D01*
X0193305Y0190459D01*
X0193899Y0191893D01*
X0193899Y0199444D01*
X0193305Y0200878D01*
X0192208Y0201975D01*
X0190775Y0202569D01*
X0189223Y0202569D01*
X0187790Y0201975D01*
X0186693Y0200878D01*
X0186099Y0199444D01*
X0186099Y0194173D01*
X0183899Y0191973D01*
X0183899Y0199444D01*
X0183305Y0200878D01*
X0182208Y0201975D01*
X0180775Y0202569D01*
X0179223Y0202569D01*
X0177790Y0201975D01*
X0176693Y0200878D01*
X0176099Y0199444D01*
X0176099Y0191893D01*
X0176693Y0190459D01*
X0177790Y0189362D01*
X0179223Y0188769D01*
X0180695Y0188769D01*
X0156424Y0164498D01*
X0156424Y0146648D01*
X0156328Y0146744D01*
X0154053Y0149019D01*
X0154053Y0149775D01*
X0153674Y0150689D01*
X0152974Y0151389D01*
X0152060Y0151767D01*
X0151071Y0151767D01*
X0150156Y0151389D01*
X0149457Y0150689D01*
X0149078Y0149775D01*
X0149078Y0149609D01*
X0147717Y0150970D01*
X0147510Y0150970D01*
X0147510Y0151177D01*
X0146149Y0152538D01*
X0146315Y0152538D01*
X0147229Y0152916D01*
X0147929Y0153616D01*
X0148307Y0154530D01*
X0148307Y0155520D01*
X0147929Y0156434D01*
X0147520Y0156843D01*
X0147520Y0158052D01*
X0146524Y0159048D01*
X0122578Y0182994D01*
X0101388Y0182994D01*
X0101007Y0183132D01*
X0100795Y0183033D01*
X0099732Y0184096D01*
X0097563Y0184994D01*
X0095216Y0184994D01*
X0093048Y0184096D01*
X0091388Y0182436D01*
X0090490Y0180267D01*
X0090490Y0177920D01*
X0091388Y0175752D01*
X0093048Y0174092D01*
X0095216Y0173194D01*
X0097563Y0173194D01*
X0099732Y0174092D01*
X0101392Y0175752D01*
X0102290Y0177920D01*
X0102290Y0179594D01*
X0121170Y0179594D01*
X0144020Y0156743D01*
X0143711Y0156434D01*
X0143333Y0155520D01*
X0143333Y0155354D01*
X0141972Y0156715D01*
X0141226Y0156715D01*
X0136802Y0152290D01*
X0136802Y0151545D01*
X0142340Y0146007D01*
X0142547Y0146007D01*
X0142547Y0145800D01*
X0148085Y0140261D01*
X0148831Y0140261D01*
X0153255Y0144686D01*
X0153255Y0145008D01*
X0153924Y0144339D01*
X0153924Y0135037D01*
X0151203Y0132316D01*
X0149561Y0132996D01*
X0147214Y0132996D01*
X0145045Y0132098D01*
X0143386Y0130438D01*
X0142487Y0128270D01*
X0142487Y0125923D01*
X0143386Y0123754D01*
X0145045Y0122095D01*
X0145892Y0121744D01*
X0142578Y0121744D01*
X0136472Y0127850D01*
X0136472Y0130668D01*
X0136880Y0131077D01*
X0137259Y0131991D01*
X0137259Y0132157D01*
X0138620Y0130796D01*
X0139365Y0130796D01*
X0143790Y0135221D01*
X0143790Y0135966D01*
X0138252Y0141505D01*
X0138045Y0141505D01*
X0138045Y0141712D01*
X0132507Y0147250D01*
X0131761Y0147250D01*
X0127336Y0142825D01*
X0127336Y0142080D01*
X0128697Y0140719D01*
X0128532Y0140719D01*
X0127617Y0140340D01*
X0126918Y0139640D01*
X0126539Y0138726D01*
X0126539Y0137737D01*
X0126918Y0136822D01*
X0127617Y0136123D01*
X0128532Y0135744D01*
X0129521Y0135744D01*
X0130435Y0136123D01*
X0131135Y0136822D01*
X0131514Y0137737D01*
X0131514Y0137902D01*
X0132875Y0136542D01*
X0133082Y0136542D01*
X0133082Y0136334D01*
X0134442Y0134974D01*
X0134277Y0134974D01*
X0133363Y0134595D01*
X0132663Y0133895D01*
X0132284Y0132981D01*
X0132284Y0131991D01*
X0132663Y0131077D01*
X0133072Y0130668D01*
X0133072Y0126442D01*
X0134067Y0125446D01*
X0141170Y0118344D01*
X0152578Y0118344D01*
X0153574Y0119339D01*
X0159824Y0125589D01*
X0159552Y0125318D02*
X0166798Y0125318D01*
X0165863Y0124719D02*
X0158954Y0124719D01*
X0158355Y0124121D02*
X0165264Y0124121D01*
X0164666Y0123522D02*
X0157757Y0123522D01*
X0157158Y0122924D02*
X0164348Y0122924D01*
X0164100Y0122325D02*
X0156560Y0122325D01*
X0155961Y0121727D02*
X0163852Y0121727D01*
X0163638Y0121128D02*
X0155363Y0121128D01*
X0154764Y0120530D02*
X0163638Y0120530D01*
X0163638Y0119931D02*
X0154166Y0119931D01*
X0153567Y0119333D02*
X0163638Y0119333D01*
X0163682Y0118734D02*
X0152969Y0118734D01*
X0151913Y0117537D02*
X0071028Y0117537D01*
X0070781Y0116939D02*
X0150258Y0116939D01*
X0149221Y0116340D02*
X0070352Y0116340D01*
X0070660Y0116648D02*
X0071568Y0118839D01*
X0071568Y0121211D01*
X0070660Y0123403D01*
X0068983Y0125080D01*
X0066792Y0125987D01*
X0064420Y0125987D01*
X0062228Y0125080D01*
X0060551Y0123403D01*
X0059643Y0121211D01*
X0059643Y0118839D01*
X0060551Y0116648D01*
X0062228Y0114971D01*
X0064420Y0114063D01*
X0066792Y0114063D01*
X0068983Y0114971D01*
X0070660Y0116648D01*
X0069754Y0115742D02*
X0148185Y0115742D01*
X0147501Y0115143D02*
X0069155Y0115143D01*
X0067954Y0114545D02*
X0146902Y0114545D01*
X0146304Y0113946D02*
X0060618Y0113946D01*
X0061212Y0113348D02*
X0145710Y0113348D01*
X0145364Y0112749D02*
X0061558Y0112749D01*
X0061903Y0112151D02*
X0145019Y0112151D01*
X0144673Y0111552D02*
X0062249Y0111552D01*
X0062594Y0110954D02*
X0144328Y0110954D01*
X0144052Y0110355D02*
X0062869Y0110355D01*
X0063030Y0109757D02*
X0143892Y0109757D01*
X0143732Y0109158D02*
X0063190Y0109158D01*
X0063351Y0108560D02*
X0143571Y0108560D01*
X0143411Y0107961D02*
X0139646Y0107961D01*
X0141091Y0107363D02*
X0143284Y0107363D01*
X0143284Y0106764D02*
X0141708Y0106764D01*
X0142307Y0106166D02*
X0143284Y0106166D01*
X0143284Y0105567D02*
X0142833Y0105567D01*
X0143081Y0104969D02*
X0143284Y0104969D01*
X0143681Y0102574D02*
X0143741Y0102574D01*
X0143681Y0101976D02*
X0143901Y0101976D01*
X0144061Y0101377D02*
X0143681Y0101377D01*
X0143517Y0100779D02*
X0144347Y0100779D01*
X0144693Y0100180D02*
X0143269Y0100180D01*
X0143021Y0099582D02*
X0145038Y0099582D01*
X0145384Y0098983D02*
X0142760Y0098983D01*
X0142162Y0098385D02*
X0145739Y0098385D01*
X0146337Y0097786D02*
X0141563Y0097786D01*
X0143746Y0097188D02*
X0146936Y0097188D01*
X0147534Y0096589D02*
X0144900Y0096589D01*
X0145498Y0095991D02*
X0148243Y0095991D01*
X0149279Y0095392D02*
X0146097Y0095392D01*
X0146505Y0094794D02*
X0150316Y0094794D01*
X0152038Y0094195D02*
X0146753Y0094195D01*
X0147001Y0093597D02*
X0158752Y0093597D01*
X0158879Y0094195D02*
X0159044Y0094195D01*
X0158504Y0092998D02*
X0147249Y0092998D01*
X0147278Y0092400D02*
X0158329Y0092400D01*
X0158329Y0091801D02*
X0147278Y0091801D01*
X0147278Y0091203D02*
X0158329Y0091203D01*
X0158454Y0090604D02*
X0147278Y0090604D01*
X0147051Y0090006D02*
X0158702Y0090006D01*
X0158950Y0089407D02*
X0146803Y0089407D01*
X0146555Y0088809D02*
X0159522Y0088809D01*
X0160121Y0088210D02*
X0146217Y0088210D01*
X0145619Y0087612D02*
X0161523Y0087612D01*
X0163536Y0087612D02*
X0243326Y0087612D01*
X0241881Y0087013D02*
X0145020Y0087013D01*
X0144038Y0086415D02*
X0241151Y0086415D01*
X0240553Y0085816D02*
X0142593Y0085816D01*
X0139485Y0081627D02*
X0207887Y0081627D01*
X0208485Y0081028D02*
X0140084Y0081028D01*
X0140682Y0080430D02*
X0209084Y0080430D01*
X0209682Y0079831D02*
X0141281Y0079831D01*
X0141879Y0079233D02*
X0210281Y0079233D01*
X0210879Y0078634D02*
X0142478Y0078634D01*
X0143076Y0078036D02*
X0211478Y0078036D01*
X0212076Y0077437D02*
X0143675Y0077437D01*
X0143821Y0076838D02*
X0212675Y0076838D01*
X0213273Y0076240D02*
X0143517Y0076240D01*
X0142918Y0075641D02*
X0213872Y0075641D01*
X0214471Y0075043D02*
X0142319Y0075043D01*
X0141721Y0074444D02*
X0214659Y0074444D01*
X0214411Y0073846D02*
X0141122Y0073846D01*
X0140524Y0073247D02*
X0214163Y0073247D01*
X0214099Y0072649D02*
X0139925Y0072649D01*
X0139327Y0072050D02*
X0147917Y0072050D01*
X0147318Y0071452D02*
X0138728Y0071452D01*
X0138076Y0070853D02*
X0146720Y0070853D01*
X0146121Y0070255D02*
X0137531Y0070255D01*
X0136933Y0069656D02*
X0145523Y0069656D01*
X0144924Y0069058D02*
X0136334Y0069058D01*
X0135736Y0068459D02*
X0144326Y0068459D01*
X0143727Y0067861D02*
X0135137Y0067861D01*
X0134539Y0067262D02*
X0143129Y0067262D01*
X0142578Y0066664D02*
X0133940Y0066664D01*
X0133342Y0066065D02*
X0141932Y0066065D01*
X0141333Y0065467D02*
X0132743Y0065467D01*
X0146287Y0060080D02*
X0209307Y0060080D01*
X0209555Y0059482D02*
X0147374Y0059482D01*
X0147965Y0058883D02*
X0209803Y0058883D01*
X0210201Y0058285D02*
X0148213Y0058285D01*
X0148339Y0057686D02*
X0210800Y0057686D01*
X0211398Y0057088D02*
X0148339Y0057088D01*
X0148131Y0056489D02*
X0212527Y0056489D01*
X0217471Y0056489D02*
X0224075Y0056489D01*
X0223730Y0057088D02*
X0218600Y0057088D01*
X0219198Y0057686D02*
X0223529Y0057686D01*
X0223368Y0058285D02*
X0219797Y0058285D01*
X0220195Y0058883D02*
X0223208Y0058883D01*
X0223048Y0059482D02*
X0220443Y0059482D01*
X0220691Y0060080D02*
X0222887Y0060080D01*
X0222824Y0060679D02*
X0220939Y0060679D01*
X0220961Y0061277D02*
X0222824Y0061277D01*
X0222824Y0061876D02*
X0220961Y0061876D01*
X0220961Y0062474D02*
X0222824Y0062474D01*
X0222824Y0063073D02*
X0220961Y0063073D01*
X0220726Y0063671D02*
X0222864Y0063671D01*
X0223025Y0064270D02*
X0220479Y0064270D01*
X0220231Y0064868D02*
X0223185Y0064868D01*
X0223345Y0065467D02*
X0219883Y0065467D01*
X0221285Y0066065D02*
X0223506Y0066065D01*
X0223680Y0066664D02*
X0222730Y0066664D01*
X0223687Y0067262D02*
X0224026Y0067262D01*
X0224285Y0067861D02*
X0224372Y0067861D01*
X0215114Y0068459D02*
X0152653Y0068459D01*
X0153251Y0067861D02*
X0213765Y0067861D01*
X0212320Y0067262D02*
X0153287Y0067262D01*
X0152871Y0066664D02*
X0211312Y0066664D01*
X0210714Y0066065D02*
X0152272Y0066065D01*
X0152700Y0065467D02*
X0210115Y0065467D01*
X0209767Y0064868D02*
X0153478Y0064868D01*
X0153859Y0064270D02*
X0209519Y0064270D01*
X0209272Y0063671D02*
X0154084Y0063671D01*
X0154084Y0063073D02*
X0209037Y0063073D01*
X0209037Y0062474D02*
X0153975Y0062474D01*
X0153727Y0061876D02*
X0209037Y0061876D01*
X0209037Y0061277D02*
X0153160Y0061277D01*
X0150033Y0061277D02*
X0147484Y0061277D01*
X0146886Y0060679D02*
X0209059Y0060679D01*
X0214798Y0069058D02*
X0152054Y0069058D01*
X0151456Y0069656D02*
X0214550Y0069656D01*
X0214302Y0070255D02*
X0150857Y0070255D01*
X0150259Y0070853D02*
X0214099Y0070853D01*
X0214099Y0071452D02*
X0149660Y0071452D01*
X0149062Y0072050D02*
X0214099Y0072050D01*
X0216885Y0077437D02*
X0217904Y0077437D01*
X0216286Y0078036D02*
X0223217Y0078036D01*
X0223815Y0078634D02*
X0215688Y0078634D01*
X0215089Y0079233D02*
X0224414Y0079233D01*
X0225012Y0079831D02*
X0214491Y0079831D01*
X0213892Y0080430D02*
X0239230Y0080430D01*
X0239099Y0081028D02*
X0213294Y0081028D01*
X0212695Y0081627D02*
X0239099Y0081627D01*
X0239099Y0082225D02*
X0212097Y0082225D01*
X0211498Y0082824D02*
X0239099Y0082824D01*
X0239236Y0083422D02*
X0210900Y0083422D01*
X0210301Y0084021D02*
X0239484Y0084021D01*
X0239731Y0084619D02*
X0209703Y0084619D01*
X0209104Y0085218D02*
X0239979Y0085218D01*
X0246606Y0088210D02*
X0164938Y0088210D01*
X0165537Y0088809D02*
X0246606Y0088809D01*
X0246606Y0089407D02*
X0166109Y0089407D01*
X0166357Y0090006D02*
X0246606Y0090006D01*
X0246606Y0090604D02*
X0166605Y0090604D01*
X0166729Y0091203D02*
X0246606Y0091203D01*
X0246606Y0091801D02*
X0166729Y0091801D01*
X0166729Y0092400D02*
X0246606Y0092400D01*
X0246606Y0092998D02*
X0166555Y0092998D01*
X0166307Y0093597D02*
X0246606Y0093597D01*
X0246606Y0094195D02*
X0166015Y0094195D01*
X0165416Y0094794D02*
X0168326Y0094794D01*
X0167081Y0095392D02*
X0164689Y0095392D01*
X0165975Y0096589D02*
X0163382Y0096589D01*
X0163981Y0097188D02*
X0165727Y0097188D01*
X0165479Y0097786D02*
X0164580Y0097786D01*
X0165178Y0098385D02*
X0165401Y0098385D01*
X0166482Y0095991D02*
X0162674Y0095991D01*
X0170875Y0094794D02*
X0246606Y0094794D01*
X0246606Y0095392D02*
X0172121Y0095392D01*
X0172719Y0095991D02*
X0246606Y0095991D01*
X0246606Y0096589D02*
X0173226Y0096589D01*
X0173474Y0097188D02*
X0246606Y0097188D01*
X0246606Y0097786D02*
X0173722Y0097786D01*
X0173801Y0098385D02*
X0246606Y0098385D01*
X0244919Y0098983D02*
X0173801Y0098983D01*
X0173801Y0099582D02*
X0244650Y0099582D01*
X0244650Y0100180D02*
X0173580Y0100180D01*
X0173332Y0100779D02*
X0242393Y0100779D01*
X0241397Y0101377D02*
X0172975Y0101377D01*
X0172376Y0101976D02*
X0240926Y0101976D01*
X0240678Y0102574D02*
X0171492Y0102574D01*
X0167709Y0102574D02*
X0167176Y0102574D01*
X0167337Y0103173D02*
X0240637Y0103173D01*
X0240681Y0103772D02*
X0167497Y0103772D01*
X0167633Y0104370D02*
X0240929Y0104370D01*
X0241406Y0104969D02*
X0167633Y0104969D01*
X0167633Y0105567D02*
X0242414Y0105567D01*
X0243834Y0105567D02*
X0244650Y0105567D01*
X0244650Y0106166D02*
X0167633Y0106166D01*
X0167633Y0106764D02*
X0244650Y0106764D01*
X0244665Y0107363D02*
X0167633Y0107363D01*
X0167506Y0107961D02*
X0244650Y0107961D01*
X0244650Y0108560D02*
X0167346Y0108560D01*
X0167185Y0109158D02*
X0241780Y0109158D01*
X0241143Y0109757D02*
X0167025Y0109757D01*
X0166864Y0110355D02*
X0240820Y0110355D01*
X0240637Y0110954D02*
X0166589Y0110954D01*
X0166244Y0111552D02*
X0240637Y0111552D01*
X0240787Y0112151D02*
X0165898Y0112151D01*
X0165553Y0112749D02*
X0241062Y0112749D01*
X0241660Y0113348D02*
X0165207Y0113348D01*
X0164613Y0113946D02*
X0244650Y0113946D01*
X0244650Y0113348D02*
X0244588Y0113348D01*
X0244650Y0114545D02*
X0171949Y0114545D01*
X0167252Y0114545D02*
X0164015Y0114545D01*
X0163416Y0115143D02*
X0166051Y0115143D01*
X0165452Y0115742D02*
X0162732Y0115742D01*
X0161696Y0116340D02*
X0164854Y0116340D01*
X0164426Y0116939D02*
X0160659Y0116939D01*
X0159004Y0117537D02*
X0164178Y0117537D01*
X0163930Y0118136D02*
X0071276Y0118136D01*
X0071524Y0118734D02*
X0140779Y0118734D01*
X0140181Y0119333D02*
X0071568Y0119333D01*
X0071568Y0119931D02*
X0139582Y0119931D01*
X0138984Y0120530D02*
X0071568Y0120530D01*
X0071568Y0121128D02*
X0138385Y0121128D01*
X0137787Y0121727D02*
X0071354Y0121727D01*
X0071106Y0122325D02*
X0137188Y0122325D01*
X0136590Y0122924D02*
X0070858Y0122924D01*
X0070540Y0123522D02*
X0135991Y0123522D01*
X0135393Y0124121D02*
X0069942Y0124121D01*
X0069343Y0124719D02*
X0134794Y0124719D01*
X0134196Y0125318D02*
X0068408Y0125318D01*
X0066963Y0125916D02*
X0133597Y0125916D01*
X0133072Y0126515D02*
X0062300Y0126515D01*
X0062855Y0127113D02*
X0133072Y0127113D01*
X0133072Y0127712D02*
X0063410Y0127712D01*
X0063964Y0128310D02*
X0133072Y0128310D01*
X0133072Y0128909D02*
X0064519Y0128909D01*
X0065074Y0129507D02*
X0133072Y0129507D01*
X0133072Y0130106D02*
X0065629Y0130106D01*
X0066184Y0130705D02*
X0133035Y0130705D01*
X0132569Y0131303D02*
X0066739Y0131303D01*
X0067294Y0131902D02*
X0132321Y0131902D01*
X0132284Y0132500D02*
X0067849Y0132500D01*
X0068404Y0133099D02*
X0132333Y0133099D01*
X0132581Y0133697D02*
X0068958Y0133697D01*
X0069513Y0134296D02*
X0133063Y0134296D01*
X0134085Y0134894D02*
X0070068Y0134894D01*
X0070623Y0135493D02*
X0133923Y0135493D01*
X0133325Y0136091D02*
X0130359Y0136091D01*
X0131002Y0136690D02*
X0132726Y0136690D01*
X0132128Y0137288D02*
X0131328Y0137288D01*
X0131514Y0137887D02*
X0131529Y0137887D01*
X0128537Y0140879D02*
X0113612Y0140879D01*
X0114142Y0141478D02*
X0127938Y0141478D01*
X0127340Y0142076D02*
X0114390Y0142076D01*
X0114637Y0142675D02*
X0127336Y0142675D01*
X0127784Y0143273D02*
X0114732Y0143273D01*
X0114732Y0143872D02*
X0128383Y0143872D01*
X0128981Y0144470D02*
X0114732Y0144470D01*
X0114527Y0145069D02*
X0129580Y0145069D01*
X0130178Y0145667D02*
X0114279Y0145667D01*
X0113944Y0146266D02*
X0130777Y0146266D01*
X0131375Y0146864D02*
X0119054Y0146864D01*
X0120196Y0147463D02*
X0140884Y0147463D01*
X0141482Y0146864D02*
X0132892Y0146864D01*
X0133491Y0146266D02*
X0142081Y0146266D01*
X0142679Y0145667D02*
X0134089Y0145667D01*
X0134688Y0145069D02*
X0143278Y0145069D01*
X0143876Y0144470D02*
X0135286Y0144470D01*
X0135885Y0143872D02*
X0144475Y0143872D01*
X0145073Y0143273D02*
X0136483Y0143273D01*
X0137082Y0142675D02*
X0145672Y0142675D01*
X0146270Y0142076D02*
X0137680Y0142076D01*
X0138279Y0141478D02*
X0146869Y0141478D01*
X0147467Y0140879D02*
X0138877Y0140879D01*
X0139476Y0140281D02*
X0148066Y0140281D01*
X0148850Y0140281D02*
X0153924Y0140281D01*
X0153924Y0140879D02*
X0149448Y0140879D01*
X0150047Y0141478D02*
X0153924Y0141478D01*
X0153924Y0142076D02*
X0150645Y0142076D01*
X0151244Y0142675D02*
X0153924Y0142675D01*
X0153924Y0143273D02*
X0151842Y0143273D01*
X0152441Y0143872D02*
X0153924Y0143872D01*
X0153793Y0144470D02*
X0153039Y0144470D01*
X0155609Y0147463D02*
X0156424Y0147463D01*
X0156424Y0148061D02*
X0155010Y0148061D01*
X0154412Y0148660D02*
X0156424Y0148660D01*
X0156424Y0149258D02*
X0154053Y0149258D01*
X0154019Y0149857D02*
X0156424Y0149857D01*
X0156424Y0150455D02*
X0153771Y0150455D01*
X0153309Y0151054D02*
X0156424Y0151054D01*
X0156424Y0151652D02*
X0152338Y0151652D01*
X0150793Y0151652D02*
X0147035Y0151652D01*
X0147510Y0151054D02*
X0149822Y0151054D01*
X0149360Y0150455D02*
X0148232Y0150455D01*
X0148830Y0149857D02*
X0149112Y0149857D01*
X0146436Y0152251D02*
X0156424Y0152251D01*
X0156424Y0152849D02*
X0147067Y0152849D01*
X0147761Y0153448D02*
X0156424Y0153448D01*
X0156424Y0154046D02*
X0148107Y0154046D01*
X0148307Y0154645D02*
X0156424Y0154645D01*
X0156424Y0155243D02*
X0148307Y0155243D01*
X0148174Y0155842D02*
X0156424Y0155842D01*
X0156424Y0156441D02*
X0147923Y0156441D01*
X0147520Y0157039D02*
X0156424Y0157039D01*
X0156424Y0157638D02*
X0147520Y0157638D01*
X0147336Y0158236D02*
X0156424Y0158236D01*
X0156424Y0158835D02*
X0146737Y0158835D01*
X0146139Y0159433D02*
X0156424Y0159433D01*
X0156424Y0160032D02*
X0145540Y0160032D01*
X0144942Y0160630D02*
X0156424Y0160630D01*
X0156424Y0161229D02*
X0144343Y0161229D01*
X0143745Y0161827D02*
X0156424Y0161827D01*
X0156424Y0162426D02*
X0143146Y0162426D01*
X0142548Y0163024D02*
X0156424Y0163024D01*
X0156424Y0163623D02*
X0141949Y0163623D01*
X0141351Y0164221D02*
X0156424Y0164221D01*
X0156746Y0164820D02*
X0140752Y0164820D01*
X0140154Y0165418D02*
X0157344Y0165418D01*
X0157943Y0166017D02*
X0139555Y0166017D01*
X0138957Y0166615D02*
X0158541Y0166615D01*
X0159140Y0167214D02*
X0138358Y0167214D01*
X0137760Y0167812D02*
X0159738Y0167812D01*
X0160337Y0168411D02*
X0137161Y0168411D01*
X0136563Y0169009D02*
X0160935Y0169009D01*
X0161534Y0169608D02*
X0135964Y0169608D01*
X0135366Y0170206D02*
X0162133Y0170206D01*
X0162731Y0170805D02*
X0134767Y0170805D01*
X0134169Y0171403D02*
X0163330Y0171403D01*
X0163928Y0172002D02*
X0133570Y0172002D01*
X0132971Y0172600D02*
X0164527Y0172600D01*
X0165125Y0173199D02*
X0132373Y0173199D01*
X0131774Y0173797D02*
X0165724Y0173797D01*
X0166322Y0174396D02*
X0131176Y0174396D01*
X0130577Y0174994D02*
X0166921Y0174994D01*
X0167519Y0175593D02*
X0129979Y0175593D01*
X0129380Y0176191D02*
X0168118Y0176191D01*
X0168716Y0176790D02*
X0128782Y0176790D01*
X0128183Y0177388D02*
X0169315Y0177388D01*
X0169913Y0177987D02*
X0127585Y0177987D01*
X0126986Y0178585D02*
X0170512Y0178585D01*
X0171110Y0179184D02*
X0126388Y0179184D01*
X0125789Y0179782D02*
X0171709Y0179782D01*
X0172307Y0180381D02*
X0125191Y0180381D01*
X0124592Y0180979D02*
X0172906Y0180979D01*
X0173504Y0181578D02*
X0123994Y0181578D01*
X0123395Y0182176D02*
X0174103Y0182176D01*
X0174701Y0182775D02*
X0122797Y0182775D01*
X0121580Y0179184D02*
X0102290Y0179184D01*
X0102290Y0178585D02*
X0122178Y0178585D01*
X0122777Y0177987D02*
X0102290Y0177987D01*
X0102070Y0177388D02*
X0114977Y0177388D01*
X0114226Y0177077D02*
X0112549Y0175400D01*
X0111641Y0173209D01*
X0111641Y0170837D01*
X0112549Y0168645D01*
X0114226Y0166968D01*
X0116417Y0166060D01*
X0118789Y0166060D01*
X0120980Y0166968D01*
X0122658Y0168645D01*
X0123565Y0170837D01*
X0123565Y0173209D01*
X0122658Y0175400D01*
X0120980Y0177077D01*
X0118789Y0177985D01*
X0116417Y0177985D01*
X0114226Y0177077D01*
X0113938Y0176790D02*
X0101822Y0176790D01*
X0101574Y0176191D02*
X0113340Y0176191D01*
X0112741Y0175593D02*
X0101233Y0175593D01*
X0100634Y0174994D02*
X0112381Y0174994D01*
X0112133Y0174396D02*
X0100036Y0174396D01*
X0099021Y0173797D02*
X0111885Y0173797D01*
X0111641Y0173199D02*
X0097576Y0173199D01*
X0095204Y0173199D02*
X0087483Y0173199D01*
X0087483Y0173797D02*
X0093759Y0173797D01*
X0092744Y0174396D02*
X0087483Y0174396D01*
X0087483Y0174994D02*
X0092145Y0174994D01*
X0091547Y0175593D02*
X0087483Y0175593D01*
X0087483Y0176191D02*
X0091206Y0176191D01*
X0090958Y0176790D02*
X0087483Y0176790D01*
X0087483Y0177388D02*
X0090710Y0177388D01*
X0090490Y0177987D02*
X0087483Y0177987D01*
X0087483Y0178585D02*
X0090490Y0178585D01*
X0090490Y0179184D02*
X0087483Y0179184D01*
X0087483Y0179782D02*
X0090490Y0179782D01*
X0090537Y0180381D02*
X0087483Y0180381D01*
X0087483Y0180979D02*
X0090785Y0180979D01*
X0091033Y0181578D02*
X0087688Y0181578D01*
X0088286Y0182176D02*
X0091281Y0182176D01*
X0091727Y0182775D02*
X0088885Y0182775D01*
X0089483Y0183374D02*
X0092326Y0183374D01*
X0092924Y0183972D02*
X0090082Y0183972D01*
X0090680Y0184571D02*
X0094195Y0184571D01*
X0092476Y0186366D02*
X0178292Y0186366D01*
X0177694Y0185768D02*
X0091877Y0185768D01*
X0091279Y0185169D02*
X0177095Y0185169D01*
X0176497Y0184571D02*
X0098585Y0184571D01*
X0099855Y0183972D02*
X0175898Y0183972D01*
X0175300Y0183374D02*
X0100454Y0183374D01*
X0093673Y0187563D02*
X0179489Y0187563D01*
X0178891Y0186965D02*
X0093074Y0186965D01*
X0094271Y0188162D02*
X0180088Y0188162D01*
X0180686Y0188760D02*
X0094870Y0188760D01*
X0095468Y0189359D02*
X0147799Y0189359D01*
X0147195Y0189957D02*
X0096067Y0189957D01*
X0096665Y0190556D02*
X0146653Y0190556D01*
X0146405Y0191154D02*
X0097264Y0191154D01*
X0097862Y0191753D02*
X0146157Y0191753D01*
X0146099Y0192351D02*
X0098461Y0192351D01*
X0099059Y0192950D02*
X0146099Y0192950D01*
X0146099Y0193548D02*
X0099658Y0193548D01*
X0100256Y0194147D02*
X0146099Y0194147D01*
X0146099Y0194745D02*
X0100855Y0194745D01*
X0101453Y0195344D02*
X0146099Y0195344D01*
X0146099Y0195942D02*
X0102052Y0195942D01*
X0102650Y0196541D02*
X0146099Y0196541D01*
X0146099Y0197139D02*
X0103249Y0197139D01*
X0103847Y0197738D02*
X0146099Y0197738D01*
X0146099Y0198336D02*
X0104446Y0198336D01*
X0105044Y0198935D02*
X0146099Y0198935D01*
X0146136Y0199533D02*
X0105643Y0199533D01*
X0106241Y0200132D02*
X0146384Y0200132D01*
X0146632Y0200730D02*
X0106840Y0200730D01*
X0107438Y0201329D02*
X0147144Y0201329D01*
X0147742Y0201927D02*
X0108037Y0201927D01*
X0105623Y0204321D02*
X0015172Y0204321D01*
X0013435Y0203723D02*
X0105024Y0203723D01*
X0104426Y0203124D02*
X0012399Y0203124D01*
X0011362Y0202526D02*
X0103827Y0202526D01*
X0103229Y0201927D02*
X0010728Y0201927D01*
X0010129Y0201329D02*
X0102630Y0201329D01*
X0102032Y0200730D02*
X0009531Y0200730D01*
X0009031Y0200132D02*
X0101433Y0200132D01*
X0100835Y0199533D02*
X0008685Y0199533D01*
X0008339Y0198935D02*
X0100236Y0198935D01*
X0099638Y0198336D02*
X0007994Y0198336D01*
X0007660Y0197738D02*
X0099039Y0197738D01*
X0098441Y0197139D02*
X0007500Y0197139D01*
X0007339Y0196541D02*
X0097842Y0196541D01*
X0097243Y0195942D02*
X0007179Y0195942D01*
X0007019Y0195344D02*
X0096645Y0195344D01*
X0096046Y0194745D02*
X0006887Y0194745D01*
X0006848Y0194147D02*
X0095448Y0194147D01*
X0094849Y0193548D02*
X0006809Y0193548D01*
X0006799Y0192950D02*
X0094251Y0192950D01*
X0093652Y0192351D02*
X0006799Y0192351D01*
X0006799Y0191753D02*
X0093054Y0191753D01*
X0092455Y0191154D02*
X0006799Y0191154D01*
X0006799Y0190556D02*
X0091857Y0190556D01*
X0091258Y0189957D02*
X0006799Y0189957D01*
X0006799Y0189359D02*
X0090660Y0189359D01*
X0090061Y0188760D02*
X0006799Y0188760D01*
X0006799Y0188162D02*
X0089463Y0188162D01*
X0088864Y0187563D02*
X0006799Y0187563D01*
X0006799Y0186965D02*
X0088266Y0186965D01*
X0087667Y0186366D02*
X0006799Y0186366D01*
X0006799Y0185768D02*
X0087069Y0185768D01*
X0086470Y0185169D02*
X0006799Y0185169D01*
X0006799Y0184571D02*
X0085872Y0184571D01*
X0085273Y0183972D02*
X0006799Y0183972D01*
X0006799Y0183374D02*
X0084675Y0183374D01*
X0084083Y0182775D02*
X0006799Y0182775D01*
X0006799Y0182176D02*
X0084083Y0182176D01*
X0084083Y0181578D02*
X0006799Y0181578D01*
X0006799Y0180979D02*
X0084083Y0180979D01*
X0084083Y0180381D02*
X0006799Y0180381D01*
X0006799Y0179782D02*
X0084083Y0179782D01*
X0084083Y0179184D02*
X0006799Y0179184D01*
X0006799Y0178585D02*
X0084083Y0178585D01*
X0084083Y0177987D02*
X0006799Y0177987D01*
X0006799Y0177388D02*
X0084083Y0177388D01*
X0084083Y0176790D02*
X0006799Y0176790D01*
X0006799Y0176191D02*
X0084083Y0176191D01*
X0084083Y0175593D02*
X0006799Y0175593D01*
X0006799Y0174994D02*
X0084083Y0174994D01*
X0084083Y0174396D02*
X0006799Y0174396D01*
X0006799Y0173797D02*
X0084083Y0173797D01*
X0084083Y0173199D02*
X0006799Y0173199D01*
X0006799Y0172600D02*
X0084083Y0172600D01*
X0084083Y0172002D02*
X0006799Y0172002D01*
X0006799Y0171403D02*
X0084083Y0171403D01*
X0084083Y0170805D02*
X0006799Y0170805D01*
X0006799Y0170206D02*
X0084083Y0170206D01*
X0084083Y0169608D02*
X0006799Y0169608D01*
X0006799Y0169009D02*
X0084083Y0169009D01*
X0084083Y0168411D02*
X0006799Y0168411D01*
X0006799Y0167812D02*
X0084083Y0167812D01*
X0084083Y0167214D02*
X0006799Y0167214D01*
X0006799Y0166615D02*
X0084083Y0166615D01*
X0084083Y0166017D02*
X0006799Y0166017D01*
X0006799Y0165418D02*
X0084083Y0165418D01*
X0084083Y0164820D02*
X0006799Y0164820D01*
X0006799Y0164221D02*
X0084083Y0164221D01*
X0084083Y0163623D02*
X0006799Y0163623D01*
X0006799Y0163024D02*
X0084083Y0163024D01*
X0084083Y0162426D02*
X0006799Y0162426D01*
X0006799Y0161827D02*
X0084083Y0161827D01*
X0084083Y0161229D02*
X0006799Y0161229D01*
X0006799Y0160630D02*
X0084083Y0160630D01*
X0084083Y0160032D02*
X0006799Y0160032D01*
X0006799Y0159433D02*
X0082649Y0159433D01*
X0081929Y0158835D02*
X0006799Y0158835D01*
X0006799Y0158236D02*
X0081330Y0158236D01*
X0080761Y0157638D02*
X0006799Y0157638D01*
X0006799Y0157039D02*
X0080513Y0157039D01*
X0080265Y0156441D02*
X0006799Y0156441D01*
X0006799Y0155842D02*
X0080017Y0155842D01*
X0079883Y0155243D02*
X0006799Y0155243D01*
X0006799Y0154645D02*
X0079883Y0154645D01*
X0079883Y0154046D02*
X0006799Y0154046D01*
X0006799Y0153448D02*
X0079883Y0153448D01*
X0080017Y0152849D02*
X0006799Y0152849D01*
X0006799Y0152251D02*
X0080265Y0152251D01*
X0080512Y0151652D02*
X0006799Y0151652D01*
X0006799Y0151054D02*
X0080414Y0151054D01*
X0079859Y0150455D02*
X0006799Y0150455D01*
X0006799Y0149857D02*
X0079304Y0149857D01*
X0078749Y0149258D02*
X0006799Y0149258D01*
X0006799Y0148660D02*
X0078194Y0148660D01*
X0077639Y0148061D02*
X0006799Y0148061D01*
X0006799Y0147463D02*
X0077084Y0147463D01*
X0076530Y0146864D02*
X0006799Y0146864D01*
X0006799Y0146266D02*
X0075975Y0146266D01*
X0075420Y0145667D02*
X0006799Y0145667D01*
X0006799Y0145069D02*
X0074865Y0145069D01*
X0074310Y0144470D02*
X0006799Y0144470D01*
X0006799Y0143872D02*
X0073755Y0143872D01*
X0073200Y0143273D02*
X0006799Y0143273D01*
X0006799Y0142675D02*
X0072645Y0142675D01*
X0072090Y0142076D02*
X0006799Y0142076D01*
X0006799Y0141478D02*
X0071536Y0141478D01*
X0070981Y0140879D02*
X0006799Y0140879D01*
X0006799Y0140281D02*
X0070426Y0140281D01*
X0069871Y0139682D02*
X0006799Y0139682D01*
X0006799Y0139084D02*
X0069316Y0139084D01*
X0068761Y0138485D02*
X0006799Y0138485D01*
X0006799Y0137887D02*
X0068206Y0137887D01*
X0067651Y0137288D02*
X0006799Y0137288D01*
X0006799Y0136690D02*
X0067096Y0136690D01*
X0066542Y0136091D02*
X0006799Y0136091D01*
X0006799Y0135493D02*
X0065987Y0135493D01*
X0065432Y0134894D02*
X0006799Y0134894D01*
X0006799Y0134296D02*
X0064877Y0134296D01*
X0064322Y0133697D02*
X0006799Y0133697D01*
X0006799Y0133099D02*
X0063767Y0133099D01*
X0063212Y0132500D02*
X0046764Y0132500D01*
X0047734Y0132098D02*
X0045566Y0132996D01*
X0043219Y0132996D01*
X0041050Y0132098D01*
X0039391Y0130438D01*
X0038492Y0128270D01*
X0038492Y0125923D01*
X0039391Y0123754D01*
X0041050Y0122095D01*
X0043219Y0121196D01*
X0045566Y0121196D01*
X0047734Y0122095D01*
X0049394Y0123754D01*
X0050292Y0125923D01*
X0050292Y0128270D01*
X0049394Y0130438D01*
X0047734Y0132098D01*
X0047931Y0131902D02*
X0062657Y0131902D01*
X0062102Y0131303D02*
X0048530Y0131303D01*
X0049128Y0130705D02*
X0061548Y0130705D01*
X0060993Y0130106D02*
X0049532Y0130106D01*
X0049780Y0129507D02*
X0060438Y0129507D01*
X0059883Y0128909D02*
X0050028Y0128909D01*
X0050276Y0128310D02*
X0059328Y0128310D01*
X0058773Y0127712D02*
X0050292Y0127712D01*
X0050292Y0127113D02*
X0058218Y0127113D01*
X0057663Y0126515D02*
X0050292Y0126515D01*
X0050290Y0125916D02*
X0057108Y0125916D01*
X0056554Y0125318D02*
X0050042Y0125318D01*
X0049794Y0124719D02*
X0055999Y0124719D01*
X0055444Y0124121D02*
X0049546Y0124121D01*
X0049162Y0123522D02*
X0054889Y0123522D01*
X0054334Y0122924D02*
X0048564Y0122924D01*
X0047965Y0122325D02*
X0053779Y0122325D01*
X0053224Y0121727D02*
X0046847Y0121727D01*
X0046180Y0121128D02*
X0006799Y0121128D01*
X0006799Y0120530D02*
X0045581Y0120530D01*
X0045554Y0120503D02*
X0045554Y0120503D01*
X0044983Y0119931D02*
X0006799Y0119931D01*
X0006799Y0119333D02*
X0044384Y0119333D01*
X0043786Y0118734D02*
X0006799Y0118734D01*
X0006799Y0118136D02*
X0043187Y0118136D01*
X0042589Y0117537D02*
X0006799Y0117537D01*
X0006799Y0116939D02*
X0041990Y0116939D01*
X0041391Y0116340D02*
X0006799Y0116340D01*
X0006799Y0115742D02*
X0040793Y0115742D01*
X0040194Y0115143D02*
X0006799Y0115143D01*
X0006799Y0114545D02*
X0039596Y0114545D01*
X0038997Y0113946D02*
X0006799Y0113946D01*
X0006799Y0113348D02*
X0038399Y0113348D01*
X0037800Y0112749D02*
X0006799Y0112749D01*
X0006799Y0112151D02*
X0037202Y0112151D01*
X0036603Y0111552D02*
X0006799Y0111552D01*
X0006799Y0110954D02*
X0036005Y0110954D01*
X0035406Y0110355D02*
X0006799Y0110355D01*
X0006799Y0109757D02*
X0034808Y0109757D01*
X0034209Y0109158D02*
X0006799Y0109158D01*
X0006799Y0108560D02*
X0033611Y0108560D01*
X0031921Y0107961D02*
X0006799Y0107961D01*
X0006799Y0107363D02*
X0030476Y0107363D01*
X0029858Y0106764D02*
X0006799Y0106764D01*
X0006799Y0106166D02*
X0029260Y0106166D01*
X0028733Y0105567D02*
X0006799Y0105567D01*
X0006799Y0104969D02*
X0028485Y0104969D01*
X0028237Y0104370D02*
X0006799Y0104370D01*
X0006799Y0103772D02*
X0027990Y0103772D01*
X0027886Y0103173D02*
X0006799Y0103173D01*
X0006799Y0102574D02*
X0027886Y0102574D01*
X0027886Y0101976D02*
X0006799Y0101976D01*
X0006799Y0101377D02*
X0027886Y0101377D01*
X0028049Y0100779D02*
X0006799Y0100779D01*
X0006799Y0100180D02*
X0028297Y0100180D01*
X0028545Y0099582D02*
X0006799Y0099582D01*
X0006799Y0098983D02*
X0028806Y0098983D01*
X0029405Y0098385D02*
X0006799Y0098385D01*
X0006799Y0097786D02*
X0030003Y0097786D01*
X0030825Y0097188D02*
X0006799Y0097188D01*
X0006799Y0096589D02*
X0032270Y0096589D01*
X0033139Y0095991D02*
X0006799Y0095991D01*
X0006799Y0095392D02*
X0032541Y0095392D01*
X0032132Y0094794D02*
X0006799Y0094794D01*
X0006799Y0094195D02*
X0031885Y0094195D01*
X0031637Y0093597D02*
X0006799Y0093597D01*
X0006799Y0092998D02*
X0031389Y0092998D01*
X0031359Y0092400D02*
X0006799Y0092400D01*
X0006799Y0091801D02*
X0031359Y0091801D01*
X0031359Y0091203D02*
X0006799Y0091203D01*
X0006799Y0090604D02*
X0031359Y0090604D01*
X0031587Y0090006D02*
X0006799Y0090006D01*
X0006799Y0089407D02*
X0031835Y0089407D01*
X0032082Y0088809D02*
X0006799Y0088809D01*
X0006799Y0088210D02*
X0032420Y0088210D01*
X0033019Y0087612D02*
X0006799Y0087612D01*
X0006799Y0087013D02*
X0033617Y0087013D01*
X0034600Y0086415D02*
X0006799Y0086415D01*
X0006799Y0085816D02*
X0036045Y0085816D01*
X0042758Y0094195D02*
X0048043Y0094195D01*
X0046321Y0094794D02*
X0042510Y0094794D01*
X0042102Y0095392D02*
X0045284Y0095392D01*
X0044248Y0095991D02*
X0041503Y0095991D01*
X0040905Y0096589D02*
X0043539Y0096589D01*
X0042941Y0097188D02*
X0039751Y0097188D01*
X0038167Y0098385D02*
X0041744Y0098385D01*
X0041389Y0098983D02*
X0038766Y0098983D01*
X0039026Y0099582D02*
X0041043Y0099582D01*
X0040698Y0100180D02*
X0039274Y0100180D01*
X0039522Y0100779D02*
X0040352Y0100779D01*
X0040066Y0101377D02*
X0039686Y0101377D01*
X0039686Y0101976D02*
X0039906Y0101976D01*
X0039746Y0102574D02*
X0039686Y0102574D01*
X0037569Y0097786D02*
X0042342Y0097786D01*
X0063638Y0104969D02*
X0132480Y0104969D01*
X0132728Y0105567D02*
X0063638Y0105567D01*
X0063638Y0106166D02*
X0133255Y0106166D01*
X0133853Y0106764D02*
X0063638Y0106764D01*
X0063638Y0107363D02*
X0134471Y0107363D01*
X0135916Y0107961D02*
X0063511Y0107961D01*
X0063257Y0114545D02*
X0060020Y0114545D01*
X0059421Y0115143D02*
X0062056Y0115143D01*
X0061457Y0115742D02*
X0058737Y0115742D01*
X0057701Y0116340D02*
X0060859Y0116340D01*
X0060431Y0116939D02*
X0056664Y0116939D01*
X0055009Y0117537D02*
X0060183Y0117537D01*
X0059935Y0118136D02*
X0054478Y0118136D01*
X0055086Y0118734D02*
X0059687Y0118734D01*
X0059643Y0119333D02*
X0055675Y0119333D01*
X0055437Y0119095D02*
X0055437Y0119095D01*
X0056196Y0119931D02*
X0059643Y0119931D01*
X0059643Y0120530D02*
X0056751Y0120530D01*
X0057306Y0121128D02*
X0059643Y0121128D01*
X0059857Y0121727D02*
X0057861Y0121727D01*
X0058416Y0122325D02*
X0060105Y0122325D01*
X0060353Y0122924D02*
X0058970Y0122924D01*
X0059525Y0123522D02*
X0060671Y0123522D01*
X0060080Y0124121D02*
X0061269Y0124121D01*
X0061868Y0124719D02*
X0060635Y0124719D01*
X0061190Y0125318D02*
X0062803Y0125318D01*
X0061745Y0125916D02*
X0064248Y0125916D01*
X0071178Y0136091D02*
X0127694Y0136091D01*
X0127050Y0136690D02*
X0071733Y0136690D01*
X0072288Y0137288D02*
X0126725Y0137288D01*
X0126539Y0137887D02*
X0090771Y0137887D01*
X0092216Y0138485D02*
X0126539Y0138485D01*
X0126687Y0139084D02*
X0093096Y0139084D01*
X0093694Y0139682D02*
X0109349Y0139682D01*
X0108050Y0140281D02*
X0094293Y0140281D01*
X0094588Y0140879D02*
X0107452Y0140879D01*
X0106922Y0141478D02*
X0094836Y0141478D01*
X0095084Y0142076D02*
X0106674Y0142076D01*
X0106427Y0142675D02*
X0095281Y0142675D01*
X0095281Y0143273D02*
X0106332Y0143273D01*
X0106332Y0143872D02*
X0095281Y0143872D01*
X0095281Y0144470D02*
X0106332Y0144470D01*
X0106537Y0145069D02*
X0095221Y0145069D01*
X0094973Y0145667D02*
X0106785Y0145667D01*
X0110803Y0148061D02*
X0114412Y0148061D01*
X0113947Y0148660D02*
X0111458Y0148660D01*
X0112057Y0149258D02*
X0113700Y0149258D01*
X0113452Y0149857D02*
X0112655Y0149857D01*
X0113232Y0150455D02*
X0113403Y0150455D01*
X0112516Y0147463D02*
X0115010Y0147463D01*
X0116152Y0146864D02*
X0113346Y0146864D01*
X0120795Y0148061D02*
X0140285Y0148061D01*
X0139687Y0148660D02*
X0121259Y0148660D01*
X0121507Y0149258D02*
X0139088Y0149258D01*
X0138490Y0149857D02*
X0121755Y0149857D01*
X0121803Y0150455D02*
X0137891Y0150455D01*
X0137293Y0151054D02*
X0121803Y0151054D01*
X0121800Y0151652D02*
X0136802Y0151652D01*
X0136802Y0152251D02*
X0121552Y0152251D01*
X0121304Y0152849D02*
X0137361Y0152849D01*
X0137959Y0153448D02*
X0120904Y0153448D01*
X0120306Y0154046D02*
X0138558Y0154046D01*
X0139156Y0154645D02*
X0119319Y0154645D01*
X0115888Y0154645D02*
X0115198Y0154645D01*
X0115359Y0155243D02*
X0139755Y0155243D01*
X0140353Y0155842D02*
X0115519Y0155842D01*
X0115636Y0156441D02*
X0140952Y0156441D01*
X0142246Y0156441D02*
X0143718Y0156441D01*
X0143724Y0157039D02*
X0115636Y0157039D01*
X0115636Y0157638D02*
X0143126Y0157638D01*
X0142527Y0158236D02*
X0115636Y0158236D01*
X0115636Y0158835D02*
X0141929Y0158835D01*
X0141330Y0159433D02*
X0115636Y0159433D01*
X0115489Y0160032D02*
X0140732Y0160032D01*
X0140133Y0160630D02*
X0115328Y0160630D01*
X0115168Y0161229D02*
X0139535Y0161229D01*
X0138936Y0161827D02*
X0115008Y0161827D01*
X0114847Y0162426D02*
X0138338Y0162426D01*
X0137739Y0163024D02*
X0114550Y0163024D01*
X0114204Y0163623D02*
X0137141Y0163623D01*
X0136542Y0164221D02*
X0113858Y0164221D01*
X0113513Y0164820D02*
X0135944Y0164820D01*
X0135345Y0165418D02*
X0113141Y0165418D01*
X0112543Y0166017D02*
X0134747Y0166017D01*
X0134148Y0166615D02*
X0120128Y0166615D01*
X0121226Y0167214D02*
X0133550Y0167214D01*
X0132951Y0167812D02*
X0121824Y0167812D01*
X0122423Y0168411D02*
X0132353Y0168411D01*
X0131754Y0169009D02*
X0122808Y0169009D01*
X0123056Y0169608D02*
X0131156Y0169608D01*
X0130557Y0170206D02*
X0123304Y0170206D01*
X0123552Y0170805D02*
X0129959Y0170805D01*
X0129360Y0171403D02*
X0123565Y0171403D01*
X0123565Y0172002D02*
X0128762Y0172002D01*
X0128163Y0172600D02*
X0123565Y0172600D01*
X0123565Y0173199D02*
X0127565Y0173199D01*
X0126966Y0173797D02*
X0123321Y0173797D01*
X0123074Y0174396D02*
X0126368Y0174396D01*
X0125769Y0174994D02*
X0122826Y0174994D01*
X0122465Y0175593D02*
X0125171Y0175593D01*
X0124572Y0176191D02*
X0121866Y0176191D01*
X0121268Y0176790D02*
X0123974Y0176790D01*
X0123375Y0177388D02*
X0120229Y0177388D01*
X0111641Y0172600D02*
X0087483Y0172600D01*
X0087483Y0172002D02*
X0111641Y0172002D01*
X0111641Y0171403D02*
X0087483Y0171403D01*
X0087483Y0170805D02*
X0111654Y0170805D01*
X0111902Y0170206D02*
X0087483Y0170206D01*
X0087483Y0169608D02*
X0100188Y0169608D01*
X0098387Y0169009D02*
X0087483Y0169009D01*
X0087483Y0168411D02*
X0097350Y0168411D01*
X0096313Y0167812D02*
X0087483Y0167812D01*
X0087483Y0167214D02*
X0095576Y0167214D01*
X0094978Y0166615D02*
X0087483Y0166615D01*
X0087483Y0166017D02*
X0094379Y0166017D01*
X0093781Y0165418D02*
X0087483Y0165418D01*
X0087483Y0164820D02*
X0093409Y0164820D01*
X0093063Y0164221D02*
X0087483Y0164221D01*
X0087483Y0163623D02*
X0092718Y0163623D01*
X0092372Y0163024D02*
X0087483Y0163024D01*
X0087483Y0162426D02*
X0092075Y0162426D01*
X0091914Y0161827D02*
X0087483Y0161827D01*
X0087483Y0161229D02*
X0091754Y0161229D01*
X0091593Y0160630D02*
X0087483Y0160630D01*
X0087483Y0160032D02*
X0091433Y0160032D01*
X0091286Y0159433D02*
X0088917Y0159433D01*
X0089638Y0158835D02*
X0091286Y0158835D01*
X0091286Y0158236D02*
X0090236Y0158236D01*
X0090806Y0157638D02*
X0091286Y0157638D01*
X0091286Y0157039D02*
X0091053Y0157039D01*
X0091683Y0154645D02*
X0091724Y0154645D01*
X0091683Y0154046D02*
X0091884Y0154046D01*
X0092044Y0153448D02*
X0091683Y0153448D01*
X0091550Y0152849D02*
X0092307Y0152849D01*
X0092653Y0152251D02*
X0091302Y0152251D01*
X0091054Y0151652D02*
X0092999Y0151652D01*
X0093344Y0151054D02*
X0090806Y0151054D01*
X0090237Y0150455D02*
X0093690Y0150455D01*
X0094267Y0149857D02*
X0089639Y0149857D01*
X0091572Y0149258D02*
X0094865Y0149258D01*
X0095464Y0148660D02*
X0092829Y0148660D01*
X0093428Y0148061D02*
X0096119Y0148061D01*
X0097155Y0147463D02*
X0094026Y0147463D01*
X0094477Y0146864D02*
X0098192Y0146864D01*
X0099768Y0146266D02*
X0094725Y0146266D01*
X0085210Y0148061D02*
X0082276Y0148061D01*
X0081721Y0147463D02*
X0084611Y0147463D01*
X0084160Y0146864D02*
X0081166Y0146864D01*
X0080611Y0146266D02*
X0083912Y0146266D01*
X0083664Y0145667D02*
X0080056Y0145667D01*
X0079501Y0145069D02*
X0083416Y0145069D01*
X0083357Y0144470D02*
X0078946Y0144470D01*
X0078392Y0143872D02*
X0083357Y0143872D01*
X0083357Y0143273D02*
X0077837Y0143273D01*
X0077282Y0142675D02*
X0083357Y0142675D01*
X0083554Y0142076D02*
X0076727Y0142076D01*
X0076172Y0141478D02*
X0083802Y0141478D01*
X0084050Y0140879D02*
X0075617Y0140879D01*
X0075062Y0140281D02*
X0084345Y0140281D01*
X0084943Y0139682D02*
X0074507Y0139682D01*
X0073952Y0139084D02*
X0085542Y0139084D01*
X0086421Y0138485D02*
X0073398Y0138485D01*
X0072843Y0137887D02*
X0087866Y0137887D01*
X0084091Y0148660D02*
X0082831Y0148660D01*
X0111715Y0139682D02*
X0126959Y0139682D01*
X0127558Y0140281D02*
X0113014Y0140281D01*
X0136508Y0130705D02*
X0143652Y0130705D01*
X0143248Y0130106D02*
X0136472Y0130106D01*
X0136472Y0129507D02*
X0143000Y0129507D01*
X0142752Y0128909D02*
X0136472Y0128909D01*
X0136472Y0128310D02*
X0142504Y0128310D01*
X0142487Y0127712D02*
X0136610Y0127712D01*
X0137208Y0127113D02*
X0142487Y0127113D01*
X0142487Y0126515D02*
X0137807Y0126515D01*
X0138405Y0125916D02*
X0142490Y0125916D01*
X0142738Y0125318D02*
X0139004Y0125318D01*
X0139602Y0124719D02*
X0142986Y0124719D01*
X0143234Y0124121D02*
X0140201Y0124121D01*
X0140799Y0123522D02*
X0143617Y0123522D01*
X0144216Y0122924D02*
X0141398Y0122924D01*
X0141996Y0122325D02*
X0144814Y0122325D01*
X0159824Y0126515D02*
X0317816Y0126515D01*
X0318415Y0127113D02*
X0159824Y0127113D01*
X0159824Y0127712D02*
X0319013Y0127712D01*
X0319612Y0128310D02*
X0159824Y0128310D01*
X0159824Y0128909D02*
X0320210Y0128909D01*
X0320809Y0129507D02*
X0159824Y0129507D01*
X0159824Y0130106D02*
X0321407Y0130106D01*
X0321424Y0130705D02*
X0159824Y0130705D01*
X0159824Y0131303D02*
X0321424Y0131303D01*
X0321424Y0131902D02*
X0159824Y0131902D01*
X0159824Y0132500D02*
X0321424Y0132500D01*
X0321424Y0133099D02*
X0316752Y0133099D01*
X0317717Y0133697D02*
X0321424Y0133697D01*
X0321424Y0134296D02*
X0318316Y0134296D01*
X0318706Y0134894D02*
X0321424Y0134894D01*
X0321424Y0135493D02*
X0318954Y0135493D01*
X0319199Y0136091D02*
X0321424Y0136091D01*
X0321424Y0136690D02*
X0319199Y0136690D01*
X0319199Y0137288D02*
X0321424Y0137288D01*
X0321424Y0137887D02*
X0319144Y0137887D01*
X0318896Y0138485D02*
X0321424Y0138485D01*
X0321424Y0139084D02*
X0318648Y0139084D01*
X0318175Y0139682D02*
X0321424Y0139682D01*
X0321424Y0140281D02*
X0317577Y0140281D01*
X0316412Y0140879D02*
X0321424Y0140879D01*
X0321424Y0141478D02*
X0316264Y0141478D01*
X0317301Y0142076D02*
X0321424Y0142076D01*
X0321424Y0142675D02*
X0317973Y0142675D01*
X0318571Y0143273D02*
X0321424Y0143273D01*
X0321424Y0143872D02*
X0319170Y0143872D01*
X0319757Y0144470D02*
X0321424Y0144470D01*
X0321424Y0145069D02*
X0320102Y0145069D01*
X0320448Y0145667D02*
X0321424Y0145667D01*
X0321424Y0146266D02*
X0320794Y0146266D01*
X0321139Y0146864D02*
X0321424Y0146864D01*
X0321409Y0147463D02*
X0321424Y0147463D01*
X0324824Y0147463D02*
X0326023Y0147463D01*
X0325424Y0148061D02*
X0324824Y0148061D01*
X0324824Y0148660D02*
X0324895Y0148660D01*
X0324824Y0146864D02*
X0326621Y0146864D01*
X0328066Y0146266D02*
X0324824Y0146266D01*
X0324824Y0145667D02*
X0343120Y0145667D01*
X0343120Y0145069D02*
X0324824Y0145069D01*
X0324824Y0144470D02*
X0343120Y0144470D01*
X0343120Y0143872D02*
X0324824Y0143872D01*
X0324824Y0143273D02*
X0343120Y0143273D01*
X0343120Y0142675D02*
X0324824Y0142675D01*
X0324824Y0142076D02*
X0343120Y0142076D01*
X0343120Y0141478D02*
X0324824Y0141478D01*
X0324824Y0140879D02*
X0343120Y0140879D01*
X0343120Y0140281D02*
X0324824Y0140281D01*
X0324824Y0139682D02*
X0343120Y0139682D01*
X0343120Y0139084D02*
X0324824Y0139084D01*
X0324824Y0138485D02*
X0343120Y0138485D01*
X0343120Y0137887D02*
X0324824Y0137887D01*
X0324824Y0137288D02*
X0343120Y0137288D01*
X0343120Y0136690D02*
X0324824Y0136690D01*
X0324824Y0136091D02*
X0343120Y0136091D01*
X0343120Y0135493D02*
X0324824Y0135493D01*
X0324824Y0134894D02*
X0343120Y0134894D01*
X0343120Y0134296D02*
X0324824Y0134296D01*
X0324824Y0133697D02*
X0343120Y0133697D01*
X0343120Y0133099D02*
X0324824Y0133099D01*
X0324824Y0132500D02*
X0343120Y0132500D01*
X0343120Y0131902D02*
X0324824Y0131902D01*
X0324824Y0131303D02*
X0343120Y0131303D01*
X0343120Y0130705D02*
X0324824Y0130705D01*
X0324824Y0130106D02*
X0343120Y0130106D01*
X0343120Y0129507D02*
X0324824Y0129507D01*
X0324824Y0128909D02*
X0343120Y0128909D01*
X0343120Y0128310D02*
X0324420Y0128310D01*
X0323822Y0127712D02*
X0343120Y0127712D01*
X0343120Y0127113D02*
X0323223Y0127113D01*
X0322624Y0126515D02*
X0343120Y0126515D01*
X0343120Y0125916D02*
X0322026Y0125916D01*
X0321427Y0125318D02*
X0343120Y0125318D01*
X0343120Y0124719D02*
X0320829Y0124719D01*
X0320230Y0124121D02*
X0343120Y0124121D01*
X0343120Y0123522D02*
X0319632Y0123522D01*
X0319033Y0122924D02*
X0343120Y0122924D01*
X0343120Y0122325D02*
X0318435Y0122325D01*
X0317836Y0121727D02*
X0343120Y0121727D01*
X0343120Y0121128D02*
X0317238Y0121128D01*
X0316639Y0120530D02*
X0343120Y0120530D01*
X0343120Y0119931D02*
X0316041Y0119931D01*
X0315442Y0119333D02*
X0343120Y0119333D01*
X0343120Y0118734D02*
X0314844Y0118734D01*
X0314245Y0118136D02*
X0343120Y0118136D01*
X0343120Y0117537D02*
X0313647Y0117537D01*
X0313048Y0116939D02*
X0343120Y0116939D01*
X0343120Y0116340D02*
X0312450Y0116340D01*
X0311851Y0115742D02*
X0343120Y0115742D01*
X0343120Y0115143D02*
X0311253Y0115143D01*
X0310654Y0114545D02*
X0343120Y0114545D01*
X0343120Y0113946D02*
X0310056Y0113946D01*
X0309457Y0113348D02*
X0343120Y0113348D01*
X0343120Y0112749D02*
X0308859Y0112749D01*
X0308260Y0112151D02*
X0343120Y0112151D01*
X0343120Y0111552D02*
X0307662Y0111552D01*
X0307063Y0110954D02*
X0343120Y0110954D01*
X0343120Y0110355D02*
X0306465Y0110355D01*
X0305866Y0109757D02*
X0343120Y0109757D01*
X0343120Y0109158D02*
X0303218Y0109158D01*
X0300530Y0109158D02*
X0300348Y0109158D01*
X0300348Y0108560D02*
X0343120Y0108560D01*
X0343120Y0107961D02*
X0300348Y0107961D01*
X0300333Y0107363D02*
X0343120Y0107363D01*
X0343120Y0106764D02*
X0300348Y0106764D01*
X0300348Y0106166D02*
X0343120Y0106166D01*
X0343120Y0105567D02*
X0302584Y0105567D01*
X0303592Y0104969D02*
X0343120Y0104969D01*
X0343120Y0104370D02*
X0304069Y0104370D01*
X0304317Y0103772D02*
X0343120Y0103772D01*
X0343120Y0103173D02*
X0304361Y0103173D01*
X0304872Y0102574D02*
X0343120Y0102574D01*
X0343120Y0101976D02*
X0305471Y0101976D01*
X0306069Y0101377D02*
X0343120Y0101377D01*
X0343120Y0100779D02*
X0306668Y0100779D01*
X0307266Y0100180D02*
X0343120Y0100180D01*
X0343120Y0099582D02*
X0307865Y0099582D01*
X0308463Y0098983D02*
X0343120Y0098983D01*
X0343120Y0098385D02*
X0309062Y0098385D01*
X0309660Y0097786D02*
X0343120Y0097786D01*
X0343120Y0097188D02*
X0310259Y0097188D01*
X0310857Y0096589D02*
X0343120Y0096589D01*
X0343120Y0095991D02*
X0311456Y0095991D01*
X0312054Y0095392D02*
X0343120Y0095392D01*
X0343120Y0094794D02*
X0312653Y0094794D01*
X0313251Y0094195D02*
X0343120Y0094195D01*
X0343120Y0093597D02*
X0313850Y0093597D01*
X0314448Y0092998D02*
X0343120Y0092998D01*
X0343120Y0092400D02*
X0315047Y0092400D01*
X0315646Y0091801D02*
X0343120Y0091801D01*
X0343120Y0091203D02*
X0316244Y0091203D01*
X0316843Y0090604D02*
X0343120Y0090604D01*
X0343120Y0090006D02*
X0317441Y0090006D01*
X0318040Y0089407D02*
X0343120Y0089407D01*
X0343120Y0088809D02*
X0318638Y0088809D01*
X0319237Y0088210D02*
X0343120Y0088210D01*
X0343120Y0087612D02*
X0321672Y0087612D01*
X0323117Y0087013D02*
X0343120Y0087013D01*
X0343120Y0086415D02*
X0323847Y0086415D01*
X0324445Y0085816D02*
X0343120Y0085816D01*
X0343120Y0085218D02*
X0325019Y0085218D01*
X0325267Y0084619D02*
X0343120Y0084619D01*
X0343120Y0084021D02*
X0325514Y0084021D01*
X0325762Y0083422D02*
X0343120Y0083422D01*
X0343120Y0082824D02*
X0325899Y0082824D01*
X0325899Y0082225D02*
X0343120Y0082225D01*
X0343120Y0081627D02*
X0325899Y0081627D01*
X0325899Y0081028D02*
X0343120Y0081028D01*
X0343120Y0080430D02*
X0325768Y0080430D01*
X0325520Y0079831D02*
X0343120Y0079831D01*
X0343120Y0079233D02*
X0325273Y0079233D01*
X0325025Y0078634D02*
X0343120Y0078634D01*
X0343120Y0078036D02*
X0324460Y0078036D01*
X0323861Y0077437D02*
X0343120Y0077437D01*
X0343120Y0076838D02*
X0323152Y0076838D01*
X0321707Y0076240D02*
X0343120Y0076240D01*
X0343120Y0075641D02*
X0299620Y0075641D01*
X0300091Y0075043D02*
X0343120Y0075043D01*
X0343120Y0074444D02*
X0300339Y0074444D01*
X0300587Y0073846D02*
X0307473Y0073846D01*
X0305271Y0073247D02*
X0300835Y0073247D01*
X0300899Y0072649D02*
X0304235Y0072649D01*
X0303198Y0072050D02*
X0300899Y0072050D01*
X0300899Y0071452D02*
X0302315Y0071452D01*
X0301716Y0070853D02*
X0300899Y0070853D01*
X0300696Y0070255D02*
X0301117Y0070255D01*
X0300519Y0069656D02*
X0300448Y0069656D01*
X0299372Y0067861D02*
X0299285Y0067861D01*
X0299026Y0067262D02*
X0298687Y0067262D01*
X0298680Y0066664D02*
X0297730Y0066664D01*
X0298506Y0066065D02*
X0296285Y0066065D01*
X0294883Y0065467D02*
X0298345Y0065467D01*
X0298185Y0064868D02*
X0295231Y0064868D01*
X0295479Y0064270D02*
X0298025Y0064270D01*
X0297864Y0063671D02*
X0295726Y0063671D01*
X0295961Y0063073D02*
X0297824Y0063073D01*
X0297824Y0062474D02*
X0295961Y0062474D01*
X0295961Y0061876D02*
X0297824Y0061876D01*
X0297824Y0061277D02*
X0295961Y0061277D01*
X0295939Y0060679D02*
X0297824Y0060679D01*
X0297887Y0060080D02*
X0295691Y0060080D01*
X0295443Y0059482D02*
X0298048Y0059482D01*
X0298208Y0058883D02*
X0295195Y0058883D01*
X0294797Y0058285D02*
X0298368Y0058285D01*
X0298529Y0057686D02*
X0294198Y0057686D01*
X0293600Y0057088D02*
X0298730Y0057088D01*
X0299075Y0056489D02*
X0292471Y0056489D01*
X0287527Y0056489D02*
X0257471Y0056489D01*
X0258376Y0056864D02*
X0260054Y0058541D01*
X0260961Y0060733D01*
X0260961Y0063105D01*
X0260054Y0065296D01*
X0258376Y0066973D01*
X0256185Y0067881D01*
X0253813Y0067881D01*
X0251622Y0066973D01*
X0249945Y0065296D01*
X0249037Y0063105D01*
X0249037Y0060733D01*
X0249945Y0058541D01*
X0251622Y0056864D01*
X0253813Y0055956D01*
X0256185Y0055956D01*
X0258376Y0056864D01*
X0258600Y0057088D02*
X0286398Y0057088D01*
X0285800Y0057686D02*
X0259198Y0057686D01*
X0259797Y0058285D02*
X0285201Y0058285D01*
X0284803Y0058883D02*
X0260195Y0058883D01*
X0260443Y0059482D02*
X0284555Y0059482D01*
X0284307Y0060080D02*
X0260691Y0060080D01*
X0260939Y0060679D02*
X0284059Y0060679D01*
X0284037Y0061277D02*
X0260961Y0061277D01*
X0260961Y0061876D02*
X0284037Y0061876D01*
X0284037Y0062474D02*
X0260961Y0062474D01*
X0260961Y0063073D02*
X0284037Y0063073D01*
X0284272Y0063671D02*
X0260726Y0063671D01*
X0260479Y0064270D02*
X0284519Y0064270D01*
X0284767Y0064868D02*
X0260231Y0064868D01*
X0259883Y0065467D02*
X0285115Y0065467D01*
X0285714Y0066065D02*
X0259284Y0066065D01*
X0258686Y0066664D02*
X0286312Y0066664D01*
X0287320Y0067262D02*
X0257678Y0067262D01*
X0256233Y0067861D02*
X0288765Y0067861D01*
X0290114Y0068459D02*
X0245281Y0068459D01*
X0245627Y0067861D02*
X0253765Y0067861D01*
X0252320Y0067262D02*
X0245972Y0067262D01*
X0246318Y0066664D02*
X0251312Y0066664D01*
X0250714Y0066065D02*
X0246492Y0066065D01*
X0246653Y0065467D02*
X0250115Y0065467D01*
X0249767Y0064868D02*
X0246813Y0064868D01*
X0246973Y0064270D02*
X0249519Y0064270D01*
X0249272Y0063671D02*
X0247134Y0063671D01*
X0247174Y0063073D02*
X0249037Y0063073D01*
X0249037Y0062474D02*
X0247174Y0062474D01*
X0247174Y0061876D02*
X0249037Y0061876D01*
X0249037Y0061277D02*
X0247174Y0061277D01*
X0247174Y0060679D02*
X0249059Y0060679D01*
X0249307Y0060080D02*
X0247111Y0060080D01*
X0246950Y0059482D02*
X0249555Y0059482D01*
X0249803Y0058883D02*
X0246790Y0058883D01*
X0246630Y0058285D02*
X0250201Y0058285D01*
X0250800Y0057686D02*
X0246469Y0057686D01*
X0246268Y0057088D02*
X0251398Y0057088D01*
X0252527Y0056489D02*
X0245923Y0056489D01*
X0245577Y0055891D02*
X0299421Y0055891D01*
X0299767Y0055292D02*
X0245231Y0055292D01*
X0244886Y0054694D02*
X0300112Y0054694D01*
X0300605Y0054095D02*
X0244393Y0054095D01*
X0243795Y0053497D02*
X0301203Y0053497D01*
X0301802Y0052898D02*
X0243196Y0052898D01*
X0242598Y0052300D02*
X0302400Y0052300D01*
X0303347Y0051701D02*
X0241651Y0051701D01*
X0240873Y0051103D02*
X0304125Y0051103D01*
X0302680Y0050504D02*
X0242318Y0050504D01*
X0242952Y0049905D02*
X0302046Y0049905D01*
X0301448Y0049307D02*
X0243550Y0049307D01*
X0243804Y0048708D02*
X0301194Y0048708D01*
X0300946Y0048110D02*
X0244052Y0048110D01*
X0244199Y0047511D02*
X0300799Y0047511D01*
X0300799Y0046913D02*
X0244199Y0046913D01*
X0244199Y0046314D02*
X0300799Y0046314D01*
X0300951Y0045716D02*
X0244047Y0045716D01*
X0243799Y0045117D02*
X0301199Y0045117D01*
X0301459Y0044519D02*
X0243539Y0044519D01*
X0242940Y0043920D02*
X0302058Y0043920D01*
X0302707Y0043322D02*
X0242291Y0043322D01*
X0240846Y0042723D02*
X0304152Y0042723D01*
X0305846Y0042723D02*
X0314152Y0042723D01*
X0312707Y0043322D02*
X0307291Y0043322D01*
X0307940Y0043920D02*
X0312058Y0043920D01*
X0311459Y0044519D02*
X0308539Y0044519D01*
X0308799Y0045117D02*
X0311199Y0045117D01*
X0310951Y0045716D02*
X0309047Y0045716D01*
X0309199Y0046314D02*
X0310799Y0046314D01*
X0310799Y0046913D02*
X0309199Y0046913D01*
X0309199Y0047511D02*
X0310799Y0047511D01*
X0310946Y0048110D02*
X0309052Y0048110D01*
X0308804Y0048708D02*
X0311194Y0048708D01*
X0311448Y0049307D02*
X0308550Y0049307D01*
X0289798Y0069058D02*
X0244935Y0069058D01*
X0244479Y0069656D02*
X0289550Y0069656D01*
X0289411Y0073846D02*
X0244851Y0073846D01*
X0244252Y0074444D02*
X0289659Y0074444D01*
X0289907Y0075043D02*
X0243654Y0075043D01*
X0243055Y0075641D02*
X0290378Y0075641D01*
X0290977Y0076240D02*
X0246707Y0076240D01*
X0248152Y0076838D02*
X0291575Y0076838D01*
X0292904Y0077437D02*
X0248861Y0077437D01*
X0243291Y0076240D02*
X0242457Y0076240D01*
X0239726Y0079233D02*
X0239464Y0079233D01*
X0239478Y0079831D02*
X0238866Y0079831D01*
X0222618Y0077437D02*
X0222094Y0077437D01*
X0224421Y0055891D02*
X0147774Y0055891D01*
X0148083Y0061876D02*
X0149466Y0061876D01*
X0149218Y0062474D02*
X0148681Y0062474D01*
X0137366Y0080430D02*
X0137290Y0080430D01*
X0137080Y0081028D02*
X0137964Y0081028D01*
X0138563Y0081627D02*
X0136719Y0081627D01*
X0133618Y0084021D02*
X0119358Y0084021D01*
X0119957Y0084619D02*
X0133019Y0084619D01*
X0132421Y0085218D02*
X0120555Y0085218D01*
X0121154Y0085816D02*
X0131822Y0085816D01*
X0131224Y0086415D02*
X0121752Y0086415D01*
X0122351Y0087013D02*
X0130625Y0087013D01*
X0130027Y0087612D02*
X0122949Y0087612D01*
X0123548Y0088210D02*
X0129428Y0088210D01*
X0128830Y0088809D02*
X0124146Y0088809D01*
X0124745Y0089407D02*
X0128231Y0089407D01*
X0127633Y0090006D02*
X0125343Y0090006D01*
X0125942Y0090604D02*
X0127034Y0090604D01*
X0110360Y0079831D02*
X0100001Y0079831D01*
X0100600Y0079233D02*
X0109762Y0079233D01*
X0109163Y0078634D02*
X0101199Y0078634D01*
X0101560Y0078036D02*
X0108565Y0078036D01*
X0107966Y0077437D02*
X0101807Y0077437D01*
X0102055Y0076838D02*
X0107368Y0076838D01*
X0106769Y0076240D02*
X0102290Y0076240D01*
X0102290Y0075641D02*
X0106171Y0075641D01*
X0105572Y0075043D02*
X0102290Y0075043D01*
X0102290Y0074444D02*
X0104974Y0074444D01*
X0104375Y0073846D02*
X0102257Y0073846D01*
X0102009Y0073247D02*
X0103776Y0073247D01*
X0103178Y0072649D02*
X0101761Y0072649D01*
X0101513Y0072050D02*
X0102579Y0072050D01*
X0101981Y0071452D02*
X0101087Y0071452D01*
X0101382Y0070853D02*
X0100488Y0070853D01*
X0100784Y0070255D02*
X0099890Y0070255D01*
X0100185Y0069656D02*
X0098668Y0069656D01*
X0099587Y0069058D02*
X0006799Y0069058D01*
X0006799Y0069656D02*
X0094112Y0069656D01*
X0101403Y0066065D02*
X0111962Y0066065D01*
X0112210Y0065467D02*
X0107279Y0065467D01*
X0108788Y0064868D02*
X0112458Y0064868D01*
X0112929Y0064270D02*
X0109825Y0064270D01*
X0110861Y0063671D02*
X0113528Y0063671D01*
X0114126Y0063073D02*
X0111492Y0063073D01*
X0112090Y0062474D02*
X0115430Y0062474D01*
X0111715Y0066664D02*
X0102001Y0066664D01*
X0102600Y0067262D02*
X0111641Y0067262D01*
X0111641Y0067861D02*
X0103198Y0067861D01*
X0103797Y0068459D02*
X0111641Y0068459D01*
X0111641Y0069058D02*
X0104395Y0069058D01*
X0104994Y0069656D02*
X0111824Y0069656D01*
X0112072Y0070255D02*
X0105592Y0070255D01*
X0106191Y0070853D02*
X0112320Y0070853D01*
X0112595Y0071452D02*
X0106789Y0071452D01*
X0107388Y0072050D02*
X0113194Y0072050D01*
X0113792Y0072649D02*
X0107986Y0072649D01*
X0108585Y0073247D02*
X0114625Y0073247D01*
X0116069Y0073846D02*
X0109183Y0073846D01*
X0113108Y0046314D02*
X0113403Y0046314D01*
X0113512Y0045716D02*
X0112509Y0045716D01*
X0111910Y0045117D02*
X0113760Y0045117D01*
X0114008Y0044519D02*
X0111312Y0044519D01*
X0111423Y0043920D02*
X0114558Y0043920D01*
X0115156Y0043322D02*
X0112868Y0043322D01*
X0114340Y0041526D02*
X0343120Y0041526D01*
X0343120Y0040928D02*
X0114587Y0040928D01*
X0114732Y0040329D02*
X0343120Y0040329D01*
X0343120Y0039731D02*
X0114732Y0039731D01*
X0114732Y0039132D02*
X0343120Y0039132D01*
X0343120Y0038534D02*
X0114577Y0038534D01*
X0114329Y0037935D02*
X0343120Y0037935D01*
X0343120Y0037337D02*
X0114065Y0037337D01*
X0113466Y0036738D02*
X0343120Y0036738D01*
X0343120Y0036140D02*
X0112807Y0036140D01*
X0106974Y0042125D02*
X0106609Y0042125D01*
X0192360Y0024768D02*
X0197638Y0024768D01*
X0196919Y0024170D02*
X0193079Y0024170D01*
X0193569Y0023571D02*
X0196429Y0023571D01*
X0196092Y0022972D02*
X0193906Y0022972D01*
X0194129Y0022374D02*
X0195869Y0022374D01*
X0195742Y0021775D02*
X0194256Y0021775D01*
X0194299Y0021177D02*
X0195699Y0021177D01*
X0195699Y0020578D02*
X0194299Y0020578D01*
X0194299Y0019980D02*
X0195699Y0019980D01*
X0195699Y0019381D02*
X0194299Y0019381D01*
X0194299Y0018783D02*
X0195699Y0018783D01*
X0195699Y0017586D02*
X0194299Y0017586D01*
X0194299Y0016987D02*
X0195699Y0016987D01*
X0195699Y0016389D02*
X0194299Y0016389D01*
X0194299Y0015790D02*
X0195699Y0015790D01*
X0195699Y0015192D02*
X0194299Y0015192D01*
X0194261Y0014593D02*
X0195737Y0014593D01*
X0195859Y0013995D02*
X0194139Y0013995D01*
X0193922Y0013396D02*
X0196076Y0013396D01*
X0196406Y0012798D02*
X0193592Y0012798D01*
X0193111Y0012199D02*
X0196887Y0012199D01*
X0197594Y0011601D02*
X0192404Y0011601D01*
X0201091Y0011002D02*
X0338499Y0011002D01*
X0339158Y0011601D02*
X0202404Y0011601D01*
X0203111Y0012199D02*
X0339756Y0012199D01*
X0340355Y0012798D02*
X0203592Y0012798D01*
X0203922Y0013396D02*
X0340869Y0013396D01*
X0341215Y0013995D02*
X0204139Y0013995D01*
X0204261Y0014593D02*
X0341560Y0014593D01*
X0341906Y0015192D02*
X0204299Y0015192D01*
X0204299Y0015790D02*
X0342250Y0015790D01*
X0342410Y0016389D02*
X0204299Y0016389D01*
X0204299Y0016987D02*
X0342571Y0016987D01*
X0342731Y0017586D02*
X0204299Y0017586D01*
X0230846Y0042723D02*
X0239152Y0042723D01*
X0237707Y0043322D02*
X0232291Y0043322D01*
X0232940Y0043920D02*
X0237058Y0043920D01*
X0236459Y0044519D02*
X0233539Y0044519D01*
X0233799Y0045117D02*
X0236199Y0045117D01*
X0235951Y0045716D02*
X0234047Y0045716D01*
X0234199Y0046314D02*
X0235799Y0046314D01*
X0235799Y0046913D02*
X0234199Y0046913D01*
X0234199Y0047511D02*
X0235799Y0047511D01*
X0235946Y0048110D02*
X0234052Y0048110D01*
X0233804Y0048708D02*
X0236194Y0048708D01*
X0236448Y0049307D02*
X0233550Y0049307D01*
X0299022Y0076240D02*
X0318291Y0076240D01*
X0303655Y0098983D02*
X0300079Y0098983D01*
X0300348Y0099582D02*
X0303057Y0099582D01*
X0302458Y0100180D02*
X0300348Y0100180D01*
X0300348Y0100779D02*
X0301143Y0100779D01*
X0293305Y0098983D02*
X0286693Y0098983D01*
X0286435Y0098725D02*
X0286962Y0099253D01*
X0286962Y0107085D01*
X0286816Y0107231D01*
X0286962Y0107378D01*
X0286962Y0115210D01*
X0286435Y0115737D01*
X0280177Y0115737D01*
X0279650Y0115210D01*
X0279650Y0113285D01*
X0279533Y0113402D01*
X0278619Y0113781D01*
X0277629Y0113781D01*
X0276715Y0113402D01*
X0276015Y0112703D01*
X0275637Y0111788D01*
X0275637Y0110799D01*
X0276015Y0109885D01*
X0276715Y0109185D01*
X0277629Y0108806D01*
X0278619Y0108806D01*
X0279533Y0109185D01*
X0279650Y0109302D01*
X0279650Y0107378D01*
X0279797Y0107231D01*
X0279650Y0107085D01*
X0279650Y0105160D01*
X0279533Y0105277D01*
X0278619Y0105656D01*
X0277629Y0105656D01*
X0276715Y0105277D01*
X0276015Y0104578D01*
X0275637Y0103663D01*
X0275637Y0102674D01*
X0276015Y0101760D01*
X0276715Y0101060D01*
X0277629Y0100681D01*
X0278619Y0100681D01*
X0279533Y0101060D01*
X0279650Y0101177D01*
X0279650Y0099253D01*
X0280177Y0098725D01*
X0286435Y0098725D01*
X0286962Y0099582D02*
X0293036Y0099582D01*
X0293036Y0100180D02*
X0286962Y0100180D01*
X0286962Y0100779D02*
X0293036Y0100779D01*
X0293036Y0101377D02*
X0286962Y0101377D01*
X0286962Y0101976D02*
X0293036Y0101976D01*
X0293036Y0102574D02*
X0286962Y0102574D01*
X0286962Y0103173D02*
X0293036Y0103173D01*
X0293036Y0103772D02*
X0286962Y0103772D01*
X0286962Y0104370D02*
X0293036Y0104370D01*
X0293036Y0104969D02*
X0286962Y0104969D01*
X0286962Y0105567D02*
X0293036Y0105567D01*
X0293036Y0106166D02*
X0286962Y0106166D01*
X0286962Y0106764D02*
X0293036Y0106764D01*
X0293051Y0107363D02*
X0286947Y0107363D01*
X0286962Y0107961D02*
X0293036Y0107961D01*
X0293036Y0108560D02*
X0286962Y0108560D01*
X0286962Y0109158D02*
X0293036Y0109158D01*
X0293036Y0109757D02*
X0286962Y0109757D01*
X0286962Y0110355D02*
X0293036Y0110355D01*
X0293036Y0110954D02*
X0286962Y0110954D01*
X0286962Y0111552D02*
X0293036Y0111552D01*
X0293036Y0112151D02*
X0286962Y0112151D01*
X0286962Y0112749D02*
X0293036Y0112749D01*
X0293036Y0113348D02*
X0286962Y0113348D01*
X0286962Y0113946D02*
X0293036Y0113946D01*
X0293036Y0114545D02*
X0286962Y0114545D01*
X0286962Y0115143D02*
X0293036Y0115143D01*
X0300348Y0115143D02*
X0306444Y0115143D01*
X0305846Y0114545D02*
X0300348Y0114545D01*
X0300348Y0113946D02*
X0305247Y0113946D01*
X0304649Y0113348D02*
X0303338Y0113348D01*
X0300410Y0113348D02*
X0300348Y0113348D01*
X0300348Y0105567D02*
X0301164Y0105567D01*
X0279650Y0105567D02*
X0278834Y0105567D01*
X0279650Y0106166D02*
X0265348Y0106166D01*
X0265348Y0106764D02*
X0279650Y0106764D01*
X0279665Y0107363D02*
X0265333Y0107363D01*
X0265348Y0107961D02*
X0279650Y0107961D01*
X0279650Y0108560D02*
X0265348Y0108560D01*
X0265348Y0109158D02*
X0265530Y0109158D01*
X0268218Y0109158D02*
X0276780Y0109158D01*
X0276143Y0109757D02*
X0268855Y0109757D01*
X0269178Y0110355D02*
X0275820Y0110355D01*
X0275637Y0110954D02*
X0269361Y0110954D01*
X0269361Y0111552D02*
X0275637Y0111552D01*
X0275787Y0112151D02*
X0269211Y0112151D01*
X0268936Y0112749D02*
X0276062Y0112749D01*
X0276660Y0113348D02*
X0268338Y0113348D01*
X0265410Y0113348D02*
X0265348Y0113348D01*
X0265348Y0113946D02*
X0279650Y0113946D01*
X0279650Y0113348D02*
X0279588Y0113348D01*
X0279650Y0114545D02*
X0265348Y0114545D01*
X0265348Y0115143D02*
X0279650Y0115143D01*
X0279650Y0109158D02*
X0279468Y0109158D01*
X0277414Y0105567D02*
X0267584Y0105567D01*
X0268592Y0104969D02*
X0276406Y0104969D01*
X0275929Y0104370D02*
X0269069Y0104370D01*
X0269317Y0103772D02*
X0275681Y0103772D01*
X0275637Y0103173D02*
X0269361Y0103173D01*
X0269320Y0102574D02*
X0275678Y0102574D01*
X0275926Y0101976D02*
X0269072Y0101976D01*
X0268601Y0101377D02*
X0276397Y0101377D01*
X0277393Y0100779D02*
X0267605Y0100779D01*
X0266143Y0100779D02*
X0265348Y0100779D01*
X0265348Y0100180D02*
X0279650Y0100180D01*
X0279650Y0099582D02*
X0265348Y0099582D01*
X0265079Y0098983D02*
X0279919Y0098983D01*
X0279650Y0100779D02*
X0278855Y0100779D01*
X0266164Y0105567D02*
X0265348Y0105567D01*
X0244650Y0109158D02*
X0244468Y0109158D01*
X0244650Y0100779D02*
X0243855Y0100779D01*
X0241752Y0133099D02*
X0303246Y0133099D01*
X0302281Y0133697D02*
X0242717Y0133697D01*
X0243316Y0134296D02*
X0301682Y0134296D01*
X0301292Y0134894D02*
X0243706Y0134894D01*
X0243954Y0135493D02*
X0301044Y0135493D01*
X0300799Y0136091D02*
X0244199Y0136091D01*
X0244199Y0136690D02*
X0300799Y0136690D01*
X0300799Y0137288D02*
X0244199Y0137288D01*
X0244144Y0137887D02*
X0300854Y0137887D01*
X0301102Y0138485D02*
X0243896Y0138485D01*
X0243648Y0139084D02*
X0301350Y0139084D01*
X0301823Y0139682D02*
X0243175Y0139682D01*
X0242577Y0140281D02*
X0302421Y0140281D01*
X0303586Y0140879D02*
X0241412Y0140879D01*
X0241264Y0141478D02*
X0303734Y0141478D01*
X0302697Y0142076D02*
X0242301Y0142076D01*
X0242973Y0142675D02*
X0302025Y0142675D01*
X0301427Y0143273D02*
X0243571Y0143273D01*
X0244170Y0143872D02*
X0300828Y0143872D01*
X0300241Y0144470D02*
X0244757Y0144470D01*
X0245102Y0145069D02*
X0299896Y0145069D01*
X0299550Y0145667D02*
X0245448Y0145667D01*
X0245794Y0146266D02*
X0253066Y0146266D01*
X0253813Y0145956D02*
X0256185Y0145956D01*
X0258376Y0146864D01*
X0260054Y0148541D01*
X0260961Y0150733D01*
X0260961Y0153105D01*
X0260054Y0155296D01*
X0258376Y0156973D01*
X0256185Y0157881D01*
X0253813Y0157881D01*
X0251622Y0156973D01*
X0249945Y0155296D01*
X0249037Y0153105D01*
X0249037Y0150733D01*
X0249945Y0148541D01*
X0251622Y0146864D01*
X0253813Y0145956D01*
X0251621Y0146864D02*
X0246139Y0146864D01*
X0246409Y0147463D02*
X0251023Y0147463D01*
X0250424Y0148061D02*
X0246570Y0148061D01*
X0246730Y0148660D02*
X0249895Y0148660D01*
X0249647Y0149258D02*
X0246890Y0149258D01*
X0247051Y0149857D02*
X0249400Y0149857D01*
X0249152Y0150455D02*
X0247174Y0150455D01*
X0247174Y0151054D02*
X0249037Y0151054D01*
X0249037Y0151652D02*
X0247174Y0151652D01*
X0247174Y0152251D02*
X0249037Y0152251D01*
X0249037Y0152849D02*
X0247174Y0152849D01*
X0247174Y0153448D02*
X0249179Y0153448D01*
X0249427Y0154046D02*
X0247033Y0154046D01*
X0246873Y0154645D02*
X0249675Y0154645D01*
X0249923Y0155243D02*
X0246712Y0155243D01*
X0246552Y0155842D02*
X0250491Y0155842D01*
X0251089Y0156441D02*
X0246392Y0156441D01*
X0246101Y0157039D02*
X0251781Y0157039D01*
X0253226Y0157638D02*
X0245755Y0157638D01*
X0245410Y0158236D02*
X0290338Y0158236D01*
X0289890Y0158835D02*
X0245064Y0158835D01*
X0244702Y0159433D02*
X0289642Y0159433D01*
X0289395Y0160032D02*
X0244104Y0160032D01*
X0244508Y0160630D02*
X0243505Y0160630D01*
X0243910Y0161229D02*
X0242907Y0161229D01*
X0243311Y0161827D02*
X0242187Y0161827D01*
X0242713Y0162426D02*
X0241150Y0162426D01*
X0242114Y0163024D02*
X0240113Y0163024D01*
X0240917Y0164221D02*
X0229081Y0164221D01*
X0228482Y0163623D02*
X0231639Y0163623D01*
X0229885Y0163024D02*
X0227884Y0163024D01*
X0227285Y0162426D02*
X0228848Y0162426D01*
X0227811Y0161827D02*
X0226687Y0161827D01*
X0227091Y0161229D02*
X0226088Y0161229D01*
X0225851Y0160630D02*
X0226493Y0160630D01*
X0225894Y0160032D02*
X0225603Y0160032D01*
X0224243Y0157638D02*
X0224062Y0157638D01*
X0223897Y0157039D02*
X0223463Y0157039D01*
X0223606Y0156441D02*
X0222191Y0156441D01*
X0223446Y0155842D02*
X0219507Y0155842D01*
X0220075Y0155243D02*
X0223286Y0155243D01*
X0223125Y0154645D02*
X0220323Y0154645D01*
X0220571Y0154046D02*
X0222965Y0154046D01*
X0222824Y0153448D02*
X0220819Y0153448D01*
X0220961Y0152849D02*
X0222824Y0152849D01*
X0222824Y0152251D02*
X0220961Y0152251D01*
X0220961Y0151652D02*
X0222824Y0151652D01*
X0222824Y0151054D02*
X0220961Y0151054D01*
X0220846Y0150455D02*
X0222824Y0150455D01*
X0222947Y0149857D02*
X0220598Y0149857D01*
X0220351Y0149258D02*
X0223108Y0149258D01*
X0223268Y0148660D02*
X0220103Y0148660D01*
X0219574Y0148061D02*
X0223428Y0148061D01*
X0223589Y0147463D02*
X0218975Y0147463D01*
X0218377Y0146864D02*
X0223859Y0146864D01*
X0224204Y0146266D02*
X0216932Y0146266D01*
X0213066Y0146266D02*
X0159824Y0146266D01*
X0159824Y0146864D02*
X0211621Y0146864D01*
X0211023Y0147463D02*
X0159824Y0147463D01*
X0159824Y0148061D02*
X0210424Y0148061D01*
X0209895Y0148660D02*
X0159824Y0148660D01*
X0159824Y0149258D02*
X0209647Y0149258D01*
X0209400Y0149857D02*
X0159824Y0149857D01*
X0159824Y0150455D02*
X0209152Y0150455D01*
X0209037Y0151054D02*
X0159824Y0151054D01*
X0159824Y0151652D02*
X0209037Y0151652D01*
X0209037Y0152251D02*
X0159824Y0152251D01*
X0159824Y0152849D02*
X0209037Y0152849D01*
X0209179Y0153448D02*
X0159824Y0153448D01*
X0159824Y0154046D02*
X0209427Y0154046D01*
X0209675Y0154645D02*
X0159824Y0154645D01*
X0159824Y0155243D02*
X0209923Y0155243D01*
X0210491Y0155842D02*
X0159824Y0155842D01*
X0159824Y0156441D02*
X0211089Y0156441D01*
X0211781Y0157039D02*
X0159824Y0157039D01*
X0159824Y0157638D02*
X0213226Y0157638D01*
X0214890Y0158835D02*
X0159824Y0158835D01*
X0159824Y0159433D02*
X0163250Y0159433D01*
X0164248Y0159433D02*
X0214642Y0159433D01*
X0214395Y0160032D02*
X0165380Y0160032D01*
X0162118Y0160032D02*
X0159824Y0160032D01*
X0159824Y0160630D02*
X0161590Y0160630D01*
X0161342Y0161229D02*
X0159824Y0161229D01*
X0159824Y0161827D02*
X0161262Y0161827D01*
X0161267Y0162426D02*
X0159824Y0162426D01*
X0159824Y0163024D02*
X0161515Y0163024D01*
X0161935Y0163623D02*
X0160357Y0163623D01*
X0160956Y0164221D02*
X0162808Y0164221D01*
X0162153Y0165418D02*
X0215155Y0165418D01*
X0214815Y0164820D02*
X0161554Y0164820D01*
X0162751Y0166017D02*
X0215753Y0166017D01*
X0216352Y0166615D02*
X0163350Y0166615D01*
X0163948Y0167214D02*
X0217365Y0167214D01*
X0218810Y0167812D02*
X0164547Y0167812D01*
X0165145Y0168411D02*
X0240163Y0168411D01*
X0239818Y0169009D02*
X0165744Y0169009D01*
X0166342Y0169608D02*
X0239570Y0169608D01*
X0239322Y0170206D02*
X0166941Y0170206D01*
X0167539Y0170805D02*
X0239099Y0170805D01*
X0239099Y0171403D02*
X0168138Y0171403D01*
X0168736Y0172002D02*
X0239099Y0172002D01*
X0239099Y0172600D02*
X0169335Y0172600D01*
X0169933Y0173199D02*
X0239143Y0173199D01*
X0239391Y0173797D02*
X0170532Y0173797D01*
X0171130Y0174396D02*
X0239639Y0174396D01*
X0239887Y0174994D02*
X0171729Y0174994D01*
X0172327Y0175593D02*
X0240329Y0175593D01*
X0240928Y0176191D02*
X0172926Y0176191D01*
X0173524Y0176790D02*
X0241526Y0176790D01*
X0242787Y0177388D02*
X0174123Y0177388D01*
X0174721Y0177987D02*
X0343120Y0177987D01*
X0343120Y0178585D02*
X0175320Y0178585D01*
X0175918Y0179184D02*
X0343120Y0179184D01*
X0343120Y0179782D02*
X0176517Y0179782D01*
X0177115Y0180381D02*
X0343120Y0180381D01*
X0343120Y0180979D02*
X0177714Y0180979D01*
X0178313Y0181578D02*
X0343120Y0181578D01*
X0343120Y0182176D02*
X0178911Y0182176D01*
X0179510Y0182775D02*
X0343120Y0182775D01*
X0343120Y0183374D02*
X0180108Y0183374D01*
X0180707Y0183972D02*
X0343120Y0183972D01*
X0343120Y0184571D02*
X0181305Y0184571D01*
X0181904Y0185169D02*
X0343120Y0185169D01*
X0343120Y0185768D02*
X0182502Y0185768D01*
X0183101Y0186366D02*
X0343120Y0186366D01*
X0343120Y0186965D02*
X0183699Y0186965D01*
X0184298Y0187563D02*
X0343120Y0187563D01*
X0343120Y0188162D02*
X0184896Y0188162D01*
X0185495Y0188760D02*
X0343120Y0188760D01*
X0343120Y0189359D02*
X0202199Y0189359D01*
X0202208Y0189362D02*
X0203305Y0190459D01*
X0203899Y0191893D01*
X0203899Y0199444D01*
X0203305Y0200878D01*
X0202208Y0201975D01*
X0200775Y0202569D01*
X0199223Y0202569D01*
X0197790Y0201975D01*
X0196693Y0200878D01*
X0196099Y0199444D01*
X0196099Y0191893D01*
X0196693Y0190459D01*
X0197790Y0189362D01*
X0199223Y0188769D01*
X0200775Y0188769D01*
X0202208Y0189362D01*
X0202803Y0189957D02*
X0343120Y0189957D01*
X0343120Y0190556D02*
X0203345Y0190556D01*
X0203593Y0191154D02*
X0343120Y0191154D01*
X0343120Y0191753D02*
X0203841Y0191753D01*
X0203899Y0192351D02*
X0343120Y0192351D01*
X0343120Y0192950D02*
X0203899Y0192950D01*
X0203899Y0193548D02*
X0343110Y0193548D01*
X0343071Y0194147D02*
X0203899Y0194147D01*
X0203899Y0194745D02*
X0343032Y0194745D01*
X0342901Y0195344D02*
X0203899Y0195344D01*
X0203899Y0195942D02*
X0266981Y0195942D01*
X0264883Y0196541D02*
X0203899Y0196541D01*
X0203899Y0197139D02*
X0263551Y0197139D01*
X0262454Y0197738D02*
X0203899Y0197738D01*
X0203899Y0198336D02*
X0261670Y0198336D01*
X0261071Y0198935D02*
X0203899Y0198935D01*
X0203862Y0199533D02*
X0260444Y0199533D01*
X0259996Y0200132D02*
X0203614Y0200132D01*
X0203366Y0200730D02*
X0259510Y0200730D01*
X0259183Y0201329D02*
X0202854Y0201329D01*
X0202256Y0201927D02*
X0258838Y0201927D01*
X0258530Y0202526D02*
X0200878Y0202526D01*
X0199120Y0202526D02*
X0190878Y0202526D01*
X0192256Y0201927D02*
X0197742Y0201927D01*
X0197144Y0201329D02*
X0192854Y0201329D01*
X0193366Y0200730D02*
X0196632Y0200730D01*
X0196384Y0200132D02*
X0193614Y0200132D01*
X0193862Y0199533D02*
X0196136Y0199533D01*
X0196099Y0198935D02*
X0193899Y0198935D01*
X0193899Y0198336D02*
X0196099Y0198336D01*
X0196099Y0197738D02*
X0193899Y0197738D01*
X0193899Y0197139D02*
X0196099Y0197139D01*
X0196099Y0196541D02*
X0193899Y0196541D01*
X0193899Y0195942D02*
X0196099Y0195942D01*
X0196099Y0195344D02*
X0193899Y0195344D01*
X0193899Y0194745D02*
X0196099Y0194745D01*
X0196099Y0194147D02*
X0193899Y0194147D01*
X0193899Y0193548D02*
X0196099Y0193548D01*
X0196099Y0192950D02*
X0193899Y0192950D01*
X0193899Y0192351D02*
X0196099Y0192351D01*
X0196157Y0191753D02*
X0193841Y0191753D01*
X0193593Y0191154D02*
X0196405Y0191154D01*
X0196653Y0190556D02*
X0193345Y0190556D01*
X0192803Y0189957D02*
X0197195Y0189957D01*
X0197799Y0189359D02*
X0192199Y0189359D01*
X0187799Y0189359D02*
X0186093Y0189359D01*
X0186692Y0189957D02*
X0187195Y0189957D01*
X0184277Y0192351D02*
X0183899Y0192351D01*
X0183899Y0192950D02*
X0184876Y0192950D01*
X0185474Y0193548D02*
X0183899Y0193548D01*
X0183899Y0194147D02*
X0186073Y0194147D01*
X0186099Y0194745D02*
X0183899Y0194745D01*
X0183899Y0195344D02*
X0186099Y0195344D01*
X0186099Y0195942D02*
X0183899Y0195942D01*
X0183899Y0196541D02*
X0186099Y0196541D01*
X0186099Y0197139D02*
X0183899Y0197139D01*
X0183899Y0197738D02*
X0186099Y0197738D01*
X0186099Y0198336D02*
X0183899Y0198336D01*
X0183899Y0198935D02*
X0186099Y0198935D01*
X0186136Y0199533D02*
X0183862Y0199533D01*
X0183614Y0200132D02*
X0186384Y0200132D01*
X0186632Y0200730D02*
X0183366Y0200730D01*
X0182854Y0201329D02*
X0187144Y0201329D01*
X0187742Y0201927D02*
X0182256Y0201927D01*
X0180878Y0202526D02*
X0189120Y0202526D01*
X0179120Y0202526D02*
X0170878Y0202526D01*
X0170775Y0202569D02*
X0169223Y0202569D01*
X0167790Y0201975D01*
X0166693Y0200878D01*
X0166099Y0199444D01*
X0166099Y0191893D01*
X0166693Y0190459D01*
X0167790Y0189362D01*
X0169223Y0188769D01*
X0170775Y0188769D01*
X0172208Y0189362D01*
X0173305Y0190459D01*
X0173899Y0191893D01*
X0173899Y0199444D01*
X0173305Y0200878D01*
X0172208Y0201975D01*
X0170775Y0202569D01*
X0172256Y0201927D02*
X0177742Y0201927D01*
X0177144Y0201329D02*
X0172854Y0201329D01*
X0173366Y0200730D02*
X0176632Y0200730D01*
X0176384Y0200132D02*
X0173614Y0200132D01*
X0173862Y0199533D02*
X0176136Y0199533D01*
X0176099Y0198935D02*
X0173899Y0198935D01*
X0173899Y0198336D02*
X0176099Y0198336D01*
X0176099Y0197738D02*
X0173899Y0197738D01*
X0173899Y0197139D02*
X0176099Y0197139D01*
X0176099Y0196541D02*
X0173899Y0196541D01*
X0173899Y0195942D02*
X0176099Y0195942D01*
X0176099Y0195344D02*
X0173899Y0195344D01*
X0173899Y0194745D02*
X0176099Y0194745D01*
X0176099Y0194147D02*
X0173899Y0194147D01*
X0173899Y0193548D02*
X0176099Y0193548D01*
X0176099Y0192950D02*
X0173899Y0192950D01*
X0173899Y0192351D02*
X0176099Y0192351D01*
X0176157Y0191753D02*
X0173841Y0191753D01*
X0173593Y0191154D02*
X0176405Y0191154D01*
X0176653Y0190556D02*
X0173345Y0190556D01*
X0172803Y0189957D02*
X0177195Y0189957D01*
X0177799Y0189359D02*
X0172199Y0189359D01*
X0167799Y0189359D02*
X0162199Y0189359D01*
X0162803Y0189957D02*
X0167195Y0189957D01*
X0166653Y0190556D02*
X0163345Y0190556D01*
X0163593Y0191154D02*
X0166405Y0191154D01*
X0166157Y0191753D02*
X0163841Y0191753D01*
X0163899Y0192351D02*
X0166099Y0192351D01*
X0166099Y0192950D02*
X0163899Y0192950D01*
X0163899Y0193548D02*
X0166099Y0193548D01*
X0166099Y0194147D02*
X0163899Y0194147D01*
X0163899Y0194745D02*
X0166099Y0194745D01*
X0166099Y0195344D02*
X0163899Y0195344D01*
X0163899Y0195942D02*
X0166099Y0195942D01*
X0166099Y0196541D02*
X0163899Y0196541D01*
X0163899Y0197139D02*
X0166099Y0197139D01*
X0166099Y0197738D02*
X0163899Y0197738D01*
X0163899Y0198336D02*
X0166099Y0198336D01*
X0166099Y0198935D02*
X0163899Y0198935D01*
X0163862Y0199533D02*
X0166136Y0199533D01*
X0166384Y0200132D02*
X0163614Y0200132D01*
X0163366Y0200730D02*
X0166632Y0200730D01*
X0167144Y0201329D02*
X0162854Y0201329D01*
X0162256Y0201927D02*
X0167742Y0201927D01*
X0169120Y0202526D02*
X0160878Y0202526D01*
X0159120Y0202526D02*
X0157421Y0202526D01*
X0156822Y0203124D02*
X0258344Y0203124D01*
X0258111Y0203723D02*
X0156224Y0203723D01*
X0155625Y0204321D02*
X0257980Y0204321D01*
X0293642Y0195942D02*
X0342740Y0195942D01*
X0342580Y0196541D02*
X0295740Y0196541D01*
X0297073Y0197139D02*
X0342419Y0197139D01*
X0342259Y0197738D02*
X0298169Y0197738D01*
X0298953Y0198336D02*
X0341925Y0198336D01*
X0341580Y0198935D02*
X0299552Y0198935D01*
X0300179Y0199533D02*
X0341234Y0199533D01*
X0340889Y0200132D02*
X0300627Y0200132D01*
X0301113Y0200730D02*
X0340388Y0200730D01*
X0339790Y0201329D02*
X0301440Y0201329D01*
X0301785Y0201927D02*
X0339191Y0201927D01*
X0338557Y0202526D02*
X0302093Y0202526D01*
X0302279Y0203124D02*
X0337521Y0203124D01*
X0336484Y0203723D02*
X0302512Y0203723D01*
X0302643Y0204321D02*
X0334748Y0204321D01*
X0343120Y0177388D02*
X0322211Y0177388D01*
X0323472Y0176790D02*
X0343120Y0176790D01*
X0343120Y0176191D02*
X0324070Y0176191D01*
X0324669Y0175593D02*
X0343120Y0175593D01*
X0343120Y0174994D02*
X0325111Y0174994D01*
X0325359Y0174396D02*
X0343120Y0174396D01*
X0343120Y0173797D02*
X0325607Y0173797D01*
X0325855Y0173199D02*
X0343120Y0173199D01*
X0343120Y0172600D02*
X0325899Y0172600D01*
X0325899Y0172002D02*
X0343120Y0172002D01*
X0343120Y0171403D02*
X0325899Y0171403D01*
X0325899Y0170805D02*
X0343120Y0170805D01*
X0343120Y0170206D02*
X0325676Y0170206D01*
X0325428Y0169608D02*
X0343120Y0169608D01*
X0343120Y0169009D02*
X0325180Y0169009D01*
X0324835Y0168411D02*
X0343120Y0168411D01*
X0343120Y0167812D02*
X0324236Y0167812D01*
X0323638Y0167214D02*
X0343120Y0167214D01*
X0343120Y0166615D02*
X0322613Y0166615D01*
X0321699Y0166017D02*
X0343120Y0166017D01*
X0343120Y0165418D02*
X0321699Y0165418D01*
X0321699Y0164820D02*
X0343120Y0164820D01*
X0343120Y0164221D02*
X0321699Y0164221D01*
X0321949Y0163623D02*
X0343120Y0163623D01*
X0343120Y0163024D02*
X0322548Y0163024D01*
X0323146Y0162426D02*
X0343120Y0162426D01*
X0343120Y0161827D02*
X0323745Y0161827D01*
X0324343Y0161229D02*
X0343120Y0161229D01*
X0343120Y0160630D02*
X0324824Y0160630D01*
X0324824Y0160032D02*
X0343120Y0160032D01*
X0343120Y0159433D02*
X0324824Y0159433D01*
X0324824Y0158835D02*
X0343120Y0158835D01*
X0343120Y0158236D02*
X0324824Y0158236D01*
X0324824Y0157638D02*
X0328226Y0157638D01*
X0326781Y0157039D02*
X0324824Y0157039D01*
X0324824Y0156441D02*
X0326089Y0156441D01*
X0325491Y0155842D02*
X0324824Y0155842D01*
X0324824Y0155243D02*
X0324923Y0155243D01*
X0321424Y0156441D02*
X0321392Y0156441D01*
X0321424Y0157039D02*
X0321101Y0157039D01*
X0321424Y0157638D02*
X0320755Y0157638D01*
X0320410Y0158236D02*
X0321424Y0158236D01*
X0321424Y0158835D02*
X0320064Y0158835D01*
X0319702Y0159433D02*
X0321330Y0159433D01*
X0320732Y0160032D02*
X0319104Y0160032D01*
X0318505Y0160630D02*
X0320133Y0160630D01*
X0319535Y0161229D02*
X0317907Y0161229D01*
X0317187Y0161827D02*
X0318936Y0161827D01*
X0318338Y0162426D02*
X0316150Y0162426D01*
X0315113Y0163024D02*
X0318299Y0163024D01*
X0318299Y0163623D02*
X0313359Y0163623D01*
X0318299Y0164221D02*
X0300431Y0164221D01*
X0300183Y0164820D02*
X0318299Y0164820D01*
X0318299Y0165418D02*
X0299843Y0165418D01*
X0299245Y0166017D02*
X0318299Y0166017D01*
X0317385Y0166615D02*
X0298646Y0166615D01*
X0297633Y0167214D02*
X0316360Y0167214D01*
X0315762Y0167812D02*
X0296188Y0167812D01*
X0293810Y0167812D02*
X0249236Y0167812D01*
X0248638Y0167214D02*
X0292365Y0167214D01*
X0291352Y0166615D02*
X0247613Y0166615D01*
X0249835Y0168411D02*
X0315163Y0168411D01*
X0314818Y0169009D02*
X0250180Y0169009D01*
X0250428Y0169608D02*
X0314570Y0169608D01*
X0314322Y0170206D02*
X0250676Y0170206D01*
X0250899Y0170805D02*
X0314099Y0170805D01*
X0314099Y0171403D02*
X0250899Y0171403D01*
X0250899Y0172002D02*
X0314099Y0172002D01*
X0314099Y0172600D02*
X0250899Y0172600D01*
X0250855Y0173199D02*
X0314143Y0173199D01*
X0314391Y0173797D02*
X0250607Y0173797D01*
X0250359Y0174396D02*
X0314639Y0174396D01*
X0314887Y0174994D02*
X0250111Y0174994D01*
X0249669Y0175593D02*
X0315329Y0175593D01*
X0315928Y0176191D02*
X0249070Y0176191D01*
X0248472Y0176790D02*
X0316526Y0176790D01*
X0317787Y0177388D02*
X0247211Y0177388D01*
X0227863Y0167812D02*
X0221188Y0167812D01*
X0222633Y0167214D02*
X0227265Y0167214D01*
X0226666Y0166615D02*
X0223646Y0166615D01*
X0224245Y0166017D02*
X0226068Y0166017D01*
X0225469Y0165418D02*
X0224843Y0165418D01*
X0214567Y0164221D02*
X0164690Y0164221D01*
X0165563Y0163623D02*
X0214319Y0163623D01*
X0215338Y0158236D02*
X0159824Y0158236D01*
X0143466Y0155842D02*
X0142845Y0155842D01*
X0156207Y0146864D02*
X0156424Y0146864D01*
X0159824Y0145667D02*
X0224550Y0145667D01*
X0224896Y0145069D02*
X0159824Y0145069D01*
X0159824Y0144470D02*
X0225241Y0144470D01*
X0225828Y0143872D02*
X0159824Y0143872D01*
X0159824Y0143273D02*
X0226427Y0143273D01*
X0227025Y0142675D02*
X0159824Y0142675D01*
X0159824Y0142076D02*
X0227697Y0142076D01*
X0228734Y0141478D02*
X0159824Y0141478D01*
X0159824Y0140879D02*
X0228586Y0140879D01*
X0227421Y0140281D02*
X0159824Y0140281D01*
X0159824Y0139682D02*
X0226823Y0139682D01*
X0226350Y0139084D02*
X0159824Y0139084D01*
X0159824Y0138485D02*
X0226102Y0138485D01*
X0225854Y0137887D02*
X0159824Y0137887D01*
X0159824Y0137288D02*
X0225799Y0137288D01*
X0225799Y0136690D02*
X0159824Y0136690D01*
X0159824Y0136091D02*
X0225799Y0136091D01*
X0226044Y0135493D02*
X0159824Y0135493D01*
X0159824Y0134894D02*
X0226292Y0134894D01*
X0226682Y0134296D02*
X0159824Y0134296D01*
X0159824Y0133697D02*
X0227281Y0133697D01*
X0228246Y0133099D02*
X0159824Y0133099D01*
X0153781Y0134894D02*
X0143463Y0134894D01*
X0143790Y0135493D02*
X0153924Y0135493D01*
X0153924Y0136091D02*
X0143665Y0136091D01*
X0143067Y0136690D02*
X0153924Y0136690D01*
X0153924Y0137288D02*
X0142468Y0137288D01*
X0141870Y0137887D02*
X0153924Y0137887D01*
X0153924Y0138485D02*
X0141271Y0138485D01*
X0140673Y0139084D02*
X0153924Y0139084D01*
X0153924Y0139682D02*
X0140074Y0139682D01*
X0142865Y0134296D02*
X0153182Y0134296D01*
X0152584Y0133697D02*
X0142266Y0133697D01*
X0141668Y0133099D02*
X0151985Y0133099D01*
X0151387Y0132500D02*
X0150759Y0132500D01*
X0146016Y0132500D02*
X0141069Y0132500D01*
X0140471Y0131902D02*
X0144849Y0131902D01*
X0144250Y0131303D02*
X0139872Y0131303D01*
X0138113Y0131303D02*
X0136974Y0131303D01*
X0137222Y0131902D02*
X0137515Y0131902D01*
X0115078Y0166615D02*
X0111944Y0166615D01*
X0111346Y0167214D02*
X0113980Y0167214D01*
X0113382Y0167812D02*
X0110608Y0167812D01*
X0109572Y0168411D02*
X0112783Y0168411D01*
X0112398Y0169009D02*
X0108535Y0169009D01*
X0106734Y0169608D02*
X0112150Y0169608D01*
X0152199Y0189359D02*
X0157799Y0189359D01*
X0157195Y0189957D02*
X0152803Y0189957D01*
X0153345Y0190556D02*
X0156653Y0190556D01*
X0156405Y0191154D02*
X0153593Y0191154D01*
X0153841Y0191753D02*
X0156157Y0191753D01*
X0156099Y0192351D02*
X0153899Y0192351D01*
X0153899Y0192950D02*
X0156099Y0192950D01*
X0156099Y0193548D02*
X0153899Y0193548D01*
X0153899Y0194147D02*
X0156099Y0194147D01*
X0156099Y0194745D02*
X0153899Y0194745D01*
X0153899Y0195344D02*
X0156099Y0195344D01*
X0156099Y0195942D02*
X0153899Y0195942D01*
X0153899Y0196541D02*
X0156099Y0196541D01*
X0156099Y0197139D02*
X0153899Y0197139D01*
X0153899Y0197738D02*
X0156099Y0197738D01*
X0156099Y0198336D02*
X0153899Y0198336D01*
X0153899Y0198935D02*
X0156099Y0198935D01*
X0155605Y0199533D02*
X0153862Y0199533D01*
X0153614Y0200132D02*
X0155007Y0200132D01*
X0154408Y0200730D02*
X0153366Y0200730D01*
X0153810Y0201329D02*
X0152854Y0201329D01*
X0153211Y0201927D02*
X0152256Y0201927D01*
X0238359Y0163623D02*
X0241516Y0163623D01*
X0243930Y0166017D02*
X0290753Y0166017D01*
X0290155Y0165418D02*
X0244529Y0165418D01*
X0245127Y0164820D02*
X0289815Y0164820D01*
X0289567Y0164221D02*
X0245726Y0164221D01*
X0246324Y0163623D02*
X0289319Y0163623D01*
X0288226Y0157638D02*
X0256772Y0157638D01*
X0258217Y0157039D02*
X0286781Y0157039D01*
X0286089Y0156441D02*
X0258909Y0156441D01*
X0259507Y0155842D02*
X0285491Y0155842D01*
X0284923Y0155243D02*
X0260075Y0155243D01*
X0260323Y0154645D02*
X0284675Y0154645D01*
X0284427Y0154046D02*
X0260571Y0154046D01*
X0260819Y0153448D02*
X0284179Y0153448D01*
X0284037Y0152849D02*
X0260961Y0152849D01*
X0260961Y0152251D02*
X0284037Y0152251D01*
X0284037Y0151652D02*
X0260961Y0151652D01*
X0260961Y0151054D02*
X0284037Y0151054D01*
X0284152Y0150455D02*
X0260846Y0150455D01*
X0260598Y0149857D02*
X0284400Y0149857D01*
X0284647Y0149258D02*
X0260351Y0149258D01*
X0260103Y0148660D02*
X0284895Y0148660D01*
X0285424Y0148061D02*
X0259574Y0148061D01*
X0258975Y0147463D02*
X0286023Y0147463D01*
X0286621Y0146864D02*
X0258377Y0146864D01*
X0256932Y0146266D02*
X0288066Y0146266D01*
X0291932Y0146266D02*
X0299204Y0146266D01*
X0298859Y0146864D02*
X0293377Y0146864D01*
X0293975Y0147463D02*
X0298589Y0147463D01*
X0298428Y0148061D02*
X0294574Y0148061D01*
X0295103Y0148660D02*
X0298268Y0148660D01*
X0298108Y0149258D02*
X0295351Y0149258D01*
X0295598Y0149857D02*
X0297947Y0149857D01*
X0297824Y0150455D02*
X0295846Y0150455D01*
X0295961Y0151054D02*
X0297824Y0151054D01*
X0297824Y0151652D02*
X0295961Y0151652D01*
X0295961Y0152251D02*
X0297824Y0152251D01*
X0297824Y0152849D02*
X0295961Y0152849D01*
X0295819Y0153448D02*
X0297824Y0153448D01*
X0297965Y0154046D02*
X0295571Y0154046D01*
X0295323Y0154645D02*
X0298125Y0154645D01*
X0298286Y0155243D02*
X0295075Y0155243D01*
X0294507Y0155842D02*
X0298446Y0155842D01*
X0298606Y0156441D02*
X0297191Y0156441D01*
X0298463Y0157039D02*
X0298897Y0157039D01*
X0299062Y0157638D02*
X0299243Y0157638D01*
X0300603Y0160032D02*
X0300894Y0160032D01*
X0300851Y0160630D02*
X0301493Y0160630D01*
X0300899Y0161229D02*
X0302091Y0161229D01*
X0302811Y0161827D02*
X0300899Y0161827D01*
X0300899Y0162426D02*
X0303848Y0162426D01*
X0304885Y0163024D02*
X0300899Y0163024D01*
X0300679Y0163623D02*
X0306639Y0163623D01*
X0331772Y0157638D02*
X0343120Y0157638D01*
X0343120Y0157039D02*
X0333217Y0157039D01*
X0333909Y0156441D02*
X0343120Y0156441D01*
X0343120Y0155842D02*
X0334507Y0155842D01*
X0335075Y0155243D02*
X0343120Y0155243D01*
X0343120Y0154645D02*
X0335323Y0154645D01*
X0335571Y0154046D02*
X0343120Y0154046D01*
X0343120Y0153448D02*
X0335819Y0153448D01*
X0335961Y0152849D02*
X0343120Y0152849D01*
X0343120Y0152251D02*
X0335961Y0152251D01*
X0335961Y0151652D02*
X0343120Y0151652D01*
X0343120Y0151054D02*
X0335961Y0151054D01*
X0335846Y0150455D02*
X0343120Y0150455D01*
X0343120Y0149857D02*
X0335598Y0149857D01*
X0335351Y0149258D02*
X0343120Y0149258D01*
X0343120Y0148660D02*
X0335103Y0148660D01*
X0334574Y0148061D02*
X0343120Y0148061D01*
X0343120Y0147463D02*
X0333975Y0147463D01*
X0333377Y0146864D02*
X0343120Y0146864D01*
X0343120Y0146266D02*
X0331932Y0146266D01*
X0311823Y0139682D02*
X0308175Y0139682D01*
X0308648Y0139084D02*
X0311350Y0139084D01*
X0311102Y0138485D02*
X0308896Y0138485D01*
X0309144Y0137887D02*
X0310854Y0137887D01*
X0310799Y0137288D02*
X0309199Y0137288D01*
X0309199Y0136690D02*
X0310799Y0136690D01*
X0310799Y0136091D02*
X0309199Y0136091D01*
X0308954Y0135493D02*
X0311044Y0135493D01*
X0311292Y0134894D02*
X0308706Y0134894D01*
X0308316Y0134296D02*
X0311682Y0134296D01*
X0312281Y0133697D02*
X0307717Y0133697D01*
X0306752Y0133099D02*
X0313246Y0133099D01*
X0238246Y0133099D02*
X0231752Y0133099D01*
X0232717Y0133697D02*
X0237281Y0133697D01*
X0236682Y0134296D02*
X0233316Y0134296D01*
X0233706Y0134894D02*
X0236292Y0134894D01*
X0236044Y0135493D02*
X0233954Y0135493D01*
X0234199Y0136091D02*
X0235799Y0136091D01*
X0235799Y0136690D02*
X0234199Y0136690D01*
X0234199Y0137288D02*
X0235799Y0137288D01*
X0235854Y0137887D02*
X0234144Y0137887D01*
X0233896Y0138485D02*
X0236102Y0138485D01*
X0236350Y0139084D02*
X0233648Y0139084D01*
X0233175Y0139682D02*
X0236823Y0139682D01*
X0047918Y0117537D02*
X0047397Y0117537D01*
X0041938Y0121727D02*
X0006799Y0121727D01*
X0006799Y0122325D02*
X0040819Y0122325D01*
X0040221Y0122924D02*
X0006799Y0122924D01*
X0006799Y0123522D02*
X0039622Y0123522D01*
X0039239Y0124121D02*
X0006799Y0124121D01*
X0006799Y0124719D02*
X0038991Y0124719D01*
X0038743Y0125318D02*
X0006799Y0125318D01*
X0006799Y0125916D02*
X0038495Y0125916D01*
X0038492Y0126515D02*
X0006799Y0126515D01*
X0006799Y0127113D02*
X0038492Y0127113D01*
X0038492Y0127712D02*
X0006799Y0127712D01*
X0006799Y0128310D02*
X0038509Y0128310D01*
X0038757Y0128909D02*
X0006799Y0128909D01*
X0006799Y0129507D02*
X0039005Y0129507D01*
X0039253Y0130106D02*
X0006799Y0130106D01*
X0006799Y0130705D02*
X0039657Y0130705D01*
X0040255Y0131303D02*
X0006799Y0131303D01*
X0006799Y0131902D02*
X0040854Y0131902D01*
X0042021Y0132500D02*
X0006799Y0132500D01*
X0015297Y0009207D02*
X0334623Y0009207D01*
D16*
X0294999Y0071919D02*
X0244374Y0071919D01*
X0238124Y0078169D01*
X0225754Y0078169D01*
X0219751Y0072166D01*
X0219999Y0071919D01*
X0219751Y0072166D02*
X0208124Y0083794D01*
X0136249Y0083794D01*
X0126825Y0093217D01*
X0126825Y0093892D01*
X0099852Y0066919D01*
X0093124Y0066919D01*
X0085783Y0059578D01*
X0085783Y0050350D01*
X0129058Y0074280D02*
X0132722Y0070616D01*
X0138467Y0076361D01*
X0134803Y0080025D01*
X0147932Y0066896D02*
X0151597Y0063231D01*
X0145851Y0057486D02*
X0142187Y0061150D01*
X0126825Y0093892D02*
X0135281Y0102348D01*
X0137781Y0102348D01*
X0123124Y0101294D02*
X0118749Y0096919D01*
X0141874Y0120044D02*
X0134772Y0127146D01*
X0134772Y0132486D01*
X0138436Y0136150D01*
X0132691Y0141896D01*
X0129026Y0138231D01*
X0142156Y0151361D02*
X0145820Y0155025D01*
X0145820Y0157348D01*
X0121874Y0181294D01*
X0101090Y0181294D01*
X0096390Y0179094D01*
X0085783Y0182078D02*
X0107499Y0203794D01*
X0153749Y0203794D01*
X0159999Y0197544D01*
X0159999Y0195669D01*
X0169999Y0195669D02*
X0169999Y0193794D01*
X0189999Y0195669D02*
X0158124Y0163794D01*
X0158124Y0126294D01*
X0151874Y0120044D01*
X0141874Y0120044D01*
X0148387Y0127096D02*
X0155624Y0134333D01*
X0155624Y0145044D01*
X0151565Y0149102D01*
X0151565Y0149280D01*
X0147901Y0145616D01*
X0163749Y0161919D02*
X0219999Y0161919D01*
X0224374Y0161919D01*
X0228749Y0166294D01*
X0241249Y0166294D01*
X0245624Y0161919D01*
X0294999Y0161919D01*
X0319999Y0163169D02*
X0323124Y0160044D01*
X0323124Y0129419D01*
X0304999Y0111294D01*
X0301874Y0111294D01*
X0296692Y0111294D01*
X0296692Y0103169D02*
X0301874Y0103169D01*
X0319999Y0085044D01*
X0319999Y0081919D01*
X0283306Y0103169D02*
X0278124Y0103169D01*
X0283306Y0103169D02*
X0283306Y0111294D01*
X0278124Y0111294D01*
X0266874Y0111294D02*
X0261692Y0111294D01*
X0261692Y0103169D01*
X0266874Y0103169D01*
X0248306Y0103169D02*
X0248306Y0085226D01*
X0244999Y0081919D01*
X0247499Y0102362D02*
X0248306Y0103169D01*
X0243124Y0103169D01*
X0243124Y0111294D02*
X0248306Y0111294D01*
X0319999Y0163169D02*
X0319999Y0171919D01*
X0085783Y0182078D02*
X0085783Y0154345D01*
X0053982Y0120044D01*
X0053737Y0119799D01*
X0047254Y0119799D01*
X0033161Y0105705D01*
X0033161Y0102973D01*
X0033786Y0102348D01*
D17*
X0118749Y0096919D03*
X0123124Y0101294D03*
X0134803Y0080025D03*
X0129058Y0074280D03*
X0151597Y0063231D03*
X0145851Y0057486D03*
X0243124Y0103169D03*
X0243124Y0111294D03*
X0266874Y0111294D03*
X0278124Y0111294D03*
X0278124Y0103169D03*
X0266874Y0103169D03*
X0301874Y0103169D03*
X0301874Y0111294D03*
X0163749Y0161919D03*
X0145820Y0155025D03*
X0151565Y0149280D03*
X0129026Y0138231D03*
X0134772Y0132486D03*
M02*
