G75*
%MOIN*%
%OFA0B0*%
%FSLAX25Y25*%
%IPPOS*%
%LPD*%
%AMOC8*
5,1,8,0,0,1.08239X$1,22.5*
%
%ADD10C,0.00000*%
%ADD11C,0.00500*%
%ADD12C,0.00600*%
D10*
X0018247Y0004419D02*
X0331672Y0004419D01*
X0332053Y0004424D01*
X0332433Y0004437D01*
X0332813Y0004460D01*
X0333192Y0004493D01*
X0333570Y0004534D01*
X0333947Y0004584D01*
X0334323Y0004644D01*
X0334698Y0004712D01*
X0335070Y0004790D01*
X0335441Y0004877D01*
X0335809Y0004972D01*
X0336175Y0005077D01*
X0336538Y0005190D01*
X0336899Y0005312D01*
X0337256Y0005442D01*
X0337610Y0005582D01*
X0337961Y0005729D01*
X0338308Y0005886D01*
X0338651Y0006050D01*
X0338990Y0006223D01*
X0339325Y0006404D01*
X0339656Y0006593D01*
X0339981Y0006790D01*
X0340302Y0006994D01*
X0340618Y0007207D01*
X0340928Y0007427D01*
X0341234Y0007654D01*
X0341533Y0007889D01*
X0341827Y0008131D01*
X0342115Y0008379D01*
X0342397Y0008635D01*
X0342672Y0008898D01*
X0342941Y0009167D01*
X0343204Y0009442D01*
X0343460Y0009724D01*
X0343708Y0010012D01*
X0343950Y0010306D01*
X0344185Y0010605D01*
X0344412Y0010911D01*
X0344632Y0011221D01*
X0344845Y0011537D01*
X0345049Y0011858D01*
X0345246Y0012183D01*
X0345435Y0012514D01*
X0345616Y0012849D01*
X0345789Y0013188D01*
X0345953Y0013531D01*
X0346110Y0013878D01*
X0346257Y0014229D01*
X0346397Y0014583D01*
X0346527Y0014940D01*
X0346649Y0015301D01*
X0346762Y0015664D01*
X0346867Y0016030D01*
X0346962Y0016398D01*
X0347049Y0016769D01*
X0347127Y0017141D01*
X0347195Y0017516D01*
X0347255Y0017892D01*
X0347305Y0018269D01*
X0347346Y0018647D01*
X0347379Y0019026D01*
X0347402Y0019406D01*
X0347415Y0019786D01*
X0347420Y0020167D01*
X0347420Y0193395D01*
X0347415Y0193776D01*
X0347402Y0194156D01*
X0347379Y0194536D01*
X0347346Y0194915D01*
X0347305Y0195293D01*
X0347255Y0195670D01*
X0347195Y0196046D01*
X0347127Y0196421D01*
X0347049Y0196793D01*
X0346962Y0197164D01*
X0346867Y0197532D01*
X0346762Y0197898D01*
X0346649Y0198261D01*
X0346527Y0198622D01*
X0346397Y0198979D01*
X0346257Y0199333D01*
X0346110Y0199684D01*
X0345953Y0200031D01*
X0345789Y0200374D01*
X0345616Y0200713D01*
X0345435Y0201048D01*
X0345246Y0201379D01*
X0345049Y0201704D01*
X0344845Y0202025D01*
X0344632Y0202341D01*
X0344412Y0202651D01*
X0344185Y0202957D01*
X0343950Y0203256D01*
X0343708Y0203550D01*
X0343460Y0203838D01*
X0343204Y0204120D01*
X0342941Y0204395D01*
X0342672Y0204664D01*
X0342397Y0204927D01*
X0342115Y0205183D01*
X0341827Y0205431D01*
X0341533Y0205673D01*
X0341234Y0205908D01*
X0340928Y0206135D01*
X0340618Y0206355D01*
X0340302Y0206568D01*
X0339981Y0206772D01*
X0339656Y0206969D01*
X0339325Y0207158D01*
X0338990Y0207339D01*
X0338651Y0207512D01*
X0338308Y0207676D01*
X0337961Y0207833D01*
X0337610Y0207980D01*
X0337256Y0208120D01*
X0336899Y0208250D01*
X0336538Y0208372D01*
X0336175Y0208485D01*
X0335809Y0208590D01*
X0335441Y0208685D01*
X0335070Y0208772D01*
X0334698Y0208850D01*
X0334323Y0208918D01*
X0333947Y0208978D01*
X0333570Y0209028D01*
X0333192Y0209069D01*
X0332813Y0209102D01*
X0332433Y0209125D01*
X0332053Y0209138D01*
X0331672Y0209143D01*
X0018247Y0209143D01*
X0017866Y0209138D01*
X0017486Y0209125D01*
X0017106Y0209102D01*
X0016727Y0209069D01*
X0016349Y0209028D01*
X0015972Y0208978D01*
X0015596Y0208918D01*
X0015221Y0208850D01*
X0014849Y0208772D01*
X0014478Y0208685D01*
X0014110Y0208590D01*
X0013744Y0208485D01*
X0013381Y0208372D01*
X0013020Y0208250D01*
X0012663Y0208120D01*
X0012309Y0207980D01*
X0011958Y0207833D01*
X0011611Y0207676D01*
X0011268Y0207512D01*
X0010929Y0207339D01*
X0010594Y0207158D01*
X0010263Y0206969D01*
X0009938Y0206772D01*
X0009617Y0206568D01*
X0009301Y0206355D01*
X0008991Y0206135D01*
X0008685Y0205908D01*
X0008386Y0205673D01*
X0008092Y0205431D01*
X0007804Y0205183D01*
X0007522Y0204927D01*
X0007247Y0204664D01*
X0006978Y0204395D01*
X0006715Y0204120D01*
X0006459Y0203838D01*
X0006211Y0203550D01*
X0005969Y0203256D01*
X0005734Y0202957D01*
X0005507Y0202651D01*
X0005287Y0202341D01*
X0005074Y0202025D01*
X0004870Y0201704D01*
X0004673Y0201379D01*
X0004484Y0201048D01*
X0004303Y0200713D01*
X0004130Y0200374D01*
X0003966Y0200031D01*
X0003809Y0199684D01*
X0003662Y0199333D01*
X0003522Y0198979D01*
X0003392Y0198622D01*
X0003270Y0198261D01*
X0003157Y0197898D01*
X0003052Y0197532D01*
X0002957Y0197164D01*
X0002870Y0196793D01*
X0002792Y0196421D01*
X0002724Y0196046D01*
X0002664Y0195670D01*
X0002614Y0195293D01*
X0002573Y0194915D01*
X0002540Y0194536D01*
X0002517Y0194156D01*
X0002504Y0193776D01*
X0002499Y0193395D01*
X0002499Y0020167D01*
X0002504Y0019786D01*
X0002517Y0019406D01*
X0002540Y0019026D01*
X0002573Y0018647D01*
X0002614Y0018269D01*
X0002664Y0017892D01*
X0002724Y0017516D01*
X0002792Y0017141D01*
X0002870Y0016769D01*
X0002957Y0016398D01*
X0003052Y0016030D01*
X0003157Y0015664D01*
X0003270Y0015301D01*
X0003392Y0014940D01*
X0003522Y0014583D01*
X0003662Y0014229D01*
X0003809Y0013878D01*
X0003966Y0013531D01*
X0004130Y0013188D01*
X0004303Y0012849D01*
X0004484Y0012514D01*
X0004673Y0012183D01*
X0004870Y0011858D01*
X0005074Y0011537D01*
X0005287Y0011221D01*
X0005507Y0010911D01*
X0005734Y0010605D01*
X0005969Y0010306D01*
X0006211Y0010012D01*
X0006459Y0009724D01*
X0006715Y0009442D01*
X0006978Y0009167D01*
X0007247Y0008898D01*
X0007522Y0008635D01*
X0007804Y0008379D01*
X0008092Y0008131D01*
X0008386Y0007889D01*
X0008685Y0007654D01*
X0008991Y0007427D01*
X0009301Y0007207D01*
X0009617Y0006994D01*
X0009938Y0006790D01*
X0010263Y0006593D01*
X0010594Y0006404D01*
X0010929Y0006223D01*
X0011268Y0006050D01*
X0011611Y0005886D01*
X0011958Y0005729D01*
X0012309Y0005582D01*
X0012663Y0005442D01*
X0013020Y0005312D01*
X0013381Y0005190D01*
X0013744Y0005077D01*
X0014110Y0004972D01*
X0014478Y0004877D01*
X0014849Y0004790D01*
X0015221Y0004712D01*
X0015596Y0004644D01*
X0015972Y0004584D01*
X0016349Y0004534D01*
X0016727Y0004493D01*
X0017106Y0004460D01*
X0017486Y0004437D01*
X0017866Y0004424D01*
X0018247Y0004419D01*
X0095586Y0053886D02*
X0095588Y0054079D01*
X0095595Y0054272D01*
X0095607Y0054465D01*
X0095624Y0054658D01*
X0095645Y0054850D01*
X0095671Y0055042D01*
X0095702Y0055232D01*
X0095737Y0055422D01*
X0095777Y0055611D01*
X0095822Y0055799D01*
X0095871Y0055986D01*
X0095925Y0056172D01*
X0095983Y0056356D01*
X0096046Y0056539D01*
X0096114Y0056720D01*
X0096185Y0056900D01*
X0096262Y0057077D01*
X0096342Y0057253D01*
X0096427Y0057427D01*
X0096516Y0057598D01*
X0096609Y0057768D01*
X0096706Y0057935D01*
X0096808Y0058099D01*
X0096913Y0058261D01*
X0097023Y0058420D01*
X0097136Y0058577D01*
X0097253Y0058731D01*
X0097374Y0058882D01*
X0097498Y0059030D01*
X0097626Y0059175D01*
X0097758Y0059316D01*
X0097893Y0059454D01*
X0098031Y0059589D01*
X0098172Y0059721D01*
X0098317Y0059849D01*
X0098465Y0059973D01*
X0098616Y0060094D01*
X0098770Y0060211D01*
X0098927Y0060324D01*
X0099086Y0060434D01*
X0099248Y0060539D01*
X0099412Y0060641D01*
X0099579Y0060738D01*
X0099749Y0060831D01*
X0099920Y0060920D01*
X0100094Y0061005D01*
X0100270Y0061085D01*
X0100447Y0061162D01*
X0100627Y0061233D01*
X0100808Y0061301D01*
X0100991Y0061364D01*
X0101175Y0061422D01*
X0101361Y0061476D01*
X0101548Y0061525D01*
X0101736Y0061570D01*
X0101925Y0061610D01*
X0102115Y0061645D01*
X0102305Y0061676D01*
X0102497Y0061702D01*
X0102689Y0061723D01*
X0102882Y0061740D01*
X0103075Y0061752D01*
X0103268Y0061759D01*
X0103461Y0061761D01*
X0103654Y0061759D01*
X0103847Y0061752D01*
X0104040Y0061740D01*
X0104233Y0061723D01*
X0104425Y0061702D01*
X0104617Y0061676D01*
X0104807Y0061645D01*
X0104997Y0061610D01*
X0105186Y0061570D01*
X0105374Y0061525D01*
X0105561Y0061476D01*
X0105747Y0061422D01*
X0105931Y0061364D01*
X0106114Y0061301D01*
X0106295Y0061233D01*
X0106475Y0061162D01*
X0106652Y0061085D01*
X0106828Y0061005D01*
X0107002Y0060920D01*
X0107173Y0060831D01*
X0107343Y0060738D01*
X0107510Y0060641D01*
X0107674Y0060539D01*
X0107836Y0060434D01*
X0107995Y0060324D01*
X0108152Y0060211D01*
X0108306Y0060094D01*
X0108457Y0059973D01*
X0108605Y0059849D01*
X0108750Y0059721D01*
X0108891Y0059589D01*
X0109029Y0059454D01*
X0109164Y0059316D01*
X0109296Y0059175D01*
X0109424Y0059030D01*
X0109548Y0058882D01*
X0109669Y0058731D01*
X0109786Y0058577D01*
X0109899Y0058420D01*
X0110009Y0058261D01*
X0110114Y0058099D01*
X0110216Y0057935D01*
X0110313Y0057768D01*
X0110406Y0057598D01*
X0110495Y0057427D01*
X0110580Y0057253D01*
X0110660Y0057077D01*
X0110737Y0056900D01*
X0110808Y0056720D01*
X0110876Y0056539D01*
X0110939Y0056356D01*
X0110997Y0056172D01*
X0111051Y0055986D01*
X0111100Y0055799D01*
X0111145Y0055611D01*
X0111185Y0055422D01*
X0111220Y0055232D01*
X0111251Y0055042D01*
X0111277Y0054850D01*
X0111298Y0054658D01*
X0111315Y0054465D01*
X0111327Y0054272D01*
X0111334Y0054079D01*
X0111336Y0053886D01*
X0111334Y0053693D01*
X0111327Y0053500D01*
X0111315Y0053307D01*
X0111298Y0053114D01*
X0111277Y0052922D01*
X0111251Y0052730D01*
X0111220Y0052540D01*
X0111185Y0052350D01*
X0111145Y0052161D01*
X0111100Y0051973D01*
X0111051Y0051786D01*
X0110997Y0051600D01*
X0110939Y0051416D01*
X0110876Y0051233D01*
X0110808Y0051052D01*
X0110737Y0050872D01*
X0110660Y0050695D01*
X0110580Y0050519D01*
X0110495Y0050345D01*
X0110406Y0050174D01*
X0110313Y0050004D01*
X0110216Y0049837D01*
X0110114Y0049673D01*
X0110009Y0049511D01*
X0109899Y0049352D01*
X0109786Y0049195D01*
X0109669Y0049041D01*
X0109548Y0048890D01*
X0109424Y0048742D01*
X0109296Y0048597D01*
X0109164Y0048456D01*
X0109029Y0048318D01*
X0108891Y0048183D01*
X0108750Y0048051D01*
X0108605Y0047923D01*
X0108457Y0047799D01*
X0108306Y0047678D01*
X0108152Y0047561D01*
X0107995Y0047448D01*
X0107836Y0047338D01*
X0107674Y0047233D01*
X0107510Y0047131D01*
X0107343Y0047034D01*
X0107173Y0046941D01*
X0107002Y0046852D01*
X0106828Y0046767D01*
X0106652Y0046687D01*
X0106475Y0046610D01*
X0106295Y0046539D01*
X0106114Y0046471D01*
X0105931Y0046408D01*
X0105747Y0046350D01*
X0105561Y0046296D01*
X0105374Y0046247D01*
X0105186Y0046202D01*
X0104997Y0046162D01*
X0104807Y0046127D01*
X0104617Y0046096D01*
X0104425Y0046070D01*
X0104233Y0046049D01*
X0104040Y0046032D01*
X0103847Y0046020D01*
X0103654Y0046013D01*
X0103461Y0046011D01*
X0103268Y0046013D01*
X0103075Y0046020D01*
X0102882Y0046032D01*
X0102689Y0046049D01*
X0102497Y0046070D01*
X0102305Y0046096D01*
X0102115Y0046127D01*
X0101925Y0046162D01*
X0101736Y0046202D01*
X0101548Y0046247D01*
X0101361Y0046296D01*
X0101175Y0046350D01*
X0100991Y0046408D01*
X0100808Y0046471D01*
X0100627Y0046539D01*
X0100447Y0046610D01*
X0100270Y0046687D01*
X0100094Y0046767D01*
X0099920Y0046852D01*
X0099749Y0046941D01*
X0099579Y0047034D01*
X0099412Y0047131D01*
X0099248Y0047233D01*
X0099086Y0047338D01*
X0098927Y0047448D01*
X0098770Y0047561D01*
X0098616Y0047678D01*
X0098465Y0047799D01*
X0098317Y0047923D01*
X0098172Y0048051D01*
X0098031Y0048183D01*
X0097893Y0048318D01*
X0097758Y0048456D01*
X0097626Y0048597D01*
X0097498Y0048742D01*
X0097374Y0048890D01*
X0097253Y0049041D01*
X0097136Y0049195D01*
X0097023Y0049352D01*
X0096913Y0049511D01*
X0096808Y0049673D01*
X0096706Y0049837D01*
X0096609Y0050004D01*
X0096516Y0050174D01*
X0096427Y0050345D01*
X0096342Y0050519D01*
X0096262Y0050695D01*
X0096185Y0050872D01*
X0096114Y0051052D01*
X0096046Y0051233D01*
X0095983Y0051416D01*
X0095925Y0051600D01*
X0095871Y0051786D01*
X0095822Y0051973D01*
X0095777Y0052161D01*
X0095737Y0052350D01*
X0095702Y0052540D01*
X0095671Y0052730D01*
X0095645Y0052922D01*
X0095624Y0053114D01*
X0095607Y0053307D01*
X0095595Y0053500D01*
X0095588Y0053693D01*
X0095586Y0053886D01*
X0043588Y0105883D02*
X0043590Y0106076D01*
X0043597Y0106269D01*
X0043609Y0106462D01*
X0043626Y0106655D01*
X0043647Y0106847D01*
X0043673Y0107039D01*
X0043704Y0107229D01*
X0043739Y0107419D01*
X0043779Y0107608D01*
X0043824Y0107796D01*
X0043873Y0107983D01*
X0043927Y0108169D01*
X0043985Y0108353D01*
X0044048Y0108536D01*
X0044116Y0108717D01*
X0044187Y0108897D01*
X0044264Y0109074D01*
X0044344Y0109250D01*
X0044429Y0109424D01*
X0044518Y0109595D01*
X0044611Y0109765D01*
X0044708Y0109932D01*
X0044810Y0110096D01*
X0044915Y0110258D01*
X0045025Y0110417D01*
X0045138Y0110574D01*
X0045255Y0110728D01*
X0045376Y0110879D01*
X0045500Y0111027D01*
X0045628Y0111172D01*
X0045760Y0111313D01*
X0045895Y0111451D01*
X0046033Y0111586D01*
X0046174Y0111718D01*
X0046319Y0111846D01*
X0046467Y0111970D01*
X0046618Y0112091D01*
X0046772Y0112208D01*
X0046929Y0112321D01*
X0047088Y0112431D01*
X0047250Y0112536D01*
X0047414Y0112638D01*
X0047581Y0112735D01*
X0047751Y0112828D01*
X0047922Y0112917D01*
X0048096Y0113002D01*
X0048272Y0113082D01*
X0048449Y0113159D01*
X0048629Y0113230D01*
X0048810Y0113298D01*
X0048993Y0113361D01*
X0049177Y0113419D01*
X0049363Y0113473D01*
X0049550Y0113522D01*
X0049738Y0113567D01*
X0049927Y0113607D01*
X0050117Y0113642D01*
X0050307Y0113673D01*
X0050499Y0113699D01*
X0050691Y0113720D01*
X0050884Y0113737D01*
X0051077Y0113749D01*
X0051270Y0113756D01*
X0051463Y0113758D01*
X0051656Y0113756D01*
X0051849Y0113749D01*
X0052042Y0113737D01*
X0052235Y0113720D01*
X0052427Y0113699D01*
X0052619Y0113673D01*
X0052809Y0113642D01*
X0052999Y0113607D01*
X0053188Y0113567D01*
X0053376Y0113522D01*
X0053563Y0113473D01*
X0053749Y0113419D01*
X0053933Y0113361D01*
X0054116Y0113298D01*
X0054297Y0113230D01*
X0054477Y0113159D01*
X0054654Y0113082D01*
X0054830Y0113002D01*
X0055004Y0112917D01*
X0055175Y0112828D01*
X0055345Y0112735D01*
X0055512Y0112638D01*
X0055676Y0112536D01*
X0055838Y0112431D01*
X0055997Y0112321D01*
X0056154Y0112208D01*
X0056308Y0112091D01*
X0056459Y0111970D01*
X0056607Y0111846D01*
X0056752Y0111718D01*
X0056893Y0111586D01*
X0057031Y0111451D01*
X0057166Y0111313D01*
X0057298Y0111172D01*
X0057426Y0111027D01*
X0057550Y0110879D01*
X0057671Y0110728D01*
X0057788Y0110574D01*
X0057901Y0110417D01*
X0058011Y0110258D01*
X0058116Y0110096D01*
X0058218Y0109932D01*
X0058315Y0109765D01*
X0058408Y0109595D01*
X0058497Y0109424D01*
X0058582Y0109250D01*
X0058662Y0109074D01*
X0058739Y0108897D01*
X0058810Y0108717D01*
X0058878Y0108536D01*
X0058941Y0108353D01*
X0058999Y0108169D01*
X0059053Y0107983D01*
X0059102Y0107796D01*
X0059147Y0107608D01*
X0059187Y0107419D01*
X0059222Y0107229D01*
X0059253Y0107039D01*
X0059279Y0106847D01*
X0059300Y0106655D01*
X0059317Y0106462D01*
X0059329Y0106269D01*
X0059336Y0106076D01*
X0059338Y0105883D01*
X0059336Y0105690D01*
X0059329Y0105497D01*
X0059317Y0105304D01*
X0059300Y0105111D01*
X0059279Y0104919D01*
X0059253Y0104727D01*
X0059222Y0104537D01*
X0059187Y0104347D01*
X0059147Y0104158D01*
X0059102Y0103970D01*
X0059053Y0103783D01*
X0058999Y0103597D01*
X0058941Y0103413D01*
X0058878Y0103230D01*
X0058810Y0103049D01*
X0058739Y0102869D01*
X0058662Y0102692D01*
X0058582Y0102516D01*
X0058497Y0102342D01*
X0058408Y0102171D01*
X0058315Y0102001D01*
X0058218Y0101834D01*
X0058116Y0101670D01*
X0058011Y0101508D01*
X0057901Y0101349D01*
X0057788Y0101192D01*
X0057671Y0101038D01*
X0057550Y0100887D01*
X0057426Y0100739D01*
X0057298Y0100594D01*
X0057166Y0100453D01*
X0057031Y0100315D01*
X0056893Y0100180D01*
X0056752Y0100048D01*
X0056607Y0099920D01*
X0056459Y0099796D01*
X0056308Y0099675D01*
X0056154Y0099558D01*
X0055997Y0099445D01*
X0055838Y0099335D01*
X0055676Y0099230D01*
X0055512Y0099128D01*
X0055345Y0099031D01*
X0055175Y0098938D01*
X0055004Y0098849D01*
X0054830Y0098764D01*
X0054654Y0098684D01*
X0054477Y0098607D01*
X0054297Y0098536D01*
X0054116Y0098468D01*
X0053933Y0098405D01*
X0053749Y0098347D01*
X0053563Y0098293D01*
X0053376Y0098244D01*
X0053188Y0098199D01*
X0052999Y0098159D01*
X0052809Y0098124D01*
X0052619Y0098093D01*
X0052427Y0098067D01*
X0052235Y0098046D01*
X0052042Y0098029D01*
X0051849Y0098017D01*
X0051656Y0098010D01*
X0051463Y0098008D01*
X0051270Y0098010D01*
X0051077Y0098017D01*
X0050884Y0098029D01*
X0050691Y0098046D01*
X0050499Y0098067D01*
X0050307Y0098093D01*
X0050117Y0098124D01*
X0049927Y0098159D01*
X0049738Y0098199D01*
X0049550Y0098244D01*
X0049363Y0098293D01*
X0049177Y0098347D01*
X0048993Y0098405D01*
X0048810Y0098468D01*
X0048629Y0098536D01*
X0048449Y0098607D01*
X0048272Y0098684D01*
X0048096Y0098764D01*
X0047922Y0098849D01*
X0047751Y0098938D01*
X0047581Y0099031D01*
X0047414Y0099128D01*
X0047250Y0099230D01*
X0047088Y0099335D01*
X0046929Y0099445D01*
X0046772Y0099558D01*
X0046618Y0099675D01*
X0046467Y0099796D01*
X0046319Y0099920D01*
X0046174Y0100048D01*
X0046033Y0100180D01*
X0045895Y0100315D01*
X0045760Y0100453D01*
X0045628Y0100594D01*
X0045500Y0100739D01*
X0045376Y0100887D01*
X0045255Y0101038D01*
X0045138Y0101192D01*
X0045025Y0101349D01*
X0044915Y0101508D01*
X0044810Y0101670D01*
X0044708Y0101834D01*
X0044611Y0102001D01*
X0044518Y0102171D01*
X0044429Y0102342D01*
X0044344Y0102516D01*
X0044264Y0102692D01*
X0044187Y0102869D01*
X0044116Y0103049D01*
X0044048Y0103230D01*
X0043985Y0103413D01*
X0043927Y0103597D01*
X0043873Y0103783D01*
X0043824Y0103970D01*
X0043779Y0104158D01*
X0043739Y0104347D01*
X0043704Y0104537D01*
X0043673Y0104727D01*
X0043647Y0104919D01*
X0043626Y0105111D01*
X0043609Y0105304D01*
X0043597Y0105497D01*
X0043590Y0105690D01*
X0043588Y0105883D01*
X0095586Y0157881D02*
X0095588Y0158074D01*
X0095595Y0158267D01*
X0095607Y0158460D01*
X0095624Y0158653D01*
X0095645Y0158845D01*
X0095671Y0159037D01*
X0095702Y0159227D01*
X0095737Y0159417D01*
X0095777Y0159606D01*
X0095822Y0159794D01*
X0095871Y0159981D01*
X0095925Y0160167D01*
X0095983Y0160351D01*
X0096046Y0160534D01*
X0096114Y0160715D01*
X0096185Y0160895D01*
X0096262Y0161072D01*
X0096342Y0161248D01*
X0096427Y0161422D01*
X0096516Y0161593D01*
X0096609Y0161763D01*
X0096706Y0161930D01*
X0096808Y0162094D01*
X0096913Y0162256D01*
X0097023Y0162415D01*
X0097136Y0162572D01*
X0097253Y0162726D01*
X0097374Y0162877D01*
X0097498Y0163025D01*
X0097626Y0163170D01*
X0097758Y0163311D01*
X0097893Y0163449D01*
X0098031Y0163584D01*
X0098172Y0163716D01*
X0098317Y0163844D01*
X0098465Y0163968D01*
X0098616Y0164089D01*
X0098770Y0164206D01*
X0098927Y0164319D01*
X0099086Y0164429D01*
X0099248Y0164534D01*
X0099412Y0164636D01*
X0099579Y0164733D01*
X0099749Y0164826D01*
X0099920Y0164915D01*
X0100094Y0165000D01*
X0100270Y0165080D01*
X0100447Y0165157D01*
X0100627Y0165228D01*
X0100808Y0165296D01*
X0100991Y0165359D01*
X0101175Y0165417D01*
X0101361Y0165471D01*
X0101548Y0165520D01*
X0101736Y0165565D01*
X0101925Y0165605D01*
X0102115Y0165640D01*
X0102305Y0165671D01*
X0102497Y0165697D01*
X0102689Y0165718D01*
X0102882Y0165735D01*
X0103075Y0165747D01*
X0103268Y0165754D01*
X0103461Y0165756D01*
X0103654Y0165754D01*
X0103847Y0165747D01*
X0104040Y0165735D01*
X0104233Y0165718D01*
X0104425Y0165697D01*
X0104617Y0165671D01*
X0104807Y0165640D01*
X0104997Y0165605D01*
X0105186Y0165565D01*
X0105374Y0165520D01*
X0105561Y0165471D01*
X0105747Y0165417D01*
X0105931Y0165359D01*
X0106114Y0165296D01*
X0106295Y0165228D01*
X0106475Y0165157D01*
X0106652Y0165080D01*
X0106828Y0165000D01*
X0107002Y0164915D01*
X0107173Y0164826D01*
X0107343Y0164733D01*
X0107510Y0164636D01*
X0107674Y0164534D01*
X0107836Y0164429D01*
X0107995Y0164319D01*
X0108152Y0164206D01*
X0108306Y0164089D01*
X0108457Y0163968D01*
X0108605Y0163844D01*
X0108750Y0163716D01*
X0108891Y0163584D01*
X0109029Y0163449D01*
X0109164Y0163311D01*
X0109296Y0163170D01*
X0109424Y0163025D01*
X0109548Y0162877D01*
X0109669Y0162726D01*
X0109786Y0162572D01*
X0109899Y0162415D01*
X0110009Y0162256D01*
X0110114Y0162094D01*
X0110216Y0161930D01*
X0110313Y0161763D01*
X0110406Y0161593D01*
X0110495Y0161422D01*
X0110580Y0161248D01*
X0110660Y0161072D01*
X0110737Y0160895D01*
X0110808Y0160715D01*
X0110876Y0160534D01*
X0110939Y0160351D01*
X0110997Y0160167D01*
X0111051Y0159981D01*
X0111100Y0159794D01*
X0111145Y0159606D01*
X0111185Y0159417D01*
X0111220Y0159227D01*
X0111251Y0159037D01*
X0111277Y0158845D01*
X0111298Y0158653D01*
X0111315Y0158460D01*
X0111327Y0158267D01*
X0111334Y0158074D01*
X0111336Y0157881D01*
X0111334Y0157688D01*
X0111327Y0157495D01*
X0111315Y0157302D01*
X0111298Y0157109D01*
X0111277Y0156917D01*
X0111251Y0156725D01*
X0111220Y0156535D01*
X0111185Y0156345D01*
X0111145Y0156156D01*
X0111100Y0155968D01*
X0111051Y0155781D01*
X0110997Y0155595D01*
X0110939Y0155411D01*
X0110876Y0155228D01*
X0110808Y0155047D01*
X0110737Y0154867D01*
X0110660Y0154690D01*
X0110580Y0154514D01*
X0110495Y0154340D01*
X0110406Y0154169D01*
X0110313Y0153999D01*
X0110216Y0153832D01*
X0110114Y0153668D01*
X0110009Y0153506D01*
X0109899Y0153347D01*
X0109786Y0153190D01*
X0109669Y0153036D01*
X0109548Y0152885D01*
X0109424Y0152737D01*
X0109296Y0152592D01*
X0109164Y0152451D01*
X0109029Y0152313D01*
X0108891Y0152178D01*
X0108750Y0152046D01*
X0108605Y0151918D01*
X0108457Y0151794D01*
X0108306Y0151673D01*
X0108152Y0151556D01*
X0107995Y0151443D01*
X0107836Y0151333D01*
X0107674Y0151228D01*
X0107510Y0151126D01*
X0107343Y0151029D01*
X0107173Y0150936D01*
X0107002Y0150847D01*
X0106828Y0150762D01*
X0106652Y0150682D01*
X0106475Y0150605D01*
X0106295Y0150534D01*
X0106114Y0150466D01*
X0105931Y0150403D01*
X0105747Y0150345D01*
X0105561Y0150291D01*
X0105374Y0150242D01*
X0105186Y0150197D01*
X0104997Y0150157D01*
X0104807Y0150122D01*
X0104617Y0150091D01*
X0104425Y0150065D01*
X0104233Y0150044D01*
X0104040Y0150027D01*
X0103847Y0150015D01*
X0103654Y0150008D01*
X0103461Y0150006D01*
X0103268Y0150008D01*
X0103075Y0150015D01*
X0102882Y0150027D01*
X0102689Y0150044D01*
X0102497Y0150065D01*
X0102305Y0150091D01*
X0102115Y0150122D01*
X0101925Y0150157D01*
X0101736Y0150197D01*
X0101548Y0150242D01*
X0101361Y0150291D01*
X0101175Y0150345D01*
X0100991Y0150403D01*
X0100808Y0150466D01*
X0100627Y0150534D01*
X0100447Y0150605D01*
X0100270Y0150682D01*
X0100094Y0150762D01*
X0099920Y0150847D01*
X0099749Y0150936D01*
X0099579Y0151029D01*
X0099412Y0151126D01*
X0099248Y0151228D01*
X0099086Y0151333D01*
X0098927Y0151443D01*
X0098770Y0151556D01*
X0098616Y0151673D01*
X0098465Y0151794D01*
X0098317Y0151918D01*
X0098172Y0152046D01*
X0098031Y0152178D01*
X0097893Y0152313D01*
X0097758Y0152451D01*
X0097626Y0152592D01*
X0097498Y0152737D01*
X0097374Y0152885D01*
X0097253Y0153036D01*
X0097136Y0153190D01*
X0097023Y0153347D01*
X0096913Y0153506D01*
X0096808Y0153668D01*
X0096706Y0153832D01*
X0096609Y0153999D01*
X0096516Y0154169D01*
X0096427Y0154340D01*
X0096342Y0154514D01*
X0096262Y0154690D01*
X0096185Y0154867D01*
X0096114Y0155047D01*
X0096046Y0155228D01*
X0095983Y0155411D01*
X0095925Y0155595D01*
X0095871Y0155781D01*
X0095822Y0155968D01*
X0095777Y0156156D01*
X0095737Y0156345D01*
X0095702Y0156535D01*
X0095671Y0156725D01*
X0095645Y0156917D01*
X0095624Y0157109D01*
X0095607Y0157302D01*
X0095595Y0157495D01*
X0095588Y0157688D01*
X0095586Y0157881D01*
X0147583Y0105883D02*
X0147585Y0106076D01*
X0147592Y0106269D01*
X0147604Y0106462D01*
X0147621Y0106655D01*
X0147642Y0106847D01*
X0147668Y0107039D01*
X0147699Y0107229D01*
X0147734Y0107419D01*
X0147774Y0107608D01*
X0147819Y0107796D01*
X0147868Y0107983D01*
X0147922Y0108169D01*
X0147980Y0108353D01*
X0148043Y0108536D01*
X0148111Y0108717D01*
X0148182Y0108897D01*
X0148259Y0109074D01*
X0148339Y0109250D01*
X0148424Y0109424D01*
X0148513Y0109595D01*
X0148606Y0109765D01*
X0148703Y0109932D01*
X0148805Y0110096D01*
X0148910Y0110258D01*
X0149020Y0110417D01*
X0149133Y0110574D01*
X0149250Y0110728D01*
X0149371Y0110879D01*
X0149495Y0111027D01*
X0149623Y0111172D01*
X0149755Y0111313D01*
X0149890Y0111451D01*
X0150028Y0111586D01*
X0150169Y0111718D01*
X0150314Y0111846D01*
X0150462Y0111970D01*
X0150613Y0112091D01*
X0150767Y0112208D01*
X0150924Y0112321D01*
X0151083Y0112431D01*
X0151245Y0112536D01*
X0151409Y0112638D01*
X0151576Y0112735D01*
X0151746Y0112828D01*
X0151917Y0112917D01*
X0152091Y0113002D01*
X0152267Y0113082D01*
X0152444Y0113159D01*
X0152624Y0113230D01*
X0152805Y0113298D01*
X0152988Y0113361D01*
X0153172Y0113419D01*
X0153358Y0113473D01*
X0153545Y0113522D01*
X0153733Y0113567D01*
X0153922Y0113607D01*
X0154112Y0113642D01*
X0154302Y0113673D01*
X0154494Y0113699D01*
X0154686Y0113720D01*
X0154879Y0113737D01*
X0155072Y0113749D01*
X0155265Y0113756D01*
X0155458Y0113758D01*
X0155651Y0113756D01*
X0155844Y0113749D01*
X0156037Y0113737D01*
X0156230Y0113720D01*
X0156422Y0113699D01*
X0156614Y0113673D01*
X0156804Y0113642D01*
X0156994Y0113607D01*
X0157183Y0113567D01*
X0157371Y0113522D01*
X0157558Y0113473D01*
X0157744Y0113419D01*
X0157928Y0113361D01*
X0158111Y0113298D01*
X0158292Y0113230D01*
X0158472Y0113159D01*
X0158649Y0113082D01*
X0158825Y0113002D01*
X0158999Y0112917D01*
X0159170Y0112828D01*
X0159340Y0112735D01*
X0159507Y0112638D01*
X0159671Y0112536D01*
X0159833Y0112431D01*
X0159992Y0112321D01*
X0160149Y0112208D01*
X0160303Y0112091D01*
X0160454Y0111970D01*
X0160602Y0111846D01*
X0160747Y0111718D01*
X0160888Y0111586D01*
X0161026Y0111451D01*
X0161161Y0111313D01*
X0161293Y0111172D01*
X0161421Y0111027D01*
X0161545Y0110879D01*
X0161666Y0110728D01*
X0161783Y0110574D01*
X0161896Y0110417D01*
X0162006Y0110258D01*
X0162111Y0110096D01*
X0162213Y0109932D01*
X0162310Y0109765D01*
X0162403Y0109595D01*
X0162492Y0109424D01*
X0162577Y0109250D01*
X0162657Y0109074D01*
X0162734Y0108897D01*
X0162805Y0108717D01*
X0162873Y0108536D01*
X0162936Y0108353D01*
X0162994Y0108169D01*
X0163048Y0107983D01*
X0163097Y0107796D01*
X0163142Y0107608D01*
X0163182Y0107419D01*
X0163217Y0107229D01*
X0163248Y0107039D01*
X0163274Y0106847D01*
X0163295Y0106655D01*
X0163312Y0106462D01*
X0163324Y0106269D01*
X0163331Y0106076D01*
X0163333Y0105883D01*
X0163331Y0105690D01*
X0163324Y0105497D01*
X0163312Y0105304D01*
X0163295Y0105111D01*
X0163274Y0104919D01*
X0163248Y0104727D01*
X0163217Y0104537D01*
X0163182Y0104347D01*
X0163142Y0104158D01*
X0163097Y0103970D01*
X0163048Y0103783D01*
X0162994Y0103597D01*
X0162936Y0103413D01*
X0162873Y0103230D01*
X0162805Y0103049D01*
X0162734Y0102869D01*
X0162657Y0102692D01*
X0162577Y0102516D01*
X0162492Y0102342D01*
X0162403Y0102171D01*
X0162310Y0102001D01*
X0162213Y0101834D01*
X0162111Y0101670D01*
X0162006Y0101508D01*
X0161896Y0101349D01*
X0161783Y0101192D01*
X0161666Y0101038D01*
X0161545Y0100887D01*
X0161421Y0100739D01*
X0161293Y0100594D01*
X0161161Y0100453D01*
X0161026Y0100315D01*
X0160888Y0100180D01*
X0160747Y0100048D01*
X0160602Y0099920D01*
X0160454Y0099796D01*
X0160303Y0099675D01*
X0160149Y0099558D01*
X0159992Y0099445D01*
X0159833Y0099335D01*
X0159671Y0099230D01*
X0159507Y0099128D01*
X0159340Y0099031D01*
X0159170Y0098938D01*
X0158999Y0098849D01*
X0158825Y0098764D01*
X0158649Y0098684D01*
X0158472Y0098607D01*
X0158292Y0098536D01*
X0158111Y0098468D01*
X0157928Y0098405D01*
X0157744Y0098347D01*
X0157558Y0098293D01*
X0157371Y0098244D01*
X0157183Y0098199D01*
X0156994Y0098159D01*
X0156804Y0098124D01*
X0156614Y0098093D01*
X0156422Y0098067D01*
X0156230Y0098046D01*
X0156037Y0098029D01*
X0155844Y0098017D01*
X0155651Y0098010D01*
X0155458Y0098008D01*
X0155265Y0098010D01*
X0155072Y0098017D01*
X0154879Y0098029D01*
X0154686Y0098046D01*
X0154494Y0098067D01*
X0154302Y0098093D01*
X0154112Y0098124D01*
X0153922Y0098159D01*
X0153733Y0098199D01*
X0153545Y0098244D01*
X0153358Y0098293D01*
X0153172Y0098347D01*
X0152988Y0098405D01*
X0152805Y0098468D01*
X0152624Y0098536D01*
X0152444Y0098607D01*
X0152267Y0098684D01*
X0152091Y0098764D01*
X0151917Y0098849D01*
X0151746Y0098938D01*
X0151576Y0099031D01*
X0151409Y0099128D01*
X0151245Y0099230D01*
X0151083Y0099335D01*
X0150924Y0099445D01*
X0150767Y0099558D01*
X0150613Y0099675D01*
X0150462Y0099796D01*
X0150314Y0099920D01*
X0150169Y0100048D01*
X0150028Y0100180D01*
X0149890Y0100315D01*
X0149755Y0100453D01*
X0149623Y0100594D01*
X0149495Y0100739D01*
X0149371Y0100887D01*
X0149250Y0101038D01*
X0149133Y0101192D01*
X0149020Y0101349D01*
X0148910Y0101508D01*
X0148805Y0101670D01*
X0148703Y0101834D01*
X0148606Y0102001D01*
X0148513Y0102171D01*
X0148424Y0102342D01*
X0148339Y0102516D01*
X0148259Y0102692D01*
X0148182Y0102869D01*
X0148111Y0103049D01*
X0148043Y0103230D01*
X0147980Y0103413D01*
X0147922Y0103597D01*
X0147868Y0103783D01*
X0147819Y0103970D01*
X0147774Y0104158D01*
X0147734Y0104347D01*
X0147699Y0104537D01*
X0147668Y0104727D01*
X0147642Y0104919D01*
X0147621Y0105111D01*
X0147604Y0105304D01*
X0147592Y0105497D01*
X0147585Y0105690D01*
X0147583Y0105883D01*
X0227124Y0061919D02*
X0227126Y0062112D01*
X0227133Y0062305D01*
X0227145Y0062498D01*
X0227162Y0062691D01*
X0227183Y0062883D01*
X0227209Y0063075D01*
X0227240Y0063265D01*
X0227275Y0063455D01*
X0227315Y0063644D01*
X0227360Y0063832D01*
X0227409Y0064019D01*
X0227463Y0064205D01*
X0227521Y0064389D01*
X0227584Y0064572D01*
X0227652Y0064753D01*
X0227723Y0064933D01*
X0227800Y0065110D01*
X0227880Y0065286D01*
X0227965Y0065460D01*
X0228054Y0065631D01*
X0228147Y0065801D01*
X0228244Y0065968D01*
X0228346Y0066132D01*
X0228451Y0066294D01*
X0228561Y0066453D01*
X0228674Y0066610D01*
X0228791Y0066764D01*
X0228912Y0066915D01*
X0229036Y0067063D01*
X0229164Y0067208D01*
X0229296Y0067349D01*
X0229431Y0067487D01*
X0229569Y0067622D01*
X0229710Y0067754D01*
X0229855Y0067882D01*
X0230003Y0068006D01*
X0230154Y0068127D01*
X0230308Y0068244D01*
X0230465Y0068357D01*
X0230624Y0068467D01*
X0230786Y0068572D01*
X0230950Y0068674D01*
X0231117Y0068771D01*
X0231287Y0068864D01*
X0231458Y0068953D01*
X0231632Y0069038D01*
X0231808Y0069118D01*
X0231985Y0069195D01*
X0232165Y0069266D01*
X0232346Y0069334D01*
X0232529Y0069397D01*
X0232713Y0069455D01*
X0232899Y0069509D01*
X0233086Y0069558D01*
X0233274Y0069603D01*
X0233463Y0069643D01*
X0233653Y0069678D01*
X0233843Y0069709D01*
X0234035Y0069735D01*
X0234227Y0069756D01*
X0234420Y0069773D01*
X0234613Y0069785D01*
X0234806Y0069792D01*
X0234999Y0069794D01*
X0235192Y0069792D01*
X0235385Y0069785D01*
X0235578Y0069773D01*
X0235771Y0069756D01*
X0235963Y0069735D01*
X0236155Y0069709D01*
X0236345Y0069678D01*
X0236535Y0069643D01*
X0236724Y0069603D01*
X0236912Y0069558D01*
X0237099Y0069509D01*
X0237285Y0069455D01*
X0237469Y0069397D01*
X0237652Y0069334D01*
X0237833Y0069266D01*
X0238013Y0069195D01*
X0238190Y0069118D01*
X0238366Y0069038D01*
X0238540Y0068953D01*
X0238711Y0068864D01*
X0238881Y0068771D01*
X0239048Y0068674D01*
X0239212Y0068572D01*
X0239374Y0068467D01*
X0239533Y0068357D01*
X0239690Y0068244D01*
X0239844Y0068127D01*
X0239995Y0068006D01*
X0240143Y0067882D01*
X0240288Y0067754D01*
X0240429Y0067622D01*
X0240567Y0067487D01*
X0240702Y0067349D01*
X0240834Y0067208D01*
X0240962Y0067063D01*
X0241086Y0066915D01*
X0241207Y0066764D01*
X0241324Y0066610D01*
X0241437Y0066453D01*
X0241547Y0066294D01*
X0241652Y0066132D01*
X0241754Y0065968D01*
X0241851Y0065801D01*
X0241944Y0065631D01*
X0242033Y0065460D01*
X0242118Y0065286D01*
X0242198Y0065110D01*
X0242275Y0064933D01*
X0242346Y0064753D01*
X0242414Y0064572D01*
X0242477Y0064389D01*
X0242535Y0064205D01*
X0242589Y0064019D01*
X0242638Y0063832D01*
X0242683Y0063644D01*
X0242723Y0063455D01*
X0242758Y0063265D01*
X0242789Y0063075D01*
X0242815Y0062883D01*
X0242836Y0062691D01*
X0242853Y0062498D01*
X0242865Y0062305D01*
X0242872Y0062112D01*
X0242874Y0061919D01*
X0242872Y0061726D01*
X0242865Y0061533D01*
X0242853Y0061340D01*
X0242836Y0061147D01*
X0242815Y0060955D01*
X0242789Y0060763D01*
X0242758Y0060573D01*
X0242723Y0060383D01*
X0242683Y0060194D01*
X0242638Y0060006D01*
X0242589Y0059819D01*
X0242535Y0059633D01*
X0242477Y0059449D01*
X0242414Y0059266D01*
X0242346Y0059085D01*
X0242275Y0058905D01*
X0242198Y0058728D01*
X0242118Y0058552D01*
X0242033Y0058378D01*
X0241944Y0058207D01*
X0241851Y0058037D01*
X0241754Y0057870D01*
X0241652Y0057706D01*
X0241547Y0057544D01*
X0241437Y0057385D01*
X0241324Y0057228D01*
X0241207Y0057074D01*
X0241086Y0056923D01*
X0240962Y0056775D01*
X0240834Y0056630D01*
X0240702Y0056489D01*
X0240567Y0056351D01*
X0240429Y0056216D01*
X0240288Y0056084D01*
X0240143Y0055956D01*
X0239995Y0055832D01*
X0239844Y0055711D01*
X0239690Y0055594D01*
X0239533Y0055481D01*
X0239374Y0055371D01*
X0239212Y0055266D01*
X0239048Y0055164D01*
X0238881Y0055067D01*
X0238711Y0054974D01*
X0238540Y0054885D01*
X0238366Y0054800D01*
X0238190Y0054720D01*
X0238013Y0054643D01*
X0237833Y0054572D01*
X0237652Y0054504D01*
X0237469Y0054441D01*
X0237285Y0054383D01*
X0237099Y0054329D01*
X0236912Y0054280D01*
X0236724Y0054235D01*
X0236535Y0054195D01*
X0236345Y0054160D01*
X0236155Y0054129D01*
X0235963Y0054103D01*
X0235771Y0054082D01*
X0235578Y0054065D01*
X0235385Y0054053D01*
X0235192Y0054046D01*
X0234999Y0054044D01*
X0234806Y0054046D01*
X0234613Y0054053D01*
X0234420Y0054065D01*
X0234227Y0054082D01*
X0234035Y0054103D01*
X0233843Y0054129D01*
X0233653Y0054160D01*
X0233463Y0054195D01*
X0233274Y0054235D01*
X0233086Y0054280D01*
X0232899Y0054329D01*
X0232713Y0054383D01*
X0232529Y0054441D01*
X0232346Y0054504D01*
X0232165Y0054572D01*
X0231985Y0054643D01*
X0231808Y0054720D01*
X0231632Y0054800D01*
X0231458Y0054885D01*
X0231287Y0054974D01*
X0231117Y0055067D01*
X0230950Y0055164D01*
X0230786Y0055266D01*
X0230624Y0055371D01*
X0230465Y0055481D01*
X0230308Y0055594D01*
X0230154Y0055711D01*
X0230003Y0055832D01*
X0229855Y0055956D01*
X0229710Y0056084D01*
X0229569Y0056216D01*
X0229431Y0056351D01*
X0229296Y0056489D01*
X0229164Y0056630D01*
X0229036Y0056775D01*
X0228912Y0056923D01*
X0228791Y0057074D01*
X0228674Y0057228D01*
X0228561Y0057385D01*
X0228451Y0057544D01*
X0228346Y0057706D01*
X0228244Y0057870D01*
X0228147Y0058037D01*
X0228054Y0058207D01*
X0227965Y0058378D01*
X0227880Y0058552D01*
X0227800Y0058728D01*
X0227723Y0058905D01*
X0227652Y0059085D01*
X0227584Y0059266D01*
X0227521Y0059449D01*
X0227463Y0059633D01*
X0227409Y0059819D01*
X0227360Y0060006D01*
X0227315Y0060194D01*
X0227275Y0060383D01*
X0227240Y0060573D01*
X0227209Y0060763D01*
X0227183Y0060955D01*
X0227162Y0061147D01*
X0227145Y0061340D01*
X0227133Y0061533D01*
X0227126Y0061726D01*
X0227124Y0061919D01*
X0302124Y0061919D02*
X0302126Y0062112D01*
X0302133Y0062305D01*
X0302145Y0062498D01*
X0302162Y0062691D01*
X0302183Y0062883D01*
X0302209Y0063075D01*
X0302240Y0063265D01*
X0302275Y0063455D01*
X0302315Y0063644D01*
X0302360Y0063832D01*
X0302409Y0064019D01*
X0302463Y0064205D01*
X0302521Y0064389D01*
X0302584Y0064572D01*
X0302652Y0064753D01*
X0302723Y0064933D01*
X0302800Y0065110D01*
X0302880Y0065286D01*
X0302965Y0065460D01*
X0303054Y0065631D01*
X0303147Y0065801D01*
X0303244Y0065968D01*
X0303346Y0066132D01*
X0303451Y0066294D01*
X0303561Y0066453D01*
X0303674Y0066610D01*
X0303791Y0066764D01*
X0303912Y0066915D01*
X0304036Y0067063D01*
X0304164Y0067208D01*
X0304296Y0067349D01*
X0304431Y0067487D01*
X0304569Y0067622D01*
X0304710Y0067754D01*
X0304855Y0067882D01*
X0305003Y0068006D01*
X0305154Y0068127D01*
X0305308Y0068244D01*
X0305465Y0068357D01*
X0305624Y0068467D01*
X0305786Y0068572D01*
X0305950Y0068674D01*
X0306117Y0068771D01*
X0306287Y0068864D01*
X0306458Y0068953D01*
X0306632Y0069038D01*
X0306808Y0069118D01*
X0306985Y0069195D01*
X0307165Y0069266D01*
X0307346Y0069334D01*
X0307529Y0069397D01*
X0307713Y0069455D01*
X0307899Y0069509D01*
X0308086Y0069558D01*
X0308274Y0069603D01*
X0308463Y0069643D01*
X0308653Y0069678D01*
X0308843Y0069709D01*
X0309035Y0069735D01*
X0309227Y0069756D01*
X0309420Y0069773D01*
X0309613Y0069785D01*
X0309806Y0069792D01*
X0309999Y0069794D01*
X0310192Y0069792D01*
X0310385Y0069785D01*
X0310578Y0069773D01*
X0310771Y0069756D01*
X0310963Y0069735D01*
X0311155Y0069709D01*
X0311345Y0069678D01*
X0311535Y0069643D01*
X0311724Y0069603D01*
X0311912Y0069558D01*
X0312099Y0069509D01*
X0312285Y0069455D01*
X0312469Y0069397D01*
X0312652Y0069334D01*
X0312833Y0069266D01*
X0313013Y0069195D01*
X0313190Y0069118D01*
X0313366Y0069038D01*
X0313540Y0068953D01*
X0313711Y0068864D01*
X0313881Y0068771D01*
X0314048Y0068674D01*
X0314212Y0068572D01*
X0314374Y0068467D01*
X0314533Y0068357D01*
X0314690Y0068244D01*
X0314844Y0068127D01*
X0314995Y0068006D01*
X0315143Y0067882D01*
X0315288Y0067754D01*
X0315429Y0067622D01*
X0315567Y0067487D01*
X0315702Y0067349D01*
X0315834Y0067208D01*
X0315962Y0067063D01*
X0316086Y0066915D01*
X0316207Y0066764D01*
X0316324Y0066610D01*
X0316437Y0066453D01*
X0316547Y0066294D01*
X0316652Y0066132D01*
X0316754Y0065968D01*
X0316851Y0065801D01*
X0316944Y0065631D01*
X0317033Y0065460D01*
X0317118Y0065286D01*
X0317198Y0065110D01*
X0317275Y0064933D01*
X0317346Y0064753D01*
X0317414Y0064572D01*
X0317477Y0064389D01*
X0317535Y0064205D01*
X0317589Y0064019D01*
X0317638Y0063832D01*
X0317683Y0063644D01*
X0317723Y0063455D01*
X0317758Y0063265D01*
X0317789Y0063075D01*
X0317815Y0062883D01*
X0317836Y0062691D01*
X0317853Y0062498D01*
X0317865Y0062305D01*
X0317872Y0062112D01*
X0317874Y0061919D01*
X0317872Y0061726D01*
X0317865Y0061533D01*
X0317853Y0061340D01*
X0317836Y0061147D01*
X0317815Y0060955D01*
X0317789Y0060763D01*
X0317758Y0060573D01*
X0317723Y0060383D01*
X0317683Y0060194D01*
X0317638Y0060006D01*
X0317589Y0059819D01*
X0317535Y0059633D01*
X0317477Y0059449D01*
X0317414Y0059266D01*
X0317346Y0059085D01*
X0317275Y0058905D01*
X0317198Y0058728D01*
X0317118Y0058552D01*
X0317033Y0058378D01*
X0316944Y0058207D01*
X0316851Y0058037D01*
X0316754Y0057870D01*
X0316652Y0057706D01*
X0316547Y0057544D01*
X0316437Y0057385D01*
X0316324Y0057228D01*
X0316207Y0057074D01*
X0316086Y0056923D01*
X0315962Y0056775D01*
X0315834Y0056630D01*
X0315702Y0056489D01*
X0315567Y0056351D01*
X0315429Y0056216D01*
X0315288Y0056084D01*
X0315143Y0055956D01*
X0314995Y0055832D01*
X0314844Y0055711D01*
X0314690Y0055594D01*
X0314533Y0055481D01*
X0314374Y0055371D01*
X0314212Y0055266D01*
X0314048Y0055164D01*
X0313881Y0055067D01*
X0313711Y0054974D01*
X0313540Y0054885D01*
X0313366Y0054800D01*
X0313190Y0054720D01*
X0313013Y0054643D01*
X0312833Y0054572D01*
X0312652Y0054504D01*
X0312469Y0054441D01*
X0312285Y0054383D01*
X0312099Y0054329D01*
X0311912Y0054280D01*
X0311724Y0054235D01*
X0311535Y0054195D01*
X0311345Y0054160D01*
X0311155Y0054129D01*
X0310963Y0054103D01*
X0310771Y0054082D01*
X0310578Y0054065D01*
X0310385Y0054053D01*
X0310192Y0054046D01*
X0309999Y0054044D01*
X0309806Y0054046D01*
X0309613Y0054053D01*
X0309420Y0054065D01*
X0309227Y0054082D01*
X0309035Y0054103D01*
X0308843Y0054129D01*
X0308653Y0054160D01*
X0308463Y0054195D01*
X0308274Y0054235D01*
X0308086Y0054280D01*
X0307899Y0054329D01*
X0307713Y0054383D01*
X0307529Y0054441D01*
X0307346Y0054504D01*
X0307165Y0054572D01*
X0306985Y0054643D01*
X0306808Y0054720D01*
X0306632Y0054800D01*
X0306458Y0054885D01*
X0306287Y0054974D01*
X0306117Y0055067D01*
X0305950Y0055164D01*
X0305786Y0055266D01*
X0305624Y0055371D01*
X0305465Y0055481D01*
X0305308Y0055594D01*
X0305154Y0055711D01*
X0305003Y0055832D01*
X0304855Y0055956D01*
X0304710Y0056084D01*
X0304569Y0056216D01*
X0304431Y0056351D01*
X0304296Y0056489D01*
X0304164Y0056630D01*
X0304036Y0056775D01*
X0303912Y0056923D01*
X0303791Y0057074D01*
X0303674Y0057228D01*
X0303561Y0057385D01*
X0303451Y0057544D01*
X0303346Y0057706D01*
X0303244Y0057870D01*
X0303147Y0058037D01*
X0303054Y0058207D01*
X0302965Y0058378D01*
X0302880Y0058552D01*
X0302800Y0058728D01*
X0302723Y0058905D01*
X0302652Y0059085D01*
X0302584Y0059266D01*
X0302521Y0059449D01*
X0302463Y0059633D01*
X0302409Y0059819D01*
X0302360Y0060006D01*
X0302315Y0060194D01*
X0302275Y0060383D01*
X0302240Y0060573D01*
X0302209Y0060763D01*
X0302183Y0060955D01*
X0302162Y0061147D01*
X0302145Y0061340D01*
X0302133Y0061533D01*
X0302126Y0061726D01*
X0302124Y0061919D01*
X0302124Y0151919D02*
X0302126Y0152112D01*
X0302133Y0152305D01*
X0302145Y0152498D01*
X0302162Y0152691D01*
X0302183Y0152883D01*
X0302209Y0153075D01*
X0302240Y0153265D01*
X0302275Y0153455D01*
X0302315Y0153644D01*
X0302360Y0153832D01*
X0302409Y0154019D01*
X0302463Y0154205D01*
X0302521Y0154389D01*
X0302584Y0154572D01*
X0302652Y0154753D01*
X0302723Y0154933D01*
X0302800Y0155110D01*
X0302880Y0155286D01*
X0302965Y0155460D01*
X0303054Y0155631D01*
X0303147Y0155801D01*
X0303244Y0155968D01*
X0303346Y0156132D01*
X0303451Y0156294D01*
X0303561Y0156453D01*
X0303674Y0156610D01*
X0303791Y0156764D01*
X0303912Y0156915D01*
X0304036Y0157063D01*
X0304164Y0157208D01*
X0304296Y0157349D01*
X0304431Y0157487D01*
X0304569Y0157622D01*
X0304710Y0157754D01*
X0304855Y0157882D01*
X0305003Y0158006D01*
X0305154Y0158127D01*
X0305308Y0158244D01*
X0305465Y0158357D01*
X0305624Y0158467D01*
X0305786Y0158572D01*
X0305950Y0158674D01*
X0306117Y0158771D01*
X0306287Y0158864D01*
X0306458Y0158953D01*
X0306632Y0159038D01*
X0306808Y0159118D01*
X0306985Y0159195D01*
X0307165Y0159266D01*
X0307346Y0159334D01*
X0307529Y0159397D01*
X0307713Y0159455D01*
X0307899Y0159509D01*
X0308086Y0159558D01*
X0308274Y0159603D01*
X0308463Y0159643D01*
X0308653Y0159678D01*
X0308843Y0159709D01*
X0309035Y0159735D01*
X0309227Y0159756D01*
X0309420Y0159773D01*
X0309613Y0159785D01*
X0309806Y0159792D01*
X0309999Y0159794D01*
X0310192Y0159792D01*
X0310385Y0159785D01*
X0310578Y0159773D01*
X0310771Y0159756D01*
X0310963Y0159735D01*
X0311155Y0159709D01*
X0311345Y0159678D01*
X0311535Y0159643D01*
X0311724Y0159603D01*
X0311912Y0159558D01*
X0312099Y0159509D01*
X0312285Y0159455D01*
X0312469Y0159397D01*
X0312652Y0159334D01*
X0312833Y0159266D01*
X0313013Y0159195D01*
X0313190Y0159118D01*
X0313366Y0159038D01*
X0313540Y0158953D01*
X0313711Y0158864D01*
X0313881Y0158771D01*
X0314048Y0158674D01*
X0314212Y0158572D01*
X0314374Y0158467D01*
X0314533Y0158357D01*
X0314690Y0158244D01*
X0314844Y0158127D01*
X0314995Y0158006D01*
X0315143Y0157882D01*
X0315288Y0157754D01*
X0315429Y0157622D01*
X0315567Y0157487D01*
X0315702Y0157349D01*
X0315834Y0157208D01*
X0315962Y0157063D01*
X0316086Y0156915D01*
X0316207Y0156764D01*
X0316324Y0156610D01*
X0316437Y0156453D01*
X0316547Y0156294D01*
X0316652Y0156132D01*
X0316754Y0155968D01*
X0316851Y0155801D01*
X0316944Y0155631D01*
X0317033Y0155460D01*
X0317118Y0155286D01*
X0317198Y0155110D01*
X0317275Y0154933D01*
X0317346Y0154753D01*
X0317414Y0154572D01*
X0317477Y0154389D01*
X0317535Y0154205D01*
X0317589Y0154019D01*
X0317638Y0153832D01*
X0317683Y0153644D01*
X0317723Y0153455D01*
X0317758Y0153265D01*
X0317789Y0153075D01*
X0317815Y0152883D01*
X0317836Y0152691D01*
X0317853Y0152498D01*
X0317865Y0152305D01*
X0317872Y0152112D01*
X0317874Y0151919D01*
X0317872Y0151726D01*
X0317865Y0151533D01*
X0317853Y0151340D01*
X0317836Y0151147D01*
X0317815Y0150955D01*
X0317789Y0150763D01*
X0317758Y0150573D01*
X0317723Y0150383D01*
X0317683Y0150194D01*
X0317638Y0150006D01*
X0317589Y0149819D01*
X0317535Y0149633D01*
X0317477Y0149449D01*
X0317414Y0149266D01*
X0317346Y0149085D01*
X0317275Y0148905D01*
X0317198Y0148728D01*
X0317118Y0148552D01*
X0317033Y0148378D01*
X0316944Y0148207D01*
X0316851Y0148037D01*
X0316754Y0147870D01*
X0316652Y0147706D01*
X0316547Y0147544D01*
X0316437Y0147385D01*
X0316324Y0147228D01*
X0316207Y0147074D01*
X0316086Y0146923D01*
X0315962Y0146775D01*
X0315834Y0146630D01*
X0315702Y0146489D01*
X0315567Y0146351D01*
X0315429Y0146216D01*
X0315288Y0146084D01*
X0315143Y0145956D01*
X0314995Y0145832D01*
X0314844Y0145711D01*
X0314690Y0145594D01*
X0314533Y0145481D01*
X0314374Y0145371D01*
X0314212Y0145266D01*
X0314048Y0145164D01*
X0313881Y0145067D01*
X0313711Y0144974D01*
X0313540Y0144885D01*
X0313366Y0144800D01*
X0313190Y0144720D01*
X0313013Y0144643D01*
X0312833Y0144572D01*
X0312652Y0144504D01*
X0312469Y0144441D01*
X0312285Y0144383D01*
X0312099Y0144329D01*
X0311912Y0144280D01*
X0311724Y0144235D01*
X0311535Y0144195D01*
X0311345Y0144160D01*
X0311155Y0144129D01*
X0310963Y0144103D01*
X0310771Y0144082D01*
X0310578Y0144065D01*
X0310385Y0144053D01*
X0310192Y0144046D01*
X0309999Y0144044D01*
X0309806Y0144046D01*
X0309613Y0144053D01*
X0309420Y0144065D01*
X0309227Y0144082D01*
X0309035Y0144103D01*
X0308843Y0144129D01*
X0308653Y0144160D01*
X0308463Y0144195D01*
X0308274Y0144235D01*
X0308086Y0144280D01*
X0307899Y0144329D01*
X0307713Y0144383D01*
X0307529Y0144441D01*
X0307346Y0144504D01*
X0307165Y0144572D01*
X0306985Y0144643D01*
X0306808Y0144720D01*
X0306632Y0144800D01*
X0306458Y0144885D01*
X0306287Y0144974D01*
X0306117Y0145067D01*
X0305950Y0145164D01*
X0305786Y0145266D01*
X0305624Y0145371D01*
X0305465Y0145481D01*
X0305308Y0145594D01*
X0305154Y0145711D01*
X0305003Y0145832D01*
X0304855Y0145956D01*
X0304710Y0146084D01*
X0304569Y0146216D01*
X0304431Y0146351D01*
X0304296Y0146489D01*
X0304164Y0146630D01*
X0304036Y0146775D01*
X0303912Y0146923D01*
X0303791Y0147074D01*
X0303674Y0147228D01*
X0303561Y0147385D01*
X0303451Y0147544D01*
X0303346Y0147706D01*
X0303244Y0147870D01*
X0303147Y0148037D01*
X0303054Y0148207D01*
X0302965Y0148378D01*
X0302880Y0148552D01*
X0302800Y0148728D01*
X0302723Y0148905D01*
X0302652Y0149085D01*
X0302584Y0149266D01*
X0302521Y0149449D01*
X0302463Y0149633D01*
X0302409Y0149819D01*
X0302360Y0150006D01*
X0302315Y0150194D01*
X0302275Y0150383D01*
X0302240Y0150573D01*
X0302209Y0150763D01*
X0302183Y0150955D01*
X0302162Y0151147D01*
X0302145Y0151340D01*
X0302133Y0151533D01*
X0302126Y0151726D01*
X0302124Y0151919D01*
X0227124Y0151919D02*
X0227126Y0152112D01*
X0227133Y0152305D01*
X0227145Y0152498D01*
X0227162Y0152691D01*
X0227183Y0152883D01*
X0227209Y0153075D01*
X0227240Y0153265D01*
X0227275Y0153455D01*
X0227315Y0153644D01*
X0227360Y0153832D01*
X0227409Y0154019D01*
X0227463Y0154205D01*
X0227521Y0154389D01*
X0227584Y0154572D01*
X0227652Y0154753D01*
X0227723Y0154933D01*
X0227800Y0155110D01*
X0227880Y0155286D01*
X0227965Y0155460D01*
X0228054Y0155631D01*
X0228147Y0155801D01*
X0228244Y0155968D01*
X0228346Y0156132D01*
X0228451Y0156294D01*
X0228561Y0156453D01*
X0228674Y0156610D01*
X0228791Y0156764D01*
X0228912Y0156915D01*
X0229036Y0157063D01*
X0229164Y0157208D01*
X0229296Y0157349D01*
X0229431Y0157487D01*
X0229569Y0157622D01*
X0229710Y0157754D01*
X0229855Y0157882D01*
X0230003Y0158006D01*
X0230154Y0158127D01*
X0230308Y0158244D01*
X0230465Y0158357D01*
X0230624Y0158467D01*
X0230786Y0158572D01*
X0230950Y0158674D01*
X0231117Y0158771D01*
X0231287Y0158864D01*
X0231458Y0158953D01*
X0231632Y0159038D01*
X0231808Y0159118D01*
X0231985Y0159195D01*
X0232165Y0159266D01*
X0232346Y0159334D01*
X0232529Y0159397D01*
X0232713Y0159455D01*
X0232899Y0159509D01*
X0233086Y0159558D01*
X0233274Y0159603D01*
X0233463Y0159643D01*
X0233653Y0159678D01*
X0233843Y0159709D01*
X0234035Y0159735D01*
X0234227Y0159756D01*
X0234420Y0159773D01*
X0234613Y0159785D01*
X0234806Y0159792D01*
X0234999Y0159794D01*
X0235192Y0159792D01*
X0235385Y0159785D01*
X0235578Y0159773D01*
X0235771Y0159756D01*
X0235963Y0159735D01*
X0236155Y0159709D01*
X0236345Y0159678D01*
X0236535Y0159643D01*
X0236724Y0159603D01*
X0236912Y0159558D01*
X0237099Y0159509D01*
X0237285Y0159455D01*
X0237469Y0159397D01*
X0237652Y0159334D01*
X0237833Y0159266D01*
X0238013Y0159195D01*
X0238190Y0159118D01*
X0238366Y0159038D01*
X0238540Y0158953D01*
X0238711Y0158864D01*
X0238881Y0158771D01*
X0239048Y0158674D01*
X0239212Y0158572D01*
X0239374Y0158467D01*
X0239533Y0158357D01*
X0239690Y0158244D01*
X0239844Y0158127D01*
X0239995Y0158006D01*
X0240143Y0157882D01*
X0240288Y0157754D01*
X0240429Y0157622D01*
X0240567Y0157487D01*
X0240702Y0157349D01*
X0240834Y0157208D01*
X0240962Y0157063D01*
X0241086Y0156915D01*
X0241207Y0156764D01*
X0241324Y0156610D01*
X0241437Y0156453D01*
X0241547Y0156294D01*
X0241652Y0156132D01*
X0241754Y0155968D01*
X0241851Y0155801D01*
X0241944Y0155631D01*
X0242033Y0155460D01*
X0242118Y0155286D01*
X0242198Y0155110D01*
X0242275Y0154933D01*
X0242346Y0154753D01*
X0242414Y0154572D01*
X0242477Y0154389D01*
X0242535Y0154205D01*
X0242589Y0154019D01*
X0242638Y0153832D01*
X0242683Y0153644D01*
X0242723Y0153455D01*
X0242758Y0153265D01*
X0242789Y0153075D01*
X0242815Y0152883D01*
X0242836Y0152691D01*
X0242853Y0152498D01*
X0242865Y0152305D01*
X0242872Y0152112D01*
X0242874Y0151919D01*
X0242872Y0151726D01*
X0242865Y0151533D01*
X0242853Y0151340D01*
X0242836Y0151147D01*
X0242815Y0150955D01*
X0242789Y0150763D01*
X0242758Y0150573D01*
X0242723Y0150383D01*
X0242683Y0150194D01*
X0242638Y0150006D01*
X0242589Y0149819D01*
X0242535Y0149633D01*
X0242477Y0149449D01*
X0242414Y0149266D01*
X0242346Y0149085D01*
X0242275Y0148905D01*
X0242198Y0148728D01*
X0242118Y0148552D01*
X0242033Y0148378D01*
X0241944Y0148207D01*
X0241851Y0148037D01*
X0241754Y0147870D01*
X0241652Y0147706D01*
X0241547Y0147544D01*
X0241437Y0147385D01*
X0241324Y0147228D01*
X0241207Y0147074D01*
X0241086Y0146923D01*
X0240962Y0146775D01*
X0240834Y0146630D01*
X0240702Y0146489D01*
X0240567Y0146351D01*
X0240429Y0146216D01*
X0240288Y0146084D01*
X0240143Y0145956D01*
X0239995Y0145832D01*
X0239844Y0145711D01*
X0239690Y0145594D01*
X0239533Y0145481D01*
X0239374Y0145371D01*
X0239212Y0145266D01*
X0239048Y0145164D01*
X0238881Y0145067D01*
X0238711Y0144974D01*
X0238540Y0144885D01*
X0238366Y0144800D01*
X0238190Y0144720D01*
X0238013Y0144643D01*
X0237833Y0144572D01*
X0237652Y0144504D01*
X0237469Y0144441D01*
X0237285Y0144383D01*
X0237099Y0144329D01*
X0236912Y0144280D01*
X0236724Y0144235D01*
X0236535Y0144195D01*
X0236345Y0144160D01*
X0236155Y0144129D01*
X0235963Y0144103D01*
X0235771Y0144082D01*
X0235578Y0144065D01*
X0235385Y0144053D01*
X0235192Y0144046D01*
X0234999Y0144044D01*
X0234806Y0144046D01*
X0234613Y0144053D01*
X0234420Y0144065D01*
X0234227Y0144082D01*
X0234035Y0144103D01*
X0233843Y0144129D01*
X0233653Y0144160D01*
X0233463Y0144195D01*
X0233274Y0144235D01*
X0233086Y0144280D01*
X0232899Y0144329D01*
X0232713Y0144383D01*
X0232529Y0144441D01*
X0232346Y0144504D01*
X0232165Y0144572D01*
X0231985Y0144643D01*
X0231808Y0144720D01*
X0231632Y0144800D01*
X0231458Y0144885D01*
X0231287Y0144974D01*
X0231117Y0145067D01*
X0230950Y0145164D01*
X0230786Y0145266D01*
X0230624Y0145371D01*
X0230465Y0145481D01*
X0230308Y0145594D01*
X0230154Y0145711D01*
X0230003Y0145832D01*
X0229855Y0145956D01*
X0229710Y0146084D01*
X0229569Y0146216D01*
X0229431Y0146351D01*
X0229296Y0146489D01*
X0229164Y0146630D01*
X0229036Y0146775D01*
X0228912Y0146923D01*
X0228791Y0147074D01*
X0228674Y0147228D01*
X0228561Y0147385D01*
X0228451Y0147544D01*
X0228346Y0147706D01*
X0228244Y0147870D01*
X0228147Y0148037D01*
X0228054Y0148207D01*
X0227965Y0148378D01*
X0227880Y0148552D01*
X0227800Y0148728D01*
X0227723Y0148905D01*
X0227652Y0149085D01*
X0227584Y0149266D01*
X0227521Y0149449D01*
X0227463Y0149633D01*
X0227409Y0149819D01*
X0227360Y0150006D01*
X0227315Y0150194D01*
X0227275Y0150383D01*
X0227240Y0150573D01*
X0227209Y0150763D01*
X0227183Y0150955D01*
X0227162Y0151147D01*
X0227145Y0151340D01*
X0227133Y0151533D01*
X0227126Y0151726D01*
X0227124Y0151919D01*
D11*
X0205078Y0181840D02*
X0199566Y0187352D01*
X0199566Y0116486D01*
X0205078Y0121997D01*
X0204999Y0121919D02*
X0204999Y0181919D01*
X0264999Y0181919D01*
X0264999Y0121919D01*
X0204999Y0121919D01*
X0199566Y0116486D02*
X0270432Y0116486D01*
X0264920Y0121997D01*
X0270432Y0116486D02*
X0270432Y0187352D01*
X0264920Y0181840D01*
X0270432Y0187352D02*
X0199566Y0187352D01*
X0200645Y0188172D02*
X0201396Y0188922D01*
X0202897Y0188922D01*
X0203648Y0188172D01*
X0203648Y0187421D01*
X0202897Y0186671D01*
X0203648Y0185920D01*
X0203648Y0185169D01*
X0202897Y0184419D01*
X0201396Y0184419D01*
X0200645Y0185169D01*
X0199044Y0185920D02*
X0199044Y0188922D01*
X0199044Y0185920D02*
X0197542Y0184419D01*
X0196041Y0185920D01*
X0196041Y0188922D01*
X0194440Y0188172D02*
X0193689Y0188922D01*
X0192188Y0188922D01*
X0191437Y0188172D01*
X0191437Y0187421D01*
X0192188Y0186671D01*
X0193689Y0186671D01*
X0194440Y0185920D01*
X0194440Y0185169D01*
X0193689Y0184419D01*
X0192188Y0184419D01*
X0191437Y0185169D01*
X0202146Y0186671D02*
X0202897Y0186671D01*
X0201148Y0202419D02*
X0198145Y0202419D01*
X0199646Y0202419D02*
X0199646Y0206922D01*
X0198145Y0205421D01*
X0151148Y0188922D02*
X0149646Y0188172D01*
X0148145Y0186671D01*
X0150397Y0186671D01*
X0151148Y0185920D01*
X0151148Y0185169D01*
X0150397Y0184419D01*
X0148896Y0184419D01*
X0148145Y0185169D01*
X0148145Y0186671D01*
X0145887Y0157881D02*
X0103461Y0200307D01*
X0061035Y0157881D01*
X0103461Y0115454D01*
X0145887Y0157881D01*
X0145776Y0157881D02*
X0153571Y0157881D01*
X0103461Y0107771D01*
X0103461Y0115566D01*
X0103461Y0107771D02*
X0053351Y0157881D01*
X0061146Y0157881D01*
X0053351Y0157881D02*
X0103461Y0207990D01*
X0103461Y0200196D01*
X0103461Y0207990D02*
X0153571Y0157881D01*
X0155458Y0155993D02*
X0155458Y0148198D01*
X0155458Y0148309D02*
X0197885Y0105883D01*
X0155458Y0063457D01*
X0113032Y0105883D01*
X0155458Y0148309D01*
X0155458Y0155993D02*
X0205568Y0105883D01*
X0197773Y0105883D01*
X0205568Y0105883D02*
X0155458Y0055773D01*
X0155458Y0063568D01*
X0147682Y0067681D02*
X0147682Y0068743D01*
X0146620Y0069804D01*
X0145559Y0069804D01*
X0144957Y0071467D02*
X0143896Y0072529D01*
X0144426Y0071998D02*
X0141772Y0069344D01*
X0140711Y0069344D01*
X0140180Y0069875D01*
X0140180Y0070937D01*
X0139048Y0072069D02*
X0137986Y0072069D01*
X0136925Y0073130D01*
X0136925Y0074192D01*
X0138517Y0074723D02*
X0139579Y0073661D01*
X0139579Y0072600D01*
X0139048Y0072069D01*
X0138517Y0074723D02*
X0138517Y0075784D01*
X0139048Y0076315D01*
X0140109Y0076315D01*
X0141171Y0075254D01*
X0141171Y0074192D01*
X0143731Y0077814D02*
X0142670Y0078876D01*
X0142670Y0079937D01*
X0144262Y0080468D02*
X0145324Y0079407D01*
X0145324Y0078345D01*
X0144793Y0077814D01*
X0143731Y0077814D01*
X0145925Y0076682D02*
X0145925Y0075620D01*
X0146456Y0075089D01*
X0147518Y0075089D01*
X0150172Y0077743D01*
X0150702Y0077213D02*
X0149641Y0078274D01*
X0146916Y0079937D02*
X0146916Y0080999D01*
X0145855Y0082060D01*
X0144793Y0082060D01*
X0144262Y0081530D01*
X0144262Y0080468D01*
X0150773Y0075019D02*
X0152896Y0075019D01*
X0149712Y0071834D01*
X0148650Y0072896D02*
X0150773Y0070772D01*
X0147682Y0067681D02*
X0147151Y0067150D01*
X0142905Y0067150D01*
X0145028Y0065027D01*
X0155458Y0055773D02*
X0105348Y0105883D01*
X0113143Y0105883D01*
X0105348Y0105883D02*
X0155458Y0155993D01*
X0143494Y0148987D02*
X0143494Y0147926D01*
X0142432Y0146864D01*
X0141370Y0146864D01*
X0141370Y0148987D02*
X0141901Y0149518D01*
X0142963Y0149518D01*
X0143494Y0148987D01*
X0141901Y0149518D02*
X0141901Y0150580D01*
X0141370Y0151110D01*
X0140309Y0151110D01*
X0139247Y0150049D01*
X0139247Y0148987D01*
X0137584Y0148386D02*
X0136523Y0147324D01*
X0137053Y0147855D02*
X0139707Y0145201D01*
X0139707Y0144139D01*
X0139176Y0143609D01*
X0138115Y0143609D01*
X0136983Y0142476D02*
X0136452Y0143007D01*
X0135390Y0143007D01*
X0134329Y0141946D01*
X0133267Y0141946D01*
X0132736Y0142476D01*
X0132736Y0143538D01*
X0133798Y0144599D01*
X0134859Y0144599D01*
X0136983Y0142476D02*
X0136983Y0141415D01*
X0135921Y0140353D01*
X0134859Y0140353D01*
X0130176Y0146098D02*
X0129114Y0146098D01*
X0130176Y0146098D02*
X0131237Y0147160D01*
X0131237Y0148222D01*
X0130707Y0148752D01*
X0129645Y0148752D01*
X0128583Y0147691D01*
X0127522Y0147691D01*
X0126991Y0148222D01*
X0126991Y0149283D01*
X0128053Y0150345D01*
X0129114Y0150345D01*
X0130777Y0153069D02*
X0131839Y0154131D01*
X0131308Y0153600D02*
X0133962Y0150946D01*
X0133962Y0149885D01*
X0133431Y0149354D01*
X0132370Y0149354D01*
X0134564Y0153671D02*
X0136687Y0155794D01*
X0137748Y0153671D02*
X0134564Y0156856D01*
X0134564Y0153671D01*
X0101573Y0105883D02*
X0093779Y0105883D01*
X0093890Y0105883D02*
X0051463Y0063457D01*
X0009037Y0105883D01*
X0051463Y0148309D01*
X0093890Y0105883D01*
X0101573Y0105883D02*
X0051463Y0055773D01*
X0051463Y0063568D01*
X0051463Y0055773D02*
X0001354Y0105883D01*
X0009148Y0105883D01*
X0001354Y0105883D02*
X0051463Y0155993D01*
X0051463Y0148198D01*
X0051463Y0155993D02*
X0101573Y0105883D01*
X0103461Y0103996D02*
X0103461Y0096201D01*
X0103461Y0096312D02*
X0145887Y0053886D01*
X0103461Y0011459D01*
X0061035Y0053886D01*
X0103461Y0096312D01*
X0103461Y0103996D02*
X0153571Y0053886D01*
X0145776Y0053886D01*
X0153571Y0053886D02*
X0103461Y0003776D01*
X0103461Y0011571D01*
X0103461Y0003776D02*
X0053351Y0053886D01*
X0061146Y0053886D01*
X0053351Y0053886D02*
X0103461Y0103996D01*
X0199566Y0097352D02*
X0205078Y0091840D01*
X0204999Y0091919D02*
X0204999Y0031919D01*
X0264999Y0031919D01*
X0264999Y0091919D01*
X0204999Y0091919D01*
X0199566Y0097352D02*
X0199566Y0026486D01*
X0205078Y0031997D01*
X0200752Y0029422D02*
X0199250Y0028672D01*
X0197749Y0027171D01*
X0200001Y0027171D01*
X0200752Y0026420D01*
X0200752Y0025669D01*
X0200001Y0024919D01*
X0198500Y0024919D01*
X0197749Y0025669D01*
X0197749Y0027171D01*
X0199566Y0026486D02*
X0270432Y0026486D01*
X0264920Y0031997D01*
X0270432Y0026486D02*
X0270432Y0097352D01*
X0264920Y0091840D01*
X0260148Y0094669D02*
X0260148Y0095420D01*
X0259397Y0096171D01*
X0257145Y0096171D01*
X0257145Y0094669D01*
X0257896Y0093919D01*
X0259397Y0093919D01*
X0260148Y0094669D01*
X0258646Y0097672D02*
X0257145Y0096171D01*
X0258646Y0097672D02*
X0260148Y0098422D01*
X0259397Y0102044D02*
X0257896Y0102044D01*
X0257145Y0102794D01*
X0257145Y0104296D02*
X0258646Y0105046D01*
X0259397Y0105046D01*
X0260148Y0104296D01*
X0260148Y0102794D01*
X0259397Y0102044D01*
X0257145Y0104296D02*
X0257145Y0106547D01*
X0260148Y0106547D01*
X0255544Y0106547D02*
X0254042Y0106547D01*
X0254793Y0106547D02*
X0254793Y0102794D01*
X0254042Y0102044D01*
X0253292Y0102044D01*
X0252541Y0102794D01*
X0250940Y0102794D02*
X0250940Y0103545D01*
X0250189Y0104296D01*
X0248688Y0104296D01*
X0247937Y0105046D01*
X0247937Y0105797D01*
X0248688Y0106547D01*
X0250189Y0106547D01*
X0250940Y0105797D01*
X0250940Y0102794D02*
X0250189Y0102044D01*
X0248688Y0102044D01*
X0247937Y0102794D01*
X0248688Y0098422D02*
X0247937Y0097672D01*
X0247937Y0096921D01*
X0248688Y0096171D01*
X0250189Y0096171D01*
X0250940Y0095420D01*
X0250940Y0094669D01*
X0250189Y0093919D01*
X0248688Y0093919D01*
X0247937Y0094669D01*
X0248688Y0098422D02*
X0250189Y0098422D01*
X0250940Y0097672D01*
X0254042Y0098422D02*
X0255544Y0098422D01*
X0254793Y0098422D02*
X0254793Y0094669D01*
X0254042Y0093919D01*
X0253292Y0093919D01*
X0252541Y0094669D01*
X0270432Y0097352D02*
X0199566Y0097352D01*
X0274566Y0097352D02*
X0280078Y0091840D01*
X0279999Y0091919D02*
X0279999Y0031919D01*
X0339999Y0031919D01*
X0339999Y0091919D01*
X0279999Y0091919D01*
X0274566Y0097352D02*
X0274566Y0026486D01*
X0280078Y0031997D01*
X0274566Y0026486D02*
X0345432Y0026486D01*
X0339920Y0031997D01*
X0345432Y0026486D02*
X0345432Y0097352D01*
X0339920Y0091840D01*
X0345432Y0097352D02*
X0274566Y0097352D01*
X0284500Y0107919D02*
X0283749Y0108669D01*
X0284500Y0107919D02*
X0286001Y0107919D01*
X0286752Y0108669D01*
X0286752Y0109420D01*
X0286001Y0110171D01*
X0284500Y0110171D01*
X0283749Y0110921D01*
X0283749Y0111672D01*
X0284500Y0112422D01*
X0286001Y0112422D01*
X0286752Y0111672D01*
X0289854Y0112422D02*
X0291355Y0112422D01*
X0290605Y0112422D02*
X0290605Y0108669D01*
X0289854Y0107919D01*
X0289104Y0107919D01*
X0288353Y0108669D01*
X0292957Y0108669D02*
X0292957Y0109420D01*
X0293708Y0110171D01*
X0295209Y0110171D01*
X0295959Y0109420D01*
X0295959Y0108669D01*
X0295209Y0107919D01*
X0293708Y0107919D01*
X0292957Y0108669D01*
X0293708Y0110171D02*
X0292957Y0110921D01*
X0292957Y0111672D01*
X0293708Y0112422D01*
X0295209Y0112422D01*
X0295959Y0111672D01*
X0295959Y0110921D01*
X0295209Y0110171D01*
X0292957Y0116044D02*
X0292957Y0116794D01*
X0295959Y0119797D01*
X0295959Y0120547D01*
X0292957Y0120547D01*
X0291355Y0120547D02*
X0289854Y0120547D01*
X0290605Y0120547D02*
X0290605Y0116794D01*
X0289854Y0116044D01*
X0289104Y0116044D01*
X0288353Y0116794D01*
X0286752Y0116794D02*
X0286001Y0116044D01*
X0284500Y0116044D01*
X0283749Y0116794D01*
X0284500Y0118296D02*
X0286001Y0118296D01*
X0286752Y0117545D01*
X0286752Y0116794D01*
X0284500Y0118296D02*
X0283749Y0119046D01*
X0283749Y0119797D01*
X0284500Y0120547D01*
X0286001Y0120547D01*
X0286752Y0119797D01*
X0280078Y0121997D02*
X0274566Y0116486D01*
X0345432Y0116486D01*
X0339920Y0121997D01*
X0339999Y0121919D02*
X0279999Y0121919D01*
X0279999Y0181919D01*
X0339999Y0181919D01*
X0339999Y0121919D01*
X0345432Y0116486D02*
X0345432Y0187352D01*
X0339920Y0181840D01*
X0345432Y0187352D02*
X0274566Y0187352D01*
X0280078Y0181840D01*
X0274566Y0187352D02*
X0274566Y0116486D01*
X0219959Y0019422D02*
X0216957Y0019422D01*
X0216957Y0017171D01*
X0218458Y0017921D01*
X0219209Y0017921D01*
X0219959Y0017171D01*
X0219959Y0015669D01*
X0219209Y0014919D01*
X0217708Y0014919D01*
X0216957Y0015669D01*
X0215355Y0016420D02*
X0215355Y0019422D01*
X0212353Y0019422D02*
X0212353Y0016420D01*
X0213854Y0014919D01*
X0215355Y0016420D01*
X0210752Y0016420D02*
X0210752Y0015669D01*
X0210001Y0014919D01*
X0208500Y0014919D01*
X0207749Y0015669D01*
X0208500Y0017171D02*
X0210001Y0017171D01*
X0210752Y0016420D01*
X0210752Y0018672D02*
X0210001Y0019422D01*
X0208500Y0019422D01*
X0207749Y0018672D01*
X0207749Y0017921D01*
X0208500Y0017171D01*
X0150752Y0006919D02*
X0147749Y0006919D01*
X0149250Y0006919D02*
X0149250Y0011422D01*
X0147749Y0009921D01*
D12*
X0147499Y0013169D02*
X0152499Y0013169D01*
X0154999Y0015669D01*
X0157499Y0013169D01*
X0162499Y0013169D01*
X0164999Y0015669D01*
X0167499Y0013169D01*
X0172499Y0013169D01*
X0174999Y0015669D01*
X0177499Y0013169D01*
X0182499Y0013169D01*
X0184999Y0015669D01*
X0187499Y0013169D01*
X0192499Y0013169D01*
X0194999Y0015669D01*
X0197499Y0013169D01*
X0202499Y0013169D01*
X0204999Y0015669D01*
X0204999Y0020669D01*
X0202499Y0023169D01*
X0197499Y0023169D01*
X0194999Y0020669D01*
X0192499Y0023169D01*
X0187499Y0023169D01*
X0184999Y0020669D01*
X0182499Y0023169D01*
X0177499Y0023169D01*
X0174999Y0020669D01*
X0172499Y0023169D01*
X0167499Y0023169D01*
X0164999Y0020669D01*
X0162499Y0023169D01*
X0157499Y0023169D01*
X0154999Y0020669D01*
X0152499Y0023169D01*
X0147499Y0023169D01*
X0144999Y0020669D01*
X0144999Y0015669D01*
X0147499Y0013169D01*
X0139929Y0059166D02*
X0144172Y0063408D01*
X0144214Y0063452D01*
X0144252Y0063498D01*
X0144288Y0063547D01*
X0144321Y0063598D01*
X0144350Y0063650D01*
X0144377Y0063705D01*
X0144400Y0063760D01*
X0144420Y0063817D01*
X0144436Y0063876D01*
X0144449Y0063935D01*
X0144458Y0063994D01*
X0144463Y0064055D01*
X0144465Y0064115D01*
X0144463Y0064175D01*
X0144458Y0064236D01*
X0144449Y0064295D01*
X0144436Y0064354D01*
X0144420Y0064413D01*
X0144400Y0064470D01*
X0144377Y0064525D01*
X0144350Y0064580D01*
X0144321Y0064632D01*
X0144288Y0064683D01*
X0144252Y0064732D01*
X0144214Y0064778D01*
X0144172Y0064822D01*
X0136394Y0072601D01*
X0136482Y0072689D02*
X0144260Y0064911D01*
X0144261Y0064911D02*
X0144305Y0064869D01*
X0144351Y0064831D01*
X0144400Y0064795D01*
X0144451Y0064762D01*
X0144503Y0064733D01*
X0144558Y0064706D01*
X0144613Y0064683D01*
X0144670Y0064663D01*
X0144729Y0064647D01*
X0144788Y0064634D01*
X0144847Y0064625D01*
X0144908Y0064620D01*
X0144968Y0064618D01*
X0145028Y0064620D01*
X0145089Y0064625D01*
X0145148Y0064634D01*
X0145207Y0064647D01*
X0145266Y0064663D01*
X0145323Y0064683D01*
X0145378Y0064706D01*
X0145433Y0064733D01*
X0145485Y0064762D01*
X0145536Y0064795D01*
X0145585Y0064831D01*
X0145631Y0064869D01*
X0145675Y0064911D01*
X0149917Y0069153D01*
X0149917Y0069154D02*
X0149959Y0069198D01*
X0149997Y0069244D01*
X0150033Y0069293D01*
X0150066Y0069344D01*
X0150095Y0069396D01*
X0150122Y0069451D01*
X0150145Y0069506D01*
X0150165Y0069563D01*
X0150181Y0069622D01*
X0150194Y0069681D01*
X0150203Y0069740D01*
X0150208Y0069801D01*
X0150210Y0069861D01*
X0150208Y0069921D01*
X0150203Y0069982D01*
X0150194Y0070041D01*
X0150181Y0070100D01*
X0150165Y0070159D01*
X0150145Y0070216D01*
X0150122Y0070271D01*
X0150095Y0070326D01*
X0150066Y0070378D01*
X0150033Y0070429D01*
X0149997Y0070478D01*
X0149959Y0070524D01*
X0149917Y0070568D01*
X0142139Y0078346D01*
X0142095Y0078388D01*
X0142049Y0078426D01*
X0142000Y0078462D01*
X0141949Y0078495D01*
X0141897Y0078524D01*
X0141842Y0078551D01*
X0141787Y0078574D01*
X0141730Y0078594D01*
X0141671Y0078610D01*
X0141612Y0078623D01*
X0141553Y0078632D01*
X0141492Y0078637D01*
X0141432Y0078639D01*
X0141372Y0078637D01*
X0141311Y0078632D01*
X0141252Y0078623D01*
X0141193Y0078610D01*
X0141134Y0078594D01*
X0141077Y0078574D01*
X0141022Y0078551D01*
X0140967Y0078524D01*
X0140915Y0078495D01*
X0140864Y0078462D01*
X0140815Y0078426D01*
X0140769Y0078388D01*
X0140725Y0078346D01*
X0136482Y0074103D01*
X0136440Y0074059D01*
X0136402Y0074013D01*
X0136366Y0073964D01*
X0136333Y0073913D01*
X0136304Y0073861D01*
X0136277Y0073806D01*
X0136254Y0073751D01*
X0136234Y0073694D01*
X0136218Y0073635D01*
X0136205Y0073576D01*
X0136196Y0073517D01*
X0136191Y0073456D01*
X0136189Y0073396D01*
X0136191Y0073336D01*
X0136196Y0073275D01*
X0136205Y0073216D01*
X0136218Y0073157D01*
X0136234Y0073098D01*
X0136254Y0073041D01*
X0136277Y0072986D01*
X0136304Y0072931D01*
X0136333Y0072879D01*
X0136366Y0072828D01*
X0136402Y0072779D01*
X0136440Y0072733D01*
X0136482Y0072689D01*
X0136394Y0072600D02*
X0136350Y0072642D01*
X0136304Y0072680D01*
X0136255Y0072716D01*
X0136204Y0072749D01*
X0136152Y0072778D01*
X0136097Y0072805D01*
X0136042Y0072828D01*
X0135985Y0072848D01*
X0135926Y0072864D01*
X0135867Y0072877D01*
X0135808Y0072886D01*
X0135747Y0072891D01*
X0135687Y0072893D01*
X0135627Y0072891D01*
X0135566Y0072886D01*
X0135507Y0072877D01*
X0135448Y0072864D01*
X0135389Y0072848D01*
X0135332Y0072828D01*
X0135277Y0072805D01*
X0135222Y0072778D01*
X0135170Y0072749D01*
X0135119Y0072716D01*
X0135070Y0072680D01*
X0135024Y0072642D01*
X0134980Y0072600D01*
X0134980Y0072601D02*
X0130737Y0068358D01*
X0130695Y0068314D01*
X0130657Y0068268D01*
X0130621Y0068219D01*
X0130588Y0068168D01*
X0130559Y0068116D01*
X0130532Y0068061D01*
X0130509Y0068006D01*
X0130489Y0067949D01*
X0130473Y0067890D01*
X0130460Y0067831D01*
X0130451Y0067772D01*
X0130446Y0067711D01*
X0130444Y0067651D01*
X0130446Y0067591D01*
X0130451Y0067530D01*
X0130460Y0067471D01*
X0130473Y0067412D01*
X0130489Y0067353D01*
X0130509Y0067296D01*
X0130532Y0067241D01*
X0130559Y0067186D01*
X0130588Y0067134D01*
X0130621Y0067083D01*
X0130657Y0067034D01*
X0130695Y0066988D01*
X0130737Y0066944D01*
X0138515Y0059166D01*
X0138559Y0059124D01*
X0138605Y0059086D01*
X0138654Y0059050D01*
X0138705Y0059017D01*
X0138757Y0058988D01*
X0138812Y0058961D01*
X0138867Y0058938D01*
X0138924Y0058918D01*
X0138983Y0058902D01*
X0139042Y0058889D01*
X0139101Y0058880D01*
X0139162Y0058875D01*
X0139222Y0058873D01*
X0139282Y0058875D01*
X0139343Y0058880D01*
X0139402Y0058889D01*
X0139461Y0058902D01*
X0139520Y0058918D01*
X0139577Y0058938D01*
X0139632Y0058961D01*
X0139687Y0058988D01*
X0139739Y0059017D01*
X0139790Y0059050D01*
X0139839Y0059086D01*
X0139885Y0059124D01*
X0139929Y0059166D01*
X0248499Y0100169D02*
X0248499Y0106169D01*
X0248501Y0106229D01*
X0248506Y0106290D01*
X0248515Y0106349D01*
X0248528Y0106408D01*
X0248544Y0106467D01*
X0248564Y0106524D01*
X0248587Y0106579D01*
X0248614Y0106634D01*
X0248643Y0106686D01*
X0248676Y0106737D01*
X0248712Y0106786D01*
X0248750Y0106832D01*
X0248792Y0106876D01*
X0248836Y0106918D01*
X0248882Y0106956D01*
X0248931Y0106992D01*
X0248982Y0107025D01*
X0249034Y0107054D01*
X0249089Y0107081D01*
X0249144Y0107104D01*
X0249201Y0107124D01*
X0249260Y0107140D01*
X0249319Y0107153D01*
X0249378Y0107162D01*
X0249439Y0107167D01*
X0249499Y0107169D01*
X0260499Y0107169D01*
X0260499Y0107294D02*
X0249499Y0107294D01*
X0249439Y0107296D01*
X0249378Y0107301D01*
X0249319Y0107310D01*
X0249260Y0107323D01*
X0249201Y0107339D01*
X0249144Y0107359D01*
X0249089Y0107382D01*
X0249034Y0107409D01*
X0248982Y0107438D01*
X0248931Y0107471D01*
X0248882Y0107507D01*
X0248836Y0107545D01*
X0248792Y0107587D01*
X0248750Y0107631D01*
X0248712Y0107677D01*
X0248676Y0107726D01*
X0248643Y0107777D01*
X0248614Y0107829D01*
X0248587Y0107884D01*
X0248564Y0107939D01*
X0248544Y0107996D01*
X0248528Y0108055D01*
X0248515Y0108114D01*
X0248506Y0108173D01*
X0248501Y0108234D01*
X0248499Y0108294D01*
X0248499Y0114294D01*
X0248501Y0114354D01*
X0248506Y0114415D01*
X0248515Y0114474D01*
X0248528Y0114533D01*
X0248544Y0114592D01*
X0248564Y0114649D01*
X0248587Y0114704D01*
X0248614Y0114759D01*
X0248643Y0114811D01*
X0248676Y0114862D01*
X0248712Y0114911D01*
X0248750Y0114957D01*
X0248792Y0115001D01*
X0248836Y0115043D01*
X0248882Y0115081D01*
X0248931Y0115117D01*
X0248982Y0115150D01*
X0249034Y0115179D01*
X0249089Y0115206D01*
X0249144Y0115229D01*
X0249201Y0115249D01*
X0249260Y0115265D01*
X0249319Y0115278D01*
X0249378Y0115287D01*
X0249439Y0115292D01*
X0249499Y0115294D01*
X0260499Y0115294D01*
X0260559Y0115292D01*
X0260620Y0115287D01*
X0260679Y0115278D01*
X0260738Y0115265D01*
X0260797Y0115249D01*
X0260854Y0115229D01*
X0260909Y0115206D01*
X0260964Y0115179D01*
X0261016Y0115150D01*
X0261067Y0115117D01*
X0261116Y0115081D01*
X0261162Y0115043D01*
X0261206Y0115001D01*
X0261248Y0114957D01*
X0261286Y0114911D01*
X0261322Y0114862D01*
X0261355Y0114811D01*
X0261384Y0114759D01*
X0261411Y0114704D01*
X0261434Y0114649D01*
X0261454Y0114592D01*
X0261470Y0114533D01*
X0261483Y0114474D01*
X0261492Y0114415D01*
X0261497Y0114354D01*
X0261499Y0114294D01*
X0261499Y0108294D01*
X0261497Y0108234D01*
X0261492Y0108173D01*
X0261483Y0108114D01*
X0261470Y0108055D01*
X0261454Y0107996D01*
X0261434Y0107939D01*
X0261411Y0107884D01*
X0261384Y0107829D01*
X0261355Y0107777D01*
X0261322Y0107726D01*
X0261286Y0107677D01*
X0261248Y0107631D01*
X0261206Y0107587D01*
X0261162Y0107545D01*
X0261116Y0107507D01*
X0261067Y0107471D01*
X0261016Y0107438D01*
X0260964Y0107409D01*
X0260909Y0107382D01*
X0260854Y0107359D01*
X0260797Y0107339D01*
X0260738Y0107323D01*
X0260679Y0107310D01*
X0260620Y0107301D01*
X0260559Y0107296D01*
X0260499Y0107294D01*
X0260499Y0107169D02*
X0260559Y0107167D01*
X0260620Y0107162D01*
X0260679Y0107153D01*
X0260738Y0107140D01*
X0260797Y0107124D01*
X0260854Y0107104D01*
X0260909Y0107081D01*
X0260964Y0107054D01*
X0261016Y0107025D01*
X0261067Y0106992D01*
X0261116Y0106956D01*
X0261162Y0106918D01*
X0261206Y0106876D01*
X0261248Y0106832D01*
X0261286Y0106786D01*
X0261322Y0106737D01*
X0261355Y0106686D01*
X0261384Y0106634D01*
X0261411Y0106579D01*
X0261434Y0106524D01*
X0261454Y0106467D01*
X0261470Y0106408D01*
X0261483Y0106349D01*
X0261492Y0106290D01*
X0261497Y0106229D01*
X0261499Y0106169D01*
X0261499Y0100169D01*
X0261497Y0100109D01*
X0261492Y0100048D01*
X0261483Y0099989D01*
X0261470Y0099930D01*
X0261454Y0099871D01*
X0261434Y0099814D01*
X0261411Y0099759D01*
X0261384Y0099704D01*
X0261355Y0099652D01*
X0261322Y0099601D01*
X0261286Y0099552D01*
X0261248Y0099506D01*
X0261206Y0099462D01*
X0261162Y0099420D01*
X0261116Y0099382D01*
X0261067Y0099346D01*
X0261016Y0099313D01*
X0260964Y0099284D01*
X0260909Y0099257D01*
X0260854Y0099234D01*
X0260797Y0099214D01*
X0260738Y0099198D01*
X0260679Y0099185D01*
X0260620Y0099176D01*
X0260559Y0099171D01*
X0260499Y0099169D01*
X0249499Y0099169D01*
X0249439Y0099171D01*
X0249378Y0099176D01*
X0249319Y0099185D01*
X0249260Y0099198D01*
X0249201Y0099214D01*
X0249144Y0099234D01*
X0249089Y0099257D01*
X0249034Y0099284D01*
X0248982Y0099313D01*
X0248931Y0099346D01*
X0248882Y0099382D01*
X0248836Y0099420D01*
X0248792Y0099462D01*
X0248750Y0099506D01*
X0248712Y0099552D01*
X0248676Y0099601D01*
X0248643Y0099652D01*
X0248614Y0099704D01*
X0248587Y0099759D01*
X0248564Y0099814D01*
X0248544Y0099871D01*
X0248528Y0099930D01*
X0248515Y0099989D01*
X0248506Y0100048D01*
X0248501Y0100109D01*
X0248499Y0100169D01*
X0283499Y0100169D02*
X0283499Y0106169D01*
X0283501Y0106229D01*
X0283506Y0106290D01*
X0283515Y0106349D01*
X0283528Y0106408D01*
X0283544Y0106467D01*
X0283564Y0106524D01*
X0283587Y0106579D01*
X0283614Y0106634D01*
X0283643Y0106686D01*
X0283676Y0106737D01*
X0283712Y0106786D01*
X0283750Y0106832D01*
X0283792Y0106876D01*
X0283836Y0106918D01*
X0283882Y0106956D01*
X0283931Y0106992D01*
X0283982Y0107025D01*
X0284034Y0107054D01*
X0284089Y0107081D01*
X0284144Y0107104D01*
X0284201Y0107124D01*
X0284260Y0107140D01*
X0284319Y0107153D01*
X0284378Y0107162D01*
X0284439Y0107167D01*
X0284499Y0107169D01*
X0295499Y0107169D01*
X0295499Y0107294D02*
X0284499Y0107294D01*
X0284439Y0107296D01*
X0284378Y0107301D01*
X0284319Y0107310D01*
X0284260Y0107323D01*
X0284201Y0107339D01*
X0284144Y0107359D01*
X0284089Y0107382D01*
X0284034Y0107409D01*
X0283982Y0107438D01*
X0283931Y0107471D01*
X0283882Y0107507D01*
X0283836Y0107545D01*
X0283792Y0107587D01*
X0283750Y0107631D01*
X0283712Y0107677D01*
X0283676Y0107726D01*
X0283643Y0107777D01*
X0283614Y0107829D01*
X0283587Y0107884D01*
X0283564Y0107939D01*
X0283544Y0107996D01*
X0283528Y0108055D01*
X0283515Y0108114D01*
X0283506Y0108173D01*
X0283501Y0108234D01*
X0283499Y0108294D01*
X0283499Y0114294D01*
X0283501Y0114354D01*
X0283506Y0114415D01*
X0283515Y0114474D01*
X0283528Y0114533D01*
X0283544Y0114592D01*
X0283564Y0114649D01*
X0283587Y0114704D01*
X0283614Y0114759D01*
X0283643Y0114811D01*
X0283676Y0114862D01*
X0283712Y0114911D01*
X0283750Y0114957D01*
X0283792Y0115001D01*
X0283836Y0115043D01*
X0283882Y0115081D01*
X0283931Y0115117D01*
X0283982Y0115150D01*
X0284034Y0115179D01*
X0284089Y0115206D01*
X0284144Y0115229D01*
X0284201Y0115249D01*
X0284260Y0115265D01*
X0284319Y0115278D01*
X0284378Y0115287D01*
X0284439Y0115292D01*
X0284499Y0115294D01*
X0295499Y0115294D01*
X0295559Y0115292D01*
X0295620Y0115287D01*
X0295679Y0115278D01*
X0295738Y0115265D01*
X0295797Y0115249D01*
X0295854Y0115229D01*
X0295909Y0115206D01*
X0295964Y0115179D01*
X0296016Y0115150D01*
X0296067Y0115117D01*
X0296116Y0115081D01*
X0296162Y0115043D01*
X0296206Y0115001D01*
X0296248Y0114957D01*
X0296286Y0114911D01*
X0296322Y0114862D01*
X0296355Y0114811D01*
X0296384Y0114759D01*
X0296411Y0114704D01*
X0296434Y0114649D01*
X0296454Y0114592D01*
X0296470Y0114533D01*
X0296483Y0114474D01*
X0296492Y0114415D01*
X0296497Y0114354D01*
X0296499Y0114294D01*
X0296499Y0108294D01*
X0296497Y0108234D01*
X0296492Y0108173D01*
X0296483Y0108114D01*
X0296470Y0108055D01*
X0296454Y0107996D01*
X0296434Y0107939D01*
X0296411Y0107884D01*
X0296384Y0107829D01*
X0296355Y0107777D01*
X0296322Y0107726D01*
X0296286Y0107677D01*
X0296248Y0107631D01*
X0296206Y0107587D01*
X0296162Y0107545D01*
X0296116Y0107507D01*
X0296067Y0107471D01*
X0296016Y0107438D01*
X0295964Y0107409D01*
X0295909Y0107382D01*
X0295854Y0107359D01*
X0295797Y0107339D01*
X0295738Y0107323D01*
X0295679Y0107310D01*
X0295620Y0107301D01*
X0295559Y0107296D01*
X0295499Y0107294D01*
X0295499Y0107169D02*
X0295559Y0107167D01*
X0295620Y0107162D01*
X0295679Y0107153D01*
X0295738Y0107140D01*
X0295797Y0107124D01*
X0295854Y0107104D01*
X0295909Y0107081D01*
X0295964Y0107054D01*
X0296016Y0107025D01*
X0296067Y0106992D01*
X0296116Y0106956D01*
X0296162Y0106918D01*
X0296206Y0106876D01*
X0296248Y0106832D01*
X0296286Y0106786D01*
X0296322Y0106737D01*
X0296355Y0106686D01*
X0296384Y0106634D01*
X0296411Y0106579D01*
X0296434Y0106524D01*
X0296454Y0106467D01*
X0296470Y0106408D01*
X0296483Y0106349D01*
X0296492Y0106290D01*
X0296497Y0106229D01*
X0296499Y0106169D01*
X0296499Y0100169D01*
X0296497Y0100109D01*
X0296492Y0100048D01*
X0296483Y0099989D01*
X0296470Y0099930D01*
X0296454Y0099871D01*
X0296434Y0099814D01*
X0296411Y0099759D01*
X0296384Y0099704D01*
X0296355Y0099652D01*
X0296322Y0099601D01*
X0296286Y0099552D01*
X0296248Y0099506D01*
X0296206Y0099462D01*
X0296162Y0099420D01*
X0296116Y0099382D01*
X0296067Y0099346D01*
X0296016Y0099313D01*
X0295964Y0099284D01*
X0295909Y0099257D01*
X0295854Y0099234D01*
X0295797Y0099214D01*
X0295738Y0099198D01*
X0295679Y0099185D01*
X0295620Y0099176D01*
X0295559Y0099171D01*
X0295499Y0099169D01*
X0284499Y0099169D01*
X0284439Y0099171D01*
X0284378Y0099176D01*
X0284319Y0099185D01*
X0284260Y0099198D01*
X0284201Y0099214D01*
X0284144Y0099234D01*
X0284089Y0099257D01*
X0284034Y0099284D01*
X0283982Y0099313D01*
X0283931Y0099346D01*
X0283882Y0099382D01*
X0283836Y0099420D01*
X0283792Y0099462D01*
X0283750Y0099506D01*
X0283712Y0099552D01*
X0283676Y0099601D01*
X0283643Y0099652D01*
X0283614Y0099704D01*
X0283587Y0099759D01*
X0283564Y0099814D01*
X0283544Y0099871D01*
X0283528Y0099930D01*
X0283515Y0099989D01*
X0283506Y0100048D01*
X0283501Y0100109D01*
X0283499Y0100169D01*
X0149886Y0141944D02*
X0142108Y0134166D01*
X0142064Y0134124D01*
X0142018Y0134086D01*
X0141969Y0134050D01*
X0141918Y0134017D01*
X0141866Y0133988D01*
X0141811Y0133961D01*
X0141756Y0133938D01*
X0141699Y0133918D01*
X0141640Y0133902D01*
X0141581Y0133889D01*
X0141522Y0133880D01*
X0141461Y0133875D01*
X0141401Y0133873D01*
X0141341Y0133875D01*
X0141280Y0133880D01*
X0141221Y0133889D01*
X0141162Y0133902D01*
X0141103Y0133918D01*
X0141046Y0133938D01*
X0140991Y0133961D01*
X0140936Y0133988D01*
X0140884Y0134017D01*
X0140833Y0134050D01*
X0140784Y0134086D01*
X0140738Y0134124D01*
X0140694Y0134166D01*
X0136451Y0138408D01*
X0136409Y0138452D01*
X0136371Y0138498D01*
X0136335Y0138547D01*
X0136302Y0138598D01*
X0136273Y0138650D01*
X0136246Y0138705D01*
X0136223Y0138760D01*
X0136203Y0138817D01*
X0136187Y0138876D01*
X0136174Y0138935D01*
X0136165Y0138994D01*
X0136160Y0139055D01*
X0136158Y0139115D01*
X0136160Y0139175D01*
X0136165Y0139236D01*
X0136174Y0139295D01*
X0136187Y0139354D01*
X0136203Y0139413D01*
X0136223Y0139470D01*
X0136246Y0139525D01*
X0136273Y0139580D01*
X0136302Y0139632D01*
X0136335Y0139683D01*
X0136371Y0139732D01*
X0136409Y0139778D01*
X0136451Y0139822D01*
X0144229Y0147601D01*
X0144141Y0147689D02*
X0136363Y0139911D01*
X0136362Y0139911D02*
X0136318Y0139869D01*
X0136272Y0139831D01*
X0136223Y0139795D01*
X0136172Y0139762D01*
X0136120Y0139733D01*
X0136065Y0139706D01*
X0136010Y0139683D01*
X0135953Y0139663D01*
X0135894Y0139647D01*
X0135835Y0139634D01*
X0135776Y0139625D01*
X0135715Y0139620D01*
X0135655Y0139618D01*
X0135595Y0139620D01*
X0135534Y0139625D01*
X0135475Y0139634D01*
X0135416Y0139647D01*
X0135357Y0139663D01*
X0135300Y0139683D01*
X0135245Y0139706D01*
X0135190Y0139733D01*
X0135138Y0139762D01*
X0135087Y0139795D01*
X0135038Y0139831D01*
X0134992Y0139869D01*
X0134948Y0139911D01*
X0130706Y0144153D01*
X0130706Y0144154D02*
X0130664Y0144198D01*
X0130626Y0144244D01*
X0130590Y0144293D01*
X0130557Y0144344D01*
X0130528Y0144396D01*
X0130501Y0144451D01*
X0130478Y0144506D01*
X0130458Y0144563D01*
X0130442Y0144622D01*
X0130429Y0144681D01*
X0130420Y0144740D01*
X0130415Y0144801D01*
X0130413Y0144861D01*
X0130415Y0144921D01*
X0130420Y0144982D01*
X0130429Y0145041D01*
X0130442Y0145100D01*
X0130458Y0145159D01*
X0130478Y0145216D01*
X0130501Y0145271D01*
X0130528Y0145326D01*
X0130557Y0145378D01*
X0130590Y0145429D01*
X0130626Y0145478D01*
X0130664Y0145524D01*
X0130706Y0145568D01*
X0138484Y0153346D01*
X0138528Y0153388D01*
X0138574Y0153426D01*
X0138623Y0153462D01*
X0138674Y0153495D01*
X0138726Y0153524D01*
X0138781Y0153551D01*
X0138836Y0153574D01*
X0138893Y0153594D01*
X0138952Y0153610D01*
X0139011Y0153623D01*
X0139070Y0153632D01*
X0139131Y0153637D01*
X0139191Y0153639D01*
X0139251Y0153637D01*
X0139312Y0153632D01*
X0139371Y0153623D01*
X0139430Y0153610D01*
X0139489Y0153594D01*
X0139546Y0153574D01*
X0139601Y0153551D01*
X0139656Y0153524D01*
X0139708Y0153495D01*
X0139759Y0153462D01*
X0139808Y0153426D01*
X0139854Y0153388D01*
X0139898Y0153346D01*
X0144141Y0149103D01*
X0144183Y0149059D01*
X0144221Y0149013D01*
X0144257Y0148964D01*
X0144290Y0148913D01*
X0144319Y0148861D01*
X0144346Y0148806D01*
X0144369Y0148751D01*
X0144389Y0148694D01*
X0144405Y0148635D01*
X0144418Y0148576D01*
X0144427Y0148517D01*
X0144432Y0148456D01*
X0144434Y0148396D01*
X0144432Y0148336D01*
X0144427Y0148275D01*
X0144418Y0148216D01*
X0144405Y0148157D01*
X0144389Y0148098D01*
X0144369Y0148041D01*
X0144346Y0147986D01*
X0144319Y0147931D01*
X0144290Y0147879D01*
X0144257Y0147828D01*
X0144221Y0147779D01*
X0144183Y0147733D01*
X0144141Y0147689D01*
X0144229Y0147600D02*
X0144273Y0147642D01*
X0144319Y0147680D01*
X0144368Y0147716D01*
X0144419Y0147749D01*
X0144471Y0147778D01*
X0144526Y0147805D01*
X0144581Y0147828D01*
X0144638Y0147848D01*
X0144697Y0147864D01*
X0144756Y0147877D01*
X0144815Y0147886D01*
X0144876Y0147891D01*
X0144936Y0147893D01*
X0144996Y0147891D01*
X0145057Y0147886D01*
X0145116Y0147877D01*
X0145175Y0147864D01*
X0145234Y0147848D01*
X0145291Y0147828D01*
X0145346Y0147805D01*
X0145401Y0147778D01*
X0145453Y0147749D01*
X0145504Y0147716D01*
X0145553Y0147680D01*
X0145599Y0147642D01*
X0145643Y0147600D01*
X0145643Y0147601D02*
X0149886Y0143358D01*
X0149928Y0143314D01*
X0149966Y0143268D01*
X0150002Y0143219D01*
X0150035Y0143168D01*
X0150064Y0143116D01*
X0150091Y0143061D01*
X0150114Y0143006D01*
X0150134Y0142949D01*
X0150150Y0142890D01*
X0150163Y0142831D01*
X0150172Y0142772D01*
X0150177Y0142711D01*
X0150179Y0142651D01*
X0150177Y0142591D01*
X0150172Y0142530D01*
X0150163Y0142471D01*
X0150150Y0142412D01*
X0150134Y0142353D01*
X0150114Y0142296D01*
X0150091Y0142241D01*
X0150064Y0142186D01*
X0150035Y0142134D01*
X0150002Y0142083D01*
X0149966Y0142034D01*
X0149928Y0141988D01*
X0149886Y0141944D01*
X0147499Y0190669D02*
X0144999Y0193169D01*
X0144999Y0198169D01*
X0147499Y0200669D01*
X0152499Y0200669D01*
X0154999Y0198169D01*
X0157499Y0200669D01*
X0162499Y0200669D01*
X0164999Y0198169D01*
X0167499Y0200669D01*
X0172499Y0200669D01*
X0174999Y0198169D01*
X0177499Y0200669D01*
X0182499Y0200669D01*
X0184999Y0198169D01*
X0187499Y0200669D01*
X0192499Y0200669D01*
X0194999Y0198169D01*
X0197499Y0200669D01*
X0202499Y0200669D01*
X0204999Y0198169D01*
X0204999Y0193169D01*
X0202499Y0190669D01*
X0197499Y0190669D01*
X0194999Y0193169D01*
X0192499Y0190669D01*
X0187499Y0190669D01*
X0184999Y0193169D01*
X0182499Y0190669D01*
X0177499Y0190669D01*
X0174999Y0193169D01*
X0172499Y0190669D01*
X0167499Y0190669D01*
X0164999Y0193169D01*
X0162499Y0190669D01*
X0157499Y0190669D01*
X0154999Y0193169D01*
X0152499Y0190669D01*
X0147499Y0190669D01*
M02*
