G04 EAGLE Gerber RS-274X export*
G75*
%MOMM*%
%FSLAX34Y34*%
%LPD*%
%INSoldermask Bottom*%
%IPPOS*%
%AMOC8*
5,1,8,0,0,1.08239X$1,22.5*%
G01*
%ADD10P,1.365110X8X202.500000*%
%ADD11C,1.211200*%
%ADD12C,1.311200*%
%ADD13C,1.503200*%
%ADD14C,1.473200*%
%ADD15C,1.303200*%
%ADD16C,1.727200*%
%ADD17C,1.727200*%
%ADD18P,1.869504X8X292.500000*%
%ADD19C,0.959600*%


D10*
X399650Y447663D03*
X349650Y447663D03*
D11*
X409650Y469623D02*
X409650Y479703D01*
X339650Y479703D02*
X339650Y469623D01*
D12*
X519450Y429934D02*
X519450Y418854D01*
X433050Y418854D02*
X433050Y429934D01*
D13*
X519450Y471494D02*
X519450Y484494D01*
X433050Y484494D02*
X433050Y471494D01*
D14*
X703263Y332581D03*
X688975Y332581D03*
X674688Y332581D03*
X660400Y332581D03*
X646113Y332581D03*
X631825Y332581D03*
X703263Y161925D03*
X717550Y161925D03*
X688975Y161925D03*
X674688Y161925D03*
X746125Y204788D03*
X746125Y290513D03*
X746125Y233363D03*
X577850Y299244D03*
X746125Y247650D03*
X746125Y261938D03*
X746125Y276225D03*
X603250Y161925D03*
X746125Y219075D03*
X746125Y304800D03*
X577850Y227806D03*
X577850Y213519D03*
X577850Y199231D03*
X577850Y184944D03*
X731838Y161925D03*
X746125Y319088D03*
X646113Y161925D03*
X660400Y161925D03*
X577850Y284956D03*
X577850Y270669D03*
X577850Y242094D03*
X631825Y161925D03*
X617538Y161131D03*
X577850Y256381D03*
X617538Y332581D03*
D15*
X57200Y456763D03*
X95200Y456763D03*
X768400Y456763D03*
X806400Y456763D03*
D16*
X292100Y449580D02*
X292100Y464820D01*
X266700Y464820D02*
X266700Y449580D01*
X241300Y449580D02*
X241300Y464820D01*
X215900Y464820D02*
X215900Y449580D01*
X190500Y449580D02*
X190500Y464820D01*
X685800Y464820D02*
X685800Y449580D01*
X660400Y449580D02*
X660400Y464820D01*
X635000Y464820D02*
X635000Y449580D01*
X609600Y449580D02*
X609600Y464820D01*
X584200Y464820D02*
X584200Y449580D01*
X292100Y45720D02*
X292100Y30480D01*
X266700Y30480D02*
X266700Y45720D01*
X241300Y45720D02*
X241300Y30480D01*
X215900Y30480D02*
X215900Y45720D01*
X190500Y45720D02*
X190500Y30480D01*
X685800Y30480D02*
X685800Y45720D01*
X660400Y45720D02*
X660400Y30480D01*
X635000Y30480D02*
X635000Y45720D01*
X609600Y45720D02*
X609600Y30480D01*
X584200Y30480D02*
X584200Y45720D01*
D17*
X444500Y196850D03*
D18*
X444500Y171450D03*
X444500Y146050D03*
X419100Y196850D03*
X419100Y171450D03*
X419100Y146050D03*
D19*
X589756Y284002D03*
X589756Y238562D03*
X402716Y423353D03*
X490517Y398442D03*
X668338Y247650D03*
X676275Y247650D03*
X652463Y247650D03*
X644525Y247650D03*
X660400Y255588D03*
X668338Y255588D03*
X676275Y255588D03*
X652463Y255588D03*
X644525Y255588D03*
X644525Y239713D03*
X652463Y239713D03*
X660400Y239713D03*
X668338Y239713D03*
X676275Y239713D03*
X676275Y231775D03*
X668338Y231775D03*
X660400Y231775D03*
X652463Y231775D03*
X644525Y231775D03*
X644525Y263525D03*
X652463Y263525D03*
X660400Y263525D03*
X668338Y263525D03*
X676275Y263525D03*
X589756Y256738D03*
X696752Y318294D03*
X624048Y318294D03*
X731044Y202210D03*
X642144Y177006D03*
X497681Y161131D03*
X622300Y209550D03*
X616744Y203994D03*
X660400Y247650D03*
X505619Y161131D03*
X513556Y161131D03*
X731044Y293090D03*
X651312Y177006D03*
X660400Y177006D03*
X589756Y274914D03*
X589756Y265826D03*
X589756Y247650D03*
X633136Y318294D03*
X705840Y318294D03*
X614960Y318294D03*
X731044Y211298D03*
X633056Y177006D03*
X444500Y99219D03*
X565159Y317687D03*
X450056Y290918D03*
X591344Y143669D03*
X623968Y177006D03*
X705840Y177006D03*
X590550Y202210D03*
X590324Y211298D03*
X590326Y220386D03*
X589756Y229474D03*
X731044Y284002D03*
X731044Y229474D03*
X744538Y412750D03*
X769144Y388144D03*
X614880Y177006D03*
X731044Y265826D03*
X731044Y256738D03*
X355600Y401638D03*
X718344Y385763D03*
X742874Y361080D03*
X731044Y247650D03*
X355600Y414338D03*
X726999Y394418D03*
X751681Y369888D03*
X589756Y293090D03*
X731044Y238562D03*
X355600Y427038D03*
X735806Y403225D03*
X760413Y378619D03*
X731044Y274914D03*
X731044Y220386D03*
X753269Y421481D03*
X777875Y396875D03*
X669488Y177006D03*
X554038Y119063D03*
X678576Y177006D03*
X554038Y106800D03*
X696752Y177006D03*
X687664Y177006D03*
X642224Y318294D03*
X355600Y364412D03*
X651312Y318294D03*
X355600Y376675D03*
X660400Y318294D03*
X355600Y388938D03*
X669488Y318294D03*
X764381Y427831D03*
X678576Y318294D03*
X777081Y427831D03*
X687664Y318294D03*
X817563Y427831D03*
X458788Y280913D03*
X554038Y92869D03*
X546894Y194469D03*
X471349Y411301D03*
X481131Y442385D03*
X514350Y340519D03*
X481013Y411163D03*
X471250Y442894D03*
X507206Y350838D03*
M02*
