G04 EAGLE Gerber RS-274X export*
G75*
%MOMM*%
%FSLAX34Y34*%
%LPD*%
%INSoldermask Top*%
%IPPOS*%
%AMOC8*
5,1,8,0,0,1.08239X$1,22.5*%
G01*
%ADD10R,1.676400X0.711200*%
%ADD11R,0.711200X1.676400*%
%ADD12C,0.686816*%
%ADD13C,0.276759*%
%ADD14R,0.953200X0.603200*%
%ADD15R,1.203200X2.003200*%
%ADD16R,1.033200X0.833200*%
%ADD17R,0.838200X1.473200*%
%ADD18R,1.503200X1.303200*%
%ADD19R,1.203200X1.303200*%
%ADD20R,0.603200X1.553200*%
%ADD21P,1.365110X8X202.500000*%
%ADD22C,1.211200*%
%ADD23R,1.703200X1.753200*%
%ADD24R,0.503200X0.903200*%
%ADD25R,1.203200X0.903200*%
%ADD26C,1.311200*%
%ADD27C,1.503200*%
%ADD28R,1.403200X2.203200*%
%ADD29R,1.303200X1.203200*%
%ADD30R,1.003200X1.003200*%
%ADD31R,1.203200X1.503200*%
%ADD32R,1.103200X2.203200*%
%ADD33C,1.303200*%
%ADD34R,1.403200X1.003200*%
%ADD35C,1.727200*%
%ADD36R,1.803200X1.203200*%
%ADD37C,1.727200*%
%ADD38P,1.869504X8X292.500000*%
%ADD39R,1.603200X1.203200*%
%ADD40R,1.503200X1.703200*%
%ADD41C,0.959600*%

G36*
X410650Y465908D02*
X410650Y465908D01*
X410651Y465908D01*
X411763Y466033D01*
X411764Y466034D01*
X411764Y466033D01*
X412821Y466403D01*
X412821Y466404D01*
X412822Y466404D01*
X413770Y466999D01*
X413770Y467000D01*
X413771Y467000D01*
X414563Y467792D01*
X414563Y467793D01*
X415159Y468741D01*
X415159Y468742D01*
X415529Y469798D01*
X415529Y469799D01*
X415530Y469802D01*
X415530Y469807D01*
X415531Y469812D01*
X415531Y469816D01*
X415533Y469831D01*
X415533Y469835D01*
X415534Y469840D01*
X415534Y469845D01*
X415535Y469845D01*
X415534Y469845D01*
X415535Y469850D01*
X415536Y469854D01*
X415537Y469869D01*
X415538Y469873D01*
X415538Y469878D01*
X415539Y469883D01*
X415539Y469888D01*
X415540Y469892D01*
X415541Y469907D01*
X415542Y469911D01*
X415543Y469916D01*
X415543Y469921D01*
X415544Y469926D01*
X415544Y469930D01*
X415546Y469945D01*
X415546Y469949D01*
X415547Y469954D01*
X415547Y469959D01*
X415548Y469964D01*
X415549Y469978D01*
X415550Y469978D01*
X415549Y469978D01*
X415550Y469983D01*
X415551Y469987D01*
X415551Y469992D01*
X415552Y469997D01*
X415552Y470002D01*
X415554Y470016D01*
X415554Y470021D01*
X415555Y470025D01*
X415555Y470030D01*
X415556Y470035D01*
X415556Y470040D01*
X415558Y470054D01*
X415559Y470059D01*
X415559Y470063D01*
X415560Y470068D01*
X415560Y470073D01*
X415561Y470078D01*
X415562Y470092D01*
X415563Y470097D01*
X415563Y470101D01*
X415564Y470106D01*
X415564Y470111D01*
X415567Y470130D01*
X415567Y470135D01*
X415568Y470139D01*
X415568Y470144D01*
X415569Y470149D01*
X415570Y470163D01*
X415571Y470168D01*
X415571Y470173D01*
X415572Y470177D01*
X415572Y470182D01*
X415573Y470182D01*
X415572Y470182D01*
X415573Y470187D01*
X415575Y470201D01*
X415575Y470206D01*
X415576Y470211D01*
X415576Y470215D01*
X415577Y470220D01*
X415577Y470225D01*
X415579Y470239D01*
X415579Y470244D01*
X415580Y470249D01*
X415581Y470253D01*
X415581Y470258D01*
X415582Y470263D01*
X415583Y470277D01*
X415584Y470282D01*
X415584Y470287D01*
X415585Y470291D01*
X415585Y470296D01*
X415587Y470315D01*
X415588Y470315D01*
X415587Y470315D01*
X415588Y470320D01*
X415589Y470325D01*
X415589Y470329D01*
X415590Y470334D01*
X415591Y470348D01*
X415592Y470353D01*
X415592Y470358D01*
X415593Y470363D01*
X415593Y470367D01*
X415594Y470372D01*
X415596Y470386D01*
X415596Y470391D01*
X415597Y470396D01*
X415597Y470401D01*
X415598Y470405D01*
X415598Y470410D01*
X415600Y470424D01*
X415600Y470429D01*
X415601Y470434D01*
X415601Y470439D01*
X415602Y470443D01*
X415602Y470448D01*
X415604Y470462D01*
X415605Y470467D01*
X415605Y470472D01*
X415606Y470477D01*
X415606Y470481D01*
X415608Y470496D01*
X415608Y470500D01*
X415609Y470505D01*
X415609Y470510D01*
X415610Y470515D01*
X415610Y470519D01*
X415611Y470519D01*
X415610Y470519D01*
X415612Y470534D01*
X415613Y470538D01*
X415613Y470543D01*
X415614Y470548D01*
X415614Y470553D01*
X415615Y470557D01*
X415616Y470572D01*
X415617Y470576D01*
X415617Y470581D01*
X415618Y470586D01*
X415619Y470591D01*
X415619Y470595D01*
X415621Y470610D01*
X415621Y470614D01*
X415622Y470619D01*
X415622Y470624D01*
X415623Y470629D01*
X415625Y470648D01*
X415625Y470652D01*
X415626Y470652D01*
X415625Y470652D01*
X415626Y470657D01*
X415627Y470662D01*
X415627Y470667D01*
X415629Y470681D01*
X415629Y470686D01*
X415630Y470690D01*
X415630Y470695D01*
X415631Y470700D01*
X415631Y470705D01*
X415633Y470719D01*
X415634Y470724D01*
X415634Y470728D01*
X415635Y470733D01*
X415635Y470738D01*
X415636Y470743D01*
X415637Y470757D01*
X415638Y470762D01*
X415638Y470766D01*
X415639Y470771D01*
X415639Y470776D01*
X415640Y470781D01*
X415642Y470795D01*
X415642Y470800D01*
X415643Y470804D01*
X415643Y470809D01*
X415644Y470814D01*
X415646Y470833D01*
X415646Y470838D01*
X415647Y470842D01*
X415647Y470847D01*
X415648Y470852D01*
X415650Y470866D01*
X415650Y470871D01*
X415651Y470876D01*
X415651Y470880D01*
X415652Y470885D01*
X415652Y470890D01*
X415654Y470904D01*
X415654Y470909D01*
X415655Y470912D01*
X415655Y470913D01*
X415655Y478413D01*
X415529Y479526D01*
X415529Y479527D01*
X415159Y480583D01*
X415159Y480584D01*
X414563Y481532D01*
X414562Y481533D01*
X414563Y481533D01*
X413771Y482325D01*
X413770Y482325D01*
X413770Y482326D01*
X412822Y482921D01*
X412821Y482921D01*
X412821Y482922D01*
X411764Y483292D01*
X411764Y483291D01*
X411763Y483292D01*
X410651Y483417D01*
X410650Y483417D01*
X396650Y483417D01*
X396645Y483413D01*
X396646Y483413D01*
X396645Y483413D01*
X396645Y465913D01*
X396649Y465908D01*
X396650Y465908D01*
X410650Y465908D01*
X410650Y465908D01*
G37*
G36*
X352655Y465912D02*
X352655Y465912D01*
X352654Y465912D01*
X352655Y465913D01*
X352655Y483413D01*
X352651Y483417D01*
X352650Y483417D01*
X338650Y483417D01*
X338649Y483417D01*
X337537Y483292D01*
X337536Y483291D01*
X337536Y483292D01*
X336479Y482922D01*
X336479Y482921D01*
X336478Y482921D01*
X335530Y482326D01*
X335530Y482325D01*
X335529Y482325D01*
X334738Y481533D01*
X334737Y481533D01*
X334737Y481532D01*
X334141Y480584D01*
X334141Y480583D01*
X333771Y479527D01*
X333771Y479526D01*
X333769Y479512D01*
X333769Y479508D01*
X333768Y479503D01*
X333768Y479498D01*
X333767Y479493D01*
X333765Y479479D01*
X333765Y479474D01*
X333764Y479470D01*
X333764Y479465D01*
X333763Y479460D01*
X333763Y479455D01*
X333761Y479441D01*
X333761Y479436D01*
X333760Y479432D01*
X333760Y479427D01*
X333759Y479422D01*
X333758Y479417D01*
X333757Y479403D01*
X333756Y479398D01*
X333756Y479394D01*
X333755Y479389D01*
X333755Y479384D01*
X333754Y479379D01*
X333753Y479365D01*
X333752Y479360D01*
X333752Y479356D01*
X333751Y479356D01*
X333752Y479356D01*
X333751Y479351D01*
X333750Y479346D01*
X333748Y479327D01*
X333748Y479322D01*
X333747Y479318D01*
X333747Y479313D01*
X333746Y479308D01*
X333745Y479294D01*
X333744Y479289D01*
X333743Y479284D01*
X333743Y479280D01*
X333742Y479275D01*
X333742Y479270D01*
X333740Y479256D01*
X333740Y479251D01*
X333739Y479246D01*
X333739Y479242D01*
X333738Y479237D01*
X333738Y479232D01*
X333736Y479218D01*
X333735Y479213D01*
X333735Y479208D01*
X333734Y479204D01*
X333734Y479199D01*
X333733Y479194D01*
X333732Y479180D01*
X333731Y479175D01*
X333731Y479170D01*
X333730Y479166D01*
X333730Y479161D01*
X333728Y479147D01*
X333727Y479142D01*
X333727Y479137D01*
X333726Y479132D01*
X333726Y479128D01*
X333725Y479123D01*
X333724Y479109D01*
X333723Y479104D01*
X333723Y479099D01*
X333722Y479094D01*
X333722Y479090D01*
X333721Y479085D01*
X333719Y479071D01*
X333719Y479066D01*
X333718Y479061D01*
X333718Y479056D01*
X333717Y479052D01*
X333717Y479047D01*
X333715Y479033D01*
X333715Y479028D01*
X333714Y479023D01*
X333714Y479018D01*
X333713Y479018D01*
X333714Y479018D01*
X333713Y479014D01*
X333711Y478995D01*
X333710Y478990D01*
X333710Y478985D01*
X333709Y478980D01*
X333709Y478976D01*
X333707Y478961D01*
X333707Y478957D01*
X333706Y478952D01*
X333705Y478947D01*
X333705Y478942D01*
X333704Y478938D01*
X333703Y478923D01*
X333702Y478919D01*
X333702Y478914D01*
X333701Y478909D01*
X333701Y478904D01*
X333700Y478900D01*
X333699Y478885D01*
X333698Y478885D01*
X333699Y478885D01*
X333698Y478881D01*
X333697Y478876D01*
X333697Y478871D01*
X333696Y478866D01*
X333696Y478862D01*
X333694Y478847D01*
X333694Y478843D01*
X333693Y478838D01*
X333693Y478833D01*
X333692Y478828D01*
X333690Y478809D01*
X333689Y478805D01*
X333689Y478800D01*
X333688Y478795D01*
X333688Y478790D01*
X333686Y478776D01*
X333686Y478771D01*
X333685Y478767D01*
X333685Y478762D01*
X333684Y478757D01*
X333684Y478752D01*
X333682Y478738D01*
X333681Y478733D01*
X333681Y478729D01*
X333680Y478724D01*
X333680Y478719D01*
X333679Y478714D01*
X333678Y478700D01*
X333677Y478695D01*
X333677Y478691D01*
X333676Y478686D01*
X333676Y478681D01*
X333675Y478681D01*
X333676Y478681D01*
X333675Y478676D01*
X333673Y478662D01*
X333673Y478657D01*
X333672Y478653D01*
X333672Y478648D01*
X333671Y478643D01*
X333670Y478629D01*
X333669Y478624D01*
X333669Y478619D01*
X333668Y478615D01*
X333667Y478610D01*
X333667Y478605D01*
X333665Y478591D01*
X333665Y478586D01*
X333664Y478581D01*
X333664Y478577D01*
X333663Y478572D01*
X333663Y478567D01*
X333661Y478553D01*
X333661Y478548D01*
X333660Y478548D01*
X333661Y478548D01*
X333660Y478543D01*
X333659Y478539D01*
X333659Y478534D01*
X333658Y478529D01*
X333657Y478515D01*
X333656Y478510D01*
X333656Y478505D01*
X333655Y478501D01*
X333655Y478496D01*
X333652Y478477D01*
X333652Y478472D01*
X333651Y478467D01*
X333651Y478463D01*
X333650Y478458D01*
X333649Y478444D01*
X333648Y478439D01*
X333648Y478434D01*
X333647Y478429D01*
X333647Y478425D01*
X333646Y478420D01*
X333645Y478413D01*
X333646Y478413D01*
X333645Y478413D01*
X333645Y470913D01*
X333646Y470912D01*
X333645Y470912D01*
X333771Y469799D01*
X333771Y469798D01*
X334141Y468742D01*
X334141Y468741D01*
X334737Y467793D01*
X334738Y467792D01*
X335529Y467000D01*
X335530Y467000D01*
X335530Y466999D01*
X336478Y466404D01*
X336479Y466404D01*
X336479Y466403D01*
X337536Y466033D01*
X337537Y466034D01*
X337537Y466033D01*
X338649Y465908D01*
X338650Y465908D01*
X352650Y465908D01*
X352655Y465912D01*
G37*
D10*
X602996Y287528D03*
X602996Y279654D03*
X602996Y271526D03*
X602996Y263652D03*
X602996Y255524D03*
X602996Y247650D03*
X602996Y239776D03*
X602996Y231648D03*
X602996Y223774D03*
X602996Y215646D03*
X602996Y207772D03*
D11*
X620522Y190246D03*
X628396Y190246D03*
X636524Y190246D03*
X644398Y190246D03*
X652526Y190246D03*
X660400Y190246D03*
X668274Y190246D03*
X676402Y190246D03*
X684276Y190246D03*
X692404Y190246D03*
X700278Y190246D03*
D10*
X717804Y207772D03*
X717804Y215646D03*
X717804Y223774D03*
X717804Y231648D03*
X717804Y239776D03*
X717804Y247650D03*
X717804Y255524D03*
X717804Y263652D03*
X717804Y271526D03*
X717804Y279654D03*
X717804Y287528D03*
D11*
X700278Y305054D03*
X692404Y305054D03*
X684276Y305054D03*
X676402Y305054D03*
X668274Y305054D03*
X660400Y305054D03*
X652526Y305054D03*
X644398Y305054D03*
X636524Y305054D03*
X628396Y305054D03*
X620522Y305054D03*
D12*
X637418Y224668D02*
X683382Y224668D01*
X637418Y224668D02*
X637418Y270632D01*
X683382Y270632D01*
X683382Y224668D01*
X683382Y231193D02*
X637418Y231193D01*
X637418Y237718D02*
X683382Y237718D01*
X683382Y244243D02*
X637418Y244243D01*
X637418Y250768D02*
X683382Y250768D01*
X683382Y257293D02*
X637418Y257293D01*
X637418Y263818D02*
X683382Y263818D01*
X683382Y270343D02*
X637418Y270343D01*
D13*
X631532Y273782D02*
X622268Y273782D01*
X631532Y273782D02*
X631532Y271518D01*
X622268Y271518D01*
X622268Y273782D01*
X622268Y268782D02*
X631532Y268782D01*
X631532Y266518D01*
X622268Y266518D01*
X622268Y268782D01*
X622268Y263782D02*
X631532Y263782D01*
X631532Y261518D01*
X622268Y261518D01*
X622268Y263782D01*
X622268Y258782D02*
X631532Y258782D01*
X631532Y256518D01*
X622268Y256518D01*
X622268Y258782D01*
X622268Y253782D02*
X631532Y253782D01*
X631532Y251518D01*
X622268Y251518D01*
X622268Y253782D01*
X622268Y248782D02*
X631532Y248782D01*
X631532Y246518D01*
X622268Y246518D01*
X622268Y248782D01*
X622268Y243782D02*
X631532Y243782D01*
X631532Y241518D01*
X622268Y241518D01*
X622268Y243782D01*
X622268Y238782D02*
X631532Y238782D01*
X631532Y236518D01*
X622268Y236518D01*
X622268Y238782D01*
X622268Y233782D02*
X631532Y233782D01*
X631532Y231518D01*
X622268Y231518D01*
X622268Y233782D01*
X622268Y228782D02*
X631532Y228782D01*
X631532Y226518D01*
X622268Y226518D01*
X622268Y228782D01*
X622268Y223782D02*
X631532Y223782D01*
X631532Y221518D01*
X622268Y221518D01*
X622268Y223782D01*
X634268Y218782D02*
X634268Y209518D01*
X634268Y218782D02*
X636532Y218782D01*
X636532Y209518D01*
X634268Y209518D01*
X634268Y212148D02*
X636532Y212148D01*
X636532Y214778D02*
X634268Y214778D01*
X634268Y217408D02*
X636532Y217408D01*
X639268Y218782D02*
X639268Y209518D01*
X639268Y218782D02*
X641532Y218782D01*
X641532Y209518D01*
X639268Y209518D01*
X639268Y212148D02*
X641532Y212148D01*
X641532Y214778D02*
X639268Y214778D01*
X639268Y217408D02*
X641532Y217408D01*
X644268Y218782D02*
X644268Y209518D01*
X644268Y218782D02*
X646532Y218782D01*
X646532Y209518D01*
X644268Y209518D01*
X644268Y212148D02*
X646532Y212148D01*
X646532Y214778D02*
X644268Y214778D01*
X644268Y217408D02*
X646532Y217408D01*
X649268Y218782D02*
X649268Y209518D01*
X649268Y218782D02*
X651532Y218782D01*
X651532Y209518D01*
X649268Y209518D01*
X649268Y212148D02*
X651532Y212148D01*
X651532Y214778D02*
X649268Y214778D01*
X649268Y217408D02*
X651532Y217408D01*
X654268Y218782D02*
X654268Y209518D01*
X654268Y218782D02*
X656532Y218782D01*
X656532Y209518D01*
X654268Y209518D01*
X654268Y212148D02*
X656532Y212148D01*
X656532Y214778D02*
X654268Y214778D01*
X654268Y217408D02*
X656532Y217408D01*
X659268Y218782D02*
X659268Y209518D01*
X659268Y218782D02*
X661532Y218782D01*
X661532Y209518D01*
X659268Y209518D01*
X659268Y212148D02*
X661532Y212148D01*
X661532Y214778D02*
X659268Y214778D01*
X659268Y217408D02*
X661532Y217408D01*
X664268Y218782D02*
X664268Y209518D01*
X664268Y218782D02*
X666532Y218782D01*
X666532Y209518D01*
X664268Y209518D01*
X664268Y212148D02*
X666532Y212148D01*
X666532Y214778D02*
X664268Y214778D01*
X664268Y217408D02*
X666532Y217408D01*
X669268Y218782D02*
X669268Y209518D01*
X669268Y218782D02*
X671532Y218782D01*
X671532Y209518D01*
X669268Y209518D01*
X669268Y212148D02*
X671532Y212148D01*
X671532Y214778D02*
X669268Y214778D01*
X669268Y217408D02*
X671532Y217408D01*
X674268Y218782D02*
X674268Y209518D01*
X674268Y218782D02*
X676532Y218782D01*
X676532Y209518D01*
X674268Y209518D01*
X674268Y212148D02*
X676532Y212148D01*
X676532Y214778D02*
X674268Y214778D01*
X674268Y217408D02*
X676532Y217408D01*
X679268Y218782D02*
X679268Y209518D01*
X679268Y218782D02*
X681532Y218782D01*
X681532Y209518D01*
X679268Y209518D01*
X679268Y212148D02*
X681532Y212148D01*
X681532Y214778D02*
X679268Y214778D01*
X679268Y217408D02*
X681532Y217408D01*
X684268Y218782D02*
X684268Y209518D01*
X684268Y218782D02*
X686532Y218782D01*
X686532Y209518D01*
X684268Y209518D01*
X684268Y212148D02*
X686532Y212148D01*
X686532Y214778D02*
X684268Y214778D01*
X684268Y217408D02*
X686532Y217408D01*
X689268Y221518D02*
X698532Y221518D01*
X689268Y221518D02*
X689268Y223782D01*
X698532Y223782D01*
X698532Y221518D01*
X698532Y226518D02*
X689268Y226518D01*
X689268Y228782D01*
X698532Y228782D01*
X698532Y226518D01*
X698532Y231518D02*
X689268Y231518D01*
X689268Y233782D01*
X698532Y233782D01*
X698532Y231518D01*
X698532Y236518D02*
X689268Y236518D01*
X689268Y238782D01*
X698532Y238782D01*
X698532Y236518D01*
X698532Y241518D02*
X689268Y241518D01*
X689268Y243782D01*
X698532Y243782D01*
X698532Y241518D01*
X698532Y246518D02*
X689268Y246518D01*
X689268Y248782D01*
X698532Y248782D01*
X698532Y246518D01*
X698532Y251518D02*
X689268Y251518D01*
X689268Y253782D01*
X698532Y253782D01*
X698532Y251518D01*
X698532Y256518D02*
X689268Y256518D01*
X689268Y258782D01*
X698532Y258782D01*
X698532Y256518D01*
X698532Y261518D02*
X689268Y261518D01*
X689268Y263782D01*
X698532Y263782D01*
X698532Y261518D01*
X698532Y266518D02*
X689268Y266518D01*
X689268Y268782D01*
X698532Y268782D01*
X698532Y266518D01*
X698532Y271518D02*
X689268Y271518D01*
X689268Y273782D01*
X698532Y273782D01*
X698532Y271518D01*
X686532Y276518D02*
X686532Y285782D01*
X686532Y276518D02*
X684268Y276518D01*
X684268Y285782D01*
X686532Y285782D01*
X686532Y279148D02*
X684268Y279148D01*
X684268Y281778D02*
X686532Y281778D01*
X686532Y284408D02*
X684268Y284408D01*
X681532Y285782D02*
X681532Y276518D01*
X679268Y276518D01*
X679268Y285782D01*
X681532Y285782D01*
X681532Y279148D02*
X679268Y279148D01*
X679268Y281778D02*
X681532Y281778D01*
X681532Y284408D02*
X679268Y284408D01*
X676532Y285782D02*
X676532Y276518D01*
X674268Y276518D01*
X674268Y285782D01*
X676532Y285782D01*
X676532Y279148D02*
X674268Y279148D01*
X674268Y281778D02*
X676532Y281778D01*
X676532Y284408D02*
X674268Y284408D01*
X671532Y285782D02*
X671532Y276518D01*
X669268Y276518D01*
X669268Y285782D01*
X671532Y285782D01*
X671532Y279148D02*
X669268Y279148D01*
X669268Y281778D02*
X671532Y281778D01*
X671532Y284408D02*
X669268Y284408D01*
X666532Y285782D02*
X666532Y276518D01*
X664268Y276518D01*
X664268Y285782D01*
X666532Y285782D01*
X666532Y279148D02*
X664268Y279148D01*
X664268Y281778D02*
X666532Y281778D01*
X666532Y284408D02*
X664268Y284408D01*
X661532Y285782D02*
X661532Y276518D01*
X659268Y276518D01*
X659268Y285782D01*
X661532Y285782D01*
X661532Y279148D02*
X659268Y279148D01*
X659268Y281778D02*
X661532Y281778D01*
X661532Y284408D02*
X659268Y284408D01*
X656532Y285782D02*
X656532Y276518D01*
X654268Y276518D01*
X654268Y285782D01*
X656532Y285782D01*
X656532Y279148D02*
X654268Y279148D01*
X654268Y281778D02*
X656532Y281778D01*
X656532Y284408D02*
X654268Y284408D01*
X651532Y285782D02*
X651532Y276518D01*
X649268Y276518D01*
X649268Y285782D01*
X651532Y285782D01*
X651532Y279148D02*
X649268Y279148D01*
X649268Y281778D02*
X651532Y281778D01*
X651532Y284408D02*
X649268Y284408D01*
X646532Y285782D02*
X646532Y276518D01*
X644268Y276518D01*
X644268Y285782D01*
X646532Y285782D01*
X646532Y279148D02*
X644268Y279148D01*
X644268Y281778D02*
X646532Y281778D01*
X646532Y284408D02*
X644268Y284408D01*
X641532Y285782D02*
X641532Y276518D01*
X639268Y276518D01*
X639268Y285782D01*
X641532Y285782D01*
X641532Y279148D02*
X639268Y279148D01*
X639268Y281778D02*
X641532Y281778D01*
X641532Y284408D02*
X639268Y284408D01*
X636532Y285782D02*
X636532Y276518D01*
X634268Y276518D01*
X634268Y285782D01*
X636532Y285782D01*
X636532Y279148D02*
X634268Y279148D01*
X634268Y281778D02*
X636532Y281778D01*
X636532Y284408D02*
X634268Y284408D01*
D14*
X452750Y335606D03*
X452750Y342106D03*
X452750Y348606D03*
X436250Y348606D03*
X436250Y335606D03*
D15*
X490250Y383381D03*
X462250Y383381D03*
D16*
X444500Y358388D03*
X444500Y381388D03*
D17*
X418457Y381794D03*
X410219Y381794D03*
D18*
X648900Y143400D03*
X671900Y143400D03*
X671900Y161400D03*
X648900Y161400D03*
D19*
X629444Y160900D03*
X629444Y143900D03*
X691356Y144694D03*
X691356Y161694D03*
D20*
X387650Y447663D03*
X381150Y447663D03*
X374650Y447663D03*
X368150Y447663D03*
X361650Y447663D03*
D21*
X399650Y447663D03*
X349650Y447663D03*
D22*
X409650Y469623D02*
X409650Y479703D01*
D23*
X384650Y474663D03*
X364650Y474663D03*
D22*
X339650Y469623D02*
X339650Y479703D01*
D24*
X506250Y420294D03*
X501250Y420294D03*
X496250Y420294D03*
X491250Y420294D03*
X486250Y420294D03*
X481250Y420294D03*
X471250Y420294D03*
X466250Y420294D03*
X461250Y420294D03*
X456250Y420294D03*
X451250Y420294D03*
X446250Y420294D03*
D25*
X445250Y433294D03*
D24*
X453750Y433294D03*
X458750Y433294D03*
X463750Y433294D03*
X468750Y433294D03*
X473750Y433294D03*
X478750Y433294D03*
X483750Y433294D03*
X488750Y433294D03*
X493750Y433294D03*
X498750Y433294D03*
D25*
X507250Y433294D03*
D26*
X519450Y429934D02*
X519450Y418854D01*
X433050Y418854D02*
X433050Y429934D01*
D27*
X519450Y471494D02*
X519450Y484494D01*
X433050Y484494D02*
X433050Y471494D01*
D19*
X530456Y288925D03*
X547456Y288925D03*
X530456Y268288D03*
X547456Y268288D03*
D28*
X477044Y356106D03*
X477044Y328106D03*
X414338Y354519D03*
X414338Y326519D03*
D19*
X368300Y349019D03*
X368300Y332019D03*
X388938Y349019D03*
X388938Y332019D03*
D29*
X406400Y58175D03*
X406400Y75175D03*
D30*
X406400Y30600D03*
X406400Y45600D03*
D29*
X608806Y160900D03*
X608806Y143900D03*
D19*
X632619Y329638D03*
X632619Y346638D03*
D29*
X577619Y227013D03*
X560619Y227013D03*
X577619Y247650D03*
X560619Y247650D03*
D30*
X457200Y30600D03*
X457200Y45600D03*
X431800Y30600D03*
X431800Y45600D03*
D29*
X711994Y144694D03*
X711994Y161694D03*
D19*
X560619Y202406D03*
X577619Y202406D03*
D31*
X86200Y439763D03*
X66200Y439763D03*
X106200Y439763D03*
X46200Y439763D03*
D32*
X29200Y449763D03*
X123200Y449763D03*
D33*
X57200Y456763D03*
X95200Y456763D03*
D34*
G36*
X113814Y468756D02*
X103893Y478677D01*
X110986Y485770D01*
X120907Y475849D01*
X113814Y468756D01*
G37*
G36*
X48507Y478677D02*
X38586Y468756D01*
X31493Y475849D01*
X41414Y485770D01*
X48507Y478677D01*
G37*
D31*
X797400Y439763D03*
X777400Y439763D03*
X817400Y439763D03*
X757400Y439763D03*
D32*
X740400Y449763D03*
X834400Y449763D03*
D33*
X768400Y456763D03*
X806400Y456763D03*
D34*
G36*
X825014Y468756D02*
X815093Y478677D01*
X822186Y485770D01*
X832107Y475849D01*
X825014Y468756D01*
G37*
G36*
X759707Y478677D02*
X749786Y468756D01*
X742693Y475849D01*
X752614Y485770D01*
X759707Y478677D01*
G37*
D35*
X292100Y464820D02*
X292100Y449580D01*
X266700Y449580D02*
X266700Y464820D01*
X241300Y464820D02*
X241300Y449580D01*
X215900Y449580D02*
X215900Y464820D01*
X190500Y464820D02*
X190500Y449580D01*
X685800Y449580D02*
X685800Y464820D01*
X660400Y464820D02*
X660400Y449580D01*
X635000Y449580D02*
X635000Y464820D01*
X609600Y464820D02*
X609600Y449580D01*
X584200Y449580D02*
X584200Y464820D01*
X292100Y45720D02*
X292100Y30480D01*
X266700Y30480D02*
X266700Y45720D01*
X241300Y45720D02*
X241300Y30480D01*
X215900Y30480D02*
X215900Y45720D01*
X190500Y45720D02*
X190500Y30480D01*
X685800Y30480D02*
X685800Y45720D01*
X660400Y45720D02*
X660400Y30480D01*
X635000Y30480D02*
X635000Y45720D01*
X609600Y45720D02*
X609600Y30480D01*
X584200Y30480D02*
X584200Y45720D01*
D36*
X399800Y266650D03*
X463800Y266650D03*
X399800Y228650D03*
X463800Y228650D03*
D37*
X444500Y196850D03*
D38*
X444500Y171450D03*
X444500Y146050D03*
X419100Y196850D03*
X419100Y171450D03*
X419100Y146050D03*
D39*
X803956Y238919D03*
X781956Y229419D03*
X781956Y248419D03*
D40*
X784250Y211138D03*
X803250Y211138D03*
D29*
X763588Y248675D03*
X763588Y265675D03*
D19*
X703031Y423069D03*
X686031Y423069D03*
X685569Y423069D03*
X668569Y423069D03*
D41*
X589756Y284002D03*
X589756Y238562D03*
X402716Y423353D03*
X490517Y398442D03*
X668338Y247650D03*
X676275Y247650D03*
X652463Y247650D03*
X644525Y247650D03*
X660400Y255588D03*
X668338Y255588D03*
X676275Y255588D03*
X652463Y255588D03*
X644525Y255588D03*
X644525Y239713D03*
X652463Y239713D03*
X660400Y239713D03*
X668338Y239713D03*
X676275Y239713D03*
X676275Y231775D03*
X668338Y231775D03*
X660400Y231775D03*
X652463Y231775D03*
X644525Y231775D03*
X644525Y263525D03*
X652463Y263525D03*
X660400Y263525D03*
X668338Y263525D03*
X676275Y263525D03*
X589756Y256738D03*
X696752Y318294D03*
X624048Y318294D03*
X731044Y202210D03*
X642144Y177006D03*
X497681Y161131D03*
X622300Y209550D03*
X616744Y203994D03*
X660400Y247650D03*
X505619Y161131D03*
X513556Y161131D03*
X731044Y293090D03*
X651312Y177006D03*
X660400Y177006D03*
X589756Y274914D03*
X589756Y265826D03*
X589756Y247650D03*
X633136Y318294D03*
X705840Y318294D03*
X614960Y318294D03*
X731044Y211298D03*
X633056Y177006D03*
X444500Y99219D03*
X565159Y317687D03*
X450056Y290918D03*
X591344Y143669D03*
X623968Y177006D03*
X705840Y177006D03*
X590550Y202210D03*
X590324Y211298D03*
X590326Y220386D03*
X589756Y229474D03*
X731044Y284002D03*
X731044Y229474D03*
X744538Y412750D03*
X769144Y388144D03*
X614880Y177006D03*
X731044Y265826D03*
X731044Y256738D03*
X355600Y401638D03*
X718344Y385763D03*
X742874Y361080D03*
X731044Y247650D03*
X355600Y414338D03*
X726999Y394418D03*
X751681Y369888D03*
X589756Y293090D03*
X731044Y238562D03*
X355600Y427038D03*
X735806Y403225D03*
X760413Y378619D03*
X731044Y274914D03*
X731044Y220386D03*
X753269Y421481D03*
X777875Y396875D03*
X669488Y177006D03*
X554038Y119063D03*
X678576Y177006D03*
X554038Y106800D03*
X696752Y177006D03*
X687664Y177006D03*
X642224Y318294D03*
X355600Y364412D03*
X651312Y318294D03*
X355600Y376675D03*
X660400Y318294D03*
X355600Y388938D03*
X669488Y318294D03*
X764381Y427831D03*
X678576Y318294D03*
X777081Y427831D03*
X687664Y318294D03*
X817563Y427831D03*
X458788Y280913D03*
X554038Y92869D03*
X546894Y194469D03*
X471349Y411301D03*
X481131Y442385D03*
X514350Y340519D03*
X481013Y411163D03*
X471250Y442894D03*
X507206Y350838D03*
M02*
