G75*
%MOIN*%
%OFA0B0*%
%FSLAX25Y25*%
%IPPOS*%
%LPD*%
%AMOC8*
5,1,8,0,0,1.08239X$1,22.5*
%
%ADD10C,0.02000*%
%ADD11R,0.06312X0.07887*%
%ADD12C,0.06800*%
%ADD13OC8,0.06800*%
%ADD14C,0.06146*%
%ADD15R,0.07591X0.07591*%
%ADD16C,0.10800*%
%ADD17C,0.10924*%
%ADD18C,0.16550*%
%ADD19C,0.07400*%
%ADD20C,0.06800*%
%ADD21C,0.04172*%
%ADD22C,0.04565*%
%ADD23C,0.03778*%
%ADD24C,0.03975*%
D10*
X0233592Y0224107D02*
X0234927Y0222772D01*
X0237596Y0222772D01*
X0238930Y0224107D01*
X0236261Y0226776D02*
X0234927Y0226776D01*
X0233592Y0225441D01*
X0233592Y0224107D01*
X0234927Y0226776D02*
X0233592Y0228110D01*
X0233592Y0229445D01*
X0234927Y0230779D01*
X0237596Y0230779D01*
X0238930Y0229445D01*
X0242800Y0229445D02*
X0244134Y0230779D01*
X0246803Y0230779D01*
X0248138Y0229445D01*
X0252008Y0230779D02*
X0252008Y0222772D01*
X0254677Y0225441D01*
X0257346Y0222772D01*
X0257346Y0230779D01*
X0261216Y0229445D02*
X0261216Y0224107D01*
X0262550Y0222772D01*
X0265219Y0222772D01*
X0266554Y0224107D01*
X0266554Y0229445D01*
X0265219Y0230779D01*
X0262550Y0230779D01*
X0261216Y0229445D01*
X0270424Y0230779D02*
X0270424Y0222772D01*
X0275761Y0230779D01*
X0275761Y0222772D01*
X0279631Y0222772D02*
X0283635Y0226776D01*
X0284969Y0225441D02*
X0279631Y0230779D01*
X0284969Y0230779D02*
X0284969Y0222772D01*
X0288839Y0222772D02*
X0288839Y0230779D01*
X0294177Y0230779D02*
X0288839Y0222772D01*
X0294177Y0222772D02*
X0294177Y0230779D01*
X0298047Y0230779D02*
X0298047Y0224107D01*
X0299382Y0222772D01*
X0302051Y0222772D01*
X0303385Y0224107D01*
X0303385Y0230779D01*
X0316463Y0221438D02*
X0321801Y0221438D01*
X0325671Y0226776D02*
X0331009Y0222772D01*
X0325671Y0226776D02*
X0331009Y0230779D01*
X0248138Y0222772D02*
X0242800Y0228110D01*
X0242800Y0229445D01*
X0242800Y0222772D02*
X0248138Y0222772D01*
D11*
X0247107Y0108175D03*
X0247107Y0100050D03*
X0260493Y0100050D03*
X0260493Y0108175D03*
X0282107Y0108175D03*
X0282107Y0100050D03*
X0295493Y0100050D03*
X0295493Y0108175D03*
G36*
X0151721Y0141941D02*
X0147258Y0137478D01*
X0141683Y0143053D01*
X0146146Y0147516D01*
X0151721Y0141941D01*
G37*
G36*
X0145976Y0147686D02*
X0141513Y0143223D01*
X0135938Y0148798D01*
X0140401Y0153261D01*
X0145976Y0147686D01*
G37*
G36*
X0142256Y0132476D02*
X0137793Y0128013D01*
X0132218Y0133588D01*
X0136681Y0138051D01*
X0142256Y0132476D01*
G37*
G36*
X0136511Y0138221D02*
X0132048Y0133758D01*
X0126473Y0139333D01*
X0130936Y0143796D01*
X0136511Y0138221D01*
G37*
G36*
X0136712Y0068223D02*
X0132249Y0072686D01*
X0137824Y0078261D01*
X0142287Y0073798D01*
X0136712Y0068223D01*
G37*
G36*
X0130967Y0062478D02*
X0126504Y0066941D01*
X0132079Y0072516D01*
X0136542Y0068053D01*
X0130967Y0062478D01*
G37*
G36*
X0140432Y0053013D02*
X0135969Y0057476D01*
X0141544Y0063051D01*
X0146007Y0058588D01*
X0140432Y0053013D01*
G37*
G36*
X0146177Y0058758D02*
X0141714Y0063221D01*
X0147289Y0068796D01*
X0151752Y0064333D01*
X0146177Y0058758D01*
G37*
D12*
X0183800Y0248175D03*
D13*
X0183800Y0258175D03*
X0173800Y0258175D03*
X0173800Y0248175D03*
X0163800Y0248175D03*
X0163800Y0258175D03*
D14*
X0226111Y0378170D02*
X0231457Y0378170D01*
X0251143Y0378170D02*
X0256489Y0378170D01*
D15*
X0256359Y0388800D03*
X0226241Y0388800D03*
D16*
X0095191Y0173475D03*
X0084584Y0148726D03*
X0045693Y0123978D03*
X0035087Y0099229D03*
X0084584Y0049731D03*
X0095191Y0074480D03*
X0134082Y0099229D03*
X0144688Y0123978D03*
X0221300Y0148800D03*
X0246300Y0158800D03*
X0291300Y0148800D03*
X0316300Y0158800D03*
X0316300Y0088800D03*
X0291300Y0078800D03*
X0246300Y0088800D03*
X0221300Y0078800D03*
D17*
X0038622Y0088622D03*
X0066907Y0116907D03*
X0088120Y0138120D03*
X0116404Y0166404D03*
X0165902Y0116907D03*
X0137617Y0088622D03*
X0116404Y0067409D03*
X0088120Y0039125D03*
X0216300Y0068800D03*
X0256300Y0068800D03*
X0286300Y0068800D03*
X0326300Y0068800D03*
X0326300Y0138800D03*
X0286300Y0138800D03*
X0256300Y0138800D03*
X0216300Y0138800D03*
D18*
X0236300Y0138800D03*
X0236300Y0068800D03*
X0306300Y0068800D03*
X0306300Y0138800D03*
X0151759Y0102764D03*
X0102262Y0053267D03*
X0052764Y0102764D03*
X0102262Y0152262D03*
D19*
X0116404Y0145191D03*
X0109333Y0138120D03*
X0066907Y0095693D03*
X0059836Y0088622D03*
X0109333Y0039125D03*
X0116404Y0046196D03*
X0158830Y0088622D03*
X0165902Y0095693D03*
X0231300Y0123800D03*
X0241300Y0123800D03*
X0301300Y0123800D03*
X0311300Y0123800D03*
X0311300Y0053800D03*
X0301300Y0053800D03*
X0241300Y0053800D03*
X0231300Y0053800D03*
D20*
X0198800Y0018050D02*
X0198800Y0012050D01*
X0188800Y0012050D02*
X0188800Y0018050D01*
X0178800Y0018050D02*
X0178800Y0012050D01*
X0168800Y0012050D02*
X0168800Y0018050D01*
X0158800Y0018050D02*
X0158800Y0012050D01*
X0148800Y0012050D02*
X0148800Y0018050D01*
X0148800Y0189550D02*
X0148800Y0195550D01*
X0158800Y0195550D02*
X0158800Y0189550D01*
X0168800Y0189550D02*
X0168800Y0195550D01*
X0178800Y0195550D02*
X0178800Y0189550D01*
X0188800Y0189550D02*
X0188800Y0195550D01*
X0198800Y0195550D02*
X0198800Y0189550D01*
X0198800Y0217050D02*
X0198800Y0223050D01*
X0188800Y0223050D02*
X0188800Y0217050D01*
X0178800Y0217050D02*
X0178800Y0223050D01*
X0168800Y0223050D02*
X0168800Y0217050D01*
X0158800Y0217050D02*
X0158800Y0223050D01*
X0148800Y0223050D02*
X0148800Y0217050D01*
X0148800Y0378300D02*
X0148800Y0384300D01*
X0158800Y0384300D02*
X0158800Y0378300D01*
X0168800Y0378300D02*
X0168800Y0384300D01*
X0178800Y0384300D02*
X0178800Y0378300D01*
X0188800Y0378300D02*
X0188800Y0384300D01*
X0198800Y0384300D02*
X0198800Y0378300D01*
D21*
X0161300Y0327550D03*
X0172550Y0311925D03*
X0251925Y0369425D03*
D22*
X0196925Y0295050D03*
X0157550Y0266925D03*
D23*
X0172550Y0281925D03*
X0175675Y0292550D03*
X0163300Y0301650D03*
X0189425Y0321925D03*
X0189425Y0327550D03*
D24*
X0162550Y0158800D03*
X0150366Y0146161D03*
X0144621Y0151907D03*
X0127827Y0135113D03*
X0133573Y0129368D03*
X0121925Y0098175D03*
X0117550Y0093800D03*
X0133604Y0076907D03*
X0127859Y0071161D03*
X0144652Y0054368D03*
X0150398Y0060113D03*
X0241925Y0100050D03*
X0241925Y0108175D03*
X0265675Y0108175D03*
X0265675Y0100050D03*
X0276925Y0100050D03*
X0276925Y0108175D03*
X0300675Y0108175D03*
X0300675Y0100050D03*
M02*
