%
M48
M72
T01C0.01378
T02C0.01575
T03C0.01772
T04C0.02165
T05C0.03346
T06C0.04000
T07C0.04528
T08C0.05906
T09C0.06750
T10C0.15750
%
T01
X172550Y281925
X175675Y292550
X163300Y301650
X189425Y321925
X189425Y327550
T02
X162550Y158800
X150366Y146161
X144621Y151907
X127827Y135113
X133573Y129368
X121925Y98175
X117550Y93800
X133604Y76907
X127859Y71161
X144652Y54368
X150398Y60113
X241925Y100050
X241925Y108175
X265675Y108175
X265675Y100050
X276925Y100050
X276925Y108175
X300675Y108175
X300675Y100050
T03
X172550Y311925
X161300Y327550
X251925Y369425
T04
X196925Y295050
X157550Y266925
T05
X231457Y378170
X251143Y378170
T06
X198800Y381300
X188800Y381300
X178800Y381300
X168800Y381300
X158800Y381300
X148800Y381300
X163800Y258175
X163800Y248175
X173800Y248175
X173800Y258175
X183800Y258175
X183800Y248175
X178800Y220050
X168800Y220050
X158800Y220050
X148800Y220050
X148800Y192550
X158800Y192550
X168800Y192550
X178800Y192550
X188800Y192550
X198800Y192550
X198800Y220050
X188800Y220050
X116404Y145191
X109333Y138120
X66907Y95693
X59836Y88622
X109333Y39125
X116404Y46196
X148800Y15050
X158800Y15050
X168800Y15050
X178800Y15050
X188800Y15050
X198800Y15050
X231300Y53800
X241300Y53800
X301300Y53800
X311300Y53800
X311300Y123800
X301300Y123800
X241300Y123800
X231300Y123800
X165902Y95693
X158830Y88622
T07
X226241Y388800
X256359Y388800
T08
X95191Y173475
X84584Y148726
X45693Y123978
X35087Y99229
X84584Y49731
X95191Y74480
X134082Y99229
X144688Y123978
X221300Y148800
X246300Y158800
X291300Y148800
X316300Y158800
X316300Y88800
X291300Y78800
X246300Y88800
X221300Y78800
T09
X38622Y88622
X66907Y116907
X88120Y138120
X116404Y166404
X165902Y116907
X137617Y88622
X116404Y67409
X88120Y39125
X216300Y68800
X256300Y68800
X286300Y68800
X326300Y68800
X326300Y138800
X286300Y138800
X256300Y138800
X216300Y138800
T10
X236300Y138800
X236300Y68800
X306300Y68800
X306300Y138800
X151759Y102764
X102262Y53267
X52764Y102764
X102262Y152262
M30
