G04 EAGLE Gerber RS-274X export*
G75*
%MOMM*%
%FSLAX34Y34*%
%LPD*%
%INTop Copper*%
%IPPOS*%
%AMOC8*
5,1,8,0,0,1.08239X$1,22.5*%
G01*
%ADD10R,1.000000X1.100000*%
%ADD11R,1.400000X1.800000*%
%ADD12R,0.800000X0.800000*%
%ADD13R,2.080000X5.500000*%
%ADD14R,1.100000X1.000000*%
%ADD15C,1.524000*%
%ADD16P,1.649562X8X202.500000*%
%ADD17R,1.473200X0.508000*%
%ADD18R,0.508000X1.473200*%
%ADD19R,1.500000X1.500000*%
%ADD20R,0.400000X1.350000*%
%ADD21C,1.358000*%
%ADD22R,1.725000X1.725000*%
%ADD23C,1.524000*%
%ADD24C,0.508000*%
%ADD25C,0.406400*%
%ADD26C,0.856400*%
%ADD27C,0.956400*%
%ADD28C,0.609600*%
%ADD29C,0.756400*%

G36*
X39955Y20861D02*
X39955Y20861D01*
X39959Y20861D01*
X41963Y20878D01*
X42046Y20869D01*
X42077Y20862D01*
X42094Y20864D01*
X42122Y20861D01*
X833978Y20861D01*
X834039Y20871D01*
X834101Y20871D01*
X834128Y20879D01*
X836141Y20861D01*
X836144Y20861D01*
X836148Y20861D01*
X836204Y20861D01*
X836220Y20863D01*
X836247Y20862D01*
X839991Y21074D01*
X840015Y21079D01*
X840139Y21097D01*
X847400Y22974D01*
X847415Y22981D01*
X847430Y22983D01*
X847584Y23049D01*
X854112Y26741D01*
X854125Y26751D01*
X854139Y26757D01*
X854271Y26861D01*
X859621Y32117D01*
X859630Y32130D01*
X859643Y32139D01*
X859743Y32274D01*
X863550Y38735D01*
X863556Y38750D01*
X863566Y38763D01*
X863628Y38918D01*
X863630Y38926D01*
X863841Y39687D01*
X864053Y40448D01*
X864475Y41971D01*
X864686Y42732D01*
X865108Y44254D01*
X865109Y44254D01*
X865109Y44255D01*
X865320Y45016D01*
X865531Y45777D01*
X865633Y46144D01*
X865633Y46145D01*
X865636Y46169D01*
X865659Y46292D01*
X865937Y50034D01*
X865935Y50055D01*
X865939Y50091D01*
X865939Y490000D01*
X865936Y490018D01*
X865938Y490050D01*
X865689Y493845D01*
X865683Y493868D01*
X865665Y493992D01*
X863700Y501325D01*
X863693Y501339D01*
X863691Y501355D01*
X863624Y501508D01*
X859828Y508082D01*
X859818Y508094D01*
X859812Y508109D01*
X859707Y508240D01*
X854340Y513607D01*
X854327Y513617D01*
X854317Y513629D01*
X854182Y513728D01*
X847608Y517524D01*
X847594Y517529D01*
X847581Y517539D01*
X847425Y517600D01*
X840092Y519565D01*
X840069Y519567D01*
X839945Y519589D01*
X836150Y519838D01*
X836131Y519836D01*
X836100Y519839D01*
X753561Y519839D01*
X753541Y519836D01*
X753522Y519838D01*
X753420Y519816D01*
X753318Y519800D01*
X753301Y519790D01*
X753281Y519786D01*
X753192Y519733D01*
X753101Y519684D01*
X753087Y519670D01*
X753070Y519660D01*
X753003Y519581D01*
X752931Y519506D01*
X752923Y519488D01*
X752910Y519473D01*
X752871Y519377D01*
X752828Y519283D01*
X752826Y519263D01*
X752818Y519245D01*
X752800Y519078D01*
X752800Y509618D01*
X751907Y508725D01*
X751593Y508725D01*
X751573Y508722D01*
X751554Y508724D01*
X751452Y508702D01*
X751350Y508686D01*
X751333Y508676D01*
X751313Y508672D01*
X751224Y508619D01*
X751133Y508570D01*
X751119Y508556D01*
X751102Y508546D01*
X751035Y508467D01*
X750963Y508392D01*
X750955Y508374D01*
X750942Y508359D01*
X750903Y508263D01*
X750860Y508169D01*
X750858Y508149D01*
X750850Y508131D01*
X750832Y507964D01*
X750832Y506223D01*
X750835Y506204D01*
X750833Y506184D01*
X750855Y506083D01*
X750871Y505981D01*
X750881Y505963D01*
X750885Y505944D01*
X750938Y505855D01*
X750987Y505763D01*
X751001Y505750D01*
X751011Y505733D01*
X751090Y505665D01*
X751165Y505594D01*
X751183Y505586D01*
X751198Y505573D01*
X751294Y505534D01*
X751388Y505490D01*
X751408Y505488D01*
X751426Y505481D01*
X751593Y505462D01*
X753844Y505462D01*
X754737Y504569D01*
X754737Y493306D01*
X753844Y492413D01*
X741581Y492413D01*
X740688Y493306D01*
X740688Y504569D01*
X741581Y505462D01*
X742957Y505462D01*
X742977Y505465D01*
X742996Y505463D01*
X743098Y505485D01*
X743200Y505502D01*
X743217Y505511D01*
X743237Y505516D01*
X743326Y505569D01*
X743417Y505617D01*
X743431Y505631D01*
X743448Y505642D01*
X743515Y505720D01*
X743587Y505795D01*
X743595Y505813D01*
X743608Y505829D01*
X743647Y505925D01*
X743690Y506018D01*
X743692Y506038D01*
X743700Y506057D01*
X743718Y506223D01*
X743718Y507964D01*
X743715Y507984D01*
X743717Y508003D01*
X743695Y508105D01*
X743679Y508207D01*
X743669Y508224D01*
X743665Y508244D01*
X743612Y508333D01*
X743563Y508424D01*
X743549Y508438D01*
X743539Y508455D01*
X743460Y508522D01*
X743385Y508594D01*
X743367Y508602D01*
X743352Y508615D01*
X743256Y508654D01*
X743162Y508697D01*
X743142Y508699D01*
X743124Y508707D01*
X742957Y508725D01*
X742643Y508725D01*
X741750Y509618D01*
X741750Y519078D01*
X741747Y519098D01*
X741749Y519117D01*
X741727Y519219D01*
X741711Y519321D01*
X741701Y519338D01*
X741697Y519358D01*
X741644Y519447D01*
X741595Y519538D01*
X741581Y519552D01*
X741571Y519569D01*
X741492Y519636D01*
X741417Y519708D01*
X741399Y519716D01*
X741384Y519729D01*
X741288Y519768D01*
X741194Y519811D01*
X741174Y519813D01*
X741156Y519821D01*
X740989Y519839D01*
X739472Y519839D01*
X739355Y519820D01*
X739237Y519802D01*
X739233Y519800D01*
X739229Y519800D01*
X739124Y519744D01*
X739018Y519689D01*
X739015Y519686D01*
X739011Y519684D01*
X738929Y519598D01*
X738847Y519513D01*
X738845Y519509D01*
X738842Y519506D01*
X738792Y519398D01*
X738741Y519291D01*
X738740Y519287D01*
X738738Y519283D01*
X738725Y519165D01*
X738711Y519047D01*
X738712Y519042D01*
X738711Y519039D01*
X738714Y519025D01*
X738736Y518881D01*
X738816Y518584D01*
X738816Y515773D01*
X733037Y515773D01*
X733017Y515770D01*
X732998Y515772D01*
X732896Y515750D01*
X732794Y515733D01*
X732777Y515724D01*
X732757Y515720D01*
X732668Y515667D01*
X732577Y515618D01*
X732563Y515604D01*
X732546Y515594D01*
X732479Y515515D01*
X732408Y515440D01*
X732399Y515422D01*
X732386Y515407D01*
X732347Y515311D01*
X732304Y515217D01*
X732302Y515197D01*
X732294Y515179D01*
X732276Y515012D01*
X732276Y514249D01*
X732274Y514249D01*
X732274Y515012D01*
X732271Y515032D01*
X732273Y515051D01*
X732251Y515153D01*
X732234Y515255D01*
X732225Y515272D01*
X732221Y515292D01*
X732168Y515381D01*
X732119Y515472D01*
X732105Y515486D01*
X732095Y515503D01*
X732016Y515570D01*
X731941Y515641D01*
X731923Y515650D01*
X731908Y515663D01*
X731812Y515702D01*
X731718Y515745D01*
X731698Y515747D01*
X731680Y515755D01*
X731513Y515773D01*
X725734Y515773D01*
X725734Y518584D01*
X725814Y518881D01*
X725826Y519000D01*
X725839Y519117D01*
X725838Y519122D01*
X725838Y519126D01*
X725812Y519242D01*
X725786Y519358D01*
X725784Y519361D01*
X725783Y519365D01*
X725721Y519467D01*
X725660Y519569D01*
X725657Y519572D01*
X725655Y519575D01*
X725564Y519652D01*
X725473Y519729D01*
X725469Y519730D01*
X725466Y519733D01*
X725356Y519776D01*
X725245Y519821D01*
X725240Y519821D01*
X725237Y519823D01*
X725223Y519823D01*
X725078Y519839D01*
X723398Y519839D01*
X723379Y519836D01*
X723359Y519838D01*
X723258Y519816D01*
X723156Y519800D01*
X723138Y519790D01*
X723119Y519786D01*
X723030Y519733D01*
X722938Y519684D01*
X722925Y519670D01*
X722908Y519660D01*
X722840Y519581D01*
X722769Y519506D01*
X722761Y519488D01*
X722748Y519473D01*
X722709Y519377D01*
X722665Y519283D01*
X722663Y519263D01*
X722656Y519245D01*
X722637Y519078D01*
X722637Y509618D01*
X721744Y508725D01*
X721430Y508725D01*
X721411Y508722D01*
X721391Y508724D01*
X721290Y508702D01*
X721188Y508686D01*
X721170Y508676D01*
X721151Y508672D01*
X721062Y508619D01*
X720970Y508570D01*
X720957Y508556D01*
X720940Y508546D01*
X720872Y508467D01*
X720801Y508392D01*
X720793Y508374D01*
X720780Y508359D01*
X720741Y508263D01*
X720697Y508169D01*
X720695Y508149D01*
X720688Y508131D01*
X720669Y507964D01*
X720669Y506223D01*
X720672Y506204D01*
X720670Y506184D01*
X720692Y506083D01*
X720709Y505981D01*
X720718Y505963D01*
X720723Y505944D01*
X720776Y505855D01*
X720824Y505763D01*
X720838Y505750D01*
X720849Y505733D01*
X720927Y505665D01*
X721002Y505594D01*
X721020Y505586D01*
X721036Y505573D01*
X721132Y505534D01*
X721225Y505490D01*
X721245Y505488D01*
X721264Y505481D01*
X721430Y505462D01*
X723682Y505462D01*
X724575Y504569D01*
X724575Y493306D01*
X723682Y492413D01*
X711418Y492413D01*
X710525Y493306D01*
X710525Y504569D01*
X711418Y505462D01*
X712795Y505462D01*
X712814Y505465D01*
X712834Y505463D01*
X712935Y505485D01*
X713037Y505502D01*
X713055Y505511D01*
X713074Y505516D01*
X713163Y505569D01*
X713255Y505617D01*
X713268Y505631D01*
X713285Y505642D01*
X713353Y505720D01*
X713424Y505795D01*
X713432Y505813D01*
X713445Y505829D01*
X713484Y505925D01*
X713528Y506018D01*
X713530Y506038D01*
X713537Y506057D01*
X713556Y506223D01*
X713556Y507964D01*
X713553Y507984D01*
X713555Y508003D01*
X713533Y508105D01*
X713516Y508207D01*
X713507Y508224D01*
X713502Y508244D01*
X713449Y508333D01*
X713401Y508424D01*
X713387Y508438D01*
X713376Y508455D01*
X713298Y508522D01*
X713223Y508594D01*
X713205Y508602D01*
X713189Y508615D01*
X713093Y508654D01*
X713000Y508697D01*
X712980Y508699D01*
X712961Y508707D01*
X712795Y508725D01*
X712481Y508725D01*
X711588Y509618D01*
X711588Y519078D01*
X711585Y519098D01*
X711587Y519117D01*
X711565Y519219D01*
X711548Y519321D01*
X711539Y519338D01*
X711534Y519358D01*
X711481Y519447D01*
X711433Y519538D01*
X711419Y519552D01*
X711408Y519569D01*
X711330Y519636D01*
X711255Y519708D01*
X711237Y519716D01*
X711221Y519729D01*
X711125Y519768D01*
X711032Y519811D01*
X711012Y519813D01*
X710993Y519821D01*
X710827Y519839D01*
X709309Y519839D01*
X709193Y519820D01*
X709074Y519802D01*
X709070Y519800D01*
X709066Y519800D01*
X708962Y519744D01*
X708856Y519689D01*
X708853Y519686D01*
X708849Y519684D01*
X708767Y519598D01*
X708684Y519513D01*
X708682Y519509D01*
X708680Y519506D01*
X708629Y519398D01*
X708578Y519291D01*
X708578Y519287D01*
X708576Y519283D01*
X708563Y519165D01*
X708548Y519047D01*
X708549Y519042D01*
X708549Y519039D01*
X708552Y519025D01*
X708574Y518881D01*
X708653Y518584D01*
X708653Y515773D01*
X702875Y515773D01*
X702855Y515770D01*
X702835Y515772D01*
X702734Y515750D01*
X702632Y515733D01*
X702614Y515724D01*
X702595Y515720D01*
X702506Y515667D01*
X702414Y515618D01*
X702401Y515604D01*
X702384Y515594D01*
X702316Y515515D01*
X702245Y515440D01*
X702237Y515422D01*
X702224Y515407D01*
X702185Y515311D01*
X702141Y515217D01*
X702139Y515197D01*
X702132Y515179D01*
X702113Y515012D01*
X702113Y514249D01*
X702112Y514249D01*
X702112Y515012D01*
X702108Y515032D01*
X702111Y515051D01*
X702089Y515153D01*
X702072Y515255D01*
X702063Y515272D01*
X702058Y515292D01*
X702005Y515381D01*
X701957Y515472D01*
X701942Y515486D01*
X701932Y515503D01*
X701853Y515570D01*
X701778Y515641D01*
X701760Y515650D01*
X701745Y515663D01*
X701649Y515702D01*
X701555Y515745D01*
X701536Y515747D01*
X701517Y515755D01*
X701350Y515773D01*
X695572Y515773D01*
X695572Y518584D01*
X695651Y518881D01*
X695663Y519000D01*
X695676Y519117D01*
X695675Y519122D01*
X695676Y519126D01*
X695649Y519242D01*
X695624Y519358D01*
X695622Y519361D01*
X695621Y519365D01*
X695559Y519467D01*
X695498Y519569D01*
X695495Y519572D01*
X695492Y519575D01*
X695401Y519652D01*
X695311Y519729D01*
X695307Y519730D01*
X695304Y519733D01*
X695194Y519776D01*
X695083Y519821D01*
X695078Y519821D01*
X695075Y519823D01*
X695061Y519823D01*
X694916Y519839D01*
X693236Y519839D01*
X693216Y519836D01*
X693197Y519838D01*
X693095Y519816D01*
X692993Y519800D01*
X692976Y519790D01*
X692956Y519786D01*
X692867Y519733D01*
X692776Y519684D01*
X692762Y519670D01*
X692745Y519660D01*
X692678Y519581D01*
X692606Y519506D01*
X692598Y519488D01*
X692585Y519473D01*
X692546Y519377D01*
X692503Y519283D01*
X692501Y519263D01*
X692493Y519245D01*
X692475Y519078D01*
X692475Y509618D01*
X691582Y508725D01*
X691268Y508725D01*
X691248Y508722D01*
X691229Y508724D01*
X691127Y508702D01*
X691025Y508686D01*
X691008Y508676D01*
X690988Y508672D01*
X690899Y508619D01*
X690808Y508570D01*
X690794Y508556D01*
X690777Y508546D01*
X690710Y508467D01*
X690638Y508392D01*
X690630Y508374D01*
X690617Y508359D01*
X690578Y508263D01*
X690535Y508169D01*
X690533Y508149D01*
X690525Y508131D01*
X690507Y507964D01*
X690507Y506223D01*
X690510Y506204D01*
X690508Y506184D01*
X690530Y506083D01*
X690546Y505981D01*
X690556Y505963D01*
X690560Y505944D01*
X690613Y505855D01*
X690662Y505763D01*
X690676Y505750D01*
X690686Y505733D01*
X690765Y505665D01*
X690840Y505594D01*
X690858Y505586D01*
X690873Y505573D01*
X690969Y505534D01*
X691063Y505490D01*
X691083Y505488D01*
X691101Y505481D01*
X691268Y505462D01*
X693519Y505462D01*
X694412Y504569D01*
X694412Y493306D01*
X693519Y492413D01*
X681256Y492413D01*
X680363Y493306D01*
X680363Y504569D01*
X681256Y505462D01*
X682632Y505462D01*
X682652Y505465D01*
X682671Y505463D01*
X682773Y505485D01*
X682875Y505502D01*
X682892Y505511D01*
X682912Y505516D01*
X683001Y505569D01*
X683092Y505617D01*
X683106Y505631D01*
X683123Y505642D01*
X683190Y505720D01*
X683262Y505795D01*
X683270Y505813D01*
X683283Y505829D01*
X683322Y505925D01*
X683365Y506018D01*
X683367Y506038D01*
X683375Y506057D01*
X683393Y506223D01*
X683393Y507964D01*
X683390Y507984D01*
X683392Y508003D01*
X683370Y508105D01*
X683354Y508207D01*
X683344Y508224D01*
X683340Y508244D01*
X683287Y508333D01*
X683238Y508424D01*
X683224Y508438D01*
X683214Y508455D01*
X683135Y508522D01*
X683060Y508594D01*
X683042Y508602D01*
X683027Y508615D01*
X682931Y508654D01*
X682837Y508697D01*
X682817Y508699D01*
X682799Y508707D01*
X682632Y508725D01*
X682318Y508725D01*
X681425Y509618D01*
X681425Y519078D01*
X681422Y519098D01*
X681424Y519117D01*
X681402Y519219D01*
X681386Y519321D01*
X681376Y519338D01*
X681372Y519358D01*
X681319Y519447D01*
X681270Y519538D01*
X681256Y519552D01*
X681246Y519569D01*
X681167Y519636D01*
X681092Y519708D01*
X681074Y519716D01*
X681059Y519729D01*
X680963Y519768D01*
X680869Y519811D01*
X680849Y519813D01*
X680831Y519821D01*
X680664Y519839D01*
X679147Y519839D01*
X679030Y519820D01*
X678912Y519802D01*
X678908Y519800D01*
X678904Y519800D01*
X678799Y519744D01*
X678693Y519689D01*
X678690Y519686D01*
X678686Y519684D01*
X678604Y519598D01*
X678522Y519513D01*
X678520Y519509D01*
X678517Y519506D01*
X678467Y519398D01*
X678416Y519291D01*
X678415Y519287D01*
X678413Y519283D01*
X678400Y519165D01*
X678386Y519047D01*
X678387Y519042D01*
X678386Y519039D01*
X678389Y519025D01*
X678411Y518881D01*
X678491Y518584D01*
X678491Y515773D01*
X672712Y515773D01*
X672692Y515770D01*
X672673Y515772D01*
X672571Y515750D01*
X672469Y515733D01*
X672452Y515724D01*
X672432Y515720D01*
X672343Y515667D01*
X672252Y515618D01*
X672238Y515604D01*
X672221Y515594D01*
X672154Y515515D01*
X672083Y515440D01*
X672074Y515422D01*
X672061Y515407D01*
X672022Y515311D01*
X671979Y515217D01*
X671977Y515197D01*
X671969Y515179D01*
X671951Y515012D01*
X671951Y514249D01*
X671949Y514249D01*
X671949Y515012D01*
X671946Y515032D01*
X671948Y515051D01*
X671926Y515153D01*
X671909Y515255D01*
X671900Y515272D01*
X671896Y515292D01*
X671843Y515381D01*
X671794Y515472D01*
X671780Y515486D01*
X671770Y515503D01*
X671691Y515570D01*
X671616Y515641D01*
X671598Y515650D01*
X671583Y515663D01*
X671487Y515702D01*
X671393Y515745D01*
X671373Y515747D01*
X671355Y515755D01*
X671188Y515773D01*
X665409Y515773D01*
X665409Y518584D01*
X665489Y518881D01*
X665501Y519000D01*
X665514Y519117D01*
X665513Y519122D01*
X665513Y519126D01*
X665487Y519242D01*
X665461Y519358D01*
X665459Y519361D01*
X665458Y519365D01*
X665396Y519467D01*
X665335Y519569D01*
X665332Y519572D01*
X665330Y519575D01*
X665239Y519652D01*
X665148Y519729D01*
X665144Y519730D01*
X665141Y519733D01*
X665031Y519776D01*
X664920Y519821D01*
X664915Y519821D01*
X664912Y519823D01*
X664898Y519823D01*
X664753Y519839D01*
X659777Y519839D01*
X659757Y519836D01*
X659738Y519838D01*
X659636Y519816D01*
X659534Y519800D01*
X659517Y519790D01*
X659497Y519786D01*
X659408Y519733D01*
X659317Y519684D01*
X659303Y519670D01*
X659286Y519660D01*
X659219Y519581D01*
X659147Y519506D01*
X659139Y519488D01*
X659126Y519473D01*
X659087Y519377D01*
X659044Y519283D01*
X659042Y519263D01*
X659034Y519245D01*
X659016Y519078D01*
X659016Y515773D01*
X648612Y515773D01*
X648592Y515770D01*
X648573Y515772D01*
X648471Y515750D01*
X648369Y515733D01*
X648352Y515724D01*
X648332Y515720D01*
X648243Y515667D01*
X648152Y515618D01*
X648138Y515604D01*
X648121Y515594D01*
X648054Y515515D01*
X647983Y515440D01*
X647974Y515422D01*
X647961Y515407D01*
X647923Y515311D01*
X647879Y515217D01*
X647877Y515197D01*
X647869Y515179D01*
X647851Y515012D01*
X647851Y514249D01*
X647849Y514249D01*
X647849Y515012D01*
X647846Y515032D01*
X647848Y515051D01*
X647826Y515153D01*
X647809Y515255D01*
X647800Y515272D01*
X647796Y515292D01*
X647743Y515381D01*
X647694Y515472D01*
X647680Y515486D01*
X647670Y515503D01*
X647591Y515570D01*
X647516Y515641D01*
X647498Y515650D01*
X647483Y515663D01*
X647387Y515702D01*
X647293Y515745D01*
X647273Y515747D01*
X647255Y515755D01*
X647088Y515773D01*
X636684Y515773D01*
X636684Y519078D01*
X636681Y519098D01*
X636683Y519117D01*
X636661Y519219D01*
X636645Y519321D01*
X636635Y519338D01*
X636631Y519358D01*
X636578Y519447D01*
X636529Y519538D01*
X636515Y519552D01*
X636505Y519569D01*
X636426Y519636D01*
X636351Y519708D01*
X636333Y519716D01*
X636318Y519729D01*
X636222Y519768D01*
X636128Y519811D01*
X636108Y519813D01*
X636090Y519821D01*
X635923Y519839D01*
X630402Y519839D01*
X630382Y519836D01*
X630363Y519838D01*
X630261Y519816D01*
X630159Y519800D01*
X630142Y519790D01*
X630122Y519786D01*
X630033Y519733D01*
X629942Y519684D01*
X629928Y519670D01*
X629911Y519660D01*
X629844Y519581D01*
X629772Y519506D01*
X629764Y519488D01*
X629751Y519473D01*
X629712Y519377D01*
X629669Y519283D01*
X629667Y519263D01*
X629659Y519245D01*
X629641Y519078D01*
X629641Y515773D01*
X620362Y515773D01*
X620342Y515770D01*
X620323Y515772D01*
X620221Y515750D01*
X620119Y515733D01*
X620102Y515724D01*
X620082Y515720D01*
X619993Y515667D01*
X619902Y515618D01*
X619888Y515604D01*
X619871Y515594D01*
X619804Y515515D01*
X619733Y515440D01*
X619724Y515422D01*
X619711Y515407D01*
X619672Y515311D01*
X619629Y515217D01*
X619627Y515197D01*
X619619Y515179D01*
X619601Y515012D01*
X619601Y514249D01*
X619599Y514249D01*
X619599Y515012D01*
X619596Y515032D01*
X619598Y515051D01*
X619576Y515153D01*
X619559Y515255D01*
X619550Y515272D01*
X619546Y515292D01*
X619493Y515381D01*
X619444Y515472D01*
X619430Y515486D01*
X619420Y515503D01*
X619341Y515570D01*
X619266Y515641D01*
X619248Y515650D01*
X619233Y515663D01*
X619137Y515702D01*
X619043Y515745D01*
X619023Y515747D01*
X619005Y515755D01*
X618838Y515773D01*
X600362Y515773D01*
X600342Y515770D01*
X600323Y515772D01*
X600221Y515750D01*
X600119Y515733D01*
X600102Y515724D01*
X600082Y515720D01*
X599993Y515667D01*
X599902Y515618D01*
X599888Y515604D01*
X599871Y515594D01*
X599804Y515515D01*
X599733Y515440D01*
X599724Y515422D01*
X599711Y515407D01*
X599672Y515311D01*
X599629Y515217D01*
X599627Y515197D01*
X599619Y515179D01*
X599601Y515012D01*
X599601Y514249D01*
X599599Y514249D01*
X599599Y515012D01*
X599596Y515032D01*
X599598Y515051D01*
X599576Y515153D01*
X599559Y515255D01*
X599550Y515272D01*
X599546Y515292D01*
X599493Y515381D01*
X599444Y515472D01*
X599430Y515486D01*
X599420Y515503D01*
X599341Y515570D01*
X599266Y515641D01*
X599248Y515650D01*
X599233Y515663D01*
X599137Y515702D01*
X599043Y515745D01*
X599023Y515747D01*
X599005Y515755D01*
X598838Y515773D01*
X589559Y515773D01*
X589559Y519078D01*
X589556Y519098D01*
X589558Y519117D01*
X589536Y519219D01*
X589520Y519321D01*
X589510Y519338D01*
X589506Y519358D01*
X589453Y519447D01*
X589404Y519538D01*
X589390Y519552D01*
X589380Y519569D01*
X589301Y519636D01*
X589226Y519708D01*
X589208Y519716D01*
X589193Y519729D01*
X589097Y519768D01*
X589003Y519811D01*
X588983Y519813D01*
X588965Y519821D01*
X588798Y519839D01*
X583277Y519839D01*
X583257Y519836D01*
X583238Y519838D01*
X583136Y519816D01*
X583034Y519800D01*
X583017Y519790D01*
X582997Y519786D01*
X582908Y519733D01*
X582817Y519684D01*
X582803Y519670D01*
X582786Y519660D01*
X582719Y519581D01*
X582647Y519506D01*
X582639Y519488D01*
X582626Y519473D01*
X582587Y519377D01*
X582544Y519283D01*
X582542Y519263D01*
X582534Y519245D01*
X582516Y519078D01*
X582516Y515773D01*
X572112Y515773D01*
X572092Y515770D01*
X572073Y515772D01*
X571971Y515750D01*
X571869Y515733D01*
X571852Y515724D01*
X571832Y515720D01*
X571743Y515667D01*
X571652Y515618D01*
X571638Y515604D01*
X571621Y515594D01*
X571554Y515515D01*
X571483Y515440D01*
X571474Y515422D01*
X571461Y515407D01*
X571423Y515311D01*
X571379Y515217D01*
X571377Y515197D01*
X571369Y515179D01*
X571351Y515012D01*
X571351Y514249D01*
X571349Y514249D01*
X571349Y515012D01*
X571346Y515032D01*
X571348Y515051D01*
X571326Y515153D01*
X571309Y515255D01*
X571300Y515272D01*
X571296Y515292D01*
X571243Y515381D01*
X571194Y515472D01*
X571180Y515486D01*
X571170Y515503D01*
X571091Y515570D01*
X571016Y515641D01*
X570998Y515650D01*
X570983Y515663D01*
X570887Y515702D01*
X570793Y515745D01*
X570773Y515747D01*
X570755Y515755D01*
X570588Y515773D01*
X560184Y515773D01*
X560184Y519078D01*
X560181Y519098D01*
X560183Y519117D01*
X560161Y519219D01*
X560145Y519321D01*
X560135Y519338D01*
X560131Y519358D01*
X560078Y519447D01*
X560029Y519538D01*
X560015Y519552D01*
X560005Y519569D01*
X559926Y519636D01*
X559851Y519708D01*
X559833Y519716D01*
X559818Y519729D01*
X559722Y519768D01*
X559628Y519811D01*
X559608Y519813D01*
X559590Y519821D01*
X559423Y519839D01*
X40000Y519839D01*
X39982Y519836D01*
X39950Y519838D01*
X36155Y519589D01*
X36132Y519583D01*
X36008Y519565D01*
X28675Y517600D01*
X28661Y517593D01*
X28645Y517591D01*
X28492Y517524D01*
X21918Y513728D01*
X21906Y513718D01*
X21891Y513712D01*
X21760Y513607D01*
X16393Y508240D01*
X16383Y508227D01*
X16371Y508217D01*
X16272Y508082D01*
X12476Y501508D01*
X12471Y501494D01*
X12461Y501481D01*
X12400Y501325D01*
X10435Y493992D01*
X10433Y493969D01*
X10411Y493845D01*
X10162Y490050D01*
X10164Y490031D01*
X10161Y490000D01*
X10161Y50091D01*
X10164Y50070D01*
X10163Y50034D01*
X10441Y46292D01*
X10447Y46269D01*
X10467Y46145D01*
X12472Y38918D01*
X12478Y38904D01*
X12481Y38888D01*
X12492Y38863D01*
X12495Y38851D01*
X12506Y38833D01*
X12550Y38735D01*
X16357Y32274D01*
X16367Y32262D01*
X16373Y32247D01*
X16479Y32117D01*
X21829Y26861D01*
X21842Y26852D01*
X21852Y26839D01*
X21988Y26741D01*
X28516Y23049D01*
X28530Y23043D01*
X28543Y23034D01*
X28700Y22974D01*
X35961Y21097D01*
X35985Y21095D01*
X36109Y21074D01*
X39853Y20862D01*
X39869Y20864D01*
X39896Y20861D01*
X39952Y20861D01*
X39955Y20861D01*
G37*
%LPC*%
G36*
X450754Y138710D02*
X450754Y138710D01*
X441769Y147695D01*
X441695Y147748D01*
X441626Y147807D01*
X441596Y147819D01*
X441570Y147838D01*
X441483Y147865D01*
X441398Y147899D01*
X441357Y147904D01*
X441335Y147911D01*
X441302Y147910D01*
X441231Y147918D01*
X434362Y147918D01*
X429005Y153275D01*
X429005Y160850D01*
X434362Y166207D01*
X441938Y166207D01*
X447295Y160850D01*
X447295Y153981D01*
X447309Y153891D01*
X447317Y153800D01*
X447329Y153771D01*
X447334Y153739D01*
X447377Y153658D01*
X447413Y153574D01*
X447439Y153542D01*
X447450Y153521D01*
X447473Y153499D01*
X447518Y153443D01*
X453898Y147063D01*
X453972Y147010D01*
X454042Y146950D01*
X454072Y146938D01*
X454098Y146919D01*
X454185Y146892D01*
X454270Y146858D01*
X454311Y146854D01*
X454333Y146847D01*
X454365Y146848D01*
X454436Y146840D01*
X460507Y146840D01*
X460603Y146855D01*
X460700Y146865D01*
X460724Y146875D01*
X460749Y146879D01*
X460835Y146925D01*
X460924Y146965D01*
X460944Y146982D01*
X460967Y146995D01*
X461034Y147065D01*
X461105Y147131D01*
X461118Y147154D01*
X461136Y147173D01*
X461177Y147261D01*
X461224Y147347D01*
X461229Y147372D01*
X461240Y147396D01*
X461250Y147493D01*
X461268Y147589D01*
X461264Y147615D01*
X461267Y147640D01*
X461246Y147736D01*
X461232Y147832D01*
X461220Y147855D01*
X461215Y147881D01*
X461165Y147964D01*
X461120Y148051D01*
X461102Y148070D01*
X461088Y148092D01*
X461015Y148155D01*
X460945Y148223D01*
X460916Y148239D01*
X460901Y148252D01*
X460871Y148264D01*
X460798Y148304D01*
X458370Y149310D01*
X455797Y151882D01*
X454405Y155244D01*
X454405Y158882D01*
X454673Y159527D01*
X454699Y159640D01*
X454728Y159754D01*
X454727Y159760D01*
X454729Y159766D01*
X454718Y159883D01*
X454709Y159999D01*
X454706Y160005D01*
X454706Y160011D01*
X454658Y160119D01*
X454612Y160226D01*
X454608Y160231D01*
X454606Y160236D01*
X454593Y160250D01*
X454508Y160357D01*
X446785Y168079D01*
X446785Y176327D01*
X446774Y176398D01*
X446772Y176470D01*
X446754Y176519D01*
X446746Y176570D01*
X446712Y176633D01*
X446687Y176701D01*
X446655Y176741D01*
X446630Y176788D01*
X446578Y176837D01*
X446534Y176893D01*
X446490Y176921D01*
X446452Y176957D01*
X446387Y176987D01*
X446327Y177026D01*
X446276Y177039D01*
X446229Y177061D01*
X446158Y177068D01*
X446088Y177086D01*
X446036Y177082D01*
X445985Y177088D01*
X445914Y177072D01*
X445843Y177067D01*
X445795Y177046D01*
X445744Y177035D01*
X445683Y176999D01*
X445617Y176970D01*
X445561Y176926D01*
X445533Y176909D01*
X445518Y176891D01*
X445486Y176866D01*
X441938Y173318D01*
X434362Y173318D01*
X429005Y178675D01*
X429005Y186250D01*
X433862Y191107D01*
X433915Y191181D01*
X433975Y191251D01*
X433987Y191281D01*
X434006Y191307D01*
X434033Y191394D01*
X434067Y191479D01*
X434071Y191520D01*
X434078Y191542D01*
X434077Y191574D01*
X434085Y191646D01*
X434085Y207959D01*
X453928Y227802D01*
X453981Y227876D01*
X454041Y227945D01*
X454053Y227975D01*
X454072Y228001D01*
X454099Y228088D01*
X454133Y228173D01*
X454137Y228214D01*
X454144Y228237D01*
X454143Y228269D01*
X454151Y228340D01*
X454151Y234458D01*
X454140Y234529D01*
X454138Y234601D01*
X454120Y234650D01*
X454112Y234701D01*
X454078Y234765D01*
X454053Y234832D01*
X454021Y234873D01*
X453996Y234919D01*
X453944Y234968D01*
X453900Y235024D01*
X453856Y235052D01*
X453818Y235088D01*
X453753Y235118D01*
X453693Y235157D01*
X453642Y235170D01*
X453595Y235192D01*
X453524Y235200D01*
X453454Y235217D01*
X453402Y235213D01*
X453351Y235219D01*
X453280Y235203D01*
X453209Y235198D01*
X453161Y235178D01*
X453110Y235166D01*
X453049Y235130D01*
X452983Y235102D01*
X452927Y235057D01*
X452899Y235040D01*
X452884Y235022D01*
X452852Y234997D01*
X451617Y233762D01*
X451571Y233699D01*
X451552Y233678D01*
X451547Y233669D01*
X451505Y233619D01*
X451493Y233589D01*
X451474Y233562D01*
X451447Y233475D01*
X451413Y233391D01*
X451408Y233350D01*
X451401Y233327D01*
X451402Y233295D01*
X451394Y233224D01*
X451394Y231064D01*
X448286Y227956D01*
X443889Y227956D01*
X440781Y231064D01*
X440781Y235461D01*
X443889Y238569D01*
X445770Y238569D01*
X445790Y238572D01*
X445809Y238570D01*
X445911Y238592D01*
X446013Y238609D01*
X446030Y238618D01*
X446050Y238623D01*
X446139Y238676D01*
X446230Y238724D01*
X446244Y238738D01*
X446261Y238749D01*
X446328Y238827D01*
X446400Y238902D01*
X446408Y238920D01*
X446421Y238936D01*
X446460Y239032D01*
X446503Y239125D01*
X446505Y239145D01*
X446513Y239164D01*
X446531Y239330D01*
X446531Y246032D01*
X446520Y246102D01*
X446518Y246174D01*
X446500Y246223D01*
X446492Y246274D01*
X446458Y246338D01*
X446433Y246405D01*
X446401Y246446D01*
X446376Y246492D01*
X446325Y246541D01*
X446280Y246597D01*
X446236Y246625D01*
X446198Y246661D01*
X446133Y246691D01*
X446073Y246730D01*
X446022Y246743D01*
X445975Y246765D01*
X445904Y246773D01*
X445834Y246790D01*
X445782Y246786D01*
X445731Y246792D01*
X445660Y246777D01*
X445589Y246771D01*
X445541Y246751D01*
X445490Y246740D01*
X445464Y246724D01*
X440381Y246724D01*
X440311Y246712D01*
X440239Y246710D01*
X440190Y246692D01*
X440139Y246684D01*
X440075Y246651D01*
X440008Y246626D01*
X439967Y246593D01*
X439921Y246569D01*
X439872Y246517D01*
X439816Y246472D01*
X439788Y246428D01*
X439752Y246391D01*
X439722Y246326D01*
X439683Y246265D01*
X439670Y246215D01*
X439648Y246168D01*
X439640Y246096D01*
X439623Y246027D01*
X439627Y245975D01*
X439621Y245923D01*
X439636Y245853D01*
X439642Y245781D01*
X439662Y245734D01*
X439673Y245683D01*
X439710Y245621D01*
X439738Y245555D01*
X439783Y245499D01*
X439800Y245472D01*
X439817Y245456D01*
X439843Y245424D01*
X440282Y244986D01*
X440282Y240589D01*
X437173Y237481D01*
X432777Y237481D01*
X431068Y239189D01*
X431010Y239231D01*
X430958Y239281D01*
X430911Y239303D01*
X430869Y239333D01*
X430800Y239354D01*
X430735Y239384D01*
X430683Y239390D01*
X430633Y239405D01*
X430562Y239403D01*
X430491Y239411D01*
X430440Y239400D01*
X430388Y239399D01*
X430320Y239374D01*
X430250Y239359D01*
X430205Y239332D01*
X430157Y239314D01*
X430101Y239270D01*
X430039Y239233D01*
X430005Y239193D01*
X429965Y239161D01*
X429926Y239100D01*
X429879Y239046D01*
X429860Y238998D01*
X429832Y238954D01*
X429814Y238884D01*
X429787Y238818D01*
X429779Y238746D01*
X429771Y238715D01*
X429773Y238692D01*
X429769Y238651D01*
X429769Y236764D01*
X429783Y236674D01*
X429791Y236583D01*
X429803Y236553D01*
X429808Y236521D01*
X429851Y236441D01*
X429887Y236357D01*
X429913Y236324D01*
X429924Y236304D01*
X429947Y236282D01*
X429992Y236226D01*
X430757Y235461D01*
X430757Y231064D01*
X427648Y227956D01*
X423252Y227956D01*
X420143Y231064D01*
X420143Y235461D01*
X422432Y237750D01*
X422485Y237824D01*
X422545Y237893D01*
X422557Y237923D01*
X422576Y237949D01*
X422603Y238036D01*
X422637Y238121D01*
X422641Y238162D01*
X422648Y238184D01*
X422647Y238217D01*
X422655Y238288D01*
X422655Y239475D01*
X422644Y239546D01*
X422642Y239617D01*
X422624Y239666D01*
X422616Y239718D01*
X422582Y239781D01*
X422557Y239848D01*
X422525Y239889D01*
X422500Y239935D01*
X422448Y239984D01*
X422404Y240040D01*
X422360Y240069D01*
X422322Y240104D01*
X422257Y240135D01*
X422197Y240173D01*
X422146Y240186D01*
X422099Y240208D01*
X422028Y240216D01*
X421958Y240234D01*
X421906Y240229D01*
X421855Y240235D01*
X421784Y240220D01*
X421713Y240214D01*
X421665Y240194D01*
X421614Y240183D01*
X421553Y240146D01*
X421487Y240118D01*
X421431Y240073D01*
X421403Y240057D01*
X421388Y240039D01*
X421356Y240013D01*
X415105Y233762D01*
X415059Y233699D01*
X415039Y233678D01*
X415035Y233669D01*
X414992Y233619D01*
X414980Y233589D01*
X414961Y233562D01*
X414934Y233476D01*
X414900Y233391D01*
X414896Y233350D01*
X414889Y233327D01*
X414890Y233295D01*
X414882Y233224D01*
X414882Y231064D01*
X411773Y227956D01*
X407377Y227956D01*
X404268Y231064D01*
X404268Y233788D01*
X404257Y233859D01*
X404255Y233930D01*
X404237Y233979D01*
X404229Y234031D01*
X404195Y234094D01*
X404170Y234161D01*
X404138Y234202D01*
X404113Y234248D01*
X404061Y234298D01*
X404017Y234353D01*
X403973Y234382D01*
X403935Y234417D01*
X403870Y234448D01*
X403810Y234486D01*
X403759Y234499D01*
X403712Y234521D01*
X403641Y234529D01*
X403571Y234547D01*
X403519Y234542D01*
X403468Y234548D01*
X403397Y234533D01*
X403326Y234527D01*
X403278Y234507D01*
X403227Y234496D01*
X403166Y234459D01*
X403100Y234431D01*
X403044Y234386D01*
X403016Y234370D01*
X403001Y234352D01*
X402969Y234326D01*
X402405Y233762D01*
X402359Y233698D01*
X402339Y233678D01*
X402335Y233669D01*
X402292Y233619D01*
X402280Y233589D01*
X402261Y233562D01*
X402234Y233475D01*
X402200Y233391D01*
X402196Y233350D01*
X402189Y233327D01*
X402190Y233295D01*
X402182Y233224D01*
X402182Y231064D01*
X399073Y227956D01*
X394677Y227956D01*
X391568Y231064D01*
X391568Y235461D01*
X394677Y238569D01*
X396836Y238569D01*
X396927Y238584D01*
X397017Y238591D01*
X397047Y238604D01*
X397079Y238609D01*
X397160Y238652D01*
X397244Y238687D01*
X397276Y238713D01*
X397297Y238724D01*
X397305Y238733D01*
X397306Y238733D01*
X397321Y238749D01*
X397375Y238792D01*
X405922Y247340D01*
X405975Y247414D01*
X406035Y247483D01*
X406047Y247513D01*
X406066Y247539D01*
X406093Y247627D01*
X406127Y247711D01*
X406131Y247752D01*
X406138Y247775D01*
X406137Y247807D01*
X406145Y247878D01*
X406145Y263612D01*
X407038Y264505D01*
X413382Y264505D01*
X413609Y264278D01*
X413625Y264266D01*
X413637Y264251D01*
X413724Y264195D01*
X413808Y264135D01*
X413827Y264129D01*
X413844Y264118D01*
X413945Y264093D01*
X414043Y264062D01*
X414063Y264063D01*
X414083Y264058D01*
X414186Y264066D01*
X414289Y264069D01*
X414308Y264075D01*
X414328Y264077D01*
X414423Y264117D01*
X414520Y264153D01*
X414536Y264165D01*
X414554Y264173D01*
X414685Y264278D01*
X414912Y264505D01*
X421256Y264505D01*
X421610Y264151D01*
X421626Y264139D01*
X421638Y264124D01*
X421725Y264068D01*
X421809Y264008D01*
X421828Y264002D01*
X421845Y263991D01*
X421946Y263966D01*
X422045Y263935D01*
X422064Y263936D01*
X422084Y263931D01*
X422187Y263939D01*
X422290Y263942D01*
X422309Y263948D01*
X422329Y263950D01*
X422424Y263990D01*
X422521Y264026D01*
X422537Y264038D01*
X422555Y264046D01*
X422686Y264151D01*
X423040Y264505D01*
X429384Y264505D01*
X429611Y264278D01*
X429627Y264266D01*
X429639Y264251D01*
X429726Y264195D01*
X429810Y264135D01*
X429829Y264129D01*
X429846Y264118D01*
X429947Y264093D01*
X430045Y264062D01*
X430065Y264063D01*
X430085Y264058D01*
X430188Y264066D01*
X430291Y264069D01*
X430310Y264075D01*
X430330Y264077D01*
X430425Y264117D01*
X430522Y264153D01*
X430538Y264165D01*
X430556Y264173D01*
X430687Y264278D01*
X430914Y264505D01*
X437258Y264505D01*
X437358Y264405D01*
X437416Y264363D01*
X437468Y264314D01*
X437515Y264292D01*
X437557Y264262D01*
X437626Y264240D01*
X437691Y264210D01*
X437743Y264204D01*
X437793Y264189D01*
X437864Y264191D01*
X437935Y264183D01*
X437986Y264194D01*
X438038Y264196D01*
X438106Y264220D01*
X438176Y264235D01*
X438221Y264262D01*
X438269Y264280D01*
X438325Y264325D01*
X438387Y264362D01*
X438421Y264401D01*
X438461Y264434D01*
X438500Y264494D01*
X438547Y264548D01*
X438566Y264597D01*
X438594Y264641D01*
X438612Y264710D01*
X438639Y264777D01*
X438647Y264848D01*
X438655Y264879D01*
X438653Y264902D01*
X438657Y264943D01*
X438657Y266210D01*
X438643Y266300D01*
X438635Y266391D01*
X438623Y266421D01*
X438618Y266453D01*
X438575Y266533D01*
X438539Y266617D01*
X438513Y266649D01*
X438502Y266670D01*
X438479Y266692D01*
X438434Y266748D01*
X437606Y267577D01*
X437606Y271973D01*
X440714Y275082D01*
X445111Y275082D01*
X448219Y271973D01*
X448219Y267577D01*
X446447Y265805D01*
X446405Y265747D01*
X446356Y265695D01*
X446334Y265647D01*
X446304Y265605D01*
X446282Y265537D01*
X446252Y265471D01*
X446247Y265420D01*
X446231Y265370D01*
X446233Y265298D01*
X446225Y265227D01*
X446236Y265176D01*
X446238Y265124D01*
X446262Y265057D01*
X446277Y264987D01*
X446304Y264942D01*
X446322Y264893D01*
X446367Y264837D01*
X446404Y264776D01*
X446443Y264742D01*
X446476Y264701D01*
X446536Y264662D01*
X446591Y264616D01*
X446639Y264596D01*
X446683Y264568D01*
X446752Y264551D01*
X446819Y264524D01*
X446890Y264516D01*
X446921Y264508D01*
X446944Y264510D01*
X446985Y264505D01*
X453260Y264505D01*
X453614Y264151D01*
X453630Y264139D01*
X453642Y264124D01*
X453729Y264068D01*
X453813Y264008D01*
X453832Y264002D01*
X453849Y263991D01*
X453950Y263966D01*
X454049Y263935D01*
X454068Y263936D01*
X454088Y263931D01*
X454191Y263939D01*
X454294Y263942D01*
X454313Y263948D01*
X454333Y263950D01*
X454428Y263990D01*
X454525Y264026D01*
X454541Y264038D01*
X454559Y264046D01*
X454690Y264151D01*
X455044Y264505D01*
X461388Y264505D01*
X461615Y264278D01*
X461631Y264266D01*
X461643Y264251D01*
X461730Y264195D01*
X461814Y264135D01*
X461833Y264129D01*
X461850Y264118D01*
X461951Y264093D01*
X462049Y264062D01*
X462069Y264063D01*
X462089Y264058D01*
X462192Y264066D01*
X462295Y264069D01*
X462314Y264075D01*
X462334Y264077D01*
X462429Y264117D01*
X462526Y264153D01*
X462542Y264165D01*
X462560Y264173D01*
X462691Y264278D01*
X462918Y264505D01*
X469262Y264505D01*
X470155Y263612D01*
X470155Y200781D01*
X462280Y192907D01*
X462238Y192849D01*
X462189Y192797D01*
X462167Y192749D01*
X462137Y192707D01*
X462116Y192639D01*
X462085Y192573D01*
X462080Y192522D01*
X462064Y192472D01*
X462066Y192400D01*
X462058Y192329D01*
X462069Y192278D01*
X462071Y192226D01*
X462095Y192159D01*
X462110Y192089D01*
X462137Y192044D01*
X462155Y191995D01*
X462200Y191939D01*
X462237Y191878D01*
X462276Y191844D01*
X462309Y191803D01*
X462369Y191764D01*
X462424Y191718D01*
X462472Y191698D01*
X462516Y191670D01*
X462585Y191653D01*
X462652Y191626D01*
X462723Y191618D01*
X462754Y191610D01*
X462777Y191612D01*
X462818Y191607D01*
X467338Y191607D01*
X472695Y186250D01*
X472695Y178675D01*
X467338Y173318D01*
X459762Y173318D01*
X456214Y176866D01*
X456156Y176908D01*
X456104Y176957D01*
X456057Y176979D01*
X456015Y177009D01*
X455946Y177030D01*
X455881Y177061D01*
X455829Y177066D01*
X455779Y177082D01*
X455708Y177080D01*
X455637Y177088D01*
X455586Y177077D01*
X455534Y177075D01*
X455466Y177051D01*
X455396Y177035D01*
X455351Y177009D01*
X455303Y176991D01*
X455247Y176946D01*
X455185Y176909D01*
X455151Y176870D01*
X455111Y176837D01*
X455072Y176777D01*
X455025Y176722D01*
X455006Y176674D01*
X454978Y176630D01*
X454960Y176561D01*
X454933Y176494D01*
X454925Y176423D01*
X454917Y176392D01*
X454919Y176368D01*
X454915Y176327D01*
X454915Y171761D01*
X454929Y171671D01*
X454937Y171580D01*
X454949Y171551D01*
X454954Y171519D01*
X454997Y171438D01*
X455033Y171354D01*
X455059Y171322D01*
X455070Y171301D01*
X455093Y171279D01*
X455138Y171223D01*
X460256Y166105D01*
X460351Y166037D01*
X460445Y165967D01*
X460451Y165965D01*
X460456Y165961D01*
X460567Y165927D01*
X460679Y165891D01*
X460685Y165891D01*
X460691Y165889D01*
X460808Y165892D01*
X460924Y165893D01*
X460932Y165895D01*
X460937Y165895D01*
X460954Y165902D01*
X461086Y165940D01*
X461731Y166207D01*
X465369Y166207D01*
X468730Y164815D01*
X471303Y162243D01*
X472695Y158881D01*
X472695Y155244D01*
X471384Y152078D01*
X471374Y152035D01*
X471357Y152001D01*
X471352Y151954D01*
X471333Y151890D01*
X471333Y151864D01*
X471327Y151839D01*
X471333Y151780D01*
X471330Y151756D01*
X471337Y151726D01*
X471339Y151644D01*
X471348Y151620D01*
X471351Y151594D01*
X471380Y151527D01*
X471383Y151516D01*
X471392Y151501D01*
X471424Y151413D01*
X471440Y151393D01*
X471451Y151369D01*
X471507Y151307D01*
X471509Y151305D01*
X471513Y151301D01*
X471516Y151297D01*
X471577Y151221D01*
X471599Y151207D01*
X471617Y151188D01*
X471702Y151141D01*
X471784Y151088D01*
X471810Y151082D01*
X471832Y151069D01*
X471928Y151052D01*
X472023Y151028D01*
X472049Y151030D01*
X472075Y151026D01*
X472171Y151040D01*
X472268Y151047D01*
X472292Y151058D01*
X472318Y151061D01*
X472405Y151106D01*
X472494Y151144D01*
X472520Y151164D01*
X472537Y151173D01*
X472550Y151186D01*
X472556Y151189D01*
X472571Y151205D01*
X472625Y151249D01*
X475010Y153634D01*
X475063Y153708D01*
X475123Y153777D01*
X475135Y153807D01*
X475154Y153833D01*
X475181Y153921D01*
X475215Y154005D01*
X475219Y154046D01*
X475226Y154069D01*
X475225Y154101D01*
X475233Y154172D01*
X475233Y263997D01*
X475230Y264016D01*
X475232Y264036D01*
X475210Y264137D01*
X475194Y264239D01*
X475184Y264257D01*
X475180Y264276D01*
X475127Y264365D01*
X475078Y264457D01*
X475064Y264470D01*
X475054Y264487D01*
X474975Y264555D01*
X474900Y264626D01*
X474882Y264634D01*
X474867Y264647D01*
X474771Y264686D01*
X474677Y264730D01*
X474657Y264732D01*
X474639Y264739D01*
X474472Y264758D01*
X471300Y264758D01*
X470407Y265651D01*
X470407Y271871D01*
X470404Y271890D01*
X470406Y271910D01*
X470384Y272011D01*
X470368Y272113D01*
X470358Y272131D01*
X470354Y272150D01*
X470301Y272239D01*
X470252Y272331D01*
X470238Y272344D01*
X470228Y272361D01*
X470149Y272429D01*
X470074Y272500D01*
X470056Y272508D01*
X470041Y272521D01*
X469945Y272560D01*
X469851Y272604D01*
X469831Y272606D01*
X469813Y272613D01*
X469646Y272632D01*
X462882Y272632D01*
X454977Y280537D01*
X454903Y280590D01*
X454834Y280649D01*
X454804Y280662D01*
X454778Y280680D01*
X454691Y280707D01*
X454606Y280741D01*
X454565Y280746D01*
X454542Y280753D01*
X454510Y280752D01*
X454439Y280760D01*
X406654Y280760D01*
X406634Y280757D01*
X406615Y280759D01*
X406513Y280737D01*
X406411Y280720D01*
X406394Y280711D01*
X406374Y280706D01*
X406285Y280653D01*
X406194Y280605D01*
X406180Y280591D01*
X406163Y280580D01*
X406096Y280502D01*
X406024Y280427D01*
X406016Y280409D01*
X406003Y280393D01*
X405964Y280297D01*
X405921Y280204D01*
X405919Y280184D01*
X405911Y280165D01*
X405893Y279999D01*
X405893Y273525D01*
X405666Y273298D01*
X405654Y273282D01*
X405638Y273269D01*
X405582Y273182D01*
X405522Y273098D01*
X405516Y273079D01*
X405505Y273062D01*
X405480Y272962D01*
X405450Y272863D01*
X405450Y272843D01*
X405445Y272824D01*
X405453Y272721D01*
X405456Y272617D01*
X405463Y272598D01*
X405464Y272579D01*
X405505Y272484D01*
X405540Y272386D01*
X405553Y272370D01*
X405561Y272352D01*
X405666Y272221D01*
X405893Y271994D01*
X405893Y265651D01*
X405000Y264758D01*
X398791Y264758D01*
X398700Y264743D01*
X398610Y264736D01*
X398580Y264723D01*
X398548Y264718D01*
X398467Y264675D01*
X398383Y264640D01*
X398351Y264614D01*
X398330Y264603D01*
X398308Y264580D01*
X398252Y264535D01*
X387236Y253518D01*
X383523Y253518D01*
X383504Y253515D01*
X383484Y253517D01*
X383383Y253495D01*
X383281Y253479D01*
X383263Y253469D01*
X383244Y253465D01*
X383155Y253412D01*
X383063Y253363D01*
X383050Y253349D01*
X383033Y253339D01*
X382965Y253260D01*
X382894Y253185D01*
X382886Y253167D01*
X382873Y253152D01*
X382834Y253056D01*
X382790Y252962D01*
X382788Y252942D01*
X382781Y252924D01*
X382762Y252757D01*
X382762Y249918D01*
X381869Y249025D01*
X370606Y249025D01*
X369713Y249918D01*
X369713Y250902D01*
X369701Y250972D01*
X369699Y251044D01*
X369681Y251093D01*
X369673Y251144D01*
X369639Y251208D01*
X369615Y251275D01*
X369582Y251316D01*
X369558Y251362D01*
X369506Y251411D01*
X369461Y251467D01*
X369417Y251495D01*
X369380Y251531D01*
X369315Y251561D01*
X369254Y251600D01*
X369204Y251613D01*
X369157Y251635D01*
X369085Y251643D01*
X369016Y251660D01*
X368964Y251656D01*
X368912Y251662D01*
X368842Y251647D01*
X368771Y251641D01*
X368723Y251621D01*
X368672Y251610D01*
X368610Y251573D01*
X368544Y251545D01*
X368488Y251500D01*
X368461Y251483D01*
X368445Y251466D01*
X368413Y251440D01*
X353460Y236487D01*
X353407Y236413D01*
X353348Y236343D01*
X353335Y236313D01*
X353317Y236287D01*
X353290Y236200D01*
X353256Y236115D01*
X353251Y236074D01*
X353244Y236052D01*
X353245Y236020D01*
X353237Y235949D01*
X353237Y186206D01*
X352344Y185313D01*
X330281Y185313D01*
X329388Y186206D01*
X329388Y242469D01*
X330281Y243362D01*
X348524Y243362D01*
X348614Y243377D01*
X348705Y243384D01*
X348734Y243397D01*
X348766Y243402D01*
X348847Y243445D01*
X348931Y243480D01*
X348963Y243506D01*
X348984Y243517D01*
X349006Y243540D01*
X349062Y243585D01*
X365591Y260115D01*
X368952Y260115D01*
X368971Y260118D01*
X368991Y260116D01*
X369092Y260138D01*
X369194Y260154D01*
X369212Y260164D01*
X369231Y260168D01*
X369320Y260221D01*
X369412Y260270D01*
X369425Y260284D01*
X369442Y260294D01*
X369510Y260373D01*
X369581Y260448D01*
X369589Y260466D01*
X369602Y260481D01*
X369641Y260577D01*
X369685Y260671D01*
X369687Y260691D01*
X369694Y260709D01*
X369713Y260876D01*
X369713Y262216D01*
X369768Y262293D01*
X369774Y262312D01*
X369784Y262328D01*
X369810Y262429D01*
X369840Y262528D01*
X369840Y262548D01*
X369844Y262567D01*
X369836Y262670D01*
X369834Y262774D01*
X369827Y262792D01*
X369825Y262812D01*
X369785Y262907D01*
X369749Y263005D01*
X369737Y263020D01*
X369729Y263039D01*
X369713Y263059D01*
X369713Y264387D01*
X369710Y264406D01*
X369712Y264426D01*
X369690Y264527D01*
X369673Y264629D01*
X369664Y264647D01*
X369659Y264666D01*
X369606Y264755D01*
X369558Y264847D01*
X369544Y264860D01*
X369533Y264877D01*
X369455Y264945D01*
X369380Y265016D01*
X369362Y265024D01*
X369346Y265037D01*
X369250Y265076D01*
X369157Y265120D01*
X369137Y265122D01*
X369118Y265129D01*
X368952Y265148D01*
X362416Y265148D01*
X347474Y280090D01*
X347400Y280143D01*
X347331Y280202D01*
X347301Y280215D01*
X347275Y280233D01*
X347188Y280260D01*
X347103Y280294D01*
X347062Y280299D01*
X347039Y280306D01*
X347007Y280305D01*
X346936Y280313D01*
X330281Y280313D01*
X329388Y281206D01*
X329388Y337469D01*
X330281Y338362D01*
X352344Y338362D01*
X353237Y337469D01*
X353237Y286139D01*
X353252Y286049D01*
X353259Y285958D01*
X353272Y285928D01*
X353277Y285896D01*
X353320Y285815D01*
X353355Y285732D01*
X353381Y285700D01*
X353392Y285679D01*
X353415Y285657D01*
X353460Y285601D01*
X365561Y273500D01*
X365635Y273447D01*
X365704Y273388D01*
X365734Y273375D01*
X365760Y273357D01*
X365847Y273330D01*
X365932Y273296D01*
X365973Y273291D01*
X365996Y273284D01*
X366028Y273285D01*
X366099Y273277D01*
X368952Y273277D01*
X368971Y273280D01*
X368991Y273278D01*
X369092Y273300D01*
X369194Y273317D01*
X369212Y273326D01*
X369231Y273331D01*
X369320Y273384D01*
X369412Y273432D01*
X369425Y273446D01*
X369442Y273457D01*
X369510Y273535D01*
X369581Y273610D01*
X369589Y273628D01*
X369602Y273644D01*
X369641Y273740D01*
X369685Y273833D01*
X369687Y273853D01*
X369694Y273872D01*
X369713Y274038D01*
X369713Y275344D01*
X370606Y276237D01*
X377917Y276237D01*
X378007Y276252D01*
X378098Y276259D01*
X378128Y276272D01*
X378160Y276277D01*
X378240Y276320D01*
X378324Y276355D01*
X378356Y276381D01*
X378377Y276392D01*
X378399Y276415D01*
X378455Y276460D01*
X378867Y276872D01*
X378909Y276930D01*
X378958Y276982D01*
X378980Y277030D01*
X379011Y277072D01*
X379032Y277140D01*
X379062Y277206D01*
X379068Y277257D01*
X379083Y277307D01*
X379081Y277379D01*
X379089Y277450D01*
X379078Y277501D01*
X379077Y277553D01*
X379052Y277620D01*
X379037Y277690D01*
X379010Y277735D01*
X378992Y277784D01*
X378948Y277840D01*
X378911Y277901D01*
X378871Y277935D01*
X378839Y277976D01*
X378778Y278015D01*
X378724Y278061D01*
X378675Y278081D01*
X378632Y278109D01*
X378562Y278126D01*
X378496Y278153D01*
X378424Y278161D01*
X378393Y278169D01*
X378370Y278167D01*
X378329Y278172D01*
X377761Y278172D01*
X377761Y284689D01*
X383778Y284689D01*
X383778Y281014D01*
X383781Y280995D01*
X383779Y280975D01*
X383801Y280874D01*
X383818Y280772D01*
X383827Y280754D01*
X383832Y280735D01*
X383885Y280646D01*
X383933Y280554D01*
X383947Y280541D01*
X383958Y280524D01*
X384036Y280456D01*
X384111Y280385D01*
X384129Y280377D01*
X384145Y280364D01*
X384241Y280325D01*
X384334Y280281D01*
X384354Y280279D01*
X384373Y280272D01*
X384539Y280253D01*
X387673Y280253D01*
X387744Y280265D01*
X387816Y280267D01*
X387865Y280285D01*
X387916Y280293D01*
X387979Y280326D01*
X388047Y280351D01*
X388087Y280384D01*
X388133Y280408D01*
X388183Y280460D01*
X388239Y280505D01*
X388267Y280549D01*
X388303Y280586D01*
X388333Y280651D01*
X388372Y280712D01*
X388384Y280762D01*
X388406Y280809D01*
X388414Y280881D01*
X388432Y280950D01*
X388428Y281002D01*
X388433Y281054D01*
X388418Y281124D01*
X388413Y281196D01*
X388392Y281243D01*
X388381Y281294D01*
X388344Y281356D01*
X388316Y281422D01*
X388271Y281478D01*
X388255Y281505D01*
X388237Y281521D01*
X388211Y281553D01*
X388111Y281653D01*
X388111Y287775D01*
X388097Y287865D01*
X388089Y287956D01*
X388077Y287986D01*
X388072Y288018D01*
X388029Y288098D01*
X387993Y288182D01*
X387967Y288214D01*
X387956Y288235D01*
X387933Y288257D01*
X387888Y288313D01*
X387603Y288598D01*
X387268Y289178D01*
X387095Y289824D01*
X387095Y291429D01*
X396494Y291429D01*
X396513Y291432D01*
X396533Y291430D01*
X396635Y291452D01*
X396737Y291469D01*
X396754Y291478D01*
X396774Y291482D01*
X396863Y291536D01*
X396954Y291584D01*
X396968Y291598D01*
X396985Y291609D01*
X397006Y291633D01*
X397007Y291632D01*
X397082Y291561D01*
X397100Y291553D01*
X397115Y291540D01*
X397212Y291501D01*
X397305Y291457D01*
X397325Y291455D01*
X397343Y291448D01*
X397510Y291429D01*
X406909Y291429D01*
X406909Y289784D01*
X406903Y289730D01*
X406890Y289611D01*
X406891Y289607D01*
X406891Y289603D01*
X406917Y289488D01*
X406942Y289371D01*
X406944Y289367D01*
X406945Y289363D01*
X407007Y289262D01*
X407069Y289160D01*
X407072Y289157D01*
X407074Y289153D01*
X407165Y289077D01*
X407255Y289000D01*
X407259Y288998D01*
X407262Y288995D01*
X407373Y288952D01*
X407484Y288908D01*
X407488Y288907D01*
X407491Y288906D01*
X407505Y288905D01*
X407650Y288889D01*
X414688Y288889D01*
X414778Y288904D01*
X414869Y288911D01*
X414899Y288924D01*
X414931Y288929D01*
X415011Y288972D01*
X415095Y289007D01*
X415127Y289033D01*
X415148Y289044D01*
X415170Y289067D01*
X415226Y289112D01*
X416400Y290286D01*
X416453Y290360D01*
X416512Y290429D01*
X416525Y290459D01*
X416543Y290485D01*
X416570Y290572D01*
X416604Y290657D01*
X416609Y290698D01*
X416616Y290721D01*
X416615Y290753D01*
X416623Y290824D01*
X416623Y294764D01*
X416608Y294854D01*
X416601Y294945D01*
X416588Y294974D01*
X416583Y295006D01*
X416540Y295087D01*
X416505Y295171D01*
X416479Y295203D01*
X416468Y295224D01*
X416445Y295246D01*
X416400Y295302D01*
X415163Y296539D01*
X415089Y296592D01*
X415019Y296651D01*
X414989Y296664D01*
X414963Y296682D01*
X414876Y296709D01*
X414791Y296743D01*
X414750Y296748D01*
X414728Y296755D01*
X414696Y296754D01*
X414625Y296762D01*
X407582Y296762D01*
X407466Y296743D01*
X407347Y296725D01*
X407344Y296723D01*
X407340Y296722D01*
X407235Y296667D01*
X407129Y296612D01*
X407126Y296609D01*
X407122Y296607D01*
X407041Y296521D01*
X406957Y296435D01*
X406956Y296432D01*
X406953Y296429D01*
X406903Y296321D01*
X406851Y296213D01*
X406851Y296209D01*
X406849Y296206D01*
X406836Y296087D01*
X406822Y295969D01*
X406822Y295964D01*
X406822Y295961D01*
X406825Y295948D01*
X406847Y295803D01*
X406909Y295573D01*
X406909Y293968D01*
X397510Y293968D01*
X397491Y293965D01*
X397471Y293967D01*
X397369Y293945D01*
X397267Y293928D01*
X397250Y293919D01*
X397230Y293914D01*
X397141Y293861D01*
X397050Y293813D01*
X397036Y293799D01*
X397019Y293788D01*
X396998Y293764D01*
X396997Y293765D01*
X396922Y293836D01*
X396904Y293844D01*
X396889Y293857D01*
X396792Y293896D01*
X396699Y293940D01*
X396679Y293942D01*
X396661Y293949D01*
X396494Y293968D01*
X387095Y293968D01*
X387095Y295573D01*
X387157Y295803D01*
X387169Y295923D01*
X387182Y296040D01*
X387181Y296044D01*
X387181Y296048D01*
X387155Y296163D01*
X387130Y296280D01*
X387128Y296284D01*
X387127Y296288D01*
X387064Y296390D01*
X387004Y296491D01*
X387000Y296494D01*
X386998Y296498D01*
X386907Y296574D01*
X386817Y296651D01*
X386813Y296653D01*
X386810Y296656D01*
X386700Y296699D01*
X386588Y296743D01*
X386583Y296744D01*
X386580Y296745D01*
X386567Y296746D01*
X386422Y296762D01*
X383523Y296762D01*
X383504Y296759D01*
X383484Y296761D01*
X383383Y296739D01*
X383281Y296722D01*
X383263Y296713D01*
X383244Y296708D01*
X383155Y296655D01*
X383063Y296607D01*
X383050Y296593D01*
X383033Y296582D01*
X382965Y296504D01*
X382894Y296429D01*
X382886Y296411D01*
X382873Y296395D01*
X382834Y296299D01*
X382790Y296206D01*
X382788Y296186D01*
X382781Y296167D01*
X382762Y296001D01*
X382762Y294827D01*
X382748Y294816D01*
X382693Y294729D01*
X382632Y294645D01*
X382626Y294625D01*
X382615Y294609D01*
X382590Y294509D01*
X382560Y294409D01*
X382560Y294389D01*
X382555Y294370D01*
X382563Y294267D01*
X382566Y294164D01*
X382573Y294145D01*
X382574Y294125D01*
X382615Y294030D01*
X382650Y293933D01*
X382663Y293917D01*
X382671Y293899D01*
X382775Y293768D01*
X383271Y293272D01*
X383605Y292693D01*
X383778Y292047D01*
X383778Y287736D01*
X377000Y287736D01*
X376980Y287732D01*
X376960Y287735D01*
X376859Y287713D01*
X376757Y287696D01*
X376739Y287687D01*
X376720Y287682D01*
X376631Y287629D01*
X376539Y287581D01*
X376526Y287566D01*
X376509Y287556D01*
X376441Y287477D01*
X376370Y287402D01*
X376362Y287384D01*
X376349Y287369D01*
X376310Y287273D01*
X376266Y287179D01*
X376264Y287160D01*
X376257Y287141D01*
X376238Y286974D01*
X376238Y286212D01*
X376237Y286212D01*
X376237Y286974D01*
X376233Y286994D01*
X376236Y287014D01*
X376214Y287115D01*
X376197Y287217D01*
X376188Y287235D01*
X376183Y287254D01*
X376130Y287343D01*
X376082Y287435D01*
X376067Y287448D01*
X376057Y287465D01*
X375978Y287533D01*
X375903Y287604D01*
X375885Y287612D01*
X375870Y287625D01*
X375774Y287664D01*
X375680Y287708D01*
X375661Y287710D01*
X375642Y287717D01*
X375475Y287736D01*
X368697Y287736D01*
X368697Y292047D01*
X368870Y292693D01*
X369204Y293272D01*
X369700Y293768D01*
X369711Y293784D01*
X369727Y293796D01*
X369783Y293883D01*
X369843Y293967D01*
X369849Y293986D01*
X369860Y294003D01*
X369885Y294103D01*
X369915Y294202D01*
X369915Y294222D01*
X369920Y294242D01*
X369912Y294345D01*
X369909Y294448D01*
X369902Y294467D01*
X369901Y294487D01*
X369860Y294582D01*
X369825Y294679D01*
X369812Y294695D01*
X369804Y294713D01*
X369713Y294828D01*
X369713Y307094D01*
X370606Y307987D01*
X381869Y307987D01*
X382762Y307094D01*
X382762Y305652D01*
X382765Y305633D01*
X382763Y305613D01*
X382785Y305512D01*
X382802Y305410D01*
X382811Y305392D01*
X382816Y305373D01*
X382869Y305284D01*
X382917Y305192D01*
X382931Y305179D01*
X382942Y305162D01*
X383020Y305094D01*
X383095Y305023D01*
X383113Y305015D01*
X383129Y305002D01*
X383225Y304963D01*
X383318Y304919D01*
X383338Y304917D01*
X383357Y304910D01*
X383523Y304891D01*
X386354Y304891D01*
X386471Y304910D01*
X386589Y304928D01*
X386592Y304930D01*
X386596Y304931D01*
X386702Y304987D01*
X386807Y305041D01*
X386810Y305044D01*
X386814Y305046D01*
X386896Y305132D01*
X386979Y305218D01*
X386980Y305221D01*
X386983Y305224D01*
X387034Y305333D01*
X387085Y305440D01*
X387085Y305444D01*
X387087Y305447D01*
X387100Y305566D01*
X387114Y305684D01*
X387114Y305689D01*
X387114Y305692D01*
X387111Y305705D01*
X387095Y305808D01*
X387095Y307431D01*
X396494Y307431D01*
X396513Y307434D01*
X396533Y307432D01*
X396635Y307454D01*
X396737Y307471D01*
X396754Y307480D01*
X396774Y307484D01*
X396863Y307538D01*
X396954Y307586D01*
X396968Y307600D01*
X396985Y307611D01*
X397006Y307635D01*
X397007Y307634D01*
X397082Y307563D01*
X397100Y307555D01*
X397115Y307542D01*
X397212Y307503D01*
X397305Y307459D01*
X397325Y307457D01*
X397343Y307450D01*
X397510Y307431D01*
X406909Y307431D01*
X406909Y305786D01*
X406903Y305732D01*
X406890Y305613D01*
X406891Y305609D01*
X406891Y305605D01*
X406917Y305489D01*
X406942Y305373D01*
X406944Y305369D01*
X406945Y305365D01*
X407007Y305264D01*
X407069Y305162D01*
X407072Y305159D01*
X407074Y305155D01*
X407165Y305079D01*
X407255Y305002D01*
X407259Y305000D01*
X407262Y304997D01*
X407373Y304954D01*
X407484Y304910D01*
X407488Y304909D01*
X407491Y304908D01*
X407505Y304907D01*
X407650Y304891D01*
X418307Y304891D01*
X424752Y298446D01*
X424752Y289650D01*
X424755Y289631D01*
X424753Y289611D01*
X424775Y289510D01*
X424792Y289408D01*
X424801Y289390D01*
X424806Y289371D01*
X424859Y289282D01*
X424907Y289190D01*
X424921Y289177D01*
X424932Y289160D01*
X425010Y289092D01*
X425085Y289021D01*
X425103Y289013D01*
X425119Y289000D01*
X425215Y288961D01*
X425308Y288917D01*
X425328Y288915D01*
X425347Y288908D01*
X425513Y288889D01*
X458122Y288889D01*
X466027Y280984D01*
X466101Y280931D01*
X466170Y280872D01*
X466200Y280859D01*
X466226Y280841D01*
X466313Y280814D01*
X466398Y280780D01*
X466439Y280775D01*
X466462Y280768D01*
X466494Y280769D01*
X466565Y280761D01*
X469646Y280761D01*
X469666Y280764D01*
X469685Y280762D01*
X469787Y280784D01*
X469889Y280801D01*
X469906Y280810D01*
X469926Y280815D01*
X470015Y280868D01*
X470106Y280916D01*
X470120Y280930D01*
X470137Y280941D01*
X470204Y281019D01*
X470276Y281094D01*
X470284Y281112D01*
X470297Y281128D01*
X470336Y281224D01*
X470379Y281317D01*
X470381Y281337D01*
X470389Y281356D01*
X470407Y281522D01*
X470407Y287996D01*
X470634Y288223D01*
X470646Y288239D01*
X470662Y288252D01*
X470718Y288339D01*
X470778Y288423D01*
X470784Y288442D01*
X470795Y288459D01*
X470820Y288559D01*
X470850Y288658D01*
X470850Y288678D01*
X470855Y288697D01*
X470847Y288800D01*
X470844Y288904D01*
X470837Y288923D01*
X470836Y288942D01*
X470795Y289037D01*
X470760Y289135D01*
X470747Y289151D01*
X470739Y289169D01*
X470634Y289300D01*
X470407Y289527D01*
X470407Y295903D01*
X470393Y295993D01*
X470385Y296084D01*
X470373Y296114D01*
X470368Y296146D01*
X470325Y296226D01*
X470289Y296310D01*
X470263Y296342D01*
X470252Y296363D01*
X470229Y296385D01*
X470184Y296441D01*
X469899Y296726D01*
X469564Y297306D01*
X469391Y297952D01*
X469391Y299557D01*
X478790Y299557D01*
X478809Y299560D01*
X478829Y299558D01*
X478931Y299580D01*
X479033Y299597D01*
X479050Y299606D01*
X479070Y299610D01*
X479159Y299664D01*
X479250Y299712D01*
X479264Y299726D01*
X479281Y299737D01*
X479302Y299761D01*
X479303Y299760D01*
X479378Y299689D01*
X479396Y299681D01*
X479411Y299668D01*
X479508Y299629D01*
X479601Y299585D01*
X479621Y299583D01*
X479639Y299576D01*
X479806Y299557D01*
X489205Y299557D01*
X489205Y297952D01*
X489007Y297214D01*
X488995Y297094D01*
X488982Y296977D01*
X488983Y296973D01*
X488982Y296969D01*
X489009Y296854D01*
X489034Y296737D01*
X489036Y296733D01*
X489037Y296729D01*
X489099Y296628D01*
X489160Y296526D01*
X489164Y296523D01*
X489166Y296519D01*
X489256Y296443D01*
X489347Y296366D01*
X489351Y296364D01*
X489354Y296361D01*
X489463Y296319D01*
X489575Y296274D01*
X489580Y296273D01*
X489583Y296272D01*
X489597Y296271D01*
X489742Y296255D01*
X501260Y296255D01*
X501350Y296270D01*
X501441Y296277D01*
X501471Y296290D01*
X501503Y296295D01*
X501583Y296338D01*
X501667Y296373D01*
X501699Y296399D01*
X501720Y296410D01*
X501742Y296433D01*
X501798Y296478D01*
X504214Y298894D01*
X508611Y298894D01*
X511719Y295786D01*
X511719Y291389D01*
X510011Y289681D01*
X509969Y289623D01*
X509919Y289571D01*
X509897Y289523D01*
X509867Y289481D01*
X509846Y289413D01*
X509816Y289347D01*
X509810Y289296D01*
X509795Y289246D01*
X509797Y289174D01*
X509789Y289103D01*
X509800Y289052D01*
X509801Y289000D01*
X509826Y288933D01*
X509841Y288863D01*
X509868Y288818D01*
X509886Y288769D01*
X509930Y288713D01*
X509967Y288652D01*
X510007Y288618D01*
X510039Y288577D01*
X510100Y288538D01*
X510154Y288492D01*
X510202Y288472D01*
X510246Y288444D01*
X510316Y288427D01*
X510382Y288400D01*
X510454Y288392D01*
X510485Y288384D01*
X510508Y288386D01*
X510549Y288381D01*
X510849Y288381D01*
X510939Y288396D01*
X511030Y288403D01*
X511059Y288416D01*
X511091Y288421D01*
X511172Y288464D01*
X511256Y288499D01*
X511288Y288525D01*
X511309Y288536D01*
X511331Y288559D01*
X511387Y288604D01*
X513739Y290957D01*
X518136Y290957D01*
X521244Y287848D01*
X521244Y283452D01*
X518136Y280343D01*
X513739Y280343D01*
X513038Y281045D01*
X512964Y281098D01*
X512894Y281157D01*
X512864Y281170D01*
X512838Y281188D01*
X512751Y281215D01*
X512666Y281249D01*
X512625Y281254D01*
X512603Y281261D01*
X512571Y281260D01*
X512500Y281268D01*
X502506Y281268D01*
X502435Y281256D01*
X502363Y281254D01*
X502315Y281236D01*
X502263Y281228D01*
X502200Y281194D01*
X502132Y281170D01*
X502092Y281137D01*
X502046Y281113D01*
X501996Y281061D01*
X501940Y281016D01*
X501912Y280972D01*
X501876Y280935D01*
X501846Y280870D01*
X501807Y280809D01*
X501795Y280759D01*
X501773Y280712D01*
X501765Y280640D01*
X501747Y280571D01*
X501751Y280519D01*
X501746Y280467D01*
X501761Y280397D01*
X501767Y280326D01*
X501787Y280278D01*
X501798Y280227D01*
X501835Y280165D01*
X501863Y280099D01*
X501908Y280043D01*
X501924Y280016D01*
X501942Y280000D01*
X501968Y279968D01*
X502540Y279396D01*
X502540Y279111D01*
X502550Y279046D01*
X502551Y278981D01*
X502574Y278901D01*
X502579Y278868D01*
X502589Y278851D01*
X502598Y278820D01*
X503194Y277379D01*
X503194Y275882D01*
X503199Y275852D01*
X503198Y275840D01*
X503209Y275786D01*
X503216Y275701D01*
X503229Y275671D01*
X503234Y275639D01*
X503247Y275615D01*
X503250Y275600D01*
X503282Y275546D01*
X503312Y275475D01*
X503338Y275443D01*
X503349Y275422D01*
X503366Y275406D01*
X503376Y275389D01*
X503392Y275375D01*
X503417Y275344D01*
X504127Y274634D01*
X504127Y268598D01*
X504130Y268579D01*
X504128Y268559D01*
X504150Y268458D01*
X504167Y268356D01*
X504176Y268338D01*
X504181Y268319D01*
X504234Y268230D01*
X504282Y268138D01*
X504296Y268125D01*
X504307Y268108D01*
X504385Y268040D01*
X504460Y267969D01*
X504478Y267961D01*
X504494Y267948D01*
X504590Y267909D01*
X504683Y267865D01*
X504703Y267863D01*
X504722Y267856D01*
X504888Y267837D01*
X505694Y267837D01*
X506587Y266944D01*
X506587Y254681D01*
X505694Y253788D01*
X494431Y253788D01*
X493538Y254681D01*
X493538Y266944D01*
X494431Y267837D01*
X495237Y267837D01*
X495256Y267840D01*
X495276Y267838D01*
X495377Y267860D01*
X495479Y267877D01*
X495497Y267886D01*
X495516Y267891D01*
X495605Y267944D01*
X495697Y267992D01*
X495710Y268006D01*
X495727Y268017D01*
X495795Y268095D01*
X495866Y268170D01*
X495874Y268188D01*
X495887Y268204D01*
X495926Y268300D01*
X495970Y268393D01*
X495972Y268413D01*
X495979Y268432D01*
X495998Y268598D01*
X495998Y269159D01*
X495979Y269273D01*
X495962Y269389D01*
X495959Y269395D01*
X495958Y269401D01*
X495904Y269504D01*
X495850Y269609D01*
X495846Y269613D01*
X495843Y269619D01*
X495759Y269699D01*
X495675Y269781D01*
X495668Y269785D01*
X495665Y269788D01*
X495648Y269796D01*
X495528Y269862D01*
X493315Y270778D01*
X491685Y272409D01*
X491611Y272462D01*
X491541Y272521D01*
X491511Y272534D01*
X491485Y272552D01*
X491398Y272579D01*
X491313Y272613D01*
X491272Y272618D01*
X491250Y272625D01*
X491218Y272624D01*
X491146Y272632D01*
X488950Y272632D01*
X488930Y272629D01*
X488911Y272631D01*
X488809Y272609D01*
X488707Y272592D01*
X488690Y272583D01*
X488670Y272578D01*
X488581Y272525D01*
X488490Y272477D01*
X488476Y272463D01*
X488459Y272452D01*
X488392Y272374D01*
X488320Y272299D01*
X488312Y272281D01*
X488299Y272265D01*
X488260Y272169D01*
X488217Y272076D01*
X488215Y272056D01*
X488207Y272037D01*
X488189Y271871D01*
X488189Y265651D01*
X487296Y264758D01*
X484124Y264758D01*
X484104Y264755D01*
X484085Y264757D01*
X483983Y264735D01*
X483881Y264718D01*
X483864Y264709D01*
X483844Y264704D01*
X483755Y264651D01*
X483664Y264603D01*
X483650Y264589D01*
X483633Y264578D01*
X483566Y264500D01*
X483494Y264425D01*
X483486Y264407D01*
X483473Y264391D01*
X483434Y264295D01*
X483391Y264202D01*
X483389Y264182D01*
X483381Y264163D01*
X483363Y263997D01*
X483363Y150489D01*
X471584Y138710D01*
X450754Y138710D01*
G37*
%LPD*%
%LPC*%
G36*
X433820Y313181D02*
X433820Y313181D01*
X431686Y314065D01*
X430052Y315698D01*
X429168Y317832D01*
X429168Y320143D01*
X429963Y322062D01*
X429972Y322098D01*
X429978Y322111D01*
X429980Y322129D01*
X430003Y322187D01*
X430012Y322269D01*
X430019Y322301D01*
X430018Y322321D01*
X430021Y322353D01*
X430021Y328259D01*
X430018Y328278D01*
X430020Y328298D01*
X429998Y328399D01*
X429982Y328501D01*
X429972Y328519D01*
X429968Y328538D01*
X429915Y328627D01*
X429866Y328719D01*
X429852Y328732D01*
X429842Y328749D01*
X429763Y328817D01*
X429688Y328888D01*
X429670Y328896D01*
X429655Y328909D01*
X429559Y328948D01*
X429465Y328992D01*
X429445Y328994D01*
X429427Y329001D01*
X429260Y329020D01*
X423040Y329020D01*
X422686Y329374D01*
X422670Y329386D01*
X422658Y329401D01*
X422571Y329457D01*
X422487Y329517D01*
X422468Y329523D01*
X422451Y329534D01*
X422350Y329559D01*
X422251Y329590D01*
X422232Y329589D01*
X422212Y329594D01*
X422109Y329586D01*
X422006Y329583D01*
X421987Y329577D01*
X421967Y329575D01*
X421872Y329535D01*
X421775Y329499D01*
X421759Y329487D01*
X421741Y329479D01*
X421610Y329374D01*
X421256Y329020D01*
X414912Y329020D01*
X414685Y329247D01*
X414669Y329259D01*
X414657Y329274D01*
X414570Y329330D01*
X414486Y329390D01*
X414467Y329396D01*
X414450Y329407D01*
X414349Y329432D01*
X414251Y329463D01*
X414231Y329462D01*
X414211Y329467D01*
X414108Y329459D01*
X414005Y329456D01*
X413986Y329450D01*
X413966Y329448D01*
X413871Y329408D01*
X413774Y329372D01*
X413758Y329360D01*
X413740Y329352D01*
X413609Y329247D01*
X413382Y329020D01*
X407038Y329020D01*
X406145Y329913D01*
X406145Y345908D01*
X406430Y346193D01*
X406484Y346267D01*
X406543Y346336D01*
X406555Y346367D01*
X406574Y346393D01*
X406601Y346480D01*
X406635Y346565D01*
X406639Y346606D01*
X406646Y346628D01*
X406645Y346660D01*
X406653Y346731D01*
X406653Y352107D01*
X406650Y352127D01*
X406652Y352146D01*
X406630Y352248D01*
X406614Y352350D01*
X406604Y352367D01*
X406600Y352387D01*
X406547Y352476D01*
X406498Y352567D01*
X406484Y352581D01*
X406474Y352598D01*
X406395Y352665D01*
X406320Y352737D01*
X406302Y352745D01*
X406287Y352758D01*
X406191Y352797D01*
X406097Y352840D01*
X406077Y352842D01*
X406059Y352850D01*
X405892Y352868D01*
X405245Y352868D01*
X403111Y353752D01*
X401477Y355386D01*
X400593Y357520D01*
X400593Y359830D01*
X401477Y361964D01*
X403111Y363598D01*
X405245Y364482D01*
X407555Y364482D01*
X409689Y363598D01*
X411323Y361964D01*
X412207Y359830D01*
X412207Y358214D01*
X412221Y358124D01*
X412229Y358033D01*
X412241Y358003D01*
X412246Y357971D01*
X412289Y357890D01*
X412325Y357806D01*
X412351Y357774D01*
X412362Y357753D01*
X412385Y357731D01*
X412430Y357675D01*
X412720Y357385D01*
X412778Y357343D01*
X412830Y357294D01*
X412877Y357272D01*
X412919Y357242D01*
X412988Y357221D01*
X413053Y357190D01*
X413105Y357185D01*
X413155Y357169D01*
X413226Y357171D01*
X413297Y357163D01*
X413348Y357174D01*
X413400Y357176D01*
X413468Y357200D01*
X413538Y357216D01*
X413583Y357242D01*
X413631Y357260D01*
X413687Y357305D01*
X413749Y357342D01*
X413783Y357381D01*
X413823Y357414D01*
X413862Y357474D01*
X413909Y357529D01*
X413928Y357577D01*
X413956Y357621D01*
X413974Y357690D01*
X414001Y357757D01*
X414009Y357828D01*
X414017Y357859D01*
X414015Y357883D01*
X414019Y357924D01*
X414019Y411667D01*
X414005Y411757D01*
X413997Y411848D01*
X413985Y411878D01*
X413980Y411910D01*
X413937Y411990D01*
X413901Y412074D01*
X413875Y412106D01*
X413864Y412127D01*
X413841Y412149D01*
X413796Y412205D01*
X370585Y455416D01*
X370585Y478857D01*
X370566Y478972D01*
X370549Y479088D01*
X370547Y479093D01*
X370546Y479100D01*
X370491Y479202D01*
X370438Y479307D01*
X370433Y479311D01*
X370430Y479317D01*
X370346Y479397D01*
X370262Y479479D01*
X370256Y479483D01*
X370252Y479486D01*
X370235Y479494D01*
X370115Y479560D01*
X369470Y479827D01*
X366897Y482400D01*
X365505Y485761D01*
X365505Y504639D01*
X366897Y508000D01*
X369470Y510573D01*
X372831Y511965D01*
X376469Y511965D01*
X379830Y510573D01*
X382403Y508000D01*
X383795Y504639D01*
X383795Y485761D01*
X382403Y482400D01*
X379830Y479827D01*
X379185Y479560D01*
X379085Y479499D01*
X378985Y479439D01*
X378981Y479434D01*
X378976Y479431D01*
X378901Y479340D01*
X378825Y479252D01*
X378823Y479246D01*
X378819Y479241D01*
X378777Y479133D01*
X378733Y479024D01*
X378732Y479016D01*
X378731Y479011D01*
X378730Y478993D01*
X378715Y478857D01*
X378715Y459099D01*
X378729Y459009D01*
X378737Y458918D01*
X378749Y458888D01*
X378754Y458856D01*
X378797Y458776D01*
X378833Y458692D01*
X378859Y458660D01*
X378870Y458639D01*
X378893Y458617D01*
X378938Y458561D01*
X394686Y442813D01*
X394744Y442771D01*
X394796Y442721D01*
X394815Y442712D01*
X394826Y442704D01*
X394853Y442693D01*
X394885Y442669D01*
X394954Y442648D01*
X395019Y442618D01*
X395046Y442615D01*
X395054Y442612D01*
X395082Y442609D01*
X395121Y442597D01*
X395176Y442598D01*
X395220Y442593D01*
X395224Y442593D01*
X395231Y442594D01*
X395263Y442591D01*
X395314Y442602D01*
X395366Y442603D01*
X395433Y442627D01*
X395467Y442633D01*
X395473Y442636D01*
X395504Y442643D01*
X395549Y442670D01*
X395597Y442688D01*
X395651Y442731D01*
X395684Y442748D01*
X395690Y442754D01*
X395715Y442769D01*
X395749Y442809D01*
X395789Y442841D01*
X395825Y442896D01*
X395854Y442926D01*
X395858Y442937D01*
X395875Y442956D01*
X395894Y443004D01*
X395922Y443048D01*
X395937Y443106D01*
X395957Y443149D01*
X395959Y443164D01*
X395967Y443184D01*
X395975Y443256D01*
X395983Y443287D01*
X395981Y443310D01*
X395985Y443351D01*
X395985Y478857D01*
X395966Y478972D01*
X395949Y479088D01*
X395947Y479093D01*
X395946Y479100D01*
X395891Y479202D01*
X395838Y479307D01*
X395833Y479311D01*
X395830Y479317D01*
X395746Y479397D01*
X395662Y479479D01*
X395656Y479483D01*
X395652Y479486D01*
X395635Y479494D01*
X395515Y479560D01*
X394870Y479827D01*
X392297Y482400D01*
X390905Y485761D01*
X390905Y504639D01*
X392297Y508000D01*
X394870Y510573D01*
X398231Y511965D01*
X401869Y511965D01*
X405230Y510573D01*
X407803Y508000D01*
X409195Y504639D01*
X409195Y485761D01*
X407803Y482400D01*
X405230Y479827D01*
X404585Y479560D01*
X404485Y479499D01*
X404385Y479439D01*
X404381Y479434D01*
X404376Y479431D01*
X404301Y479340D01*
X404225Y479252D01*
X404223Y479246D01*
X404219Y479241D01*
X404177Y479133D01*
X404133Y479024D01*
X404132Y479016D01*
X404131Y479011D01*
X404130Y478993D01*
X404115Y478857D01*
X404115Y446399D01*
X404118Y446379D01*
X404116Y446360D01*
X404131Y446290D01*
X404137Y446218D01*
X404149Y446188D01*
X404154Y446156D01*
X404164Y446138D01*
X404168Y446120D01*
X404204Y446059D01*
X404233Y445992D01*
X404259Y445960D01*
X404270Y445939D01*
X404285Y445925D01*
X404294Y445909D01*
X404311Y445894D01*
X404338Y445861D01*
X420086Y430113D01*
X420144Y430071D01*
X420196Y430021D01*
X420243Y429999D01*
X420285Y429969D01*
X420354Y429948D01*
X420419Y429918D01*
X420471Y429912D01*
X420521Y429897D01*
X420592Y429899D01*
X420663Y429891D01*
X420714Y429902D01*
X420766Y429903D01*
X420834Y429928D01*
X420904Y429943D01*
X420949Y429970D01*
X420997Y429988D01*
X421053Y430032D01*
X421115Y430069D01*
X421149Y430109D01*
X421189Y430141D01*
X421228Y430202D01*
X421275Y430256D01*
X421294Y430304D01*
X421322Y430348D01*
X421340Y430418D01*
X421367Y430484D01*
X421375Y430556D01*
X421383Y430587D01*
X421381Y430610D01*
X421385Y430651D01*
X421385Y478857D01*
X421366Y478972D01*
X421349Y479088D01*
X421347Y479093D01*
X421346Y479100D01*
X421291Y479202D01*
X421238Y479307D01*
X421233Y479311D01*
X421230Y479317D01*
X421146Y479397D01*
X421062Y479479D01*
X421056Y479483D01*
X421052Y479486D01*
X421035Y479494D01*
X420915Y479560D01*
X420270Y479827D01*
X417697Y482400D01*
X416305Y485761D01*
X416305Y504639D01*
X417697Y508000D01*
X420270Y510573D01*
X423631Y511965D01*
X427269Y511965D01*
X430630Y510573D01*
X433203Y508000D01*
X434595Y504639D01*
X434595Y485761D01*
X433203Y482400D01*
X430630Y479827D01*
X429985Y479560D01*
X429885Y479499D01*
X429785Y479439D01*
X429781Y479434D01*
X429776Y479431D01*
X429701Y479340D01*
X429625Y479252D01*
X429623Y479246D01*
X429619Y479241D01*
X429577Y479133D01*
X429533Y479024D01*
X429532Y479016D01*
X429531Y479011D01*
X429530Y478993D01*
X429515Y478857D01*
X429515Y433699D01*
X429529Y433609D01*
X429537Y433518D01*
X429549Y433488D01*
X429554Y433456D01*
X429597Y433376D01*
X429633Y433292D01*
X429659Y433260D01*
X429670Y433239D01*
X429693Y433217D01*
X429738Y433161D01*
X444724Y418175D01*
X444782Y418133D01*
X444834Y418083D01*
X444881Y418061D01*
X444923Y418031D01*
X444992Y418010D01*
X445057Y417980D01*
X445109Y417974D01*
X445159Y417959D01*
X445230Y417961D01*
X445301Y417953D01*
X445352Y417964D01*
X445404Y417965D01*
X445472Y417990D01*
X445542Y418005D01*
X445587Y418032D01*
X445635Y418050D01*
X445691Y418094D01*
X445753Y418131D01*
X445787Y418171D01*
X445827Y418203D01*
X445866Y418264D01*
X445913Y418318D01*
X445932Y418366D01*
X445960Y418410D01*
X445978Y418480D01*
X446005Y418546D01*
X446013Y418618D01*
X446021Y418649D01*
X446019Y418672D01*
X446023Y418713D01*
X446023Y479172D01*
X446004Y479287D01*
X445987Y479403D01*
X445985Y479409D01*
X445984Y479415D01*
X445929Y479518D01*
X445876Y479623D01*
X445871Y479627D01*
X445868Y479633D01*
X445784Y479712D01*
X445780Y479717D01*
X445777Y479720D01*
X443097Y482400D01*
X441705Y485761D01*
X441705Y504639D01*
X443097Y508000D01*
X445670Y510573D01*
X449031Y511965D01*
X452669Y511965D01*
X456030Y510573D01*
X458603Y508000D01*
X459995Y504639D01*
X459995Y485761D01*
X458603Y482400D01*
X456030Y479827D01*
X454623Y479245D01*
X454523Y479183D01*
X454423Y479123D01*
X454419Y479118D01*
X454414Y479115D01*
X454339Y479025D01*
X454263Y478936D01*
X454261Y478930D01*
X454257Y478925D01*
X454215Y478817D01*
X454171Y478708D01*
X454170Y478700D01*
X454169Y478696D01*
X454168Y478678D01*
X454153Y478541D01*
X454153Y418776D01*
X454164Y418706D01*
X454166Y418634D01*
X454184Y418585D01*
X454192Y418534D01*
X454226Y418470D01*
X454251Y418403D01*
X454283Y418362D01*
X454308Y418316D01*
X454360Y418267D01*
X454404Y418211D01*
X454448Y418183D01*
X454486Y418147D01*
X454551Y418117D01*
X454611Y418078D01*
X454662Y418065D01*
X454709Y418043D01*
X454780Y418035D01*
X454850Y418018D01*
X454902Y418022D01*
X454953Y418016D01*
X455024Y418031D01*
X455095Y418037D01*
X455143Y418057D01*
X455194Y418068D01*
X455255Y418105D01*
X455321Y418133D01*
X455377Y418178D01*
X455405Y418195D01*
X455420Y418212D01*
X455452Y418238D01*
X471962Y434748D01*
X472015Y434822D01*
X472075Y434892D01*
X472087Y434922D01*
X472106Y434948D01*
X472133Y435035D01*
X472167Y435120D01*
X472171Y435161D01*
X472178Y435183D01*
X472177Y435215D01*
X472185Y435286D01*
X472185Y478857D01*
X472166Y478972D01*
X472149Y479088D01*
X472147Y479093D01*
X472146Y479100D01*
X472091Y479202D01*
X472038Y479307D01*
X472033Y479311D01*
X472030Y479317D01*
X471946Y479397D01*
X471862Y479479D01*
X471856Y479483D01*
X471852Y479486D01*
X471835Y479494D01*
X471715Y479560D01*
X471070Y479827D01*
X468497Y482400D01*
X467105Y485761D01*
X467105Y504639D01*
X468497Y508000D01*
X471070Y510573D01*
X474431Y511965D01*
X478069Y511965D01*
X481430Y510573D01*
X484003Y508000D01*
X485395Y504639D01*
X485395Y485761D01*
X484003Y482400D01*
X481430Y479827D01*
X480785Y479560D01*
X480685Y479499D01*
X480585Y479439D01*
X480581Y479434D01*
X480576Y479431D01*
X480501Y479340D01*
X480425Y479252D01*
X480423Y479246D01*
X480419Y479241D01*
X480377Y479133D01*
X480333Y479024D01*
X480332Y479016D01*
X480331Y479011D01*
X480330Y478993D01*
X480315Y478857D01*
X480315Y433826D01*
X480326Y433755D01*
X480328Y433683D01*
X480346Y433635D01*
X480354Y433583D01*
X480388Y433520D01*
X480413Y433452D01*
X480445Y433412D01*
X480470Y433366D01*
X480522Y433316D01*
X480566Y433260D01*
X480610Y433232D01*
X480648Y433196D01*
X480713Y433166D01*
X480773Y433127D01*
X480824Y433115D01*
X480871Y433093D01*
X480942Y433085D01*
X481012Y433067D01*
X481064Y433071D01*
X481115Y433066D01*
X481186Y433081D01*
X481257Y433087D01*
X481305Y433107D01*
X481356Y433118D01*
X481417Y433155D01*
X481483Y433183D01*
X481539Y433228D01*
X481567Y433244D01*
X481582Y433262D01*
X481614Y433288D01*
X497362Y449036D01*
X497415Y449110D01*
X497475Y449179D01*
X497487Y449209D01*
X497506Y449235D01*
X497533Y449322D01*
X497567Y449407D01*
X497571Y449448D01*
X497578Y449471D01*
X497577Y449503D01*
X497585Y449574D01*
X497585Y478857D01*
X497566Y478972D01*
X497549Y479088D01*
X497547Y479093D01*
X497546Y479100D01*
X497491Y479202D01*
X497438Y479307D01*
X497433Y479311D01*
X497430Y479317D01*
X497346Y479397D01*
X497262Y479479D01*
X497256Y479483D01*
X497252Y479486D01*
X497235Y479494D01*
X497115Y479560D01*
X496470Y479827D01*
X493897Y482400D01*
X492505Y485761D01*
X492505Y504639D01*
X493897Y508000D01*
X496470Y510573D01*
X499831Y511965D01*
X503469Y511965D01*
X506830Y510573D01*
X509403Y508000D01*
X510795Y504639D01*
X510795Y485761D01*
X509403Y482400D01*
X506830Y479827D01*
X506185Y479560D01*
X506085Y479499D01*
X505985Y479439D01*
X505981Y479434D01*
X505976Y479431D01*
X505901Y479340D01*
X505825Y479252D01*
X505823Y479246D01*
X505819Y479241D01*
X505777Y479133D01*
X505733Y479024D01*
X505732Y479016D01*
X505731Y479011D01*
X505730Y478993D01*
X505715Y478857D01*
X505715Y445891D01*
X470378Y410554D01*
X470325Y410480D01*
X470265Y410411D01*
X470253Y410381D01*
X470234Y410355D01*
X470207Y410268D01*
X470173Y410183D01*
X470169Y410142D01*
X470162Y410119D01*
X470163Y410087D01*
X470155Y410016D01*
X470155Y329913D01*
X469262Y329020D01*
X462918Y329020D01*
X462691Y329247D01*
X462675Y329259D01*
X462663Y329274D01*
X462576Y329330D01*
X462492Y329390D01*
X462473Y329396D01*
X462456Y329407D01*
X462355Y329432D01*
X462257Y329463D01*
X462237Y329462D01*
X462217Y329467D01*
X462114Y329459D01*
X462011Y329456D01*
X461992Y329450D01*
X461972Y329448D01*
X461877Y329408D01*
X461780Y329372D01*
X461764Y329360D01*
X461746Y329352D01*
X461615Y329247D01*
X461388Y329020D01*
X455044Y329020D01*
X454690Y329374D01*
X454674Y329386D01*
X454662Y329401D01*
X454575Y329457D01*
X454491Y329517D01*
X454472Y329523D01*
X454455Y329534D01*
X454354Y329559D01*
X454255Y329590D01*
X454236Y329589D01*
X454216Y329594D01*
X454113Y329586D01*
X454010Y329583D01*
X453991Y329577D01*
X453971Y329575D01*
X453876Y329535D01*
X453779Y329499D01*
X453763Y329487D01*
X453745Y329479D01*
X453614Y329374D01*
X453260Y329020D01*
X446916Y329020D01*
X446689Y329247D01*
X446673Y329259D01*
X446661Y329274D01*
X446574Y329330D01*
X446490Y329390D01*
X446471Y329396D01*
X446454Y329407D01*
X446353Y329432D01*
X446255Y329463D01*
X446235Y329462D01*
X446215Y329467D01*
X446112Y329459D01*
X446009Y329456D01*
X445990Y329450D01*
X445970Y329448D01*
X445875Y329408D01*
X445778Y329372D01*
X445762Y329360D01*
X445744Y329352D01*
X445613Y329247D01*
X445386Y329020D01*
X438912Y329020D01*
X438892Y329017D01*
X438873Y329019D01*
X438771Y328997D01*
X438669Y328980D01*
X438652Y328971D01*
X438632Y328966D01*
X438543Y328913D01*
X438452Y328865D01*
X438438Y328851D01*
X438421Y328840D01*
X438354Y328762D01*
X438282Y328687D01*
X438274Y328669D01*
X438261Y328653D01*
X438222Y328557D01*
X438179Y328464D01*
X438177Y328444D01*
X438169Y328425D01*
X438151Y328259D01*
X438151Y324339D01*
X438165Y324249D01*
X438173Y324158D01*
X438185Y324128D01*
X438190Y324096D01*
X438233Y324016D01*
X438269Y323932D01*
X438295Y323900D01*
X438306Y323879D01*
X438329Y323857D01*
X438374Y323801D01*
X439898Y322277D01*
X440782Y320143D01*
X440782Y317832D01*
X439898Y315698D01*
X438264Y314065D01*
X436130Y313181D01*
X433820Y313181D01*
G37*
%LPD*%
%LPC*%
G36*
X479293Y301893D02*
X479293Y301893D01*
X479218Y301964D01*
X479200Y301972D01*
X479185Y301985D01*
X479088Y302024D01*
X478995Y302068D01*
X478975Y302070D01*
X478957Y302077D01*
X478790Y302096D01*
X469391Y302096D01*
X469391Y303701D01*
X469564Y304347D01*
X469899Y304927D01*
X470184Y305212D01*
X470237Y305286D01*
X470297Y305355D01*
X470309Y305386D01*
X470328Y305412D01*
X470355Y305499D01*
X470389Y305584D01*
X470393Y305624D01*
X470400Y305647D01*
X470399Y305679D01*
X470407Y305750D01*
X470407Y311872D01*
X470761Y312226D01*
X470773Y312242D01*
X470789Y312255D01*
X470845Y312342D01*
X470905Y312426D01*
X470911Y312445D01*
X470922Y312462D01*
X470947Y312562D01*
X470977Y312661D01*
X470977Y312681D01*
X470982Y312700D01*
X470974Y312803D01*
X470971Y312907D01*
X470964Y312926D01*
X470963Y312945D01*
X470922Y313040D01*
X470887Y313138D01*
X470874Y313153D01*
X470866Y313172D01*
X470761Y313303D01*
X470407Y313657D01*
X470407Y320000D01*
X470634Y320227D01*
X470646Y320243D01*
X470662Y320256D01*
X470718Y320343D01*
X470778Y320427D01*
X470784Y320446D01*
X470795Y320463D01*
X470820Y320563D01*
X470850Y320662D01*
X470850Y320682D01*
X470855Y320701D01*
X470847Y320804D01*
X470844Y320908D01*
X470837Y320927D01*
X470836Y320946D01*
X470795Y321041D01*
X470760Y321139D01*
X470747Y321155D01*
X470739Y321173D01*
X470650Y321284D01*
X470634Y321304D01*
X470407Y321531D01*
X470407Y327874D01*
X471300Y328767D01*
X483859Y328767D01*
X483950Y328782D01*
X484040Y328789D01*
X484070Y328802D01*
X484102Y328807D01*
X484183Y328850D01*
X484267Y328885D01*
X484299Y328911D01*
X484320Y328922D01*
X484342Y328945D01*
X484398Y328990D01*
X552564Y397157D01*
X627424Y397157D01*
X627514Y397171D01*
X627605Y397179D01*
X627635Y397191D01*
X627667Y397196D01*
X627747Y397239D01*
X627831Y397275D01*
X627863Y397301D01*
X627884Y397312D01*
X627906Y397335D01*
X627962Y397380D01*
X710302Y479720D01*
X710355Y479794D01*
X710415Y479863D01*
X710427Y479893D01*
X710446Y479920D01*
X710473Y480006D01*
X710507Y480091D01*
X710511Y480132D01*
X710518Y480155D01*
X710517Y480187D01*
X710525Y480258D01*
X710525Y487569D01*
X711418Y488462D01*
X723682Y488462D01*
X724575Y487569D01*
X724575Y476306D01*
X723682Y475413D01*
X716371Y475413D01*
X716280Y475398D01*
X716190Y475391D01*
X716160Y475378D01*
X716128Y475373D01*
X716047Y475330D01*
X715963Y475295D01*
X715931Y475269D01*
X715910Y475258D01*
X715888Y475235D01*
X715832Y475190D01*
X632749Y392106D01*
X632707Y392048D01*
X632658Y391996D01*
X632636Y391949D01*
X632605Y391907D01*
X632584Y391838D01*
X632554Y391773D01*
X632548Y391721D01*
X632533Y391671D01*
X632535Y391600D01*
X632527Y391529D01*
X632538Y391478D01*
X632539Y391426D01*
X632564Y391358D01*
X632579Y391288D01*
X632606Y391244D01*
X632624Y391195D01*
X632669Y391139D01*
X632705Y391077D01*
X632745Y391043D01*
X632777Y391003D01*
X632838Y390964D01*
X632892Y390917D01*
X632940Y390898D01*
X632984Y390870D01*
X633054Y390852D01*
X633120Y390825D01*
X633192Y390817D01*
X633223Y390809D01*
X633246Y390811D01*
X633287Y390807D01*
X651236Y390807D01*
X651327Y390821D01*
X651417Y390829D01*
X651447Y390841D01*
X651479Y390846D01*
X651560Y390889D01*
X651644Y390925D01*
X651676Y390951D01*
X651697Y390962D01*
X651716Y390982D01*
X651718Y390983D01*
X651723Y390989D01*
X651775Y391030D01*
X740465Y479720D01*
X740518Y479794D01*
X740577Y479863D01*
X740590Y479893D01*
X740608Y479920D01*
X740635Y480006D01*
X740669Y480091D01*
X740674Y480132D01*
X740681Y480155D01*
X740680Y480187D01*
X740688Y480258D01*
X740688Y487569D01*
X741581Y488462D01*
X753844Y488462D01*
X754737Y487569D01*
X754737Y476306D01*
X753844Y475413D01*
X746533Y475413D01*
X746443Y475398D01*
X746352Y475391D01*
X746322Y475378D01*
X746290Y475373D01*
X746210Y475330D01*
X746126Y475295D01*
X746094Y475269D01*
X746073Y475258D01*
X746051Y475235D01*
X745995Y475190D01*
X654498Y383693D01*
X565351Y383693D01*
X565261Y383679D01*
X565170Y383671D01*
X565140Y383659D01*
X565108Y383654D01*
X565028Y383611D01*
X564944Y383575D01*
X564912Y383549D01*
X564891Y383538D01*
X564869Y383515D01*
X564813Y383470D01*
X494899Y313557D01*
X494857Y313499D01*
X494808Y313447D01*
X494786Y313399D01*
X494756Y313357D01*
X494735Y313289D01*
X494704Y313223D01*
X494699Y313172D01*
X494683Y313122D01*
X494685Y313050D01*
X494677Y312979D01*
X494688Y312928D01*
X494690Y312876D01*
X494714Y312809D01*
X494730Y312739D01*
X494756Y312694D01*
X494774Y312645D01*
X494819Y312589D01*
X494856Y312528D01*
X494895Y312494D01*
X494928Y312453D01*
X494988Y312414D01*
X495043Y312368D01*
X495091Y312348D01*
X495135Y312320D01*
X495204Y312303D01*
X495271Y312276D01*
X495342Y312268D01*
X495373Y312260D01*
X495397Y312262D01*
X495438Y312257D01*
X501387Y312257D01*
X501477Y312272D01*
X501568Y312279D01*
X501598Y312292D01*
X501630Y312297D01*
X501710Y312340D01*
X501794Y312375D01*
X501826Y312401D01*
X501847Y312412D01*
X501869Y312435D01*
X501925Y312480D01*
X504214Y314769D01*
X508611Y314769D01*
X511719Y311661D01*
X511719Y307264D01*
X508611Y304156D01*
X504214Y304156D01*
X503449Y304921D01*
X503375Y304974D01*
X503306Y305033D01*
X503276Y305046D01*
X503250Y305064D01*
X503163Y305091D01*
X503078Y305125D01*
X503037Y305130D01*
X503015Y305137D01*
X502982Y305136D01*
X502911Y305144D01*
X489810Y305144D01*
X489694Y305125D01*
X489575Y305107D01*
X489572Y305105D01*
X489567Y305104D01*
X489463Y305049D01*
X489357Y304994D01*
X489354Y304991D01*
X489350Y304989D01*
X489269Y304903D01*
X489185Y304817D01*
X489184Y304814D01*
X489181Y304811D01*
X489131Y304703D01*
X489079Y304595D01*
X489079Y304591D01*
X489077Y304588D01*
X489064Y304470D01*
X489050Y304351D01*
X489050Y304346D01*
X489050Y304343D01*
X489053Y304329D01*
X489075Y304185D01*
X489205Y303701D01*
X489205Y302096D01*
X479806Y302096D01*
X479787Y302093D01*
X479767Y302095D01*
X479665Y302073D01*
X479563Y302056D01*
X479546Y302047D01*
X479526Y302042D01*
X479437Y301989D01*
X479346Y301941D01*
X479332Y301927D01*
X479315Y301916D01*
X479294Y301892D01*
X479293Y301893D01*
G37*
%LPD*%
%LPC*%
G36*
X599768Y404038D02*
X599768Y404038D01*
X598875Y404931D01*
X598875Y417194D01*
X599768Y418087D01*
X611032Y418087D01*
X611569Y417550D01*
X611585Y417539D01*
X611597Y417523D01*
X611685Y417467D01*
X611768Y417407D01*
X611787Y417401D01*
X611804Y417390D01*
X611905Y417365D01*
X612003Y417334D01*
X612023Y417335D01*
X612043Y417330D01*
X612146Y417338D01*
X612249Y417341D01*
X612268Y417348D01*
X612288Y417349D01*
X612383Y417389D01*
X612480Y417425D01*
X612496Y417438D01*
X612514Y417445D01*
X612645Y417550D01*
X616933Y421838D01*
X616986Y421912D01*
X617045Y421981D01*
X617057Y422011D01*
X617076Y422038D01*
X617103Y422125D01*
X617137Y422209D01*
X617142Y422250D01*
X617149Y422273D01*
X617148Y422305D01*
X617156Y422376D01*
X617156Y423914D01*
X617153Y423934D01*
X617155Y423953D01*
X617133Y424055D01*
X617116Y424157D01*
X617107Y424174D01*
X617102Y424194D01*
X617049Y424283D01*
X617001Y424374D01*
X616987Y424388D01*
X616976Y424405D01*
X616898Y424472D01*
X616823Y424544D01*
X616805Y424552D01*
X616789Y424565D01*
X616693Y424604D01*
X616600Y424647D01*
X616580Y424649D01*
X616561Y424657D01*
X616395Y424675D01*
X614518Y424675D01*
X613625Y425568D01*
X613625Y437832D01*
X614518Y438725D01*
X616857Y438725D01*
X616877Y438728D01*
X616896Y438726D01*
X616998Y438748D01*
X617100Y438764D01*
X617117Y438774D01*
X617137Y438778D01*
X617226Y438831D01*
X617317Y438880D01*
X617331Y438894D01*
X617348Y438904D01*
X617415Y438983D01*
X617487Y439058D01*
X617495Y439076D01*
X617508Y439091D01*
X617547Y439187D01*
X617590Y439281D01*
X617592Y439301D01*
X617600Y439319D01*
X617618Y439486D01*
X617618Y441052D01*
X617615Y441071D01*
X617617Y441091D01*
X617595Y441192D01*
X617579Y441294D01*
X617569Y441312D01*
X617565Y441331D01*
X617512Y441420D01*
X617463Y441512D01*
X617449Y441525D01*
X617439Y441542D01*
X617360Y441610D01*
X617285Y441681D01*
X617267Y441689D01*
X617252Y441702D01*
X617156Y441741D01*
X617062Y441785D01*
X617042Y441787D01*
X617024Y441794D01*
X616857Y441813D01*
X613543Y441813D01*
X613313Y442043D01*
X613297Y442055D01*
X613285Y442070D01*
X613197Y442126D01*
X613114Y442186D01*
X613095Y442192D01*
X613078Y442203D01*
X612977Y442228D01*
X612878Y442259D01*
X612858Y442258D01*
X612839Y442263D01*
X612736Y442255D01*
X612633Y442252D01*
X612614Y442246D01*
X612594Y442244D01*
X612499Y442204D01*
X612402Y442168D01*
X612386Y442156D01*
X612368Y442148D01*
X612237Y442043D01*
X612007Y441813D01*
X608693Y441813D01*
X608673Y441810D01*
X608654Y441812D01*
X608552Y441790D01*
X608450Y441773D01*
X608433Y441764D01*
X608413Y441759D01*
X608324Y441706D01*
X608233Y441658D01*
X608219Y441644D01*
X608202Y441633D01*
X608135Y441555D01*
X608063Y441480D01*
X608055Y441462D01*
X608042Y441446D01*
X608003Y441350D01*
X607960Y441257D01*
X607958Y441237D01*
X607950Y441218D01*
X607932Y441052D01*
X607932Y439486D01*
X607935Y439466D01*
X607933Y439447D01*
X607955Y439345D01*
X607971Y439243D01*
X607981Y439226D01*
X607985Y439206D01*
X608038Y439117D01*
X608087Y439026D01*
X608101Y439012D01*
X608111Y438995D01*
X608190Y438928D01*
X608265Y438856D01*
X608283Y438848D01*
X608298Y438835D01*
X608394Y438796D01*
X608488Y438753D01*
X608508Y438751D01*
X608526Y438743D01*
X608693Y438725D01*
X611032Y438725D01*
X611925Y437832D01*
X611925Y425568D01*
X611032Y424675D01*
X599768Y424675D01*
X598875Y425568D01*
X598875Y437832D01*
X599768Y438725D01*
X600057Y438725D01*
X600077Y438728D01*
X600096Y438726D01*
X600198Y438748D01*
X600300Y438764D01*
X600317Y438774D01*
X600337Y438778D01*
X600426Y438831D01*
X600517Y438880D01*
X600531Y438894D01*
X600548Y438904D01*
X600615Y438983D01*
X600687Y439058D01*
X600695Y439076D01*
X600708Y439091D01*
X600747Y439187D01*
X600790Y439281D01*
X600792Y439301D01*
X600800Y439319D01*
X600818Y439486D01*
X600818Y441052D01*
X600815Y441071D01*
X600817Y441091D01*
X600795Y441192D01*
X600779Y441294D01*
X600769Y441312D01*
X600765Y441331D01*
X600712Y441420D01*
X600663Y441512D01*
X600649Y441525D01*
X600639Y441542D01*
X600560Y441610D01*
X600485Y441681D01*
X600467Y441689D01*
X600452Y441702D01*
X600356Y441741D01*
X600262Y441785D01*
X600242Y441787D01*
X600224Y441794D01*
X600057Y441813D01*
X596743Y441813D01*
X595850Y442706D01*
X595850Y461969D01*
X596743Y462862D01*
X600520Y462862D01*
X600539Y462865D01*
X600559Y462863D01*
X600660Y462885D01*
X600762Y462902D01*
X600780Y462911D01*
X600799Y462916D01*
X600888Y462969D01*
X600980Y463017D01*
X600993Y463031D01*
X601010Y463042D01*
X601078Y463120D01*
X601149Y463195D01*
X601157Y463213D01*
X601170Y463229D01*
X601209Y463325D01*
X601253Y463418D01*
X601255Y463438D01*
X601262Y463457D01*
X601281Y463623D01*
X601281Y464923D01*
X605820Y469463D01*
X605863Y469522D01*
X605909Y469570D01*
X605917Y469587D01*
X605933Y469606D01*
X605945Y469636D01*
X605964Y469663D01*
X605988Y469741D01*
X606012Y469793D01*
X606014Y469807D01*
X606025Y469834D01*
X606029Y469875D01*
X606036Y469898D01*
X606035Y469930D01*
X606043Y470001D01*
X606043Y478214D01*
X606040Y478234D01*
X606042Y478253D01*
X606020Y478355D01*
X606004Y478457D01*
X605994Y478474D01*
X605990Y478494D01*
X605937Y478583D01*
X605888Y478674D01*
X605874Y478688D01*
X605864Y478705D01*
X605785Y478772D01*
X605710Y478844D01*
X605692Y478852D01*
X605677Y478865D01*
X605581Y478904D01*
X605487Y478947D01*
X605467Y478949D01*
X605449Y478957D01*
X605282Y478975D01*
X600984Y478975D01*
X600894Y478961D01*
X600803Y478953D01*
X600773Y478941D01*
X600741Y478936D01*
X600660Y478893D01*
X600576Y478857D01*
X600544Y478831D01*
X600524Y478820D01*
X600501Y478797D01*
X600445Y478752D01*
X600160Y478467D01*
X599581Y478132D01*
X598934Y477959D01*
X597599Y477959D01*
X597599Y487012D01*
X597596Y487031D01*
X597598Y487051D01*
X597576Y487153D01*
X597560Y487255D01*
X597559Y487256D01*
X597571Y487283D01*
X597573Y487303D01*
X597581Y487321D01*
X597599Y487488D01*
X597599Y496541D01*
X598934Y496541D01*
X599581Y496368D01*
X600160Y496033D01*
X600445Y495748D01*
X600519Y495695D01*
X600589Y495635D01*
X600619Y495623D01*
X600645Y495604D01*
X600732Y495577D01*
X600817Y495543D01*
X600858Y495539D01*
X600880Y495532D01*
X600912Y495533D01*
X600984Y495525D01*
X605732Y495525D01*
X605812Y495445D01*
X605828Y495433D01*
X605840Y495417D01*
X605928Y495361D01*
X606011Y495301D01*
X606030Y495295D01*
X606047Y495284D01*
X606148Y495259D01*
X606247Y495229D01*
X606267Y495229D01*
X606286Y495224D01*
X606389Y495232D01*
X606492Y495235D01*
X606511Y495242D01*
X606531Y495243D01*
X606626Y495284D01*
X606723Y495319D01*
X606739Y495332D01*
X606757Y495340D01*
X606888Y495445D01*
X606968Y495525D01*
X612232Y495525D01*
X612312Y495445D01*
X612328Y495433D01*
X612340Y495417D01*
X612427Y495361D01*
X612511Y495301D01*
X612530Y495295D01*
X612547Y495284D01*
X612648Y495259D01*
X612746Y495229D01*
X612766Y495229D01*
X612786Y495224D01*
X612889Y495232D01*
X612992Y495235D01*
X613011Y495242D01*
X613031Y495243D01*
X613126Y495284D01*
X613223Y495319D01*
X613239Y495332D01*
X613257Y495340D01*
X613388Y495445D01*
X613468Y495525D01*
X618732Y495525D01*
X618812Y495445D01*
X618828Y495433D01*
X618840Y495417D01*
X618928Y495361D01*
X619011Y495301D01*
X619030Y495295D01*
X619047Y495284D01*
X619148Y495259D01*
X619247Y495229D01*
X619267Y495229D01*
X619286Y495224D01*
X619389Y495232D01*
X619492Y495235D01*
X619511Y495242D01*
X619531Y495243D01*
X619626Y495284D01*
X619723Y495319D01*
X619739Y495332D01*
X619757Y495340D01*
X619888Y495445D01*
X619968Y495525D01*
X625232Y495525D01*
X626125Y494632D01*
X626125Y493808D01*
X626136Y493737D01*
X626138Y493666D01*
X626156Y493617D01*
X626164Y493565D01*
X626198Y493502D01*
X626223Y493435D01*
X626255Y493394D01*
X626280Y493348D01*
X626332Y493299D01*
X626376Y493243D01*
X626420Y493215D01*
X626458Y493179D01*
X626523Y493148D01*
X626583Y493110D01*
X626634Y493097D01*
X626681Y493075D01*
X626752Y493067D01*
X626822Y493050D01*
X626874Y493054D01*
X626925Y493048D01*
X626996Y493063D01*
X627067Y493069D01*
X627115Y493089D01*
X627166Y493100D01*
X627227Y493137D01*
X627293Y493165D01*
X627349Y493210D01*
X627377Y493226D01*
X627392Y493244D01*
X627424Y493270D01*
X628652Y494498D01*
X630180Y495519D01*
X631878Y496222D01*
X633077Y496461D01*
X633077Y488012D01*
X633080Y487992D01*
X633078Y487973D01*
X633100Y487871D01*
X633117Y487769D01*
X633126Y487752D01*
X633130Y487732D01*
X633183Y487643D01*
X633232Y487552D01*
X633246Y487538D01*
X633256Y487521D01*
X633335Y487454D01*
X633410Y487383D01*
X633428Y487374D01*
X633443Y487361D01*
X633539Y487323D01*
X633633Y487279D01*
X633653Y487277D01*
X633671Y487269D01*
X633838Y487251D01*
X634601Y487251D01*
X634601Y487249D01*
X633838Y487249D01*
X633818Y487246D01*
X633799Y487248D01*
X633697Y487226D01*
X633595Y487209D01*
X633578Y487200D01*
X633558Y487196D01*
X633469Y487143D01*
X633378Y487094D01*
X633364Y487080D01*
X633347Y487070D01*
X633280Y486991D01*
X633209Y486916D01*
X633200Y486898D01*
X633187Y486883D01*
X633148Y486787D01*
X633105Y486693D01*
X633103Y486673D01*
X633095Y486655D01*
X633077Y486488D01*
X633077Y478039D01*
X631878Y478278D01*
X630180Y478981D01*
X628652Y480002D01*
X627456Y481198D01*
X627398Y481240D01*
X627346Y481289D01*
X627326Y481298D01*
X627317Y481307D01*
X627291Y481317D01*
X627257Y481342D01*
X627188Y481363D01*
X627123Y481393D01*
X627095Y481396D01*
X627089Y481399D01*
X627062Y481401D01*
X627021Y481414D01*
X626963Y481412D01*
X626922Y481417D01*
X626918Y481417D01*
X626913Y481416D01*
X626879Y481420D01*
X626828Y481409D01*
X626776Y481408D01*
X626708Y481383D01*
X626701Y481381D01*
X626675Y481377D01*
X626671Y481375D01*
X626638Y481368D01*
X626593Y481341D01*
X626545Y481323D01*
X626489Y481278D01*
X626458Y481262D01*
X626453Y481257D01*
X626427Y481242D01*
X626393Y481202D01*
X626353Y481169D01*
X626316Y481113D01*
X626288Y481084D01*
X626284Y481075D01*
X626267Y481055D01*
X626248Y481006D01*
X626220Y480963D01*
X626205Y480903D01*
X626185Y480861D01*
X626183Y480847D01*
X626175Y480827D01*
X626167Y480755D01*
X626159Y480724D01*
X626161Y480701D01*
X626157Y480660D01*
X626157Y479226D01*
X626171Y479136D01*
X626179Y479045D01*
X626191Y479015D01*
X626196Y478983D01*
X626239Y478903D01*
X626275Y478819D01*
X626301Y478787D01*
X626312Y478766D01*
X626335Y478744D01*
X626380Y478688D01*
X634218Y470850D01*
X634313Y470782D01*
X634406Y470712D01*
X634412Y470710D01*
X634418Y470706D01*
X634529Y470672D01*
X634640Y470636D01*
X634647Y470636D01*
X634653Y470634D01*
X634769Y470637D01*
X634886Y470638D01*
X634893Y470640D01*
X634898Y470640D01*
X634916Y470647D01*
X635047Y470685D01*
X635432Y470844D01*
X637743Y470844D01*
X638128Y470685D01*
X638241Y470658D01*
X638355Y470629D01*
X638361Y470630D01*
X638367Y470629D01*
X638483Y470639D01*
X638600Y470649D01*
X638606Y470651D01*
X638612Y470652D01*
X638719Y470699D01*
X638826Y470745D01*
X638832Y470750D01*
X638837Y470752D01*
X638851Y470764D01*
X638957Y470850D01*
X640745Y472638D01*
X643052Y474944D01*
X652261Y474944D01*
X652352Y474959D01*
X652442Y474966D01*
X652472Y474979D01*
X652504Y474984D01*
X652585Y475027D01*
X652669Y475062D01*
X652701Y475088D01*
X652722Y475099D01*
X652744Y475122D01*
X652800Y475167D01*
X663127Y485494D01*
X679602Y485494D01*
X679621Y485497D01*
X679641Y485495D01*
X679742Y485517D01*
X679844Y485534D01*
X679862Y485543D01*
X679881Y485548D01*
X679970Y485601D01*
X680062Y485649D01*
X680075Y485663D01*
X680092Y485674D01*
X680160Y485752D01*
X680231Y485827D01*
X680239Y485845D01*
X680252Y485861D01*
X680291Y485957D01*
X680335Y486050D01*
X680337Y486070D01*
X680344Y486089D01*
X680363Y486255D01*
X680363Y487569D01*
X681256Y488462D01*
X693519Y488462D01*
X694412Y487569D01*
X694412Y476306D01*
X693519Y475413D01*
X681256Y475413D01*
X680363Y476306D01*
X680363Y477620D01*
X680360Y477636D01*
X680362Y477650D01*
X680361Y477653D01*
X680362Y477659D01*
X680340Y477760D01*
X680323Y477862D01*
X680314Y477880D01*
X680309Y477899D01*
X680256Y477988D01*
X680208Y478080D01*
X680194Y478093D01*
X680183Y478110D01*
X680105Y478178D01*
X680030Y478249D01*
X680012Y478257D01*
X679996Y478270D01*
X679900Y478309D01*
X679807Y478353D01*
X679787Y478355D01*
X679768Y478362D01*
X679602Y478381D01*
X666389Y478381D01*
X666298Y478366D01*
X666208Y478359D01*
X666178Y478346D01*
X666146Y478341D01*
X666065Y478298D01*
X665981Y478263D01*
X665949Y478237D01*
X665928Y478226D01*
X665921Y478218D01*
X665920Y478217D01*
X665904Y478201D01*
X665850Y478158D01*
X655523Y467831D01*
X646314Y467831D01*
X646223Y467816D01*
X646133Y467809D01*
X646103Y467796D01*
X646071Y467791D01*
X645990Y467748D01*
X645906Y467713D01*
X645874Y467687D01*
X645853Y467676D01*
X645831Y467653D01*
X645775Y467608D01*
X642617Y464450D01*
X642566Y464378D01*
X642526Y464336D01*
X642521Y464325D01*
X642505Y464306D01*
X642492Y464276D01*
X642474Y464250D01*
X642450Y464172D01*
X642422Y464113D01*
X642421Y464098D01*
X642413Y464078D01*
X642408Y464037D01*
X642401Y464015D01*
X642402Y463983D01*
X642394Y463911D01*
X642394Y463882D01*
X641510Y461748D01*
X640367Y460605D01*
X640320Y460539D01*
X640311Y460530D01*
X640309Y460525D01*
X640255Y460462D01*
X640243Y460432D01*
X640224Y460406D01*
X640197Y460318D01*
X640163Y460234D01*
X640158Y460193D01*
X640151Y460170D01*
X640152Y460138D01*
X640144Y460067D01*
X640144Y439486D01*
X640147Y439466D01*
X640145Y439447D01*
X640167Y439345D01*
X640184Y439243D01*
X640193Y439226D01*
X640198Y439206D01*
X640251Y439117D01*
X640299Y439026D01*
X640313Y439012D01*
X640324Y438995D01*
X640402Y438928D01*
X640477Y438856D01*
X640495Y438848D01*
X640511Y438835D01*
X640607Y438796D01*
X640700Y438753D01*
X640720Y438751D01*
X640739Y438743D01*
X640905Y438725D01*
X642782Y438725D01*
X643675Y437832D01*
X643675Y425568D01*
X642782Y424675D01*
X631518Y424675D01*
X630625Y425568D01*
X630625Y437832D01*
X631518Y438725D01*
X632270Y438725D01*
X632289Y438728D01*
X632309Y438726D01*
X632410Y438748D01*
X632512Y438764D01*
X632530Y438774D01*
X632549Y438778D01*
X632638Y438831D01*
X632730Y438880D01*
X632743Y438894D01*
X632760Y438904D01*
X632828Y438983D01*
X632899Y439058D01*
X632907Y439076D01*
X632920Y439091D01*
X632959Y439187D01*
X633003Y439281D01*
X633005Y439301D01*
X633012Y439319D01*
X633031Y439486D01*
X633031Y460067D01*
X633016Y460157D01*
X633009Y460248D01*
X632996Y460278D01*
X632991Y460310D01*
X632948Y460390D01*
X632913Y460474D01*
X632887Y460506D01*
X632876Y460527D01*
X632853Y460549D01*
X632808Y460605D01*
X631665Y461748D01*
X630781Y463882D01*
X630781Y463911D01*
X630778Y463930D01*
X630780Y463948D01*
X630765Y464016D01*
X630759Y464092D01*
X630746Y464122D01*
X630741Y464154D01*
X630731Y464174D01*
X630727Y464188D01*
X630695Y464242D01*
X630663Y464319D01*
X630637Y464351D01*
X630626Y464372D01*
X630607Y464389D01*
X630601Y464399D01*
X630592Y464407D01*
X630558Y464450D01*
X620956Y474051D01*
X620898Y474093D01*
X620846Y474142D01*
X620799Y474164D01*
X620757Y474195D01*
X620688Y474216D01*
X620623Y474246D01*
X620571Y474252D01*
X620521Y474267D01*
X620450Y474265D01*
X620379Y474273D01*
X620328Y474262D01*
X620276Y474261D01*
X620208Y474236D01*
X620138Y474221D01*
X620093Y474194D01*
X620045Y474176D01*
X619989Y474131D01*
X619927Y474095D01*
X619893Y474055D01*
X619853Y474023D01*
X619814Y473962D01*
X619767Y473908D01*
X619748Y473860D01*
X619720Y473816D01*
X619702Y473746D01*
X619675Y473680D01*
X619667Y473608D01*
X619659Y473577D01*
X619661Y473554D01*
X619657Y473513D01*
X619657Y469851D01*
X619671Y469761D01*
X619679Y469670D01*
X619691Y469640D01*
X619696Y469608D01*
X619739Y469528D01*
X619775Y469444D01*
X619801Y469412D01*
X619812Y469391D01*
X619835Y469369D01*
X619880Y469313D01*
X624269Y464923D01*
X624269Y463623D01*
X624272Y463604D01*
X624270Y463584D01*
X624292Y463483D01*
X624309Y463381D01*
X624318Y463363D01*
X624323Y463344D01*
X624376Y463255D01*
X624424Y463163D01*
X624438Y463150D01*
X624449Y463133D01*
X624527Y463065D01*
X624602Y462994D01*
X624620Y462986D01*
X624636Y462973D01*
X624732Y462934D01*
X624825Y462890D01*
X624845Y462888D01*
X624864Y462881D01*
X625030Y462862D01*
X628807Y462862D01*
X629700Y461969D01*
X629700Y442706D01*
X628807Y441813D01*
X625493Y441813D01*
X625473Y441810D01*
X625454Y441812D01*
X625352Y441790D01*
X625250Y441773D01*
X625233Y441764D01*
X625213Y441759D01*
X625124Y441706D01*
X625033Y441658D01*
X625019Y441644D01*
X625002Y441633D01*
X624935Y441555D01*
X624863Y441480D01*
X624855Y441462D01*
X624842Y441446D01*
X624803Y441350D01*
X624760Y441257D01*
X624758Y441237D01*
X624750Y441218D01*
X624732Y441052D01*
X624732Y439486D01*
X624735Y439466D01*
X624733Y439447D01*
X624755Y439345D01*
X624771Y439243D01*
X624781Y439226D01*
X624785Y439206D01*
X624838Y439117D01*
X624887Y439026D01*
X624901Y439012D01*
X624911Y438995D01*
X624990Y438928D01*
X625065Y438856D01*
X625083Y438848D01*
X625098Y438835D01*
X625194Y438796D01*
X625288Y438753D01*
X625308Y438751D01*
X625326Y438743D01*
X625493Y438725D01*
X625782Y438725D01*
X626675Y437832D01*
X626675Y425568D01*
X625782Y424675D01*
X625030Y424675D01*
X625011Y424672D01*
X624991Y424674D01*
X624890Y424652D01*
X624788Y424636D01*
X624770Y424626D01*
X624751Y424622D01*
X624662Y424569D01*
X624570Y424520D01*
X624557Y424506D01*
X624540Y424496D01*
X624472Y424417D01*
X624401Y424342D01*
X624393Y424324D01*
X624380Y424309D01*
X624341Y424213D01*
X624297Y424119D01*
X624295Y424099D01*
X624288Y424081D01*
X624269Y423914D01*
X624269Y419114D01*
X612658Y407503D01*
X612647Y407505D01*
X612545Y407483D01*
X612443Y407466D01*
X612426Y407457D01*
X612406Y407452D01*
X612317Y407399D01*
X612226Y407351D01*
X612212Y407337D01*
X612195Y407326D01*
X612128Y407248D01*
X612056Y407173D01*
X612048Y407155D01*
X612035Y407139D01*
X611996Y407043D01*
X611953Y406950D01*
X611951Y406930D01*
X611943Y406911D01*
X611925Y406745D01*
X611925Y404931D01*
X611032Y404038D01*
X599768Y404038D01*
G37*
%LPD*%
%LPC*%
G36*
X475639Y339081D02*
X475639Y339081D01*
X472531Y342189D01*
X472531Y346586D01*
X475639Y349694D01*
X477799Y349694D01*
X477889Y349709D01*
X477980Y349716D01*
X478010Y349729D01*
X478042Y349734D01*
X478122Y349777D01*
X478206Y349812D01*
X478238Y349838D01*
X478259Y349849D01*
X478281Y349872D01*
X478284Y349875D01*
X478286Y349876D01*
X478287Y349877D01*
X478337Y349917D01*
X480489Y352069D01*
X480531Y352127D01*
X480580Y352179D01*
X480602Y352226D01*
X480632Y352268D01*
X480653Y352337D01*
X480684Y352402D01*
X480689Y352454D01*
X480705Y352504D01*
X480703Y352575D01*
X480711Y352646D01*
X480700Y352697D01*
X480698Y352749D01*
X480674Y352817D01*
X480658Y352887D01*
X480632Y352932D01*
X480614Y352980D01*
X480569Y353036D01*
X480532Y353098D01*
X480493Y353132D01*
X480460Y353172D01*
X480400Y353211D01*
X480345Y353258D01*
X480297Y353277D01*
X480253Y353305D01*
X480184Y353323D01*
X480117Y353350D01*
X480046Y353358D01*
X480015Y353366D01*
X479991Y353364D01*
X479950Y353368D01*
X475639Y353368D01*
X472531Y356477D01*
X472531Y360873D01*
X475639Y363982D01*
X477799Y363982D01*
X477889Y363996D01*
X477980Y364004D01*
X478010Y364016D01*
X478042Y364021D01*
X478122Y364064D01*
X478206Y364100D01*
X478238Y364126D01*
X478259Y364137D01*
X478281Y364160D01*
X478337Y364205D01*
X549389Y435257D01*
X581114Y435257D01*
X581134Y435260D01*
X581153Y435258D01*
X581255Y435280D01*
X581357Y435296D01*
X581374Y435306D01*
X581394Y435310D01*
X581483Y435363D01*
X581574Y435412D01*
X581588Y435426D01*
X581605Y435436D01*
X581672Y435515D01*
X581744Y435590D01*
X581752Y435608D01*
X581765Y435623D01*
X581804Y435719D01*
X581847Y435813D01*
X581849Y435833D01*
X581857Y435851D01*
X581875Y436018D01*
X581875Y437832D01*
X582768Y438725D01*
X594032Y438725D01*
X594925Y437832D01*
X594925Y425568D01*
X594032Y424675D01*
X582768Y424675D01*
X581875Y425568D01*
X581875Y427382D01*
X581873Y427396D01*
X581874Y427408D01*
X581873Y427412D01*
X581874Y427421D01*
X581852Y427523D01*
X581836Y427625D01*
X581826Y427642D01*
X581822Y427662D01*
X581769Y427751D01*
X581720Y427842D01*
X581706Y427856D01*
X581696Y427873D01*
X581617Y427940D01*
X581542Y428012D01*
X581524Y428020D01*
X581509Y428033D01*
X581413Y428072D01*
X581319Y428115D01*
X581299Y428117D01*
X581281Y428125D01*
X581114Y428143D01*
X552651Y428143D01*
X552561Y428129D01*
X552470Y428121D01*
X552440Y428109D01*
X552408Y428104D01*
X552328Y428061D01*
X552244Y428025D01*
X552212Y427999D01*
X552191Y427988D01*
X552179Y427975D01*
X552177Y427975D01*
X552166Y427963D01*
X552113Y427920D01*
X483367Y359175D01*
X483314Y359101D01*
X483255Y359031D01*
X483242Y359001D01*
X483224Y358975D01*
X483197Y358888D01*
X483163Y358803D01*
X483158Y358762D01*
X483151Y358740D01*
X483152Y358708D01*
X483144Y358636D01*
X483144Y356562D01*
X483147Y356546D01*
X483145Y356533D01*
X483156Y356483D01*
X483158Y356420D01*
X483176Y356371D01*
X483184Y356319D01*
X483197Y356295D01*
X483198Y356292D01*
X483205Y356280D01*
X483218Y356256D01*
X483242Y356189D01*
X483275Y356148D01*
X483299Y356102D01*
X483351Y356053D01*
X483396Y355997D01*
X483440Y355968D01*
X483477Y355933D01*
X483542Y355902D01*
X483603Y355864D01*
X483653Y355851D01*
X483700Y355829D01*
X483772Y355821D01*
X483841Y355803D01*
X483893Y355808D01*
X483945Y355802D01*
X484015Y355817D01*
X484086Y355823D01*
X484134Y355843D01*
X484185Y355854D01*
X484247Y355891D01*
X484313Y355919D01*
X484362Y355958D01*
X484376Y355966D01*
X484380Y355971D01*
X484396Y355980D01*
X484412Y355998D01*
X484444Y356024D01*
X543039Y414619D01*
X581114Y414619D01*
X581134Y414622D01*
X581153Y414620D01*
X581255Y414642D01*
X581357Y414659D01*
X581374Y414668D01*
X581394Y414673D01*
X581483Y414726D01*
X581574Y414774D01*
X581588Y414788D01*
X581605Y414799D01*
X581672Y414877D01*
X581744Y414952D01*
X581752Y414970D01*
X581765Y414986D01*
X581804Y415082D01*
X581847Y415175D01*
X581849Y415195D01*
X581857Y415214D01*
X581875Y415380D01*
X581875Y417194D01*
X582768Y418087D01*
X594032Y418087D01*
X594925Y417194D01*
X594925Y404931D01*
X594032Y404038D01*
X582768Y404038D01*
X581875Y404931D01*
X581875Y406745D01*
X581872Y406764D01*
X581874Y406784D01*
X581852Y406885D01*
X581836Y406987D01*
X581826Y407005D01*
X581822Y407024D01*
X581769Y407113D01*
X581720Y407205D01*
X581706Y407218D01*
X581696Y407235D01*
X581617Y407303D01*
X581542Y407374D01*
X581524Y407382D01*
X581509Y407395D01*
X581413Y407434D01*
X581319Y407478D01*
X581299Y407480D01*
X581281Y407487D01*
X581114Y407506D01*
X546301Y407506D01*
X546211Y407491D01*
X546120Y407484D01*
X546090Y407471D01*
X546058Y407466D01*
X545978Y407423D01*
X545894Y407388D01*
X545862Y407362D01*
X545841Y407351D01*
X545819Y407328D01*
X545763Y407283D01*
X483367Y344887D01*
X483314Y344813D01*
X483255Y344744D01*
X483242Y344714D01*
X483224Y344687D01*
X483197Y344601D01*
X483163Y344516D01*
X483158Y344475D01*
X483151Y344452D01*
X483152Y344420D01*
X483144Y344349D01*
X483144Y342189D01*
X480036Y339081D01*
X475639Y339081D01*
G37*
%LPD*%
%LPC*%
G36*
X396997Y309767D02*
X396997Y309767D01*
X396922Y309838D01*
X396904Y309846D01*
X396889Y309859D01*
X396792Y309898D01*
X396699Y309942D01*
X396679Y309944D01*
X396661Y309951D01*
X396494Y309970D01*
X387095Y309970D01*
X387095Y311575D01*
X387268Y312221D01*
X387603Y312801D01*
X387888Y313086D01*
X387941Y313160D01*
X388001Y313229D01*
X388013Y313260D01*
X388032Y313286D01*
X388059Y313373D01*
X388093Y313458D01*
X388097Y313498D01*
X388104Y313521D01*
X388103Y313553D01*
X388111Y313624D01*
X388111Y320000D01*
X388338Y320227D01*
X388350Y320243D01*
X388366Y320256D01*
X388422Y320343D01*
X388482Y320427D01*
X388488Y320446D01*
X388499Y320463D01*
X388524Y320563D01*
X388554Y320662D01*
X388554Y320682D01*
X388559Y320701D01*
X388551Y320804D01*
X388548Y320908D01*
X388541Y320927D01*
X388540Y320947D01*
X388499Y321041D01*
X388464Y321139D01*
X388451Y321155D01*
X388443Y321173D01*
X388354Y321284D01*
X388338Y321304D01*
X388111Y321531D01*
X388111Y327874D01*
X389004Y328767D01*
X390970Y328767D01*
X390989Y328770D01*
X391009Y328768D01*
X391110Y328790D01*
X391212Y328807D01*
X391230Y328816D01*
X391249Y328821D01*
X391338Y328874D01*
X391430Y328922D01*
X391443Y328936D01*
X391460Y328947D01*
X391528Y329025D01*
X391599Y329100D01*
X391607Y329118D01*
X391620Y329134D01*
X391659Y329230D01*
X391703Y329323D01*
X391705Y329343D01*
X391712Y329362D01*
X391731Y329528D01*
X391731Y333774D01*
X391716Y333864D01*
X391709Y333955D01*
X391696Y333985D01*
X391691Y334017D01*
X391648Y334097D01*
X391613Y334181D01*
X391587Y334213D01*
X391576Y334234D01*
X391553Y334256D01*
X391508Y334312D01*
X389981Y335839D01*
X389981Y340236D01*
X393089Y343344D01*
X397486Y343344D01*
X400594Y340236D01*
X400594Y335839D01*
X399067Y334312D01*
X399014Y334238D01*
X398955Y334169D01*
X398942Y334139D01*
X398924Y334113D01*
X398897Y334026D01*
X398863Y333941D01*
X398858Y333900D01*
X398851Y333878D01*
X398852Y333845D01*
X398844Y333774D01*
X398844Y329528D01*
X398847Y329509D01*
X398845Y329489D01*
X398867Y329388D01*
X398884Y329286D01*
X398893Y329268D01*
X398898Y329249D01*
X398951Y329160D01*
X398999Y329068D01*
X399013Y329055D01*
X399024Y329038D01*
X399102Y328970D01*
X399177Y328899D01*
X399195Y328891D01*
X399211Y328878D01*
X399307Y328839D01*
X399400Y328795D01*
X399420Y328793D01*
X399439Y328786D01*
X399605Y328767D01*
X405000Y328767D01*
X405893Y327874D01*
X405893Y321452D01*
X405882Y321417D01*
X405852Y321351D01*
X405846Y321300D01*
X405831Y321250D01*
X405833Y321178D01*
X405825Y321107D01*
X405836Y321056D01*
X405837Y321004D01*
X405862Y320937D01*
X405877Y320867D01*
X405904Y320822D01*
X405921Y320773D01*
X405966Y320717D01*
X406003Y320656D01*
X406043Y320622D01*
X406075Y320581D01*
X406135Y320542D01*
X406190Y320496D01*
X406238Y320476D01*
X406282Y320448D01*
X406352Y320431D01*
X406418Y320404D01*
X406489Y320396D01*
X406520Y320388D01*
X406544Y320390D01*
X406585Y320385D01*
X411090Y320385D01*
X411180Y320400D01*
X411271Y320407D01*
X411301Y320420D01*
X411333Y320425D01*
X411413Y320468D01*
X411497Y320503D01*
X411529Y320529D01*
X411550Y320540D01*
X411572Y320563D01*
X411628Y320608D01*
X413727Y322707D01*
X418123Y322707D01*
X421232Y319598D01*
X421232Y315202D01*
X418123Y312093D01*
X413727Y312093D01*
X412771Y313049D01*
X412697Y313102D01*
X412628Y313161D01*
X412598Y313174D01*
X412572Y313192D01*
X412485Y313219D01*
X412400Y313253D01*
X412359Y313258D01*
X412337Y313265D01*
X412304Y313264D01*
X412233Y313272D01*
X407446Y313272D01*
X407330Y313253D01*
X407211Y313235D01*
X407208Y313233D01*
X407203Y313232D01*
X407099Y313177D01*
X406993Y313122D01*
X406990Y313119D01*
X406986Y313117D01*
X406905Y313031D01*
X406821Y312945D01*
X406820Y312942D01*
X406817Y312939D01*
X406767Y312831D01*
X406715Y312723D01*
X406715Y312719D01*
X406713Y312716D01*
X406700Y312598D01*
X406686Y312479D01*
X406686Y312474D01*
X406686Y312471D01*
X406689Y312457D01*
X406711Y312313D01*
X406909Y311575D01*
X406909Y309970D01*
X397510Y309970D01*
X397491Y309967D01*
X397471Y309969D01*
X397369Y309947D01*
X397267Y309930D01*
X397250Y309921D01*
X397230Y309916D01*
X397141Y309863D01*
X397050Y309815D01*
X397036Y309801D01*
X397019Y309790D01*
X396998Y309766D01*
X396997Y309767D01*
G37*
%LPD*%
%LPC*%
G36*
X408962Y147918D02*
X408962Y147918D01*
X404105Y152775D01*
X404031Y152828D01*
X403962Y152887D01*
X403932Y152900D01*
X403905Y152918D01*
X403818Y152945D01*
X403734Y152979D01*
X403693Y152984D01*
X403670Y152991D01*
X403638Y152990D01*
X403567Y152998D01*
X393041Y152998D01*
X389937Y156102D01*
X389863Y156155D01*
X389793Y156215D01*
X389763Y156227D01*
X389737Y156246D01*
X389650Y156273D01*
X389565Y156307D01*
X389524Y156311D01*
X389502Y156318D01*
X389470Y156317D01*
X389399Y156325D01*
X382806Y156325D01*
X381913Y157218D01*
X381913Y168482D01*
X382806Y169375D01*
X395069Y169375D01*
X395962Y168482D01*
X395962Y161889D01*
X395966Y161867D01*
X395964Y161849D01*
X395978Y161782D01*
X395984Y161708D01*
X395997Y161678D01*
X396002Y161646D01*
X396012Y161627D01*
X396016Y161609D01*
X396052Y161549D01*
X396080Y161482D01*
X396106Y161450D01*
X396117Y161429D01*
X396132Y161415D01*
X396142Y161398D01*
X396160Y161383D01*
X396185Y161351D01*
X396186Y161350D01*
X396244Y161308D01*
X396295Y161259D01*
X396313Y161251D01*
X396329Y161238D01*
X396359Y161225D01*
X396385Y161207D01*
X396456Y161185D01*
X396518Y161156D01*
X396537Y161154D01*
X396557Y161146D01*
X396598Y161141D01*
X396621Y161134D01*
X396653Y161135D01*
X396724Y161127D01*
X403567Y161127D01*
X403657Y161142D01*
X403748Y161149D01*
X403778Y161162D01*
X403810Y161167D01*
X403890Y161210D01*
X403974Y161245D01*
X404006Y161271D01*
X404027Y161282D01*
X404049Y161305D01*
X404105Y161350D01*
X408962Y166207D01*
X416538Y166207D01*
X421895Y160850D01*
X421895Y153275D01*
X416538Y147918D01*
X408962Y147918D01*
G37*
%LPD*%
%LPC*%
G36*
X382806Y173325D02*
X382806Y173325D01*
X381913Y174218D01*
X381913Y185482D01*
X382806Y186375D01*
X383604Y186375D01*
X383623Y186378D01*
X383643Y186376D01*
X383744Y186398D01*
X383846Y186414D01*
X383864Y186424D01*
X383883Y186428D01*
X383972Y186481D01*
X384064Y186530D01*
X384077Y186544D01*
X384094Y186554D01*
X384162Y186633D01*
X384233Y186708D01*
X384241Y186726D01*
X384254Y186741D01*
X384293Y186837D01*
X384337Y186931D01*
X384339Y186951D01*
X384346Y186969D01*
X384365Y187136D01*
X384365Y198644D01*
X390345Y204625D01*
X390398Y204699D01*
X390458Y204768D01*
X390470Y204798D01*
X390489Y204824D01*
X390516Y204911D01*
X390550Y204996D01*
X390554Y205037D01*
X390561Y205059D01*
X390560Y205092D01*
X390568Y205163D01*
X390568Y205942D01*
X391528Y208260D01*
X393302Y210034D01*
X395621Y210994D01*
X398129Y210994D01*
X400448Y210034D01*
X402222Y208260D01*
X403182Y205942D01*
X403182Y203433D01*
X402222Y201115D01*
X400448Y199341D01*
X398129Y198381D01*
X397350Y198381D01*
X397260Y198366D01*
X397169Y198359D01*
X397140Y198346D01*
X397108Y198341D01*
X397027Y198298D01*
X396943Y198263D01*
X396911Y198237D01*
X396890Y198226D01*
X396868Y198203D01*
X396812Y198158D01*
X393733Y195079D01*
X393680Y195005D01*
X393621Y194935D01*
X393608Y194905D01*
X393590Y194879D01*
X393563Y194792D01*
X393529Y194707D01*
X393524Y194666D01*
X393517Y194644D01*
X393518Y194612D01*
X393510Y194541D01*
X393510Y187136D01*
X393513Y187116D01*
X393511Y187097D01*
X393533Y186995D01*
X393550Y186893D01*
X393559Y186876D01*
X393564Y186856D01*
X393617Y186767D01*
X393665Y186676D01*
X393679Y186662D01*
X393690Y186645D01*
X393768Y186578D01*
X393843Y186506D01*
X393861Y186498D01*
X393877Y186485D01*
X393973Y186446D01*
X394066Y186403D01*
X394086Y186401D01*
X394105Y186393D01*
X394271Y186375D01*
X395069Y186375D01*
X395962Y185482D01*
X395962Y174218D01*
X395069Y173325D01*
X382806Y173325D01*
G37*
%LPD*%
%LPC*%
G36*
X636123Y488773D02*
X636123Y488773D01*
X636123Y496581D01*
X649099Y496581D01*
X650902Y496222D01*
X652600Y495519D01*
X654128Y494498D01*
X655428Y493198D01*
X656449Y491670D01*
X657152Y489972D01*
X657391Y488773D01*
X636123Y488773D01*
G37*
%LPD*%
%LPC*%
G36*
X561809Y488773D02*
X561809Y488773D01*
X562048Y489972D01*
X562751Y491670D01*
X563772Y493198D01*
X565072Y494498D01*
X566600Y495519D01*
X568298Y496222D01*
X570101Y496581D01*
X583077Y496581D01*
X583077Y488773D01*
X561809Y488773D01*
G37*
%LPD*%
%LPC*%
G36*
X636123Y477919D02*
X636123Y477919D01*
X636123Y485727D01*
X657391Y485727D01*
X657152Y484528D01*
X656449Y482830D01*
X655428Y481302D01*
X654128Y480002D01*
X652600Y478981D01*
X650902Y478278D01*
X649099Y477919D01*
X636123Y477919D01*
G37*
%LPD*%
%LPC*%
G36*
X570101Y477919D02*
X570101Y477919D01*
X568298Y478278D01*
X566600Y478981D01*
X565072Y480002D01*
X563772Y481302D01*
X562751Y482830D01*
X562048Y484528D01*
X561809Y485727D01*
X583077Y485727D01*
X583077Y477919D01*
X570101Y477919D01*
G37*
%LPD*%
%LPC*%
G36*
X601123Y504209D02*
X601123Y504209D01*
X601123Y512727D01*
X618077Y512727D01*
X618077Y504209D01*
X611766Y504209D01*
X611119Y504382D01*
X610540Y504717D01*
X610138Y505119D01*
X610122Y505130D01*
X610110Y505146D01*
X610023Y505202D01*
X609939Y505262D01*
X609920Y505268D01*
X609903Y505279D01*
X609802Y505304D01*
X609704Y505334D01*
X609684Y505334D01*
X609664Y505339D01*
X609561Y505331D01*
X609458Y505328D01*
X609439Y505321D01*
X609419Y505320D01*
X609324Y505279D01*
X609227Y505244D01*
X609211Y505231D01*
X609193Y505223D01*
X609062Y505119D01*
X608660Y504717D01*
X608081Y504382D01*
X607434Y504209D01*
X601123Y504209D01*
G37*
%LPD*%
%LPC*%
G36*
X503173Y47148D02*
X503173Y47148D01*
X503173Y63291D01*
X504029Y63156D01*
X505550Y62661D01*
X506975Y61935D01*
X508269Y60995D01*
X509400Y59864D01*
X510340Y58570D01*
X511066Y57145D01*
X511561Y55624D01*
X511811Y54045D01*
X511811Y47148D01*
X503173Y47148D01*
G37*
%LPD*%
%LPC*%
G36*
X477773Y47148D02*
X477773Y47148D01*
X477773Y63291D01*
X478629Y63156D01*
X480150Y62661D01*
X481575Y61935D01*
X482869Y60995D01*
X484000Y59864D01*
X484940Y58570D01*
X485666Y57145D01*
X486161Y55624D01*
X486411Y54045D01*
X486411Y47148D01*
X477773Y47148D01*
G37*
%LPD*%
%LPC*%
G36*
X452373Y47148D02*
X452373Y47148D01*
X452373Y63291D01*
X453229Y63156D01*
X454750Y62661D01*
X456175Y61935D01*
X457469Y60995D01*
X458600Y59864D01*
X459540Y58570D01*
X460266Y57145D01*
X460761Y55624D01*
X461011Y54045D01*
X461011Y47148D01*
X452373Y47148D01*
G37*
%LPD*%
%LPC*%
G36*
X426973Y47148D02*
X426973Y47148D01*
X426973Y63291D01*
X427829Y63156D01*
X429350Y62661D01*
X430775Y61935D01*
X432069Y60995D01*
X433200Y59864D01*
X434140Y58570D01*
X434866Y57145D01*
X435361Y55624D01*
X435611Y54045D01*
X435611Y47148D01*
X426973Y47148D01*
G37*
%LPD*%
%LPC*%
G36*
X401573Y47148D02*
X401573Y47148D01*
X401573Y63291D01*
X402429Y63156D01*
X403950Y62661D01*
X405375Y61935D01*
X406669Y60995D01*
X407800Y59864D01*
X408740Y58570D01*
X409466Y57145D01*
X409961Y55624D01*
X410211Y54045D01*
X410211Y47148D01*
X401573Y47148D01*
G37*
%LPD*%
%LPC*%
G36*
X376173Y47148D02*
X376173Y47148D01*
X376173Y63291D01*
X377029Y63156D01*
X378550Y62661D01*
X379975Y61935D01*
X381269Y60995D01*
X382400Y59864D01*
X383340Y58570D01*
X384066Y57145D01*
X384561Y55624D01*
X384811Y54045D01*
X384811Y47148D01*
X376173Y47148D01*
G37*
%LPD*%
%LPC*%
G36*
X401573Y44102D02*
X401573Y44102D01*
X410211Y44102D01*
X410211Y37205D01*
X409961Y35626D01*
X409466Y34105D01*
X408740Y32680D01*
X407800Y31386D01*
X406669Y30255D01*
X405375Y29315D01*
X403950Y28589D01*
X402429Y28094D01*
X401573Y27959D01*
X401573Y44102D01*
G37*
%LPD*%
%LPC*%
G36*
X376173Y44102D02*
X376173Y44102D01*
X384811Y44102D01*
X384811Y37205D01*
X384561Y35626D01*
X384066Y34105D01*
X383340Y32680D01*
X382400Y31386D01*
X381269Y30255D01*
X379975Y29315D01*
X378550Y28589D01*
X377029Y28094D01*
X376173Y27959D01*
X376173Y44102D01*
G37*
%LPD*%
%LPC*%
G36*
X503173Y44102D02*
X503173Y44102D01*
X511811Y44102D01*
X511811Y37205D01*
X511561Y35626D01*
X511066Y34105D01*
X510340Y32680D01*
X509400Y31386D01*
X508269Y30255D01*
X506975Y29315D01*
X505550Y28589D01*
X504029Y28094D01*
X503173Y27959D01*
X503173Y44102D01*
G37*
%LPD*%
%LPC*%
G36*
X477773Y44102D02*
X477773Y44102D01*
X486411Y44102D01*
X486411Y37205D01*
X486161Y35626D01*
X485666Y34105D01*
X484940Y32680D01*
X484000Y31386D01*
X482869Y30255D01*
X481575Y29315D01*
X480150Y28589D01*
X478629Y28094D01*
X477773Y27959D01*
X477773Y44102D01*
G37*
%LPD*%
%LPC*%
G36*
X452373Y44102D02*
X452373Y44102D01*
X461011Y44102D01*
X461011Y37205D01*
X460761Y35626D01*
X460266Y34105D01*
X459540Y32680D01*
X458600Y31386D01*
X457469Y30255D01*
X456175Y29315D01*
X454750Y28589D01*
X453229Y28094D01*
X452373Y27959D01*
X452373Y44102D01*
G37*
%LPD*%
%LPC*%
G36*
X426973Y44102D02*
X426973Y44102D01*
X435611Y44102D01*
X435611Y37205D01*
X435361Y35626D01*
X434866Y34105D01*
X434140Y32680D01*
X433200Y31386D01*
X432069Y30255D01*
X430775Y29315D01*
X429350Y28589D01*
X427829Y28094D01*
X426973Y27959D01*
X426973Y44102D01*
G37*
%LPD*%
%LPC*%
G36*
X415289Y47148D02*
X415289Y47148D01*
X415289Y54045D01*
X415539Y55624D01*
X416034Y57145D01*
X416760Y58570D01*
X417700Y59864D01*
X418831Y60995D01*
X420125Y61935D01*
X421550Y62661D01*
X423071Y63156D01*
X423927Y63291D01*
X423927Y47148D01*
X415289Y47148D01*
G37*
%LPD*%
%LPC*%
G36*
X389889Y47148D02*
X389889Y47148D01*
X389889Y54045D01*
X390139Y55624D01*
X390634Y57145D01*
X391360Y58570D01*
X392300Y59864D01*
X393431Y60995D01*
X394725Y61935D01*
X396150Y62661D01*
X397671Y63156D01*
X398527Y63291D01*
X398527Y47148D01*
X389889Y47148D01*
G37*
%LPD*%
%LPC*%
G36*
X364489Y47148D02*
X364489Y47148D01*
X364489Y54045D01*
X364739Y55624D01*
X365234Y57145D01*
X365960Y58570D01*
X366900Y59864D01*
X368031Y60995D01*
X369325Y61935D01*
X370750Y62661D01*
X372271Y63156D01*
X373127Y63291D01*
X373127Y47148D01*
X364489Y47148D01*
G37*
%LPD*%
%LPC*%
G36*
X491489Y47148D02*
X491489Y47148D01*
X491489Y54045D01*
X491739Y55624D01*
X492234Y57145D01*
X492960Y58570D01*
X493900Y59864D01*
X495031Y60995D01*
X496325Y61935D01*
X497750Y62661D01*
X499271Y63156D01*
X500127Y63291D01*
X500127Y47148D01*
X491489Y47148D01*
G37*
%LPD*%
%LPC*%
G36*
X466089Y47148D02*
X466089Y47148D01*
X466089Y54045D01*
X466339Y55624D01*
X466834Y57145D01*
X467560Y58570D01*
X468500Y59864D01*
X469631Y60995D01*
X470925Y61935D01*
X472350Y62661D01*
X473871Y63156D01*
X474727Y63291D01*
X474727Y47148D01*
X466089Y47148D01*
G37*
%LPD*%
%LPC*%
G36*
X440689Y47148D02*
X440689Y47148D01*
X440689Y54045D01*
X440939Y55624D01*
X441434Y57145D01*
X442160Y58570D01*
X443100Y59864D01*
X444231Y60995D01*
X445525Y61935D01*
X446950Y62661D01*
X448471Y63156D01*
X449327Y63291D01*
X449327Y47148D01*
X440689Y47148D01*
G37*
%LPD*%
%LPC*%
G36*
X423071Y28094D02*
X423071Y28094D01*
X421550Y28589D01*
X420125Y29315D01*
X418831Y30255D01*
X417700Y31386D01*
X416760Y32680D01*
X416034Y34105D01*
X415539Y35626D01*
X415289Y37205D01*
X415289Y44102D01*
X423927Y44102D01*
X423927Y27959D01*
X423071Y28094D01*
G37*
%LPD*%
%LPC*%
G36*
X448471Y28094D02*
X448471Y28094D01*
X446950Y28589D01*
X445525Y29315D01*
X444231Y30255D01*
X443100Y31386D01*
X442160Y32680D01*
X441434Y34105D01*
X440939Y35626D01*
X440689Y37205D01*
X440689Y44102D01*
X449327Y44102D01*
X449327Y27959D01*
X448471Y28094D01*
G37*
%LPD*%
%LPC*%
G36*
X397671Y28094D02*
X397671Y28094D01*
X396150Y28589D01*
X394725Y29315D01*
X393431Y30255D01*
X392300Y31386D01*
X391360Y32680D01*
X390634Y34105D01*
X390139Y35626D01*
X389889Y37205D01*
X389889Y44102D01*
X398527Y44102D01*
X398527Y27959D01*
X397671Y28094D01*
G37*
%LPD*%
%LPC*%
G36*
X473871Y28094D02*
X473871Y28094D01*
X472350Y28589D01*
X470925Y29315D01*
X469631Y30255D01*
X468500Y31386D01*
X467560Y32680D01*
X466834Y34105D01*
X466339Y35626D01*
X466089Y37205D01*
X466089Y44102D01*
X474727Y44102D01*
X474727Y27959D01*
X473871Y28094D01*
G37*
%LPD*%
%LPC*%
G36*
X372271Y28094D02*
X372271Y28094D01*
X370750Y28589D01*
X369325Y29315D01*
X368031Y30255D01*
X366900Y31386D01*
X365960Y32680D01*
X365234Y34105D01*
X364739Y35626D01*
X364489Y37205D01*
X364489Y44102D01*
X373127Y44102D01*
X373127Y27959D01*
X372271Y28094D01*
G37*
%LPD*%
%LPC*%
G36*
X499271Y28094D02*
X499271Y28094D01*
X497750Y28589D01*
X496325Y29315D01*
X495031Y30255D01*
X493900Y31386D01*
X492960Y32680D01*
X492234Y34105D01*
X491739Y35626D01*
X491489Y37205D01*
X491489Y44102D01*
X500127Y44102D01*
X500127Y27959D01*
X499271Y28094D01*
G37*
%LPD*%
%LPC*%
G36*
X572873Y503084D02*
X572873Y503084D01*
X572873Y512727D01*
X582516Y512727D01*
X582516Y505291D01*
X582343Y504644D01*
X582008Y504065D01*
X581535Y503592D01*
X580956Y503257D01*
X580309Y503084D01*
X572873Y503084D01*
G37*
%LPD*%
%LPC*%
G36*
X649373Y503084D02*
X649373Y503084D01*
X649373Y512727D01*
X659016Y512727D01*
X659016Y505291D01*
X658843Y504644D01*
X658508Y504065D01*
X658035Y503592D01*
X657456Y503257D01*
X656809Y503084D01*
X649373Y503084D01*
G37*
%LPD*%
%LPC*%
G36*
X638891Y503084D02*
X638891Y503084D01*
X638244Y503257D01*
X637665Y503592D01*
X637192Y504065D01*
X636857Y504644D01*
X636684Y505291D01*
X636684Y512727D01*
X646327Y512727D01*
X646327Y503084D01*
X638891Y503084D01*
G37*
%LPD*%
%LPC*%
G36*
X562391Y503084D02*
X562391Y503084D01*
X561744Y503257D01*
X561165Y503592D01*
X560692Y504065D01*
X560357Y504644D01*
X560184Y505291D01*
X560184Y512727D01*
X569827Y512727D01*
X569827Y503084D01*
X562391Y503084D01*
G37*
%LPD*%
%LPC*%
G36*
X571898Y453861D02*
X571898Y453861D01*
X571898Y463878D01*
X577709Y463878D01*
X578356Y463705D01*
X578935Y463371D01*
X579408Y462898D01*
X579743Y462318D01*
X579916Y461672D01*
X579916Y453861D01*
X571898Y453861D01*
G37*
%LPD*%
%LPC*%
G36*
X656698Y453861D02*
X656698Y453861D01*
X656698Y463878D01*
X662509Y463878D01*
X663156Y463705D01*
X663735Y463371D01*
X664208Y462898D01*
X664543Y462318D01*
X664716Y461672D01*
X664716Y453861D01*
X656698Y453861D01*
G37*
%LPD*%
%LPC*%
G36*
X571898Y440797D02*
X571898Y440797D01*
X571898Y450814D01*
X579916Y450814D01*
X579916Y443003D01*
X579743Y442357D01*
X579408Y441777D01*
X578935Y441304D01*
X578356Y440970D01*
X577709Y440797D01*
X571898Y440797D01*
G37*
%LPD*%
%LPC*%
G36*
X656698Y440797D02*
X656698Y440797D01*
X656698Y450814D01*
X664716Y450814D01*
X664716Y443003D01*
X664543Y442357D01*
X664208Y441777D01*
X663735Y441304D01*
X663156Y440970D01*
X662509Y440797D01*
X656698Y440797D01*
G37*
%LPD*%
%LPC*%
G36*
X645634Y453861D02*
X645634Y453861D01*
X645634Y461672D01*
X645807Y462318D01*
X646142Y462898D01*
X646615Y463371D01*
X647194Y463705D01*
X647841Y463878D01*
X653652Y463878D01*
X653652Y453861D01*
X645634Y453861D01*
G37*
%LPD*%
%LPC*%
G36*
X560834Y453861D02*
X560834Y453861D01*
X560834Y461672D01*
X561007Y462318D01*
X561342Y462898D01*
X561815Y463371D01*
X562394Y463705D01*
X563041Y463878D01*
X568852Y463878D01*
X568852Y453861D01*
X560834Y453861D01*
G37*
%LPD*%
%LPC*%
G36*
X563041Y440797D02*
X563041Y440797D01*
X562394Y440970D01*
X561815Y441304D01*
X561342Y441777D01*
X561007Y442357D01*
X560834Y443003D01*
X560834Y450814D01*
X568852Y450814D01*
X568852Y440797D01*
X563041Y440797D01*
G37*
%LPD*%
%LPC*%
G36*
X647841Y440797D02*
X647841Y440797D01*
X647194Y440970D01*
X646615Y441304D01*
X646142Y441777D01*
X645807Y442357D01*
X645634Y443003D01*
X645634Y450814D01*
X653652Y450814D01*
X653652Y440797D01*
X647841Y440797D01*
G37*
%LPD*%
%LPC*%
G36*
X621123Y504209D02*
X621123Y504209D01*
X621123Y512727D01*
X629641Y512727D01*
X629641Y506416D01*
X629468Y505769D01*
X629133Y505190D01*
X628660Y504717D01*
X628081Y504382D01*
X627434Y504209D01*
X621123Y504209D01*
G37*
%LPD*%
%LPC*%
G36*
X591766Y504209D02*
X591766Y504209D01*
X591119Y504382D01*
X590540Y504717D01*
X590067Y505190D01*
X589732Y505769D01*
X589559Y506416D01*
X589559Y512727D01*
X598077Y512727D01*
X598077Y504209D01*
X591766Y504209D01*
G37*
%LPD*%
%LPC*%
G36*
X594266Y477959D02*
X594266Y477959D01*
X593619Y478132D01*
X593040Y478467D01*
X592567Y478940D01*
X592232Y479519D01*
X592116Y479955D01*
X592076Y480042D01*
X592044Y480132D01*
X592026Y480154D01*
X592014Y480179D01*
X591950Y480249D01*
X591890Y480324D01*
X591866Y480339D01*
X591847Y480360D01*
X591763Y480405D01*
X591683Y480457D01*
X591656Y480463D01*
X591631Y480477D01*
X591537Y480493D01*
X591445Y480517D01*
X591416Y480514D01*
X591389Y480519D01*
X591294Y480505D01*
X591199Y480498D01*
X591173Y480486D01*
X591145Y480482D01*
X591061Y480438D01*
X590973Y480401D01*
X590945Y480379D01*
X590927Y480370D01*
X590904Y480346D01*
X590842Y480296D01*
X590548Y480002D01*
X589020Y478981D01*
X587322Y478278D01*
X586123Y478039D01*
X586123Y485727D01*
X591298Y485727D01*
X591318Y485730D01*
X591337Y485728D01*
X591439Y485750D01*
X591541Y485767D01*
X591558Y485776D01*
X591578Y485780D01*
X591667Y485833D01*
X591758Y485882D01*
X591772Y485896D01*
X591789Y485906D01*
X591856Y485985D01*
X591928Y486060D01*
X591936Y486078D01*
X591949Y486093D01*
X591988Y486189D01*
X592016Y486251D01*
X595601Y486251D01*
X595601Y477959D01*
X594266Y477959D01*
G37*
%LPD*%
%LPC*%
G36*
X592020Y488249D02*
X592020Y488249D01*
X592019Y488255D01*
X592010Y488272D01*
X592006Y488292D01*
X591953Y488381D01*
X591904Y488472D01*
X591890Y488486D01*
X591880Y488503D01*
X591801Y488570D01*
X591726Y488641D01*
X591708Y488650D01*
X591693Y488663D01*
X591597Y488702D01*
X591503Y488745D01*
X591483Y488747D01*
X591465Y488755D01*
X591298Y488773D01*
X586123Y488773D01*
X586123Y496461D01*
X587322Y496222D01*
X589020Y495519D01*
X590548Y494498D01*
X590842Y494204D01*
X590919Y494148D01*
X590993Y494087D01*
X591019Y494076D01*
X591042Y494060D01*
X591133Y494032D01*
X591222Y493997D01*
X591250Y493996D01*
X591277Y493988D01*
X591372Y493990D01*
X591467Y493986D01*
X591494Y493993D01*
X591523Y493994D01*
X591612Y494027D01*
X591704Y494053D01*
X591727Y494069D01*
X591754Y494079D01*
X591828Y494138D01*
X591907Y494192D01*
X591924Y494215D01*
X591946Y494232D01*
X591997Y494312D01*
X592055Y494389D01*
X592068Y494422D01*
X592079Y494439D01*
X592087Y494471D01*
X592116Y494545D01*
X592232Y494981D01*
X592567Y495560D01*
X593040Y496033D01*
X593619Y496368D01*
X594266Y496541D01*
X595601Y496541D01*
X595601Y488249D01*
X592020Y488249D01*
G37*
%LPD*%
%LPC*%
G36*
X414273Y183986D02*
X414273Y183986D01*
X414273Y192623D01*
X416959Y192623D01*
X422911Y186671D01*
X422911Y183986D01*
X414273Y183986D01*
G37*
%LPD*%
%LPC*%
G36*
X402589Y183986D02*
X402589Y183986D01*
X402589Y186671D01*
X408541Y192623D01*
X411227Y192623D01*
X411227Y183986D01*
X402589Y183986D01*
G37*
%LPD*%
%LPC*%
G36*
X414273Y172302D02*
X414273Y172302D01*
X414273Y180939D01*
X422911Y180939D01*
X422911Y178254D01*
X416959Y172302D01*
X414273Y172302D01*
G37*
%LPD*%
%LPC*%
G36*
X408541Y172302D02*
X408541Y172302D01*
X402589Y178254D01*
X402589Y180939D01*
X411227Y180939D01*
X411227Y172302D01*
X408541Y172302D01*
G37*
%LPD*%
%LPC*%
G36*
X377761Y319486D02*
X377761Y319486D01*
X377761Y326003D01*
X381572Y326003D01*
X382218Y325830D01*
X382798Y325496D01*
X383271Y325023D01*
X383605Y324443D01*
X383778Y323797D01*
X383778Y319486D01*
X377761Y319486D01*
G37*
%LPD*%
%LPC*%
G36*
X377761Y240573D02*
X377761Y240573D01*
X377761Y247091D01*
X381572Y247091D01*
X382218Y246918D01*
X382798Y246583D01*
X383271Y246110D01*
X383605Y245531D01*
X383778Y244884D01*
X383778Y240573D01*
X377761Y240573D01*
G37*
%LPD*%
%LPC*%
G36*
X501586Y245336D02*
X501586Y245336D01*
X501586Y251853D01*
X505397Y251853D01*
X506043Y251680D01*
X506623Y251346D01*
X507096Y250873D01*
X507430Y250293D01*
X507603Y249647D01*
X507603Y245336D01*
X501586Y245336D01*
G37*
%LPD*%
%LPC*%
G36*
X377761Y309922D02*
X377761Y309922D01*
X377761Y316439D01*
X383778Y316439D01*
X383778Y312128D01*
X383605Y311482D01*
X383271Y310902D01*
X382798Y310429D01*
X382218Y310095D01*
X381572Y309922D01*
X377761Y309922D01*
G37*
%LPD*%
%LPC*%
G36*
X501586Y235772D02*
X501586Y235772D01*
X501586Y242289D01*
X507603Y242289D01*
X507603Y237978D01*
X507430Y237332D01*
X507096Y236752D01*
X506623Y236279D01*
X506043Y235945D01*
X505397Y235772D01*
X501586Y235772D01*
G37*
%LPD*%
%LPC*%
G36*
X377761Y231009D02*
X377761Y231009D01*
X377761Y237527D01*
X383778Y237527D01*
X383778Y233216D01*
X383605Y232569D01*
X383271Y231990D01*
X382798Y231517D01*
X382218Y231182D01*
X381572Y231009D01*
X377761Y231009D01*
G37*
%LPD*%
%LPC*%
G36*
X368697Y319486D02*
X368697Y319486D01*
X368697Y323797D01*
X368870Y324443D01*
X369204Y325023D01*
X369677Y325496D01*
X370257Y325830D01*
X370903Y326003D01*
X374714Y326003D01*
X374714Y319486D01*
X368697Y319486D01*
G37*
%LPD*%
%LPC*%
G36*
X492522Y245336D02*
X492522Y245336D01*
X492522Y249647D01*
X492695Y250293D01*
X493029Y250873D01*
X493502Y251346D01*
X494082Y251680D01*
X494728Y251853D01*
X498539Y251853D01*
X498539Y245336D01*
X492522Y245336D01*
G37*
%LPD*%
%LPC*%
G36*
X368697Y240573D02*
X368697Y240573D01*
X368697Y244884D01*
X368870Y245531D01*
X369204Y246110D01*
X369677Y246583D01*
X370257Y246918D01*
X370903Y247091D01*
X374714Y247091D01*
X374714Y240573D01*
X368697Y240573D01*
G37*
%LPD*%
%LPC*%
G36*
X370903Y231009D02*
X370903Y231009D01*
X370257Y231182D01*
X369677Y231517D01*
X369204Y231990D01*
X368870Y232569D01*
X368697Y233216D01*
X368697Y237527D01*
X374714Y237527D01*
X374714Y231009D01*
X370903Y231009D01*
G37*
%LPD*%
%LPC*%
G36*
X370903Y278172D02*
X370903Y278172D01*
X370257Y278345D01*
X369677Y278679D01*
X369204Y279152D01*
X368870Y279732D01*
X368697Y280378D01*
X368697Y284689D01*
X374714Y284689D01*
X374714Y278172D01*
X370903Y278172D01*
G37*
%LPD*%
%LPC*%
G36*
X370903Y309922D02*
X370903Y309922D01*
X370257Y310095D01*
X369677Y310429D01*
X369204Y310902D01*
X368870Y311482D01*
X368697Y312128D01*
X368697Y316439D01*
X374714Y316439D01*
X374714Y309922D01*
X370903Y309922D01*
G37*
%LPD*%
%LPC*%
G36*
X494728Y235772D02*
X494728Y235772D01*
X494082Y235945D01*
X493502Y236279D01*
X493029Y236752D01*
X492695Y237332D01*
X492522Y237978D01*
X492522Y242289D01*
X498539Y242289D01*
X498539Y235772D01*
X494728Y235772D01*
G37*
%LPD*%
%LPC*%
G36*
X733798Y507709D02*
X733798Y507709D01*
X733798Y512727D01*
X738816Y512727D01*
X738816Y509916D01*
X738643Y509269D01*
X738308Y508690D01*
X737835Y508217D01*
X737256Y507882D01*
X736609Y507709D01*
X733798Y507709D01*
G37*
%LPD*%
%LPC*%
G36*
X703636Y507709D02*
X703636Y507709D01*
X703636Y512727D01*
X708653Y512727D01*
X708653Y509916D01*
X708480Y509269D01*
X708146Y508690D01*
X707673Y508217D01*
X707093Y507882D01*
X706447Y507709D01*
X703636Y507709D01*
G37*
%LPD*%
%LPC*%
G36*
X673473Y507709D02*
X673473Y507709D01*
X673473Y512727D01*
X678491Y512727D01*
X678491Y509916D01*
X678318Y509269D01*
X677983Y508690D01*
X677510Y508217D01*
X676931Y507882D01*
X676284Y507709D01*
X673473Y507709D01*
G37*
%LPD*%
%LPC*%
G36*
X727941Y507709D02*
X727941Y507709D01*
X727294Y507882D01*
X726715Y508217D01*
X726242Y508690D01*
X725907Y509269D01*
X725734Y509916D01*
X725734Y512727D01*
X730752Y512727D01*
X730752Y507709D01*
X727941Y507709D01*
G37*
%LPD*%
%LPC*%
G36*
X697778Y507709D02*
X697778Y507709D01*
X697132Y507882D01*
X696552Y508217D01*
X696079Y508690D01*
X695745Y509269D01*
X695572Y509916D01*
X695572Y512727D01*
X700589Y512727D01*
X700589Y507709D01*
X697778Y507709D01*
G37*
%LPD*%
%LPC*%
G36*
X667616Y507709D02*
X667616Y507709D01*
X666969Y507882D01*
X666390Y508217D01*
X665917Y508690D01*
X665582Y509269D01*
X665409Y509916D01*
X665409Y512727D01*
X670427Y512727D01*
X670427Y507709D01*
X667616Y507709D01*
G37*
%LPD*%
%LPC*%
G36*
X374649Y45624D02*
X374649Y45624D01*
X374649Y45626D01*
X374651Y45626D01*
X374651Y45624D01*
X374649Y45624D01*
G37*
%LPD*%
%LPC*%
G36*
X476249Y45624D02*
X476249Y45624D01*
X476249Y45626D01*
X476251Y45626D01*
X476251Y45624D01*
X476249Y45624D01*
G37*
%LPD*%
%LPC*%
G36*
X450849Y45624D02*
X450849Y45624D01*
X450849Y45626D01*
X450851Y45626D01*
X450851Y45624D01*
X450849Y45624D01*
G37*
%LPD*%
%LPC*%
G36*
X425449Y45624D02*
X425449Y45624D01*
X425449Y45626D01*
X425451Y45626D01*
X425451Y45624D01*
X425449Y45624D01*
G37*
%LPD*%
%LPC*%
G36*
X400049Y45624D02*
X400049Y45624D01*
X400049Y45626D01*
X400051Y45626D01*
X400051Y45624D01*
X400049Y45624D01*
G37*
%LPD*%
%LPC*%
G36*
X412749Y182462D02*
X412749Y182462D01*
X412749Y182463D01*
X412751Y182463D01*
X412751Y182462D01*
X412749Y182462D01*
G37*
%LPD*%
%LPC*%
G36*
X584599Y487249D02*
X584599Y487249D01*
X584599Y487251D01*
X584601Y487251D01*
X584601Y487249D01*
X584599Y487249D01*
G37*
%LPD*%
%LPC*%
G36*
X501649Y45624D02*
X501649Y45624D01*
X501649Y45626D01*
X501651Y45626D01*
X501651Y45624D01*
X501649Y45624D01*
G37*
%LPD*%
%LPC*%
G36*
X376237Y317962D02*
X376237Y317962D01*
X376237Y317963D01*
X376238Y317963D01*
X376238Y317962D01*
X376237Y317962D01*
G37*
%LPD*%
%LPC*%
G36*
X655174Y452337D02*
X655174Y452337D01*
X655174Y452338D01*
X655176Y452338D01*
X655176Y452337D01*
X655174Y452337D01*
G37*
%LPD*%
%LPC*%
G36*
X570374Y452337D02*
X570374Y452337D01*
X570374Y452338D01*
X570376Y452338D01*
X570376Y452337D01*
X570374Y452337D01*
G37*
%LPD*%
%LPC*%
G36*
X500062Y243812D02*
X500062Y243812D01*
X500062Y243813D01*
X500063Y243813D01*
X500063Y243812D01*
X500062Y243812D01*
G37*
%LPD*%
%LPC*%
G36*
X376237Y239049D02*
X376237Y239049D01*
X376237Y239051D01*
X376238Y239051D01*
X376238Y239049D01*
X376237Y239049D01*
G37*
%LPD*%
D10*
X376238Y256050D03*
X376238Y239050D03*
X376238Y269213D03*
X376238Y286213D03*
X500063Y260813D03*
X500063Y243813D03*
X376238Y300963D03*
X376238Y317963D03*
D11*
X604375Y452338D03*
X570375Y452338D03*
X621175Y452338D03*
X655175Y452338D03*
D12*
X732275Y514250D03*
X747275Y514250D03*
X702113Y514250D03*
X717113Y514250D03*
D13*
X341313Y214338D03*
X341313Y309338D03*
D14*
X388938Y162850D03*
X388938Y179850D03*
D10*
X637150Y431700D03*
X620150Y431700D03*
D14*
X747713Y481938D03*
X747713Y498938D03*
X717550Y481938D03*
X717550Y498938D03*
D10*
X588400Y411063D03*
X605400Y411063D03*
X588400Y431700D03*
X605400Y431700D03*
D15*
X463550Y157063D03*
D16*
X438150Y157063D03*
X412750Y157063D03*
X463550Y182463D03*
X438150Y182463D03*
X412750Y182463D03*
D17*
X397002Y324703D03*
X397002Y316829D03*
X397002Y308701D03*
X397002Y300827D03*
X397002Y292699D03*
X397002Y284825D03*
X397002Y276697D03*
X397002Y268823D03*
D18*
X410210Y255615D03*
X418084Y255615D03*
X426212Y255615D03*
X434086Y255615D03*
X442214Y255615D03*
X450088Y255615D03*
X458216Y255615D03*
X466090Y255615D03*
D17*
X479298Y268823D03*
X479298Y276697D03*
X479298Y284825D03*
X479298Y292699D03*
X479298Y300827D03*
X479298Y308701D03*
X479298Y316829D03*
X479298Y324703D03*
D18*
X466090Y337911D03*
X458216Y337911D03*
X450088Y337911D03*
X442214Y337911D03*
X434086Y337911D03*
X426212Y337911D03*
X418084Y337911D03*
X410210Y337911D03*
D19*
X619600Y514250D03*
X599600Y514250D03*
D20*
X609600Y487250D03*
X616100Y487250D03*
X596600Y487250D03*
X603100Y487250D03*
D21*
X634600Y487250D02*
X648180Y487250D01*
X584600Y487250D02*
X571020Y487250D01*
D22*
X647850Y514250D03*
X571350Y514250D03*
D20*
X622600Y487250D03*
D12*
X671950Y514250D03*
X686950Y514250D03*
D14*
X687388Y498938D03*
X687388Y481938D03*
D23*
X501650Y487580D02*
X501650Y502820D01*
X476250Y502820D02*
X476250Y487580D01*
X450850Y487580D02*
X450850Y502820D01*
X425450Y502820D02*
X425450Y487580D01*
X400050Y487580D02*
X400050Y502820D01*
X374650Y502820D02*
X374650Y487580D01*
X374650Y53245D02*
X374650Y38005D01*
X400050Y38005D02*
X400050Y53245D01*
X425450Y53245D02*
X425450Y38005D01*
X450850Y38005D02*
X450850Y53245D01*
X476250Y53245D02*
X476250Y38005D01*
X501650Y38005D02*
X501650Y53245D01*
D24*
X397002Y300827D02*
X376374Y300827D01*
X376238Y300963D01*
X397002Y300827D02*
X416624Y300827D01*
X420688Y296763D01*
X420688Y288825D01*
X416687Y284825D02*
X397002Y284825D01*
X416687Y284825D02*
X420688Y288825D01*
D25*
X622600Y477438D02*
X622600Y487250D01*
X622600Y477438D02*
X636588Y463450D01*
X636588Y432263D01*
X637150Y431700D01*
X664600Y481938D02*
X687388Y481938D01*
X664600Y481938D02*
X654050Y471388D01*
X644525Y471388D01*
X636588Y463450D01*
D26*
X636588Y465038D03*
D27*
X496888Y276125D03*
D24*
X496316Y276697D02*
X479298Y276697D01*
X496316Y276697D02*
X496888Y276125D01*
X498475Y277713D01*
D28*
X388938Y196750D02*
X388938Y179850D01*
X388938Y196750D02*
X396875Y204688D01*
D27*
X396875Y204688D03*
D24*
X416687Y284825D02*
X456438Y284825D01*
X464566Y276697D02*
X479298Y276697D01*
X464566Y276697D02*
X456438Y284825D01*
D25*
X636588Y463450D02*
X636588Y465038D01*
D24*
X500063Y272950D02*
X500063Y260813D01*
X500063Y272950D02*
X496888Y276125D01*
D29*
X411480Y292889D03*
X522288Y301525D03*
D25*
X397002Y268823D02*
X397002Y268315D01*
X385763Y257075D01*
X377263Y257075D01*
X376238Y256050D01*
D24*
X367275Y256050D01*
X344488Y233263D02*
X344488Y217513D01*
X341313Y214338D01*
X344488Y233263D02*
X367275Y256050D01*
D25*
X383722Y276697D02*
X397002Y276697D01*
X383722Y276697D02*
X376238Y269213D01*
D24*
X364100Y269213D01*
X346075Y287238D01*
X346075Y304575D01*
X341313Y309338D01*
X434086Y319877D02*
X434086Y337911D01*
X434086Y319877D02*
X434975Y318988D01*
X412750Y157063D02*
X394725Y157063D01*
X388938Y162850D01*
D26*
X434975Y318988D03*
D25*
X479298Y324703D02*
X485140Y324703D01*
X554038Y393600D01*
X629213Y393600D01*
X717550Y481938D01*
X493141Y316829D02*
X479298Y316829D01*
X493141Y316829D02*
X563563Y387250D01*
X653025Y387250D01*
X747713Y481938D01*
X747275Y499375D02*
X747275Y514250D01*
X747275Y499375D02*
X747713Y498938D01*
X717113Y499375D02*
X717113Y514250D01*
X717113Y499375D02*
X717550Y498938D01*
X616100Y487250D02*
X616100Y468063D01*
X620713Y463450D01*
X620713Y452800D01*
X621175Y452338D01*
X621175Y432725D01*
X620150Y431700D01*
X611188Y411063D02*
X605400Y411063D01*
X611188Y411063D02*
X620713Y420588D01*
X620713Y431138D01*
X620150Y431700D01*
X609600Y468213D02*
X609600Y487250D01*
X609600Y468213D02*
X604838Y463450D01*
X604838Y452800D01*
X604375Y452338D01*
X604375Y432725D01*
X605400Y431700D01*
D24*
X410210Y340578D02*
X410210Y337911D01*
D26*
X406400Y358675D03*
D25*
X550863Y431700D02*
X588400Y431700D01*
D29*
X477838Y358675D03*
D25*
X410210Y354865D02*
X410210Y340578D01*
X410210Y354865D02*
X406400Y358675D01*
X477838Y358675D02*
X550863Y431700D01*
X442214Y267489D02*
X442214Y255615D01*
X442214Y267489D02*
X442913Y269775D01*
D29*
X442913Y269775D03*
D25*
X434086Y255615D02*
X434086Y243677D01*
X434975Y242788D01*
D29*
X434975Y242788D03*
D25*
X544513Y411063D02*
X588400Y411063D01*
X544513Y411063D02*
X477838Y344388D01*
D29*
X477838Y344388D03*
D24*
X438150Y206275D02*
X438150Y182463D01*
X438150Y206275D02*
X458216Y226341D01*
X458216Y255615D01*
X466090Y255615D02*
X466090Y202465D01*
X450850Y187225D01*
X450850Y169763D01*
X463550Y157063D01*
X479298Y152173D02*
X479298Y268823D01*
X479298Y152173D02*
X469900Y142775D01*
X452438Y142775D01*
X438150Y157063D01*
X426212Y337911D02*
X426212Y418238D01*
X400050Y444400D01*
X400050Y495200D01*
X418084Y413666D02*
X418084Y337911D01*
X418084Y413666D02*
X374650Y457100D01*
X374650Y495200D01*
X466090Y412015D02*
X466090Y337911D01*
X466090Y412015D02*
X501650Y447575D01*
X501650Y495200D01*
X458216Y415254D02*
X458216Y337911D01*
X458216Y415254D02*
X476250Y433288D01*
X476250Y495200D01*
X450088Y494438D02*
X450088Y337911D01*
X450088Y494438D02*
X450850Y495200D01*
X442214Y414936D02*
X442214Y337911D01*
X442214Y414936D02*
X425450Y431700D01*
X425450Y495200D01*
D25*
X686950Y499375D02*
X686950Y514250D01*
X686950Y499375D02*
X687388Y498938D01*
D29*
X425450Y233263D03*
D25*
X426212Y234025D02*
X426212Y255615D01*
X426212Y234025D02*
X425450Y233263D01*
X418084Y241772D02*
X418084Y255615D01*
X418084Y241772D02*
X409575Y233263D01*
D29*
X409575Y233263D03*
D25*
X410210Y246598D02*
X410210Y255615D01*
X410210Y246598D02*
X396875Y233263D01*
D29*
X396875Y233263D03*
X415925Y317400D03*
D25*
X415354Y316829D01*
X397002Y316829D01*
D29*
X395288Y338038D03*
D25*
X395288Y326417D02*
X397002Y324703D01*
X395288Y326417D02*
X395288Y338038D01*
D29*
X506413Y293588D03*
D25*
X505524Y292699D02*
X479298Y292699D01*
X505524Y292699D02*
X506413Y293588D01*
D29*
X506413Y309463D03*
D25*
X505651Y308701D02*
X479298Y308701D01*
X505651Y308701D02*
X506413Y309463D01*
X515112Y284825D02*
X479298Y284825D01*
X515112Y284825D02*
X515938Y285650D01*
D29*
X515938Y285650D03*
D25*
X450088Y255615D02*
X450088Y237263D01*
X446088Y233263D01*
D29*
X446088Y233263D03*
M02*
