G04 EAGLE Gerber RS-274X export*
G75*
%MOMM*%
%FSLAX34Y34*%
%LPD*%
%INBottom Copper*%
%IPPOS*%
%AMOC8*
5,1,8,0,0,1.08239X$1,22.5*%
G01*
%ADD10C,0.355600*%
%ADD11C,1.524000*%
%ADD12P,1.649562X8X202.500000*%
%ADD13C,1.358000*%
%ADD14R,1.725000X1.725000*%
%ADD15C,1.524000*%
%ADD16C,1.270000*%
%ADD17C,0.856400*%
%ADD18C,0.956400*%
%ADD19C,0.609600*%
%ADD20C,0.406400*%
%ADD21C,0.756400*%

G36*
X39955Y20861D02*
X39955Y20861D01*
X39959Y20861D01*
X41963Y20878D01*
X42045Y20869D01*
X42077Y20862D01*
X42094Y20864D01*
X42122Y20861D01*
X833978Y20861D01*
X834039Y20871D01*
X834101Y20871D01*
X834129Y20879D01*
X836141Y20861D01*
X836143Y20861D01*
X836147Y20861D01*
X836204Y20861D01*
X836220Y20863D01*
X836247Y20862D01*
X839991Y21074D01*
X840015Y21079D01*
X840139Y21097D01*
X847400Y22974D01*
X847415Y22981D01*
X847430Y22983D01*
X847584Y23049D01*
X854112Y26741D01*
X854125Y26751D01*
X854139Y26757D01*
X854271Y26861D01*
X859621Y32117D01*
X859630Y32130D01*
X859643Y32139D01*
X859743Y32274D01*
X863550Y38735D01*
X863556Y38750D01*
X863566Y38763D01*
X863628Y38918D01*
X863630Y38926D01*
X863841Y39687D01*
X864053Y40448D01*
X864475Y41971D01*
X864686Y42732D01*
X865108Y44254D01*
X865109Y44254D01*
X865109Y44255D01*
X865320Y45016D01*
X865531Y45777D01*
X865633Y46144D01*
X865633Y46145D01*
X865636Y46169D01*
X865659Y46292D01*
X865937Y50034D01*
X865935Y50055D01*
X865939Y50091D01*
X865939Y490000D01*
X865936Y490018D01*
X865938Y490050D01*
X865689Y493845D01*
X865683Y493868D01*
X865665Y493992D01*
X863700Y501325D01*
X863693Y501339D01*
X863691Y501355D01*
X863624Y501508D01*
X859828Y508082D01*
X859818Y508094D01*
X859812Y508109D01*
X859707Y508240D01*
X854340Y513607D01*
X854327Y513617D01*
X854317Y513629D01*
X854182Y513728D01*
X847608Y517524D01*
X847594Y517529D01*
X847581Y517539D01*
X847425Y517600D01*
X840092Y519565D01*
X840069Y519567D01*
X839945Y519589D01*
X836150Y519838D01*
X836131Y519836D01*
X836100Y519839D01*
X659777Y519839D01*
X659757Y519836D01*
X659738Y519838D01*
X659636Y519816D01*
X659534Y519800D01*
X659517Y519790D01*
X659497Y519786D01*
X659408Y519733D01*
X659317Y519684D01*
X659303Y519670D01*
X659286Y519660D01*
X659219Y519581D01*
X659147Y519506D01*
X659139Y519488D01*
X659126Y519473D01*
X659087Y519377D01*
X659044Y519283D01*
X659042Y519263D01*
X659034Y519245D01*
X659016Y519078D01*
X659016Y515773D01*
X648612Y515773D01*
X648592Y515770D01*
X648573Y515772D01*
X648471Y515750D01*
X648369Y515733D01*
X648352Y515724D01*
X648332Y515720D01*
X648243Y515667D01*
X648152Y515618D01*
X648138Y515604D01*
X648121Y515594D01*
X648054Y515515D01*
X647983Y515440D01*
X647974Y515422D01*
X647961Y515407D01*
X647923Y515311D01*
X647879Y515217D01*
X647877Y515197D01*
X647869Y515179D01*
X647851Y515012D01*
X647851Y514249D01*
X647849Y514249D01*
X647849Y515012D01*
X647846Y515032D01*
X647848Y515051D01*
X647826Y515153D01*
X647809Y515255D01*
X647800Y515272D01*
X647796Y515292D01*
X647743Y515381D01*
X647694Y515472D01*
X647680Y515486D01*
X647670Y515503D01*
X647591Y515570D01*
X647516Y515641D01*
X647498Y515650D01*
X647483Y515663D01*
X647387Y515702D01*
X647293Y515745D01*
X647273Y515747D01*
X647255Y515755D01*
X647088Y515773D01*
X636684Y515773D01*
X636684Y519078D01*
X636681Y519098D01*
X636683Y519117D01*
X636661Y519219D01*
X636645Y519321D01*
X636635Y519338D01*
X636631Y519358D01*
X636578Y519447D01*
X636529Y519538D01*
X636515Y519552D01*
X636505Y519569D01*
X636426Y519636D01*
X636351Y519708D01*
X636333Y519716D01*
X636318Y519729D01*
X636222Y519768D01*
X636128Y519811D01*
X636108Y519813D01*
X636090Y519821D01*
X635923Y519839D01*
X583277Y519839D01*
X583257Y519836D01*
X583238Y519838D01*
X583136Y519816D01*
X583034Y519800D01*
X583017Y519790D01*
X582997Y519786D01*
X582908Y519733D01*
X582817Y519684D01*
X582803Y519670D01*
X582786Y519660D01*
X582719Y519581D01*
X582647Y519506D01*
X582639Y519488D01*
X582626Y519473D01*
X582587Y519377D01*
X582544Y519283D01*
X582542Y519263D01*
X582534Y519245D01*
X582516Y519078D01*
X582516Y515773D01*
X572112Y515773D01*
X572092Y515770D01*
X572073Y515772D01*
X571971Y515750D01*
X571869Y515733D01*
X571852Y515724D01*
X571832Y515720D01*
X571743Y515667D01*
X571652Y515618D01*
X571638Y515604D01*
X571621Y515594D01*
X571554Y515515D01*
X571483Y515440D01*
X571474Y515422D01*
X571461Y515407D01*
X571423Y515311D01*
X571379Y515217D01*
X571377Y515197D01*
X571369Y515179D01*
X571351Y515012D01*
X571351Y514249D01*
X571349Y514249D01*
X571349Y515012D01*
X571346Y515032D01*
X571348Y515051D01*
X571326Y515153D01*
X571309Y515255D01*
X571300Y515272D01*
X571296Y515292D01*
X571243Y515381D01*
X571194Y515472D01*
X571180Y515486D01*
X571170Y515503D01*
X571091Y515570D01*
X571016Y515641D01*
X570998Y515650D01*
X570983Y515663D01*
X570887Y515702D01*
X570793Y515745D01*
X570773Y515747D01*
X570755Y515755D01*
X570588Y515773D01*
X560184Y515773D01*
X560184Y519078D01*
X560181Y519098D01*
X560183Y519117D01*
X560161Y519219D01*
X560145Y519321D01*
X560135Y519338D01*
X560131Y519358D01*
X560078Y519447D01*
X560029Y519538D01*
X560015Y519552D01*
X560005Y519569D01*
X559926Y519636D01*
X559851Y519708D01*
X559833Y519716D01*
X559818Y519729D01*
X559722Y519768D01*
X559628Y519811D01*
X559608Y519813D01*
X559590Y519821D01*
X559423Y519839D01*
X40000Y519839D01*
X39982Y519836D01*
X39950Y519838D01*
X36155Y519589D01*
X36132Y519583D01*
X36008Y519565D01*
X28675Y517600D01*
X28661Y517593D01*
X28645Y517591D01*
X28492Y517524D01*
X21918Y513728D01*
X21906Y513718D01*
X21891Y513712D01*
X21760Y513607D01*
X16393Y508240D01*
X16383Y508227D01*
X16371Y508217D01*
X16272Y508082D01*
X12476Y501508D01*
X12471Y501494D01*
X12461Y501481D01*
X12400Y501325D01*
X10435Y493992D01*
X10433Y493969D01*
X10411Y493845D01*
X10162Y490050D01*
X10164Y490031D01*
X10161Y490000D01*
X10161Y50091D01*
X10164Y50070D01*
X10163Y50034D01*
X10441Y46292D01*
X10447Y46269D01*
X10467Y46145D01*
X12472Y38918D01*
X12478Y38904D01*
X12481Y38888D01*
X12492Y38863D01*
X12495Y38851D01*
X12506Y38833D01*
X12550Y38735D01*
X16357Y32274D01*
X16367Y32262D01*
X16373Y32247D01*
X16479Y32117D01*
X21829Y26861D01*
X21842Y26852D01*
X21852Y26839D01*
X21988Y26741D01*
X28516Y23049D01*
X28530Y23043D01*
X28543Y23034D01*
X28700Y22974D01*
X35961Y21097D01*
X35985Y21095D01*
X36109Y21074D01*
X39853Y20862D01*
X39869Y20864D01*
X39896Y20861D01*
X39953Y20861D01*
X39955Y20861D01*
G37*
%LPC*%
G36*
X408962Y147918D02*
X408962Y147918D01*
X403605Y153275D01*
X403605Y160862D01*
X403591Y160952D01*
X403583Y161043D01*
X403571Y161073D01*
X403566Y161105D01*
X403523Y161185D01*
X403487Y161269D01*
X403461Y161301D01*
X403450Y161322D01*
X403427Y161344D01*
X403382Y161400D01*
X387287Y177496D01*
X384980Y179802D01*
X384980Y242273D01*
X431195Y288488D01*
X431248Y288562D01*
X431308Y288631D01*
X431320Y288661D01*
X431339Y288688D01*
X431366Y288774D01*
X431400Y288859D01*
X431404Y288900D01*
X431411Y288923D01*
X431410Y288955D01*
X431418Y289026D01*
X431418Y314017D01*
X431404Y314107D01*
X431396Y314198D01*
X431384Y314228D01*
X431379Y314260D01*
X431336Y314340D01*
X431300Y314424D01*
X431274Y314456D01*
X431263Y314477D01*
X431240Y314499D01*
X431195Y314555D01*
X430052Y315698D01*
X429168Y317832D01*
X429168Y320143D01*
X430052Y322277D01*
X431686Y323910D01*
X433820Y324794D01*
X436130Y324794D01*
X438264Y323910D01*
X439898Y322277D01*
X440782Y320143D01*
X440782Y317832D01*
X439898Y315698D01*
X438755Y314555D01*
X438702Y314481D01*
X438642Y314412D01*
X438630Y314382D01*
X438611Y314356D01*
X438584Y314268D01*
X438550Y314184D01*
X438546Y314143D01*
X438539Y314120D01*
X438540Y314088D01*
X438532Y314017D01*
X438532Y285764D01*
X392317Y239549D01*
X392264Y239475D01*
X392204Y239406D01*
X392192Y239376D01*
X392173Y239349D01*
X392146Y239263D01*
X392112Y239178D01*
X392108Y239137D01*
X392101Y239114D01*
X392102Y239082D01*
X392094Y239011D01*
X392094Y237824D01*
X392105Y237753D01*
X392107Y237681D01*
X392125Y237632D01*
X392133Y237581D01*
X392167Y237518D01*
X392192Y237450D01*
X392224Y237410D01*
X392249Y237364D01*
X392301Y237314D01*
X392345Y237258D01*
X392389Y237230D01*
X392427Y237194D01*
X392492Y237164D01*
X392552Y237125D01*
X392603Y237113D01*
X392650Y237091D01*
X392721Y237083D01*
X392791Y237065D01*
X392843Y237069D01*
X392894Y237064D01*
X392965Y237079D01*
X393036Y237084D01*
X393084Y237105D01*
X393135Y237116D01*
X393196Y237153D01*
X393262Y237181D01*
X393318Y237226D01*
X393346Y237242D01*
X393361Y237260D01*
X393393Y237286D01*
X394677Y238569D01*
X399073Y238569D01*
X402182Y235461D01*
X402182Y233301D01*
X402196Y233211D01*
X402204Y233120D01*
X402216Y233090D01*
X402221Y233058D01*
X402264Y232978D01*
X402300Y232894D01*
X402326Y232862D01*
X402337Y232841D01*
X402360Y232819D01*
X402405Y232763D01*
X402969Y232199D01*
X403027Y232157D01*
X403079Y232108D01*
X403126Y232086D01*
X403168Y232055D01*
X403237Y232034D01*
X403302Y232004D01*
X403354Y231998D01*
X403404Y231983D01*
X403475Y231985D01*
X403546Y231977D01*
X403597Y231988D01*
X403649Y231989D01*
X403717Y232014D01*
X403787Y232029D01*
X403832Y232056D01*
X403880Y232074D01*
X403936Y232118D01*
X403998Y232155D01*
X404032Y232195D01*
X404072Y232227D01*
X404111Y232287D01*
X404158Y232342D01*
X404177Y232391D01*
X404205Y232434D01*
X404223Y232504D01*
X404250Y232570D01*
X404258Y232642D01*
X404266Y232673D01*
X404264Y232696D01*
X404268Y232737D01*
X404268Y235461D01*
X407377Y238569D01*
X411773Y238569D01*
X414882Y235461D01*
X414882Y233301D01*
X414896Y233211D01*
X414904Y233120D01*
X414916Y233090D01*
X414921Y233058D01*
X414964Y232978D01*
X415000Y232894D01*
X415026Y232862D01*
X415037Y232841D01*
X415060Y232819D01*
X415105Y232763D01*
X419572Y228296D01*
X419625Y228258D01*
X419672Y228212D01*
X419745Y228172D01*
X419771Y228152D01*
X419790Y228147D01*
X419819Y228131D01*
X421845Y227291D01*
X421940Y227269D01*
X422033Y227241D01*
X422059Y227241D01*
X422084Y227235D01*
X422181Y227244D01*
X422279Y227247D01*
X422303Y227256D01*
X422329Y227258D01*
X422418Y227298D01*
X422510Y227331D01*
X422530Y227348D01*
X422554Y227358D01*
X422626Y227424D01*
X422702Y227485D01*
X422716Y227507D01*
X422735Y227525D01*
X422782Y227610D01*
X422835Y227692D01*
X422841Y227717D01*
X422854Y227740D01*
X422871Y227836D01*
X422895Y227931D01*
X422893Y227957D01*
X422897Y227982D01*
X422883Y228079D01*
X422876Y228176D01*
X422866Y228200D01*
X422862Y228226D01*
X422817Y228313D01*
X422779Y228402D01*
X422759Y228427D01*
X422750Y228445D01*
X422727Y228468D01*
X422675Y228533D01*
X420143Y231064D01*
X420143Y235461D01*
X423252Y238569D01*
X427648Y238569D01*
X430757Y235461D01*
X430757Y233301D01*
X430771Y233211D01*
X430779Y233120D01*
X430791Y233090D01*
X430796Y233058D01*
X430839Y232978D01*
X430875Y232894D01*
X430901Y232862D01*
X430912Y232841D01*
X430935Y232819D01*
X430980Y232763D01*
X435447Y228296D01*
X435500Y228258D01*
X435547Y228212D01*
X435620Y228171D01*
X435646Y228152D01*
X435665Y228147D01*
X435694Y228131D01*
X437848Y227238D01*
X440063Y225023D01*
X441262Y222129D01*
X441262Y218996D01*
X440063Y216102D01*
X437848Y213887D01*
X434954Y212688D01*
X431821Y212688D01*
X428927Y213887D01*
X426712Y216102D01*
X426153Y217450D01*
X426116Y217511D01*
X426086Y217576D01*
X426051Y217615D01*
X426024Y217659D01*
X425969Y217704D01*
X425920Y217757D01*
X425874Y217782D01*
X425834Y217816D01*
X425767Y217841D01*
X425704Y217876D01*
X425653Y217885D01*
X425605Y217904D01*
X425533Y217907D01*
X425462Y217920D01*
X425411Y217912D01*
X425359Y217914D01*
X425290Y217894D01*
X425219Y217884D01*
X425173Y217860D01*
X425123Y217846D01*
X425064Y217805D01*
X425000Y217772D01*
X424963Y217735D01*
X424921Y217705D01*
X424878Y217648D01*
X424828Y217597D01*
X424793Y217534D01*
X424774Y217508D01*
X424767Y217486D01*
X424747Y217450D01*
X424188Y216102D01*
X421973Y213887D01*
X419079Y212688D01*
X415946Y212688D01*
X413052Y213887D01*
X410837Y216102D01*
X409638Y218996D01*
X409638Y222129D01*
X410837Y225023D01*
X411272Y225459D01*
X411284Y225475D01*
X411299Y225487D01*
X411355Y225574D01*
X411416Y225658D01*
X411422Y225677D01*
X411432Y225694D01*
X411458Y225795D01*
X411488Y225894D01*
X411488Y225913D01*
X411492Y225933D01*
X411484Y226036D01*
X411482Y226139D01*
X411475Y226158D01*
X411473Y226178D01*
X411433Y226273D01*
X411397Y226370D01*
X411385Y226386D01*
X411377Y226404D01*
X411272Y226535D01*
X410075Y227733D01*
X410001Y227786D01*
X409931Y227845D01*
X409901Y227858D01*
X409875Y227876D01*
X409788Y227903D01*
X409703Y227937D01*
X409662Y227942D01*
X409640Y227949D01*
X409608Y227948D01*
X409536Y227956D01*
X407377Y227956D01*
X404906Y230426D01*
X404848Y230468D01*
X404796Y230518D01*
X404749Y230540D01*
X404707Y230570D01*
X404638Y230591D01*
X404573Y230621D01*
X404521Y230627D01*
X404471Y230642D01*
X404400Y230640D01*
X404329Y230648D01*
X404278Y230637D01*
X404226Y230636D01*
X404158Y230611D01*
X404088Y230596D01*
X404043Y230569D01*
X403995Y230551D01*
X403939Y230507D01*
X403877Y230470D01*
X403843Y230430D01*
X403803Y230398D01*
X403764Y230337D01*
X403717Y230283D01*
X403698Y230235D01*
X403670Y230191D01*
X403652Y230121D01*
X403625Y230055D01*
X403617Y229983D01*
X403609Y229952D01*
X403611Y229929D01*
X403607Y229888D01*
X403607Y228121D01*
X403626Y228007D01*
X403643Y227891D01*
X403645Y227885D01*
X403646Y227879D01*
X403701Y227776D01*
X403754Y227671D01*
X403759Y227667D01*
X403762Y227661D01*
X403846Y227581D01*
X403930Y227499D01*
X403936Y227495D01*
X403940Y227492D01*
X403957Y227484D01*
X404077Y227418D01*
X404511Y227238D01*
X406726Y225023D01*
X407925Y222129D01*
X407925Y218996D01*
X406726Y216102D01*
X404511Y213887D01*
X401616Y212688D01*
X398484Y212688D01*
X395589Y213887D01*
X393393Y216083D01*
X393335Y216125D01*
X393283Y216174D01*
X393236Y216196D01*
X393194Y216226D01*
X393125Y216247D01*
X393060Y216278D01*
X393008Y216283D01*
X392958Y216299D01*
X392887Y216297D01*
X392816Y216305D01*
X392765Y216294D01*
X392713Y216292D01*
X392645Y216268D01*
X392575Y216252D01*
X392530Y216226D01*
X392482Y216208D01*
X392426Y216163D01*
X392364Y216126D01*
X392330Y216087D01*
X392290Y216054D01*
X392251Y215994D01*
X392204Y215939D01*
X392185Y215891D01*
X392157Y215847D01*
X392139Y215778D01*
X392112Y215711D01*
X392104Y215640D01*
X392096Y215609D01*
X392098Y215585D01*
X392094Y215544D01*
X392094Y210663D01*
X392105Y210592D01*
X392107Y210520D01*
X392125Y210471D01*
X392133Y210420D01*
X392167Y210357D01*
X392192Y210289D01*
X392224Y210249D01*
X392249Y210203D01*
X392301Y210153D01*
X392346Y210097D01*
X392389Y210069D01*
X392427Y210034D01*
X392492Y210003D01*
X392553Y209964D01*
X392603Y209952D01*
X392650Y209930D01*
X392722Y209922D01*
X392791Y209905D01*
X392843Y209909D01*
X392894Y209903D01*
X392965Y209918D01*
X393037Y209924D01*
X393084Y209944D01*
X393135Y209955D01*
X393186Y209986D01*
X395621Y210994D01*
X398129Y210994D01*
X400448Y210034D01*
X400998Y209483D01*
X401072Y209430D01*
X401142Y209371D01*
X401172Y209358D01*
X401198Y209340D01*
X401285Y209313D01*
X401370Y209279D01*
X401411Y209274D01*
X401433Y209267D01*
X401465Y209268D01*
X401537Y209260D01*
X449569Y209260D01*
X452471Y206359D01*
X457678Y201152D01*
X457736Y201110D01*
X457788Y201060D01*
X457835Y201038D01*
X457877Y201008D01*
X457946Y200987D01*
X458011Y200957D01*
X458063Y200951D01*
X458113Y200936D01*
X458184Y200938D01*
X458255Y200930D01*
X458306Y200941D01*
X458358Y200942D01*
X458426Y200967D01*
X458496Y200982D01*
X458541Y201009D01*
X458589Y201026D01*
X458645Y201071D01*
X458707Y201108D01*
X458741Y201148D01*
X458781Y201180D01*
X458820Y201240D01*
X458867Y201295D01*
X458886Y201343D01*
X458914Y201387D01*
X458932Y201457D01*
X458959Y201523D01*
X458967Y201594D01*
X458975Y201626D01*
X458973Y201649D01*
X458977Y201690D01*
X458977Y215779D01*
X458962Y215875D01*
X458952Y215972D01*
X458942Y215996D01*
X458938Y216022D01*
X458892Y216108D01*
X458852Y216197D01*
X458835Y216216D01*
X458822Y216239D01*
X458752Y216306D01*
X458686Y216378D01*
X458663Y216390D01*
X458644Y216408D01*
X458556Y216449D01*
X458470Y216496D01*
X458445Y216501D01*
X458421Y216512D01*
X458324Y216523D01*
X458228Y216540D01*
X458202Y216536D01*
X458177Y216539D01*
X458081Y216518D01*
X457985Y216504D01*
X457962Y216492D01*
X457936Y216487D01*
X457853Y216437D01*
X457766Y216393D01*
X457747Y216374D01*
X457725Y216361D01*
X457662Y216287D01*
X457594Y216217D01*
X457578Y216188D01*
X457565Y216174D01*
X457553Y216143D01*
X457535Y216111D01*
X455311Y213887D01*
X452416Y212688D01*
X449284Y212688D01*
X446389Y213887D01*
X444174Y216102D01*
X442975Y218996D01*
X442975Y222129D01*
X444174Y225023D01*
X445807Y226656D01*
X445849Y226714D01*
X445898Y226766D01*
X445920Y226814D01*
X445951Y226856D01*
X445972Y226924D01*
X446002Y226990D01*
X446008Y227041D01*
X446023Y227091D01*
X446021Y227163D01*
X446029Y227234D01*
X446018Y227285D01*
X446017Y227337D01*
X445992Y227404D01*
X445977Y227474D01*
X445950Y227519D01*
X445932Y227568D01*
X445887Y227624D01*
X445851Y227685D01*
X445811Y227719D01*
X445779Y227760D01*
X445718Y227799D01*
X445664Y227845D01*
X445615Y227865D01*
X445572Y227893D01*
X445502Y227910D01*
X445436Y227937D01*
X445364Y227945D01*
X445333Y227953D01*
X445310Y227951D01*
X445269Y227956D01*
X443889Y227956D01*
X440781Y231064D01*
X440781Y235461D01*
X443889Y238569D01*
X448286Y238569D01*
X451394Y235461D01*
X451394Y233301D01*
X451409Y233211D01*
X451416Y233120D01*
X451429Y233090D01*
X451434Y233058D01*
X451477Y232978D01*
X451512Y232894D01*
X451538Y232862D01*
X451549Y232841D01*
X451572Y232819D01*
X451617Y232763D01*
X454407Y229973D01*
X454407Y228121D01*
X454426Y228007D01*
X454443Y227891D01*
X454445Y227885D01*
X454446Y227879D01*
X454501Y227776D01*
X454554Y227671D01*
X454559Y227667D01*
X454562Y227661D01*
X454646Y227581D01*
X454730Y227499D01*
X454736Y227495D01*
X454740Y227492D01*
X454757Y227484D01*
X454877Y227418D01*
X455311Y227238D01*
X457543Y225006D01*
X457564Y224972D01*
X457610Y224886D01*
X457628Y224868D01*
X457642Y224846D01*
X457717Y224784D01*
X457788Y224717D01*
X457812Y224706D01*
X457832Y224689D01*
X457923Y224654D01*
X458011Y224613D01*
X458037Y224610D01*
X458061Y224601D01*
X458159Y224597D01*
X458255Y224586D01*
X458281Y224592D01*
X458307Y224590D01*
X458401Y224618D01*
X458496Y224638D01*
X458518Y224652D01*
X458543Y224659D01*
X458623Y224714D01*
X458707Y224764D01*
X458724Y224784D01*
X458745Y224799D01*
X458803Y224877D01*
X458867Y224951D01*
X458877Y224976D01*
X458892Y224997D01*
X458922Y225089D01*
X458959Y225180D01*
X458962Y225212D01*
X458968Y225230D01*
X458968Y225263D01*
X458977Y225346D01*
X458977Y244682D01*
X490358Y276062D01*
X490411Y276136D01*
X490470Y276206D01*
X490483Y276236D01*
X490501Y276262D01*
X490528Y276349D01*
X490562Y276434D01*
X490567Y276475D01*
X490574Y276497D01*
X490573Y276529D01*
X490581Y276600D01*
X490581Y277379D01*
X491541Y279698D01*
X492092Y280248D01*
X492145Y280322D01*
X492204Y280392D01*
X492217Y280422D01*
X492235Y280448D01*
X492262Y280535D01*
X492296Y280620D01*
X492301Y280661D01*
X492308Y280683D01*
X492307Y280715D01*
X492315Y280787D01*
X492315Y436769D01*
X525156Y469610D01*
X632633Y469610D01*
X632723Y469625D01*
X632814Y469632D01*
X632844Y469645D01*
X632876Y469650D01*
X632956Y469693D01*
X633040Y469728D01*
X633072Y469754D01*
X633093Y469765D01*
X633115Y469788D01*
X633171Y469833D01*
X633298Y469960D01*
X635432Y470844D01*
X637743Y470844D01*
X639877Y469960D01*
X641510Y468327D01*
X642394Y466193D01*
X642394Y463882D01*
X641510Y461748D01*
X639877Y460115D01*
X637743Y459231D01*
X635432Y459231D01*
X633298Y460115D01*
X633171Y460242D01*
X633097Y460295D01*
X633028Y460354D01*
X632998Y460367D01*
X632971Y460385D01*
X632885Y460412D01*
X632800Y460446D01*
X632759Y460451D01*
X632736Y460458D01*
X632704Y460457D01*
X632633Y460465D01*
X529259Y460465D01*
X529169Y460450D01*
X529078Y460443D01*
X529049Y460430D01*
X529017Y460425D01*
X528936Y460382D01*
X528852Y460347D01*
X528820Y460321D01*
X528799Y460310D01*
X528777Y460287D01*
X528721Y460242D01*
X501683Y433204D01*
X501636Y433139D01*
X501623Y433125D01*
X501620Y433119D01*
X501571Y433060D01*
X501558Y433030D01*
X501540Y433004D01*
X501513Y432917D01*
X501479Y432832D01*
X501474Y432791D01*
X501467Y432769D01*
X501468Y432737D01*
X501460Y432666D01*
X501460Y313853D01*
X501472Y313782D01*
X501474Y313710D01*
X501492Y313661D01*
X501500Y313610D01*
X501534Y313547D01*
X501558Y313479D01*
X501591Y313439D01*
X501615Y313393D01*
X501667Y313343D01*
X501712Y313287D01*
X501756Y313259D01*
X501793Y313223D01*
X501858Y313193D01*
X501919Y313154D01*
X501969Y313142D01*
X502016Y313120D01*
X502088Y313112D01*
X502157Y313094D01*
X502209Y313098D01*
X502261Y313093D01*
X502331Y313108D01*
X502402Y313113D01*
X502450Y313134D01*
X502501Y313145D01*
X502563Y313182D01*
X502629Y313210D01*
X502685Y313255D01*
X502712Y313271D01*
X502728Y313289D01*
X502760Y313315D01*
X504214Y314769D01*
X508611Y314769D01*
X510138Y313242D01*
X510212Y313189D01*
X510281Y313130D01*
X510311Y313118D01*
X510337Y313099D01*
X510424Y313072D01*
X510509Y313038D01*
X510550Y313033D01*
X510572Y313026D01*
X510605Y313027D01*
X510676Y313019D01*
X530024Y313019D01*
X530114Y313034D01*
X530205Y313041D01*
X530235Y313054D01*
X530267Y313059D01*
X530347Y313102D01*
X530431Y313137D01*
X530463Y313163D01*
X530484Y313174D01*
X530506Y313197D01*
X530562Y313242D01*
X550940Y333620D01*
X551008Y333714D01*
X551078Y333809D01*
X551080Y333815D01*
X551084Y333820D01*
X551118Y333931D01*
X551154Y334043D01*
X551154Y334049D01*
X551156Y334055D01*
X551153Y334172D01*
X551152Y334288D01*
X551150Y334296D01*
X551150Y334301D01*
X551143Y334318D01*
X551105Y334450D01*
X550925Y334884D01*
X550925Y338016D01*
X552124Y340911D01*
X554339Y343126D01*
X557234Y344325D01*
X560366Y344325D01*
X563261Y343126D01*
X565476Y340911D01*
X566675Y338016D01*
X566675Y334884D01*
X565476Y331989D01*
X563261Y329774D01*
X561913Y329216D01*
X561852Y329178D01*
X561786Y329149D01*
X561748Y329114D01*
X561704Y329086D01*
X561658Y329031D01*
X561605Y328982D01*
X561580Y328937D01*
X561547Y328897D01*
X561521Y328830D01*
X561487Y328767D01*
X561477Y328716D01*
X561459Y328667D01*
X561456Y328596D01*
X561443Y328525D01*
X561450Y328473D01*
X561448Y328421D01*
X561468Y328352D01*
X561479Y328282D01*
X561502Y328235D01*
X561517Y328185D01*
X561558Y328126D01*
X561590Y328062D01*
X561627Y328026D01*
X561657Y327983D01*
X561715Y327940D01*
X561766Y327890D01*
X561829Y327855D01*
X561854Y327836D01*
X561877Y327829D01*
X561913Y327809D01*
X563261Y327251D01*
X565476Y325036D01*
X566675Y322141D01*
X566675Y319009D01*
X565476Y316114D01*
X563261Y313899D01*
X561913Y313341D01*
X561852Y313303D01*
X561786Y313274D01*
X561748Y313239D01*
X561704Y313211D01*
X561658Y313156D01*
X561605Y313107D01*
X561580Y313062D01*
X561547Y313022D01*
X561521Y312955D01*
X561487Y312892D01*
X561477Y312841D01*
X561459Y312792D01*
X561456Y312721D01*
X561443Y312650D01*
X561450Y312598D01*
X561448Y312546D01*
X561468Y312477D01*
X561479Y312407D01*
X561502Y312360D01*
X561517Y312310D01*
X561558Y312251D01*
X561590Y312187D01*
X561627Y312151D01*
X561657Y312108D01*
X561715Y312065D01*
X561766Y312015D01*
X561829Y311981D01*
X561854Y311961D01*
X561877Y311954D01*
X561913Y311934D01*
X563261Y311376D01*
X565476Y309161D01*
X566675Y306266D01*
X566675Y303134D01*
X565476Y300239D01*
X563261Y298024D01*
X560366Y296825D01*
X557234Y296825D01*
X556800Y297005D01*
X556686Y297032D01*
X556573Y297060D01*
X556566Y297060D01*
X556560Y297061D01*
X556444Y297050D01*
X556327Y297041D01*
X556322Y297039D01*
X556315Y297038D01*
X556208Y296990D01*
X556101Y296945D01*
X556095Y296940D01*
X556091Y296938D01*
X556077Y296925D01*
X555970Y296840D01*
X541223Y282093D01*
X520201Y282093D01*
X520111Y282079D01*
X520020Y282071D01*
X519990Y282059D01*
X519958Y282054D01*
X519878Y282011D01*
X519794Y281975D01*
X519762Y281949D01*
X519741Y281938D01*
X519719Y281915D01*
X519663Y281870D01*
X518136Y280343D01*
X513739Y280343D01*
X510631Y283452D01*
X510631Y287848D01*
X511514Y288731D01*
X511556Y288789D01*
X511605Y288841D01*
X511627Y288889D01*
X511657Y288931D01*
X511679Y288999D01*
X511709Y289065D01*
X511714Y289116D01*
X511730Y289166D01*
X511728Y289238D01*
X511736Y289309D01*
X511725Y289360D01*
X511723Y289412D01*
X511699Y289479D01*
X511684Y289549D01*
X511657Y289594D01*
X511639Y289643D01*
X511594Y289699D01*
X511557Y289760D01*
X511518Y289794D01*
X511485Y289835D01*
X511425Y289874D01*
X511370Y289920D01*
X511322Y289940D01*
X511278Y289968D01*
X511209Y289985D01*
X511142Y290012D01*
X511071Y290020D01*
X511040Y290028D01*
X511017Y290026D01*
X510976Y290031D01*
X510676Y290031D01*
X510586Y290016D01*
X510495Y290009D01*
X510465Y289996D01*
X510433Y289991D01*
X510353Y289948D01*
X510269Y289913D01*
X510237Y289887D01*
X510216Y289876D01*
X510194Y289853D01*
X510138Y289808D01*
X508611Y288281D01*
X504214Y288281D01*
X502760Y289735D01*
X502702Y289777D01*
X502650Y289827D01*
X502602Y289849D01*
X502560Y289879D01*
X502492Y289900D01*
X502426Y289930D01*
X502375Y289936D01*
X502325Y289951D01*
X502253Y289949D01*
X502182Y289957D01*
X502131Y289946D01*
X502079Y289945D01*
X502012Y289920D01*
X501942Y289905D01*
X501897Y289878D01*
X501848Y289860D01*
X501792Y289816D01*
X501731Y289779D01*
X501697Y289739D01*
X501656Y289707D01*
X501617Y289646D01*
X501571Y289592D01*
X501551Y289544D01*
X501523Y289500D01*
X501506Y289430D01*
X501479Y289364D01*
X501471Y289292D01*
X501463Y289261D01*
X501465Y289238D01*
X501460Y289197D01*
X501460Y280787D01*
X501475Y280697D01*
X501482Y280606D01*
X501495Y280576D01*
X501500Y280544D01*
X501543Y280463D01*
X501578Y280379D01*
X501604Y280347D01*
X501615Y280327D01*
X501638Y280304D01*
X501683Y280248D01*
X502234Y279698D01*
X503194Y277379D01*
X503194Y274871D01*
X502234Y272552D01*
X500460Y270778D01*
X498142Y269818D01*
X497363Y269818D01*
X497273Y269804D01*
X497182Y269796D01*
X497152Y269784D01*
X497120Y269779D01*
X497039Y269736D01*
X496956Y269700D01*
X496923Y269674D01*
X496903Y269663D01*
X496881Y269640D01*
X496825Y269595D01*
X468346Y241116D01*
X468293Y241042D01*
X468233Y240973D01*
X468221Y240943D01*
X468202Y240917D01*
X468175Y240830D01*
X468141Y240745D01*
X468137Y240704D01*
X468130Y240682D01*
X468131Y240649D01*
X468123Y240578D01*
X468123Y223293D01*
X468126Y223273D01*
X468124Y223254D01*
X468146Y223152D01*
X468162Y223050D01*
X468172Y223033D01*
X468176Y223013D01*
X468229Y222924D01*
X468278Y222833D01*
X468292Y222819D01*
X468302Y222802D01*
X468381Y222735D01*
X468456Y222663D01*
X468474Y222655D01*
X468489Y222642D01*
X468585Y222603D01*
X468679Y222560D01*
X468699Y222558D01*
X468717Y222550D01*
X468884Y222532D01*
X479804Y222532D01*
X479918Y222551D01*
X480034Y222568D01*
X480040Y222570D01*
X480046Y222571D01*
X480149Y222626D01*
X480254Y222679D01*
X480258Y222684D01*
X480264Y222687D01*
X480344Y222771D01*
X480426Y222855D01*
X480430Y222861D01*
X480433Y222865D01*
X480441Y222882D01*
X480507Y223002D01*
X480687Y223436D01*
X482902Y225651D01*
X485796Y226850D01*
X488929Y226850D01*
X491823Y225651D01*
X494038Y223436D01*
X495237Y220541D01*
X495237Y217409D01*
X494038Y214514D01*
X491823Y212299D01*
X488929Y211100D01*
X485796Y211100D01*
X482902Y212299D01*
X480687Y214514D01*
X480507Y214948D01*
X480445Y215048D01*
X480385Y215148D01*
X480381Y215152D01*
X480377Y215157D01*
X480288Y215232D01*
X480198Y215308D01*
X480193Y215310D01*
X480188Y215314D01*
X480080Y215356D01*
X479970Y215400D01*
X479963Y215401D01*
X479958Y215402D01*
X479940Y215403D01*
X479804Y215418D01*
X468884Y215418D01*
X468864Y215415D01*
X468845Y215417D01*
X468743Y215395D01*
X468641Y215379D01*
X468624Y215369D01*
X468604Y215365D01*
X468515Y215312D01*
X468424Y215263D01*
X468410Y215249D01*
X468393Y215239D01*
X468326Y215160D01*
X468254Y215085D01*
X468246Y215067D01*
X468233Y215052D01*
X468194Y214956D01*
X468151Y214862D01*
X468149Y214842D01*
X468141Y214824D01*
X468123Y214657D01*
X468123Y191138D01*
X468137Y191048D01*
X468145Y190957D01*
X468157Y190927D01*
X468162Y190895D01*
X468205Y190814D01*
X468241Y190730D01*
X468267Y190698D01*
X468278Y190678D01*
X468301Y190655D01*
X468346Y190599D01*
X472695Y186250D01*
X472695Y178675D01*
X467338Y173318D01*
X459762Y173318D01*
X454405Y178675D01*
X454405Y186250D01*
X456487Y188332D01*
X456499Y188348D01*
X456514Y188361D01*
X456570Y188448D01*
X456631Y188532D01*
X456636Y188551D01*
X456647Y188568D01*
X456672Y188668D01*
X456703Y188767D01*
X456702Y188787D01*
X456707Y188806D01*
X456699Y188909D01*
X456697Y189013D01*
X456690Y189032D01*
X456688Y189051D01*
X456648Y189146D01*
X456612Y189244D01*
X456600Y189259D01*
X456592Y189278D01*
X456487Y189409D01*
X446004Y199892D01*
X445930Y199945D01*
X445860Y200004D01*
X445830Y200017D01*
X445804Y200035D01*
X445717Y200062D01*
X445632Y200096D01*
X445591Y200101D01*
X445569Y200108D01*
X445537Y200107D01*
X445466Y200115D01*
X401537Y200115D01*
X401447Y200100D01*
X401356Y200093D01*
X401326Y200080D01*
X401294Y200075D01*
X401213Y200032D01*
X401129Y199997D01*
X401097Y199971D01*
X401077Y199960D01*
X401054Y199937D01*
X400998Y199892D01*
X400448Y199341D01*
X398129Y198381D01*
X395621Y198381D01*
X393219Y199375D01*
X393194Y199393D01*
X393125Y199415D01*
X393060Y199445D01*
X393009Y199451D01*
X392959Y199466D01*
X392887Y199464D01*
X392816Y199472D01*
X392765Y199461D01*
X392713Y199460D01*
X392646Y199435D01*
X392575Y199420D01*
X392531Y199393D01*
X392482Y199376D01*
X392426Y199331D01*
X392364Y199294D01*
X392330Y199254D01*
X392290Y199222D01*
X392251Y199162D01*
X392204Y199107D01*
X392185Y199059D01*
X392157Y199015D01*
X392139Y198946D01*
X392112Y198879D01*
X392104Y198808D01*
X392097Y198777D01*
X392098Y198753D01*
X392094Y198712D01*
X392094Y183064D01*
X392108Y182974D01*
X392116Y182883D01*
X392128Y182853D01*
X392133Y182821D01*
X392176Y182741D01*
X392212Y182657D01*
X392238Y182625D01*
X392249Y182604D01*
X392272Y182582D01*
X392317Y182526D01*
X408412Y166430D01*
X408486Y166377D01*
X408556Y166318D01*
X408586Y166305D01*
X408612Y166287D01*
X408699Y166260D01*
X408784Y166226D01*
X408825Y166221D01*
X408847Y166214D01*
X408879Y166215D01*
X408951Y166207D01*
X416538Y166207D01*
X421895Y160850D01*
X421895Y153275D01*
X416538Y147918D01*
X408962Y147918D01*
G37*
%LPD*%
%LPC*%
G36*
X446524Y92160D02*
X446524Y92160D01*
X446509Y92167D01*
X446497Y92177D01*
X446397Y92217D01*
X446300Y92261D01*
X446284Y92263D01*
X446269Y92269D01*
X446102Y92288D01*
X445964Y92288D01*
X445282Y92971D01*
X445263Y92984D01*
X445166Y93066D01*
X444144Y93747D01*
X444082Y93775D01*
X444025Y93812D01*
X443971Y93825D01*
X443920Y93848D01*
X443852Y93855D01*
X443786Y93872D01*
X443731Y93868D01*
X443675Y93873D01*
X443609Y93858D01*
X443541Y93853D01*
X443490Y93831D01*
X443436Y93819D01*
X443377Y93783D01*
X443314Y93756D01*
X443254Y93708D01*
X443226Y93691D01*
X443212Y93674D01*
X443184Y93652D01*
X441820Y92288D01*
X439084Y92288D01*
X437149Y94222D01*
X437149Y95270D01*
X437137Y95341D01*
X437136Y95412D01*
X437118Y95461D01*
X437109Y95513D01*
X437076Y95576D01*
X437051Y95643D01*
X437019Y95684D01*
X436994Y95730D01*
X436942Y95779D01*
X436897Y95835D01*
X436854Y95864D01*
X436816Y95899D01*
X436751Y95930D01*
X436690Y95968D01*
X436640Y95981D01*
X436593Y96003D01*
X436521Y96011D01*
X436452Y96028D01*
X436400Y96024D01*
X436348Y96030D01*
X436278Y96015D01*
X436207Y96009D01*
X436159Y95989D01*
X436108Y95978D01*
X436046Y95941D01*
X435980Y95913D01*
X435924Y95868D01*
X435897Y95852D01*
X435882Y95834D01*
X435849Y95808D01*
X432329Y92288D01*
X429593Y92288D01*
X428059Y93822D01*
X428043Y93833D01*
X428030Y93849D01*
X427943Y93905D01*
X427859Y93965D01*
X427840Y93971D01*
X427823Y93982D01*
X427723Y94007D01*
X427624Y94038D01*
X427604Y94037D01*
X427585Y94042D01*
X427482Y94034D01*
X427378Y94031D01*
X427359Y94025D01*
X427340Y94023D01*
X427245Y93983D01*
X427147Y93947D01*
X427131Y93934D01*
X427113Y93927D01*
X426982Y93822D01*
X425448Y92288D01*
X422712Y92288D01*
X420777Y94222D01*
X420777Y96404D01*
X420774Y96427D01*
X420776Y96451D01*
X420754Y96548D01*
X420738Y96647D01*
X420727Y96668D01*
X420721Y96691D01*
X420669Y96776D01*
X420623Y96864D01*
X420606Y96880D01*
X420593Y96901D01*
X420517Y96965D01*
X420444Y97034D01*
X420423Y97044D01*
X420405Y97059D01*
X420312Y97095D01*
X420221Y97137D01*
X420198Y97140D01*
X420176Y97149D01*
X420076Y97153D01*
X419977Y97164D01*
X419954Y97159D01*
X419930Y97161D01*
X419834Y97133D01*
X419736Y97112D01*
X419716Y97100D01*
X419694Y97094D01*
X419611Y97037D01*
X419525Y96986D01*
X419510Y96968D01*
X419491Y96955D01*
X419383Y96826D01*
X418020Y94782D01*
X418013Y94767D01*
X418003Y94755D01*
X417962Y94655D01*
X417918Y94558D01*
X417917Y94542D01*
X417911Y94527D01*
X417892Y94360D01*
X417892Y94222D01*
X417209Y93540D01*
X417196Y93521D01*
X417114Y93424D01*
X416579Y92620D01*
X416444Y92593D01*
X416428Y92587D01*
X416412Y92586D01*
X416314Y92544D01*
X416213Y92507D01*
X416201Y92496D01*
X416186Y92490D01*
X416055Y92385D01*
X415957Y92288D01*
X414992Y92288D01*
X414969Y92284D01*
X414843Y92273D01*
X413896Y92084D01*
X413781Y92160D01*
X413766Y92167D01*
X413754Y92177D01*
X413654Y92217D01*
X413557Y92261D01*
X413541Y92263D01*
X413526Y92269D01*
X413359Y92288D01*
X413221Y92288D01*
X412539Y92971D01*
X412520Y92984D01*
X412423Y93066D01*
X411619Y93601D01*
X411592Y93736D01*
X411586Y93752D01*
X411585Y93768D01*
X411543Y93866D01*
X411506Y93966D01*
X411495Y93979D01*
X411489Y93994D01*
X411384Y94125D01*
X411287Y94222D01*
X411287Y95033D01*
X411275Y95103D01*
X411273Y95175D01*
X411255Y95224D01*
X411247Y95275D01*
X411213Y95339D01*
X411189Y95406D01*
X411156Y95447D01*
X411132Y95493D01*
X411080Y95542D01*
X411035Y95598D01*
X410991Y95626D01*
X410953Y95662D01*
X410888Y95692D01*
X410828Y95731D01*
X410778Y95744D01*
X410730Y95766D01*
X410659Y95774D01*
X410590Y95791D01*
X410538Y95787D01*
X410486Y95793D01*
X410416Y95778D01*
X410344Y95772D01*
X410297Y95752D01*
X410246Y95741D01*
X410184Y95704D01*
X410118Y95676D01*
X410062Y95631D01*
X410034Y95614D01*
X410019Y95597D01*
X409987Y95571D01*
X408862Y94445D01*
X406704Y92288D01*
X399222Y92288D01*
X397073Y94437D01*
X395939Y95571D01*
X395881Y95613D01*
X395829Y95662D01*
X395782Y95684D01*
X395740Y95715D01*
X395671Y95736D01*
X395606Y95766D01*
X395554Y95772D01*
X395504Y95787D01*
X395433Y95785D01*
X395362Y95793D01*
X395311Y95782D01*
X395259Y95781D01*
X395191Y95756D01*
X395121Y95741D01*
X395076Y95714D01*
X395028Y95696D01*
X394972Y95651D01*
X394910Y95614D01*
X394876Y95575D01*
X394836Y95542D01*
X394797Y95482D01*
X394750Y95428D01*
X394731Y95379D01*
X394703Y95335D01*
X394685Y95266D01*
X394658Y95199D01*
X394650Y95128D01*
X394642Y95097D01*
X394644Y95074D01*
X394640Y95033D01*
X394640Y94222D01*
X392705Y92288D01*
X389969Y92288D01*
X387130Y95127D01*
X387114Y95138D01*
X387101Y95154D01*
X387014Y95210D01*
X386930Y95270D01*
X386911Y95276D01*
X386894Y95287D01*
X386794Y95312D01*
X386695Y95343D01*
X386675Y95342D01*
X386656Y95347D01*
X386553Y95339D01*
X386449Y95336D01*
X386430Y95329D01*
X386411Y95328D01*
X386316Y95288D01*
X386218Y95252D01*
X386203Y95239D01*
X386184Y95232D01*
X386053Y95127D01*
X383214Y92288D01*
X380478Y92288D01*
X378944Y93822D01*
X378928Y93833D01*
X378916Y93849D01*
X378828Y93905D01*
X378744Y93965D01*
X378725Y93971D01*
X378709Y93982D01*
X378608Y94007D01*
X378509Y94038D01*
X378489Y94037D01*
X378470Y94042D01*
X378367Y94034D01*
X378263Y94031D01*
X378245Y94025D01*
X378225Y94023D01*
X378130Y93983D01*
X378032Y93947D01*
X378017Y93934D01*
X377999Y93927D01*
X377868Y93822D01*
X376333Y92288D01*
X364107Y92288D01*
X362172Y94222D01*
X362172Y95033D01*
X362160Y95103D01*
X362159Y95175D01*
X362141Y95224D01*
X362132Y95275D01*
X362099Y95339D01*
X362074Y95406D01*
X362042Y95447D01*
X362017Y95493D01*
X361965Y95542D01*
X361920Y95598D01*
X361877Y95626D01*
X361839Y95662D01*
X361774Y95692D01*
X361713Y95731D01*
X361663Y95744D01*
X361616Y95766D01*
X361544Y95774D01*
X361475Y95791D01*
X361423Y95787D01*
X361371Y95793D01*
X361301Y95778D01*
X361230Y95772D01*
X361182Y95752D01*
X361131Y95741D01*
X361069Y95704D01*
X361003Y95676D01*
X360947Y95631D01*
X360920Y95614D01*
X360905Y95597D01*
X360872Y95571D01*
X357589Y92288D01*
X350108Y92288D01*
X345800Y96595D01*
X345800Y101704D01*
X346267Y102170D01*
X346278Y102186D01*
X346294Y102199D01*
X346350Y102286D01*
X346410Y102370D01*
X346416Y102389D01*
X346427Y102406D01*
X346452Y102506D01*
X346483Y102605D01*
X346482Y102625D01*
X346487Y102644D01*
X346479Y102747D01*
X346476Y102851D01*
X346469Y102870D01*
X346468Y102890D01*
X346428Y102984D01*
X346392Y103082D01*
X346379Y103098D01*
X346372Y103116D01*
X346267Y103247D01*
X345800Y103713D01*
X345800Y108822D01*
X350108Y113129D01*
X357589Y113129D01*
X359747Y110972D01*
X361496Y109223D01*
X361512Y109211D01*
X361525Y109195D01*
X361612Y109139D01*
X361696Y109079D01*
X361715Y109073D01*
X361732Y109062D01*
X361832Y109037D01*
X361931Y109007D01*
X361951Y109007D01*
X361970Y109002D01*
X362073Y109010D01*
X362177Y109013D01*
X362195Y109020D01*
X362215Y109021D01*
X362310Y109062D01*
X362408Y109098D01*
X362423Y109110D01*
X362442Y109118D01*
X362573Y109223D01*
X366479Y113129D01*
X373961Y113129D01*
X376118Y110972D01*
X377244Y109846D01*
X377302Y109804D01*
X377354Y109755D01*
X377402Y109733D01*
X377444Y109703D01*
X377512Y109682D01*
X377577Y109651D01*
X377629Y109646D01*
X377679Y109630D01*
X377751Y109632D01*
X377822Y109624D01*
X377873Y109635D01*
X377925Y109637D01*
X377992Y109661D01*
X378062Y109676D01*
X378107Y109703D01*
X378156Y109721D01*
X378212Y109766D01*
X378273Y109803D01*
X378307Y109842D01*
X378348Y109875D01*
X378386Y109935D01*
X378433Y109990D01*
X378453Y110038D01*
X378481Y110082D01*
X378498Y110151D01*
X378525Y110218D01*
X378533Y110289D01*
X378541Y110320D01*
X378539Y110344D01*
X378544Y110384D01*
X378544Y111195D01*
X380478Y113129D01*
X383214Y113129D01*
X385149Y111195D01*
X385149Y104400D01*
X385152Y104380D01*
X385150Y104360D01*
X385172Y104259D01*
X385189Y104157D01*
X385198Y104140D01*
X385202Y104120D01*
X385255Y104031D01*
X385304Y103940D01*
X385318Y103926D01*
X385328Y103909D01*
X385407Y103842D01*
X385482Y103770D01*
X385500Y103762D01*
X385515Y103749D01*
X385612Y103710D01*
X385705Y103667D01*
X385725Y103665D01*
X385744Y103657D01*
X385910Y103639D01*
X387273Y103639D01*
X387293Y103642D01*
X387312Y103640D01*
X387414Y103662D01*
X387516Y103678D01*
X387533Y103688D01*
X387553Y103692D01*
X387642Y103745D01*
X387733Y103793D01*
X387747Y103808D01*
X387764Y103818D01*
X387831Y103897D01*
X387903Y103972D01*
X387911Y103990D01*
X387924Y104005D01*
X387963Y104101D01*
X388006Y104195D01*
X388008Y104215D01*
X388016Y104233D01*
X388034Y104400D01*
X388034Y111195D01*
X389969Y113129D01*
X392705Y113129D01*
X394640Y111195D01*
X394640Y110384D01*
X394651Y110314D01*
X394653Y110242D01*
X394671Y110193D01*
X394679Y110142D01*
X394713Y110078D01*
X394738Y110011D01*
X394770Y109970D01*
X394795Y109924D01*
X394847Y109875D01*
X394891Y109819D01*
X394935Y109791D01*
X394973Y109755D01*
X395038Y109725D01*
X395098Y109686D01*
X395149Y109673D01*
X395196Y109651D01*
X395267Y109643D01*
X395337Y109626D01*
X395389Y109630D01*
X395440Y109624D01*
X395511Y109639D01*
X395582Y109645D01*
X395630Y109665D01*
X395681Y109676D01*
X395742Y109713D01*
X395808Y109741D01*
X395864Y109786D01*
X395892Y109803D01*
X395907Y109820D01*
X395939Y109846D01*
X399222Y113129D01*
X406704Y113129D01*
X408854Y110980D01*
X409987Y109846D01*
X410045Y109804D01*
X410097Y109755D01*
X410145Y109733D01*
X410187Y109703D01*
X410255Y109682D01*
X410320Y109651D01*
X410372Y109646D01*
X410422Y109630D01*
X410494Y109632D01*
X410565Y109624D01*
X410616Y109635D01*
X410668Y109637D01*
X410735Y109661D01*
X410805Y109676D01*
X410850Y109703D01*
X410899Y109721D01*
X410955Y109766D01*
X411016Y109803D01*
X411050Y109842D01*
X411091Y109875D01*
X411130Y109935D01*
X411176Y109990D01*
X411196Y110038D01*
X411224Y110082D01*
X411241Y110151D01*
X411268Y110218D01*
X411276Y110289D01*
X411284Y110320D01*
X411282Y110344D01*
X411287Y110384D01*
X411287Y111195D01*
X413221Y113129D01*
X415957Y113129D01*
X417892Y111195D01*
X417892Y109013D01*
X417896Y108990D01*
X417894Y108966D01*
X417916Y108869D01*
X417932Y108770D01*
X417943Y108749D01*
X417948Y108727D01*
X418000Y108641D01*
X418047Y108553D01*
X418064Y108537D01*
X418076Y108517D01*
X418153Y108452D01*
X418225Y108383D01*
X418247Y108374D01*
X418265Y108358D01*
X418358Y108322D01*
X418448Y108280D01*
X418472Y108277D01*
X418493Y108269D01*
X418594Y108264D01*
X418693Y108253D01*
X418716Y108258D01*
X418739Y108257D01*
X418835Y108284D01*
X418933Y108305D01*
X418953Y108317D01*
X418976Y108323D01*
X419058Y108380D01*
X419144Y108431D01*
X419160Y108449D01*
X419179Y108462D01*
X419287Y108591D01*
X420650Y110635D01*
X420656Y110650D01*
X420667Y110662D01*
X420707Y110762D01*
X420751Y110859D01*
X420753Y110875D01*
X420759Y110890D01*
X420777Y111057D01*
X420777Y111195D01*
X421460Y111877D01*
X421474Y111896D01*
X421555Y111993D01*
X422091Y112797D01*
X422226Y112824D01*
X422241Y112830D01*
X422258Y112831D01*
X422356Y112873D01*
X422456Y112910D01*
X422469Y112921D01*
X422484Y112927D01*
X422615Y113032D01*
X422712Y113129D01*
X423678Y113129D01*
X423701Y113133D01*
X423827Y113144D01*
X424774Y113334D01*
X424888Y113257D01*
X424903Y113251D01*
X424916Y113240D01*
X425015Y113200D01*
X425112Y113156D01*
X425129Y113154D01*
X425144Y113148D01*
X425311Y113129D01*
X425448Y113129D01*
X426131Y112447D01*
X426150Y112433D01*
X426247Y112352D01*
X427269Y111670D01*
X427331Y111642D01*
X427388Y111605D01*
X427442Y111592D01*
X427493Y111569D01*
X427560Y111562D01*
X427627Y111545D01*
X427682Y111550D01*
X427737Y111544D01*
X427804Y111559D01*
X427872Y111564D01*
X427923Y111586D01*
X427977Y111598D01*
X428035Y111634D01*
X428098Y111661D01*
X428159Y111709D01*
X428187Y111727D01*
X428201Y111743D01*
X428229Y111766D01*
X429593Y113129D01*
X432329Y113129D01*
X435849Y109609D01*
X435908Y109567D01*
X435960Y109518D01*
X436007Y109496D01*
X436049Y109465D01*
X436118Y109444D01*
X436183Y109414D01*
X436234Y109408D01*
X436284Y109393D01*
X436356Y109395D01*
X436427Y109387D01*
X436478Y109398D01*
X436530Y109399D01*
X436597Y109424D01*
X436668Y109439D01*
X436712Y109466D01*
X436761Y109484D01*
X436817Y109529D01*
X436879Y109565D01*
X436912Y109605D01*
X436953Y109638D01*
X436992Y109698D01*
X437039Y109752D01*
X437058Y109801D01*
X437086Y109844D01*
X437104Y109914D01*
X437130Y109980D01*
X437138Y110052D01*
X437146Y110083D01*
X437144Y110106D01*
X437149Y110147D01*
X437149Y111195D01*
X439084Y113129D01*
X441820Y113129D01*
X443354Y111595D01*
X443370Y111584D01*
X443382Y111568D01*
X443470Y111512D01*
X443554Y111452D01*
X443573Y111446D01*
X443589Y111435D01*
X443690Y111410D01*
X443789Y111379D01*
X443809Y111380D01*
X443828Y111375D01*
X443931Y111383D01*
X444035Y111386D01*
X444053Y111393D01*
X444073Y111394D01*
X444168Y111435D01*
X444266Y111470D01*
X444281Y111483D01*
X444299Y111490D01*
X444430Y111595D01*
X445964Y113129D01*
X448701Y113129D01*
X450635Y111195D01*
X450635Y109013D01*
X450639Y108990D01*
X450637Y108966D01*
X450659Y108869D01*
X450675Y108770D01*
X450686Y108749D01*
X450691Y108727D01*
X450743Y108641D01*
X450790Y108553D01*
X450807Y108537D01*
X450819Y108517D01*
X450896Y108452D01*
X450968Y108383D01*
X450990Y108374D01*
X451008Y108358D01*
X451101Y108322D01*
X451191Y108280D01*
X451215Y108277D01*
X451237Y108269D01*
X451337Y108264D01*
X451436Y108253D01*
X451459Y108258D01*
X451482Y108257D01*
X451579Y108284D01*
X451676Y108305D01*
X451696Y108317D01*
X451719Y108323D01*
X451801Y108380D01*
X451887Y108431D01*
X451903Y108449D01*
X451922Y108462D01*
X452030Y108591D01*
X453393Y110635D01*
X453399Y110650D01*
X453410Y110662D01*
X453450Y110762D01*
X453494Y110859D01*
X453496Y110875D01*
X453502Y110890D01*
X453521Y111057D01*
X453521Y111195D01*
X454203Y111877D01*
X454217Y111896D01*
X454298Y111993D01*
X454834Y112797D01*
X454969Y112824D01*
X454984Y112830D01*
X455001Y112831D01*
X455099Y112873D01*
X455199Y112910D01*
X455212Y112921D01*
X455227Y112927D01*
X455358Y113032D01*
X455455Y113129D01*
X456421Y113129D01*
X456444Y113133D01*
X456570Y113144D01*
X457517Y113334D01*
X457631Y113257D01*
X457646Y113251D01*
X457659Y113240D01*
X457758Y113200D01*
X457855Y113156D01*
X457872Y113154D01*
X457887Y113148D01*
X458054Y113129D01*
X458191Y113129D01*
X458874Y112447D01*
X458893Y112433D01*
X458990Y112352D01*
X460012Y111670D01*
X460074Y111642D01*
X460131Y111605D01*
X460185Y111592D01*
X460236Y111569D01*
X460304Y111562D01*
X460370Y111545D01*
X460425Y111550D01*
X460480Y111544D01*
X460547Y111559D01*
X460615Y111564D01*
X460666Y111586D01*
X460720Y111598D01*
X460779Y111634D01*
X460841Y111661D01*
X460902Y111709D01*
X460930Y111727D01*
X460944Y111743D01*
X460972Y111766D01*
X462336Y113129D01*
X465072Y113129D01*
X467007Y111195D01*
X467007Y99654D01*
X467010Y99635D01*
X467008Y99615D01*
X467030Y99514D01*
X467047Y99412D01*
X467056Y99394D01*
X467060Y99375D01*
X467113Y99286D01*
X467162Y99194D01*
X467176Y99181D01*
X467186Y99164D01*
X467265Y99096D01*
X467340Y99025D01*
X467358Y99017D01*
X467373Y99004D01*
X467469Y98965D01*
X467563Y98921D01*
X467583Y98919D01*
X467601Y98912D01*
X467768Y98893D01*
X469131Y98893D01*
X469151Y98896D01*
X469170Y98894D01*
X469272Y98916D01*
X469374Y98933D01*
X469391Y98942D01*
X469411Y98947D01*
X469500Y99000D01*
X469591Y99048D01*
X469605Y99062D01*
X469622Y99073D01*
X469689Y99151D01*
X469760Y99226D01*
X469769Y99244D01*
X469782Y99260D01*
X469820Y99356D01*
X469864Y99449D01*
X469866Y99469D01*
X469874Y99488D01*
X469892Y99654D01*
X469892Y111195D01*
X471827Y113129D01*
X474563Y113129D01*
X476498Y111195D01*
X476498Y96595D01*
X472190Y92288D01*
X464709Y92288D01*
X462559Y94437D01*
X461426Y95571D01*
X461367Y95613D01*
X461315Y95662D01*
X461268Y95684D01*
X461226Y95715D01*
X461157Y95736D01*
X461092Y95766D01*
X461040Y95772D01*
X460991Y95787D01*
X460919Y95785D01*
X460848Y95793D01*
X460797Y95782D01*
X460745Y95781D01*
X460677Y95756D01*
X460607Y95741D01*
X460563Y95714D01*
X460514Y95696D01*
X460458Y95651D01*
X460396Y95614D01*
X460362Y95575D01*
X460322Y95542D01*
X460283Y95482D01*
X460236Y95428D01*
X460217Y95379D01*
X460189Y95335D01*
X460171Y95266D01*
X460144Y95199D01*
X460137Y95128D01*
X460129Y95097D01*
X460131Y95074D01*
X460126Y95033D01*
X460126Y94222D01*
X458191Y92288D01*
X455455Y92288D01*
X453521Y94222D01*
X453521Y96404D01*
X453517Y96427D01*
X453519Y96451D01*
X453497Y96548D01*
X453481Y96647D01*
X453470Y96668D01*
X453465Y96691D01*
X453412Y96776D01*
X453366Y96864D01*
X453349Y96880D01*
X453337Y96901D01*
X453260Y96965D01*
X453187Y97034D01*
X453166Y97044D01*
X453148Y97059D01*
X453055Y97095D01*
X452964Y97137D01*
X452941Y97140D01*
X452919Y97149D01*
X452819Y97153D01*
X452720Y97164D01*
X452697Y97159D01*
X452673Y97161D01*
X452577Y97133D01*
X452479Y97112D01*
X452459Y97100D01*
X452437Y97094D01*
X452354Y97037D01*
X452268Y96986D01*
X452253Y96968D01*
X452234Y96955D01*
X452126Y96826D01*
X450763Y94782D01*
X450756Y94767D01*
X450746Y94755D01*
X450705Y94655D01*
X450662Y94558D01*
X450660Y94542D01*
X450654Y94527D01*
X450635Y94360D01*
X450635Y94222D01*
X449952Y93540D01*
X449939Y93521D01*
X449857Y93424D01*
X449322Y92620D01*
X449187Y92593D01*
X449171Y92587D01*
X449155Y92586D01*
X449057Y92544D01*
X448957Y92507D01*
X448944Y92496D01*
X448929Y92490D01*
X448798Y92385D01*
X448701Y92288D01*
X447735Y92288D01*
X447712Y92284D01*
X447586Y92273D01*
X446639Y92084D01*
X446524Y92160D01*
G37*
%LPD*%
%LPC*%
G36*
X440714Y264468D02*
X440714Y264468D01*
X437606Y267577D01*
X437606Y271973D01*
X440714Y275082D01*
X444461Y275082D01*
X444552Y275096D01*
X444642Y275104D01*
X444672Y275116D01*
X444704Y275121D01*
X444785Y275164D01*
X444869Y275200D01*
X444901Y275226D01*
X444922Y275237D01*
X444944Y275260D01*
X445000Y275305D01*
X448658Y278963D01*
X448711Y279037D01*
X448770Y279106D01*
X448783Y279136D01*
X448801Y279163D01*
X448828Y279249D01*
X448862Y279334D01*
X448867Y279375D01*
X448874Y279398D01*
X448873Y279430D01*
X448881Y279501D01*
X448881Y349774D01*
X452925Y353819D01*
X452967Y353877D01*
X453017Y353929D01*
X453039Y353976D01*
X453069Y354018D01*
X453090Y354087D01*
X453120Y354152D01*
X453126Y354204D01*
X453141Y354254D01*
X453139Y354325D01*
X453147Y354396D01*
X453136Y354447D01*
X453135Y354499D01*
X453110Y354567D01*
X453095Y354637D01*
X453068Y354682D01*
X453050Y354730D01*
X453006Y354786D01*
X452969Y354848D01*
X452929Y354882D01*
X452897Y354922D01*
X452836Y354961D01*
X452782Y355008D01*
X452734Y355027D01*
X452690Y355055D01*
X452620Y355073D01*
X452554Y355100D01*
X452482Y355108D01*
X452451Y355116D01*
X452428Y355114D01*
X452387Y355118D01*
X411371Y355118D01*
X411280Y355104D01*
X411190Y355096D01*
X411160Y355084D01*
X411128Y355079D01*
X411047Y355036D01*
X410963Y355000D01*
X410931Y354974D01*
X410910Y354963D01*
X410888Y354940D01*
X410832Y354895D01*
X409689Y353752D01*
X407555Y352868D01*
X405245Y352868D01*
X403111Y353752D01*
X401477Y355386D01*
X400593Y357520D01*
X400593Y359830D01*
X401477Y361964D01*
X403111Y363598D01*
X405245Y364482D01*
X407555Y364482D01*
X409689Y363598D01*
X410832Y362455D01*
X410906Y362402D01*
X410976Y362342D01*
X411006Y362330D01*
X411032Y362311D01*
X411119Y362284D01*
X411204Y362250D01*
X411245Y362246D01*
X411267Y362239D01*
X411299Y362240D01*
X411371Y362232D01*
X473574Y362232D01*
X473664Y362246D01*
X473755Y362254D01*
X473785Y362266D01*
X473817Y362271D01*
X473897Y362314D01*
X473981Y362350D01*
X474013Y362376D01*
X474034Y362387D01*
X474056Y362410D01*
X474112Y362455D01*
X475639Y363982D01*
X480036Y363982D01*
X483144Y360873D01*
X483144Y356477D01*
X480036Y353368D01*
X475639Y353368D01*
X474112Y354895D01*
X474038Y354948D01*
X473969Y355008D01*
X473939Y355020D01*
X473913Y355039D01*
X473826Y355066D01*
X473741Y355100D01*
X473700Y355104D01*
X473678Y355111D01*
X473645Y355110D01*
X473574Y355118D01*
X464600Y355118D01*
X464510Y355104D01*
X464419Y355096D01*
X464389Y355084D01*
X464357Y355079D01*
X464277Y355036D01*
X464193Y355000D01*
X464161Y354974D01*
X464140Y354963D01*
X464118Y354940D01*
X464062Y354895D01*
X456217Y347051D01*
X456164Y346977D01*
X456105Y346907D01*
X456092Y346877D01*
X456074Y346851D01*
X456047Y346764D01*
X456013Y346679D01*
X456008Y346638D01*
X456001Y346616D01*
X456002Y346584D01*
X455994Y346512D01*
X455994Y276239D01*
X448442Y268687D01*
X448389Y268613D01*
X448330Y268544D01*
X448317Y268514D01*
X448299Y268487D01*
X448272Y268401D01*
X448238Y268316D01*
X448233Y268275D01*
X448226Y268252D01*
X448227Y268220D01*
X448219Y268149D01*
X448219Y267577D01*
X445111Y264468D01*
X440714Y264468D01*
G37*
%LPD*%
%LPC*%
G36*
X413727Y312093D02*
X413727Y312093D01*
X412200Y313620D01*
X412126Y313673D01*
X412056Y313733D01*
X412026Y313745D01*
X412000Y313764D01*
X411913Y313791D01*
X411828Y313825D01*
X411787Y313829D01*
X411765Y313836D01*
X411733Y313835D01*
X411662Y313843D01*
X400164Y313843D01*
X369506Y344502D01*
X369506Y351116D01*
X369487Y351231D01*
X369470Y351347D01*
X369467Y351353D01*
X369466Y351359D01*
X369412Y351461D01*
X369358Y351566D01*
X369354Y351571D01*
X369351Y351576D01*
X369267Y351656D01*
X369183Y351738D01*
X369176Y351742D01*
X369173Y351746D01*
X369156Y351753D01*
X369036Y351819D01*
X368602Y351999D01*
X366387Y354214D01*
X365188Y357109D01*
X365188Y360241D01*
X366387Y363136D01*
X368602Y365351D01*
X371496Y366550D01*
X374629Y366550D01*
X377523Y365351D01*
X379738Y363136D01*
X380297Y361788D01*
X380334Y361727D01*
X380364Y361661D01*
X380399Y361623D01*
X380426Y361579D01*
X380481Y361533D01*
X380530Y361480D01*
X380576Y361455D01*
X380616Y361422D01*
X380683Y361396D01*
X380746Y361362D01*
X380797Y361352D01*
X380845Y361334D01*
X380917Y361331D01*
X380988Y361318D01*
X381039Y361325D01*
X381091Y361323D01*
X381160Y361343D01*
X381231Y361354D01*
X381277Y361377D01*
X381327Y361392D01*
X381386Y361433D01*
X381450Y361465D01*
X381487Y361502D01*
X381529Y361532D01*
X381572Y361590D01*
X381622Y361641D01*
X381657Y361704D01*
X381676Y361729D01*
X381683Y361752D01*
X381703Y361788D01*
X382262Y363136D01*
X384477Y365351D01*
X387371Y366550D01*
X390504Y366550D01*
X393398Y365351D01*
X395613Y363136D01*
X396812Y360241D01*
X396812Y357109D01*
X396632Y356675D01*
X396606Y356561D01*
X396577Y356448D01*
X396578Y356441D01*
X396576Y356435D01*
X396587Y356319D01*
X396596Y356202D01*
X396599Y356197D01*
X396599Y356190D01*
X396647Y356083D01*
X396693Y355976D01*
X396697Y355970D01*
X396699Y355966D01*
X396712Y355952D01*
X396797Y355845D01*
X398844Y353798D01*
X398844Y342301D01*
X398859Y342211D01*
X398866Y342120D01*
X398879Y342090D01*
X398884Y342058D01*
X398927Y341978D01*
X398962Y341894D01*
X398988Y341862D01*
X398999Y341841D01*
X399022Y341819D01*
X399067Y341763D01*
X400594Y340236D01*
X400594Y335839D01*
X397486Y332731D01*
X393175Y332731D01*
X393104Y332719D01*
X393032Y332717D01*
X392983Y332699D01*
X392932Y332691D01*
X392868Y332657D01*
X392801Y332633D01*
X392760Y332600D01*
X392714Y332576D01*
X392665Y332524D01*
X392609Y332479D01*
X392581Y332435D01*
X392545Y332398D01*
X392515Y332333D01*
X392476Y332272D01*
X392463Y332222D01*
X392441Y332175D01*
X392433Y332103D01*
X392416Y332034D01*
X392420Y331982D01*
X392414Y331930D01*
X392430Y331860D01*
X392435Y331789D01*
X392455Y331741D01*
X392467Y331690D01*
X392503Y331628D01*
X392531Y331562D01*
X392576Y331506D01*
X392593Y331479D01*
X392611Y331463D01*
X392636Y331431D01*
X402888Y321180D01*
X402962Y321127D01*
X403031Y321067D01*
X403061Y321055D01*
X403088Y321036D01*
X403174Y321009D01*
X403259Y320975D01*
X403300Y320971D01*
X403323Y320964D01*
X403355Y320965D01*
X403426Y320957D01*
X411662Y320957D01*
X411752Y320971D01*
X411843Y320979D01*
X411872Y320991D01*
X411904Y320996D01*
X411985Y321039D01*
X412069Y321075D01*
X412101Y321101D01*
X412122Y321112D01*
X412144Y321135D01*
X412200Y321180D01*
X413727Y322707D01*
X418123Y322707D01*
X421232Y319598D01*
X421232Y315202D01*
X418123Y312093D01*
X413727Y312093D01*
G37*
%LPD*%
%LPC*%
G36*
X432777Y237481D02*
X432777Y237481D01*
X429668Y240589D01*
X429668Y244986D01*
X432777Y248094D01*
X434936Y248094D01*
X435027Y248109D01*
X435117Y248116D01*
X435147Y248129D01*
X435179Y248134D01*
X435260Y248177D01*
X435344Y248212D01*
X435376Y248238D01*
X435397Y248249D01*
X435419Y248272D01*
X435475Y248317D01*
X474058Y286900D01*
X474111Y286974D01*
X474170Y287044D01*
X474183Y287074D01*
X474201Y287100D01*
X474228Y287187D01*
X474262Y287272D01*
X474267Y287313D01*
X474274Y287335D01*
X474273Y287367D01*
X474281Y287439D01*
X474281Y340124D01*
X474266Y340214D01*
X474259Y340305D01*
X474246Y340335D01*
X474241Y340367D01*
X474198Y340447D01*
X474163Y340531D01*
X474137Y340563D01*
X474126Y340584D01*
X474103Y340606D01*
X474058Y340662D01*
X472531Y342189D01*
X472531Y346586D01*
X475639Y349694D01*
X480036Y349694D01*
X483144Y346586D01*
X483144Y342189D01*
X481617Y340662D01*
X481564Y340588D01*
X481505Y340519D01*
X481492Y340489D01*
X481474Y340463D01*
X481447Y340376D01*
X481413Y340291D01*
X481408Y340250D01*
X481401Y340228D01*
X481402Y340195D01*
X481394Y340124D01*
X481394Y284177D01*
X440505Y243287D01*
X440452Y243213D01*
X440392Y243144D01*
X440380Y243114D01*
X440361Y243087D01*
X440334Y243001D01*
X440300Y242916D01*
X440296Y242875D01*
X440289Y242852D01*
X440290Y242820D01*
X440282Y242749D01*
X440282Y240589D01*
X437173Y237481D01*
X432777Y237481D01*
G37*
%LPD*%
%LPC*%
G36*
X474431Y478435D02*
X474431Y478435D01*
X471070Y479827D01*
X468497Y482400D01*
X467105Y485761D01*
X467105Y504639D01*
X468497Y508000D01*
X471070Y510573D01*
X474431Y511965D01*
X478069Y511965D01*
X481430Y510573D01*
X484003Y508000D01*
X485395Y504639D01*
X485395Y485761D01*
X484003Y482400D01*
X481430Y479827D01*
X478069Y478435D01*
X474431Y478435D01*
G37*
%LPD*%
%LPC*%
G36*
X449031Y478435D02*
X449031Y478435D01*
X445670Y479827D01*
X443097Y482400D01*
X441705Y485761D01*
X441705Y504639D01*
X443097Y508000D01*
X445670Y510573D01*
X449031Y511965D01*
X452669Y511965D01*
X456030Y510573D01*
X458603Y508000D01*
X459995Y504639D01*
X459995Y485761D01*
X458603Y482400D01*
X456030Y479827D01*
X452669Y478435D01*
X449031Y478435D01*
G37*
%LPD*%
%LPC*%
G36*
X423631Y478435D02*
X423631Y478435D01*
X420270Y479827D01*
X417697Y482400D01*
X416305Y485761D01*
X416305Y504639D01*
X417697Y508000D01*
X420270Y510573D01*
X423631Y511965D01*
X427269Y511965D01*
X430630Y510573D01*
X433203Y508000D01*
X434595Y504639D01*
X434595Y485761D01*
X433203Y482400D01*
X430630Y479827D01*
X427269Y478435D01*
X423631Y478435D01*
G37*
%LPD*%
%LPC*%
G36*
X372831Y478435D02*
X372831Y478435D01*
X369470Y479827D01*
X366897Y482400D01*
X365505Y485761D01*
X365505Y504639D01*
X366897Y508000D01*
X369470Y510573D01*
X372831Y511965D01*
X376469Y511965D01*
X379830Y510573D01*
X382403Y508000D01*
X383795Y504639D01*
X383795Y485761D01*
X382403Y482400D01*
X379830Y479827D01*
X376469Y478435D01*
X372831Y478435D01*
G37*
%LPD*%
%LPC*%
G36*
X398231Y478435D02*
X398231Y478435D01*
X394870Y479827D01*
X392297Y482400D01*
X390905Y485761D01*
X390905Y504639D01*
X392297Y508000D01*
X394870Y510573D01*
X398231Y511965D01*
X401869Y511965D01*
X405230Y510573D01*
X407803Y508000D01*
X409195Y504639D01*
X409195Y485761D01*
X407803Y482400D01*
X405230Y479827D01*
X401869Y478435D01*
X398231Y478435D01*
G37*
%LPD*%
%LPC*%
G36*
X499831Y478435D02*
X499831Y478435D01*
X496470Y479827D01*
X493897Y482400D01*
X492505Y485761D01*
X492505Y504639D01*
X493897Y508000D01*
X496470Y510573D01*
X499831Y511965D01*
X503469Y511965D01*
X506830Y510573D01*
X509403Y508000D01*
X510795Y504639D01*
X510795Y485761D01*
X509403Y482400D01*
X506830Y479827D01*
X503469Y478435D01*
X499831Y478435D01*
G37*
%LPD*%
G36*
X530114Y297159D02*
X530114Y297159D01*
X530205Y297166D01*
X530235Y297179D01*
X530267Y297184D01*
X530347Y297227D01*
X530431Y297262D01*
X530463Y297288D01*
X530484Y297299D01*
X530506Y297322D01*
X530562Y297367D01*
X550940Y317745D01*
X551008Y317840D01*
X551078Y317934D01*
X551080Y317940D01*
X551084Y317945D01*
X551118Y318056D01*
X551154Y318168D01*
X551154Y318174D01*
X551156Y318180D01*
X551153Y318297D01*
X551152Y318414D01*
X551150Y318421D01*
X551150Y318426D01*
X551143Y318443D01*
X551105Y318575D01*
X550925Y319009D01*
X550925Y321707D01*
X550914Y321778D01*
X550912Y321850D01*
X550894Y321899D01*
X550886Y321950D01*
X550852Y322014D01*
X550827Y322081D01*
X550795Y322122D01*
X550770Y322168D01*
X550718Y322217D01*
X550674Y322273D01*
X550630Y322301D01*
X550592Y322337D01*
X550527Y322367D01*
X550467Y322406D01*
X550416Y322419D01*
X550369Y322441D01*
X550298Y322449D01*
X550228Y322466D01*
X550176Y322462D01*
X550125Y322468D01*
X550054Y322452D01*
X549983Y322447D01*
X549935Y322427D01*
X549884Y322415D01*
X549823Y322379D01*
X549757Y322351D01*
X549701Y322306D01*
X549673Y322289D01*
X549658Y322271D01*
X549626Y322246D01*
X535592Y308212D01*
X533286Y305906D01*
X510676Y305906D01*
X510586Y305891D01*
X510495Y305884D01*
X510465Y305871D01*
X510433Y305866D01*
X510353Y305823D01*
X510269Y305788D01*
X510236Y305762D01*
X510216Y305751D01*
X510194Y305728D01*
X510138Y305683D01*
X508611Y304156D01*
X504214Y304156D01*
X502760Y305610D01*
X502702Y305652D01*
X502650Y305702D01*
X502602Y305724D01*
X502560Y305754D01*
X502492Y305775D01*
X502426Y305805D01*
X502375Y305811D01*
X502325Y305826D01*
X502253Y305824D01*
X502182Y305832D01*
X502131Y305821D01*
X502079Y305820D01*
X502012Y305795D01*
X501942Y305780D01*
X501897Y305753D01*
X501848Y305735D01*
X501792Y305691D01*
X501731Y305654D01*
X501697Y305614D01*
X501656Y305582D01*
X501617Y305521D01*
X501571Y305467D01*
X501551Y305419D01*
X501523Y305375D01*
X501506Y305305D01*
X501479Y305239D01*
X501471Y305167D01*
X501463Y305136D01*
X501465Y305113D01*
X501460Y305072D01*
X501460Y297978D01*
X501472Y297907D01*
X501474Y297835D01*
X501492Y297786D01*
X501500Y297735D01*
X501534Y297672D01*
X501558Y297604D01*
X501591Y297564D01*
X501615Y297518D01*
X501667Y297468D01*
X501712Y297412D01*
X501756Y297384D01*
X501793Y297348D01*
X501858Y297318D01*
X501919Y297279D01*
X501969Y297267D01*
X502016Y297245D01*
X502088Y297237D01*
X502157Y297219D01*
X502209Y297223D01*
X502261Y297218D01*
X502331Y297233D01*
X502402Y297238D01*
X502450Y297259D01*
X502501Y297270D01*
X502563Y297307D01*
X502629Y297335D01*
X502685Y297380D01*
X502712Y297396D01*
X502728Y297414D01*
X502760Y297440D01*
X504214Y298894D01*
X508611Y298894D01*
X510138Y297367D01*
X510212Y297314D01*
X510281Y297255D01*
X510311Y297242D01*
X510337Y297224D01*
X510424Y297197D01*
X510509Y297163D01*
X510550Y297158D01*
X510572Y297151D01*
X510605Y297152D01*
X510676Y297144D01*
X530024Y297144D01*
X530114Y297159D01*
G37*
%LPC*%
G36*
X434362Y173318D02*
X434362Y173318D01*
X429005Y178675D01*
X429005Y186250D01*
X434362Y191607D01*
X441938Y191607D01*
X447295Y186250D01*
X447295Y178675D01*
X441938Y173318D01*
X434362Y173318D01*
G37*
%LPD*%
%LPC*%
G36*
X434362Y147918D02*
X434362Y147918D01*
X429005Y153275D01*
X429005Y160850D01*
X434362Y166207D01*
X441938Y166207D01*
X447295Y160850D01*
X447295Y153275D01*
X441938Y147918D01*
X434362Y147918D01*
G37*
%LPD*%
%LPC*%
G36*
X461731Y147918D02*
X461731Y147918D01*
X458370Y149310D01*
X455797Y151882D01*
X454405Y155244D01*
X454405Y158881D01*
X455797Y162243D01*
X458370Y164815D01*
X461731Y166207D01*
X465369Y166207D01*
X468730Y164815D01*
X471303Y162243D01*
X472695Y158881D01*
X472695Y155244D01*
X471303Y151882D01*
X468730Y149310D01*
X465369Y147918D01*
X461731Y147918D01*
G37*
%LPD*%
%LPC*%
G36*
X511670Y99442D02*
X511670Y99442D01*
X511576Y99491D01*
X511483Y99544D01*
X511464Y99550D01*
X511452Y99556D01*
X511422Y99560D01*
X511321Y99586D01*
X510997Y99632D01*
X510525Y100262D01*
X510507Y100279D01*
X510495Y100300D01*
X510373Y100415D01*
X509743Y100887D01*
X509696Y101211D01*
X509665Y101312D01*
X509637Y101415D01*
X509627Y101433D01*
X509623Y101445D01*
X509605Y101470D01*
X509552Y101560D01*
X509356Y101821D01*
X509467Y102601D01*
X509467Y102625D01*
X509472Y102649D01*
X509467Y102816D01*
X509356Y103596D01*
X509552Y103857D01*
X509601Y103952D01*
X509655Y104044D01*
X509660Y104064D01*
X509666Y104075D01*
X509671Y104106D01*
X509696Y104206D01*
X509743Y104530D01*
X510373Y105002D01*
X510389Y105020D01*
X510410Y105032D01*
X510525Y105155D01*
X510997Y105785D01*
X511321Y105831D01*
X511422Y105863D01*
X511526Y105890D01*
X511543Y105901D01*
X511556Y105905D01*
X511581Y105923D01*
X511670Y105975D01*
X521422Y113290D01*
X524131Y112903D01*
X525773Y110714D01*
X525386Y108005D01*
X519135Y103318D01*
X519132Y103314D01*
X519129Y103312D01*
X519047Y103225D01*
X518965Y103140D01*
X518963Y103136D01*
X518960Y103133D01*
X518910Y103024D01*
X518860Y102918D01*
X518860Y102913D01*
X518858Y102910D01*
X518845Y102791D01*
X518832Y102673D01*
X518832Y102669D01*
X518832Y102665D01*
X518858Y102549D01*
X518883Y102433D01*
X518885Y102429D01*
X518886Y102425D01*
X518947Y102324D01*
X519008Y102221D01*
X519011Y102218D01*
X519013Y102214D01*
X519135Y102100D01*
X525386Y97412D01*
X525773Y94703D01*
X524131Y92514D01*
X521422Y92127D01*
X511670Y99442D01*
G37*
%LPD*%
%LPC*%
G36*
X636123Y488773D02*
X636123Y488773D01*
X636123Y496581D01*
X649099Y496581D01*
X650902Y496222D01*
X652600Y495519D01*
X654128Y494498D01*
X655428Y493198D01*
X656449Y491670D01*
X657152Y489972D01*
X657391Y488773D01*
X636123Y488773D01*
G37*
%LPD*%
%LPC*%
G36*
X561809Y488773D02*
X561809Y488773D01*
X562048Y489972D01*
X562751Y491670D01*
X563772Y493198D01*
X565072Y494498D01*
X566600Y495519D01*
X568298Y496222D01*
X570101Y496581D01*
X583077Y496581D01*
X583077Y488773D01*
X561809Y488773D01*
G37*
%LPD*%
%LPC*%
G36*
X636123Y477919D02*
X636123Y477919D01*
X636123Y485727D01*
X657391Y485727D01*
X657152Y484528D01*
X656449Y482830D01*
X655428Y481302D01*
X654128Y480002D01*
X652600Y478981D01*
X650902Y478278D01*
X649099Y477919D01*
X636123Y477919D01*
G37*
%LPD*%
%LPC*%
G36*
X570101Y477919D02*
X570101Y477919D01*
X568298Y478278D01*
X566600Y478981D01*
X565072Y480002D01*
X563772Y481302D01*
X562751Y482830D01*
X562048Y484528D01*
X561809Y485727D01*
X583077Y485727D01*
X583077Y477919D01*
X570101Y477919D01*
G37*
%LPD*%
%LPC*%
G36*
X503173Y47148D02*
X503173Y47148D01*
X503173Y63291D01*
X504029Y63156D01*
X505550Y62661D01*
X506975Y61935D01*
X508269Y60995D01*
X509400Y59864D01*
X510340Y58570D01*
X511066Y57145D01*
X511561Y55624D01*
X511811Y54045D01*
X511811Y47148D01*
X503173Y47148D01*
G37*
%LPD*%
%LPC*%
G36*
X477773Y47148D02*
X477773Y47148D01*
X477773Y63291D01*
X478629Y63156D01*
X480150Y62661D01*
X481575Y61935D01*
X482869Y60995D01*
X484000Y59864D01*
X484940Y58570D01*
X485666Y57145D01*
X486161Y55624D01*
X486411Y54045D01*
X486411Y47148D01*
X477773Y47148D01*
G37*
%LPD*%
%LPC*%
G36*
X401573Y47148D02*
X401573Y47148D01*
X401573Y63291D01*
X402429Y63156D01*
X403950Y62661D01*
X405375Y61935D01*
X406669Y60995D01*
X407800Y59864D01*
X408740Y58570D01*
X409466Y57145D01*
X409961Y55624D01*
X410211Y54045D01*
X410211Y47148D01*
X401573Y47148D01*
G37*
%LPD*%
%LPC*%
G36*
X452373Y47148D02*
X452373Y47148D01*
X452373Y63291D01*
X453229Y63156D01*
X454750Y62661D01*
X456175Y61935D01*
X457469Y60995D01*
X458600Y59864D01*
X459540Y58570D01*
X460266Y57145D01*
X460761Y55624D01*
X461011Y54045D01*
X461011Y47148D01*
X452373Y47148D01*
G37*
%LPD*%
%LPC*%
G36*
X426973Y47148D02*
X426973Y47148D01*
X426973Y63291D01*
X427829Y63156D01*
X429350Y62661D01*
X430775Y61935D01*
X432069Y60995D01*
X433200Y59864D01*
X434140Y58570D01*
X434866Y57145D01*
X435361Y55624D01*
X435611Y54045D01*
X435611Y47148D01*
X426973Y47148D01*
G37*
%LPD*%
%LPC*%
G36*
X376173Y47148D02*
X376173Y47148D01*
X376173Y63291D01*
X377029Y63156D01*
X378550Y62661D01*
X379975Y61935D01*
X381269Y60995D01*
X382400Y59864D01*
X383340Y58570D01*
X384066Y57145D01*
X384561Y55624D01*
X384811Y54045D01*
X384811Y47148D01*
X376173Y47148D01*
G37*
%LPD*%
%LPC*%
G36*
X401573Y44102D02*
X401573Y44102D01*
X410211Y44102D01*
X410211Y37205D01*
X409961Y35626D01*
X409466Y34105D01*
X408740Y32680D01*
X407800Y31386D01*
X406669Y30255D01*
X405375Y29315D01*
X403950Y28589D01*
X402429Y28094D01*
X401573Y27959D01*
X401573Y44102D01*
G37*
%LPD*%
%LPC*%
G36*
X426973Y44102D02*
X426973Y44102D01*
X435611Y44102D01*
X435611Y37205D01*
X435361Y35626D01*
X434866Y34105D01*
X434140Y32680D01*
X433200Y31386D01*
X432069Y30255D01*
X430775Y29315D01*
X429350Y28589D01*
X427829Y28094D01*
X426973Y27959D01*
X426973Y44102D01*
G37*
%LPD*%
%LPC*%
G36*
X452373Y44102D02*
X452373Y44102D01*
X461011Y44102D01*
X461011Y37205D01*
X460761Y35626D01*
X460266Y34105D01*
X459540Y32680D01*
X458600Y31386D01*
X457469Y30255D01*
X456175Y29315D01*
X454750Y28589D01*
X453229Y28094D01*
X452373Y27959D01*
X452373Y44102D01*
G37*
%LPD*%
%LPC*%
G36*
X503173Y44102D02*
X503173Y44102D01*
X511811Y44102D01*
X511811Y37205D01*
X511561Y35626D01*
X511066Y34105D01*
X510340Y32680D01*
X509400Y31386D01*
X508269Y30255D01*
X506975Y29315D01*
X505550Y28589D01*
X504029Y28094D01*
X503173Y27959D01*
X503173Y44102D01*
G37*
%LPD*%
%LPC*%
G36*
X477773Y44102D02*
X477773Y44102D01*
X486411Y44102D01*
X486411Y37205D01*
X486161Y35626D01*
X485666Y34105D01*
X484940Y32680D01*
X484000Y31386D01*
X482869Y30255D01*
X481575Y29315D01*
X480150Y28589D01*
X478629Y28094D01*
X477773Y27959D01*
X477773Y44102D01*
G37*
%LPD*%
%LPC*%
G36*
X376173Y44102D02*
X376173Y44102D01*
X384811Y44102D01*
X384811Y37205D01*
X384561Y35626D01*
X384066Y34105D01*
X383340Y32680D01*
X382400Y31386D01*
X381269Y30255D01*
X379975Y29315D01*
X378550Y28589D01*
X377029Y28094D01*
X376173Y27959D01*
X376173Y44102D01*
G37*
%LPD*%
%LPC*%
G36*
X389889Y47148D02*
X389889Y47148D01*
X389889Y54045D01*
X390139Y55624D01*
X390634Y57145D01*
X391360Y58570D01*
X392300Y59864D01*
X393431Y60995D01*
X394725Y61935D01*
X396150Y62661D01*
X397671Y63156D01*
X398527Y63291D01*
X398527Y47148D01*
X389889Y47148D01*
G37*
%LPD*%
%LPC*%
G36*
X415289Y47148D02*
X415289Y47148D01*
X415289Y54045D01*
X415539Y55624D01*
X416034Y57145D01*
X416760Y58570D01*
X417700Y59864D01*
X418831Y60995D01*
X420125Y61935D01*
X421550Y62661D01*
X423071Y63156D01*
X423927Y63291D01*
X423927Y47148D01*
X415289Y47148D01*
G37*
%LPD*%
%LPC*%
G36*
X440689Y47148D02*
X440689Y47148D01*
X440689Y54045D01*
X440939Y55624D01*
X441434Y57145D01*
X442160Y58570D01*
X443100Y59864D01*
X444231Y60995D01*
X445525Y61935D01*
X446950Y62661D01*
X448471Y63156D01*
X449327Y63291D01*
X449327Y47148D01*
X440689Y47148D01*
G37*
%LPD*%
%LPC*%
G36*
X466089Y47148D02*
X466089Y47148D01*
X466089Y54045D01*
X466339Y55624D01*
X466834Y57145D01*
X467560Y58570D01*
X468500Y59864D01*
X469631Y60995D01*
X470925Y61935D01*
X472350Y62661D01*
X473871Y63156D01*
X474727Y63291D01*
X474727Y47148D01*
X466089Y47148D01*
G37*
%LPD*%
%LPC*%
G36*
X491489Y47148D02*
X491489Y47148D01*
X491489Y54045D01*
X491739Y55624D01*
X492234Y57145D01*
X492960Y58570D01*
X493900Y59864D01*
X495031Y60995D01*
X496325Y61935D01*
X497750Y62661D01*
X499271Y63156D01*
X500127Y63291D01*
X500127Y47148D01*
X491489Y47148D01*
G37*
%LPD*%
%LPC*%
G36*
X364489Y47148D02*
X364489Y47148D01*
X364489Y54045D01*
X364739Y55624D01*
X365234Y57145D01*
X365960Y58570D01*
X366900Y59864D01*
X368031Y60995D01*
X369325Y61935D01*
X370750Y62661D01*
X372271Y63156D01*
X373127Y63291D01*
X373127Y47148D01*
X364489Y47148D01*
G37*
%LPD*%
%LPC*%
G36*
X397671Y28094D02*
X397671Y28094D01*
X396150Y28589D01*
X394725Y29315D01*
X393431Y30255D01*
X392300Y31386D01*
X391360Y32680D01*
X390634Y34105D01*
X390139Y35626D01*
X389889Y37205D01*
X389889Y44102D01*
X398527Y44102D01*
X398527Y27959D01*
X397671Y28094D01*
G37*
%LPD*%
%LPC*%
G36*
X423071Y28094D02*
X423071Y28094D01*
X421550Y28589D01*
X420125Y29315D01*
X418831Y30255D01*
X417700Y31386D01*
X416760Y32680D01*
X416034Y34105D01*
X415539Y35626D01*
X415289Y37205D01*
X415289Y44102D01*
X423927Y44102D01*
X423927Y27959D01*
X423071Y28094D01*
G37*
%LPD*%
%LPC*%
G36*
X448471Y28094D02*
X448471Y28094D01*
X446950Y28589D01*
X445525Y29315D01*
X444231Y30255D01*
X443100Y31386D01*
X442160Y32680D01*
X441434Y34105D01*
X440939Y35626D01*
X440689Y37205D01*
X440689Y44102D01*
X449327Y44102D01*
X449327Y27959D01*
X448471Y28094D01*
G37*
%LPD*%
%LPC*%
G36*
X473871Y28094D02*
X473871Y28094D01*
X472350Y28589D01*
X470925Y29315D01*
X469631Y30255D01*
X468500Y31386D01*
X467560Y32680D01*
X466834Y34105D01*
X466339Y35626D01*
X466089Y37205D01*
X466089Y44102D01*
X474727Y44102D01*
X474727Y27959D01*
X473871Y28094D01*
G37*
%LPD*%
%LPC*%
G36*
X499271Y28094D02*
X499271Y28094D01*
X497750Y28589D01*
X496325Y29315D01*
X495031Y30255D01*
X493900Y31386D01*
X492960Y32680D01*
X492234Y34105D01*
X491739Y35626D01*
X491489Y37205D01*
X491489Y44102D01*
X500127Y44102D01*
X500127Y27959D01*
X499271Y28094D01*
G37*
%LPD*%
%LPC*%
G36*
X372271Y28094D02*
X372271Y28094D01*
X370750Y28589D01*
X369325Y29315D01*
X368031Y30255D01*
X366900Y31386D01*
X365960Y32680D01*
X365234Y34105D01*
X364739Y35626D01*
X364489Y37205D01*
X364489Y44102D01*
X373127Y44102D01*
X373127Y27959D01*
X372271Y28094D01*
G37*
%LPD*%
%LPC*%
G36*
X495079Y89915D02*
X495079Y89915D01*
X493144Y91850D01*
X493144Y94586D01*
X495079Y96521D01*
X507306Y96521D01*
X509241Y94586D01*
X509241Y91850D01*
X507306Y89915D01*
X495079Y89915D01*
G37*
%LPD*%
%LPC*%
G36*
X649373Y503084D02*
X649373Y503084D01*
X649373Y512727D01*
X659016Y512727D01*
X659016Y505291D01*
X658843Y504644D01*
X658508Y504065D01*
X658035Y503592D01*
X657456Y503257D01*
X656809Y503084D01*
X649373Y503084D01*
G37*
%LPD*%
%LPC*%
G36*
X572873Y503084D02*
X572873Y503084D01*
X572873Y512727D01*
X582516Y512727D01*
X582516Y505291D01*
X582343Y504644D01*
X582008Y504065D01*
X581535Y503592D01*
X580956Y503257D01*
X580309Y503084D01*
X572873Y503084D01*
G37*
%LPD*%
%LPC*%
G36*
X638891Y503084D02*
X638891Y503084D01*
X638244Y503257D01*
X637665Y503592D01*
X637192Y504065D01*
X636857Y504644D01*
X636684Y505291D01*
X636684Y512727D01*
X646327Y512727D01*
X646327Y503084D01*
X638891Y503084D01*
G37*
%LPD*%
%LPC*%
G36*
X562391Y503084D02*
X562391Y503084D01*
X561744Y503257D01*
X561165Y503592D01*
X560692Y504065D01*
X560357Y504644D01*
X560184Y505291D01*
X560184Y512727D01*
X569827Y512727D01*
X569827Y503084D01*
X562391Y503084D01*
G37*
%LPD*%
%LPC*%
G36*
X414273Y183986D02*
X414273Y183986D01*
X414273Y192623D01*
X416959Y192623D01*
X422911Y186671D01*
X422911Y183986D01*
X414273Y183986D01*
G37*
%LPD*%
%LPC*%
G36*
X402589Y183986D02*
X402589Y183986D01*
X402589Y186671D01*
X408541Y192623D01*
X411227Y192623D01*
X411227Y183986D01*
X402589Y183986D01*
G37*
%LPD*%
%LPC*%
G36*
X414273Y172302D02*
X414273Y172302D01*
X414273Y180939D01*
X422911Y180939D01*
X422911Y178254D01*
X416959Y172302D01*
X414273Y172302D01*
G37*
%LPD*%
%LPC*%
G36*
X408541Y172302D02*
X408541Y172302D01*
X402589Y178254D01*
X402589Y180939D01*
X411227Y180939D01*
X411227Y172302D01*
X408541Y172302D01*
G37*
%LPD*%
%LPC*%
G36*
X586123Y488773D02*
X586123Y488773D01*
X586123Y496461D01*
X587322Y496222D01*
X589020Y495519D01*
X590548Y494498D01*
X591848Y493198D01*
X592869Y491670D01*
X593572Y489972D01*
X593811Y488773D01*
X586123Y488773D01*
G37*
%LPD*%
%LPC*%
G36*
X625389Y488773D02*
X625389Y488773D01*
X625628Y489972D01*
X626331Y491670D01*
X627352Y493198D01*
X628652Y494498D01*
X630180Y495519D01*
X631878Y496222D01*
X633077Y496461D01*
X633077Y488773D01*
X625389Y488773D01*
G37*
%LPD*%
%LPC*%
G36*
X586123Y485727D02*
X586123Y485727D01*
X593811Y485727D01*
X593572Y484528D01*
X592869Y482830D01*
X591848Y481302D01*
X590548Y480002D01*
X589020Y478981D01*
X587322Y478278D01*
X586123Y478039D01*
X586123Y485727D01*
G37*
%LPD*%
%LPC*%
G36*
X631878Y478278D02*
X631878Y478278D01*
X630180Y478981D01*
X628652Y480002D01*
X627352Y481302D01*
X626331Y482830D01*
X625628Y484528D01*
X625389Y485727D01*
X633077Y485727D01*
X633077Y478039D01*
X631878Y478278D01*
G37*
%LPD*%
%LPC*%
G36*
X560323Y274473D02*
X560323Y274473D01*
X560323Y281712D01*
X561393Y281499D01*
X563011Y280829D01*
X564468Y279856D01*
X565706Y278618D01*
X566679Y277161D01*
X567349Y275543D01*
X567562Y274473D01*
X560323Y274473D01*
G37*
%LPD*%
%LPC*%
G36*
X560323Y271427D02*
X560323Y271427D01*
X567562Y271427D01*
X567349Y270357D01*
X566679Y268739D01*
X565706Y267282D01*
X564468Y266044D01*
X563011Y265071D01*
X561393Y264401D01*
X560323Y264188D01*
X560323Y271427D01*
G37*
%LPD*%
%LPC*%
G36*
X550038Y274473D02*
X550038Y274473D01*
X550251Y275543D01*
X550921Y277161D01*
X551894Y278618D01*
X553132Y279856D01*
X554589Y280829D01*
X556207Y281499D01*
X557277Y281712D01*
X557277Y274473D01*
X550038Y274473D01*
G37*
%LPD*%
%LPC*%
G36*
X556207Y264401D02*
X556207Y264401D01*
X554589Y265071D01*
X553132Y266044D01*
X551894Y267282D01*
X550921Y268739D01*
X550251Y270357D01*
X550038Y271427D01*
X557277Y271427D01*
X557277Y264188D01*
X556207Y264401D01*
G37*
%LPD*%
%LPC*%
G36*
X412749Y182462D02*
X412749Y182462D01*
X412749Y182463D01*
X412751Y182463D01*
X412751Y182462D01*
X412749Y182462D01*
G37*
%LPD*%
%LPC*%
G36*
X450849Y45624D02*
X450849Y45624D01*
X450849Y45626D01*
X450851Y45626D01*
X450851Y45624D01*
X450849Y45624D01*
G37*
%LPD*%
%LPC*%
G36*
X425449Y45624D02*
X425449Y45624D01*
X425449Y45626D01*
X425451Y45626D01*
X425451Y45624D01*
X425449Y45624D01*
G37*
%LPD*%
%LPC*%
G36*
X400049Y45624D02*
X400049Y45624D01*
X400049Y45626D01*
X400051Y45626D01*
X400051Y45624D01*
X400049Y45624D01*
G37*
%LPD*%
%LPC*%
G36*
X374649Y45624D02*
X374649Y45624D01*
X374649Y45626D01*
X374651Y45626D01*
X374651Y45624D01*
X374649Y45624D01*
G37*
%LPD*%
%LPC*%
G36*
X584599Y487249D02*
X584599Y487249D01*
X584599Y487251D01*
X584601Y487251D01*
X584601Y487249D01*
X584599Y487249D01*
G37*
%LPD*%
%LPC*%
G36*
X501649Y45624D02*
X501649Y45624D01*
X501649Y45626D01*
X501651Y45626D01*
X501651Y45624D01*
X501649Y45624D01*
G37*
%LPD*%
%LPC*%
G36*
X634599Y487249D02*
X634599Y487249D01*
X634599Y487251D01*
X634601Y487251D01*
X634601Y487249D01*
X634599Y487249D01*
G37*
%LPD*%
%LPC*%
G36*
X476249Y45624D02*
X476249Y45624D01*
X476249Y45626D01*
X476251Y45626D01*
X476251Y45624D01*
X476249Y45624D01*
G37*
%LPD*%
%LPC*%
G36*
X558799Y272949D02*
X558799Y272949D01*
X558799Y272951D01*
X558801Y272951D01*
X558801Y272949D01*
X558799Y272949D01*
G37*
%LPD*%
D10*
X522310Y109827D02*
X512819Y102709D01*
X522310Y95591D01*
X505938Y93218D02*
X496447Y93218D01*
X473195Y97963D02*
X473195Y109827D01*
X473195Y97963D02*
X470822Y95591D01*
X466077Y95591D01*
X463704Y97963D01*
X463704Y109827D01*
X456823Y109827D02*
X456823Y95591D01*
X447333Y95591D02*
X456823Y109827D01*
X447333Y109827D02*
X447333Y95591D01*
X440452Y95591D02*
X440452Y109827D01*
X440452Y100336D02*
X430961Y109827D01*
X438079Y102709D02*
X430961Y95591D01*
X424080Y95591D02*
X424080Y109827D01*
X414589Y95591D01*
X414589Y109827D01*
X405336Y109827D02*
X400591Y109827D01*
X405336Y109827D02*
X407709Y107454D01*
X407709Y97963D01*
X405336Y95591D01*
X400591Y95591D01*
X398218Y97963D01*
X398218Y107454D01*
X400591Y109827D01*
X391337Y109827D02*
X391337Y95591D01*
X386592Y100336D01*
X381846Y95591D01*
X381846Y109827D01*
X374965Y95591D02*
X365475Y95591D01*
X374965Y95591D02*
X365475Y105081D01*
X365475Y107454D01*
X367847Y109827D01*
X372593Y109827D01*
X374965Y107454D01*
X358594Y107454D02*
X356221Y109827D01*
X351476Y109827D01*
X349103Y107454D01*
X349103Y105081D01*
X351476Y102709D01*
X353849Y102709D01*
X351476Y102709D02*
X349103Y100336D01*
X349103Y97963D01*
X351476Y95591D01*
X356221Y95591D01*
X358594Y97963D01*
D11*
X463550Y157063D03*
D12*
X438150Y157063D03*
X412750Y157063D03*
X463550Y182463D03*
X438150Y182463D03*
X412750Y182463D03*
D13*
X634600Y487250D02*
X648180Y487250D01*
X584600Y487250D02*
X571020Y487250D01*
D14*
X647850Y514250D03*
X571350Y514250D03*
D15*
X501650Y502820D02*
X501650Y487580D01*
X476250Y487580D02*
X476250Y502820D01*
X450850Y502820D02*
X450850Y487580D01*
X425450Y487580D02*
X425450Y502820D01*
X400050Y502820D02*
X400050Y487580D01*
X374650Y487580D02*
X374650Y502820D01*
X374650Y53245D02*
X374650Y38005D01*
X400050Y38005D02*
X400050Y53245D01*
X425450Y53245D02*
X425450Y38005D01*
X450850Y38005D02*
X450850Y53245D01*
X476250Y53245D02*
X476250Y38005D01*
X501650Y38005D02*
X501650Y53245D01*
D16*
X433388Y220563D03*
X417513Y220563D03*
X400050Y220563D03*
X373063Y358675D03*
X388938Y358675D03*
X558800Y320575D03*
X558800Y336450D03*
X558800Y304700D03*
X487363Y218975D03*
X558800Y272950D03*
X450850Y220563D03*
D17*
X636588Y465038D03*
D18*
X496888Y276125D03*
D19*
X463550Y242788D02*
X463550Y219044D01*
X463550Y182463D01*
X463550Y242788D02*
X496888Y276125D01*
X463550Y188813D02*
X463550Y182463D01*
X463550Y188813D02*
X447675Y204688D01*
X396875Y204688D01*
D18*
X396875Y204688D03*
D19*
X527050Y465038D02*
X636588Y465038D01*
X496888Y434875D02*
X496888Y276125D01*
X496888Y434875D02*
X527050Y465038D01*
D20*
X487363Y218975D02*
X463619Y218975D01*
X463550Y219044D01*
D21*
X411480Y292889D03*
X522288Y301525D03*
D17*
X434975Y318988D03*
D20*
X434975Y287238D01*
X388537Y181276D02*
X412750Y157063D01*
X388537Y181276D02*
X388537Y240800D01*
X434975Y287238D01*
D17*
X406400Y358675D03*
D21*
X477838Y358675D03*
D20*
X462812Y358675D01*
X406400Y358675D01*
D21*
X442913Y269775D03*
D20*
X452438Y277713D02*
X452438Y348301D01*
X462812Y358675D01*
X444500Y269775D02*
X442913Y269775D01*
X444500Y269775D02*
X452438Y277713D01*
D21*
X434975Y242788D03*
X477838Y344388D03*
D20*
X477838Y285650D01*
X434975Y242788D01*
D21*
X425450Y233263D03*
D20*
X433388Y225325D02*
X433388Y220563D01*
X433388Y225325D02*
X425450Y233263D01*
D21*
X409575Y233263D03*
D20*
X417513Y225325D02*
X417513Y220563D01*
X417513Y225325D02*
X409575Y233263D01*
D21*
X396875Y233263D03*
D20*
X400050Y230088D02*
X400050Y220563D01*
X400050Y230088D02*
X396875Y233263D01*
D21*
X415925Y317400D03*
D20*
X401638Y317400D01*
X373063Y345975D01*
X373063Y358675D01*
D21*
X395288Y338038D03*
D20*
X395288Y352325D02*
X388938Y358675D01*
X395288Y352325D02*
X395288Y338038D01*
D21*
X506413Y293588D03*
D20*
X531813Y293588D02*
X558800Y320575D01*
X531813Y293588D02*
X506413Y293588D01*
D21*
X506413Y309463D03*
D20*
X531813Y309463D02*
X558800Y336450D01*
X531813Y309463D02*
X506413Y309463D01*
D21*
X515938Y285650D03*
D20*
X539750Y285650D02*
X558800Y304700D01*
X539750Y285650D02*
X515938Y285650D01*
D21*
X446088Y233263D03*
D20*
X450850Y228500D02*
X450850Y220563D01*
X450850Y228500D02*
X446088Y233263D01*
M02*
