G04 EAGLE Gerber RS-274X export*
G75*
%MOMM*%
%FSLAX34Y34*%
%LPD*%
%INSilkscreen Top*%
%IPPOS*%
%AMOC8*
5,1,8,0,0,1.08239X$1,22.5*%
G01*
%ADD10C,0.076200*%
%ADD11C,0.203200*%
%ADD12R,0.609600X1.574800*%
%ADD13R,0.300000X0.150000*%
%ADD14R,0.300000X0.300000*%
%ADD15C,0.050800*%
%ADD16C,0.152400*%
%ADD17C,0.127000*%


D10*
X373078Y220415D02*
X371850Y219186D01*
X371850Y216729D01*
X373078Y215500D01*
X377993Y215500D01*
X379222Y216729D01*
X379222Y219186D01*
X377993Y220415D01*
X374307Y222984D02*
X371850Y225442D01*
X379222Y225442D01*
X379222Y227899D02*
X379222Y222984D01*
X368484Y332580D02*
X369713Y333808D01*
X368484Y332580D02*
X368484Y330122D01*
X369713Y328894D01*
X374628Y328894D01*
X375857Y330122D01*
X375857Y332580D01*
X374628Y333808D01*
X375857Y336378D02*
X375857Y341293D01*
X375857Y336378D02*
X370942Y341293D01*
X369713Y341293D01*
X368484Y340064D01*
X368484Y337606D01*
X369713Y336378D01*
X511550Y247761D02*
X512778Y248990D01*
X511550Y247761D02*
X511550Y245304D01*
X512778Y244075D01*
X517693Y244075D01*
X518922Y245304D01*
X518922Y247761D01*
X517693Y248990D01*
X512778Y251559D02*
X511550Y252788D01*
X511550Y255245D01*
X512778Y256474D01*
X514007Y256474D01*
X515236Y255245D01*
X515236Y254017D01*
X515236Y255245D02*
X516465Y256474D01*
X517693Y256474D01*
X518922Y255245D01*
X518922Y252788D01*
X517693Y251559D01*
X369713Y348096D02*
X368484Y346867D01*
X368484Y344410D01*
X369713Y343181D01*
X374628Y343181D01*
X375857Y344410D01*
X375857Y346867D01*
X374628Y348096D01*
X375857Y354351D02*
X368484Y354351D01*
X372170Y350665D01*
X372170Y355580D01*
D11*
X581105Y446338D02*
X591105Y452338D01*
X581105Y458338D01*
X581105Y446338D01*
D12*
X592963Y452338D03*
D10*
X580090Y466498D02*
X580090Y473870D01*
X580090Y466498D02*
X583776Y466498D01*
X585005Y467727D01*
X585005Y472642D01*
X583776Y473870D01*
X580090Y473870D01*
X587574Y471413D02*
X590032Y473870D01*
X590032Y466498D01*
X592489Y466498D02*
X587574Y466498D01*
D11*
X634445Y452338D02*
X644445Y458338D01*
X634445Y452338D02*
X644445Y446338D01*
X644445Y458338D01*
D12*
X632587Y452338D03*
D10*
X664591Y449861D02*
X664591Y457233D01*
X664591Y449861D02*
X668277Y449861D01*
X669506Y451090D01*
X669506Y456005D01*
X668277Y457233D01*
X664591Y457233D01*
X672075Y449861D02*
X676990Y449861D01*
X672075Y449861D02*
X676990Y454776D01*
X676990Y456005D01*
X675761Y457233D01*
X673304Y457233D01*
X672075Y456005D01*
D13*
X738275Y510500D03*
X738275Y518000D03*
D14*
X738275Y514250D03*
D10*
X722919Y520791D02*
X722919Y528163D01*
X722919Y520791D02*
X727834Y520791D01*
X730404Y528163D02*
X735318Y528163D01*
X730404Y528163D02*
X730404Y520791D01*
X735318Y520791D01*
X732861Y524477D02*
X730404Y524477D01*
X737888Y528163D02*
X737888Y520791D01*
X741574Y520791D01*
X742803Y522019D01*
X742803Y526934D01*
X741574Y528163D01*
X737888Y528163D01*
X745372Y525705D02*
X747829Y528163D01*
X747829Y520791D01*
X745372Y520791D02*
X750287Y520791D01*
D13*
X708113Y510500D03*
X708113Y518000D03*
D14*
X708113Y514250D03*
D10*
X692757Y520791D02*
X692757Y528163D01*
X692757Y520791D02*
X697672Y520791D01*
X700241Y528163D02*
X705156Y528163D01*
X700241Y528163D02*
X700241Y520791D01*
X705156Y520791D01*
X702698Y524477D02*
X700241Y524477D01*
X707725Y528163D02*
X707725Y520791D01*
X711411Y520791D01*
X712640Y522019D01*
X712640Y526934D01*
X711411Y528163D01*
X707725Y528163D01*
X715209Y520791D02*
X720124Y520791D01*
X720124Y525705D02*
X715209Y520791D01*
X720124Y525705D02*
X720124Y526934D01*
X718895Y528163D01*
X716438Y528163D01*
X715209Y526934D01*
D15*
X352741Y312927D02*
X353146Y312644D01*
X353545Y312351D01*
X353936Y312049D01*
X354320Y311737D01*
X354696Y311416D01*
X355064Y311086D01*
X355424Y310747D01*
X355775Y310399D01*
X356118Y310043D01*
X356453Y309678D01*
X356778Y309306D01*
X357094Y308926D01*
X357401Y308538D01*
X357698Y308143D01*
X357986Y307740D01*
X358263Y307331D01*
X358531Y306916D01*
X358788Y306493D01*
X359035Y306065D01*
X359272Y305631D01*
X359498Y305191D01*
X359713Y304746D01*
X359917Y304296D01*
X360111Y303840D01*
X360293Y303381D01*
X360464Y302917D01*
X360623Y302449D01*
X360771Y301977D01*
X360908Y301502D01*
X361033Y301023D01*
X361146Y300542D01*
X361248Y300058D01*
X361338Y299572D01*
X361416Y299084D01*
X361482Y298594D01*
X361536Y298102D01*
X361578Y297609D01*
X361608Y297116D01*
X361626Y296622D01*
X361632Y296127D01*
X361633Y227547D02*
X361627Y227053D01*
X361609Y226559D01*
X361579Y226065D01*
X361537Y225573D01*
X361483Y225081D01*
X361417Y224591D01*
X361339Y224103D01*
X361249Y223616D01*
X361148Y223133D01*
X361034Y222651D01*
X360909Y222173D01*
X360773Y221698D01*
X360625Y221226D01*
X360465Y220758D01*
X360294Y220294D01*
X360112Y219834D01*
X359919Y219379D01*
X359715Y218928D01*
X359500Y218483D01*
X359274Y218043D01*
X359037Y217609D01*
X358790Y217181D01*
X358533Y216759D01*
X358265Y216343D01*
X357987Y215934D01*
X357700Y215531D01*
X357403Y215136D01*
X357096Y214748D01*
X356780Y214368D01*
X356454Y213996D01*
X356120Y213631D01*
X355777Y213275D01*
X355426Y212927D01*
X355066Y212588D01*
X354698Y212258D01*
X354322Y211937D01*
X353938Y211625D01*
X353547Y211322D01*
X353148Y211030D01*
X352743Y210746D01*
X328613Y227548D02*
X328613Y296128D01*
X320993Y296128D02*
X320993Y227548D01*
X354013Y227548D02*
X354013Y296128D01*
X328612Y227547D02*
X328616Y227246D01*
X328626Y226944D01*
X328644Y226644D01*
X328669Y226343D01*
X328701Y226043D01*
X328741Y225744D01*
X328787Y225446D01*
X328840Y225150D01*
X328901Y224854D01*
X328968Y224561D01*
X329042Y224268D01*
X329124Y223978D01*
X329212Y223690D01*
X329307Y223404D01*
X329409Y223120D01*
X329517Y222839D01*
X329632Y222560D01*
X329754Y222284D01*
X329882Y222011D01*
X352743Y222011D02*
X352871Y222284D01*
X352993Y222560D01*
X353108Y222839D01*
X353216Y223120D01*
X353318Y223404D01*
X353413Y223690D01*
X353501Y223978D01*
X353583Y224268D01*
X353657Y224561D01*
X353724Y224854D01*
X353785Y225150D01*
X353838Y225446D01*
X353884Y225744D01*
X353924Y226043D01*
X353956Y226343D01*
X353981Y226644D01*
X353999Y226944D01*
X354009Y227246D01*
X354013Y227547D01*
X329882Y210746D02*
X329477Y211029D01*
X329078Y211322D01*
X328687Y211625D01*
X328303Y211937D01*
X327927Y212258D01*
X327559Y212588D01*
X327199Y212927D01*
X326848Y213275D01*
X326505Y213631D01*
X326170Y213995D01*
X325845Y214368D01*
X325529Y214748D01*
X325222Y215136D01*
X324925Y215531D01*
X324637Y215933D01*
X324360Y216343D01*
X324092Y216758D01*
X323835Y217181D01*
X323588Y217609D01*
X323351Y218043D01*
X323125Y218483D01*
X322910Y218928D01*
X322705Y219378D01*
X322512Y219834D01*
X322330Y220293D01*
X322159Y220757D01*
X322000Y221225D01*
X321851Y221697D01*
X321715Y222172D01*
X321590Y222651D01*
X321477Y223132D01*
X321375Y223616D01*
X321285Y224102D01*
X321207Y224591D01*
X321141Y225081D01*
X321087Y225572D01*
X321045Y226065D01*
X321015Y226559D01*
X320997Y227053D01*
X320991Y227547D01*
X320992Y296128D02*
X320998Y296622D01*
X321016Y297116D01*
X321046Y297610D01*
X321088Y298102D01*
X321142Y298594D01*
X321208Y299084D01*
X321286Y299572D01*
X321376Y300059D01*
X321477Y300542D01*
X321591Y301024D01*
X321716Y301502D01*
X321852Y301977D01*
X322000Y302449D01*
X322160Y302917D01*
X322331Y303381D01*
X322513Y303841D01*
X322706Y304296D01*
X322910Y304747D01*
X323125Y305192D01*
X323351Y305632D01*
X323588Y306066D01*
X323835Y306494D01*
X324092Y306916D01*
X324360Y307332D01*
X324638Y307741D01*
X324925Y308144D01*
X325222Y308539D01*
X325529Y308927D01*
X325845Y309307D01*
X326171Y309679D01*
X326505Y310044D01*
X326848Y310400D01*
X327199Y310748D01*
X327559Y311087D01*
X327927Y311417D01*
X328303Y311738D01*
X328687Y312050D01*
X329078Y312353D01*
X329477Y312645D01*
X329882Y312929D01*
X329882Y301664D02*
X329754Y301391D01*
X329632Y301115D01*
X329517Y300836D01*
X329409Y300555D01*
X329307Y300271D01*
X329212Y299985D01*
X329124Y299697D01*
X329042Y299407D01*
X328968Y299114D01*
X328901Y298821D01*
X328840Y298525D01*
X328787Y298229D01*
X328741Y297931D01*
X328701Y297632D01*
X328669Y297332D01*
X328644Y297031D01*
X328626Y296731D01*
X328616Y296429D01*
X328612Y296128D01*
X352743Y301664D02*
X352871Y301391D01*
X352993Y301115D01*
X353108Y300836D01*
X353216Y300555D01*
X353318Y300271D01*
X353413Y299985D01*
X353501Y299697D01*
X353583Y299407D01*
X353657Y299114D01*
X353724Y298821D01*
X353785Y298525D01*
X353838Y298229D01*
X353884Y297931D01*
X353924Y297632D01*
X353956Y297332D01*
X353981Y297031D01*
X353999Y296731D01*
X354009Y296429D01*
X354013Y296128D01*
X361633Y296128D02*
X361633Y227548D01*
D16*
X347663Y259298D02*
X334963Y259298D01*
X347663Y259298D02*
X347663Y264378D01*
X334963Y264378D01*
X334963Y259298D01*
X334963Y255488D02*
X341313Y255488D01*
X347663Y255488D01*
D15*
X341313Y255488D02*
X341313Y250408D01*
D16*
X341313Y268188D02*
X334963Y268188D01*
X341313Y268188D02*
X347663Y268188D01*
D15*
X341313Y268188D02*
X341313Y273268D01*
D10*
X314033Y262219D02*
X309118Y262219D01*
X307889Y263447D01*
X307889Y265905D01*
X309118Y267133D01*
X314033Y267133D01*
X315262Y265905D01*
X315262Y263447D01*
X314033Y262219D01*
X312804Y264676D02*
X315262Y267133D01*
X310347Y269703D02*
X307889Y272160D01*
X315262Y272160D01*
X315262Y269703D02*
X315262Y274618D01*
X370072Y165381D02*
X377444Y165381D01*
X370072Y165381D02*
X370072Y169067D01*
X371300Y170296D01*
X373758Y170296D01*
X374987Y169067D01*
X374987Y165381D01*
X374987Y167838D02*
X377444Y170296D01*
X372529Y172865D02*
X370072Y175323D01*
X377444Y175323D01*
X377444Y177780D02*
X377444Y172865D01*
X620866Y412841D02*
X620866Y420213D01*
X624552Y420213D01*
X625781Y418984D01*
X625781Y416527D01*
X624552Y415298D01*
X620866Y415298D01*
X623323Y415298D02*
X625781Y412841D01*
X628350Y417755D02*
X630808Y420213D01*
X630808Y412841D01*
X633265Y412841D02*
X628350Y412841D01*
X635834Y414069D02*
X635834Y418984D01*
X637063Y420213D01*
X639520Y420213D01*
X640749Y418984D01*
X640749Y414069D01*
X639520Y412841D01*
X637063Y412841D01*
X635834Y414069D01*
X640749Y418984D01*
X728847Y484469D02*
X736219Y484469D01*
X728847Y484469D02*
X728847Y488155D01*
X730075Y489383D01*
X732533Y489383D01*
X733762Y488155D01*
X733762Y484469D01*
X733762Y486926D02*
X736219Y489383D01*
X736219Y491953D02*
X736219Y496868D01*
X736219Y491953D02*
X731304Y496868D01*
X730075Y496868D01*
X728847Y495639D01*
X728847Y493181D01*
X730075Y491953D01*
X706057Y484469D02*
X698684Y484469D01*
X698684Y488155D01*
X699913Y489383D01*
X702370Y489383D01*
X703599Y488155D01*
X703599Y484469D01*
X703599Y486926D02*
X706057Y489383D01*
X699913Y491953D02*
X698684Y493181D01*
X698684Y495639D01*
X699913Y496868D01*
X701142Y496868D01*
X702370Y495639D01*
X702370Y494410D01*
X702370Y495639D02*
X703599Y496868D01*
X704828Y496868D01*
X706057Y495639D01*
X706057Y493181D01*
X704828Y491953D01*
X567119Y406116D02*
X567119Y398744D01*
X567119Y406116D02*
X570805Y406116D01*
X572033Y404887D01*
X572033Y402430D01*
X570805Y401201D01*
X567119Y401201D01*
X569576Y401201D02*
X572033Y398744D01*
X574603Y404887D02*
X575831Y406116D01*
X578289Y406116D01*
X579518Y404887D01*
X579518Y403658D01*
X578289Y402430D01*
X579518Y401201D01*
X579518Y399972D01*
X578289Y398744D01*
X575831Y398744D01*
X574603Y399972D01*
X574603Y401201D01*
X575831Y402430D01*
X574603Y403658D01*
X574603Y404887D01*
X575831Y402430D02*
X578289Y402430D01*
X568706Y419381D02*
X568706Y426753D01*
X572392Y426753D01*
X573621Y425525D01*
X573621Y423067D01*
X572392Y421838D01*
X568706Y421838D01*
X571163Y421838D02*
X573621Y419381D01*
X576190Y420610D02*
X577419Y419381D01*
X579876Y419381D01*
X581105Y420610D01*
X581105Y425525D01*
X579876Y426753D01*
X577419Y426753D01*
X576190Y425525D01*
X576190Y424296D01*
X577419Y423067D01*
X581105Y423067D01*
D16*
X418084Y244947D02*
X418084Y234787D01*
X426212Y348579D02*
X426212Y358993D01*
X489966Y292953D02*
X500126Y292953D01*
X411480Y327497D02*
X407416Y323433D01*
D10*
X385790Y328599D02*
X377825Y336564D01*
X377825Y328599D02*
X385790Y336564D01*
X385790Y332582D02*
X377825Y332582D01*
X381808Y328599D02*
X381808Y336564D01*
X377825Y336564D02*
X385790Y328599D01*
X377825Y328599D02*
X385790Y336564D01*
X385790Y332582D02*
X377825Y332582D01*
X381808Y328599D02*
X381808Y336564D01*
X445580Y312072D02*
X445580Y305929D01*
X446808Y304700D01*
X449266Y304700D01*
X450494Y305929D01*
X450494Y312072D01*
X453064Y309615D02*
X455521Y312072D01*
X455521Y304700D01*
X453064Y304700D02*
X457979Y304700D01*
D17*
X645600Y521250D02*
X645600Y528750D01*
X573600Y528750D01*
X573600Y521250D01*
D16*
X543361Y497914D02*
X547768Y491304D01*
X543361Y491304D02*
X547768Y497914D01*
X550845Y495710D02*
X553049Y497914D01*
X553049Y491304D01*
X555252Y491304D02*
X550845Y491304D01*
D13*
X677950Y510500D03*
X677950Y518000D03*
D14*
X677950Y514250D03*
D10*
X662594Y520791D02*
X662594Y528163D01*
X662594Y520791D02*
X667509Y520791D01*
X670079Y528163D02*
X674993Y528163D01*
X670079Y528163D02*
X670079Y520791D01*
X674993Y520791D01*
X672536Y524477D02*
X670079Y524477D01*
X677563Y528163D02*
X677563Y520791D01*
X681249Y520791D01*
X682478Y522019D01*
X682478Y526934D01*
X681249Y528163D01*
X677563Y528163D01*
X685047Y526934D02*
X686276Y528163D01*
X688733Y528163D01*
X689962Y526934D01*
X689962Y525705D01*
X688733Y524477D01*
X687504Y524477D01*
X688733Y524477D02*
X689962Y523248D01*
X689962Y522019D01*
X688733Y520791D01*
X686276Y520791D01*
X685047Y522019D01*
X675894Y487644D02*
X668522Y487644D01*
X668522Y491330D01*
X669750Y492558D01*
X672208Y492558D01*
X673437Y491330D01*
X673437Y487644D01*
X673437Y490101D02*
X675894Y492558D01*
X675894Y498814D02*
X668522Y498814D01*
X672208Y495128D01*
X672208Y500043D01*
D16*
X508000Y482500D02*
X495300Y482500D01*
X488950Y488850D01*
X488950Y501550D02*
X495300Y507900D01*
X488950Y488850D02*
X482600Y482500D01*
X469900Y482500D01*
X463550Y488850D01*
X463550Y501550D02*
X469900Y507900D01*
X482600Y507900D01*
X488950Y501550D01*
X514350Y501550D02*
X514350Y488850D01*
X508000Y482500D01*
X514350Y501550D02*
X508000Y507900D01*
X495300Y507900D01*
X463550Y488850D02*
X457200Y482500D01*
X444500Y482500D01*
X438150Y488850D01*
X438150Y501550D02*
X444500Y507900D01*
X457200Y507900D01*
X463550Y501550D01*
X431800Y482500D02*
X419100Y482500D01*
X412750Y488850D01*
X412750Y501550D02*
X419100Y507900D01*
X412750Y488850D02*
X406400Y482500D01*
X393700Y482500D01*
X387350Y488850D01*
X387350Y501550D02*
X393700Y507900D01*
X406400Y507900D01*
X412750Y501550D01*
X431800Y482500D02*
X438150Y488850D01*
X438150Y501550D02*
X431800Y507900D01*
X419100Y507900D01*
X387350Y488850D02*
X381000Y482500D01*
X368300Y482500D01*
X361950Y488850D01*
X361950Y501550D02*
X368300Y507900D01*
X381000Y507900D01*
X387350Y501550D01*
X361950Y501550D02*
X361950Y488850D01*
D17*
X496941Y519972D02*
X500754Y523785D01*
X500754Y512345D01*
X496941Y512345D02*
X504568Y512345D01*
X377568Y478065D02*
X373754Y476158D01*
X369941Y472345D01*
X369941Y468532D01*
X371848Y466625D01*
X375661Y466625D01*
X377568Y468532D01*
X377568Y470438D01*
X375661Y472345D01*
X369941Y472345D01*
D10*
X343206Y497724D02*
X341977Y498953D01*
X339520Y498953D01*
X338291Y497724D01*
X338291Y496495D01*
X339520Y495267D01*
X341977Y495267D01*
X343206Y494038D01*
X343206Y492809D01*
X341977Y491581D01*
X339520Y491581D01*
X338291Y492809D01*
X345775Y494038D02*
X345775Y498953D01*
X345775Y494038D02*
X348233Y491581D01*
X350690Y494038D01*
X350690Y498953D01*
X353259Y491581D02*
X358174Y491581D01*
X358174Y496495D02*
X353259Y491581D01*
X358174Y496495D02*
X358174Y497724D01*
X356945Y498953D01*
X354488Y498953D01*
X353259Y497724D01*
D16*
X368300Y58325D02*
X381000Y58325D01*
X387350Y51975D01*
X387350Y39275D02*
X381000Y32925D01*
X387350Y51975D02*
X393700Y58325D01*
X406400Y58325D01*
X412750Y51975D01*
X412750Y39275D02*
X406400Y32925D01*
X393700Y32925D01*
X387350Y39275D01*
X361950Y39275D02*
X361950Y51975D01*
X368300Y58325D01*
X361950Y39275D02*
X368300Y32925D01*
X381000Y32925D01*
X412750Y51975D02*
X419100Y58325D01*
X431800Y58325D01*
X438150Y51975D01*
X438150Y39275D02*
X431800Y32925D01*
X419100Y32925D01*
X412750Y39275D01*
X444500Y58325D02*
X457200Y58325D01*
X463550Y51975D01*
X463550Y39275D02*
X457200Y32925D01*
X463550Y51975D02*
X469900Y58325D01*
X482600Y58325D01*
X488950Y51975D01*
X488950Y39275D02*
X482600Y32925D01*
X469900Y32925D01*
X463550Y39275D01*
X444500Y58325D02*
X438150Y51975D01*
X438150Y39275D02*
X444500Y32925D01*
X457200Y32925D01*
X488950Y51975D02*
X495300Y58325D01*
X508000Y58325D01*
X514350Y51975D01*
X514350Y39275D02*
X508000Y32925D01*
X495300Y32925D01*
X488950Y39275D01*
X514350Y39275D02*
X514350Y51975D01*
D17*
X372748Y28490D02*
X368935Y24677D01*
X372748Y28490D02*
X372748Y17050D01*
X368935Y17050D02*
X376562Y17050D01*
X499748Y72303D02*
X503562Y74210D01*
X499748Y72303D02*
X495935Y68490D01*
X495935Y64677D01*
X497842Y62770D01*
X501655Y62770D01*
X503562Y64677D01*
X503562Y66583D01*
X501655Y68490D01*
X495935Y68490D01*
D10*
X345021Y48022D02*
X343792Y49251D01*
X341335Y49251D01*
X340106Y48022D01*
X340106Y46793D01*
X341335Y45565D01*
X343792Y45565D01*
X345021Y44336D01*
X345021Y43107D01*
X343792Y41879D01*
X341335Y41879D01*
X340106Y43107D01*
X347590Y44336D02*
X347590Y49251D01*
X347590Y44336D02*
X350048Y41879D01*
X352505Y44336D01*
X352505Y49251D01*
X358760Y49251D02*
X358760Y41879D01*
X355074Y45565D02*
X358760Y49251D01*
X359989Y45565D02*
X355074Y45565D01*
M02*
