G04 EAGLE Gerber RS-274X export*
G75*
%MOMM*%
%FSLAX34Y34*%
%LPD*%
%INSolderpaste Top*%
%IPPOS*%
%AMOC8*
5,1,8,0,0,1.08239X$1,22.5*%
G01*
%ADD10R,1.000000X1.100000*%
%ADD11R,1.400000X1.800000*%
%ADD12R,0.800000X0.800000*%
%ADD13R,2.080000X5.500000*%
%ADD14R,1.100000X1.000000*%
%ADD15R,1.473200X0.508000*%
%ADD16R,0.508000X1.473200*%
%ADD17R,1.500000X1.500000*%
%ADD18R,0.400000X1.350000*%


D10*
X376238Y256050D03*
X376238Y239050D03*
X376238Y269213D03*
X376238Y286213D03*
X500063Y260813D03*
X500063Y243813D03*
X376238Y300963D03*
X376238Y317963D03*
D11*
X604375Y452338D03*
X570375Y452338D03*
X621175Y452338D03*
X655175Y452338D03*
D12*
X732275Y514250D03*
X747275Y514250D03*
X702113Y514250D03*
X717113Y514250D03*
D13*
X341313Y214338D03*
X341313Y309338D03*
D14*
X388938Y162850D03*
X388938Y179850D03*
D10*
X637150Y431700D03*
X620150Y431700D03*
D14*
X747713Y481938D03*
X747713Y498938D03*
X717550Y481938D03*
X717550Y498938D03*
D10*
X588400Y411063D03*
X605400Y411063D03*
X588400Y431700D03*
X605400Y431700D03*
D15*
X397002Y324703D03*
X397002Y316829D03*
X397002Y308701D03*
X397002Y300827D03*
X397002Y292699D03*
X397002Y284825D03*
X397002Y276697D03*
X397002Y268823D03*
D16*
X410210Y255615D03*
X418084Y255615D03*
X426212Y255615D03*
X434086Y255615D03*
X442214Y255615D03*
X450088Y255615D03*
X458216Y255615D03*
X466090Y255615D03*
D15*
X479298Y268823D03*
X479298Y276697D03*
X479298Y284825D03*
X479298Y292699D03*
X479298Y300827D03*
X479298Y308701D03*
X479298Y316829D03*
X479298Y324703D03*
D16*
X466090Y337911D03*
X458216Y337911D03*
X450088Y337911D03*
X442214Y337911D03*
X434086Y337911D03*
X426212Y337911D03*
X418084Y337911D03*
X410210Y337911D03*
D17*
X619600Y514250D03*
X599600Y514250D03*
D18*
X609600Y487250D03*
X616100Y487250D03*
X596600Y487250D03*
X603100Y487250D03*
X622600Y487250D03*
D12*
X671950Y514250D03*
X686950Y514250D03*
D14*
X687388Y498938D03*
X687388Y481938D03*
M02*
