G04 EAGLE Gerber RS-274X export*
G75*
%MOMM*%
%FSLAX34Y34*%
%LPD*%
%INSoldermask Top*%
%IPPOS*%
%AMOC8*
5,1,8,0,0,1.08239X$1,22.5*%
G01*
%ADD10R,1.203200X1.303200*%
%ADD11R,1.603200X2.003200*%
%ADD12R,1.003200X1.003200*%
%ADD13R,2.283200X5.703200*%
%ADD14R,1.303200X1.203200*%
%ADD15C,1.727200*%
%ADD16P,1.869504X8X202.500000*%
%ADD17R,1.676400X0.711200*%
%ADD18R,0.711200X1.676400*%
%ADD19R,0.500000X1.450000*%
%ADD20R,1.703200X1.703200*%
%ADD21C,1.561200*%
%ADD22R,1.928200X1.928200*%
%ADD23C,1.727200*%
%ADD24C,1.059600*%
%ADD25C,1.159600*%
%ADD26C,0.959600*%


D10*
X376238Y256050D03*
X376238Y239050D03*
X376238Y269213D03*
X376238Y286213D03*
X500063Y260813D03*
X500063Y243813D03*
X376238Y300963D03*
X376238Y317963D03*
D11*
X604375Y452338D03*
X570375Y452338D03*
X621175Y452338D03*
X655175Y452338D03*
D12*
X732275Y514250D03*
X747275Y514250D03*
X702113Y514250D03*
X717113Y514250D03*
D13*
X341313Y214338D03*
X341313Y309338D03*
D14*
X388938Y162850D03*
X388938Y179850D03*
D10*
X637150Y431700D03*
X620150Y431700D03*
D14*
X747713Y481938D03*
X747713Y498938D03*
X717550Y481938D03*
X717550Y498938D03*
D10*
X588400Y411063D03*
X605400Y411063D03*
X588400Y431700D03*
X605400Y431700D03*
D15*
X463550Y157063D03*
D16*
X438150Y157063D03*
X412750Y157063D03*
X463550Y182463D03*
X438150Y182463D03*
X412750Y182463D03*
D17*
X397002Y324703D03*
X397002Y316829D03*
X397002Y308701D03*
X397002Y300827D03*
X397002Y292699D03*
X397002Y284825D03*
X397002Y276697D03*
X397002Y268823D03*
D18*
X410210Y255615D03*
X418084Y255615D03*
X426212Y255615D03*
X434086Y255615D03*
X442214Y255615D03*
X450088Y255615D03*
X458216Y255615D03*
X466090Y255615D03*
D17*
X479298Y268823D03*
X479298Y276697D03*
X479298Y284825D03*
X479298Y292699D03*
X479298Y300827D03*
X479298Y308701D03*
X479298Y316829D03*
X479298Y324703D03*
D18*
X466090Y337911D03*
X458216Y337911D03*
X450088Y337911D03*
X442214Y337911D03*
X434086Y337911D03*
X426212Y337911D03*
X418084Y337911D03*
X410210Y337911D03*
D19*
X622600Y487250D03*
X616100Y487250D03*
X609600Y487250D03*
X603100Y487250D03*
X596600Y487250D03*
D20*
X619600Y514250D03*
X599600Y514250D03*
D21*
X634600Y487250D02*
X648180Y487250D01*
X584600Y487250D02*
X571020Y487250D01*
D22*
X647850Y514250D03*
X571350Y514250D03*
D12*
X671950Y514250D03*
X686950Y514250D03*
D14*
X687388Y498938D03*
X687388Y481938D03*
D23*
X501650Y487580D02*
X501650Y502820D01*
X476250Y502820D02*
X476250Y487580D01*
X450850Y487580D02*
X450850Y502820D01*
X425450Y502820D02*
X425450Y487580D01*
X400050Y487580D02*
X400050Y502820D01*
X374650Y502820D02*
X374650Y487580D01*
X374650Y53245D02*
X374650Y38005D01*
X400050Y38005D02*
X400050Y53245D01*
X425450Y53245D02*
X425450Y38005D01*
X450850Y38005D02*
X450850Y53245D01*
X476250Y53245D02*
X476250Y38005D01*
X501650Y38005D02*
X501650Y53245D01*
D24*
X636588Y465038D03*
D25*
X496888Y276125D03*
X396875Y204688D03*
D26*
X411480Y292889D03*
X522288Y301525D03*
D24*
X434975Y318988D03*
X406400Y358675D03*
D26*
X477838Y358675D03*
X442913Y269775D03*
X434975Y242788D03*
X477838Y344388D03*
X425450Y233263D03*
X409575Y233263D03*
X396875Y233263D03*
X415925Y317400D03*
X395288Y338038D03*
X506413Y293588D03*
X506413Y309463D03*
X515938Y285650D03*
X446088Y233263D03*
M02*
