M48
;GenerationSoftware,Autodesk,EAGLE,9.6.2*%
;CreationDate,2020-08-28T09:22:42Z*%
FMAT,2
ICI,OFF
METRIC,TZ,000.000
T6C0.350
T5C0.450
T4C0.550
T3C0.850
T2C1.016
T1C1.150
%
G90
M71
T1
X57135Y51425
X64785Y51425
T2
X46355Y15706
X50165Y4563
X47625Y4563
X45085Y4563
X42545Y4563
X37465Y4563
X40005Y4563
X37465Y49520
X40005Y49520
X42545Y49520
X45085Y49520
X47625Y49520
X50165Y49520
X41275Y18246
X43815Y15706
X43815Y18246
X46355Y18246
X41275Y15706
T3
X58460Y48725
X63460Y48725
T4
X39688Y20469
X49689Y27612
T5
X63659Y46504
X43498Y31899
X40640Y35868
T6
X51594Y28565
X50641Y30946
X39529Y33804
X50641Y29359
X44609Y23326
X41593Y31740
X39688Y23326
X40958Y23326
X42545Y23326
X47784Y34439
X43498Y24279
X44291Y26977
X47784Y35868
X52229Y30152
X41148Y29289
M30