G04 EAGLE Gerber RS-274X export*
G75*
%MOMM*%
%FSLAX34Y34*%
%LPD*%
%INBottom Copper*%
%IPPOS*%
%AMOC8*
5,1,8,0,0,1.08239X$1,22.5*%
G01*
%ADD10C,2.540000*%
%ADD11C,1.308000*%
%ADD12C,1.524000*%
%ADD13C,0.304800*%
%ADD14C,0.756400*%

G36*
X838218Y10545D02*
X838218Y10545D01*
X838250Y10543D01*
X840090Y10664D01*
X840113Y10669D01*
X840237Y10688D01*
X843792Y11641D01*
X843806Y11647D01*
X843822Y11649D01*
X843975Y11717D01*
X847162Y13557D01*
X847175Y13567D01*
X847189Y13573D01*
X847320Y13678D01*
X849922Y16280D01*
X849931Y16293D01*
X849944Y16303D01*
X850043Y16438D01*
X851883Y19625D01*
X851889Y19639D01*
X851898Y19652D01*
X851959Y19808D01*
X852912Y23363D01*
X852914Y23387D01*
X852936Y23510D01*
X853057Y25350D01*
X853055Y25369D01*
X853058Y25400D01*
X853058Y469900D01*
X853055Y469918D01*
X853057Y469950D01*
X852936Y471790D01*
X852931Y471813D01*
X852912Y471937D01*
X851959Y475492D01*
X851953Y475506D01*
X851951Y475522D01*
X851883Y475675D01*
X850043Y478862D01*
X850033Y478875D01*
X850027Y478889D01*
X849922Y479020D01*
X847320Y481622D01*
X847307Y481631D01*
X847297Y481644D01*
X847162Y481743D01*
X843975Y483583D01*
X843961Y483589D01*
X843948Y483598D01*
X843792Y483659D01*
X840237Y484612D01*
X840213Y484614D01*
X840090Y484636D01*
X838250Y484757D01*
X838231Y484755D01*
X838200Y484758D01*
X25400Y484758D01*
X25382Y484755D01*
X25350Y484757D01*
X23510Y484636D01*
X23487Y484631D01*
X23363Y484612D01*
X19808Y483659D01*
X19794Y483653D01*
X19778Y483651D01*
X19625Y483583D01*
X16438Y481743D01*
X16425Y481733D01*
X16411Y481727D01*
X16280Y481622D01*
X13678Y479020D01*
X13669Y479007D01*
X13656Y478997D01*
X13557Y478862D01*
X11717Y475675D01*
X11711Y475661D01*
X11702Y475648D01*
X11641Y475492D01*
X10688Y471937D01*
X10686Y471914D01*
X10664Y471790D01*
X10543Y469950D01*
X10545Y469931D01*
X10542Y469900D01*
X10542Y25400D01*
X10545Y25382D01*
X10543Y25350D01*
X10664Y23510D01*
X10669Y23487D01*
X10688Y23363D01*
X11641Y19808D01*
X11647Y19794D01*
X11649Y19778D01*
X11717Y19625D01*
X13557Y16438D01*
X13567Y16425D01*
X13573Y16411D01*
X13678Y16280D01*
X16280Y13678D01*
X16293Y13669D01*
X16303Y13656D01*
X16438Y13557D01*
X19625Y11717D01*
X19639Y11711D01*
X19652Y11702D01*
X19808Y11641D01*
X23363Y10688D01*
X23387Y10686D01*
X23510Y10664D01*
X25350Y10543D01*
X25369Y10545D01*
X25400Y10542D01*
X838200Y10542D01*
X838218Y10545D01*
G37*
%LPC*%
G36*
X214081Y21335D02*
X214081Y21335D01*
X210720Y22727D01*
X208147Y25300D01*
X206755Y28661D01*
X206755Y47539D01*
X208147Y50900D01*
X210720Y53473D01*
X214081Y54865D01*
X217719Y54865D01*
X219283Y54217D01*
X219327Y54206D01*
X219369Y54187D01*
X219446Y54179D01*
X219522Y54161D01*
X219568Y54165D01*
X219613Y54160D01*
X219690Y54177D01*
X219767Y54184D01*
X219809Y54203D01*
X219854Y54212D01*
X219921Y54252D01*
X219992Y54284D01*
X220026Y54315D01*
X220065Y54339D01*
X220116Y54398D01*
X220173Y54450D01*
X220195Y54491D01*
X220225Y54525D01*
X220254Y54598D01*
X220291Y54666D01*
X220300Y54711D01*
X220317Y54754D01*
X220332Y54889D01*
X220335Y54908D01*
X220334Y54913D01*
X220335Y54920D01*
X220335Y165532D01*
X220321Y165622D01*
X220313Y165713D01*
X220301Y165743D01*
X220296Y165775D01*
X220253Y165856D01*
X220217Y165940D01*
X220191Y165972D01*
X220180Y165992D01*
X220157Y166015D01*
X220112Y166071D01*
X204871Y181312D01*
X204797Y181365D01*
X204727Y181425D01*
X204697Y181437D01*
X204671Y181456D01*
X204584Y181483D01*
X204499Y181517D01*
X204458Y181521D01*
X204436Y181528D01*
X204404Y181527D01*
X204332Y181535D01*
X159749Y181535D01*
X159701Y181528D01*
X159653Y181529D01*
X159581Y181508D01*
X159506Y181496D01*
X159464Y181473D01*
X159418Y181459D01*
X159355Y181416D01*
X159289Y181380D01*
X159256Y181346D01*
X159216Y181318D01*
X159171Y181257D01*
X159119Y181202D01*
X159099Y181159D01*
X159071Y181120D01*
X159048Y181048D01*
X159016Y180979D01*
X159010Y180931D01*
X158996Y180886D01*
X158997Y180810D01*
X158989Y180735D01*
X158999Y180688D01*
X158999Y180640D01*
X159025Y180568D01*
X159041Y180494D01*
X159065Y180453D01*
X159081Y180408D01*
X159128Y180348D01*
X159167Y180283D01*
X159203Y180252D01*
X159233Y180214D01*
X159337Y180138D01*
X159354Y180123D01*
X159360Y180121D01*
X159368Y180115D01*
X164876Y176935D01*
X170585Y171226D01*
X174621Y164235D01*
X176711Y156437D01*
X176711Y156369D01*
X176726Y156273D01*
X176736Y156176D01*
X176746Y156152D01*
X176750Y156127D01*
X176796Y156041D01*
X176836Y155952D01*
X176853Y155932D01*
X176866Y155909D01*
X176936Y155842D01*
X177002Y155771D01*
X177025Y155758D01*
X177044Y155740D01*
X177132Y155699D01*
X177218Y155652D01*
X177243Y155647D01*
X177267Y155636D01*
X177364Y155626D01*
X177460Y155608D01*
X177486Y155612D01*
X177511Y155609D01*
X177607Y155630D01*
X177703Y155644D01*
X177726Y155656D01*
X177752Y155661D01*
X177835Y155711D01*
X177922Y155756D01*
X177941Y155774D01*
X177963Y155788D01*
X178026Y155862D01*
X178094Y155931D01*
X178110Y155960D01*
X178123Y155975D01*
X178135Y156005D01*
X178175Y156078D01*
X181030Y162970D01*
X186280Y168220D01*
X193138Y171061D01*
X200562Y171061D01*
X207420Y168220D01*
X212670Y162970D01*
X215511Y156112D01*
X215511Y148688D01*
X212670Y141830D01*
X207420Y136580D01*
X200562Y133739D01*
X193138Y133739D01*
X186280Y136580D01*
X181030Y141830D01*
X178175Y148722D01*
X178124Y148805D01*
X178078Y148891D01*
X178059Y148909D01*
X178046Y148931D01*
X177971Y148993D01*
X177900Y149060D01*
X177876Y149071D01*
X177856Y149088D01*
X177765Y149123D01*
X177677Y149164D01*
X177651Y149167D01*
X177627Y149176D01*
X177529Y149180D01*
X177433Y149191D01*
X177407Y149185D01*
X177381Y149186D01*
X177287Y149159D01*
X177192Y149139D01*
X177170Y149125D01*
X177145Y149118D01*
X177065Y149062D01*
X176981Y149012D01*
X176964Y148993D01*
X176943Y148978D01*
X176884Y148899D01*
X176821Y148825D01*
X176811Y148801D01*
X176796Y148780D01*
X176766Y148688D01*
X176729Y148597D01*
X176726Y148565D01*
X176720Y148546D01*
X176720Y148513D01*
X176711Y148431D01*
X176711Y148363D01*
X174621Y140565D01*
X170585Y133574D01*
X164876Y127865D01*
X157885Y123829D01*
X150087Y121739D01*
X142013Y121739D01*
X134215Y123829D01*
X127224Y127865D01*
X121515Y133574D01*
X117479Y140565D01*
X115389Y148363D01*
X115389Y148431D01*
X115374Y148527D01*
X115364Y148624D01*
X115354Y148648D01*
X115350Y148673D01*
X115304Y148759D01*
X115264Y148848D01*
X115247Y148868D01*
X115234Y148891D01*
X115164Y148958D01*
X115098Y149029D01*
X115075Y149042D01*
X115056Y149060D01*
X114968Y149101D01*
X114882Y149148D01*
X114857Y149153D01*
X114833Y149164D01*
X114736Y149174D01*
X114640Y149192D01*
X114614Y149188D01*
X114589Y149191D01*
X114493Y149170D01*
X114397Y149156D01*
X114374Y149144D01*
X114348Y149139D01*
X114265Y149089D01*
X114178Y149044D01*
X114159Y149026D01*
X114137Y149012D01*
X114074Y148938D01*
X114006Y148869D01*
X113990Y148840D01*
X113977Y148825D01*
X113965Y148795D01*
X113925Y148722D01*
X111070Y141830D01*
X105820Y136580D01*
X98962Y133739D01*
X91538Y133739D01*
X84680Y136580D01*
X79414Y141845D01*
X79356Y141887D01*
X79304Y141937D01*
X79257Y141959D01*
X79215Y141989D01*
X79146Y142010D01*
X79081Y142040D01*
X79029Y142046D01*
X78979Y142061D01*
X78908Y142060D01*
X78837Y142067D01*
X78786Y142056D01*
X78734Y142055D01*
X78666Y142030D01*
X78596Y142015D01*
X78551Y141988D01*
X78503Y141971D01*
X78447Y141926D01*
X78385Y141889D01*
X78351Y141849D01*
X78311Y141817D01*
X78272Y141757D01*
X78225Y141702D01*
X78206Y141654D01*
X78178Y141610D01*
X78160Y141540D01*
X78133Y141474D01*
X78125Y141403D01*
X78117Y141371D01*
X78119Y141348D01*
X78115Y141307D01*
X78115Y122587D01*
X78129Y122497D01*
X78137Y122406D01*
X78149Y122376D01*
X78154Y122344D01*
X78197Y122263D01*
X78233Y122179D01*
X78259Y122147D01*
X78270Y122127D01*
X78293Y122104D01*
X78338Y122048D01*
X79125Y121261D01*
X79125Y116864D01*
X76017Y113756D01*
X71621Y113756D01*
X68512Y116864D01*
X68512Y121261D01*
X71794Y124543D01*
X71847Y124617D01*
X71907Y124686D01*
X71919Y124716D01*
X71938Y124743D01*
X71965Y124830D01*
X71999Y124914D01*
X72003Y124955D01*
X72010Y124978D01*
X72009Y125010D01*
X72017Y125081D01*
X72017Y168450D01*
X174110Y270542D01*
X399266Y270542D01*
X399356Y270557D01*
X399447Y270564D01*
X399476Y270577D01*
X399508Y270582D01*
X399589Y270625D01*
X399673Y270661D01*
X399705Y270686D01*
X399726Y270697D01*
X399748Y270721D01*
X399804Y270765D01*
X411487Y282449D01*
X452113Y282449D01*
X464590Y269972D01*
X464664Y269919D01*
X464733Y269859D01*
X464763Y269847D01*
X464790Y269828D01*
X464877Y269801D01*
X464961Y269767D01*
X465002Y269763D01*
X465025Y269756D01*
X465057Y269757D01*
X465128Y269749D01*
X744547Y269749D01*
X744637Y269763D01*
X744728Y269771D01*
X744758Y269783D01*
X744790Y269788D01*
X744870Y269831D01*
X744954Y269867D01*
X744986Y269893D01*
X745007Y269904D01*
X745029Y269927D01*
X745085Y269972D01*
X786510Y311396D01*
X786563Y311470D01*
X786622Y311540D01*
X786634Y311570D01*
X786653Y311596D01*
X786680Y311683D01*
X786714Y311768D01*
X786719Y311809D01*
X786725Y311831D01*
X786725Y311863D01*
X786733Y311934D01*
X786733Y334689D01*
X786717Y334786D01*
X786708Y334882D01*
X786697Y334906D01*
X786693Y334932D01*
X786647Y335018D01*
X786608Y335107D01*
X786590Y335126D01*
X786578Y335150D01*
X786507Y335217D01*
X786441Y335288D01*
X786418Y335301D01*
X786399Y335319D01*
X786311Y335360D01*
X786226Y335407D01*
X786200Y335412D01*
X786176Y335423D01*
X786080Y335433D01*
X785984Y335451D01*
X785958Y335447D01*
X785932Y335450D01*
X785837Y335429D01*
X785740Y335415D01*
X785717Y335403D01*
X785691Y335397D01*
X785608Y335347D01*
X785521Y335303D01*
X785503Y335285D01*
X785480Y335271D01*
X785417Y335197D01*
X785349Y335128D01*
X785333Y335099D01*
X785320Y335084D01*
X785308Y335054D01*
X785268Y334981D01*
X784170Y332330D01*
X778920Y327080D01*
X772062Y324239D01*
X769395Y324239D01*
X769349Y324232D01*
X769303Y324234D01*
X769228Y324212D01*
X769152Y324200D01*
X769111Y324178D01*
X769067Y324165D01*
X769003Y324121D01*
X768934Y324084D01*
X768903Y324051D01*
X768865Y324025D01*
X768819Y323963D01*
X768765Y323906D01*
X768746Y323864D01*
X768718Y323828D01*
X768694Y323754D01*
X768661Y323683D01*
X768656Y323637D01*
X768642Y323594D01*
X768643Y323516D01*
X768634Y323439D01*
X768644Y323394D01*
X768644Y323348D01*
X768683Y323216D01*
X768687Y323198D01*
X768689Y323194D01*
X768691Y323187D01*
X769875Y320329D01*
X769875Y314671D01*
X767709Y309442D01*
X763708Y305441D01*
X758479Y303275D01*
X752821Y303275D01*
X747592Y305441D01*
X743591Y309442D01*
X743054Y310739D01*
X743030Y310778D01*
X743014Y310821D01*
X742965Y310881D01*
X742924Y310948D01*
X742889Y310977D01*
X742860Y311013D01*
X742795Y311055D01*
X742735Y311105D01*
X742692Y311121D01*
X742653Y311146D01*
X742578Y311165D01*
X742505Y311193D01*
X742459Y311195D01*
X742415Y311206D01*
X742337Y311200D01*
X742259Y311203D01*
X742215Y311190D01*
X742170Y311187D01*
X742098Y311156D01*
X742023Y311135D01*
X741985Y311108D01*
X741943Y311090D01*
X741837Y311005D01*
X741821Y310994D01*
X741818Y310990D01*
X741812Y310986D01*
X740503Y309676D01*
X738494Y307667D01*
X698339Y307667D01*
X698272Y307656D01*
X698204Y307655D01*
X698151Y307637D01*
X698096Y307628D01*
X698036Y307596D01*
X697972Y307573D01*
X697928Y307539D01*
X697879Y307512D01*
X697832Y307463D01*
X697779Y307421D01*
X697748Y307375D01*
X697709Y307334D01*
X697681Y307273D01*
X697644Y307216D01*
X697629Y307162D01*
X697606Y307111D01*
X697598Y307044D01*
X697581Y306978D01*
X697585Y306922D01*
X697579Y306867D01*
X697593Y306800D01*
X697598Y306733D01*
X697619Y306681D01*
X697631Y306626D01*
X697666Y306568D01*
X697692Y306505D01*
X697728Y306463D01*
X697757Y306415D01*
X697809Y306371D01*
X697853Y306320D01*
X697919Y306277D01*
X697944Y306255D01*
X697964Y306247D01*
X697993Y306228D01*
X700138Y305135D01*
X702079Y303725D01*
X703775Y302029D01*
X705185Y300088D01*
X706274Y297950D01*
X707015Y295669D01*
X707339Y293623D01*
X692912Y293623D01*
X692892Y293620D01*
X692873Y293622D01*
X692771Y293600D01*
X692669Y293583D01*
X692652Y293574D01*
X692632Y293570D01*
X692543Y293517D01*
X692452Y293468D01*
X692438Y293454D01*
X692421Y293444D01*
X692354Y293365D01*
X692283Y293290D01*
X692274Y293272D01*
X692261Y293257D01*
X692223Y293161D01*
X692179Y293067D01*
X692177Y293047D01*
X692169Y293029D01*
X692151Y292862D01*
X692151Y292099D01*
X692149Y292099D01*
X692149Y292862D01*
X692146Y292882D01*
X692148Y292901D01*
X692126Y293003D01*
X692109Y293105D01*
X692100Y293122D01*
X692096Y293142D01*
X692043Y293231D01*
X691994Y293322D01*
X691980Y293336D01*
X691970Y293353D01*
X691891Y293420D01*
X691816Y293491D01*
X691798Y293500D01*
X691783Y293513D01*
X691687Y293552D01*
X691593Y293595D01*
X691573Y293597D01*
X691555Y293605D01*
X691388Y293623D01*
X676961Y293623D01*
X677285Y295669D01*
X678026Y297950D01*
X679115Y300088D01*
X680525Y302029D01*
X682221Y303725D01*
X684162Y305135D01*
X686307Y306228D01*
X686361Y306268D01*
X686421Y306300D01*
X686460Y306340D01*
X686505Y306373D01*
X686544Y306429D01*
X686591Y306478D01*
X686614Y306529D01*
X686646Y306575D01*
X686666Y306639D01*
X686694Y306701D01*
X686700Y306757D01*
X686716Y306810D01*
X686714Y306878D01*
X686721Y306945D01*
X686709Y307000D01*
X686707Y307056D01*
X686683Y307120D01*
X686669Y307186D01*
X686640Y307234D01*
X686621Y307286D01*
X686578Y307339D01*
X686543Y307397D01*
X686500Y307433D01*
X686465Y307477D01*
X686407Y307513D01*
X686356Y307557D01*
X686304Y307578D01*
X686257Y307608D01*
X686191Y307623D01*
X686128Y307649D01*
X686049Y307657D01*
X686017Y307665D01*
X685997Y307663D01*
X685961Y307667D01*
X656427Y307667D01*
X631951Y332143D01*
X631951Y440436D01*
X631932Y440551D01*
X631915Y440667D01*
X631913Y440673D01*
X631912Y440679D01*
X631857Y440781D01*
X631804Y440886D01*
X631799Y440891D01*
X631796Y440896D01*
X631712Y440976D01*
X631628Y441058D01*
X631622Y441062D01*
X631618Y441065D01*
X631601Y441073D01*
X631481Y441139D01*
X629820Y441827D01*
X627247Y444400D01*
X625855Y447761D01*
X625855Y466639D01*
X627247Y470000D01*
X629820Y472573D01*
X633181Y473965D01*
X636819Y473965D01*
X640180Y472573D01*
X642753Y470000D01*
X644145Y466639D01*
X644145Y447761D01*
X642753Y444400D01*
X640180Y441827D01*
X638519Y441139D01*
X638419Y441078D01*
X638319Y441018D01*
X638315Y441013D01*
X638310Y441010D01*
X638235Y440920D01*
X638159Y440831D01*
X638157Y440825D01*
X638153Y440820D01*
X638111Y440712D01*
X638067Y440603D01*
X638066Y440595D01*
X638065Y440591D01*
X638064Y440572D01*
X638049Y440436D01*
X638049Y334984D01*
X638063Y334894D01*
X638071Y334803D01*
X638083Y334773D01*
X638088Y334741D01*
X638131Y334660D01*
X638167Y334576D01*
X638193Y334544D01*
X638204Y334524D01*
X638227Y334501D01*
X638272Y334445D01*
X658729Y313988D01*
X658803Y313935D01*
X658873Y313875D01*
X658903Y313863D01*
X658929Y313844D01*
X659016Y313817D01*
X659101Y313783D01*
X659142Y313779D01*
X659164Y313772D01*
X659196Y313773D01*
X659268Y313765D01*
X703851Y313765D01*
X703899Y313772D01*
X703947Y313771D01*
X704019Y313792D01*
X704094Y313804D01*
X704136Y313827D01*
X704182Y313841D01*
X704245Y313884D01*
X704311Y313920D01*
X704344Y313954D01*
X704384Y313982D01*
X704429Y314043D01*
X704481Y314098D01*
X704501Y314141D01*
X704529Y314180D01*
X704552Y314252D01*
X704584Y314321D01*
X704590Y314369D01*
X704604Y314414D01*
X704603Y314490D01*
X704612Y314565D01*
X704601Y314612D01*
X704601Y314660D01*
X704575Y314732D01*
X704559Y314806D01*
X704535Y314847D01*
X704519Y314892D01*
X704472Y314952D01*
X704433Y315017D01*
X704397Y315048D01*
X704367Y315086D01*
X704263Y315162D01*
X704246Y315177D01*
X704240Y315179D01*
X704232Y315185D01*
X698724Y318365D01*
X693015Y324074D01*
X688979Y331065D01*
X686889Y338863D01*
X686889Y338931D01*
X686874Y339027D01*
X686864Y339124D01*
X686854Y339148D01*
X686850Y339173D01*
X686804Y339259D01*
X686764Y339348D01*
X686747Y339368D01*
X686734Y339391D01*
X686664Y339458D01*
X686598Y339530D01*
X686575Y339542D01*
X686556Y339560D01*
X686468Y339601D01*
X686382Y339648D01*
X686357Y339653D01*
X686333Y339664D01*
X686236Y339674D01*
X686140Y339692D01*
X686114Y339688D01*
X686089Y339691D01*
X685993Y339670D01*
X685897Y339656D01*
X685874Y339644D01*
X685848Y339639D01*
X685765Y339589D01*
X685678Y339545D01*
X685659Y339526D01*
X685637Y339512D01*
X685574Y339439D01*
X685506Y339369D01*
X685490Y339340D01*
X685477Y339326D01*
X685465Y339295D01*
X685425Y339222D01*
X682570Y332330D01*
X677320Y327080D01*
X670462Y324239D01*
X663038Y324239D01*
X656180Y327080D01*
X650930Y332330D01*
X648089Y339188D01*
X648089Y346612D01*
X650930Y353470D01*
X656180Y358720D01*
X663038Y361561D01*
X670462Y361561D01*
X677320Y358720D01*
X682570Y353470D01*
X685425Y346578D01*
X685476Y346495D01*
X685522Y346409D01*
X685541Y346391D01*
X685554Y346369D01*
X685629Y346307D01*
X685700Y346240D01*
X685724Y346229D01*
X685744Y346212D01*
X685835Y346177D01*
X685923Y346136D01*
X685949Y346133D01*
X685973Y346124D01*
X686071Y346120D01*
X686167Y346109D01*
X686193Y346115D01*
X686219Y346114D01*
X686313Y346141D01*
X686408Y346161D01*
X686430Y346175D01*
X686455Y346182D01*
X686535Y346238D01*
X686619Y346288D01*
X686636Y346307D01*
X686657Y346322D01*
X686716Y346401D01*
X686779Y346474D01*
X686789Y346499D01*
X686804Y346520D01*
X686834Y346612D01*
X686871Y346703D01*
X686874Y346735D01*
X686880Y346754D01*
X686880Y346787D01*
X686889Y346869D01*
X686889Y346937D01*
X688979Y354735D01*
X693015Y361726D01*
X698724Y367435D01*
X705715Y371471D01*
X713513Y373561D01*
X721587Y373561D01*
X729385Y371471D01*
X736376Y367435D01*
X742085Y361726D01*
X746121Y354735D01*
X748211Y346937D01*
X748211Y346869D01*
X748226Y346773D01*
X748236Y346676D01*
X748246Y346652D01*
X748250Y346627D01*
X748296Y346541D01*
X748336Y346452D01*
X748353Y346432D01*
X748366Y346409D01*
X748436Y346342D01*
X748502Y346270D01*
X748525Y346258D01*
X748544Y346240D01*
X748632Y346199D01*
X748718Y346152D01*
X748743Y346147D01*
X748767Y346136D01*
X748864Y346126D01*
X748960Y346108D01*
X748986Y346112D01*
X749011Y346109D01*
X749107Y346130D01*
X749203Y346144D01*
X749226Y346156D01*
X749252Y346161D01*
X749335Y346211D01*
X749422Y346255D01*
X749441Y346274D01*
X749463Y346288D01*
X749526Y346361D01*
X749594Y346431D01*
X749610Y346460D01*
X749623Y346474D01*
X749635Y346505D01*
X749675Y346578D01*
X752530Y353470D01*
X757780Y358720D01*
X764638Y361561D01*
X772062Y361561D01*
X778920Y358720D01*
X784170Y353470D01*
X785268Y350819D01*
X785319Y350736D01*
X785365Y350650D01*
X785384Y350632D01*
X785398Y350610D01*
X785473Y350548D01*
X785543Y350481D01*
X785567Y350470D01*
X785587Y350453D01*
X785678Y350418D01*
X785766Y350377D01*
X785792Y350375D01*
X785817Y350365D01*
X785914Y350361D01*
X786011Y350350D01*
X786036Y350356D01*
X786062Y350355D01*
X786156Y350382D01*
X786251Y350403D01*
X786274Y350416D01*
X786299Y350423D01*
X786379Y350479D01*
X786462Y350529D01*
X786479Y350549D01*
X786501Y350564D01*
X786559Y350642D01*
X786622Y350716D01*
X786632Y350740D01*
X786647Y350761D01*
X786678Y350853D01*
X786714Y350944D01*
X786718Y350976D01*
X786724Y350995D01*
X786723Y351028D01*
X786733Y351111D01*
X786733Y370672D01*
X786718Y370762D01*
X786711Y370853D01*
X786698Y370883D01*
X786693Y370915D01*
X786650Y370996D01*
X786614Y371080D01*
X786589Y371112D01*
X786578Y371132D01*
X786554Y371155D01*
X786510Y371211D01*
X784475Y373246D01*
X784475Y377642D01*
X787583Y380750D01*
X791979Y380750D01*
X795088Y377642D01*
X795088Y373246D01*
X793053Y371211D01*
X793000Y371137D01*
X792940Y371067D01*
X792928Y371037D01*
X792909Y371011D01*
X792883Y370924D01*
X792848Y370839D01*
X792844Y370798D01*
X792837Y370776D01*
X792838Y370744D01*
X792830Y370672D01*
X792830Y309093D01*
X747388Y263651D01*
X462287Y263651D01*
X449810Y276128D01*
X449736Y276181D01*
X449667Y276241D01*
X449637Y276253D01*
X449610Y276272D01*
X449523Y276299D01*
X449439Y276333D01*
X449398Y276337D01*
X449375Y276344D01*
X449343Y276343D01*
X449272Y276351D01*
X414328Y276351D01*
X414238Y276337D01*
X414147Y276329D01*
X414117Y276317D01*
X414085Y276312D01*
X414005Y276269D01*
X413921Y276233D01*
X413889Y276207D01*
X413868Y276196D01*
X413846Y276173D01*
X413790Y276128D01*
X402107Y264445D01*
X176951Y264445D01*
X176861Y264430D01*
X176770Y264423D01*
X176740Y264411D01*
X176708Y264405D01*
X176627Y264363D01*
X176544Y264327D01*
X176511Y264301D01*
X176491Y264290D01*
X176469Y264267D01*
X176413Y264222D01*
X105515Y193324D01*
X105473Y193266D01*
X105424Y193214D01*
X105402Y193167D01*
X105371Y193125D01*
X105350Y193056D01*
X105320Y192991D01*
X105314Y192939D01*
X105299Y192889D01*
X105301Y192818D01*
X105293Y192747D01*
X105304Y192696D01*
X105305Y192644D01*
X105330Y192576D01*
X105345Y192506D01*
X105372Y192461D01*
X105390Y192413D01*
X105435Y192357D01*
X105471Y192295D01*
X105511Y192261D01*
X105543Y192221D01*
X105604Y192182D01*
X105658Y192135D01*
X105707Y192116D01*
X105750Y192088D01*
X105820Y192070D01*
X105886Y192043D01*
X105958Y192035D01*
X105989Y192027D01*
X106012Y192029D01*
X106053Y192025D01*
X110779Y192025D01*
X116008Y189859D01*
X118011Y187856D01*
X118085Y187803D01*
X118155Y187743D01*
X118185Y187731D01*
X118211Y187712D01*
X118298Y187685D01*
X118383Y187651D01*
X118424Y187647D01*
X118446Y187640D01*
X118478Y187641D01*
X118549Y187633D01*
X165261Y187633D01*
X165328Y187644D01*
X165396Y187645D01*
X165449Y187663D01*
X165504Y187672D01*
X165564Y187704D01*
X165628Y187727D01*
X165672Y187761D01*
X165721Y187788D01*
X165768Y187837D01*
X165821Y187879D01*
X165852Y187925D01*
X165891Y187966D01*
X165919Y188027D01*
X165956Y188084D01*
X165971Y188138D01*
X165994Y188189D01*
X166002Y188256D01*
X166019Y188322D01*
X166015Y188378D01*
X166021Y188433D01*
X166007Y188500D01*
X166002Y188567D01*
X165981Y188619D01*
X165969Y188674D01*
X165934Y188732D01*
X165908Y188795D01*
X165872Y188837D01*
X165843Y188885D01*
X165791Y188929D01*
X165747Y188980D01*
X165681Y189023D01*
X165656Y189045D01*
X165636Y189053D01*
X165607Y189072D01*
X163462Y190165D01*
X161521Y191575D01*
X159825Y193271D01*
X158415Y195212D01*
X157326Y197350D01*
X156585Y199631D01*
X156261Y201677D01*
X170688Y201677D01*
X170708Y201680D01*
X170727Y201678D01*
X170829Y201700D01*
X170931Y201717D01*
X170948Y201726D01*
X170968Y201730D01*
X171057Y201783D01*
X171148Y201832D01*
X171162Y201846D01*
X171179Y201856D01*
X171246Y201935D01*
X171317Y202010D01*
X171326Y202028D01*
X171339Y202043D01*
X171377Y202139D01*
X171421Y202233D01*
X171423Y202253D01*
X171431Y202271D01*
X171449Y202438D01*
X171449Y203201D01*
X171451Y203201D01*
X171451Y202438D01*
X171454Y202418D01*
X171452Y202399D01*
X171474Y202297D01*
X171491Y202195D01*
X171500Y202178D01*
X171504Y202158D01*
X171557Y202069D01*
X171606Y201978D01*
X171620Y201964D01*
X171630Y201947D01*
X171709Y201880D01*
X171784Y201809D01*
X171802Y201800D01*
X171817Y201787D01*
X171913Y201748D01*
X172007Y201705D01*
X172027Y201703D01*
X172045Y201695D01*
X172212Y201677D01*
X186639Y201677D01*
X186315Y199631D01*
X185574Y197350D01*
X184485Y195212D01*
X183075Y193271D01*
X181379Y191575D01*
X179438Y190165D01*
X177293Y189072D01*
X177239Y189032D01*
X177179Y189000D01*
X177140Y188960D01*
X177095Y188927D01*
X177056Y188871D01*
X177009Y188822D01*
X176986Y188771D01*
X176954Y188725D01*
X176934Y188661D01*
X176906Y188599D01*
X176900Y188543D01*
X176884Y188490D01*
X176886Y188422D01*
X176879Y188355D01*
X176891Y188300D01*
X176893Y188244D01*
X176917Y188180D01*
X176931Y188114D01*
X176960Y188066D01*
X176979Y188014D01*
X177022Y187961D01*
X177057Y187903D01*
X177100Y187867D01*
X177135Y187823D01*
X177193Y187787D01*
X177244Y187743D01*
X177296Y187722D01*
X177343Y187692D01*
X177409Y187677D01*
X177472Y187651D01*
X177551Y187643D01*
X177583Y187635D01*
X177603Y187637D01*
X177639Y187633D01*
X207173Y187633D01*
X226433Y168373D01*
X226433Y44321D01*
X225268Y43156D01*
X225215Y43082D01*
X225155Y43013D01*
X225143Y42983D01*
X225124Y42956D01*
X225097Y42869D01*
X225063Y42785D01*
X225059Y42744D01*
X225052Y42721D01*
X225053Y42689D01*
X225045Y42618D01*
X225045Y28661D01*
X223653Y25300D01*
X221080Y22727D01*
X217719Y21335D01*
X214081Y21335D01*
G37*
%LPD*%
%LPC*%
G36*
X311149Y292099D02*
X311149Y292099D01*
X311149Y292862D01*
X311146Y292882D01*
X311148Y292901D01*
X311126Y293003D01*
X311109Y293105D01*
X311100Y293122D01*
X311096Y293142D01*
X311043Y293231D01*
X310994Y293322D01*
X310980Y293336D01*
X310970Y293353D01*
X310891Y293420D01*
X310816Y293491D01*
X310798Y293500D01*
X310783Y293513D01*
X310687Y293552D01*
X310593Y293595D01*
X310573Y293597D01*
X310555Y293605D01*
X310388Y293623D01*
X295961Y293623D01*
X296285Y295669D01*
X297026Y297950D01*
X298115Y300088D01*
X299525Y302029D01*
X301221Y303725D01*
X303162Y305135D01*
X305307Y306228D01*
X305361Y306268D01*
X305421Y306300D01*
X305460Y306340D01*
X305505Y306373D01*
X305544Y306429D01*
X305591Y306478D01*
X305614Y306529D01*
X305646Y306575D01*
X305666Y306639D01*
X305694Y306701D01*
X305700Y306757D01*
X305716Y306810D01*
X305714Y306878D01*
X305721Y306945D01*
X305709Y307000D01*
X305707Y307056D01*
X305683Y307120D01*
X305669Y307186D01*
X305640Y307234D01*
X305621Y307286D01*
X305578Y307339D01*
X305543Y307397D01*
X305500Y307433D01*
X305465Y307477D01*
X305407Y307513D01*
X305356Y307557D01*
X305304Y307578D01*
X305257Y307608D01*
X305191Y307623D01*
X305128Y307649D01*
X305049Y307657D01*
X305017Y307665D01*
X304997Y307663D01*
X304961Y307667D01*
X265871Y307667D01*
X250951Y322587D01*
X250951Y360038D01*
X263428Y372515D01*
X263481Y372589D01*
X263541Y372658D01*
X263553Y372688D01*
X263572Y372715D01*
X263599Y372802D01*
X263633Y372886D01*
X263637Y372927D01*
X263644Y372950D01*
X263643Y372982D01*
X263651Y373053D01*
X263651Y440436D01*
X263632Y440551D01*
X263615Y440667D01*
X263613Y440673D01*
X263612Y440679D01*
X263557Y440781D01*
X263504Y440886D01*
X263499Y440891D01*
X263496Y440896D01*
X263412Y440976D01*
X263328Y441058D01*
X263322Y441062D01*
X263318Y441065D01*
X263301Y441073D01*
X263181Y441139D01*
X261520Y441827D01*
X258947Y444400D01*
X257555Y447761D01*
X257555Y466639D01*
X258947Y470000D01*
X261520Y472573D01*
X264881Y473965D01*
X268519Y473965D01*
X271880Y472573D01*
X274453Y470000D01*
X275845Y466639D01*
X275845Y447761D01*
X274453Y444400D01*
X271880Y441827D01*
X270219Y441139D01*
X270119Y441078D01*
X270019Y441018D01*
X270015Y441013D01*
X270010Y441010D01*
X269935Y440920D01*
X269859Y440831D01*
X269857Y440825D01*
X269853Y440820D01*
X269811Y440712D01*
X269767Y440603D01*
X269766Y440595D01*
X269765Y440591D01*
X269764Y440572D01*
X269749Y440436D01*
X269749Y370212D01*
X257272Y357735D01*
X257219Y357661D01*
X257159Y357592D01*
X257147Y357562D01*
X257128Y357535D01*
X257101Y357448D01*
X257067Y357364D01*
X257063Y357323D01*
X257056Y357300D01*
X257057Y357268D01*
X257049Y357197D01*
X257049Y325428D01*
X257063Y325338D01*
X257071Y325247D01*
X257083Y325217D01*
X257088Y325185D01*
X257131Y325105D01*
X257167Y325021D01*
X257193Y324989D01*
X257204Y324968D01*
X257227Y324946D01*
X257272Y324890D01*
X268174Y313988D01*
X268248Y313935D01*
X268317Y313875D01*
X268347Y313863D01*
X268374Y313844D01*
X268461Y313817D01*
X268545Y313783D01*
X268586Y313779D01*
X268609Y313772D01*
X268641Y313773D01*
X268712Y313765D01*
X322851Y313765D01*
X322899Y313772D01*
X322947Y313771D01*
X323019Y313792D01*
X323094Y313804D01*
X323136Y313827D01*
X323182Y313841D01*
X323245Y313884D01*
X323311Y313920D01*
X323344Y313954D01*
X323384Y313982D01*
X323429Y314043D01*
X323481Y314098D01*
X323501Y314141D01*
X323529Y314180D01*
X323552Y314252D01*
X323584Y314321D01*
X323590Y314369D01*
X323604Y314414D01*
X323603Y314490D01*
X323611Y314565D01*
X323601Y314612D01*
X323601Y314660D01*
X323575Y314732D01*
X323559Y314806D01*
X323535Y314847D01*
X323519Y314892D01*
X323472Y314952D01*
X323433Y315017D01*
X323397Y315048D01*
X323367Y315086D01*
X323263Y315162D01*
X323246Y315177D01*
X323240Y315179D01*
X323232Y315185D01*
X317724Y318365D01*
X312015Y324074D01*
X307979Y331065D01*
X305889Y338863D01*
X305889Y338931D01*
X305874Y339027D01*
X305864Y339124D01*
X305854Y339148D01*
X305850Y339173D01*
X305804Y339259D01*
X305764Y339348D01*
X305747Y339368D01*
X305734Y339391D01*
X305664Y339458D01*
X305598Y339529D01*
X305575Y339542D01*
X305556Y339560D01*
X305468Y339601D01*
X305382Y339648D01*
X305357Y339653D01*
X305333Y339664D01*
X305236Y339674D01*
X305140Y339692D01*
X305114Y339688D01*
X305089Y339691D01*
X304993Y339670D01*
X304897Y339656D01*
X304874Y339644D01*
X304848Y339639D01*
X304765Y339589D01*
X304678Y339544D01*
X304659Y339526D01*
X304637Y339512D01*
X304574Y339438D01*
X304506Y339369D01*
X304490Y339340D01*
X304477Y339325D01*
X304465Y339295D01*
X304425Y339222D01*
X301570Y332330D01*
X296320Y327080D01*
X289462Y324239D01*
X282038Y324239D01*
X275180Y327080D01*
X269930Y332330D01*
X267089Y339188D01*
X267089Y346612D01*
X269930Y353470D01*
X275180Y358720D01*
X282038Y361561D01*
X289462Y361561D01*
X296320Y358720D01*
X301570Y353470D01*
X304425Y346578D01*
X304476Y346495D01*
X304522Y346409D01*
X304541Y346391D01*
X304554Y346369D01*
X304629Y346307D01*
X304700Y346240D01*
X304724Y346229D01*
X304744Y346212D01*
X304835Y346177D01*
X304923Y346136D01*
X304949Y346133D01*
X304973Y346124D01*
X305071Y346120D01*
X305167Y346109D01*
X305193Y346115D01*
X305219Y346114D01*
X305313Y346141D01*
X305408Y346161D01*
X305430Y346175D01*
X305455Y346182D01*
X305535Y346238D01*
X305619Y346288D01*
X305636Y346307D01*
X305657Y346322D01*
X305716Y346401D01*
X305779Y346475D01*
X305789Y346499D01*
X305804Y346520D01*
X305834Y346612D01*
X305871Y346703D01*
X305874Y346735D01*
X305880Y346754D01*
X305880Y346787D01*
X305889Y346869D01*
X305889Y346937D01*
X307979Y354735D01*
X312015Y361726D01*
X317724Y367435D01*
X324715Y371471D01*
X332513Y373561D01*
X340587Y373561D01*
X348385Y371471D01*
X355376Y367435D01*
X361085Y361726D01*
X365121Y354735D01*
X367211Y346937D01*
X367211Y346869D01*
X367226Y346773D01*
X367236Y346676D01*
X367246Y346652D01*
X367250Y346627D01*
X367296Y346541D01*
X367336Y346452D01*
X367353Y346432D01*
X367366Y346409D01*
X367436Y346342D01*
X367502Y346271D01*
X367525Y346258D01*
X367544Y346240D01*
X367632Y346199D01*
X367718Y346152D01*
X367743Y346147D01*
X367767Y346136D01*
X367864Y346126D01*
X367960Y346108D01*
X367986Y346112D01*
X368011Y346109D01*
X368107Y346130D01*
X368203Y346144D01*
X368226Y346156D01*
X368252Y346161D01*
X368335Y346211D01*
X368422Y346256D01*
X368441Y346274D01*
X368463Y346288D01*
X368526Y346362D01*
X368594Y346431D01*
X368610Y346460D01*
X368623Y346475D01*
X368635Y346505D01*
X368675Y346578D01*
X371530Y353470D01*
X376780Y358720D01*
X383638Y361561D01*
X391062Y361561D01*
X397920Y358720D01*
X403170Y353470D01*
X406011Y346612D01*
X406011Y339188D01*
X403170Y332330D01*
X397920Y327080D01*
X391062Y324239D01*
X388395Y324239D01*
X388349Y324232D01*
X388303Y324234D01*
X388228Y324212D01*
X388152Y324200D01*
X388111Y324178D01*
X388067Y324165D01*
X388003Y324121D01*
X387934Y324084D01*
X387903Y324051D01*
X387865Y324025D01*
X387819Y323963D01*
X387765Y323906D01*
X387746Y323864D01*
X387718Y323828D01*
X387694Y323754D01*
X387661Y323683D01*
X387656Y323637D01*
X387642Y323594D01*
X387643Y323516D01*
X387634Y323439D01*
X387644Y323394D01*
X387644Y323348D01*
X387683Y323216D01*
X387687Y323198D01*
X387689Y323194D01*
X387691Y323187D01*
X388875Y320329D01*
X388875Y314671D01*
X386709Y309442D01*
X382708Y305441D01*
X377479Y303275D01*
X371821Y303275D01*
X366592Y305441D01*
X364589Y307444D01*
X364515Y307497D01*
X364445Y307557D01*
X364415Y307569D01*
X364389Y307588D01*
X364302Y307615D01*
X364217Y307649D01*
X364176Y307653D01*
X364154Y307660D01*
X364122Y307659D01*
X364051Y307667D01*
X317339Y307667D01*
X317272Y307656D01*
X317204Y307655D01*
X317151Y307637D01*
X317096Y307628D01*
X317036Y307596D01*
X316972Y307573D01*
X316928Y307539D01*
X316879Y307512D01*
X316832Y307463D01*
X316779Y307421D01*
X316748Y307375D01*
X316709Y307334D01*
X316681Y307273D01*
X316644Y307216D01*
X316629Y307162D01*
X316606Y307111D01*
X316598Y307044D01*
X316581Y306978D01*
X316585Y306922D01*
X316579Y306867D01*
X316593Y306800D01*
X316598Y306733D01*
X316619Y306681D01*
X316631Y306626D01*
X316666Y306568D01*
X316692Y306505D01*
X316728Y306463D01*
X316757Y306415D01*
X316809Y306371D01*
X316853Y306320D01*
X316919Y306277D01*
X316944Y306255D01*
X316964Y306247D01*
X316993Y306228D01*
X319138Y305135D01*
X321079Y303725D01*
X322775Y302029D01*
X324185Y300088D01*
X325274Y297950D01*
X326015Y295669D01*
X326339Y293623D01*
X311912Y293623D01*
X311892Y293620D01*
X311873Y293622D01*
X311771Y293600D01*
X311669Y293583D01*
X311652Y293574D01*
X311632Y293570D01*
X311543Y293517D01*
X311452Y293468D01*
X311438Y293454D01*
X311421Y293444D01*
X311354Y293365D01*
X311283Y293290D01*
X311274Y293272D01*
X311261Y293257D01*
X311223Y293161D01*
X311179Y293067D01*
X311177Y293047D01*
X311169Y293029D01*
X311151Y292862D01*
X311151Y292099D01*
X311149Y292099D01*
G37*
%LPD*%
%LPC*%
G36*
X607781Y21335D02*
X607781Y21335D01*
X604420Y22727D01*
X601847Y25300D01*
X600455Y28661D01*
X600455Y47539D01*
X601847Y50900D01*
X604420Y53473D01*
X606081Y54161D01*
X606181Y54222D01*
X606281Y54282D01*
X606285Y54287D01*
X606290Y54290D01*
X606365Y54380D01*
X606441Y54469D01*
X606443Y54475D01*
X606447Y54480D01*
X606489Y54588D01*
X606533Y54697D01*
X606534Y54705D01*
X606535Y54709D01*
X606536Y54728D01*
X606551Y54864D01*
X606551Y166666D01*
X606537Y166756D01*
X606529Y166847D01*
X606517Y166877D01*
X606512Y166909D01*
X606469Y166990D01*
X606433Y167074D01*
X606407Y167106D01*
X606396Y167126D01*
X606373Y167149D01*
X606328Y167205D01*
X592221Y181312D01*
X592147Y181365D01*
X592077Y181425D01*
X592047Y181437D01*
X592021Y181456D01*
X591934Y181483D01*
X591849Y181517D01*
X591808Y181521D01*
X591786Y181528D01*
X591754Y181527D01*
X591682Y181535D01*
X540749Y181535D01*
X540701Y181528D01*
X540653Y181529D01*
X540581Y181508D01*
X540506Y181496D01*
X540464Y181473D01*
X540418Y181459D01*
X540355Y181416D01*
X540289Y181380D01*
X540256Y181346D01*
X540216Y181318D01*
X540171Y181257D01*
X540119Y181202D01*
X540099Y181159D01*
X540071Y181120D01*
X540048Y181048D01*
X540016Y180979D01*
X540010Y180931D01*
X539996Y180886D01*
X539997Y180810D01*
X539988Y180735D01*
X539999Y180688D01*
X539999Y180640D01*
X540025Y180568D01*
X540041Y180494D01*
X540065Y180453D01*
X540081Y180408D01*
X540128Y180348D01*
X540167Y180283D01*
X540203Y180252D01*
X540233Y180214D01*
X540337Y180138D01*
X540354Y180123D01*
X540360Y180121D01*
X540368Y180115D01*
X545876Y176935D01*
X551585Y171226D01*
X555621Y164235D01*
X557711Y156437D01*
X557711Y156369D01*
X557726Y156273D01*
X557736Y156176D01*
X557746Y156152D01*
X557750Y156127D01*
X557796Y156041D01*
X557836Y155952D01*
X557853Y155932D01*
X557866Y155909D01*
X557936Y155842D01*
X558002Y155771D01*
X558025Y155758D01*
X558044Y155740D01*
X558132Y155699D01*
X558218Y155652D01*
X558243Y155647D01*
X558267Y155636D01*
X558364Y155626D01*
X558460Y155608D01*
X558486Y155612D01*
X558511Y155609D01*
X558607Y155630D01*
X558703Y155644D01*
X558726Y155656D01*
X558752Y155661D01*
X558835Y155711D01*
X558922Y155756D01*
X558941Y155774D01*
X558963Y155788D01*
X559026Y155862D01*
X559094Y155931D01*
X559110Y155960D01*
X559123Y155975D01*
X559135Y156005D01*
X559175Y156078D01*
X562030Y162970D01*
X567280Y168220D01*
X574138Y171061D01*
X581562Y171061D01*
X588420Y168220D01*
X593670Y162970D01*
X596511Y156112D01*
X596511Y148688D01*
X593670Y141830D01*
X588420Y136580D01*
X581562Y133739D01*
X574138Y133739D01*
X567280Y136580D01*
X562030Y141830D01*
X559175Y148722D01*
X559124Y148805D01*
X559078Y148891D01*
X559059Y148909D01*
X559046Y148931D01*
X558971Y148993D01*
X558900Y149060D01*
X558876Y149071D01*
X558856Y149088D01*
X558765Y149123D01*
X558677Y149164D01*
X558651Y149167D01*
X558627Y149176D01*
X558529Y149180D01*
X558433Y149191D01*
X558407Y149185D01*
X558381Y149186D01*
X558287Y149159D01*
X558192Y149139D01*
X558170Y149125D01*
X558145Y149118D01*
X558065Y149062D01*
X557981Y149012D01*
X557964Y148993D01*
X557943Y148978D01*
X557884Y148899D01*
X557821Y148825D01*
X557811Y148801D01*
X557796Y148780D01*
X557766Y148688D01*
X557729Y148597D01*
X557726Y148565D01*
X557720Y148546D01*
X557720Y148513D01*
X557711Y148431D01*
X557711Y148363D01*
X555621Y140565D01*
X551585Y133574D01*
X545876Y127865D01*
X538885Y123829D01*
X531087Y121739D01*
X523013Y121739D01*
X515215Y123829D01*
X508224Y127865D01*
X502515Y133574D01*
X498479Y140565D01*
X496389Y148363D01*
X496389Y148431D01*
X496374Y148527D01*
X496364Y148624D01*
X496354Y148648D01*
X496350Y148673D01*
X496304Y148759D01*
X496264Y148848D01*
X496247Y148868D01*
X496234Y148891D01*
X496164Y148958D01*
X496098Y149029D01*
X496075Y149042D01*
X496056Y149060D01*
X495968Y149101D01*
X495882Y149148D01*
X495857Y149153D01*
X495833Y149164D01*
X495736Y149174D01*
X495640Y149192D01*
X495614Y149188D01*
X495589Y149191D01*
X495493Y149170D01*
X495397Y149156D01*
X495374Y149144D01*
X495348Y149139D01*
X495265Y149089D01*
X495178Y149044D01*
X495159Y149026D01*
X495137Y149012D01*
X495074Y148938D01*
X495006Y148869D01*
X494990Y148840D01*
X494977Y148825D01*
X494965Y148795D01*
X494925Y148722D01*
X492070Y141830D01*
X486820Y136580D01*
X479962Y133739D01*
X472538Y133739D01*
X465680Y136580D01*
X460430Y141830D01*
X457589Y148688D01*
X457589Y156112D01*
X460430Y162970D01*
X465680Y168220D01*
X472538Y171061D01*
X475205Y171061D01*
X475251Y171068D01*
X475297Y171066D01*
X475372Y171088D01*
X475448Y171100D01*
X475489Y171122D01*
X475533Y171135D01*
X475597Y171179D01*
X475666Y171216D01*
X475697Y171249D01*
X475735Y171275D01*
X475781Y171337D01*
X475835Y171394D01*
X475854Y171436D01*
X475882Y171472D01*
X475906Y171546D01*
X475939Y171617D01*
X475944Y171663D01*
X475958Y171706D01*
X475957Y171784D01*
X475966Y171861D01*
X475956Y171906D01*
X475956Y171952D01*
X475917Y172084D01*
X475913Y172102D01*
X475911Y172106D01*
X475909Y172113D01*
X474725Y174971D01*
X474725Y180629D01*
X476891Y185858D01*
X480892Y189859D01*
X486121Y192025D01*
X491779Y192025D01*
X497008Y189859D01*
X499011Y187856D01*
X499085Y187803D01*
X499155Y187743D01*
X499185Y187731D01*
X499211Y187712D01*
X499298Y187685D01*
X499383Y187651D01*
X499424Y187647D01*
X499446Y187640D01*
X499478Y187641D01*
X499549Y187633D01*
X546261Y187633D01*
X546328Y187644D01*
X546396Y187645D01*
X546449Y187663D01*
X546504Y187672D01*
X546564Y187704D01*
X546628Y187727D01*
X546672Y187761D01*
X546721Y187788D01*
X546768Y187837D01*
X546821Y187879D01*
X546852Y187925D01*
X546891Y187966D01*
X546919Y188027D01*
X546956Y188084D01*
X546971Y188138D01*
X546994Y188189D01*
X547002Y188256D01*
X547019Y188322D01*
X547015Y188378D01*
X547021Y188433D01*
X547007Y188500D01*
X547002Y188567D01*
X546981Y188619D01*
X546969Y188674D01*
X546934Y188732D01*
X546908Y188795D01*
X546872Y188837D01*
X546843Y188885D01*
X546791Y188929D01*
X546747Y188980D01*
X546681Y189023D01*
X546656Y189045D01*
X546636Y189053D01*
X546607Y189072D01*
X544462Y190165D01*
X542521Y191575D01*
X540825Y193271D01*
X539415Y195212D01*
X538326Y197350D01*
X537585Y199631D01*
X537261Y201677D01*
X551688Y201677D01*
X551708Y201680D01*
X551727Y201678D01*
X551829Y201700D01*
X551931Y201717D01*
X551948Y201726D01*
X551968Y201730D01*
X552057Y201783D01*
X552148Y201832D01*
X552162Y201846D01*
X552179Y201856D01*
X552246Y201935D01*
X552317Y202010D01*
X552326Y202028D01*
X552339Y202043D01*
X552377Y202139D01*
X552421Y202233D01*
X552423Y202253D01*
X552431Y202271D01*
X552449Y202438D01*
X552449Y203201D01*
X552451Y203201D01*
X552451Y202438D01*
X552454Y202418D01*
X552452Y202399D01*
X552474Y202297D01*
X552491Y202195D01*
X552500Y202178D01*
X552504Y202158D01*
X552557Y202069D01*
X552606Y201978D01*
X552620Y201964D01*
X552630Y201947D01*
X552709Y201880D01*
X552784Y201809D01*
X552802Y201800D01*
X552817Y201787D01*
X552913Y201748D01*
X553007Y201705D01*
X553027Y201703D01*
X553045Y201695D01*
X553212Y201677D01*
X567639Y201677D01*
X567315Y199631D01*
X566574Y197350D01*
X565485Y195212D01*
X564075Y193271D01*
X562379Y191575D01*
X560438Y190165D01*
X558293Y189072D01*
X558239Y189032D01*
X558179Y189000D01*
X558140Y188960D01*
X558095Y188927D01*
X558056Y188871D01*
X558009Y188822D01*
X557986Y188771D01*
X557954Y188725D01*
X557934Y188661D01*
X557906Y188599D01*
X557900Y188543D01*
X557884Y188490D01*
X557886Y188422D01*
X557879Y188355D01*
X557891Y188300D01*
X557893Y188244D01*
X557917Y188180D01*
X557931Y188114D01*
X557960Y188066D01*
X557979Y188014D01*
X558022Y187961D01*
X558057Y187903D01*
X558100Y187867D01*
X558135Y187823D01*
X558193Y187787D01*
X558244Y187743D01*
X558296Y187722D01*
X558343Y187692D01*
X558409Y187677D01*
X558472Y187651D01*
X558551Y187643D01*
X558583Y187635D01*
X558603Y187637D01*
X558639Y187633D01*
X594523Y187633D01*
X612649Y169507D01*
X612649Y54864D01*
X612668Y54749D01*
X612685Y54633D01*
X612687Y54627D01*
X612688Y54621D01*
X612743Y54519D01*
X612796Y54414D01*
X612801Y54409D01*
X612804Y54404D01*
X612888Y54324D01*
X612972Y54242D01*
X612978Y54238D01*
X612982Y54235D01*
X612999Y54227D01*
X613119Y54161D01*
X614780Y53473D01*
X617353Y50900D01*
X618745Y47539D01*
X618745Y28661D01*
X617353Y25300D01*
X614780Y22727D01*
X611419Y21335D01*
X607781Y21335D01*
G37*
%LPD*%
%LPC*%
G36*
X633181Y21335D02*
X633181Y21335D01*
X629820Y22727D01*
X627247Y25300D01*
X625855Y28661D01*
X625855Y47539D01*
X627247Y50900D01*
X629820Y53473D01*
X631481Y54161D01*
X631581Y54223D01*
X631681Y54282D01*
X631685Y54287D01*
X631690Y54290D01*
X631765Y54381D01*
X631841Y54469D01*
X631843Y54475D01*
X631847Y54480D01*
X631889Y54588D01*
X631933Y54697D01*
X631934Y54705D01*
X631935Y54709D01*
X631936Y54728D01*
X631951Y54864D01*
X631951Y175888D01*
X646437Y190374D01*
X671188Y190374D01*
X671252Y190310D01*
X671347Y190242D01*
X671441Y190172D01*
X671447Y190170D01*
X671452Y190166D01*
X671563Y190132D01*
X671674Y190096D01*
X671681Y190096D01*
X671687Y190094D01*
X671803Y190097D01*
X671920Y190098D01*
X671928Y190100D01*
X671933Y190100D01*
X671950Y190106D01*
X672082Y190145D01*
X676621Y192025D01*
X682279Y192025D01*
X687508Y189859D01*
X691509Y185858D01*
X693675Y180629D01*
X693675Y174971D01*
X692958Y173240D01*
X692936Y173145D01*
X692907Y173052D01*
X692908Y173026D01*
X692902Y173000D01*
X692911Y172904D01*
X692913Y172806D01*
X692922Y172782D01*
X692925Y172756D01*
X692964Y172667D01*
X692998Y172575D01*
X693014Y172555D01*
X693025Y172531D01*
X693091Y172459D01*
X693152Y172383D01*
X693174Y172369D01*
X693191Y172350D01*
X693277Y172303D01*
X693358Y172250D01*
X693384Y172244D01*
X693407Y172231D01*
X693503Y172214D01*
X693597Y172190D01*
X693623Y172192D01*
X693649Y172187D01*
X693745Y172202D01*
X693842Y172209D01*
X693866Y172219D01*
X693892Y172223D01*
X693979Y172267D01*
X694069Y172305D01*
X694094Y172326D01*
X694111Y172335D01*
X694135Y172358D01*
X694199Y172410D01*
X698724Y176935D01*
X705715Y180971D01*
X713513Y183061D01*
X721587Y183061D01*
X729385Y180971D01*
X736376Y176935D01*
X742085Y171226D01*
X746121Y164235D01*
X748211Y156437D01*
X748211Y156369D01*
X748226Y156273D01*
X748236Y156176D01*
X748246Y156152D01*
X748250Y156127D01*
X748296Y156041D01*
X748336Y155952D01*
X748353Y155932D01*
X748366Y155909D01*
X748436Y155842D01*
X748502Y155771D01*
X748525Y155758D01*
X748544Y155740D01*
X748632Y155699D01*
X748718Y155652D01*
X748743Y155647D01*
X748767Y155636D01*
X748864Y155626D01*
X748960Y155608D01*
X748986Y155612D01*
X749011Y155609D01*
X749107Y155630D01*
X749203Y155644D01*
X749226Y155656D01*
X749252Y155661D01*
X749335Y155711D01*
X749422Y155756D01*
X749441Y155774D01*
X749463Y155788D01*
X749526Y155862D01*
X749594Y155931D01*
X749610Y155960D01*
X749623Y155975D01*
X749635Y156005D01*
X749675Y156078D01*
X752530Y162970D01*
X757780Y168220D01*
X764638Y171061D01*
X772062Y171061D01*
X778920Y168220D01*
X784170Y162970D01*
X787011Y156112D01*
X787011Y148688D01*
X784170Y141830D01*
X778920Y136580D01*
X772062Y133739D01*
X764638Y133739D01*
X757780Y136580D01*
X752530Y141830D01*
X749675Y148722D01*
X749624Y148805D01*
X749578Y148891D01*
X749559Y148909D01*
X749546Y148931D01*
X749471Y148993D01*
X749400Y149060D01*
X749376Y149071D01*
X749356Y149088D01*
X749265Y149123D01*
X749177Y149164D01*
X749151Y149167D01*
X749127Y149176D01*
X749029Y149180D01*
X748933Y149191D01*
X748907Y149185D01*
X748881Y149186D01*
X748787Y149159D01*
X748692Y149139D01*
X748670Y149125D01*
X748645Y149118D01*
X748565Y149062D01*
X748481Y149012D01*
X748464Y148993D01*
X748443Y148978D01*
X748384Y148899D01*
X748321Y148825D01*
X748311Y148801D01*
X748296Y148780D01*
X748266Y148688D01*
X748229Y148597D01*
X748226Y148565D01*
X748220Y148546D01*
X748220Y148513D01*
X748211Y148431D01*
X748211Y148363D01*
X746121Y140565D01*
X742085Y133574D01*
X736376Y127865D01*
X729385Y123829D01*
X721587Y121739D01*
X713513Y121739D01*
X705715Y123829D01*
X698724Y127865D01*
X693015Y133574D01*
X688979Y140565D01*
X686889Y148363D01*
X686889Y148431D01*
X686874Y148527D01*
X686864Y148624D01*
X686854Y148648D01*
X686850Y148673D01*
X686804Y148759D01*
X686764Y148848D01*
X686747Y148868D01*
X686734Y148891D01*
X686664Y148958D01*
X686598Y149029D01*
X686575Y149042D01*
X686556Y149060D01*
X686468Y149101D01*
X686382Y149148D01*
X686357Y149153D01*
X686333Y149164D01*
X686236Y149174D01*
X686140Y149192D01*
X686114Y149188D01*
X686089Y149191D01*
X685993Y149170D01*
X685897Y149156D01*
X685874Y149144D01*
X685848Y149139D01*
X685765Y149089D01*
X685678Y149044D01*
X685659Y149026D01*
X685637Y149012D01*
X685574Y148938D01*
X685506Y148869D01*
X685490Y148840D01*
X685477Y148825D01*
X685465Y148795D01*
X685425Y148722D01*
X682570Y141830D01*
X677320Y136580D01*
X670462Y133739D01*
X663038Y133739D01*
X656180Y136580D01*
X650930Y141830D01*
X648089Y148688D01*
X648089Y156112D01*
X650930Y162970D01*
X656180Y168220D01*
X663038Y171061D01*
X665705Y171061D01*
X665751Y171068D01*
X665797Y171066D01*
X665871Y171088D01*
X665948Y171100D01*
X665989Y171122D01*
X666033Y171135D01*
X666097Y171179D01*
X666166Y171216D01*
X666197Y171249D01*
X666235Y171275D01*
X666281Y171338D01*
X666335Y171394D01*
X666354Y171436D01*
X666382Y171472D01*
X666406Y171546D01*
X666439Y171617D01*
X666444Y171663D01*
X666458Y171706D01*
X666457Y171784D01*
X666466Y171861D01*
X666456Y171906D01*
X666455Y171952D01*
X666417Y172084D01*
X666413Y172102D01*
X666411Y172106D01*
X666409Y172113D01*
X665225Y174971D01*
X665225Y180629D01*
X666300Y183224D01*
X666310Y183268D01*
X666330Y183310D01*
X666338Y183387D01*
X666356Y183463D01*
X666352Y183509D01*
X666357Y183554D01*
X666340Y183631D01*
X666333Y183708D01*
X666314Y183750D01*
X666304Y183795D01*
X666265Y183862D01*
X666233Y183933D01*
X666202Y183967D01*
X666178Y184006D01*
X666119Y184057D01*
X666066Y184114D01*
X666026Y184136D01*
X665991Y184166D01*
X665919Y184195D01*
X665851Y184232D01*
X665806Y184241D01*
X665763Y184258D01*
X665627Y184273D01*
X665609Y184276D01*
X665604Y184275D01*
X665597Y184276D01*
X649278Y184276D01*
X649188Y184262D01*
X649097Y184254D01*
X649067Y184242D01*
X649035Y184237D01*
X648955Y184194D01*
X648871Y184158D01*
X648839Y184132D01*
X648818Y184121D01*
X648796Y184098D01*
X648740Y184053D01*
X638272Y173585D01*
X638219Y173511D01*
X638159Y173442D01*
X638147Y173412D01*
X638128Y173385D01*
X638101Y173298D01*
X638067Y173214D01*
X638063Y173173D01*
X638056Y173150D01*
X638057Y173118D01*
X638049Y173047D01*
X638049Y54864D01*
X638068Y54749D01*
X638085Y54633D01*
X638087Y54627D01*
X638088Y54621D01*
X638143Y54519D01*
X638196Y54414D01*
X638201Y54409D01*
X638204Y54404D01*
X638288Y54324D01*
X638372Y54242D01*
X638378Y54238D01*
X638382Y54234D01*
X638399Y54227D01*
X638519Y54161D01*
X640180Y53473D01*
X642753Y50900D01*
X644145Y47539D01*
X644145Y28661D01*
X642753Y25300D01*
X640180Y22727D01*
X636819Y21335D01*
X633181Y21335D01*
G37*
%LPD*%
%LPC*%
G36*
X239481Y21335D02*
X239481Y21335D01*
X236120Y22727D01*
X233547Y25300D01*
X232155Y28661D01*
X232155Y47539D01*
X233547Y50900D01*
X236120Y53473D01*
X237781Y54161D01*
X237881Y54223D01*
X237981Y54282D01*
X237985Y54287D01*
X237990Y54290D01*
X238065Y54381D01*
X238141Y54469D01*
X238143Y54475D01*
X238147Y54480D01*
X238189Y54588D01*
X238233Y54697D01*
X238234Y54705D01*
X238235Y54709D01*
X238236Y54728D01*
X238251Y54864D01*
X238251Y153632D01*
X266602Y181983D01*
X284277Y181983D01*
X284392Y182002D01*
X284508Y182019D01*
X284514Y182021D01*
X284520Y182022D01*
X284623Y182077D01*
X284727Y182130D01*
X284732Y182135D01*
X284737Y182138D01*
X284817Y182222D01*
X284900Y182306D01*
X284903Y182312D01*
X284907Y182316D01*
X284914Y182333D01*
X284980Y182453D01*
X286391Y185858D01*
X290392Y189859D01*
X295621Y192025D01*
X301279Y192025D01*
X306508Y189859D01*
X310509Y185858D01*
X312675Y180629D01*
X312675Y174971D01*
X311958Y173240D01*
X311936Y173145D01*
X311907Y173052D01*
X311908Y173026D01*
X311902Y173000D01*
X311911Y172904D01*
X311913Y172806D01*
X311922Y172782D01*
X311925Y172756D01*
X311964Y172666D01*
X311998Y172575D01*
X312014Y172555D01*
X312025Y172531D01*
X312091Y172459D01*
X312152Y172383D01*
X312173Y172369D01*
X312191Y172350D01*
X312277Y172303D01*
X312358Y172250D01*
X312384Y172244D01*
X312407Y172231D01*
X312503Y172214D01*
X312597Y172190D01*
X312623Y172192D01*
X312649Y172187D01*
X312745Y172202D01*
X312842Y172209D01*
X312866Y172219D01*
X312892Y172223D01*
X312979Y172267D01*
X313068Y172305D01*
X313094Y172326D01*
X313111Y172335D01*
X313135Y172358D01*
X313199Y172410D01*
X317724Y176935D01*
X324715Y180971D01*
X332513Y183061D01*
X340587Y183061D01*
X348385Y180971D01*
X355376Y176935D01*
X361085Y171226D01*
X365121Y164235D01*
X367211Y156437D01*
X367211Y156369D01*
X367226Y156273D01*
X367236Y156176D01*
X367246Y156152D01*
X367250Y156127D01*
X367296Y156041D01*
X367336Y155952D01*
X367353Y155932D01*
X367366Y155909D01*
X367436Y155842D01*
X367502Y155771D01*
X367525Y155758D01*
X367544Y155740D01*
X367632Y155699D01*
X367718Y155652D01*
X367743Y155647D01*
X367767Y155636D01*
X367864Y155626D01*
X367960Y155608D01*
X367986Y155612D01*
X368011Y155609D01*
X368107Y155630D01*
X368203Y155644D01*
X368226Y155656D01*
X368252Y155661D01*
X368335Y155711D01*
X368422Y155756D01*
X368441Y155774D01*
X368463Y155788D01*
X368526Y155862D01*
X368594Y155931D01*
X368610Y155960D01*
X368623Y155975D01*
X368635Y156005D01*
X368675Y156078D01*
X371530Y162970D01*
X376780Y168220D01*
X383638Y171061D01*
X391062Y171061D01*
X397920Y168220D01*
X403170Y162970D01*
X406011Y156112D01*
X406011Y148688D01*
X403170Y141830D01*
X397920Y136580D01*
X391062Y133739D01*
X383638Y133739D01*
X376780Y136580D01*
X371530Y141830D01*
X368675Y148722D01*
X368624Y148805D01*
X368578Y148891D01*
X368559Y148909D01*
X368546Y148931D01*
X368471Y148993D01*
X368400Y149060D01*
X368376Y149071D01*
X368356Y149088D01*
X368265Y149123D01*
X368177Y149164D01*
X368151Y149167D01*
X368127Y149176D01*
X368029Y149180D01*
X367933Y149191D01*
X367907Y149185D01*
X367881Y149186D01*
X367787Y149159D01*
X367692Y149139D01*
X367670Y149125D01*
X367645Y149118D01*
X367565Y149062D01*
X367481Y149012D01*
X367464Y148993D01*
X367443Y148978D01*
X367384Y148899D01*
X367321Y148825D01*
X367311Y148801D01*
X367296Y148780D01*
X367266Y148688D01*
X367229Y148597D01*
X367226Y148565D01*
X367220Y148546D01*
X367220Y148513D01*
X367211Y148431D01*
X367211Y148363D01*
X365121Y140565D01*
X361085Y133574D01*
X355376Y127865D01*
X348385Y123829D01*
X340587Y121739D01*
X332513Y121739D01*
X324715Y123829D01*
X317724Y127865D01*
X312015Y133574D01*
X307979Y140565D01*
X305889Y148363D01*
X305889Y148431D01*
X305874Y148527D01*
X305864Y148624D01*
X305854Y148648D01*
X305850Y148673D01*
X305804Y148759D01*
X305764Y148848D01*
X305747Y148868D01*
X305734Y148891D01*
X305664Y148958D01*
X305598Y149029D01*
X305575Y149042D01*
X305556Y149060D01*
X305468Y149101D01*
X305382Y149148D01*
X305357Y149153D01*
X305333Y149164D01*
X305236Y149174D01*
X305140Y149192D01*
X305114Y149188D01*
X305089Y149191D01*
X304993Y149170D01*
X304897Y149156D01*
X304874Y149144D01*
X304848Y149139D01*
X304765Y149089D01*
X304678Y149044D01*
X304659Y149026D01*
X304637Y149012D01*
X304574Y148938D01*
X304506Y148869D01*
X304490Y148840D01*
X304477Y148825D01*
X304465Y148795D01*
X304425Y148722D01*
X301570Y141830D01*
X296320Y136580D01*
X289462Y133739D01*
X282038Y133739D01*
X275180Y136580D01*
X269930Y141830D01*
X267089Y148688D01*
X267089Y156112D01*
X269930Y162970D01*
X275180Y168220D01*
X282038Y171061D01*
X284705Y171061D01*
X284751Y171068D01*
X284797Y171066D01*
X284871Y171088D01*
X284948Y171100D01*
X284989Y171122D01*
X285033Y171135D01*
X285097Y171179D01*
X285166Y171216D01*
X285197Y171249D01*
X285235Y171275D01*
X285281Y171338D01*
X285335Y171394D01*
X285354Y171436D01*
X285382Y171472D01*
X285406Y171546D01*
X285439Y171617D01*
X285444Y171663D01*
X285458Y171706D01*
X285457Y171784D01*
X285466Y171861D01*
X285456Y171906D01*
X285455Y171952D01*
X285417Y172084D01*
X285413Y172102D01*
X285411Y172106D01*
X285409Y172113D01*
X284225Y174971D01*
X284225Y175124D01*
X284222Y175144D01*
X284224Y175163D01*
X284202Y175265D01*
X284186Y175367D01*
X284176Y175384D01*
X284172Y175404D01*
X284119Y175493D01*
X284070Y175584D01*
X284056Y175598D01*
X284046Y175615D01*
X283967Y175682D01*
X283892Y175754D01*
X283874Y175762D01*
X283859Y175775D01*
X283763Y175814D01*
X283669Y175857D01*
X283649Y175859D01*
X283631Y175867D01*
X283464Y175885D01*
X269443Y175885D01*
X269353Y175871D01*
X269262Y175863D01*
X269232Y175851D01*
X269200Y175846D01*
X269119Y175803D01*
X269035Y175767D01*
X269003Y175741D01*
X268983Y175730D01*
X268960Y175707D01*
X268904Y175662D01*
X244572Y151330D01*
X244519Y151256D01*
X244459Y151186D01*
X244447Y151156D01*
X244428Y151130D01*
X244401Y151043D01*
X244367Y150958D01*
X244363Y150917D01*
X244356Y150895D01*
X244357Y150863D01*
X244349Y150791D01*
X244349Y54864D01*
X244368Y54749D01*
X244385Y54633D01*
X244387Y54627D01*
X244388Y54621D01*
X244443Y54519D01*
X244496Y54414D01*
X244501Y54409D01*
X244504Y54404D01*
X244588Y54324D01*
X244672Y54242D01*
X244678Y54238D01*
X244682Y54234D01*
X244699Y54227D01*
X244819Y54161D01*
X246480Y53473D01*
X249053Y50900D01*
X250445Y47539D01*
X250445Y28661D01*
X249053Y25300D01*
X246480Y22727D01*
X243119Y21335D01*
X239481Y21335D01*
G37*
%LPD*%
%LPC*%
G36*
X181321Y303275D02*
X181321Y303275D01*
X176092Y305441D01*
X172091Y309442D01*
X169925Y314671D01*
X169925Y320329D01*
X170642Y322060D01*
X170664Y322155D01*
X170693Y322248D01*
X170692Y322274D01*
X170698Y322300D01*
X170689Y322396D01*
X170687Y322494D01*
X170678Y322518D01*
X170675Y322544D01*
X170636Y322634D01*
X170602Y322725D01*
X170586Y322745D01*
X170575Y322769D01*
X170509Y322841D01*
X170448Y322917D01*
X170427Y322931D01*
X170409Y322950D01*
X170323Y322997D01*
X170242Y323050D01*
X170216Y323056D01*
X170193Y323069D01*
X170097Y323086D01*
X170003Y323110D01*
X169977Y323108D01*
X169951Y323113D01*
X169855Y323098D01*
X169758Y323091D01*
X169734Y323081D01*
X169708Y323077D01*
X169621Y323033D01*
X169532Y322995D01*
X169506Y322974D01*
X169489Y322965D01*
X169465Y322942D01*
X169401Y322890D01*
X164876Y318365D01*
X157885Y314329D01*
X150087Y312239D01*
X142013Y312239D01*
X134215Y314329D01*
X127224Y318365D01*
X121515Y324074D01*
X117479Y331065D01*
X115389Y338863D01*
X115389Y338931D01*
X115374Y339027D01*
X115364Y339124D01*
X115354Y339148D01*
X115350Y339173D01*
X115304Y339259D01*
X115264Y339348D01*
X115247Y339368D01*
X115234Y339391D01*
X115164Y339458D01*
X115098Y339530D01*
X115075Y339542D01*
X115056Y339560D01*
X114968Y339601D01*
X114882Y339648D01*
X114857Y339653D01*
X114833Y339664D01*
X114736Y339674D01*
X114640Y339692D01*
X114614Y339688D01*
X114589Y339691D01*
X114493Y339670D01*
X114397Y339656D01*
X114374Y339644D01*
X114348Y339639D01*
X114265Y339589D01*
X114178Y339545D01*
X114159Y339526D01*
X114137Y339512D01*
X114074Y339439D01*
X114006Y339369D01*
X113990Y339340D01*
X113977Y339326D01*
X113965Y339295D01*
X113925Y339222D01*
X111070Y332330D01*
X105820Y327080D01*
X98962Y324239D01*
X91538Y324239D01*
X84680Y327080D01*
X79430Y332330D01*
X76589Y339188D01*
X76589Y346612D01*
X79430Y353470D01*
X84680Y358720D01*
X91538Y361561D01*
X98962Y361561D01*
X105820Y358720D01*
X111070Y353470D01*
X113925Y346578D01*
X113976Y346495D01*
X114022Y346409D01*
X114041Y346391D01*
X114054Y346369D01*
X114129Y346307D01*
X114200Y346240D01*
X114224Y346229D01*
X114244Y346212D01*
X114335Y346177D01*
X114423Y346136D01*
X114449Y346133D01*
X114473Y346124D01*
X114571Y346120D01*
X114667Y346109D01*
X114693Y346115D01*
X114719Y346114D01*
X114813Y346141D01*
X114908Y346161D01*
X114930Y346175D01*
X114955Y346182D01*
X115035Y346238D01*
X115119Y346288D01*
X115136Y346307D01*
X115157Y346322D01*
X115216Y346401D01*
X115279Y346474D01*
X115289Y346499D01*
X115304Y346520D01*
X115334Y346612D01*
X115371Y346703D01*
X115374Y346735D01*
X115380Y346754D01*
X115380Y346787D01*
X115389Y346869D01*
X115389Y346937D01*
X117479Y354735D01*
X121515Y361726D01*
X127224Y367435D01*
X134215Y371471D01*
X142013Y373561D01*
X150087Y373561D01*
X157885Y371471D01*
X164876Y367435D01*
X170585Y361726D01*
X174621Y354735D01*
X176711Y346937D01*
X176711Y346869D01*
X176726Y346773D01*
X176736Y346676D01*
X176746Y346652D01*
X176750Y346627D01*
X176796Y346541D01*
X176836Y346452D01*
X176853Y346432D01*
X176866Y346409D01*
X176936Y346342D01*
X177002Y346270D01*
X177025Y346258D01*
X177044Y346240D01*
X177132Y346199D01*
X177218Y346152D01*
X177243Y346147D01*
X177267Y346136D01*
X177364Y346126D01*
X177460Y346108D01*
X177486Y346112D01*
X177511Y346109D01*
X177607Y346130D01*
X177703Y346144D01*
X177726Y346156D01*
X177752Y346161D01*
X177835Y346211D01*
X177922Y346255D01*
X177941Y346274D01*
X177963Y346288D01*
X178026Y346361D01*
X178094Y346431D01*
X178110Y346460D01*
X178123Y346474D01*
X178135Y346505D01*
X178175Y346578D01*
X181030Y353470D01*
X186280Y358720D01*
X193138Y361561D01*
X200562Y361561D01*
X207420Y358720D01*
X212670Y353470D01*
X215511Y346612D01*
X215511Y339188D01*
X212670Y332330D01*
X207420Y327080D01*
X200562Y324239D01*
X197895Y324239D01*
X197849Y324232D01*
X197803Y324234D01*
X197729Y324212D01*
X197652Y324200D01*
X197611Y324178D01*
X197567Y324165D01*
X197503Y324121D01*
X197434Y324084D01*
X197403Y324051D01*
X197365Y324025D01*
X197319Y323962D01*
X197265Y323906D01*
X197246Y323864D01*
X197218Y323828D01*
X197194Y323754D01*
X197161Y323683D01*
X197156Y323637D01*
X197142Y323594D01*
X197143Y323516D01*
X197134Y323439D01*
X197144Y323394D01*
X197144Y323348D01*
X197183Y323216D01*
X197187Y323198D01*
X197189Y323194D01*
X197191Y323187D01*
X197901Y321472D01*
X197963Y321373D01*
X198023Y321273D01*
X198028Y321268D01*
X198031Y321263D01*
X198121Y321189D01*
X198210Y321113D01*
X198216Y321110D01*
X198221Y321106D01*
X198329Y321065D01*
X198438Y321021D01*
X198446Y321020D01*
X198450Y321018D01*
X198468Y321017D01*
X198605Y321002D01*
X214745Y321002D01*
X214835Y321017D01*
X214926Y321024D01*
X214956Y321037D01*
X214988Y321042D01*
X215068Y321085D01*
X215152Y321120D01*
X215184Y321146D01*
X215205Y321157D01*
X215227Y321180D01*
X215283Y321225D01*
X231678Y337620D01*
X231731Y337694D01*
X231791Y337764D01*
X231803Y337794D01*
X231822Y337820D01*
X231849Y337907D01*
X231883Y337992D01*
X231887Y338033D01*
X231894Y338055D01*
X231893Y338087D01*
X231901Y338159D01*
X231901Y452113D01*
X231932Y452144D01*
X231985Y452218D01*
X232045Y452287D01*
X232057Y452317D01*
X232076Y452344D01*
X232103Y452431D01*
X232137Y452515D01*
X232141Y452556D01*
X232148Y452579D01*
X232147Y452611D01*
X232155Y452682D01*
X232155Y466639D01*
X233547Y470000D01*
X236120Y472573D01*
X239481Y473965D01*
X243119Y473965D01*
X246480Y472573D01*
X249053Y470000D01*
X250445Y466639D01*
X250445Y447761D01*
X249053Y444400D01*
X246480Y441827D01*
X243119Y440435D01*
X239481Y440435D01*
X239051Y440613D01*
X239007Y440624D01*
X238965Y440643D01*
X238888Y440652D01*
X238812Y440669D01*
X238766Y440665D01*
X238721Y440670D01*
X238644Y440654D01*
X238567Y440646D01*
X238525Y440628D01*
X238480Y440618D01*
X238413Y440578D01*
X238342Y440546D01*
X238308Y440515D01*
X238269Y440492D01*
X238218Y440433D01*
X238161Y440380D01*
X238139Y440340D01*
X238109Y440305D01*
X238080Y440233D01*
X238043Y440164D01*
X238034Y440119D01*
X238017Y440077D01*
X238002Y439941D01*
X237999Y439922D01*
X238000Y439917D01*
X237999Y439910D01*
X237999Y335318D01*
X217586Y314905D01*
X198980Y314905D01*
X198866Y314886D01*
X198749Y314869D01*
X198744Y314866D01*
X198738Y314865D01*
X198635Y314811D01*
X198530Y314757D01*
X198526Y314753D01*
X198520Y314750D01*
X198440Y314666D01*
X198358Y314582D01*
X198354Y314575D01*
X198351Y314572D01*
X198343Y314555D01*
X198277Y314435D01*
X196209Y309442D01*
X192208Y305441D01*
X186979Y303275D01*
X181321Y303275D01*
G37*
%LPD*%
%LPC*%
G36*
X562321Y303275D02*
X562321Y303275D01*
X557092Y305441D01*
X553091Y309442D01*
X550925Y314671D01*
X550925Y320329D01*
X551642Y322060D01*
X551664Y322155D01*
X551693Y322248D01*
X551692Y322274D01*
X551698Y322300D01*
X551689Y322396D01*
X551687Y322494D01*
X551678Y322518D01*
X551675Y322544D01*
X551636Y322633D01*
X551602Y322725D01*
X551586Y322745D01*
X551575Y322769D01*
X551509Y322841D01*
X551448Y322917D01*
X551426Y322931D01*
X551409Y322950D01*
X551323Y322997D01*
X551242Y323050D01*
X551216Y323056D01*
X551193Y323069D01*
X551097Y323086D01*
X551003Y323110D01*
X550977Y323108D01*
X550951Y323113D01*
X550855Y323098D01*
X550758Y323091D01*
X550734Y323081D01*
X550708Y323077D01*
X550621Y323033D01*
X550531Y322995D01*
X550506Y322974D01*
X550489Y322965D01*
X550465Y322942D01*
X550401Y322890D01*
X545876Y318365D01*
X538885Y314329D01*
X531087Y312239D01*
X523013Y312239D01*
X515215Y314329D01*
X508224Y318365D01*
X502515Y324074D01*
X498479Y331065D01*
X496389Y338863D01*
X496389Y338931D01*
X496374Y339027D01*
X496364Y339124D01*
X496354Y339148D01*
X496350Y339173D01*
X496304Y339259D01*
X496264Y339348D01*
X496247Y339368D01*
X496234Y339391D01*
X496164Y339458D01*
X496098Y339529D01*
X496075Y339542D01*
X496056Y339560D01*
X495968Y339601D01*
X495882Y339648D01*
X495857Y339653D01*
X495833Y339664D01*
X495736Y339674D01*
X495640Y339692D01*
X495614Y339688D01*
X495589Y339691D01*
X495493Y339670D01*
X495397Y339656D01*
X495374Y339644D01*
X495348Y339639D01*
X495265Y339589D01*
X495178Y339544D01*
X495159Y339526D01*
X495137Y339512D01*
X495074Y339438D01*
X495006Y339369D01*
X494990Y339340D01*
X494977Y339325D01*
X494965Y339295D01*
X494925Y339222D01*
X492070Y332330D01*
X486820Y327080D01*
X479962Y324239D01*
X472538Y324239D01*
X465680Y327080D01*
X460430Y332330D01*
X457589Y339188D01*
X457589Y346612D01*
X460430Y353470D01*
X465680Y358720D01*
X472538Y361561D01*
X479962Y361561D01*
X486820Y358720D01*
X492070Y353470D01*
X494925Y346578D01*
X494976Y346495D01*
X495022Y346409D01*
X495041Y346391D01*
X495054Y346369D01*
X495129Y346307D01*
X495200Y346240D01*
X495224Y346229D01*
X495244Y346212D01*
X495335Y346177D01*
X495423Y346136D01*
X495449Y346133D01*
X495473Y346124D01*
X495571Y346120D01*
X495667Y346109D01*
X495693Y346115D01*
X495719Y346114D01*
X495813Y346141D01*
X495908Y346161D01*
X495930Y346175D01*
X495955Y346182D01*
X496035Y346238D01*
X496119Y346288D01*
X496136Y346307D01*
X496157Y346322D01*
X496216Y346401D01*
X496279Y346475D01*
X496289Y346499D01*
X496304Y346520D01*
X496334Y346612D01*
X496371Y346703D01*
X496374Y346735D01*
X496380Y346754D01*
X496380Y346787D01*
X496389Y346869D01*
X496389Y346937D01*
X498479Y354735D01*
X502515Y361726D01*
X508224Y367435D01*
X515215Y371471D01*
X523013Y373561D01*
X531087Y373561D01*
X538885Y371471D01*
X545876Y367435D01*
X551585Y361726D01*
X555621Y354735D01*
X557711Y346937D01*
X557711Y346869D01*
X557726Y346773D01*
X557736Y346676D01*
X557746Y346652D01*
X557750Y346627D01*
X557796Y346541D01*
X557836Y346452D01*
X557853Y346432D01*
X557866Y346409D01*
X557936Y346342D01*
X558002Y346271D01*
X558025Y346258D01*
X558044Y346240D01*
X558132Y346199D01*
X558218Y346152D01*
X558243Y346147D01*
X558267Y346136D01*
X558364Y346126D01*
X558460Y346108D01*
X558486Y346112D01*
X558511Y346109D01*
X558607Y346130D01*
X558703Y346144D01*
X558726Y346156D01*
X558752Y346161D01*
X558835Y346211D01*
X558922Y346256D01*
X558941Y346274D01*
X558963Y346288D01*
X559026Y346362D01*
X559094Y346431D01*
X559110Y346460D01*
X559123Y346475D01*
X559135Y346505D01*
X559175Y346578D01*
X562030Y353470D01*
X567280Y358720D01*
X574138Y361561D01*
X581562Y361561D01*
X588420Y358720D01*
X593670Y353470D01*
X596511Y346612D01*
X596511Y339188D01*
X593670Y332330D01*
X588420Y327080D01*
X581562Y324239D01*
X578895Y324239D01*
X578849Y324232D01*
X578803Y324234D01*
X578729Y324212D01*
X578652Y324200D01*
X578611Y324178D01*
X578567Y324165D01*
X578503Y324121D01*
X578434Y324084D01*
X578403Y324051D01*
X578365Y324025D01*
X578319Y323962D01*
X578265Y323906D01*
X578246Y323864D01*
X578218Y323828D01*
X578194Y323754D01*
X578161Y323683D01*
X578156Y323637D01*
X578142Y323594D01*
X578143Y323516D01*
X578134Y323439D01*
X578144Y323394D01*
X578145Y323348D01*
X578183Y323216D01*
X578187Y323198D01*
X578189Y323194D01*
X578191Y323187D01*
X578901Y321472D01*
X578963Y321373D01*
X579023Y321273D01*
X579028Y321268D01*
X579031Y321263D01*
X579121Y321189D01*
X579210Y321113D01*
X579216Y321110D01*
X579221Y321106D01*
X579329Y321065D01*
X579438Y321021D01*
X579446Y321020D01*
X579450Y321018D01*
X579468Y321017D01*
X579605Y321002D01*
X595745Y321002D01*
X595835Y321017D01*
X595926Y321024D01*
X595956Y321037D01*
X595988Y321042D01*
X596068Y321085D01*
X596152Y321120D01*
X596184Y321146D01*
X596205Y321157D01*
X596227Y321180D01*
X596283Y321225D01*
X606328Y331270D01*
X606373Y331333D01*
X606400Y331361D01*
X606405Y331372D01*
X606441Y331414D01*
X606453Y331444D01*
X606472Y331470D01*
X606499Y331557D01*
X606533Y331642D01*
X606537Y331683D01*
X606544Y331705D01*
X606543Y331737D01*
X606551Y331809D01*
X606551Y440436D01*
X606532Y440551D01*
X606515Y440667D01*
X606513Y440673D01*
X606512Y440679D01*
X606457Y440781D01*
X606404Y440886D01*
X606399Y440891D01*
X606396Y440896D01*
X606312Y440976D01*
X606228Y441058D01*
X606222Y441062D01*
X606218Y441065D01*
X606201Y441073D01*
X606081Y441139D01*
X604420Y441827D01*
X601847Y444400D01*
X600455Y447761D01*
X600455Y466639D01*
X601847Y470000D01*
X604420Y472573D01*
X607781Y473965D01*
X611419Y473965D01*
X614780Y472573D01*
X617353Y470000D01*
X618745Y466639D01*
X618745Y447761D01*
X617353Y444400D01*
X614780Y441827D01*
X613119Y441139D01*
X613019Y441078D01*
X612919Y441018D01*
X612915Y441013D01*
X612910Y441010D01*
X612835Y440920D01*
X612759Y440831D01*
X612757Y440825D01*
X612753Y440820D01*
X612711Y440712D01*
X612667Y440603D01*
X612666Y440595D01*
X612665Y440591D01*
X612664Y440572D01*
X612649Y440436D01*
X612649Y328968D01*
X610640Y326959D01*
X600595Y316914D01*
X598586Y314905D01*
X579980Y314905D01*
X579866Y314886D01*
X579749Y314869D01*
X579744Y314866D01*
X579738Y314865D01*
X579635Y314811D01*
X579530Y314757D01*
X579526Y314753D01*
X579520Y314750D01*
X579440Y314666D01*
X579358Y314582D01*
X579354Y314575D01*
X579351Y314572D01*
X579343Y314555D01*
X579277Y314435D01*
X577209Y309442D01*
X573208Y305441D01*
X567979Y303275D01*
X562321Y303275D01*
G37*
%LPD*%
%LPC*%
G36*
X387350Y12699D02*
X387350Y12699D01*
X387349Y12700D01*
X387349Y53975D01*
X387350Y53976D01*
X476250Y53976D01*
X476251Y53975D01*
X476251Y12700D01*
X476250Y12699D01*
X387350Y12699D01*
G37*
%LPD*%
%LPC*%
G36*
X427193Y224489D02*
X427193Y224489D01*
X418680Y228015D01*
X412165Y234530D01*
X408639Y243043D01*
X408639Y252257D01*
X412165Y260770D01*
X418680Y267285D01*
X427193Y270811D01*
X436407Y270811D01*
X444920Y267285D01*
X451435Y260770D01*
X454961Y252257D01*
X454961Y243043D01*
X451435Y234530D01*
X444920Y228015D01*
X436407Y224489D01*
X427193Y224489D01*
G37*
%LPD*%
%LPC*%
G36*
X582381Y21335D02*
X582381Y21335D01*
X579020Y22727D01*
X576447Y25300D01*
X575055Y28661D01*
X575055Y36268D01*
X575041Y36358D01*
X575033Y36449D01*
X575021Y36479D01*
X575016Y36511D01*
X574973Y36591D01*
X574937Y36675D01*
X574911Y36707D01*
X574900Y36728D01*
X574877Y36750D01*
X574832Y36806D01*
X517833Y93805D01*
X517739Y93873D01*
X517645Y93943D01*
X517639Y93945D01*
X517634Y93949D01*
X517523Y93983D01*
X517411Y94019D01*
X517405Y94019D01*
X517399Y94021D01*
X517282Y94018D01*
X517165Y94017D01*
X517158Y94015D01*
X517153Y94015D01*
X517135Y94008D01*
X517004Y93970D01*
X515954Y93535D01*
X512746Y93535D01*
X509782Y94763D01*
X507513Y97032D01*
X506285Y99996D01*
X506285Y103204D01*
X507513Y106168D01*
X509782Y108437D01*
X512746Y109665D01*
X515954Y109665D01*
X518918Y108437D01*
X521187Y106168D01*
X522415Y103204D01*
X522415Y99996D01*
X521980Y98946D01*
X521953Y98833D01*
X521925Y98719D01*
X521925Y98713D01*
X521924Y98707D01*
X521935Y98590D01*
X521944Y98474D01*
X521946Y98468D01*
X521947Y98462D01*
X521995Y98354D01*
X522040Y98248D01*
X522045Y98242D01*
X522047Y98237D01*
X522060Y98223D01*
X522145Y98117D01*
X573756Y46506D01*
X573814Y46464D01*
X573866Y46415D01*
X573913Y46393D01*
X573955Y46362D01*
X574024Y46341D01*
X574089Y46311D01*
X574141Y46305D01*
X574191Y46290D01*
X574262Y46292D01*
X574333Y46284D01*
X574384Y46295D01*
X574436Y46296D01*
X574504Y46321D01*
X574574Y46336D01*
X574619Y46363D01*
X574667Y46381D01*
X574723Y46426D01*
X574785Y46462D01*
X574819Y46502D01*
X574859Y46534D01*
X574898Y46595D01*
X574945Y46649D01*
X574964Y46698D01*
X574992Y46741D01*
X575010Y46811D01*
X575037Y46877D01*
X575045Y46949D01*
X575053Y46980D01*
X575051Y47003D01*
X575055Y47044D01*
X575055Y47539D01*
X576447Y50900D01*
X579020Y53473D01*
X582381Y54865D01*
X586019Y54865D01*
X589380Y53473D01*
X591953Y50900D01*
X593345Y47539D01*
X593345Y28661D01*
X591953Y25300D01*
X589380Y22727D01*
X586019Y21335D01*
X582381Y21335D01*
G37*
%LPD*%
%LPC*%
G36*
X728646Y385635D02*
X728646Y385635D01*
X725682Y386863D01*
X723413Y389132D01*
X722185Y392096D01*
X722185Y395304D01*
X722620Y396354D01*
X722647Y396467D01*
X722675Y396581D01*
X722675Y396587D01*
X722676Y396593D01*
X722665Y396710D01*
X722656Y396826D01*
X722654Y396832D01*
X722653Y396838D01*
X722605Y396946D01*
X722560Y397052D01*
X722555Y397058D01*
X722553Y397063D01*
X722540Y397077D01*
X722455Y397183D01*
X703810Y415828D01*
X703736Y415881D01*
X703667Y415941D01*
X703637Y415953D01*
X703610Y415972D01*
X703523Y415999D01*
X703439Y416033D01*
X703398Y416037D01*
X703375Y416044D01*
X703343Y416043D01*
X703272Y416051D01*
X685397Y416051D01*
X683388Y418060D01*
X661236Y440212D01*
X661162Y440265D01*
X661092Y440325D01*
X661062Y440337D01*
X661036Y440356D01*
X660949Y440383D01*
X660864Y440417D01*
X660823Y440421D01*
X660801Y440428D01*
X660769Y440427D01*
X660697Y440435D01*
X658581Y440435D01*
X655220Y441827D01*
X652647Y444400D01*
X651255Y447761D01*
X651255Y466639D01*
X652647Y470000D01*
X655220Y472573D01*
X658581Y473965D01*
X662219Y473965D01*
X665580Y472573D01*
X668153Y470000D01*
X669545Y466639D01*
X669545Y447761D01*
X668153Y444400D01*
X667450Y443698D01*
X667438Y443681D01*
X667423Y443669D01*
X667367Y443582D01*
X667307Y443498D01*
X667301Y443479D01*
X667290Y443462D01*
X667265Y443362D01*
X667234Y443263D01*
X667235Y443243D01*
X667230Y443223D01*
X667238Y443120D01*
X667241Y443017D01*
X667247Y442998D01*
X667249Y442978D01*
X667289Y442883D01*
X667325Y442786D01*
X667338Y442770D01*
X667345Y442752D01*
X667450Y442621D01*
X687699Y422372D01*
X687773Y422319D01*
X687843Y422259D01*
X687873Y422247D01*
X687899Y422228D01*
X687986Y422201D01*
X688071Y422167D01*
X688112Y422163D01*
X688134Y422156D01*
X688166Y422157D01*
X688238Y422149D01*
X706113Y422149D01*
X726767Y401495D01*
X726861Y401427D01*
X726955Y401357D01*
X726961Y401355D01*
X726966Y401351D01*
X727077Y401317D01*
X727189Y401281D01*
X727195Y401281D01*
X727201Y401279D01*
X727318Y401282D01*
X727435Y401283D01*
X727442Y401285D01*
X727447Y401285D01*
X727465Y401292D01*
X727596Y401330D01*
X728646Y401765D01*
X731854Y401765D01*
X734818Y400537D01*
X737087Y398268D01*
X738315Y395304D01*
X738315Y392096D01*
X737087Y389132D01*
X734818Y386863D01*
X731854Y385635D01*
X728646Y385635D01*
G37*
%LPD*%
%LPC*%
G36*
X188681Y21335D02*
X188681Y21335D01*
X185320Y22727D01*
X182747Y25300D01*
X181355Y28661D01*
X181355Y36268D01*
X181341Y36358D01*
X181333Y36449D01*
X181321Y36479D01*
X181316Y36511D01*
X181273Y36591D01*
X181237Y36675D01*
X181211Y36707D01*
X181200Y36728D01*
X181177Y36750D01*
X181132Y36806D01*
X130301Y87637D01*
X130301Y93625D01*
X130282Y93740D01*
X130265Y93856D01*
X130263Y93862D01*
X130262Y93868D01*
X130207Y93970D01*
X130154Y94075D01*
X130149Y94080D01*
X130146Y94085D01*
X130062Y94165D01*
X129978Y94247D01*
X129972Y94251D01*
X129968Y94254D01*
X129951Y94262D01*
X129831Y94328D01*
X128782Y94763D01*
X126513Y97032D01*
X125285Y99996D01*
X125285Y103204D01*
X126513Y106168D01*
X128782Y108437D01*
X131746Y109665D01*
X134954Y109665D01*
X137918Y108437D01*
X140187Y106168D01*
X141415Y103204D01*
X141415Y99996D01*
X140187Y97032D01*
X137918Y94763D01*
X136869Y94328D01*
X136769Y94267D01*
X136669Y94207D01*
X136665Y94202D01*
X136660Y94199D01*
X136585Y94109D01*
X136509Y94020D01*
X136507Y94014D01*
X136503Y94009D01*
X136461Y93901D01*
X136417Y93792D01*
X136416Y93784D01*
X136415Y93780D01*
X136414Y93761D01*
X136399Y93625D01*
X136399Y90478D01*
X136405Y90437D01*
X136405Y90434D01*
X136409Y90413D01*
X136413Y90388D01*
X136421Y90297D01*
X136433Y90267D01*
X136438Y90235D01*
X136455Y90205D01*
X136457Y90193D01*
X136484Y90149D01*
X136517Y90071D01*
X136543Y90039D01*
X136554Y90018D01*
X136573Y90000D01*
X136583Y89982D01*
X136598Y89970D01*
X136622Y89940D01*
X180056Y46506D01*
X180114Y46464D01*
X180166Y46415D01*
X180213Y46393D01*
X180255Y46362D01*
X180324Y46341D01*
X180389Y46311D01*
X180441Y46305D01*
X180491Y46290D01*
X180562Y46292D01*
X180633Y46284D01*
X180684Y46295D01*
X180736Y46296D01*
X180804Y46321D01*
X180874Y46336D01*
X180919Y46363D01*
X180967Y46381D01*
X181023Y46426D01*
X181085Y46462D01*
X181119Y46502D01*
X181159Y46534D01*
X181198Y46595D01*
X181245Y46649D01*
X181264Y46698D01*
X181292Y46741D01*
X181310Y46811D01*
X181337Y46877D01*
X181345Y46949D01*
X181353Y46980D01*
X181351Y47003D01*
X181355Y47044D01*
X181355Y47539D01*
X182747Y50900D01*
X185320Y53473D01*
X188681Y54865D01*
X192319Y54865D01*
X195680Y53473D01*
X198253Y50900D01*
X199645Y47539D01*
X199645Y28661D01*
X198253Y25300D01*
X195680Y22727D01*
X192319Y21335D01*
X188681Y21335D01*
G37*
%LPD*%
%LPC*%
G36*
X157146Y385635D02*
X157146Y385635D01*
X154182Y386863D01*
X151913Y389132D01*
X150685Y392096D01*
X150685Y395304D01*
X151913Y398268D01*
X154182Y400537D01*
X157146Y401765D01*
X160354Y401765D01*
X161404Y401330D01*
X161517Y401303D01*
X161631Y401275D01*
X161637Y401275D01*
X161643Y401274D01*
X161760Y401285D01*
X161876Y401294D01*
X161882Y401296D01*
X161888Y401297D01*
X161996Y401345D01*
X162102Y401390D01*
X162108Y401395D01*
X162113Y401397D01*
X162127Y401410D01*
X162233Y401495D01*
X206906Y446168D01*
X206974Y446262D01*
X207044Y446357D01*
X207046Y446363D01*
X207050Y446368D01*
X207084Y446479D01*
X207121Y446591D01*
X207121Y446597D01*
X207122Y446603D01*
X207119Y446720D01*
X207118Y446837D01*
X207116Y446844D01*
X207116Y446849D01*
X207110Y446866D01*
X207071Y446998D01*
X206755Y447761D01*
X206755Y466639D01*
X208147Y470000D01*
X210720Y472573D01*
X214081Y473965D01*
X217719Y473965D01*
X221080Y472573D01*
X223653Y470000D01*
X225045Y466639D01*
X225045Y447761D01*
X223653Y444400D01*
X221080Y441827D01*
X217719Y440435D01*
X214081Y440435D01*
X211522Y441495D01*
X211408Y441522D01*
X211294Y441551D01*
X211288Y441550D01*
X211282Y441552D01*
X211166Y441541D01*
X211049Y441532D01*
X211044Y441529D01*
X211037Y441528D01*
X210930Y441481D01*
X210823Y441435D01*
X210817Y441431D01*
X210813Y441428D01*
X210799Y441416D01*
X210692Y441330D01*
X166545Y397183D01*
X166477Y397089D01*
X166407Y396995D01*
X166405Y396989D01*
X166401Y396984D01*
X166367Y396873D01*
X166331Y396761D01*
X166331Y396755D01*
X166329Y396749D01*
X166332Y396632D01*
X166333Y396515D01*
X166335Y396508D01*
X166335Y396503D01*
X166342Y396485D01*
X166380Y396354D01*
X166815Y395304D01*
X166815Y392096D01*
X165587Y389132D01*
X163318Y386863D01*
X160354Y385635D01*
X157146Y385635D01*
G37*
%LPD*%
%LPC*%
G36*
X347646Y385635D02*
X347646Y385635D01*
X344682Y386863D01*
X342413Y389132D01*
X341185Y392096D01*
X341185Y395304D01*
X341620Y396354D01*
X341647Y396467D01*
X341675Y396581D01*
X341675Y396587D01*
X341676Y396593D01*
X341665Y396710D01*
X341656Y396826D01*
X341654Y396832D01*
X341653Y396838D01*
X341605Y396946D01*
X341560Y397052D01*
X341555Y397058D01*
X341553Y397063D01*
X341540Y397077D01*
X341455Y397183D01*
X297308Y441330D01*
X297214Y441398D01*
X297119Y441468D01*
X297113Y441470D01*
X297108Y441474D01*
X296997Y441508D01*
X296885Y441545D01*
X296879Y441544D01*
X296873Y441546D01*
X296756Y441543D01*
X296640Y441542D01*
X296632Y441540D01*
X296627Y441540D01*
X296610Y441534D01*
X296478Y441495D01*
X293919Y440435D01*
X290281Y440435D01*
X286920Y441827D01*
X284347Y444400D01*
X282955Y447761D01*
X282955Y466639D01*
X284347Y470000D01*
X286920Y472573D01*
X290281Y473965D01*
X293919Y473965D01*
X297280Y472573D01*
X299853Y470000D01*
X301245Y466639D01*
X301245Y447761D01*
X300929Y446998D01*
X300920Y446960D01*
X300912Y446943D01*
X300908Y446912D01*
X300902Y446884D01*
X300873Y446771D01*
X300874Y446764D01*
X300872Y446758D01*
X300883Y446642D01*
X300892Y446525D01*
X300895Y446520D01*
X300895Y446513D01*
X300943Y446406D01*
X300989Y446299D01*
X300993Y446293D01*
X300995Y446289D01*
X301008Y446275D01*
X301094Y446168D01*
X345767Y401495D01*
X345861Y401427D01*
X345955Y401357D01*
X345961Y401355D01*
X345966Y401351D01*
X346077Y401317D01*
X346189Y401281D01*
X346195Y401281D01*
X346201Y401279D01*
X346318Y401282D01*
X346435Y401283D01*
X346442Y401285D01*
X346447Y401285D01*
X346465Y401292D01*
X346596Y401330D01*
X347646Y401765D01*
X350854Y401765D01*
X353818Y400537D01*
X356087Y398268D01*
X357315Y395304D01*
X357315Y392096D01*
X356087Y389132D01*
X353818Y386863D01*
X350854Y385635D01*
X347646Y385635D01*
G37*
%LPD*%
%LPC*%
G36*
X264881Y21335D02*
X264881Y21335D01*
X261520Y22727D01*
X258947Y25300D01*
X257555Y28661D01*
X257555Y47539D01*
X258947Y50900D01*
X261520Y53473D01*
X264881Y54865D01*
X268519Y54865D01*
X271078Y53805D01*
X271192Y53778D01*
X271306Y53749D01*
X271312Y53750D01*
X271318Y53748D01*
X271434Y53759D01*
X271551Y53768D01*
X271556Y53771D01*
X271563Y53772D01*
X271670Y53819D01*
X271777Y53865D01*
X271783Y53869D01*
X271787Y53872D01*
X271801Y53884D01*
X271908Y53970D01*
X316055Y98117D01*
X316123Y98211D01*
X316193Y98305D01*
X316195Y98311D01*
X316199Y98316D01*
X316233Y98427D01*
X316269Y98539D01*
X316269Y98545D01*
X316271Y98551D01*
X316268Y98668D01*
X316267Y98785D01*
X316265Y98792D01*
X316265Y98797D01*
X316258Y98815D01*
X316220Y98946D01*
X315785Y99996D01*
X315785Y103204D01*
X317013Y106168D01*
X319282Y108437D01*
X322246Y109665D01*
X325454Y109665D01*
X328418Y108437D01*
X330687Y106168D01*
X331915Y103204D01*
X331915Y99996D01*
X330687Y97032D01*
X328418Y94763D01*
X325454Y93535D01*
X322246Y93535D01*
X321196Y93970D01*
X321083Y93997D01*
X320969Y94025D01*
X320963Y94025D01*
X320957Y94026D01*
X320840Y94015D01*
X320724Y94006D01*
X320718Y94004D01*
X320712Y94003D01*
X320604Y93955D01*
X320498Y93910D01*
X320492Y93905D01*
X320487Y93903D01*
X320473Y93890D01*
X320367Y93805D01*
X275694Y49132D01*
X275650Y49072D01*
X275613Y49032D01*
X275598Y49000D01*
X275556Y48943D01*
X275554Y48937D01*
X275550Y48932D01*
X275518Y48828D01*
X275509Y48809D01*
X275508Y48797D01*
X275479Y48709D01*
X275479Y48703D01*
X275478Y48697D01*
X275481Y48580D01*
X275482Y48463D01*
X275484Y48456D01*
X275484Y48451D01*
X275490Y48434D01*
X275529Y48302D01*
X275845Y47539D01*
X275845Y28661D01*
X274453Y25300D01*
X271880Y22727D01*
X268519Y21335D01*
X264881Y21335D01*
G37*
%LPD*%
%LPC*%
G36*
X658581Y21335D02*
X658581Y21335D01*
X655220Y22727D01*
X652647Y25300D01*
X651255Y28661D01*
X651255Y47539D01*
X652647Y50900D01*
X655220Y53473D01*
X656881Y54161D01*
X656981Y54223D01*
X657081Y54282D01*
X657085Y54287D01*
X657090Y54290D01*
X657165Y54381D01*
X657241Y54469D01*
X657243Y54475D01*
X657247Y54480D01*
X657289Y54588D01*
X657333Y54697D01*
X657334Y54705D01*
X657335Y54709D01*
X657336Y54728D01*
X657351Y54864D01*
X657351Y58413D01*
X697055Y98117D01*
X697123Y98211D01*
X697193Y98305D01*
X697195Y98311D01*
X697199Y98316D01*
X697233Y98427D01*
X697269Y98539D01*
X697269Y98545D01*
X697271Y98551D01*
X697268Y98668D01*
X697267Y98785D01*
X697265Y98792D01*
X697265Y98797D01*
X697258Y98815D01*
X697220Y98946D01*
X696785Y99996D01*
X696785Y103204D01*
X698013Y106168D01*
X700282Y108437D01*
X703246Y109665D01*
X706454Y109665D01*
X709418Y108437D01*
X711687Y106168D01*
X712915Y103204D01*
X712915Y99996D01*
X711687Y97032D01*
X709418Y94763D01*
X706454Y93535D01*
X703246Y93535D01*
X702196Y93970D01*
X702083Y93997D01*
X701969Y94025D01*
X701963Y94025D01*
X701957Y94026D01*
X701840Y94015D01*
X701724Y94006D01*
X701718Y94004D01*
X701712Y94003D01*
X701604Y93955D01*
X701498Y93910D01*
X701492Y93905D01*
X701487Y93903D01*
X701473Y93890D01*
X701367Y93805D01*
X663672Y56110D01*
X663619Y56036D01*
X663559Y55967D01*
X663547Y55937D01*
X663528Y55910D01*
X663501Y55823D01*
X663467Y55739D01*
X663463Y55698D01*
X663456Y55675D01*
X663457Y55643D01*
X663449Y55572D01*
X663449Y54864D01*
X663468Y54749D01*
X663485Y54633D01*
X663487Y54627D01*
X663488Y54621D01*
X663543Y54519D01*
X663596Y54414D01*
X663601Y54409D01*
X663604Y54404D01*
X663688Y54324D01*
X663772Y54242D01*
X663778Y54238D01*
X663782Y54234D01*
X663799Y54227D01*
X663919Y54161D01*
X665580Y53473D01*
X668153Y50900D01*
X669545Y47539D01*
X669545Y28661D01*
X668153Y25300D01*
X665580Y22727D01*
X662219Y21335D01*
X658581Y21335D01*
G37*
%LPD*%
%LPC*%
G36*
X538146Y385635D02*
X538146Y385635D01*
X535182Y386863D01*
X532913Y389132D01*
X531685Y392096D01*
X531685Y395304D01*
X532913Y398268D01*
X535182Y400537D01*
X538146Y401765D01*
X541354Y401765D01*
X542404Y401330D01*
X542517Y401303D01*
X542631Y401275D01*
X542637Y401275D01*
X542643Y401274D01*
X542760Y401285D01*
X542876Y401294D01*
X542882Y401296D01*
X542888Y401297D01*
X542996Y401345D01*
X543102Y401390D01*
X543108Y401395D01*
X543113Y401397D01*
X543127Y401410D01*
X543233Y401495D01*
X580928Y439190D01*
X580981Y439264D01*
X581041Y439333D01*
X581053Y439363D01*
X581072Y439390D01*
X581099Y439477D01*
X581133Y439561D01*
X581137Y439602D01*
X581144Y439625D01*
X581143Y439657D01*
X581151Y439728D01*
X581151Y440436D01*
X581132Y440551D01*
X581115Y440667D01*
X581113Y440673D01*
X581112Y440679D01*
X581057Y440781D01*
X581004Y440886D01*
X580999Y440891D01*
X580996Y440896D01*
X580912Y440976D01*
X580828Y441058D01*
X580822Y441062D01*
X580818Y441065D01*
X580801Y441073D01*
X580681Y441139D01*
X579020Y441827D01*
X576447Y444400D01*
X575055Y447761D01*
X575055Y466639D01*
X576447Y470000D01*
X579020Y472573D01*
X582381Y473965D01*
X586019Y473965D01*
X589380Y472573D01*
X591953Y470000D01*
X593345Y466639D01*
X593345Y447761D01*
X591953Y444400D01*
X589380Y441827D01*
X587719Y441139D01*
X587619Y441078D01*
X587519Y441018D01*
X587515Y441013D01*
X587510Y441010D01*
X587435Y440920D01*
X587359Y440831D01*
X587357Y440825D01*
X587353Y440820D01*
X587311Y440712D01*
X587267Y440603D01*
X587266Y440595D01*
X587265Y440591D01*
X587264Y440572D01*
X587249Y440436D01*
X587249Y436887D01*
X547545Y397183D01*
X547477Y397089D01*
X547407Y396995D01*
X547405Y396989D01*
X547401Y396984D01*
X547367Y396873D01*
X547331Y396761D01*
X547331Y396755D01*
X547329Y396749D01*
X547332Y396632D01*
X547333Y396515D01*
X547335Y396508D01*
X547335Y396503D01*
X547342Y396485D01*
X547380Y396354D01*
X547815Y395304D01*
X547815Y392096D01*
X546587Y389132D01*
X544318Y386863D01*
X541354Y385635D01*
X538146Y385635D01*
G37*
%LPD*%
%LPC*%
G36*
X188681Y440435D02*
X188681Y440435D01*
X185320Y441827D01*
X182747Y444400D01*
X181355Y447761D01*
X181355Y466639D01*
X182747Y470000D01*
X185320Y472573D01*
X188681Y473965D01*
X192319Y473965D01*
X195680Y472573D01*
X198253Y470000D01*
X199645Y466639D01*
X199645Y447761D01*
X198253Y444400D01*
X195680Y441827D01*
X192319Y440435D01*
X188681Y440435D01*
G37*
%LPD*%
%LPC*%
G36*
X683981Y440435D02*
X683981Y440435D01*
X680620Y441827D01*
X678047Y444400D01*
X676655Y447761D01*
X676655Y466639D01*
X678047Y470000D01*
X680620Y472573D01*
X683981Y473965D01*
X687619Y473965D01*
X690980Y472573D01*
X693553Y470000D01*
X694945Y466639D01*
X694945Y447761D01*
X693553Y444400D01*
X690980Y441827D01*
X687619Y440435D01*
X683981Y440435D01*
G37*
%LPD*%
%LPC*%
G36*
X683981Y21335D02*
X683981Y21335D01*
X680620Y22727D01*
X678047Y25300D01*
X676655Y28661D01*
X676655Y47539D01*
X678047Y50900D01*
X680620Y53473D01*
X683981Y54865D01*
X687619Y54865D01*
X690980Y53473D01*
X693553Y50900D01*
X694945Y47539D01*
X694945Y28661D01*
X693553Y25300D01*
X690980Y22727D01*
X687619Y21335D01*
X683981Y21335D01*
G37*
%LPD*%
%LPC*%
G36*
X744473Y204723D02*
X744473Y204723D01*
X744473Y218389D01*
X746519Y218065D01*
X748800Y217324D01*
X750938Y216235D01*
X752879Y214825D01*
X754575Y213129D01*
X755985Y211188D01*
X757074Y209050D01*
X757815Y206769D01*
X758139Y204723D01*
X744473Y204723D01*
G37*
%LPD*%
%LPC*%
G36*
X363473Y204723D02*
X363473Y204723D01*
X363473Y218389D01*
X365519Y218065D01*
X367800Y217324D01*
X369938Y216235D01*
X371879Y214825D01*
X373575Y213129D01*
X374985Y211188D01*
X376074Y209050D01*
X376815Y206769D01*
X377139Y204723D01*
X363473Y204723D01*
G37*
%LPD*%
%LPC*%
G36*
X172973Y204723D02*
X172973Y204723D01*
X172973Y218389D01*
X175019Y218065D01*
X177300Y217324D01*
X179438Y216235D01*
X181379Y214825D01*
X183075Y213129D01*
X184485Y211188D01*
X185574Y209050D01*
X186315Y206769D01*
X186639Y204723D01*
X172973Y204723D01*
G37*
%LPD*%
%LPC*%
G36*
X503173Y293623D02*
X503173Y293623D01*
X503173Y307289D01*
X505219Y306965D01*
X507500Y306224D01*
X509638Y305135D01*
X511579Y303725D01*
X513275Y302029D01*
X514685Y300088D01*
X515774Y297950D01*
X516515Y295669D01*
X516839Y293623D01*
X503173Y293623D01*
G37*
%LPD*%
%LPC*%
G36*
X122173Y293623D02*
X122173Y293623D01*
X122173Y307289D01*
X124219Y306965D01*
X126500Y306224D01*
X128638Y305135D01*
X130579Y303725D01*
X132275Y302029D01*
X133685Y300088D01*
X134774Y297950D01*
X135515Y295669D01*
X135839Y293623D01*
X122173Y293623D01*
G37*
%LPD*%
%LPC*%
G36*
X553973Y204723D02*
X553973Y204723D01*
X553973Y218389D01*
X556019Y218065D01*
X558300Y217324D01*
X560438Y216235D01*
X562379Y214825D01*
X564075Y213129D01*
X565485Y211188D01*
X566574Y209050D01*
X567315Y206769D01*
X567639Y204723D01*
X553973Y204723D01*
G37*
%LPD*%
%LPC*%
G36*
X486461Y293623D02*
X486461Y293623D01*
X486785Y295669D01*
X487526Y297950D01*
X488615Y300088D01*
X490025Y302029D01*
X491721Y303725D01*
X493662Y305135D01*
X495800Y306224D01*
X498081Y306965D01*
X500127Y307289D01*
X500127Y293623D01*
X486461Y293623D01*
G37*
%LPD*%
%LPC*%
G36*
X105461Y293623D02*
X105461Y293623D01*
X105785Y295669D01*
X106526Y297950D01*
X107615Y300088D01*
X109025Y302029D01*
X110721Y303725D01*
X112662Y305135D01*
X114800Y306224D01*
X117081Y306965D01*
X119127Y307289D01*
X119127Y293623D01*
X105461Y293623D01*
G37*
%LPD*%
%LPC*%
G36*
X363473Y201677D02*
X363473Y201677D01*
X377139Y201677D01*
X376815Y199631D01*
X376074Y197350D01*
X374985Y195212D01*
X373575Y193271D01*
X371879Y191575D01*
X369938Y190165D01*
X367800Y189076D01*
X365519Y188335D01*
X363473Y188011D01*
X363473Y201677D01*
G37*
%LPD*%
%LPC*%
G36*
X744473Y201677D02*
X744473Y201677D01*
X758139Y201677D01*
X757815Y199631D01*
X757074Y197350D01*
X755985Y195212D01*
X754575Y193271D01*
X752879Y191575D01*
X750938Y190165D01*
X748800Y189076D01*
X746519Y188335D01*
X744473Y188011D01*
X744473Y201677D01*
G37*
%LPD*%
%LPC*%
G36*
X156261Y204723D02*
X156261Y204723D01*
X156585Y206769D01*
X157326Y209050D01*
X158415Y211188D01*
X159825Y213129D01*
X161521Y214825D01*
X163462Y216235D01*
X165600Y217324D01*
X167881Y218065D01*
X169927Y218389D01*
X169927Y204723D01*
X156261Y204723D01*
G37*
%LPD*%
%LPC*%
G36*
X537261Y204723D02*
X537261Y204723D01*
X537585Y206769D01*
X538326Y209050D01*
X539415Y211188D01*
X540825Y213129D01*
X542521Y214825D01*
X544462Y216235D01*
X546600Y217324D01*
X548881Y218065D01*
X550927Y218389D01*
X550927Y204723D01*
X537261Y204723D01*
G37*
%LPD*%
%LPC*%
G36*
X312673Y290577D02*
X312673Y290577D01*
X326339Y290577D01*
X326015Y288531D01*
X325274Y286250D01*
X324185Y284112D01*
X322775Y282171D01*
X321079Y280475D01*
X319138Y279065D01*
X317000Y277976D01*
X314719Y277235D01*
X312673Y276911D01*
X312673Y290577D01*
G37*
%LPD*%
%LPC*%
G36*
X122173Y290577D02*
X122173Y290577D01*
X135839Y290577D01*
X135515Y288531D01*
X134774Y286250D01*
X133685Y284112D01*
X132275Y282171D01*
X130579Y280475D01*
X128638Y279065D01*
X126500Y277976D01*
X124219Y277235D01*
X122173Y276911D01*
X122173Y290577D01*
G37*
%LPD*%
%LPC*%
G36*
X503173Y290577D02*
X503173Y290577D01*
X516839Y290577D01*
X516515Y288531D01*
X515774Y286250D01*
X514685Y284112D01*
X513275Y282171D01*
X511579Y280475D01*
X509638Y279065D01*
X507500Y277976D01*
X505219Y277235D01*
X503173Y276911D01*
X503173Y290577D01*
G37*
%LPD*%
%LPC*%
G36*
X693673Y290577D02*
X693673Y290577D01*
X707339Y290577D01*
X707015Y288531D01*
X706274Y286250D01*
X705185Y284112D01*
X703775Y282171D01*
X702079Y280475D01*
X700138Y279065D01*
X698000Y277976D01*
X695719Y277235D01*
X693673Y276911D01*
X693673Y290577D01*
G37*
%LPD*%
%LPC*%
G36*
X727761Y204723D02*
X727761Y204723D01*
X728085Y206769D01*
X728826Y209050D01*
X729915Y211188D01*
X731325Y213129D01*
X733021Y214825D01*
X734962Y216235D01*
X737100Y217324D01*
X739381Y218065D01*
X741427Y218389D01*
X741427Y204723D01*
X727761Y204723D01*
G37*
%LPD*%
%LPC*%
G36*
X346761Y204723D02*
X346761Y204723D01*
X347085Y206769D01*
X347826Y209050D01*
X348915Y211188D01*
X350325Y213129D01*
X352021Y214825D01*
X353962Y216235D01*
X356100Y217324D01*
X358381Y218065D01*
X360427Y218389D01*
X360427Y204723D01*
X346761Y204723D01*
G37*
%LPD*%
%LPC*%
G36*
X307581Y277235D02*
X307581Y277235D01*
X305300Y277976D01*
X303162Y279065D01*
X301221Y280475D01*
X299525Y282171D01*
X298115Y284112D01*
X297026Y286250D01*
X296285Y288531D01*
X295961Y290577D01*
X309627Y290577D01*
X309627Y276911D01*
X307581Y277235D01*
G37*
%LPD*%
%LPC*%
G36*
X117081Y277235D02*
X117081Y277235D01*
X114800Y277976D01*
X112662Y279065D01*
X110721Y280475D01*
X109025Y282171D01*
X107615Y284112D01*
X106526Y286250D01*
X105785Y288531D01*
X105461Y290577D01*
X119127Y290577D01*
X119127Y276911D01*
X117081Y277235D01*
G37*
%LPD*%
%LPC*%
G36*
X688581Y277235D02*
X688581Y277235D01*
X686300Y277976D01*
X684162Y279065D01*
X682221Y280475D01*
X680525Y282171D01*
X679115Y284112D01*
X678026Y286250D01*
X677285Y288531D01*
X676961Y290577D01*
X690627Y290577D01*
X690627Y276911D01*
X688581Y277235D01*
G37*
%LPD*%
%LPC*%
G36*
X739381Y188335D02*
X739381Y188335D01*
X737100Y189076D01*
X734962Y190165D01*
X733021Y191575D01*
X731325Y193271D01*
X729915Y195212D01*
X728826Y197350D01*
X728085Y199631D01*
X727761Y201677D01*
X741427Y201677D01*
X741427Y188011D01*
X739381Y188335D01*
G37*
%LPD*%
%LPC*%
G36*
X498081Y277235D02*
X498081Y277235D01*
X495800Y277976D01*
X493662Y279065D01*
X491721Y280475D01*
X490025Y282171D01*
X488615Y284112D01*
X487526Y286250D01*
X486785Y288531D01*
X486461Y290577D01*
X500127Y290577D01*
X500127Y276911D01*
X498081Y277235D01*
G37*
%LPD*%
%LPC*%
G36*
X358381Y188335D02*
X358381Y188335D01*
X356100Y189076D01*
X353962Y190165D01*
X352021Y191575D01*
X350325Y193271D01*
X348915Y195212D01*
X347826Y197350D01*
X347085Y199631D01*
X346761Y201677D01*
X360427Y201677D01*
X360427Y188011D01*
X358381Y188335D01*
G37*
%LPD*%
%LPC*%
G36*
X293623Y39623D02*
X293623Y39623D01*
X293623Y55766D01*
X294479Y55631D01*
X296000Y55136D01*
X297425Y54410D01*
X298719Y53470D01*
X299850Y52339D01*
X300790Y51045D01*
X301516Y49620D01*
X302011Y48099D01*
X302261Y46520D01*
X302261Y39623D01*
X293623Y39623D01*
G37*
%LPD*%
%LPC*%
G36*
X293623Y36577D02*
X293623Y36577D01*
X302261Y36577D01*
X302261Y29680D01*
X302011Y28101D01*
X301516Y26580D01*
X300790Y25155D01*
X299850Y23861D01*
X298719Y22730D01*
X297425Y21790D01*
X296000Y21064D01*
X294479Y20569D01*
X293623Y20434D01*
X293623Y36577D01*
G37*
%LPD*%
%LPC*%
G36*
X281939Y39623D02*
X281939Y39623D01*
X281939Y46520D01*
X282189Y48099D01*
X282684Y49620D01*
X283410Y51045D01*
X284350Y52339D01*
X285481Y53470D01*
X286775Y54410D01*
X288200Y55136D01*
X289721Y55631D01*
X290577Y55766D01*
X290577Y39623D01*
X281939Y39623D01*
G37*
%LPD*%
%LPC*%
G36*
X289721Y20569D02*
X289721Y20569D01*
X288200Y21064D01*
X286775Y21790D01*
X285481Y22730D01*
X284350Y23861D01*
X283410Y25155D01*
X282684Y26580D01*
X282189Y28101D01*
X281939Y29680D01*
X281939Y36577D01*
X290577Y36577D01*
X290577Y20434D01*
X289721Y20569D01*
G37*
%LPD*%
%LPC*%
G36*
X731773Y103123D02*
X731773Y103123D01*
X731773Y110556D01*
X732899Y110332D01*
X734551Y109647D01*
X736039Y108653D01*
X737303Y107389D01*
X738297Y105901D01*
X738982Y104249D01*
X739206Y103123D01*
X731773Y103123D01*
G37*
%LPD*%
%LPC*%
G36*
X350773Y103123D02*
X350773Y103123D01*
X350773Y110556D01*
X351899Y110332D01*
X353551Y109647D01*
X355039Y108653D01*
X356303Y107389D01*
X357297Y105901D01*
X357982Y104249D01*
X358206Y103123D01*
X350773Y103123D01*
G37*
%LPD*%
%LPC*%
G36*
X706373Y395223D02*
X706373Y395223D01*
X706373Y402656D01*
X707499Y402432D01*
X709151Y401747D01*
X710639Y400753D01*
X711903Y399489D01*
X712897Y398001D01*
X713582Y396349D01*
X713806Y395223D01*
X706373Y395223D01*
G37*
%LPD*%
%LPC*%
G36*
X325373Y395223D02*
X325373Y395223D01*
X325373Y402656D01*
X326499Y402432D01*
X328151Y401747D01*
X329639Y400753D01*
X330903Y399489D01*
X331897Y398001D01*
X332582Y396349D01*
X332806Y395223D01*
X325373Y395223D01*
G37*
%LPD*%
%LPC*%
G36*
X160273Y103123D02*
X160273Y103123D01*
X160273Y110556D01*
X161399Y110332D01*
X163051Y109647D01*
X164539Y108653D01*
X165803Y107389D01*
X166797Y105901D01*
X167482Y104249D01*
X167706Y103123D01*
X160273Y103123D01*
G37*
%LPD*%
%LPC*%
G36*
X541273Y103123D02*
X541273Y103123D01*
X541273Y110556D01*
X542399Y110332D01*
X544051Y109647D01*
X545539Y108653D01*
X546803Y107389D01*
X547797Y105901D01*
X548482Y104249D01*
X548706Y103123D01*
X541273Y103123D01*
G37*
%LPD*%
%LPC*%
G36*
X134873Y395223D02*
X134873Y395223D01*
X134873Y402656D01*
X135999Y402432D01*
X137651Y401747D01*
X139139Y400753D01*
X140403Y399489D01*
X141397Y398001D01*
X142082Y396349D01*
X142306Y395223D01*
X134873Y395223D01*
G37*
%LPD*%
%LPC*%
G36*
X515873Y395223D02*
X515873Y395223D01*
X515873Y402656D01*
X516999Y402432D01*
X518651Y401747D01*
X520139Y400753D01*
X521403Y399489D01*
X522397Y398001D01*
X523082Y396349D01*
X523306Y395223D01*
X515873Y395223D01*
G37*
%LPD*%
%LPC*%
G36*
X134873Y392177D02*
X134873Y392177D01*
X142306Y392177D01*
X142082Y391051D01*
X141397Y389399D01*
X140403Y387911D01*
X139139Y386647D01*
X137651Y385653D01*
X135999Y384968D01*
X134873Y384744D01*
X134873Y392177D01*
G37*
%LPD*%
%LPC*%
G36*
X706373Y392177D02*
X706373Y392177D01*
X713806Y392177D01*
X713582Y391051D01*
X712897Y389399D01*
X711903Y387911D01*
X710639Y386647D01*
X709151Y385653D01*
X707499Y384968D01*
X706373Y384744D01*
X706373Y392177D01*
G37*
%LPD*%
%LPC*%
G36*
X515873Y392177D02*
X515873Y392177D01*
X523306Y392177D01*
X523082Y391051D01*
X522397Y389399D01*
X521403Y387911D01*
X520139Y386647D01*
X518651Y385653D01*
X516999Y384968D01*
X515873Y384744D01*
X515873Y392177D01*
G37*
%LPD*%
%LPC*%
G36*
X325373Y392177D02*
X325373Y392177D01*
X332806Y392177D01*
X332582Y391051D01*
X331897Y389399D01*
X330903Y387911D01*
X329639Y386647D01*
X328151Y385653D01*
X326499Y384968D01*
X325373Y384744D01*
X325373Y392177D01*
G37*
%LPD*%
%LPC*%
G36*
X350773Y100077D02*
X350773Y100077D01*
X358206Y100077D01*
X357982Y98951D01*
X357297Y97299D01*
X356303Y95811D01*
X355039Y94547D01*
X353551Y93553D01*
X351899Y92868D01*
X350773Y92644D01*
X350773Y100077D01*
G37*
%LPD*%
%LPC*%
G36*
X314894Y395223D02*
X314894Y395223D01*
X315118Y396349D01*
X315803Y398001D01*
X316797Y399489D01*
X318061Y400753D01*
X319549Y401747D01*
X321201Y402432D01*
X322327Y402656D01*
X322327Y395223D01*
X314894Y395223D01*
G37*
%LPD*%
%LPC*%
G36*
X731773Y100077D02*
X731773Y100077D01*
X739206Y100077D01*
X738982Y98951D01*
X738297Y97299D01*
X737303Y95811D01*
X736039Y94547D01*
X734551Y93553D01*
X732899Y92868D01*
X731773Y92644D01*
X731773Y100077D01*
G37*
%LPD*%
%LPC*%
G36*
X340294Y103123D02*
X340294Y103123D01*
X340518Y104249D01*
X341203Y105901D01*
X342197Y107389D01*
X343461Y108653D01*
X344949Y109647D01*
X346601Y110332D01*
X347727Y110556D01*
X347727Y103123D01*
X340294Y103123D01*
G37*
%LPD*%
%LPC*%
G36*
X541273Y100077D02*
X541273Y100077D01*
X548706Y100077D01*
X548482Y98951D01*
X547797Y97299D01*
X546803Y95811D01*
X545539Y94547D01*
X544051Y93553D01*
X542399Y92868D01*
X541273Y92644D01*
X541273Y100077D01*
G37*
%LPD*%
%LPC*%
G36*
X124394Y395223D02*
X124394Y395223D01*
X124618Y396349D01*
X125303Y398001D01*
X126297Y399489D01*
X127561Y400753D01*
X129049Y401747D01*
X130701Y402432D01*
X131827Y402656D01*
X131827Y395223D01*
X124394Y395223D01*
G37*
%LPD*%
%LPC*%
G36*
X530794Y103123D02*
X530794Y103123D01*
X531018Y104249D01*
X531703Y105901D01*
X532697Y107389D01*
X533961Y108653D01*
X535449Y109647D01*
X537101Y110332D01*
X538227Y110556D01*
X538227Y103123D01*
X530794Y103123D01*
G37*
%LPD*%
%LPC*%
G36*
X721294Y103123D02*
X721294Y103123D01*
X721518Y104249D01*
X722203Y105901D01*
X723197Y107389D01*
X724461Y108653D01*
X725949Y109647D01*
X727601Y110332D01*
X728727Y110556D01*
X728727Y103123D01*
X721294Y103123D01*
G37*
%LPD*%
%LPC*%
G36*
X149794Y103123D02*
X149794Y103123D01*
X150018Y104249D01*
X150703Y105901D01*
X151697Y107389D01*
X152961Y108653D01*
X154449Y109647D01*
X156101Y110332D01*
X157227Y110556D01*
X157227Y103123D01*
X149794Y103123D01*
G37*
%LPD*%
%LPC*%
G36*
X160273Y100077D02*
X160273Y100077D01*
X167706Y100077D01*
X167482Y98951D01*
X166797Y97299D01*
X165803Y95811D01*
X164539Y94547D01*
X163051Y93553D01*
X161399Y92868D01*
X160273Y92644D01*
X160273Y100077D01*
G37*
%LPD*%
%LPC*%
G36*
X505394Y395223D02*
X505394Y395223D01*
X505618Y396349D01*
X506303Y398001D01*
X507297Y399489D01*
X508561Y400753D01*
X510049Y401747D01*
X511701Y402432D01*
X512827Y402656D01*
X512827Y395223D01*
X505394Y395223D01*
G37*
%LPD*%
%LPC*%
G36*
X695894Y395223D02*
X695894Y395223D01*
X696118Y396349D01*
X696803Y398001D01*
X697797Y399489D01*
X699061Y400753D01*
X700549Y401747D01*
X702201Y402432D01*
X703327Y402656D01*
X703327Y395223D01*
X695894Y395223D01*
G37*
%LPD*%
%LPC*%
G36*
X130701Y384968D02*
X130701Y384968D01*
X129049Y385653D01*
X127561Y386647D01*
X126297Y387911D01*
X125303Y389399D01*
X124618Y391051D01*
X124394Y392177D01*
X131827Y392177D01*
X131827Y384744D01*
X130701Y384968D01*
G37*
%LPD*%
%LPC*%
G36*
X346601Y92868D02*
X346601Y92868D01*
X344949Y93553D01*
X343461Y94547D01*
X342197Y95811D01*
X341203Y97299D01*
X340518Y98951D01*
X340294Y100077D01*
X347727Y100077D01*
X347727Y92644D01*
X346601Y92868D01*
G37*
%LPD*%
%LPC*%
G36*
X511701Y384968D02*
X511701Y384968D01*
X510049Y385653D01*
X508561Y386647D01*
X507297Y387911D01*
X506303Y389399D01*
X505618Y391051D01*
X505394Y392177D01*
X512827Y392177D01*
X512827Y384744D01*
X511701Y384968D01*
G37*
%LPD*%
%LPC*%
G36*
X156101Y92868D02*
X156101Y92868D01*
X154449Y93553D01*
X152961Y94547D01*
X151697Y95811D01*
X150703Y97299D01*
X150018Y98951D01*
X149794Y100077D01*
X157227Y100077D01*
X157227Y92644D01*
X156101Y92868D01*
G37*
%LPD*%
%LPC*%
G36*
X321201Y384968D02*
X321201Y384968D01*
X319549Y385653D01*
X318061Y386647D01*
X316797Y387911D01*
X315803Y389399D01*
X315118Y391051D01*
X314894Y392177D01*
X322327Y392177D01*
X322327Y384744D01*
X321201Y384968D01*
G37*
%LPD*%
%LPC*%
G36*
X702201Y384968D02*
X702201Y384968D01*
X700549Y385653D01*
X699061Y386647D01*
X697797Y387911D01*
X696803Y389399D01*
X696118Y391051D01*
X695894Y392177D01*
X703327Y392177D01*
X703327Y384744D01*
X702201Y384968D01*
G37*
%LPD*%
%LPC*%
G36*
X727601Y92868D02*
X727601Y92868D01*
X725949Y93553D01*
X724461Y94547D01*
X723197Y95811D01*
X722203Y97299D01*
X721518Y98951D01*
X721294Y100077D01*
X728727Y100077D01*
X728727Y92644D01*
X727601Y92868D01*
G37*
%LPD*%
%LPC*%
G36*
X537101Y92868D02*
X537101Y92868D01*
X535449Y93553D01*
X533961Y94547D01*
X532697Y95811D01*
X531703Y97299D01*
X531018Y98951D01*
X530794Y100077D01*
X538227Y100077D01*
X538227Y92644D01*
X537101Y92868D01*
G37*
%LPD*%
%LPC*%
G36*
X133349Y393699D02*
X133349Y393699D01*
X133349Y393701D01*
X133351Y393701D01*
X133351Y393699D01*
X133349Y393699D01*
G37*
%LPD*%
%LPC*%
G36*
X361949Y203199D02*
X361949Y203199D01*
X361949Y203201D01*
X361951Y203201D01*
X361951Y203199D01*
X361949Y203199D01*
G37*
%LPD*%
%LPC*%
G36*
X323849Y393699D02*
X323849Y393699D01*
X323849Y393701D01*
X323851Y393701D01*
X323851Y393699D01*
X323849Y393699D01*
G37*
%LPD*%
%LPC*%
G36*
X704849Y393699D02*
X704849Y393699D01*
X704849Y393701D01*
X704851Y393701D01*
X704851Y393699D01*
X704849Y393699D01*
G37*
%LPD*%
%LPC*%
G36*
X158749Y101599D02*
X158749Y101599D01*
X158749Y101601D01*
X158751Y101601D01*
X158751Y101599D01*
X158749Y101599D01*
G37*
%LPD*%
%LPC*%
G36*
X730249Y101599D02*
X730249Y101599D01*
X730249Y101601D01*
X730251Y101601D01*
X730251Y101599D01*
X730249Y101599D01*
G37*
%LPD*%
%LPC*%
G36*
X349249Y101599D02*
X349249Y101599D01*
X349249Y101601D01*
X349251Y101601D01*
X349251Y101599D01*
X349249Y101599D01*
G37*
%LPD*%
%LPC*%
G36*
X514349Y393699D02*
X514349Y393699D01*
X514349Y393701D01*
X514351Y393701D01*
X514351Y393699D01*
X514349Y393699D01*
G37*
%LPD*%
%LPC*%
G36*
X539749Y101599D02*
X539749Y101599D01*
X539749Y101601D01*
X539751Y101601D01*
X539751Y101599D01*
X539749Y101599D01*
G37*
%LPD*%
%LPC*%
G36*
X120649Y292099D02*
X120649Y292099D01*
X120649Y292101D01*
X120651Y292101D01*
X120651Y292099D01*
X120649Y292099D01*
G37*
%LPD*%
%LPC*%
G36*
X292099Y38099D02*
X292099Y38099D01*
X292099Y38101D01*
X292101Y38101D01*
X292101Y38099D01*
X292099Y38099D01*
G37*
%LPD*%
%LPC*%
G36*
X501649Y292099D02*
X501649Y292099D01*
X501649Y292101D01*
X501651Y292101D01*
X501651Y292099D01*
X501649Y292099D01*
G37*
%LPD*%
%LPC*%
G36*
X742949Y203199D02*
X742949Y203199D01*
X742949Y203201D01*
X742951Y203201D01*
X742951Y203199D01*
X742949Y203199D01*
G37*
%LPD*%
D10*
X184150Y317500D03*
X120650Y292100D03*
D11*
X158750Y393700D03*
X133350Y393700D03*
D12*
X292100Y449580D02*
X292100Y464820D01*
X266700Y464820D02*
X266700Y449580D01*
X241300Y449580D02*
X241300Y464820D01*
X215900Y464820D02*
X215900Y449580D01*
X190500Y449580D02*
X190500Y464820D01*
X685800Y464820D02*
X685800Y449580D01*
X660400Y449580D02*
X660400Y464820D01*
X635000Y464820D02*
X635000Y449580D01*
X609600Y449580D02*
X609600Y464820D01*
X584200Y464820D02*
X584200Y449580D01*
X292100Y45720D02*
X292100Y30480D01*
X266700Y30480D02*
X266700Y45720D01*
X241300Y45720D02*
X241300Y30480D01*
X215900Y30480D02*
X215900Y45720D01*
X190500Y45720D02*
X190500Y30480D01*
X685800Y30480D02*
X685800Y45720D01*
X660400Y45720D02*
X660400Y30480D01*
X635000Y30480D02*
X635000Y45720D01*
X609600Y45720D02*
X609600Y30480D01*
X584200Y30480D02*
X584200Y45720D01*
D10*
X374650Y317500D03*
X311150Y292100D03*
D11*
X349250Y393700D03*
X323850Y393700D03*
D10*
X565150Y317500D03*
X501650Y292100D03*
D11*
X539750Y393700D03*
X514350Y393700D03*
D10*
X755650Y317500D03*
X692150Y292100D03*
D11*
X730250Y393700D03*
X704850Y393700D03*
D10*
X107950Y177800D03*
X171450Y203200D03*
D11*
X133350Y101600D03*
X158750Y101600D03*
D10*
X298450Y177800D03*
X361950Y203200D03*
D11*
X323850Y101600D03*
X349250Y101600D03*
D10*
X488950Y177800D03*
X552450Y203200D03*
D11*
X514350Y101600D03*
X539750Y101600D03*
D10*
X679450Y177800D03*
X742950Y203200D03*
D11*
X704850Y101600D03*
X730250Y101600D03*
D13*
X216323Y317954D02*
X184604Y317954D01*
X184150Y317500D01*
X234950Y450850D02*
X241300Y457200D01*
X234950Y450850D02*
X234950Y336581D01*
X216323Y317954D01*
X215900Y450850D02*
X215900Y457200D01*
X215900Y450850D02*
X158750Y393700D01*
X205911Y184584D02*
X223384Y167111D01*
X205911Y184584D02*
X114734Y184584D01*
X107950Y177800D01*
X223384Y167111D02*
X223384Y45584D01*
X215900Y38100D01*
X133350Y88900D02*
X133350Y101600D01*
X184150Y38100D02*
X190500Y38100D01*
X184150Y38100D02*
X133350Y88900D01*
X267134Y310716D02*
X254000Y323850D01*
X254000Y358775D02*
X266700Y371475D01*
X266700Y457200D01*
X254000Y358775D02*
X254000Y323850D01*
X267134Y310716D02*
X367866Y310716D01*
X374650Y317500D01*
X349250Y393700D02*
X292100Y450850D01*
X292100Y457200D01*
X297316Y178934D02*
X298450Y177800D01*
X297316Y178934D02*
X267865Y178934D01*
X241300Y152370D01*
X241300Y38100D01*
X266700Y38100D02*
X266700Y44450D01*
X323850Y101600D01*
X565604Y317954D02*
X597323Y317954D01*
X609600Y330231D02*
X609600Y457200D01*
X609600Y330231D02*
X597323Y317954D01*
X565604Y317954D02*
X565150Y317500D01*
X584200Y438150D02*
X584200Y457200D01*
X584200Y438150D02*
X539750Y393700D01*
X495734Y184584D02*
X593261Y184584D01*
X495734Y184584D02*
X488950Y177800D01*
X609600Y168245D02*
X609600Y38100D01*
X609600Y168245D02*
X593261Y184584D01*
X584200Y38100D02*
X577850Y38100D01*
X514350Y101600D01*
X635000Y333406D02*
X635000Y457200D01*
X744015Y317500D02*
X737231Y310716D01*
X657690Y310716D01*
X635000Y333406D01*
X744015Y317500D02*
X755650Y317500D01*
X686660Y419100D02*
X660400Y445360D01*
X660400Y457200D01*
X704850Y419100D02*
X730250Y393700D01*
X704850Y419100D02*
X686660Y419100D01*
X635000Y174625D02*
X635000Y38100D01*
X635000Y174625D02*
X647700Y187325D01*
X669925Y187325D01*
X679450Y177800D01*
X660400Y57150D02*
X660400Y38100D01*
X660400Y57150D02*
X704850Y101600D01*
D14*
X73819Y119063D03*
D13*
X75066Y120310D01*
X75066Y167187D01*
X175373Y267494D01*
X789781Y310356D02*
X789781Y375444D01*
D14*
X789781Y375444D03*
D13*
X450850Y279400D02*
X412750Y279400D01*
X450850Y279400D02*
X463550Y266700D01*
X746125Y266700D01*
X789781Y310356D01*
X412750Y279400D02*
X400844Y267494D01*
X175373Y267494D01*
M02*
