G04 EAGLE Gerber RS-274X export*
G75*
%MOMM*%
%FSLAX34Y34*%
%LPD*%
%IN*%
%IPPOS*%
%AMOC8*
5,1,8,0,0,1.08239X$1,22.5*%
G01*
%ADD10C,0.254000*%


D10*
X0Y25400D02*
X97Y23186D01*
X386Y20989D01*
X865Y18826D01*
X1532Y16713D01*
X2380Y14666D01*
X3403Y12700D01*
X4594Y10831D01*
X5942Y9073D01*
X7440Y7440D01*
X9073Y5942D01*
X10831Y4594D01*
X12700Y3403D01*
X14666Y2380D01*
X16713Y1532D01*
X18826Y865D01*
X20989Y386D01*
X23186Y97D01*
X25400Y0D01*
X838200Y0D01*
X840414Y97D01*
X842611Y386D01*
X844774Y865D01*
X846887Y1532D01*
X848935Y2380D01*
X850900Y3403D01*
X852769Y4594D01*
X854527Y5942D01*
X856161Y7440D01*
X857658Y9073D01*
X859006Y10831D01*
X860197Y12700D01*
X861220Y14666D01*
X862068Y16713D01*
X862735Y18826D01*
X863214Y20989D01*
X863503Y23186D01*
X863600Y25400D01*
X863600Y469900D01*
X863503Y472114D01*
X863214Y474311D01*
X862735Y476474D01*
X862068Y478587D01*
X861220Y480635D01*
X860197Y482600D01*
X859006Y484469D01*
X857658Y486227D01*
X856161Y487861D01*
X854527Y489358D01*
X852769Y490706D01*
X850900Y491897D01*
X848935Y492920D01*
X846887Y493768D01*
X844774Y494435D01*
X842611Y494914D01*
X840414Y495203D01*
X838200Y495300D01*
X25400Y495300D01*
X23186Y495203D01*
X20989Y494914D01*
X18826Y494435D01*
X16713Y493768D01*
X14666Y492920D01*
X12700Y491897D01*
X10831Y490706D01*
X9073Y489358D01*
X7440Y487861D01*
X5942Y486227D01*
X4594Y484469D01*
X3403Y482600D01*
X2380Y480635D01*
X1532Y478587D01*
X865Y476474D01*
X386Y474311D01*
X97Y472114D01*
X0Y469900D01*
X0Y25400D01*
X444800Y247186D02*
X444734Y246259D01*
X444602Y245340D01*
X444404Y244433D01*
X444143Y243542D01*
X443818Y242672D01*
X443432Y241827D01*
X442987Y241012D01*
X442485Y240231D01*
X441929Y239488D01*
X441321Y238786D01*
X440664Y238129D01*
X439962Y237521D01*
X439219Y236965D01*
X438438Y236463D01*
X437623Y236018D01*
X436778Y235632D01*
X435908Y235307D01*
X435017Y235046D01*
X434110Y234848D01*
X433191Y234716D01*
X432264Y234650D01*
X431336Y234650D01*
X430409Y234716D01*
X429490Y234848D01*
X428583Y235046D01*
X427692Y235307D01*
X426822Y235632D01*
X425977Y236018D01*
X425162Y236463D01*
X424381Y236965D01*
X423638Y237521D01*
X422936Y238129D01*
X422279Y238786D01*
X421671Y239488D01*
X421115Y240231D01*
X420613Y241012D01*
X420168Y241827D01*
X419782Y242672D01*
X419457Y243542D01*
X419196Y244433D01*
X418998Y245340D01*
X418866Y246259D01*
X418800Y247186D01*
X418800Y248114D01*
X418866Y249041D01*
X418998Y249960D01*
X419196Y250867D01*
X419457Y251758D01*
X419782Y252628D01*
X420168Y253473D01*
X420613Y254288D01*
X421115Y255069D01*
X421671Y255812D01*
X422279Y256514D01*
X422936Y257171D01*
X423638Y257779D01*
X424381Y258335D01*
X425162Y258837D01*
X425977Y259282D01*
X426822Y259668D01*
X427692Y259993D01*
X428583Y260254D01*
X429490Y260452D01*
X430409Y260584D01*
X431336Y260650D01*
X432264Y260650D01*
X433191Y260584D01*
X434110Y260452D01*
X435017Y260254D01*
X435908Y259993D01*
X436778Y259668D01*
X437623Y259282D01*
X438438Y258837D01*
X439219Y258335D01*
X439962Y257779D01*
X440664Y257171D01*
X441321Y256514D01*
X441929Y255812D01*
X442485Y255069D01*
X442987Y254288D01*
X443432Y253473D01*
X443818Y252628D01*
X444143Y251758D01*
X444404Y250867D01*
X444602Y249960D01*
X444734Y249041D01*
X444800Y248114D01*
X444800Y247186D01*
X188350Y343271D02*
X188415Y344011D01*
X188544Y344742D01*
X188736Y345458D01*
X188990Y346156D01*
X189303Y346829D01*
X189674Y347471D01*
X190100Y348079D01*
X190577Y348648D01*
X191102Y349173D01*
X191671Y349650D01*
X192279Y350076D01*
X192921Y350447D01*
X193594Y350760D01*
X194292Y351014D01*
X195009Y351206D01*
X195739Y351335D01*
X196479Y351400D01*
X197221Y351400D01*
X197961Y351335D01*
X198692Y351206D01*
X199408Y351014D01*
X200106Y350760D01*
X200779Y350447D01*
X201421Y350076D01*
X202029Y349650D01*
X202598Y349173D01*
X203123Y348648D01*
X203600Y348079D01*
X204026Y347471D01*
X204397Y346829D01*
X204710Y346156D01*
X204964Y345458D01*
X205156Y344742D01*
X205285Y344011D01*
X205350Y343271D01*
X205350Y342529D01*
X205285Y341789D01*
X205156Y341059D01*
X204964Y340342D01*
X204710Y339644D01*
X204397Y338971D01*
X204026Y338329D01*
X203600Y337721D01*
X203123Y337152D01*
X202598Y336627D01*
X202029Y336150D01*
X201421Y335724D01*
X200779Y335353D01*
X200106Y335040D01*
X199408Y334786D01*
X198692Y334594D01*
X197961Y334465D01*
X197221Y334400D01*
X196479Y334400D01*
X195739Y334465D01*
X195009Y334594D01*
X194292Y334786D01*
X193594Y335040D01*
X192921Y335353D01*
X192279Y335724D01*
X191671Y336150D01*
X191102Y336627D01*
X190577Y337152D01*
X190100Y337721D01*
X189674Y338329D01*
X189303Y338971D01*
X188990Y339644D01*
X188736Y340342D01*
X188544Y341059D01*
X188415Y341789D01*
X188350Y342529D01*
X188350Y343271D01*
X86750Y343271D02*
X86815Y344011D01*
X86944Y344742D01*
X87136Y345458D01*
X87390Y346156D01*
X87703Y346829D01*
X88074Y347471D01*
X88500Y348079D01*
X88977Y348648D01*
X89502Y349173D01*
X90071Y349650D01*
X90679Y350076D01*
X91321Y350447D01*
X91994Y350760D01*
X92692Y351014D01*
X93409Y351206D01*
X94139Y351335D01*
X94879Y351400D01*
X95621Y351400D01*
X96361Y351335D01*
X97092Y351206D01*
X97808Y351014D01*
X98506Y350760D01*
X99179Y350447D01*
X99821Y350076D01*
X100429Y349650D01*
X100998Y349173D01*
X101523Y348648D01*
X102000Y348079D01*
X102426Y347471D01*
X102797Y346829D01*
X103110Y346156D01*
X103364Y345458D01*
X103556Y344742D01*
X103685Y344011D01*
X103750Y343271D01*
X103750Y342529D01*
X103685Y341789D01*
X103556Y341059D01*
X103364Y340342D01*
X103110Y339644D01*
X102797Y338971D01*
X102426Y338329D01*
X102000Y337721D01*
X101523Y337152D01*
X100998Y336627D01*
X100429Y336150D01*
X99821Y335724D01*
X99179Y335353D01*
X98506Y335040D01*
X97808Y334786D01*
X97092Y334594D01*
X96361Y334465D01*
X95621Y334400D01*
X94879Y334400D01*
X94139Y334465D01*
X93409Y334594D01*
X92692Y334786D01*
X91994Y335040D01*
X91321Y335353D01*
X90679Y335724D01*
X90071Y336150D01*
X89502Y336627D01*
X88977Y337152D01*
X88500Y337721D01*
X88074Y338329D01*
X87703Y338971D01*
X87390Y339644D01*
X87136Y340342D01*
X86944Y341059D01*
X86815Y341789D01*
X86750Y342529D01*
X86750Y343271D01*
X125550Y343519D02*
X125625Y344756D01*
X125774Y345986D01*
X125997Y347205D01*
X126294Y348407D01*
X126663Y349590D01*
X127102Y350749D01*
X127610Y351878D01*
X128186Y352975D01*
X128827Y354036D01*
X129531Y355055D01*
X130295Y356030D01*
X131116Y356958D01*
X131992Y357834D01*
X132920Y358655D01*
X133895Y359419D01*
X134914Y360123D01*
X135975Y360764D01*
X137072Y361340D01*
X138201Y361848D01*
X139360Y362288D01*
X140543Y362656D01*
X141745Y362953D01*
X142964Y363176D01*
X144194Y363325D01*
X145431Y363400D01*
X146669Y363400D01*
X147906Y363325D01*
X149136Y363176D01*
X150355Y362953D01*
X151557Y362656D01*
X152740Y362288D01*
X153899Y361848D01*
X155028Y361340D01*
X156125Y360764D01*
X157186Y360123D01*
X158205Y359419D01*
X159180Y358655D01*
X160108Y357834D01*
X160984Y356958D01*
X161805Y356030D01*
X162569Y355055D01*
X163273Y354036D01*
X163914Y352975D01*
X164490Y351878D01*
X164998Y350749D01*
X165438Y349590D01*
X165806Y348407D01*
X166103Y347205D01*
X166326Y345986D01*
X166475Y344756D01*
X166550Y343519D01*
X166550Y342281D01*
X166475Y341044D01*
X166326Y339814D01*
X166103Y338595D01*
X165806Y337393D01*
X165438Y336210D01*
X164998Y335051D01*
X164490Y333922D01*
X163914Y332825D01*
X163273Y331764D01*
X162569Y330745D01*
X161805Y329770D01*
X160984Y328842D01*
X160108Y327966D01*
X159180Y327145D01*
X158205Y326381D01*
X157186Y325677D01*
X156125Y325036D01*
X155028Y324460D01*
X153899Y323952D01*
X152740Y323513D01*
X151557Y323144D01*
X150355Y322847D01*
X149136Y322624D01*
X147906Y322475D01*
X146669Y322400D01*
X145431Y322400D01*
X144194Y322475D01*
X142964Y322624D01*
X141745Y322847D01*
X140543Y323144D01*
X139360Y323513D01*
X138201Y323952D01*
X137072Y324460D01*
X135975Y325036D01*
X134914Y325677D01*
X133895Y326381D01*
X132920Y327145D01*
X131992Y327966D01*
X131116Y328842D01*
X130295Y329770D01*
X129531Y330745D01*
X128827Y331764D01*
X128186Y332825D01*
X127610Y333922D01*
X127102Y335051D01*
X126663Y336210D01*
X126294Y337393D01*
X125997Y338595D01*
X125774Y339814D01*
X125625Y341044D01*
X125550Y342281D01*
X125550Y343519D01*
X378850Y343271D02*
X378915Y344011D01*
X379044Y344742D01*
X379236Y345458D01*
X379490Y346156D01*
X379803Y346829D01*
X380174Y347471D01*
X380600Y348079D01*
X381077Y348648D01*
X381602Y349173D01*
X382171Y349650D01*
X382779Y350076D01*
X383421Y350447D01*
X384094Y350760D01*
X384792Y351014D01*
X385509Y351206D01*
X386239Y351335D01*
X386979Y351400D01*
X387721Y351400D01*
X388461Y351335D01*
X389192Y351206D01*
X389908Y351014D01*
X390606Y350760D01*
X391279Y350447D01*
X391921Y350076D01*
X392529Y349650D01*
X393098Y349173D01*
X393623Y348648D01*
X394100Y348079D01*
X394526Y347471D01*
X394897Y346829D01*
X395210Y346156D01*
X395464Y345458D01*
X395656Y344742D01*
X395785Y344011D01*
X395850Y343271D01*
X395850Y342529D01*
X395785Y341789D01*
X395656Y341059D01*
X395464Y340342D01*
X395210Y339644D01*
X394897Y338971D01*
X394526Y338329D01*
X394100Y337721D01*
X393623Y337152D01*
X393098Y336627D01*
X392529Y336150D01*
X391921Y335724D01*
X391279Y335353D01*
X390606Y335040D01*
X389908Y334786D01*
X389192Y334594D01*
X388461Y334465D01*
X387721Y334400D01*
X386979Y334400D01*
X386239Y334465D01*
X385509Y334594D01*
X384792Y334786D01*
X384094Y335040D01*
X383421Y335353D01*
X382779Y335724D01*
X382171Y336150D01*
X381602Y336627D01*
X381077Y337152D01*
X380600Y337721D01*
X380174Y338329D01*
X379803Y338971D01*
X379490Y339644D01*
X379236Y340342D01*
X379044Y341059D01*
X378915Y341789D01*
X378850Y342529D01*
X378850Y343271D01*
X277250Y343271D02*
X277315Y344011D01*
X277444Y344742D01*
X277636Y345458D01*
X277890Y346156D01*
X278203Y346829D01*
X278574Y347471D01*
X279000Y348079D01*
X279477Y348648D01*
X280002Y349173D01*
X280571Y349650D01*
X281179Y350076D01*
X281821Y350447D01*
X282494Y350760D01*
X283192Y351014D01*
X283909Y351206D01*
X284639Y351335D01*
X285379Y351400D01*
X286121Y351400D01*
X286861Y351335D01*
X287592Y351206D01*
X288308Y351014D01*
X289006Y350760D01*
X289679Y350447D01*
X290321Y350076D01*
X290929Y349650D01*
X291498Y349173D01*
X292023Y348648D01*
X292500Y348079D01*
X292926Y347471D01*
X293297Y346829D01*
X293610Y346156D01*
X293864Y345458D01*
X294056Y344742D01*
X294185Y344011D01*
X294250Y343271D01*
X294250Y342529D01*
X294185Y341789D01*
X294056Y341059D01*
X293864Y340342D01*
X293610Y339644D01*
X293297Y338971D01*
X292926Y338329D01*
X292500Y337721D01*
X292023Y337152D01*
X291498Y336627D01*
X290929Y336150D01*
X290321Y335724D01*
X289679Y335353D01*
X289006Y335040D01*
X288308Y334786D01*
X287592Y334594D01*
X286861Y334465D01*
X286121Y334400D01*
X285379Y334400D01*
X284639Y334465D01*
X283909Y334594D01*
X283192Y334786D01*
X282494Y335040D01*
X281821Y335353D01*
X281179Y335724D01*
X280571Y336150D01*
X280002Y336627D01*
X279477Y337152D01*
X279000Y337721D01*
X278574Y338329D01*
X278203Y338971D01*
X277890Y339644D01*
X277636Y340342D01*
X277444Y341059D01*
X277315Y341789D01*
X277250Y342529D01*
X277250Y343271D01*
X316050Y343519D02*
X316125Y344756D01*
X316274Y345986D01*
X316497Y347205D01*
X316794Y348407D01*
X317163Y349590D01*
X317602Y350749D01*
X318110Y351878D01*
X318686Y352975D01*
X319327Y354036D01*
X320031Y355055D01*
X320795Y356030D01*
X321616Y356958D01*
X322492Y357834D01*
X323420Y358655D01*
X324395Y359419D01*
X325414Y360123D01*
X326475Y360764D01*
X327572Y361340D01*
X328701Y361848D01*
X329860Y362288D01*
X331043Y362656D01*
X332245Y362953D01*
X333464Y363176D01*
X334694Y363325D01*
X335931Y363400D01*
X337169Y363400D01*
X338406Y363325D01*
X339636Y363176D01*
X340855Y362953D01*
X342057Y362656D01*
X343240Y362288D01*
X344399Y361848D01*
X345528Y361340D01*
X346625Y360764D01*
X347686Y360123D01*
X348705Y359419D01*
X349680Y358655D01*
X350608Y357834D01*
X351484Y356958D01*
X352305Y356030D01*
X353069Y355055D01*
X353773Y354036D01*
X354414Y352975D01*
X354990Y351878D01*
X355498Y350749D01*
X355938Y349590D01*
X356306Y348407D01*
X356603Y347205D01*
X356826Y345986D01*
X356975Y344756D01*
X357050Y343519D01*
X357050Y342281D01*
X356975Y341044D01*
X356826Y339814D01*
X356603Y338595D01*
X356306Y337393D01*
X355938Y336210D01*
X355498Y335051D01*
X354990Y333922D01*
X354414Y332825D01*
X353773Y331764D01*
X353069Y330745D01*
X352305Y329770D01*
X351484Y328842D01*
X350608Y327966D01*
X349680Y327145D01*
X348705Y326381D01*
X347686Y325677D01*
X346625Y325036D01*
X345528Y324460D01*
X344399Y323952D01*
X343240Y323513D01*
X342057Y323144D01*
X340855Y322847D01*
X339636Y322624D01*
X338406Y322475D01*
X337169Y322400D01*
X335931Y322400D01*
X334694Y322475D01*
X333464Y322624D01*
X332245Y322847D01*
X331043Y323144D01*
X329860Y323513D01*
X328701Y323952D01*
X327572Y324460D01*
X326475Y325036D01*
X325414Y325677D01*
X324395Y326381D01*
X323420Y327145D01*
X322492Y327966D01*
X321616Y328842D01*
X320795Y329770D01*
X320031Y330745D01*
X319327Y331764D01*
X318686Y332825D01*
X318110Y333922D01*
X317602Y335051D01*
X317163Y336210D01*
X316794Y337393D01*
X316497Y338595D01*
X316274Y339814D01*
X316125Y341044D01*
X316050Y342281D01*
X316050Y343519D01*
X569350Y343271D02*
X569415Y344011D01*
X569544Y344742D01*
X569736Y345458D01*
X569990Y346156D01*
X570303Y346829D01*
X570674Y347471D01*
X571100Y348079D01*
X571577Y348648D01*
X572102Y349173D01*
X572671Y349650D01*
X573279Y350076D01*
X573921Y350447D01*
X574594Y350760D01*
X575292Y351014D01*
X576009Y351206D01*
X576739Y351335D01*
X577479Y351400D01*
X578221Y351400D01*
X578961Y351335D01*
X579692Y351206D01*
X580408Y351014D01*
X581106Y350760D01*
X581779Y350447D01*
X582421Y350076D01*
X583029Y349650D01*
X583598Y349173D01*
X584123Y348648D01*
X584600Y348079D01*
X585026Y347471D01*
X585397Y346829D01*
X585710Y346156D01*
X585964Y345458D01*
X586156Y344742D01*
X586285Y344011D01*
X586350Y343271D01*
X586350Y342529D01*
X586285Y341789D01*
X586156Y341059D01*
X585964Y340342D01*
X585710Y339644D01*
X585397Y338971D01*
X585026Y338329D01*
X584600Y337721D01*
X584123Y337152D01*
X583598Y336627D01*
X583029Y336150D01*
X582421Y335724D01*
X581779Y335353D01*
X581106Y335040D01*
X580408Y334786D01*
X579692Y334594D01*
X578961Y334465D01*
X578221Y334400D01*
X577479Y334400D01*
X576739Y334465D01*
X576009Y334594D01*
X575292Y334786D01*
X574594Y335040D01*
X573921Y335353D01*
X573279Y335724D01*
X572671Y336150D01*
X572102Y336627D01*
X571577Y337152D01*
X571100Y337721D01*
X570674Y338329D01*
X570303Y338971D01*
X569990Y339644D01*
X569736Y340342D01*
X569544Y341059D01*
X569415Y341789D01*
X569350Y342529D01*
X569350Y343271D01*
X467750Y343271D02*
X467815Y344011D01*
X467944Y344742D01*
X468136Y345458D01*
X468390Y346156D01*
X468703Y346829D01*
X469074Y347471D01*
X469500Y348079D01*
X469977Y348648D01*
X470502Y349173D01*
X471071Y349650D01*
X471679Y350076D01*
X472321Y350447D01*
X472994Y350760D01*
X473692Y351014D01*
X474409Y351206D01*
X475139Y351335D01*
X475879Y351400D01*
X476621Y351400D01*
X477361Y351335D01*
X478092Y351206D01*
X478808Y351014D01*
X479506Y350760D01*
X480179Y350447D01*
X480821Y350076D01*
X481429Y349650D01*
X481998Y349173D01*
X482523Y348648D01*
X483000Y348079D01*
X483426Y347471D01*
X483797Y346829D01*
X484110Y346156D01*
X484364Y345458D01*
X484556Y344742D01*
X484685Y344011D01*
X484750Y343271D01*
X484750Y342529D01*
X484685Y341789D01*
X484556Y341059D01*
X484364Y340342D01*
X484110Y339644D01*
X483797Y338971D01*
X483426Y338329D01*
X483000Y337721D01*
X482523Y337152D01*
X481998Y336627D01*
X481429Y336150D01*
X480821Y335724D01*
X480179Y335353D01*
X479506Y335040D01*
X478808Y334786D01*
X478092Y334594D01*
X477361Y334465D01*
X476621Y334400D01*
X475879Y334400D01*
X475139Y334465D01*
X474409Y334594D01*
X473692Y334786D01*
X472994Y335040D01*
X472321Y335353D01*
X471679Y335724D01*
X471071Y336150D01*
X470502Y336627D01*
X469977Y337152D01*
X469500Y337721D01*
X469074Y338329D01*
X468703Y338971D01*
X468390Y339644D01*
X468136Y340342D01*
X467944Y341059D01*
X467815Y341789D01*
X467750Y342529D01*
X467750Y343271D01*
X506550Y343519D02*
X506625Y344756D01*
X506774Y345986D01*
X506997Y347205D01*
X507294Y348407D01*
X507663Y349590D01*
X508102Y350749D01*
X508610Y351878D01*
X509186Y352975D01*
X509827Y354036D01*
X510531Y355055D01*
X511295Y356030D01*
X512116Y356958D01*
X512992Y357834D01*
X513920Y358655D01*
X514895Y359419D01*
X515914Y360123D01*
X516975Y360764D01*
X518072Y361340D01*
X519201Y361848D01*
X520360Y362288D01*
X521543Y362656D01*
X522745Y362953D01*
X523964Y363176D01*
X525194Y363325D01*
X526431Y363400D01*
X527669Y363400D01*
X528906Y363325D01*
X530136Y363176D01*
X531355Y362953D01*
X532557Y362656D01*
X533740Y362288D01*
X534899Y361848D01*
X536028Y361340D01*
X537125Y360764D01*
X538186Y360123D01*
X539205Y359419D01*
X540180Y358655D01*
X541108Y357834D01*
X541984Y356958D01*
X542805Y356030D01*
X543569Y355055D01*
X544273Y354036D01*
X544914Y352975D01*
X545490Y351878D01*
X545998Y350749D01*
X546438Y349590D01*
X546806Y348407D01*
X547103Y347205D01*
X547326Y345986D01*
X547475Y344756D01*
X547550Y343519D01*
X547550Y342281D01*
X547475Y341044D01*
X547326Y339814D01*
X547103Y338595D01*
X546806Y337393D01*
X546438Y336210D01*
X545998Y335051D01*
X545490Y333922D01*
X544914Y332825D01*
X544273Y331764D01*
X543569Y330745D01*
X542805Y329770D01*
X541984Y328842D01*
X541108Y327966D01*
X540180Y327145D01*
X539205Y326381D01*
X538186Y325677D01*
X537125Y325036D01*
X536028Y324460D01*
X534899Y323952D01*
X533740Y323513D01*
X532557Y323144D01*
X531355Y322847D01*
X530136Y322624D01*
X528906Y322475D01*
X527669Y322400D01*
X526431Y322400D01*
X525194Y322475D01*
X523964Y322624D01*
X522745Y322847D01*
X521543Y323144D01*
X520360Y323513D01*
X519201Y323952D01*
X518072Y324460D01*
X516975Y325036D01*
X515914Y325677D01*
X514895Y326381D01*
X513920Y327145D01*
X512992Y327966D01*
X512116Y328842D01*
X511295Y329770D01*
X510531Y330745D01*
X509827Y331764D01*
X509186Y332825D01*
X508610Y333922D01*
X508102Y335051D01*
X507663Y336210D01*
X507294Y337393D01*
X506997Y338595D01*
X506774Y339814D01*
X506625Y341044D01*
X506550Y342281D01*
X506550Y343519D01*
X759850Y343271D02*
X759915Y344011D01*
X760044Y344742D01*
X760236Y345458D01*
X760490Y346156D01*
X760803Y346829D01*
X761174Y347471D01*
X761600Y348079D01*
X762077Y348648D01*
X762602Y349173D01*
X763171Y349650D01*
X763779Y350076D01*
X764421Y350447D01*
X765094Y350760D01*
X765792Y351014D01*
X766509Y351206D01*
X767239Y351335D01*
X767979Y351400D01*
X768721Y351400D01*
X769461Y351335D01*
X770192Y351206D01*
X770908Y351014D01*
X771606Y350760D01*
X772279Y350447D01*
X772921Y350076D01*
X773529Y349650D01*
X774098Y349173D01*
X774623Y348648D01*
X775100Y348079D01*
X775526Y347471D01*
X775897Y346829D01*
X776210Y346156D01*
X776464Y345458D01*
X776656Y344742D01*
X776785Y344011D01*
X776850Y343271D01*
X776850Y342529D01*
X776785Y341789D01*
X776656Y341059D01*
X776464Y340342D01*
X776210Y339644D01*
X775897Y338971D01*
X775526Y338329D01*
X775100Y337721D01*
X774623Y337152D01*
X774098Y336627D01*
X773529Y336150D01*
X772921Y335724D01*
X772279Y335353D01*
X771606Y335040D01*
X770908Y334786D01*
X770192Y334594D01*
X769461Y334465D01*
X768721Y334400D01*
X767979Y334400D01*
X767239Y334465D01*
X766509Y334594D01*
X765792Y334786D01*
X765094Y335040D01*
X764421Y335353D01*
X763779Y335724D01*
X763171Y336150D01*
X762602Y336627D01*
X762077Y337152D01*
X761600Y337721D01*
X761174Y338329D01*
X760803Y338971D01*
X760490Y339644D01*
X760236Y340342D01*
X760044Y341059D01*
X759915Y341789D01*
X759850Y342529D01*
X759850Y343271D01*
X658250Y343271D02*
X658315Y344011D01*
X658444Y344742D01*
X658636Y345458D01*
X658890Y346156D01*
X659203Y346829D01*
X659574Y347471D01*
X660000Y348079D01*
X660477Y348648D01*
X661002Y349173D01*
X661571Y349650D01*
X662179Y350076D01*
X662821Y350447D01*
X663494Y350760D01*
X664192Y351014D01*
X664909Y351206D01*
X665639Y351335D01*
X666379Y351400D01*
X667121Y351400D01*
X667861Y351335D01*
X668592Y351206D01*
X669308Y351014D01*
X670006Y350760D01*
X670679Y350447D01*
X671321Y350076D01*
X671929Y349650D01*
X672498Y349173D01*
X673023Y348648D01*
X673500Y348079D01*
X673926Y347471D01*
X674297Y346829D01*
X674610Y346156D01*
X674864Y345458D01*
X675056Y344742D01*
X675185Y344011D01*
X675250Y343271D01*
X675250Y342529D01*
X675185Y341789D01*
X675056Y341059D01*
X674864Y340342D01*
X674610Y339644D01*
X674297Y338971D01*
X673926Y338329D01*
X673500Y337721D01*
X673023Y337152D01*
X672498Y336627D01*
X671929Y336150D01*
X671321Y335724D01*
X670679Y335353D01*
X670006Y335040D01*
X669308Y334786D01*
X668592Y334594D01*
X667861Y334465D01*
X667121Y334400D01*
X666379Y334400D01*
X665639Y334465D01*
X664909Y334594D01*
X664192Y334786D01*
X663494Y335040D01*
X662821Y335353D01*
X662179Y335724D01*
X661571Y336150D01*
X661002Y336627D01*
X660477Y337152D01*
X660000Y337721D01*
X659574Y338329D01*
X659203Y338971D01*
X658890Y339644D01*
X658636Y340342D01*
X658444Y341059D01*
X658315Y341789D01*
X658250Y342529D01*
X658250Y343271D01*
X697050Y343519D02*
X697125Y344756D01*
X697274Y345986D01*
X697497Y347205D01*
X697794Y348407D01*
X698163Y349590D01*
X698602Y350749D01*
X699110Y351878D01*
X699686Y352975D01*
X700327Y354036D01*
X701031Y355055D01*
X701795Y356030D01*
X702616Y356958D01*
X703492Y357834D01*
X704420Y358655D01*
X705395Y359419D01*
X706414Y360123D01*
X707475Y360764D01*
X708572Y361340D01*
X709701Y361848D01*
X710860Y362288D01*
X712043Y362656D01*
X713245Y362953D01*
X714464Y363176D01*
X715694Y363325D01*
X716931Y363400D01*
X718169Y363400D01*
X719406Y363325D01*
X720636Y363176D01*
X721855Y362953D01*
X723057Y362656D01*
X724240Y362288D01*
X725399Y361848D01*
X726528Y361340D01*
X727625Y360764D01*
X728686Y360123D01*
X729705Y359419D01*
X730680Y358655D01*
X731608Y357834D01*
X732484Y356958D01*
X733305Y356030D01*
X734069Y355055D01*
X734773Y354036D01*
X735414Y352975D01*
X735990Y351878D01*
X736498Y350749D01*
X736938Y349590D01*
X737306Y348407D01*
X737603Y347205D01*
X737826Y345986D01*
X737975Y344756D01*
X738050Y343519D01*
X738050Y342281D01*
X737975Y341044D01*
X737826Y339814D01*
X737603Y338595D01*
X737306Y337393D01*
X736938Y336210D01*
X736498Y335051D01*
X735990Y333922D01*
X735414Y332825D01*
X734773Y331764D01*
X734069Y330745D01*
X733305Y329770D01*
X732484Y328842D01*
X731608Y327966D01*
X730680Y327145D01*
X729705Y326381D01*
X728686Y325677D01*
X727625Y325036D01*
X726528Y324460D01*
X725399Y323952D01*
X724240Y323513D01*
X723057Y323144D01*
X721855Y322847D01*
X720636Y322624D01*
X719406Y322475D01*
X718169Y322400D01*
X716931Y322400D01*
X715694Y322475D01*
X714464Y322624D01*
X713245Y322847D01*
X712043Y323144D01*
X710860Y323513D01*
X709701Y323952D01*
X708572Y324460D01*
X707475Y325036D01*
X706414Y325677D01*
X705395Y326381D01*
X704420Y327145D01*
X703492Y327966D01*
X702616Y328842D01*
X701795Y329770D01*
X701031Y330745D01*
X700327Y331764D01*
X699686Y332825D01*
X699110Y333922D01*
X698602Y335051D01*
X698163Y336210D01*
X697794Y337393D01*
X697497Y338595D01*
X697274Y339814D01*
X697125Y341044D01*
X697050Y342281D01*
X697050Y343519D01*
X103750Y152029D02*
X103685Y151289D01*
X103556Y150559D01*
X103364Y149842D01*
X103110Y149144D01*
X102797Y148471D01*
X102426Y147829D01*
X102000Y147221D01*
X101523Y146652D01*
X100998Y146127D01*
X100429Y145650D01*
X99821Y145224D01*
X99179Y144853D01*
X98506Y144540D01*
X97808Y144286D01*
X97092Y144094D01*
X96361Y143965D01*
X95621Y143900D01*
X94879Y143900D01*
X94139Y143965D01*
X93409Y144094D01*
X92692Y144286D01*
X91994Y144540D01*
X91321Y144853D01*
X90679Y145224D01*
X90071Y145650D01*
X89502Y146127D01*
X88977Y146652D01*
X88500Y147221D01*
X88074Y147829D01*
X87703Y148471D01*
X87390Y149144D01*
X87136Y149842D01*
X86944Y150559D01*
X86815Y151289D01*
X86750Y152029D01*
X86750Y152771D01*
X86815Y153511D01*
X86944Y154242D01*
X87136Y154958D01*
X87390Y155656D01*
X87703Y156329D01*
X88074Y156971D01*
X88500Y157579D01*
X88977Y158148D01*
X89502Y158673D01*
X90071Y159150D01*
X90679Y159576D01*
X91321Y159947D01*
X91994Y160260D01*
X92692Y160514D01*
X93409Y160706D01*
X94139Y160835D01*
X94879Y160900D01*
X95621Y160900D01*
X96361Y160835D01*
X97092Y160706D01*
X97808Y160514D01*
X98506Y160260D01*
X99179Y159947D01*
X99821Y159576D01*
X100429Y159150D01*
X100998Y158673D01*
X101523Y158148D01*
X102000Y157579D01*
X102426Y156971D01*
X102797Y156329D01*
X103110Y155656D01*
X103364Y154958D01*
X103556Y154242D01*
X103685Y153511D01*
X103750Y152771D01*
X103750Y152029D01*
X205350Y152029D02*
X205285Y151289D01*
X205156Y150559D01*
X204964Y149842D01*
X204710Y149144D01*
X204397Y148471D01*
X204026Y147829D01*
X203600Y147221D01*
X203123Y146652D01*
X202598Y146127D01*
X202029Y145650D01*
X201421Y145224D01*
X200779Y144853D01*
X200106Y144540D01*
X199408Y144286D01*
X198692Y144094D01*
X197961Y143965D01*
X197221Y143900D01*
X196479Y143900D01*
X195739Y143965D01*
X195009Y144094D01*
X194292Y144286D01*
X193594Y144540D01*
X192921Y144853D01*
X192279Y145224D01*
X191671Y145650D01*
X191102Y146127D01*
X190577Y146652D01*
X190100Y147221D01*
X189674Y147829D01*
X189303Y148471D01*
X188990Y149144D01*
X188736Y149842D01*
X188544Y150559D01*
X188415Y151289D01*
X188350Y152029D01*
X188350Y152771D01*
X188415Y153511D01*
X188544Y154242D01*
X188736Y154958D01*
X188990Y155656D01*
X189303Y156329D01*
X189674Y156971D01*
X190100Y157579D01*
X190577Y158148D01*
X191102Y158673D01*
X191671Y159150D01*
X192279Y159576D01*
X192921Y159947D01*
X193594Y160260D01*
X194292Y160514D01*
X195009Y160706D01*
X195739Y160835D01*
X196479Y160900D01*
X197221Y160900D01*
X197961Y160835D01*
X198692Y160706D01*
X199408Y160514D01*
X200106Y160260D01*
X200779Y159947D01*
X201421Y159576D01*
X202029Y159150D01*
X202598Y158673D01*
X203123Y158148D01*
X203600Y157579D01*
X204026Y156971D01*
X204397Y156329D01*
X204710Y155656D01*
X204964Y154958D01*
X205156Y154242D01*
X205285Y153511D01*
X205350Y152771D01*
X205350Y152029D01*
X166550Y151781D02*
X166475Y150544D01*
X166326Y149314D01*
X166103Y148095D01*
X165806Y146893D01*
X165438Y145710D01*
X164998Y144551D01*
X164490Y143422D01*
X163914Y142325D01*
X163273Y141264D01*
X162569Y140245D01*
X161805Y139270D01*
X160984Y138342D01*
X160108Y137466D01*
X159180Y136645D01*
X158205Y135881D01*
X157186Y135177D01*
X156125Y134536D01*
X155028Y133960D01*
X153899Y133452D01*
X152740Y133013D01*
X151557Y132644D01*
X150355Y132347D01*
X149136Y132124D01*
X147906Y131975D01*
X146669Y131900D01*
X145431Y131900D01*
X144194Y131975D01*
X142964Y132124D01*
X141745Y132347D01*
X140543Y132644D01*
X139360Y133013D01*
X138201Y133452D01*
X137072Y133960D01*
X135975Y134536D01*
X134914Y135177D01*
X133895Y135881D01*
X132920Y136645D01*
X131992Y137466D01*
X131116Y138342D01*
X130295Y139270D01*
X129531Y140245D01*
X128827Y141264D01*
X128186Y142325D01*
X127610Y143422D01*
X127102Y144551D01*
X126663Y145710D01*
X126294Y146893D01*
X125997Y148095D01*
X125774Y149314D01*
X125625Y150544D01*
X125550Y151781D01*
X125550Y153019D01*
X125625Y154256D01*
X125774Y155486D01*
X125997Y156705D01*
X126294Y157907D01*
X126663Y159090D01*
X127102Y160249D01*
X127610Y161378D01*
X128186Y162475D01*
X128827Y163536D01*
X129531Y164555D01*
X130295Y165530D01*
X131116Y166458D01*
X131992Y167334D01*
X132920Y168155D01*
X133895Y168919D01*
X134914Y169623D01*
X135975Y170264D01*
X137072Y170840D01*
X138201Y171348D01*
X139360Y171788D01*
X140543Y172156D01*
X141745Y172453D01*
X142964Y172676D01*
X144194Y172825D01*
X145431Y172900D01*
X146669Y172900D01*
X147906Y172825D01*
X149136Y172676D01*
X150355Y172453D01*
X151557Y172156D01*
X152740Y171788D01*
X153899Y171348D01*
X155028Y170840D01*
X156125Y170264D01*
X157186Y169623D01*
X158205Y168919D01*
X159180Y168155D01*
X160108Y167334D01*
X160984Y166458D01*
X161805Y165530D01*
X162569Y164555D01*
X163273Y163536D01*
X163914Y162475D01*
X164490Y161378D01*
X164998Y160249D01*
X165438Y159090D01*
X165806Y157907D01*
X166103Y156705D01*
X166326Y155486D01*
X166475Y154256D01*
X166550Y153019D01*
X166550Y151781D01*
X294250Y152029D02*
X294185Y151289D01*
X294056Y150559D01*
X293864Y149842D01*
X293610Y149144D01*
X293297Y148471D01*
X292926Y147829D01*
X292500Y147221D01*
X292023Y146652D01*
X291498Y146127D01*
X290929Y145650D01*
X290321Y145224D01*
X289679Y144853D01*
X289006Y144540D01*
X288308Y144286D01*
X287592Y144094D01*
X286861Y143965D01*
X286121Y143900D01*
X285379Y143900D01*
X284639Y143965D01*
X283909Y144094D01*
X283192Y144286D01*
X282494Y144540D01*
X281821Y144853D01*
X281179Y145224D01*
X280571Y145650D01*
X280002Y146127D01*
X279477Y146652D01*
X279000Y147221D01*
X278574Y147829D01*
X278203Y148471D01*
X277890Y149144D01*
X277636Y149842D01*
X277444Y150559D01*
X277315Y151289D01*
X277250Y152029D01*
X277250Y152771D01*
X277315Y153511D01*
X277444Y154242D01*
X277636Y154958D01*
X277890Y155656D01*
X278203Y156329D01*
X278574Y156971D01*
X279000Y157579D01*
X279477Y158148D01*
X280002Y158673D01*
X280571Y159150D01*
X281179Y159576D01*
X281821Y159947D01*
X282494Y160260D01*
X283192Y160514D01*
X283909Y160706D01*
X284639Y160835D01*
X285379Y160900D01*
X286121Y160900D01*
X286861Y160835D01*
X287592Y160706D01*
X288308Y160514D01*
X289006Y160260D01*
X289679Y159947D01*
X290321Y159576D01*
X290929Y159150D01*
X291498Y158673D01*
X292023Y158148D01*
X292500Y157579D01*
X292926Y156971D01*
X293297Y156329D01*
X293610Y155656D01*
X293864Y154958D01*
X294056Y154242D01*
X294185Y153511D01*
X294250Y152771D01*
X294250Y152029D01*
X395850Y152029D02*
X395785Y151289D01*
X395656Y150559D01*
X395464Y149842D01*
X395210Y149144D01*
X394897Y148471D01*
X394526Y147829D01*
X394100Y147221D01*
X393623Y146652D01*
X393098Y146127D01*
X392529Y145650D01*
X391921Y145224D01*
X391279Y144853D01*
X390606Y144540D01*
X389908Y144286D01*
X389192Y144094D01*
X388461Y143965D01*
X387721Y143900D01*
X386979Y143900D01*
X386239Y143965D01*
X385509Y144094D01*
X384792Y144286D01*
X384094Y144540D01*
X383421Y144853D01*
X382779Y145224D01*
X382171Y145650D01*
X381602Y146127D01*
X381077Y146652D01*
X380600Y147221D01*
X380174Y147829D01*
X379803Y148471D01*
X379490Y149144D01*
X379236Y149842D01*
X379044Y150559D01*
X378915Y151289D01*
X378850Y152029D01*
X378850Y152771D01*
X378915Y153511D01*
X379044Y154242D01*
X379236Y154958D01*
X379490Y155656D01*
X379803Y156329D01*
X380174Y156971D01*
X380600Y157579D01*
X381077Y158148D01*
X381602Y158673D01*
X382171Y159150D01*
X382779Y159576D01*
X383421Y159947D01*
X384094Y160260D01*
X384792Y160514D01*
X385509Y160706D01*
X386239Y160835D01*
X386979Y160900D01*
X387721Y160900D01*
X388461Y160835D01*
X389192Y160706D01*
X389908Y160514D01*
X390606Y160260D01*
X391279Y159947D01*
X391921Y159576D01*
X392529Y159150D01*
X393098Y158673D01*
X393623Y158148D01*
X394100Y157579D01*
X394526Y156971D01*
X394897Y156329D01*
X395210Y155656D01*
X395464Y154958D01*
X395656Y154242D01*
X395785Y153511D01*
X395850Y152771D01*
X395850Y152029D01*
X357050Y151781D02*
X356975Y150544D01*
X356826Y149314D01*
X356603Y148095D01*
X356306Y146893D01*
X355938Y145710D01*
X355498Y144551D01*
X354990Y143422D01*
X354414Y142325D01*
X353773Y141264D01*
X353069Y140245D01*
X352305Y139270D01*
X351484Y138342D01*
X350608Y137466D01*
X349680Y136645D01*
X348705Y135881D01*
X347686Y135177D01*
X346625Y134536D01*
X345528Y133960D01*
X344399Y133452D01*
X343240Y133013D01*
X342057Y132644D01*
X340855Y132347D01*
X339636Y132124D01*
X338406Y131975D01*
X337169Y131900D01*
X335931Y131900D01*
X334694Y131975D01*
X333464Y132124D01*
X332245Y132347D01*
X331043Y132644D01*
X329860Y133013D01*
X328701Y133452D01*
X327572Y133960D01*
X326475Y134536D01*
X325414Y135177D01*
X324395Y135881D01*
X323420Y136645D01*
X322492Y137466D01*
X321616Y138342D01*
X320795Y139270D01*
X320031Y140245D01*
X319327Y141264D01*
X318686Y142325D01*
X318110Y143422D01*
X317602Y144551D01*
X317163Y145710D01*
X316794Y146893D01*
X316497Y148095D01*
X316274Y149314D01*
X316125Y150544D01*
X316050Y151781D01*
X316050Y153019D01*
X316125Y154256D01*
X316274Y155486D01*
X316497Y156705D01*
X316794Y157907D01*
X317163Y159090D01*
X317602Y160249D01*
X318110Y161378D01*
X318686Y162475D01*
X319327Y163536D01*
X320031Y164555D01*
X320795Y165530D01*
X321616Y166458D01*
X322492Y167334D01*
X323420Y168155D01*
X324395Y168919D01*
X325414Y169623D01*
X326475Y170264D01*
X327572Y170840D01*
X328701Y171348D01*
X329860Y171788D01*
X331043Y172156D01*
X332245Y172453D01*
X333464Y172676D01*
X334694Y172825D01*
X335931Y172900D01*
X337169Y172900D01*
X338406Y172825D01*
X339636Y172676D01*
X340855Y172453D01*
X342057Y172156D01*
X343240Y171788D01*
X344399Y171348D01*
X345528Y170840D01*
X346625Y170264D01*
X347686Y169623D01*
X348705Y168919D01*
X349680Y168155D01*
X350608Y167334D01*
X351484Y166458D01*
X352305Y165530D01*
X353069Y164555D01*
X353773Y163536D01*
X354414Y162475D01*
X354990Y161378D01*
X355498Y160249D01*
X355938Y159090D01*
X356306Y157907D01*
X356603Y156705D01*
X356826Y155486D01*
X356975Y154256D01*
X357050Y153019D01*
X357050Y151781D01*
X484750Y152029D02*
X484685Y151289D01*
X484556Y150559D01*
X484364Y149842D01*
X484110Y149144D01*
X483797Y148471D01*
X483426Y147829D01*
X483000Y147221D01*
X482523Y146652D01*
X481998Y146127D01*
X481429Y145650D01*
X480821Y145224D01*
X480179Y144853D01*
X479506Y144540D01*
X478808Y144286D01*
X478092Y144094D01*
X477361Y143965D01*
X476621Y143900D01*
X475879Y143900D01*
X475139Y143965D01*
X474409Y144094D01*
X473692Y144286D01*
X472994Y144540D01*
X472321Y144853D01*
X471679Y145224D01*
X471071Y145650D01*
X470502Y146127D01*
X469977Y146652D01*
X469500Y147221D01*
X469074Y147829D01*
X468703Y148471D01*
X468390Y149144D01*
X468136Y149842D01*
X467944Y150559D01*
X467815Y151289D01*
X467750Y152029D01*
X467750Y152771D01*
X467815Y153511D01*
X467944Y154242D01*
X468136Y154958D01*
X468390Y155656D01*
X468703Y156329D01*
X469074Y156971D01*
X469500Y157579D01*
X469977Y158148D01*
X470502Y158673D01*
X471071Y159150D01*
X471679Y159576D01*
X472321Y159947D01*
X472994Y160260D01*
X473692Y160514D01*
X474409Y160706D01*
X475139Y160835D01*
X475879Y160900D01*
X476621Y160900D01*
X477361Y160835D01*
X478092Y160706D01*
X478808Y160514D01*
X479506Y160260D01*
X480179Y159947D01*
X480821Y159576D01*
X481429Y159150D01*
X481998Y158673D01*
X482523Y158148D01*
X483000Y157579D01*
X483426Y156971D01*
X483797Y156329D01*
X484110Y155656D01*
X484364Y154958D01*
X484556Y154242D01*
X484685Y153511D01*
X484750Y152771D01*
X484750Y152029D01*
X586350Y152029D02*
X586285Y151289D01*
X586156Y150559D01*
X585964Y149842D01*
X585710Y149144D01*
X585397Y148471D01*
X585026Y147829D01*
X584600Y147221D01*
X584123Y146652D01*
X583598Y146127D01*
X583029Y145650D01*
X582421Y145224D01*
X581779Y144853D01*
X581106Y144540D01*
X580408Y144286D01*
X579692Y144094D01*
X578961Y143965D01*
X578221Y143900D01*
X577479Y143900D01*
X576739Y143965D01*
X576009Y144094D01*
X575292Y144286D01*
X574594Y144540D01*
X573921Y144853D01*
X573279Y145224D01*
X572671Y145650D01*
X572102Y146127D01*
X571577Y146652D01*
X571100Y147221D01*
X570674Y147829D01*
X570303Y148471D01*
X569990Y149144D01*
X569736Y149842D01*
X569544Y150559D01*
X569415Y151289D01*
X569350Y152029D01*
X569350Y152771D01*
X569415Y153511D01*
X569544Y154242D01*
X569736Y154958D01*
X569990Y155656D01*
X570303Y156329D01*
X570674Y156971D01*
X571100Y157579D01*
X571577Y158148D01*
X572102Y158673D01*
X572671Y159150D01*
X573279Y159576D01*
X573921Y159947D01*
X574594Y160260D01*
X575292Y160514D01*
X576009Y160706D01*
X576739Y160835D01*
X577479Y160900D01*
X578221Y160900D01*
X578961Y160835D01*
X579692Y160706D01*
X580408Y160514D01*
X581106Y160260D01*
X581779Y159947D01*
X582421Y159576D01*
X583029Y159150D01*
X583598Y158673D01*
X584123Y158148D01*
X584600Y157579D01*
X585026Y156971D01*
X585397Y156329D01*
X585710Y155656D01*
X585964Y154958D01*
X586156Y154242D01*
X586285Y153511D01*
X586350Y152771D01*
X586350Y152029D01*
X547550Y151781D02*
X547475Y150544D01*
X547326Y149314D01*
X547103Y148095D01*
X546806Y146893D01*
X546438Y145710D01*
X545998Y144551D01*
X545490Y143422D01*
X544914Y142325D01*
X544273Y141264D01*
X543569Y140245D01*
X542805Y139270D01*
X541984Y138342D01*
X541108Y137466D01*
X540180Y136645D01*
X539205Y135881D01*
X538186Y135177D01*
X537125Y134536D01*
X536028Y133960D01*
X534899Y133452D01*
X533740Y133013D01*
X532557Y132644D01*
X531355Y132347D01*
X530136Y132124D01*
X528906Y131975D01*
X527669Y131900D01*
X526431Y131900D01*
X525194Y131975D01*
X523964Y132124D01*
X522745Y132347D01*
X521543Y132644D01*
X520360Y133013D01*
X519201Y133452D01*
X518072Y133960D01*
X516975Y134536D01*
X515914Y135177D01*
X514895Y135881D01*
X513920Y136645D01*
X512992Y137466D01*
X512116Y138342D01*
X511295Y139270D01*
X510531Y140245D01*
X509827Y141264D01*
X509186Y142325D01*
X508610Y143422D01*
X508102Y144551D01*
X507663Y145710D01*
X507294Y146893D01*
X506997Y148095D01*
X506774Y149314D01*
X506625Y150544D01*
X506550Y151781D01*
X506550Y153019D01*
X506625Y154256D01*
X506774Y155486D01*
X506997Y156705D01*
X507294Y157907D01*
X507663Y159090D01*
X508102Y160249D01*
X508610Y161378D01*
X509186Y162475D01*
X509827Y163536D01*
X510531Y164555D01*
X511295Y165530D01*
X512116Y166458D01*
X512992Y167334D01*
X513920Y168155D01*
X514895Y168919D01*
X515914Y169623D01*
X516975Y170264D01*
X518072Y170840D01*
X519201Y171348D01*
X520360Y171788D01*
X521543Y172156D01*
X522745Y172453D01*
X523964Y172676D01*
X525194Y172825D01*
X526431Y172900D01*
X527669Y172900D01*
X528906Y172825D01*
X530136Y172676D01*
X531355Y172453D01*
X532557Y172156D01*
X533740Y171788D01*
X534899Y171348D01*
X536028Y170840D01*
X537125Y170264D01*
X538186Y169623D01*
X539205Y168919D01*
X540180Y168155D01*
X541108Y167334D01*
X541984Y166458D01*
X542805Y165530D01*
X543569Y164555D01*
X544273Y163536D01*
X544914Y162475D01*
X545490Y161378D01*
X545998Y160249D01*
X546438Y159090D01*
X546806Y157907D01*
X547103Y156705D01*
X547326Y155486D01*
X547475Y154256D01*
X547550Y153019D01*
X547550Y151781D01*
X675250Y152029D02*
X675185Y151289D01*
X675056Y150559D01*
X674864Y149842D01*
X674610Y149144D01*
X674297Y148471D01*
X673926Y147829D01*
X673500Y147221D01*
X673023Y146652D01*
X672498Y146127D01*
X671929Y145650D01*
X671321Y145224D01*
X670679Y144853D01*
X670006Y144540D01*
X669308Y144286D01*
X668592Y144094D01*
X667861Y143965D01*
X667121Y143900D01*
X666379Y143900D01*
X665639Y143965D01*
X664909Y144094D01*
X664192Y144286D01*
X663494Y144540D01*
X662821Y144853D01*
X662179Y145224D01*
X661571Y145650D01*
X661002Y146127D01*
X660477Y146652D01*
X660000Y147221D01*
X659574Y147829D01*
X659203Y148471D01*
X658890Y149144D01*
X658636Y149842D01*
X658444Y150559D01*
X658315Y151289D01*
X658250Y152029D01*
X658250Y152771D01*
X658315Y153511D01*
X658444Y154242D01*
X658636Y154958D01*
X658890Y155656D01*
X659203Y156329D01*
X659574Y156971D01*
X660000Y157579D01*
X660477Y158148D01*
X661002Y158673D01*
X661571Y159150D01*
X662179Y159576D01*
X662821Y159947D01*
X663494Y160260D01*
X664192Y160514D01*
X664909Y160706D01*
X665639Y160835D01*
X666379Y160900D01*
X667121Y160900D01*
X667861Y160835D01*
X668592Y160706D01*
X669308Y160514D01*
X670006Y160260D01*
X670679Y159947D01*
X671321Y159576D01*
X671929Y159150D01*
X672498Y158673D01*
X673023Y158148D01*
X673500Y157579D01*
X673926Y156971D01*
X674297Y156329D01*
X674610Y155656D01*
X674864Y154958D01*
X675056Y154242D01*
X675185Y153511D01*
X675250Y152771D01*
X675250Y152029D01*
X776850Y152029D02*
X776785Y151289D01*
X776656Y150559D01*
X776464Y149842D01*
X776210Y149144D01*
X775897Y148471D01*
X775526Y147829D01*
X775100Y147221D01*
X774623Y146652D01*
X774098Y146127D01*
X773529Y145650D01*
X772921Y145224D01*
X772279Y144853D01*
X771606Y144540D01*
X770908Y144286D01*
X770192Y144094D01*
X769461Y143965D01*
X768721Y143900D01*
X767979Y143900D01*
X767239Y143965D01*
X766509Y144094D01*
X765792Y144286D01*
X765094Y144540D01*
X764421Y144853D01*
X763779Y145224D01*
X763171Y145650D01*
X762602Y146127D01*
X762077Y146652D01*
X761600Y147221D01*
X761174Y147829D01*
X760803Y148471D01*
X760490Y149144D01*
X760236Y149842D01*
X760044Y150559D01*
X759915Y151289D01*
X759850Y152029D01*
X759850Y152771D01*
X759915Y153511D01*
X760044Y154242D01*
X760236Y154958D01*
X760490Y155656D01*
X760803Y156329D01*
X761174Y156971D01*
X761600Y157579D01*
X762077Y158148D01*
X762602Y158673D01*
X763171Y159150D01*
X763779Y159576D01*
X764421Y159947D01*
X765094Y160260D01*
X765792Y160514D01*
X766509Y160706D01*
X767239Y160835D01*
X767979Y160900D01*
X768721Y160900D01*
X769461Y160835D01*
X770192Y160706D01*
X770908Y160514D01*
X771606Y160260D01*
X772279Y159947D01*
X772921Y159576D01*
X773529Y159150D01*
X774098Y158673D01*
X774623Y158148D01*
X775100Y157579D01*
X775526Y156971D01*
X775897Y156329D01*
X776210Y155656D01*
X776464Y154958D01*
X776656Y154242D01*
X776785Y153511D01*
X776850Y152771D01*
X776850Y152029D01*
X738050Y151781D02*
X737975Y150544D01*
X737826Y149314D01*
X737603Y148095D01*
X737306Y146893D01*
X736938Y145710D01*
X736498Y144551D01*
X735990Y143422D01*
X735414Y142325D01*
X734773Y141264D01*
X734069Y140245D01*
X733305Y139270D01*
X732484Y138342D01*
X731608Y137466D01*
X730680Y136645D01*
X729705Y135881D01*
X728686Y135177D01*
X727625Y134536D01*
X726528Y133960D01*
X725399Y133452D01*
X724240Y133013D01*
X723057Y132644D01*
X721855Y132347D01*
X720636Y132124D01*
X719406Y131975D01*
X718169Y131900D01*
X716931Y131900D01*
X715694Y131975D01*
X714464Y132124D01*
X713245Y132347D01*
X712043Y132644D01*
X710860Y133013D01*
X709701Y133452D01*
X708572Y133960D01*
X707475Y134536D01*
X706414Y135177D01*
X705395Y135881D01*
X704420Y136645D01*
X703492Y137466D01*
X702616Y138342D01*
X701795Y139270D01*
X701031Y140245D01*
X700327Y141264D01*
X699686Y142325D01*
X699110Y143422D01*
X698602Y144551D01*
X698163Y145710D01*
X697794Y146893D01*
X697497Y148095D01*
X697274Y149314D01*
X697125Y150544D01*
X697050Y151781D01*
X697050Y153019D01*
X697125Y154256D01*
X697274Y155486D01*
X697497Y156705D01*
X697794Y157907D01*
X698163Y159090D01*
X698602Y160249D01*
X699110Y161378D01*
X699686Y162475D01*
X700327Y163536D01*
X701031Y164555D01*
X701795Y165530D01*
X702616Y166458D01*
X703492Y167334D01*
X704420Y168155D01*
X705395Y168919D01*
X706414Y169623D01*
X707475Y170264D01*
X708572Y170840D01*
X709701Y171348D01*
X710860Y171788D01*
X712043Y172156D01*
X713245Y172453D01*
X714464Y172676D01*
X715694Y172825D01*
X716931Y172900D01*
X718169Y172900D01*
X719406Y172825D01*
X720636Y172676D01*
X721855Y172453D01*
X723057Y172156D01*
X724240Y171788D01*
X725399Y171348D01*
X726528Y170840D01*
X727625Y170264D01*
X728686Y169623D01*
X729705Y168919D01*
X730680Y168155D01*
X731608Y167334D01*
X732484Y166458D01*
X733305Y165530D01*
X734069Y164555D01*
X734773Y163536D01*
X735414Y162475D01*
X735990Y161378D01*
X736498Y160249D01*
X736938Y159090D01*
X737306Y157907D01*
X737603Y156705D01*
X737826Y155486D01*
X737975Y154256D01*
X738050Y153019D01*
X738050Y151781D01*
M02*
