G04 EAGLE Gerber RS-274X export*
G75*
%MOMM*%
%FSLAX34Y34*%
%LPD*%
%INSoldermask Top*%
%IPPOS*%
%AMOC8*
5,1,8,0,0,1.08239X$1,22.5*%
G01*
%ADD10C,0.381000*%
%ADD11C,2.803200*%
%ADD12R,8.890000X4.127500*%
%ADD13C,1.903200*%
%ADD14C,2.743200*%
%ADD15C,4.303200*%
%ADD16C,1.511200*%
%ADD17C,1.727200*%
%ADD18R,1.203200X1.053200*%
%ADD19C,0.959600*%


D10*
X42545Y167005D02*
X20955Y167005D01*
X20955Y173002D01*
X20957Y173155D01*
X20963Y173308D01*
X20973Y173461D01*
X20986Y173614D01*
X21004Y173766D01*
X21025Y173917D01*
X21051Y174068D01*
X21080Y174219D01*
X21113Y174368D01*
X21150Y174517D01*
X21190Y174665D01*
X21234Y174811D01*
X21283Y174957D01*
X21334Y175101D01*
X21390Y175244D01*
X21449Y175385D01*
X21511Y175525D01*
X21578Y175663D01*
X21647Y175799D01*
X21721Y175934D01*
X21797Y176067D01*
X21877Y176197D01*
X21960Y176326D01*
X22047Y176452D01*
X22137Y176576D01*
X22229Y176698D01*
X22325Y176818D01*
X22424Y176934D01*
X22526Y177049D01*
X22631Y177161D01*
X22739Y177270D01*
X22849Y177376D01*
X22962Y177479D01*
X23078Y177580D01*
X23196Y177677D01*
X23316Y177771D01*
X23439Y177863D01*
X23565Y177951D01*
X23692Y178036D01*
X23822Y178117D01*
X23953Y178196D01*
X24087Y178270D01*
X24223Y178342D01*
X24360Y178410D01*
X24499Y178474D01*
X24639Y178535D01*
X24781Y178592D01*
X24925Y178646D01*
X25070Y178696D01*
X25216Y178742D01*
X25363Y178785D01*
X25511Y178823D01*
X25660Y178858D01*
X25810Y178889D01*
X25961Y178917D01*
X26112Y178940D01*
X26264Y178959D01*
X26417Y178975D01*
X26569Y178987D01*
X26722Y178995D01*
X26875Y178999D01*
X27029Y178999D01*
X27182Y178995D01*
X27335Y178987D01*
X27487Y178975D01*
X27640Y178959D01*
X27792Y178940D01*
X27943Y178917D01*
X28094Y178889D01*
X28244Y178858D01*
X28393Y178823D01*
X28541Y178785D01*
X28688Y178742D01*
X28834Y178696D01*
X28979Y178646D01*
X29123Y178592D01*
X29265Y178535D01*
X29405Y178474D01*
X29544Y178410D01*
X29681Y178342D01*
X29817Y178270D01*
X29951Y178196D01*
X30082Y178117D01*
X30212Y178036D01*
X30339Y177951D01*
X30465Y177863D01*
X30588Y177771D01*
X30708Y177677D01*
X30826Y177580D01*
X30942Y177479D01*
X31055Y177376D01*
X31165Y177270D01*
X31273Y177161D01*
X31378Y177049D01*
X31480Y176934D01*
X31579Y176818D01*
X31675Y176698D01*
X31767Y176576D01*
X31857Y176452D01*
X31944Y176326D01*
X32027Y176197D01*
X32107Y176067D01*
X32183Y175934D01*
X32257Y175799D01*
X32326Y175663D01*
X32393Y175525D01*
X32455Y175385D01*
X32514Y175244D01*
X32570Y175101D01*
X32621Y174957D01*
X32670Y174811D01*
X32714Y174665D01*
X32754Y174517D01*
X32791Y174368D01*
X32824Y174219D01*
X32853Y174068D01*
X32879Y173917D01*
X32900Y173766D01*
X32918Y173614D01*
X32931Y173461D01*
X32941Y173308D01*
X32947Y173155D01*
X32949Y173002D01*
X32949Y167005D01*
X28152Y187519D02*
X42545Y187519D01*
X28152Y187519D02*
X28152Y194716D01*
X30551Y194716D01*
X31750Y201500D02*
X31325Y201505D01*
X30901Y201520D01*
X30477Y201546D01*
X30054Y201581D01*
X29631Y201627D01*
X29210Y201682D01*
X28791Y201748D01*
X28373Y201824D01*
X27957Y201909D01*
X27543Y202005D01*
X27131Y202110D01*
X26722Y202225D01*
X26316Y202350D01*
X25913Y202485D01*
X25514Y202629D01*
X25118Y202782D01*
X24726Y202945D01*
X24338Y203118D01*
X23954Y203299D01*
X23830Y203343D01*
X23708Y203391D01*
X23588Y203443D01*
X23469Y203498D01*
X23352Y203556D01*
X23236Y203618D01*
X23123Y203684D01*
X23011Y203752D01*
X22901Y203824D01*
X22794Y203900D01*
X22689Y203978D01*
X22586Y204059D01*
X22486Y204144D01*
X22388Y204231D01*
X22293Y204321D01*
X22201Y204414D01*
X22111Y204510D01*
X22024Y204608D01*
X21940Y204709D01*
X21859Y204812D01*
X21782Y204917D01*
X21707Y205025D01*
X21636Y205135D01*
X21568Y205247D01*
X21503Y205361D01*
X21441Y205477D01*
X21383Y205594D01*
X21329Y205714D01*
X21278Y205835D01*
X21231Y205957D01*
X21187Y206080D01*
X21147Y206205D01*
X21111Y206331D01*
X21078Y206458D01*
X21050Y206586D01*
X21025Y206715D01*
X21003Y206844D01*
X20986Y206974D01*
X20972Y207104D01*
X20963Y207235D01*
X20957Y207366D01*
X20955Y207497D01*
X20957Y207628D01*
X20963Y207759D01*
X20972Y207890D01*
X20986Y208020D01*
X21003Y208150D01*
X21025Y208279D01*
X21050Y208408D01*
X21078Y208536D01*
X21111Y208663D01*
X21147Y208789D01*
X21187Y208914D01*
X21231Y209037D01*
X21278Y209159D01*
X21329Y209280D01*
X21383Y209400D01*
X21441Y209517D01*
X21503Y209633D01*
X21568Y209747D01*
X21636Y209859D01*
X21707Y209969D01*
X21782Y210077D01*
X21859Y210182D01*
X21940Y210285D01*
X22024Y210386D01*
X22111Y210484D01*
X22201Y210580D01*
X22293Y210673D01*
X22388Y210763D01*
X22486Y210850D01*
X22586Y210935D01*
X22689Y211016D01*
X22794Y211094D01*
X22901Y211170D01*
X23011Y211242D01*
X23123Y211310D01*
X23236Y211376D01*
X23352Y211438D01*
X23469Y211496D01*
X23588Y211551D01*
X23708Y211603D01*
X23830Y211651D01*
X23954Y211695D01*
X23953Y211696D02*
X24337Y211877D01*
X24726Y212050D01*
X25118Y212213D01*
X25514Y212366D01*
X25913Y212510D01*
X26316Y212645D01*
X26722Y212770D01*
X27131Y212885D01*
X27543Y212990D01*
X27956Y213086D01*
X28373Y213171D01*
X28790Y213247D01*
X29210Y213313D01*
X29631Y213368D01*
X30054Y213414D01*
X30477Y213449D01*
X30901Y213475D01*
X31325Y213490D01*
X31750Y213495D01*
X31750Y201500D02*
X32175Y201505D01*
X32599Y201520D01*
X33023Y201546D01*
X33446Y201581D01*
X33869Y201627D01*
X34290Y201682D01*
X34709Y201748D01*
X35127Y201824D01*
X35543Y201909D01*
X35957Y202005D01*
X36369Y202110D01*
X36778Y202225D01*
X37184Y202350D01*
X37587Y202485D01*
X37986Y202629D01*
X38382Y202782D01*
X38774Y202945D01*
X39162Y203118D01*
X39546Y203299D01*
X39670Y203343D01*
X39792Y203391D01*
X39912Y203443D01*
X40031Y203498D01*
X40148Y203556D01*
X40264Y203618D01*
X40378Y203684D01*
X40489Y203752D01*
X40599Y203824D01*
X40706Y203900D01*
X40811Y203978D01*
X40914Y204059D01*
X41014Y204144D01*
X41112Y204231D01*
X41207Y204321D01*
X41299Y204414D01*
X41389Y204510D01*
X41476Y204608D01*
X41560Y204709D01*
X41641Y204812D01*
X41718Y204917D01*
X41793Y205025D01*
X41864Y205135D01*
X41932Y205247D01*
X41997Y205361D01*
X42059Y205477D01*
X42117Y205595D01*
X42171Y205714D01*
X42222Y205835D01*
X42269Y205957D01*
X42313Y206080D01*
X42353Y206205D01*
X42389Y206331D01*
X42422Y206458D01*
X42450Y206586D01*
X42475Y206715D01*
X42497Y206844D01*
X42514Y206974D01*
X42528Y207104D01*
X42537Y207235D01*
X42543Y207366D01*
X42545Y207497D01*
X39547Y211696D02*
X39163Y211877D01*
X38774Y212050D01*
X38382Y212213D01*
X37986Y212366D01*
X37587Y212510D01*
X37184Y212645D01*
X36778Y212770D01*
X36369Y212885D01*
X35957Y212990D01*
X35544Y213086D01*
X35127Y213171D01*
X34710Y213247D01*
X34290Y213313D01*
X33869Y213368D01*
X33446Y213414D01*
X33023Y213449D01*
X32599Y213475D01*
X32175Y213490D01*
X31750Y213495D01*
X39546Y211695D02*
X39670Y211651D01*
X39792Y211603D01*
X39912Y211551D01*
X40031Y211496D01*
X40148Y211438D01*
X40264Y211376D01*
X40377Y211310D01*
X40489Y211242D01*
X40599Y211170D01*
X40706Y211094D01*
X40811Y211016D01*
X40914Y210935D01*
X41014Y210850D01*
X41112Y210763D01*
X41207Y210673D01*
X41299Y210580D01*
X41389Y210484D01*
X41476Y210386D01*
X41560Y210285D01*
X41641Y210182D01*
X41718Y210077D01*
X41793Y209969D01*
X41864Y209859D01*
X41932Y209747D01*
X41997Y209633D01*
X42059Y209517D01*
X42117Y209400D01*
X42171Y209280D01*
X42222Y209159D01*
X42269Y209037D01*
X42313Y208914D01*
X42353Y208789D01*
X42389Y208663D01*
X42422Y208536D01*
X42450Y208408D01*
X42475Y208279D01*
X42497Y208150D01*
X42514Y208020D01*
X42528Y207890D01*
X42537Y207759D01*
X42543Y207628D01*
X42545Y207497D01*
X37747Y202699D02*
X25753Y212295D01*
X30551Y223378D02*
X30551Y229375D01*
X30553Y229528D01*
X30559Y229681D01*
X30569Y229834D01*
X30582Y229987D01*
X30600Y230139D01*
X30621Y230290D01*
X30647Y230441D01*
X30676Y230592D01*
X30709Y230741D01*
X30746Y230890D01*
X30786Y231038D01*
X30830Y231184D01*
X30879Y231330D01*
X30930Y231474D01*
X30986Y231617D01*
X31045Y231758D01*
X31107Y231898D01*
X31174Y232036D01*
X31243Y232172D01*
X31317Y232307D01*
X31393Y232440D01*
X31473Y232570D01*
X31556Y232699D01*
X31643Y232825D01*
X31733Y232949D01*
X31825Y233071D01*
X31921Y233191D01*
X32020Y233307D01*
X32122Y233422D01*
X32227Y233534D01*
X32335Y233643D01*
X32445Y233749D01*
X32558Y233852D01*
X32674Y233953D01*
X32792Y234050D01*
X32912Y234144D01*
X33035Y234236D01*
X33161Y234324D01*
X33288Y234409D01*
X33418Y234490D01*
X33549Y234569D01*
X33683Y234643D01*
X33819Y234715D01*
X33956Y234783D01*
X34095Y234847D01*
X34235Y234908D01*
X34377Y234965D01*
X34521Y235019D01*
X34666Y235069D01*
X34812Y235115D01*
X34959Y235158D01*
X35107Y235196D01*
X35256Y235231D01*
X35406Y235262D01*
X35557Y235290D01*
X35708Y235313D01*
X35860Y235332D01*
X36013Y235348D01*
X36165Y235360D01*
X36318Y235368D01*
X36471Y235372D01*
X36625Y235372D01*
X36778Y235368D01*
X36931Y235360D01*
X37083Y235348D01*
X37236Y235332D01*
X37388Y235313D01*
X37539Y235290D01*
X37690Y235262D01*
X37840Y235231D01*
X37989Y235196D01*
X38137Y235158D01*
X38284Y235115D01*
X38430Y235069D01*
X38575Y235019D01*
X38719Y234965D01*
X38861Y234908D01*
X39001Y234847D01*
X39140Y234783D01*
X39277Y234715D01*
X39413Y234643D01*
X39547Y234569D01*
X39678Y234490D01*
X39808Y234409D01*
X39935Y234324D01*
X40061Y234236D01*
X40184Y234144D01*
X40304Y234050D01*
X40422Y233953D01*
X40538Y233852D01*
X40651Y233749D01*
X40761Y233643D01*
X40869Y233534D01*
X40974Y233422D01*
X41076Y233307D01*
X41175Y233191D01*
X41271Y233071D01*
X41363Y232949D01*
X41453Y232825D01*
X41540Y232699D01*
X41623Y232570D01*
X41703Y232440D01*
X41779Y232307D01*
X41853Y232172D01*
X41922Y232036D01*
X41989Y231898D01*
X42051Y231758D01*
X42110Y231617D01*
X42166Y231474D01*
X42217Y231330D01*
X42266Y231184D01*
X42310Y231038D01*
X42350Y230890D01*
X42387Y230741D01*
X42420Y230592D01*
X42449Y230441D01*
X42475Y230290D01*
X42496Y230139D01*
X42514Y229987D01*
X42527Y229834D01*
X42537Y229681D01*
X42543Y229528D01*
X42545Y229375D01*
X42545Y223378D01*
X20955Y223378D01*
X20955Y229375D01*
X20957Y229513D01*
X20963Y229651D01*
X20973Y229789D01*
X20987Y229927D01*
X21005Y230064D01*
X21027Y230201D01*
X21052Y230336D01*
X21082Y230472D01*
X21116Y230606D01*
X21153Y230739D01*
X21194Y230871D01*
X21239Y231002D01*
X21288Y231131D01*
X21340Y231259D01*
X21396Y231385D01*
X21456Y231510D01*
X21520Y231633D01*
X21586Y231754D01*
X21657Y231873D01*
X21730Y231990D01*
X21807Y232105D01*
X21888Y232218D01*
X21971Y232328D01*
X22058Y232435D01*
X22148Y232541D01*
X22240Y232643D01*
X22336Y232743D01*
X22434Y232840D01*
X22536Y232934D01*
X22640Y233026D01*
X22746Y233114D01*
X22855Y233199D01*
X22966Y233281D01*
X23080Y233360D01*
X23196Y233435D01*
X23314Y233507D01*
X23434Y233576D01*
X23556Y233641D01*
X23680Y233702D01*
X23806Y233760D01*
X23933Y233814D01*
X24062Y233865D01*
X24192Y233912D01*
X24323Y233955D01*
X24456Y233994D01*
X24589Y234030D01*
X24724Y234061D01*
X24859Y234089D01*
X24996Y234113D01*
X25132Y234133D01*
X25270Y234149D01*
X25408Y234161D01*
X25546Y234169D01*
X25684Y234173D01*
X25822Y234173D01*
X25960Y234169D01*
X26098Y234161D01*
X26236Y234149D01*
X26374Y234133D01*
X26510Y234113D01*
X26647Y234089D01*
X26782Y234061D01*
X26917Y234030D01*
X27050Y233994D01*
X27183Y233955D01*
X27314Y233912D01*
X27444Y233865D01*
X27573Y233814D01*
X27700Y233760D01*
X27826Y233702D01*
X27950Y233641D01*
X28072Y233576D01*
X28192Y233507D01*
X28310Y233435D01*
X28426Y233360D01*
X28540Y233281D01*
X28651Y233199D01*
X28760Y233114D01*
X28866Y233026D01*
X28970Y232934D01*
X29072Y232840D01*
X29170Y232743D01*
X29266Y232643D01*
X29358Y232541D01*
X29448Y232435D01*
X29535Y232328D01*
X29618Y232218D01*
X29699Y232105D01*
X29776Y231990D01*
X29849Y231873D01*
X29920Y231754D01*
X29986Y231633D01*
X30050Y231510D01*
X30110Y231385D01*
X30166Y231259D01*
X30218Y231131D01*
X30267Y231002D01*
X30312Y230871D01*
X30353Y230739D01*
X30390Y230606D01*
X30424Y230472D01*
X30454Y230336D01*
X30479Y230201D01*
X30501Y230064D01*
X30519Y229927D01*
X30533Y229789D01*
X30543Y229651D01*
X30549Y229513D01*
X30551Y229375D01*
X32949Y243065D02*
X37747Y243065D01*
X32949Y243065D02*
X32811Y243067D01*
X32673Y243073D01*
X32535Y243083D01*
X32397Y243097D01*
X32260Y243115D01*
X32123Y243137D01*
X31988Y243162D01*
X31852Y243192D01*
X31718Y243226D01*
X31585Y243263D01*
X31453Y243304D01*
X31322Y243349D01*
X31193Y243398D01*
X31065Y243450D01*
X30939Y243506D01*
X30814Y243566D01*
X30691Y243630D01*
X30570Y243696D01*
X30451Y243767D01*
X30334Y243840D01*
X30219Y243917D01*
X30106Y243998D01*
X29996Y244081D01*
X29889Y244168D01*
X29783Y244258D01*
X29681Y244350D01*
X29581Y244446D01*
X29484Y244544D01*
X29390Y244646D01*
X29298Y244750D01*
X29210Y244856D01*
X29125Y244965D01*
X29043Y245076D01*
X28964Y245190D01*
X28889Y245306D01*
X28817Y245424D01*
X28748Y245544D01*
X28683Y245666D01*
X28622Y245790D01*
X28564Y245916D01*
X28510Y246043D01*
X28459Y246172D01*
X28412Y246302D01*
X28369Y246433D01*
X28330Y246566D01*
X28294Y246699D01*
X28263Y246834D01*
X28235Y246969D01*
X28211Y247106D01*
X28191Y247242D01*
X28175Y247380D01*
X28163Y247518D01*
X28155Y247656D01*
X28151Y247794D01*
X28151Y247932D01*
X28155Y248070D01*
X28163Y248208D01*
X28175Y248346D01*
X28191Y248484D01*
X28211Y248620D01*
X28235Y248757D01*
X28263Y248892D01*
X28294Y249027D01*
X28330Y249160D01*
X28369Y249293D01*
X28412Y249424D01*
X28459Y249554D01*
X28510Y249683D01*
X28564Y249810D01*
X28622Y249936D01*
X28683Y250060D01*
X28748Y250182D01*
X28817Y250302D01*
X28889Y250420D01*
X28964Y250536D01*
X29043Y250650D01*
X29125Y250761D01*
X29210Y250870D01*
X29298Y250976D01*
X29390Y251080D01*
X29484Y251182D01*
X29581Y251280D01*
X29681Y251376D01*
X29783Y251468D01*
X29889Y251558D01*
X29996Y251645D01*
X30106Y251728D01*
X30219Y251809D01*
X30334Y251886D01*
X30451Y251959D01*
X30570Y252030D01*
X30691Y252096D01*
X30814Y252160D01*
X30939Y252220D01*
X31065Y252276D01*
X31193Y252328D01*
X31322Y252377D01*
X31453Y252422D01*
X31585Y252463D01*
X31718Y252500D01*
X31852Y252534D01*
X31988Y252564D01*
X32123Y252589D01*
X32260Y252611D01*
X32397Y252629D01*
X32535Y252643D01*
X32673Y252653D01*
X32811Y252659D01*
X32949Y252661D01*
X32949Y252660D02*
X37747Y252660D01*
X37747Y252661D02*
X37885Y252659D01*
X38023Y252653D01*
X38161Y252643D01*
X38299Y252629D01*
X38436Y252611D01*
X38573Y252589D01*
X38708Y252564D01*
X38844Y252534D01*
X38978Y252500D01*
X39111Y252463D01*
X39243Y252422D01*
X39374Y252377D01*
X39503Y252328D01*
X39631Y252276D01*
X39757Y252220D01*
X39882Y252160D01*
X40005Y252096D01*
X40126Y252030D01*
X40245Y251959D01*
X40362Y251886D01*
X40477Y251809D01*
X40590Y251728D01*
X40700Y251645D01*
X40807Y251558D01*
X40913Y251468D01*
X41015Y251376D01*
X41115Y251280D01*
X41212Y251182D01*
X41306Y251080D01*
X41398Y250976D01*
X41486Y250870D01*
X41571Y250761D01*
X41653Y250650D01*
X41732Y250536D01*
X41807Y250420D01*
X41879Y250302D01*
X41948Y250182D01*
X42013Y250060D01*
X42074Y249936D01*
X42132Y249810D01*
X42186Y249683D01*
X42237Y249554D01*
X42284Y249424D01*
X42327Y249293D01*
X42366Y249160D01*
X42402Y249027D01*
X42433Y248892D01*
X42461Y248757D01*
X42485Y248620D01*
X42505Y248484D01*
X42521Y248346D01*
X42533Y248208D01*
X42541Y248070D01*
X42545Y247932D01*
X42545Y247794D01*
X42541Y247656D01*
X42533Y247518D01*
X42521Y247380D01*
X42505Y247242D01*
X42485Y247106D01*
X42461Y246969D01*
X42433Y246834D01*
X42402Y246699D01*
X42366Y246566D01*
X42327Y246433D01*
X42284Y246302D01*
X42237Y246172D01*
X42186Y246043D01*
X42132Y245916D01*
X42074Y245790D01*
X42013Y245666D01*
X41948Y245544D01*
X41879Y245424D01*
X41807Y245306D01*
X41732Y245190D01*
X41653Y245076D01*
X41571Y244965D01*
X41486Y244856D01*
X41398Y244750D01*
X41306Y244646D01*
X41212Y244544D01*
X41115Y244446D01*
X41015Y244350D01*
X40913Y244258D01*
X40807Y244168D01*
X40700Y244081D01*
X40590Y243998D01*
X40477Y243917D01*
X40362Y243840D01*
X40245Y243767D01*
X40126Y243696D01*
X40005Y243630D01*
X39882Y243566D01*
X39757Y243506D01*
X39631Y243450D01*
X39503Y243398D01*
X39374Y243349D01*
X39243Y243304D01*
X39111Y243263D01*
X38978Y243226D01*
X38844Y243192D01*
X38708Y243162D01*
X38573Y243137D01*
X38436Y243115D01*
X38299Y243097D01*
X38161Y243083D01*
X38023Y243073D01*
X37885Y243067D01*
X37747Y243065D01*
X34149Y265253D02*
X34149Y270651D01*
X34149Y265253D02*
X34151Y265125D01*
X34157Y264997D01*
X34167Y264869D01*
X34180Y264742D01*
X34198Y264615D01*
X34219Y264489D01*
X34244Y264363D01*
X34273Y264239D01*
X34306Y264115D01*
X34343Y263992D01*
X34383Y263871D01*
X34427Y263751D01*
X34475Y263632D01*
X34526Y263514D01*
X34581Y263399D01*
X34639Y263285D01*
X34701Y263173D01*
X34766Y263062D01*
X34834Y262954D01*
X34906Y262848D01*
X34981Y262744D01*
X35059Y262643D01*
X35140Y262544D01*
X35224Y262447D01*
X35311Y262353D01*
X35401Y262262D01*
X35494Y262174D01*
X35589Y262088D01*
X35687Y262005D01*
X35787Y261926D01*
X35890Y261849D01*
X35995Y261776D01*
X36102Y261706D01*
X36211Y261639D01*
X36322Y261575D01*
X36435Y261515D01*
X36550Y261459D01*
X36667Y261406D01*
X36785Y261356D01*
X36905Y261311D01*
X37025Y261268D01*
X37148Y261230D01*
X37271Y261195D01*
X37395Y261164D01*
X37520Y261137D01*
X37646Y261114D01*
X37773Y261094D01*
X37900Y261079D01*
X38027Y261067D01*
X38155Y261059D01*
X38283Y261055D01*
X38411Y261055D01*
X38539Y261059D01*
X38667Y261067D01*
X38794Y261079D01*
X38921Y261094D01*
X39048Y261114D01*
X39174Y261137D01*
X39299Y261164D01*
X39423Y261195D01*
X39546Y261230D01*
X39669Y261268D01*
X39789Y261311D01*
X39909Y261356D01*
X40027Y261406D01*
X40144Y261459D01*
X40259Y261515D01*
X40372Y261575D01*
X40483Y261639D01*
X40592Y261706D01*
X40699Y261776D01*
X40804Y261849D01*
X40907Y261926D01*
X41007Y262005D01*
X41105Y262088D01*
X41200Y262174D01*
X41293Y262262D01*
X41383Y262353D01*
X41470Y262447D01*
X41554Y262544D01*
X41635Y262643D01*
X41713Y262744D01*
X41788Y262848D01*
X41860Y262954D01*
X41928Y263062D01*
X41993Y263173D01*
X42055Y263285D01*
X42113Y263399D01*
X42168Y263514D01*
X42219Y263632D01*
X42267Y263751D01*
X42311Y263871D01*
X42351Y263992D01*
X42388Y264115D01*
X42421Y264239D01*
X42450Y264363D01*
X42475Y264489D01*
X42496Y264615D01*
X42514Y264742D01*
X42527Y264869D01*
X42537Y264997D01*
X42543Y265125D01*
X42545Y265253D01*
X42545Y270651D01*
X31750Y270651D01*
X31750Y270650D02*
X31632Y270648D01*
X31515Y270642D01*
X31397Y270633D01*
X31280Y270619D01*
X31164Y270602D01*
X31048Y270581D01*
X30933Y270556D01*
X30819Y270527D01*
X30706Y270495D01*
X30593Y270459D01*
X30483Y270419D01*
X30373Y270376D01*
X30265Y270329D01*
X30159Y270279D01*
X30054Y270225D01*
X29951Y270168D01*
X29850Y270107D01*
X29751Y270044D01*
X29654Y269977D01*
X29560Y269906D01*
X29467Y269833D01*
X29378Y269757D01*
X29290Y269678D01*
X29206Y269596D01*
X29124Y269512D01*
X29045Y269424D01*
X28969Y269335D01*
X28896Y269242D01*
X28825Y269148D01*
X28758Y269051D01*
X28695Y268952D01*
X28634Y268851D01*
X28577Y268748D01*
X28523Y268643D01*
X28473Y268537D01*
X28426Y268429D01*
X28383Y268319D01*
X28343Y268209D01*
X28307Y268096D01*
X28275Y267983D01*
X28246Y267869D01*
X28221Y267754D01*
X28200Y267638D01*
X28183Y267522D01*
X28169Y267405D01*
X28160Y267287D01*
X28154Y267170D01*
X28152Y267052D01*
X28152Y262254D01*
X28152Y280778D02*
X42545Y280778D01*
X28152Y280778D02*
X28152Y287975D01*
X30551Y287975D01*
X20955Y304057D02*
X42545Y304057D01*
X42545Y298059D01*
X42543Y297941D01*
X42537Y297824D01*
X42528Y297706D01*
X42514Y297589D01*
X42497Y297473D01*
X42476Y297357D01*
X42451Y297242D01*
X42422Y297128D01*
X42390Y297015D01*
X42354Y296902D01*
X42314Y296792D01*
X42271Y296682D01*
X42224Y296574D01*
X42174Y296468D01*
X42120Y296363D01*
X42063Y296260D01*
X42002Y296159D01*
X41939Y296060D01*
X41872Y295963D01*
X41801Y295869D01*
X41728Y295776D01*
X41652Y295687D01*
X41573Y295599D01*
X41491Y295515D01*
X41407Y295433D01*
X41319Y295354D01*
X41230Y295278D01*
X41137Y295205D01*
X41043Y295134D01*
X40946Y295067D01*
X40847Y295004D01*
X40746Y294943D01*
X40643Y294886D01*
X40538Y294832D01*
X40432Y294782D01*
X40324Y294735D01*
X40214Y294692D01*
X40104Y294652D01*
X39991Y294616D01*
X39878Y294584D01*
X39764Y294555D01*
X39649Y294530D01*
X39533Y294509D01*
X39417Y294492D01*
X39300Y294478D01*
X39182Y294469D01*
X39065Y294463D01*
X38947Y294461D01*
X31750Y294461D01*
X31632Y294463D01*
X31515Y294469D01*
X31397Y294478D01*
X31280Y294492D01*
X31164Y294509D01*
X31048Y294530D01*
X30933Y294555D01*
X30819Y294584D01*
X30706Y294616D01*
X30593Y294652D01*
X30483Y294692D01*
X30373Y294735D01*
X30265Y294782D01*
X30159Y294832D01*
X30054Y294886D01*
X29951Y294943D01*
X29850Y295004D01*
X29751Y295067D01*
X29654Y295134D01*
X29560Y295205D01*
X29467Y295278D01*
X29378Y295354D01*
X29290Y295433D01*
X29206Y295515D01*
X29124Y295599D01*
X29045Y295687D01*
X28969Y295776D01*
X28896Y295869D01*
X28825Y295963D01*
X28758Y296060D01*
X28695Y296159D01*
X28634Y296260D01*
X28577Y296363D01*
X28523Y296468D01*
X28473Y296574D01*
X28426Y296682D01*
X28383Y296792D01*
X28343Y296902D01*
X28307Y297015D01*
X28275Y297128D01*
X28246Y297242D01*
X28221Y297357D01*
X28200Y297473D01*
X28183Y297589D01*
X28169Y297706D01*
X28160Y297824D01*
X28154Y297941D01*
X28152Y298059D01*
X28152Y304057D01*
X28152Y323796D02*
X42545Y328594D01*
X28152Y333392D01*
X20955Y347984D02*
X20957Y348130D01*
X20963Y348276D01*
X20973Y348422D01*
X20987Y348568D01*
X21004Y348713D01*
X21026Y348857D01*
X21052Y349001D01*
X21081Y349144D01*
X21115Y349287D01*
X21152Y349428D01*
X21193Y349568D01*
X21238Y349708D01*
X21286Y349846D01*
X21338Y349982D01*
X21394Y350117D01*
X21454Y350251D01*
X21517Y350382D01*
X21584Y350513D01*
X21654Y350641D01*
X21728Y350767D01*
X21805Y350891D01*
X21885Y351013D01*
X21969Y351133D01*
X22056Y351251D01*
X22146Y351366D01*
X22239Y351479D01*
X22335Y351589D01*
X22434Y351696D01*
X22536Y351801D01*
X22641Y351903D01*
X22748Y352002D01*
X22858Y352098D01*
X22971Y352191D01*
X23086Y352281D01*
X23204Y352368D01*
X23324Y352452D01*
X23446Y352532D01*
X23570Y352609D01*
X23696Y352683D01*
X23825Y352753D01*
X23955Y352820D01*
X24086Y352883D01*
X24220Y352943D01*
X24355Y352999D01*
X24492Y353051D01*
X24629Y353099D01*
X24769Y353144D01*
X24909Y353185D01*
X25050Y353222D01*
X25193Y353256D01*
X25336Y353285D01*
X25480Y353311D01*
X25624Y353333D01*
X25769Y353350D01*
X25915Y353364D01*
X26061Y353374D01*
X26207Y353380D01*
X26353Y353382D01*
X20955Y347984D02*
X20957Y347816D01*
X20963Y347649D01*
X20973Y347481D01*
X20987Y347314D01*
X21006Y347148D01*
X21028Y346981D01*
X21054Y346816D01*
X21084Y346651D01*
X21119Y346487D01*
X21157Y346323D01*
X21199Y346161D01*
X21245Y346000D01*
X21295Y345840D01*
X21349Y345681D01*
X21406Y345523D01*
X21468Y345367D01*
X21533Y345213D01*
X21602Y345060D01*
X21674Y344909D01*
X21750Y344759D01*
X21830Y344612D01*
X21914Y344466D01*
X22000Y344323D01*
X22091Y344182D01*
X22184Y344042D01*
X22281Y343906D01*
X22381Y343771D01*
X22485Y343639D01*
X22592Y343510D01*
X22701Y343383D01*
X22814Y343259D01*
X22930Y343138D01*
X23049Y343019D01*
X23170Y342903D01*
X23294Y342791D01*
X23421Y342681D01*
X23551Y342575D01*
X23683Y342471D01*
X23817Y342371D01*
X23954Y342275D01*
X24093Y342181D01*
X24235Y342091D01*
X24379Y342004D01*
X24524Y341921D01*
X24672Y341842D01*
X24821Y341766D01*
X24973Y341693D01*
X25125Y341624D01*
X25280Y341560D01*
X25436Y341498D01*
X25594Y341441D01*
X25753Y341387D01*
X30551Y351583D02*
X30445Y351691D01*
X30336Y351797D01*
X30225Y351899D01*
X30111Y351999D01*
X29994Y352096D01*
X29875Y352189D01*
X29754Y352280D01*
X29630Y352367D01*
X29504Y352451D01*
X29376Y352531D01*
X29246Y352609D01*
X29114Y352683D01*
X28979Y352753D01*
X28844Y352820D01*
X28706Y352883D01*
X28567Y352943D01*
X28426Y352999D01*
X28284Y353051D01*
X28141Y353100D01*
X27996Y353144D01*
X27850Y353185D01*
X27703Y353223D01*
X27556Y353256D01*
X27407Y353285D01*
X27258Y353311D01*
X27108Y353333D01*
X26958Y353350D01*
X26807Y353364D01*
X26656Y353374D01*
X26504Y353380D01*
X26353Y353382D01*
X30551Y351583D02*
X42545Y341387D01*
X42545Y353382D01*
X821902Y128905D02*
X827899Y143298D01*
X833896Y128905D01*
X838694Y151487D02*
X838694Y161082D01*
X830298Y169774D02*
X814705Y169774D01*
X830298Y169774D02*
X830451Y169776D01*
X830604Y169782D01*
X830757Y169792D01*
X830910Y169805D01*
X831062Y169823D01*
X831213Y169844D01*
X831364Y169870D01*
X831515Y169899D01*
X831664Y169932D01*
X831813Y169969D01*
X831961Y170009D01*
X832107Y170053D01*
X832253Y170102D01*
X832397Y170153D01*
X832540Y170209D01*
X832681Y170268D01*
X832821Y170330D01*
X832959Y170397D01*
X833095Y170466D01*
X833230Y170540D01*
X833363Y170616D01*
X833493Y170696D01*
X833622Y170779D01*
X833748Y170866D01*
X833872Y170956D01*
X833994Y171048D01*
X834114Y171144D01*
X834230Y171243D01*
X834345Y171345D01*
X834457Y171450D01*
X834566Y171558D01*
X834672Y171668D01*
X834775Y171781D01*
X834876Y171897D01*
X834973Y172015D01*
X835067Y172135D01*
X835159Y172258D01*
X835247Y172384D01*
X835332Y172511D01*
X835413Y172641D01*
X835492Y172773D01*
X835566Y172906D01*
X835638Y173042D01*
X835706Y173179D01*
X835770Y173318D01*
X835831Y173458D01*
X835888Y173600D01*
X835942Y173744D01*
X835992Y173889D01*
X836038Y174035D01*
X836081Y174182D01*
X836119Y174330D01*
X836154Y174479D01*
X836185Y174629D01*
X836213Y174780D01*
X836236Y174931D01*
X836255Y175083D01*
X836271Y175236D01*
X836283Y175388D01*
X836291Y175541D01*
X836295Y175694D01*
X836295Y175848D01*
X836291Y176001D01*
X836283Y176154D01*
X836271Y176306D01*
X836255Y176459D01*
X836236Y176611D01*
X836213Y176762D01*
X836185Y176913D01*
X836154Y177063D01*
X836119Y177212D01*
X836081Y177360D01*
X836038Y177507D01*
X835992Y177653D01*
X835942Y177798D01*
X835888Y177942D01*
X835831Y178084D01*
X835770Y178224D01*
X835706Y178363D01*
X835638Y178500D01*
X835566Y178636D01*
X835492Y178770D01*
X835413Y178901D01*
X835332Y179031D01*
X835247Y179158D01*
X835159Y179284D01*
X835067Y179407D01*
X834973Y179527D01*
X834876Y179645D01*
X834775Y179761D01*
X834672Y179874D01*
X834566Y179984D01*
X834457Y180092D01*
X834345Y180197D01*
X834230Y180299D01*
X834114Y180398D01*
X833994Y180494D01*
X833872Y180586D01*
X833748Y180676D01*
X833622Y180763D01*
X833493Y180846D01*
X833363Y180926D01*
X833230Y181002D01*
X833095Y181076D01*
X832959Y181145D01*
X832821Y181212D01*
X832681Y181274D01*
X832540Y181333D01*
X832397Y181389D01*
X832253Y181440D01*
X832107Y181489D01*
X831961Y181533D01*
X831813Y181573D01*
X831664Y181610D01*
X831515Y181643D01*
X831364Y181672D01*
X831213Y181698D01*
X831062Y181719D01*
X830910Y181737D01*
X830757Y181750D01*
X830604Y181760D01*
X830451Y181766D01*
X830298Y181768D01*
X830298Y181769D02*
X814705Y181769D01*
X821902Y191852D02*
X836295Y191852D01*
X821902Y191852D02*
X821902Y197850D01*
X821904Y197968D01*
X821910Y198085D01*
X821919Y198203D01*
X821933Y198320D01*
X821950Y198436D01*
X821971Y198552D01*
X821996Y198667D01*
X822025Y198781D01*
X822057Y198894D01*
X822093Y199007D01*
X822133Y199117D01*
X822176Y199227D01*
X822223Y199335D01*
X822273Y199441D01*
X822327Y199546D01*
X822384Y199649D01*
X822445Y199750D01*
X822508Y199849D01*
X822575Y199946D01*
X822646Y200040D01*
X822719Y200133D01*
X822795Y200222D01*
X822874Y200310D01*
X822956Y200394D01*
X823040Y200476D01*
X823128Y200555D01*
X823217Y200631D01*
X823310Y200704D01*
X823404Y200775D01*
X823501Y200842D01*
X823600Y200905D01*
X823701Y200966D01*
X823804Y201023D01*
X823909Y201077D01*
X824015Y201127D01*
X824123Y201174D01*
X824233Y201217D01*
X824343Y201257D01*
X824456Y201293D01*
X824569Y201325D01*
X824683Y201354D01*
X824798Y201379D01*
X824914Y201400D01*
X825030Y201417D01*
X825147Y201431D01*
X825265Y201440D01*
X825382Y201446D01*
X825500Y201448D01*
X836295Y201448D01*
X836295Y211582D02*
X814705Y211582D01*
X821902Y221177D02*
X829098Y211582D01*
X826100Y215780D02*
X836295Y221177D01*
X836295Y229434D02*
X821902Y229434D01*
X821902Y235431D01*
X821904Y235549D01*
X821910Y235666D01*
X821919Y235784D01*
X821933Y235901D01*
X821950Y236017D01*
X821971Y236133D01*
X821996Y236248D01*
X822025Y236362D01*
X822057Y236475D01*
X822093Y236588D01*
X822133Y236698D01*
X822176Y236808D01*
X822223Y236916D01*
X822273Y237022D01*
X822327Y237127D01*
X822384Y237230D01*
X822445Y237331D01*
X822508Y237430D01*
X822575Y237527D01*
X822646Y237621D01*
X822719Y237714D01*
X822795Y237803D01*
X822874Y237891D01*
X822956Y237975D01*
X823040Y238057D01*
X823128Y238136D01*
X823217Y238212D01*
X823310Y238285D01*
X823404Y238356D01*
X823501Y238423D01*
X823600Y238486D01*
X823701Y238547D01*
X823804Y238604D01*
X823909Y238658D01*
X824015Y238708D01*
X824123Y238755D01*
X824233Y238798D01*
X824343Y238838D01*
X824456Y238874D01*
X824569Y238906D01*
X824683Y238935D01*
X824798Y238960D01*
X824914Y238981D01*
X825030Y238998D01*
X825147Y239012D01*
X825265Y239021D01*
X825382Y239027D01*
X825500Y239029D01*
X825500Y239030D02*
X836295Y239030D01*
X831497Y248225D02*
X826699Y248225D01*
X826561Y248227D01*
X826423Y248233D01*
X826285Y248243D01*
X826147Y248257D01*
X826010Y248275D01*
X825873Y248297D01*
X825738Y248322D01*
X825602Y248352D01*
X825468Y248386D01*
X825335Y248423D01*
X825203Y248464D01*
X825072Y248509D01*
X824943Y248558D01*
X824815Y248610D01*
X824689Y248666D01*
X824564Y248726D01*
X824441Y248790D01*
X824320Y248856D01*
X824201Y248927D01*
X824084Y249000D01*
X823969Y249077D01*
X823856Y249158D01*
X823746Y249241D01*
X823639Y249328D01*
X823533Y249418D01*
X823431Y249510D01*
X823331Y249606D01*
X823234Y249704D01*
X823140Y249806D01*
X823048Y249910D01*
X822960Y250016D01*
X822875Y250125D01*
X822793Y250236D01*
X822714Y250350D01*
X822639Y250466D01*
X822567Y250584D01*
X822498Y250704D01*
X822433Y250826D01*
X822372Y250950D01*
X822314Y251076D01*
X822260Y251203D01*
X822209Y251332D01*
X822162Y251462D01*
X822119Y251593D01*
X822080Y251726D01*
X822044Y251859D01*
X822013Y251994D01*
X821985Y252129D01*
X821961Y252266D01*
X821941Y252402D01*
X821925Y252540D01*
X821913Y252678D01*
X821905Y252816D01*
X821901Y252954D01*
X821901Y253092D01*
X821905Y253230D01*
X821913Y253368D01*
X821925Y253506D01*
X821941Y253644D01*
X821961Y253780D01*
X821985Y253917D01*
X822013Y254052D01*
X822044Y254187D01*
X822080Y254320D01*
X822119Y254453D01*
X822162Y254584D01*
X822209Y254714D01*
X822260Y254843D01*
X822314Y254970D01*
X822372Y255096D01*
X822433Y255220D01*
X822498Y255342D01*
X822567Y255462D01*
X822639Y255580D01*
X822714Y255696D01*
X822793Y255810D01*
X822875Y255921D01*
X822960Y256030D01*
X823048Y256136D01*
X823140Y256240D01*
X823234Y256342D01*
X823331Y256440D01*
X823431Y256536D01*
X823533Y256628D01*
X823639Y256718D01*
X823746Y256805D01*
X823856Y256888D01*
X823969Y256969D01*
X824084Y257046D01*
X824201Y257119D01*
X824320Y257190D01*
X824441Y257256D01*
X824564Y257320D01*
X824689Y257380D01*
X824815Y257436D01*
X824943Y257488D01*
X825072Y257537D01*
X825203Y257582D01*
X825335Y257623D01*
X825468Y257660D01*
X825602Y257694D01*
X825738Y257724D01*
X825873Y257749D01*
X826010Y257771D01*
X826147Y257789D01*
X826285Y257803D01*
X826423Y257813D01*
X826561Y257819D01*
X826699Y257821D01*
X826699Y257820D02*
X831497Y257820D01*
X831497Y257821D02*
X831635Y257819D01*
X831773Y257813D01*
X831911Y257803D01*
X832049Y257789D01*
X832186Y257771D01*
X832323Y257749D01*
X832458Y257724D01*
X832594Y257694D01*
X832728Y257660D01*
X832861Y257623D01*
X832993Y257582D01*
X833124Y257537D01*
X833253Y257488D01*
X833381Y257436D01*
X833507Y257380D01*
X833632Y257320D01*
X833755Y257256D01*
X833876Y257190D01*
X833995Y257119D01*
X834112Y257046D01*
X834227Y256969D01*
X834340Y256888D01*
X834450Y256805D01*
X834557Y256718D01*
X834663Y256628D01*
X834765Y256536D01*
X834865Y256440D01*
X834962Y256342D01*
X835056Y256240D01*
X835148Y256136D01*
X835236Y256030D01*
X835321Y255921D01*
X835403Y255810D01*
X835482Y255696D01*
X835557Y255580D01*
X835629Y255462D01*
X835698Y255342D01*
X835763Y255220D01*
X835824Y255096D01*
X835882Y254970D01*
X835936Y254843D01*
X835987Y254714D01*
X836034Y254584D01*
X836077Y254453D01*
X836116Y254320D01*
X836152Y254187D01*
X836183Y254052D01*
X836211Y253917D01*
X836235Y253780D01*
X836255Y253644D01*
X836271Y253506D01*
X836283Y253368D01*
X836291Y253230D01*
X836295Y253092D01*
X836295Y252954D01*
X836291Y252816D01*
X836283Y252678D01*
X836271Y252540D01*
X836255Y252402D01*
X836235Y252266D01*
X836211Y252129D01*
X836183Y251994D01*
X836152Y251859D01*
X836116Y251726D01*
X836077Y251593D01*
X836034Y251462D01*
X835987Y251332D01*
X835936Y251203D01*
X835882Y251076D01*
X835824Y250950D01*
X835763Y250826D01*
X835698Y250704D01*
X835629Y250584D01*
X835557Y250466D01*
X835482Y250350D01*
X835403Y250236D01*
X835321Y250125D01*
X835236Y250016D01*
X835148Y249910D01*
X835056Y249806D01*
X834962Y249704D01*
X834865Y249606D01*
X834765Y249510D01*
X834663Y249418D01*
X834557Y249328D01*
X834450Y249241D01*
X834340Y249158D01*
X834227Y249077D01*
X834112Y249000D01*
X833995Y248927D01*
X833876Y248856D01*
X833755Y248790D01*
X833632Y248726D01*
X833507Y248666D01*
X833381Y248610D01*
X833253Y248558D01*
X833124Y248509D01*
X832993Y248464D01*
X832861Y248423D01*
X832728Y248386D01*
X832594Y248352D01*
X832458Y248322D01*
X832323Y248297D01*
X832186Y248275D01*
X832049Y248257D01*
X831911Y248243D01*
X831773Y248233D01*
X831635Y248227D01*
X831497Y248225D01*
X821902Y266009D02*
X836295Y269607D01*
X826699Y273205D01*
X836295Y276804D01*
X821902Y280402D01*
X821902Y289286D02*
X836295Y289286D01*
X821902Y289286D02*
X821902Y295284D01*
X821904Y295402D01*
X821910Y295519D01*
X821919Y295637D01*
X821933Y295754D01*
X821950Y295870D01*
X821971Y295986D01*
X821996Y296101D01*
X822025Y296215D01*
X822057Y296328D01*
X822093Y296441D01*
X822133Y296551D01*
X822176Y296661D01*
X822223Y296769D01*
X822273Y296875D01*
X822327Y296980D01*
X822384Y297083D01*
X822445Y297184D01*
X822508Y297283D01*
X822575Y297380D01*
X822646Y297474D01*
X822719Y297567D01*
X822795Y297656D01*
X822874Y297744D01*
X822956Y297828D01*
X823040Y297910D01*
X823128Y297989D01*
X823217Y298065D01*
X823310Y298138D01*
X823404Y298209D01*
X823501Y298276D01*
X823600Y298339D01*
X823701Y298400D01*
X823804Y298457D01*
X823909Y298511D01*
X824015Y298561D01*
X824123Y298608D01*
X824233Y298651D01*
X824343Y298691D01*
X824456Y298727D01*
X824569Y298759D01*
X824683Y298788D01*
X824798Y298813D01*
X824914Y298834D01*
X825030Y298851D01*
X825147Y298865D01*
X825265Y298874D01*
X825382Y298880D01*
X825500Y298882D01*
X836295Y298882D01*
X820103Y320265D02*
X819957Y320263D01*
X819811Y320257D01*
X819665Y320247D01*
X819519Y320233D01*
X819374Y320216D01*
X819230Y320194D01*
X819086Y320168D01*
X818943Y320139D01*
X818800Y320105D01*
X818659Y320068D01*
X818519Y320027D01*
X818379Y319982D01*
X818242Y319934D01*
X818105Y319882D01*
X817970Y319826D01*
X817836Y319766D01*
X817705Y319703D01*
X817575Y319636D01*
X817446Y319566D01*
X817320Y319492D01*
X817196Y319415D01*
X817074Y319335D01*
X816954Y319251D01*
X816836Y319164D01*
X816721Y319074D01*
X816608Y318981D01*
X816498Y318885D01*
X816391Y318786D01*
X816286Y318684D01*
X816184Y318579D01*
X816085Y318472D01*
X815989Y318362D01*
X815896Y318249D01*
X815806Y318134D01*
X815719Y318016D01*
X815635Y317896D01*
X815555Y317774D01*
X815478Y317650D01*
X815404Y317524D01*
X815334Y317396D01*
X815267Y317265D01*
X815204Y317134D01*
X815144Y317000D01*
X815088Y316865D01*
X815036Y316729D01*
X814988Y316591D01*
X814943Y316451D01*
X814902Y316311D01*
X814865Y316170D01*
X814831Y316027D01*
X814802Y315884D01*
X814776Y315740D01*
X814754Y315596D01*
X814737Y315451D01*
X814723Y315305D01*
X814713Y315159D01*
X814707Y315013D01*
X814705Y314867D01*
X814707Y314699D01*
X814713Y314532D01*
X814723Y314364D01*
X814737Y314197D01*
X814756Y314031D01*
X814778Y313864D01*
X814804Y313699D01*
X814834Y313534D01*
X814869Y313370D01*
X814907Y313206D01*
X814949Y313044D01*
X814995Y312883D01*
X815045Y312723D01*
X815099Y312564D01*
X815156Y312406D01*
X815218Y312250D01*
X815283Y312096D01*
X815352Y311943D01*
X815424Y311792D01*
X815500Y311642D01*
X815580Y311495D01*
X815664Y311349D01*
X815750Y311206D01*
X815841Y311065D01*
X815934Y310925D01*
X816031Y310789D01*
X816131Y310654D01*
X816235Y310522D01*
X816342Y310393D01*
X816451Y310266D01*
X816564Y310142D01*
X816680Y310021D01*
X816799Y309902D01*
X816920Y309786D01*
X817044Y309674D01*
X817171Y309564D01*
X817301Y309458D01*
X817433Y309354D01*
X817567Y309254D01*
X817704Y309158D01*
X817843Y309064D01*
X817985Y308974D01*
X818129Y308887D01*
X818274Y308804D01*
X818422Y308725D01*
X818571Y308649D01*
X818723Y308576D01*
X818875Y308507D01*
X819030Y308443D01*
X819186Y308381D01*
X819344Y308324D01*
X819503Y308270D01*
X824301Y318465D02*
X824195Y318573D01*
X824086Y318679D01*
X823975Y318781D01*
X823861Y318881D01*
X823744Y318978D01*
X823625Y319071D01*
X823504Y319162D01*
X823380Y319249D01*
X823254Y319333D01*
X823126Y319413D01*
X822996Y319491D01*
X822864Y319565D01*
X822729Y319635D01*
X822594Y319702D01*
X822456Y319765D01*
X822317Y319825D01*
X822176Y319881D01*
X822034Y319933D01*
X821891Y319982D01*
X821746Y320026D01*
X821600Y320067D01*
X821453Y320105D01*
X821306Y320138D01*
X821157Y320167D01*
X821008Y320193D01*
X820858Y320215D01*
X820708Y320232D01*
X820557Y320246D01*
X820406Y320256D01*
X820254Y320262D01*
X820103Y320264D01*
X824301Y318465D02*
X836295Y308270D01*
X836295Y320264D01*
X836295Y329149D02*
X836295Y335146D01*
X836293Y335299D01*
X836287Y335452D01*
X836277Y335605D01*
X836264Y335758D01*
X836246Y335910D01*
X836225Y336061D01*
X836199Y336212D01*
X836170Y336363D01*
X836137Y336512D01*
X836100Y336661D01*
X836060Y336809D01*
X836016Y336955D01*
X835967Y337101D01*
X835916Y337245D01*
X835860Y337388D01*
X835801Y337529D01*
X835739Y337669D01*
X835672Y337807D01*
X835603Y337943D01*
X835529Y338078D01*
X835453Y338211D01*
X835373Y338341D01*
X835290Y338470D01*
X835203Y338596D01*
X835113Y338720D01*
X835021Y338842D01*
X834925Y338962D01*
X834826Y339078D01*
X834724Y339193D01*
X834619Y339305D01*
X834511Y339414D01*
X834401Y339520D01*
X834288Y339623D01*
X834172Y339724D01*
X834054Y339821D01*
X833934Y339915D01*
X833811Y340007D01*
X833685Y340095D01*
X833558Y340180D01*
X833428Y340261D01*
X833297Y340340D01*
X833163Y340414D01*
X833027Y340486D01*
X832890Y340554D01*
X832751Y340618D01*
X832611Y340679D01*
X832469Y340736D01*
X832325Y340790D01*
X832180Y340840D01*
X832034Y340886D01*
X831887Y340929D01*
X831739Y340967D01*
X831590Y341002D01*
X831440Y341033D01*
X831289Y341061D01*
X831138Y341084D01*
X830986Y341103D01*
X830833Y341119D01*
X830681Y341131D01*
X830528Y341139D01*
X830375Y341143D01*
X830221Y341143D01*
X830068Y341139D01*
X829915Y341131D01*
X829763Y341119D01*
X829610Y341103D01*
X829458Y341084D01*
X829307Y341061D01*
X829156Y341033D01*
X829006Y341002D01*
X828857Y340967D01*
X828709Y340929D01*
X828562Y340886D01*
X828416Y340840D01*
X828271Y340790D01*
X828127Y340736D01*
X827985Y340679D01*
X827845Y340618D01*
X827706Y340554D01*
X827569Y340486D01*
X827433Y340414D01*
X827300Y340340D01*
X827168Y340261D01*
X827038Y340180D01*
X826911Y340095D01*
X826785Y340007D01*
X826662Y339915D01*
X826542Y339821D01*
X826424Y339724D01*
X826308Y339623D01*
X826195Y339520D01*
X826085Y339414D01*
X825977Y339305D01*
X825872Y339193D01*
X825770Y339078D01*
X825671Y338962D01*
X825575Y338842D01*
X825483Y338720D01*
X825393Y338596D01*
X825306Y338470D01*
X825223Y338341D01*
X825143Y338211D01*
X825067Y338078D01*
X824993Y337943D01*
X824924Y337807D01*
X824857Y337669D01*
X824795Y337529D01*
X824736Y337388D01*
X824680Y337245D01*
X824629Y337101D01*
X824580Y336955D01*
X824536Y336809D01*
X824496Y336661D01*
X824459Y336512D01*
X824426Y336363D01*
X824397Y336212D01*
X824371Y336061D01*
X824350Y335910D01*
X824332Y335758D01*
X824319Y335605D01*
X824309Y335452D01*
X824303Y335299D01*
X824301Y335146D01*
X814705Y336345D02*
X814705Y329149D01*
X814705Y336345D02*
X814707Y336483D01*
X814713Y336621D01*
X814723Y336759D01*
X814737Y336897D01*
X814755Y337034D01*
X814777Y337171D01*
X814802Y337306D01*
X814832Y337442D01*
X814866Y337576D01*
X814903Y337709D01*
X814944Y337841D01*
X814989Y337972D01*
X815038Y338101D01*
X815090Y338229D01*
X815146Y338355D01*
X815206Y338480D01*
X815270Y338603D01*
X815336Y338724D01*
X815407Y338843D01*
X815480Y338960D01*
X815557Y339075D01*
X815638Y339188D01*
X815721Y339298D01*
X815808Y339405D01*
X815898Y339511D01*
X815990Y339613D01*
X816086Y339713D01*
X816184Y339810D01*
X816286Y339904D01*
X816390Y339996D01*
X816496Y340084D01*
X816605Y340169D01*
X816716Y340251D01*
X816830Y340330D01*
X816946Y340405D01*
X817064Y340477D01*
X817184Y340546D01*
X817306Y340611D01*
X817430Y340672D01*
X817556Y340730D01*
X817683Y340784D01*
X817812Y340835D01*
X817942Y340882D01*
X818073Y340925D01*
X818206Y340964D01*
X818339Y341000D01*
X818474Y341031D01*
X818609Y341059D01*
X818746Y341083D01*
X818882Y341103D01*
X819020Y341119D01*
X819158Y341131D01*
X819296Y341139D01*
X819434Y341143D01*
X819572Y341143D01*
X819710Y341139D01*
X819848Y341131D01*
X819986Y341119D01*
X820124Y341103D01*
X820260Y341083D01*
X820397Y341059D01*
X820532Y341031D01*
X820667Y341000D01*
X820800Y340964D01*
X820933Y340925D01*
X821064Y340882D01*
X821194Y340835D01*
X821323Y340784D01*
X821450Y340730D01*
X821576Y340672D01*
X821700Y340611D01*
X821822Y340546D01*
X821942Y340477D01*
X822060Y340405D01*
X822176Y340330D01*
X822290Y340251D01*
X822401Y340169D01*
X822510Y340084D01*
X822616Y339996D01*
X822720Y339904D01*
X822822Y339810D01*
X822920Y339713D01*
X823016Y339613D01*
X823108Y339511D01*
X823198Y339405D01*
X823285Y339298D01*
X823368Y339188D01*
X823449Y339075D01*
X823526Y338960D01*
X823599Y338843D01*
X823670Y338724D01*
X823736Y338603D01*
X823800Y338480D01*
X823860Y338355D01*
X823916Y338229D01*
X823968Y338101D01*
X824017Y337972D01*
X824062Y337841D01*
X824103Y337709D01*
X824140Y337576D01*
X824174Y337442D01*
X824204Y337306D01*
X824229Y337171D01*
X824251Y337034D01*
X824269Y336897D01*
X824283Y336759D01*
X824293Y336621D01*
X824299Y336483D01*
X824301Y336345D01*
X824301Y331547D01*
D11*
X431800Y247650D03*
D12*
X431800Y33338D03*
D13*
X196850Y342900D03*
X95250Y342900D03*
D14*
X184150Y317500D03*
X120650Y292100D03*
D15*
X146050Y342900D03*
D16*
X158750Y393700D03*
X133350Y393700D03*
D17*
X292100Y449580D02*
X292100Y464820D01*
X266700Y464820D02*
X266700Y449580D01*
X241300Y449580D02*
X241300Y464820D01*
X215900Y464820D02*
X215900Y449580D01*
X190500Y449580D02*
X190500Y464820D01*
X685800Y464820D02*
X685800Y449580D01*
X660400Y449580D02*
X660400Y464820D01*
X635000Y464820D02*
X635000Y449580D01*
X609600Y449580D02*
X609600Y464820D01*
X584200Y464820D02*
X584200Y449580D01*
X292100Y45720D02*
X292100Y30480D01*
X266700Y30480D02*
X266700Y45720D01*
X241300Y45720D02*
X241300Y30480D01*
X215900Y30480D02*
X215900Y45720D01*
X190500Y45720D02*
X190500Y30480D01*
X685800Y30480D02*
X685800Y45720D01*
X660400Y45720D02*
X660400Y30480D01*
X635000Y30480D02*
X635000Y45720D01*
X609600Y45720D02*
X609600Y30480D01*
X584200Y30480D02*
X584200Y45720D01*
D18*
X128550Y429438D03*
X163550Y429438D03*
X128550Y411938D03*
X163550Y411938D03*
X319050Y429438D03*
X354050Y429438D03*
X319050Y411938D03*
X354050Y411938D03*
X509550Y429438D03*
X544550Y429438D03*
X509550Y411938D03*
X544550Y411938D03*
X700050Y429438D03*
X735050Y429438D03*
X700050Y411938D03*
X735050Y411938D03*
X128550Y83363D03*
X163550Y83363D03*
X128550Y65863D03*
X163550Y65863D03*
X319050Y83363D03*
X354050Y83363D03*
X319050Y65863D03*
X354050Y65863D03*
X509550Y83363D03*
X544550Y83363D03*
X509550Y65863D03*
X544550Y65863D03*
X700050Y83363D03*
X735050Y83363D03*
X700050Y65863D03*
X735050Y65863D03*
D13*
X387350Y342900D03*
X285750Y342900D03*
D14*
X374650Y317500D03*
X311150Y292100D03*
D15*
X336550Y342900D03*
D16*
X349250Y393700D03*
X323850Y393700D03*
D13*
X577850Y342900D03*
X476250Y342900D03*
D14*
X565150Y317500D03*
X501650Y292100D03*
D15*
X527050Y342900D03*
D16*
X539750Y393700D03*
X514350Y393700D03*
D13*
X768350Y342900D03*
X666750Y342900D03*
D14*
X755650Y317500D03*
X692150Y292100D03*
D15*
X717550Y342900D03*
D16*
X730250Y393700D03*
X704850Y393700D03*
D13*
X95250Y152400D03*
X196850Y152400D03*
D14*
X107950Y177800D03*
X171450Y203200D03*
D15*
X146050Y152400D03*
D16*
X133350Y101600D03*
X158750Y101600D03*
D13*
X285750Y152400D03*
X387350Y152400D03*
D14*
X298450Y177800D03*
X361950Y203200D03*
D15*
X336550Y152400D03*
D16*
X323850Y101600D03*
X349250Y101600D03*
D13*
X476250Y152400D03*
X577850Y152400D03*
D14*
X488950Y177800D03*
X552450Y203200D03*
D15*
X527050Y152400D03*
D16*
X514350Y101600D03*
X539750Y101600D03*
D13*
X666750Y152400D03*
X768350Y152400D03*
D14*
X679450Y177800D03*
X742950Y203200D03*
D15*
X717550Y152400D03*
D16*
X704850Y101600D03*
X730250Y101600D03*
D19*
X73819Y119063D03*
X789781Y375444D03*
M02*
