M48
;GenerationSoftware,Autodesk,EAGLE,9.6.2*%
;CreationDate,2020-09-03T09:29:07Z*%
FMAT,2
ICI,OFF
METRIC,TZ,000.000
T7C0.350
T6C0.800
T5C1.016
T4C1.500
T3C1.700
T2C2.600
T1C4.100
%
G90
M71
T1
X71755Y34290
X71755Y15240
X33655Y15240
X52705Y34290
X14605Y34290
X52705Y15240
X14605Y15240
X33655Y34290
T2
X43180Y24765
T3
X19685Y34290
X9525Y34290
X38735Y34290
X28575Y34290
X57785Y34290
X38735Y15240
X76835Y34290
X66675Y34290
X9525Y15240
X19685Y15240
X28575Y15240
X47625Y15240
X57785Y15240
X66675Y15240
X76835Y15240
X47625Y34290
T4
X56515Y31750
X31115Y29210
X18415Y31750
X12065Y29210
X37465Y31750
X50165Y29210
X75565Y31750
X69215Y29210
X10795Y17780
X17145Y20320
X29845Y17780
X36195Y20320
X48895Y17780
X55245Y20320
X67945Y17780
X74295Y20320
T5
X29210Y3810
X26670Y3810
X24130Y3810
X21590Y3810
X19050Y3810
X68580Y3810
X66040Y3810
X60960Y3810
X58420Y3810
X60960Y45720
X29210Y45720
X26670Y45720
X24130Y45720
X21590Y45720
X19050Y45720
X68580Y45720
X66040Y45720
X63500Y45720
X63500Y3810
X58420Y45720
T6
X73025Y39370
X70485Y39370
X34925Y39370
X32385Y39370
X13335Y10160
X15875Y10160
X13335Y39370
X32385Y10160
X34925Y10160
X53975Y39370
X51435Y39370
X51435Y10160
X53975Y10160
X15875Y39370
X70485Y10160
X73025Y10160
T7
X78978Y37544
X7382Y11906
M30