G04 EAGLE Gerber RS-274X export*
G75*
%MOMM*%
%FSLAX34Y34*%
%LPD*%
%IN*%
%IPPOS*%
%AMOC8*
5,1,8,0,0,1.08239X$1,22.5*%
G01*
%ADD10C,0.254000*%


D10*
X0Y25400D02*
X97Y23186D01*
X386Y20989D01*
X865Y18826D01*
X1532Y16713D01*
X2380Y14666D01*
X3403Y12700D01*
X4594Y10831D01*
X5942Y9073D01*
X7440Y7440D01*
X9073Y5942D01*
X10831Y4594D01*
X12700Y3403D01*
X14666Y2380D01*
X16713Y1532D01*
X18826Y865D01*
X20989Y386D01*
X23186Y97D01*
X25400Y0D01*
X838200Y0D01*
X840414Y97D01*
X842611Y386D01*
X844774Y865D01*
X846887Y1532D01*
X848935Y2380D01*
X850900Y3403D01*
X852769Y4594D01*
X854527Y5942D01*
X856161Y7440D01*
X857658Y9073D01*
X859006Y10831D01*
X860197Y12700D01*
X861220Y14666D01*
X862068Y16713D01*
X862735Y18826D01*
X863214Y20989D01*
X863503Y23186D01*
X863600Y25400D01*
X863600Y428625D01*
X717550Y428625D01*
X717550Y406400D01*
X657225Y406400D01*
X657225Y438150D01*
X704850Y438150D01*
X704850Y495300D01*
X536575Y495300D01*
X536575Y403225D01*
X501650Y403225D01*
X501650Y304800D01*
X352425Y304800D01*
X352425Y431800D01*
X320675Y431800D01*
X320675Y495300D01*
X171450Y495300D01*
X171450Y428625D01*
X0Y428625D01*
X0Y25400D01*
X520700Y254000D02*
X549275Y254000D01*
X549275Y187325D01*
X596900Y187325D01*
X596900Y130175D01*
X727075Y130175D01*
X727075Y193675D01*
X819150Y193675D01*
X819150Y260350D01*
X781050Y260350D01*
X781050Y276225D01*
X739775Y276225D01*
X739775Y358775D01*
X606425Y358775D01*
X606425Y307975D01*
X520700Y307975D01*
X520700Y269875D01*
X520700Y254000D01*
X387350Y212725D02*
X403225Y212725D01*
X403225Y130175D01*
X460375Y130175D01*
X460375Y212725D01*
X476250Y212725D01*
X476250Y276225D01*
X387350Y276225D01*
X387350Y212725D01*
X393700Y22225D02*
X466725Y22225D01*
X466725Y82550D01*
X393700Y82550D01*
X393700Y22225D01*
M02*
